<svg viewBox="0 0 16 16">
    <path transform="scale(0.25)translate(0,-230)" id="path4496" d="m 2.5271738,296.84276 c -2.09110551,0.0369 -2.39186421,-1.28044 -2.38206818,-2.51568 v -55.32444 c -0.001939,-1.39797 0.96177978,-1.83417 2.35164498,-1.84594 l 54.9631524,0.0786 c 1.600948,0.0172 2.202262,0.88266 2.237405,2.2284 0.05253,18.10695 0.105063,36.21389 0.157589,54.32083 -0.24567,1.09927 0.449339,2.38591 -1.939703,3.05823 z M 18.263232,259.86574 H 9.0556595 v 27.21573 h 9.2075725 z m 13.96639,19.00663 c 0.0058,-7.36548 0.06335,-8.3337 0.559426,-9.42165 0.745833,-1.63567 2.119221,-2.56093 4.036294,-2.71926 1.99729,-0.16497 3.204941,0.45296 4.082634,2.08902 0.64485,1.20202 0.674921,1.58508 0.76585,9.75607 l 0.09464,8.50492 h 4.583392 4.583396 l -0.0052,-8.50492 c -0.0068,-11.24384 -0.484855,-13.53151 -3.443278,-16.47802 -1.738084,-1.7311 -4.00835,-2.5926 -6.9472,-2.63626 -3.036651,-0.0451 -4.950092,0.64912 -6.83857,2.48116 l -1.477946,1.43377 v -1.75573 -1.75573 h -9.207573 v 27.21573 h 9.207573 l 0.0065,-8.2091 z m -17.15122,-22.5743 c 3.400379,-0.9405 4.82739,-4.85228 2.692104,-7.37971 -1.093946,-1.29485 -2.206614,-1.77303 -4.125677,-1.77303 -2.971548,0 -4.8211471,1.44292 -5.1088979,3.98556 -0.2756029,2.43529 0.8338335,4.24792 3.0904789,5.04929 1.398198,0.49651 2.007783,0.51733 3.451992,0.11789 z" style="fill:#0d5d9a;fill-opacity:1;stroke-width:0.29642025" />
</svg>
