<svg viewBox="0 0 16 16">
  <g transform="scale(0.25)translate(0,-230)">
    <path style="fill:#cdd7db;stroke-width:0.15634844" d="m 47.891657,291.32702 c -3.77963,-3.14957 -7.035802,-5.78876 -7.235938,-5.86486 -0.483335,-0.18376 -26.08215,-0.18094 -26.424909,0.003 -0.144831,0.0777 -3.323692,2.6457 -7.0641335,5.70671 -3.7404425,3.061 -6.88966652,5.56546 -6.99827704,5.56546 -0.15848209,0 -0.18942283,-5.53357 -0.15670282,-28.02545 l 0.0407678,-28.02546 0.38714104,-0.78175 c 0.49359052,-0.9966 1.43043802,-1.93344 2.42713122,-2.42703 l 0.7817424,-0.38715 H 29.993192 56.337909 l 0.781744,0.38715 c 0.996693,0.49359 1.933536,1.43043 2.427127,2.42712 l 0.387143,0.78175 v 20.48165 20.48164 l -0.329221,0.71151 c -0.675949,1.4609 -1.999197,2.53258 -3.56128,2.88425 l -0.79995,0.1801 -0.07818,5.76019 c -0.05105,3.7603 -0.134317,5.77888 -0.23988,5.81401 -0.08893,0.0296 -3.254125,-2.52309 -7.033758,-5.67267 z m -13.05166,-22.55635 c 0,-1.1716 -0.02743,-1.2678 -0.568466,-1.99344 -1.216576,-1.63171 -4.129751,-3.53796 -6.230666,-4.07709 -1.354507,-0.34758 -4.589034,-0.38386 -5.865093,-0.0657 -1.068083,0.26624 -2.879294,1.08428 -3.793724,1.71342 -0.854633,0.588 -2.033967,1.76732 -2.633274,2.63325 -0.401485,0.58009 -0.452333,0.78661 -0.452333,1.83709 v 1.18352 h 9.771777 9.771779 z m -8.244818,-9.02156 c 1.538502,-0.52423 2.868252,-2.22986 3.040643,-3.90014 0.245608,-2.37973 -1.237783,-4.43844 -3.622056,-5.02681 -0.941425,-0.23232 -1.105657,-0.23241 -2.042957,-0.001 -2.810301,0.6935 -4.281297,3.31607 -3.403806,6.06847 0.34187,1.07233 1.676357,2.47057 2.70399,2.83317 0.9174,0.3237 2.416702,0.33561 3.324186,0.0264 z" id="path5137" />
    <path style="fill:#b3d2f3;stroke-width:0.15634844" d="m 47.798325,291.22543 c -3.750861,-3.11689 -8.147192,-6.75763 -9.769625,-8.09049 l -2.949874,-2.4234 -13.135423,-0.0782 -13.1354229,-0.0782 -0.9380908,-0.43894 C 6.6708752,279.55525 5.56849,278.39782 5.1384526,277.24843 4.818574,276.3935 4.8156152,276.2221 4.857221,260.95877 l 0.04205,-15.42563 0.4143844,-0.78174 c 0.2279114,-0.42996 0.68523,-1.05259 1.0162653,-1.38363 0.3310346,-0.33103 0.9536645,-0.78835 1.3836226,-1.01626 l 0.7817419,-0.41438 H 29.993197 51.491109 l 0.781738,0.41376 c 1.026457,0.5433 1.858962,1.37042 2.386639,2.37121 l 0.427633,0.81104 v 25.63899 c 0,22.6679 -0.02719,25.64371 -0.234519,25.6797 -0.128987,0.0224 -3.303409,-2.50949 -7.054272,-5.6264 z M 34.96335,268.89508 c 0.0442,-1.15905 0.0312,-1.2057 -0.599243,-2.14978 -0.354433,-0.53078 -0.715271,-0.96504 -0.801864,-0.96504 -0.08659,0 -0.555681,-0.35642 -1.042416,-0.79205 -1.095262,-0.98027 -3.339696,-2.11043 -4.793685,-2.41382 -0.601941,-0.1256 -1.833185,-0.22836 -2.736097,-0.22836 -2.146283,0 -3.515251,0.30102 -5.237673,1.15168 -1.521191,0.75129 -2.971845,1.94438 -3.897732,3.20569 -0.538094,0.73302 -0.558199,0.80898 -0.558199,2.1087 v 1.34827 l 9.810865,-0.0403 9.810865,-0.0403 z m -7.867329,-9.29512 c 2.095277,-0.99122 3.125272,-3.59029 2.338212,-5.90017 -0.323843,-0.95043 -1.317678,-2.05945 -2.314198,-2.5824 -0.686874,-0.36047 -0.990419,-0.42036 -2.12999,-0.42036 -1.139571,0 -1.443117,0.0599 -2.129989,0.42036 -0.996522,0.52295 -1.990357,1.63197 -2.3142,2.5824 -0.135445,0.3975 -0.24472,1.18512 -0.242832,1.75024 0.01165,3.48403 3.585478,5.66734 6.792997,4.14993 z" id="path5135" />
    <path style="fill:#4c95f5;stroke-width:0.15634844" d="m 47.779689,290.91328 c -3.752865,-3.1172 -8.143962,-6.75817 -9.757995,-8.09103 l -2.934605,-2.42341 -13.217728,-0.0782 -13.2177291,-0.0782 -0.7751461,-0.38427 c -1.0341932,-0.51265 -1.9024527,-1.4091 -2.4068638,-2.48499 l -0.414005,-0.88305 v -15.32214 -15.32215 l 0.4331586,-0.88204 c 0.5053767,-1.0291 1.5527734,-2.05396 2.5881709,-2.53247 l 0.7310336,-0.33785 H 29.993195 51.17841 l 0.731031,0.33785 c 1.035398,0.47851 2.082797,1.50337 2.588174,2.53247 l 0.433158,0.88204 0.05064,14.07136 c 0.05519,15.33397 -0.103323,36.66371 -0.272427,36.66371 -0.05826,0 -3.176414,-2.55044 -6.929276,-5.66763 z m -10.164507,-20.54643 7.387464,-0.1035 v -1.1165 c 0,-0.96515 -0.06188,-1.21406 -0.456533,-1.83637 -1.498246,-2.36249 -3.604494,-3.56275 -6.252002,-3.56275 -1.453781,0 -2.442343,0.27237 -3.668491,1.01073 -0.504872,0.30401 -0.979424,0.55276 -1.054566,0.55276 -0.07513,0 -0.576702,-0.35577 -1.114583,-0.7906 -1.253001,-1.01294 -2.821467,-1.78238 -4.480313,-2.19791 -1.883633,-0.47181 -5.007033,-0.36927 -6.819946,0.22393 -2.181696,0.71386 -4.194605,2.14477 -5.487236,3.90069 l -0.685232,0.93082 v 1.44205 c 0,0.79312 0.0469,1.48896 0.104233,1.54628 0.133839,0.13384 12.986157,0.13405 22.527205,3.2e-4 z m 2.215268,-8.75277 c 2.026721,-1.00997 2.444621,-3.68154 0.823502,-5.26453 -1.630362,-1.59199 -4.239041,-1.17201 -5.24378,0.84425 -0.700547,1.40581 -0.491703,2.73192 0.602572,3.8262 1.088505,1.0885 2.412175,1.29447 3.817706,0.59408 z m -12.708682,-1.6864 c 1.823668,-0.8349 2.871427,-2.54327 2.871427,-4.68183 0,-2.67625 -1.999922,-4.73407 -4.768627,-4.90668 -2.061784,-0.12855 -3.832664,0.93013 -4.782216,2.85894 -0.465955,0.9465 -0.49016,1.08193 -0.424619,2.37609 0.07997,1.57912 0.398416,2.34885 1.376297,3.32673 1.529237,1.52923 3.75763,1.9287 5.727738,1.02675 z" id="path5133" />
  </g>
</svg>
