<?xml version="1.0" encoding="UTF-8" standalone="no"?>
<svg xmlns:dc="http://purl.org/dc/elements/1.1/" xmlns:cc="http://creativecommons.org/ns#" xmlns:rdf="http://www.w3.org/1999/02/22-rdf-syntax-ns#" xmlns:svg="http://www.w3.org/2000/svg" xmlns="http://www.w3.org/2000/svg" id="svg5265" version="1.1" viewBox="0 0 16 16">
  <metadata id="metadata5271">
    <rdf:RDF>
      <cc:Work rdf:about="">
        <dc:format>image/svg+xml</dc:format>
        <dc:type rdf:resource="http://purl.org/dc/dcmitype/StillImage" />
        <dc:title></dc:title>
      </cc:Work>
    </rdf:RDF>
  </metadata>
  <defs id="defs5269" />
  <path id="Blue_1_" d="M 1.1289062 0.27539062 C 0.65748625 0.27539062 0.27539062 0.65748625 0.27539062 1.1289062 L 0.27539062 14.884766 C 0.27539062 15.356066 0.65742625 15.738281 1.1289062 15.738281 L 8.5351562 15.738281 L 8.5351562 9.75 L 6.5195312 9.75 L 6.5195312 7.4160156 L 8.5351562 7.4160156 L 8.5351562 5.6953125 C 8.5351562 3.6980925 9.7534562 2.6113281 11.535156 2.6113281 C 12.388596 2.6113281 13.122217 2.674685 13.335938 2.703125 L 13.335938 4.7890625 L 12.101562 4.7910156 C 11.132682 4.7910156 10.945312 5.2501213 10.945312 5.9257812 L 10.945312 7.4160156 L 13.255859 7.4160156 L 12.955078 9.75 L 10.945312 9.75 L 10.945312 15.738281 L 14.884766 15.738281 C 15.356006 15.738281 15.738281 15.356126 15.738281 14.884766 L 15.738281 1.1289062 C 15.738281 0.65748625 15.356066 0.27539062 14.884766 0.27539062 L 1.1289062 0.27539062 z " style="fill:#3c5a99;stroke-width:0.06" />
</svg>
