<?xml version="1.0" encoding="UTF-8"?>
<svg xmlns="http://www.w3.org/2000/svg" xmlns:xlink="http://www.w3.org/1999/xlink" width="145pt" height="199pt" viewBox="0 0 145 199" version="1.1">
<g id="surface1">
<path style=" stroke:none;fill-rule:nonzero;fill:rgb(34.901961%,37.647059%,52.941176%);fill-opacity:1;" d="M 51.292969 168.441406 C 51.292969 168.441406 40.210938 180.742188 32.292969 184.945312 C 27.222656 187.640625 23.742188 186.222656 21.910156 182.667969 C 19.449219 177.878906 13.992188 146.933594 13.992188 146.933594 L 28.917969 135.878906 L 32.734375 157.179688 L 46.285156 139.835938 L 51.292969 168.441406 "/>
<path style=" stroke:none;fill-rule:nonzero;fill:rgb(28.627451%,20.784314%,18.039216%);fill-opacity:1;" d="M 60.4375 96.753906 L 58.902344 95.226562 C 58.902344 95.226562 54.085938 98.164062 51.5625 101.765625 C 46.546875 108.910156 42.171875 117.230469 46.375 129.261719 C 47.976562 133.859375 52.28125 137.230469 52.28125 137.230469 C 52.28125 137.230469 56.113281 134.324219 57.535156 129.550781 C 60.691406 118.929688 55.65625 111.621094 58.644531 99.644531 C 59.332031 96.890625 60.4375 96.753906 60.4375 96.753906 "/>
<path style="fill:none;stroke-width:7;stroke-linecap:round;stroke-linejoin:round;stroke:rgb(10.196078%,9.803922%,9.803922%);stroke-opacity:1;stroke-miterlimit:4;" d="M 214.657328 345.202379 L 209.204876 339.753062 C 209.204876 339.753062 192.09833 350.23359 183.135776 363.083386 C 165.321659 388.573924 149.782866 418.259461 164.711207 461.185027 C 170.399515 477.588725 185.688578 489.616245 185.688578 489.616245 C 185.688578 489.616245 199.298895 479.247213 204.349003 462.216355 C 215.559133 424.322001 197.675647 398.246113 208.289197 355.515664 C 210.731008 345.69017 214.657328 345.202379 214.657328 345.202379 Z M 214.657328 345.202379 " transform="matrix(0.281553,0,0,0.280282,0,0)"/>
<path style=" stroke:none;fill-rule:nonzero;fill:rgb(28.627451%,20.784314%,18.039216%);fill-opacity:1;" d="M 120.226562 96.753906 L 121.761719 95.226562 C 121.761719 95.226562 126.578125 98.164062 129.101562 101.765625 C 134.117188 108.910156 138.492188 117.230469 134.292969 129.261719 C 132.6875 133.859375 128.378906 137.230469 128.378906 137.230469 C 128.378906 137.230469 124.550781 134.324219 123.128906 129.550781 C 119.972656 118.929688 125.007812 111.621094 122.019531 99.644531 C 121.335938 96.890625 120.226562 96.753906 120.226562 96.753906 "/>
<path style="fill:none;stroke-width:7;stroke-linecap:round;stroke-linejoin:round;stroke:rgb(10.196078%,9.803922%,9.803922%);stroke-opacity:1;stroke-miterlimit:4;" d="M 427.011584 345.202379 L 432.464036 339.753062 C 432.464036 339.753062 449.570582 350.23359 458.533136 363.083386 C 476.347252 388.573924 491.886045 418.259461 476.971579 461.185027 C 471.269397 477.588725 455.96646 489.616245 455.96646 489.616245 C 455.96646 489.616245 442.370016 479.247213 437.319908 462.216355 C 426.109779 424.322001 443.993265 398.246113 433.379714 355.515664 C 430.951778 345.69017 427.011584 345.202379 427.011584 345.202379 Z M 427.011584 345.202379 " transform="matrix(0.281553,0,0,0.280282,0,0)"/>
<path style=" stroke:none;fill-rule:nonzero;fill:rgb(34.901961%,37.647059%,52.941176%);fill-opacity:1;" d="M 46.546875 139.222656 C 51.9375 135.71875 71.40625 128.945312 79.328125 126.820312 L 101.449219 126.820312 C 109.371094 128.945312 129.300781 135.476562 134.6875 138.984375 C 144.507812 145.796875 143.730469 198.019531 143.730469 198.019531 L 56.050781 198.019531 L 51.476562 168.652344 C 51.476562 168.652344 43.09375 148.96875 46.546875 139.222656 "/>
<path style=" stroke:none;fill-rule:nonzero;fill:rgb(50.196078%,58.431373%,74.901961%);fill-opacity:1;" d="M 46.898438 139.398438 C 50.59375 136.246094 71.40625 128.945312 79.328125 126.820312 L 101.449219 126.820312 C 109.371094 128.945312 129.300781 135.476562 134.6875 138.984375 C 137.230469 140.636719 138.628906 144.332031 139.980469 149.039062 C 138.800781 146.179688 137.796875 143.964844 135.992188 142.789062 C 130.605469 139.285156 110.675781 132.75 102.75 130.632812 L 80.632812 130.632812 C 72.707031 132.75 58.515625 135.28125 48.570312 142.378906 C 45.765625 144.378906 33.261719 160.070312 33.261719 160.070312 L 32.734375 157.179688 C 32.734375 157.179688 44.0625 141.261719 46.898438 139.398438 "/>
<path style=" stroke:none;fill-rule:nonzero;fill:rgb(100%,100%,99.607843%);fill-opacity:1;" d="M 96.242188 122.46875 C 98.609375 123.054688 101.449219 126.820312 101.449219 126.820312 C 101.449219 126.820312 98.902344 153.960938 90.386719 183.808594 C 81.871094 153.960938 79.328125 126.820312 79.328125 126.820312 C 79.328125 126.820312 82.164062 123.054688 84.53125 122.46875 L 96.242188 122.46875 "/>
<path style=" stroke:none;fill-rule:nonzero;fill:rgb(97.254902%,82.352941%,70.980392%);fill-opacity:1;" d="M 90.265625 131.070312 C 88.074219 129.980469 85.867188 128.304688 84.019531 126.566406 L 84.0625 125.328125 C 85.253906 123.210938 85.652344 119.289062 85.785156 117.261719 L 94.746094 117.167969 C 94.871094 119.164062 95.265625 123.175781 96.472656 125.328125 L 95.792969 126.914062 C 94.394531 128.285156 92.824219 129.765625 91.121094 131.261719 L 90.265625 131.070312 "/>
<path style=" stroke:none;fill-rule:nonzero;fill:rgb(85.882353%,61.568627%,53.333333%);fill-opacity:1;" d="M 85.433594 120.066406 L 95.710938 120.066406 L 95.710938 122.71875 C 95.710938 122.71875 92.574219 127.882812 84.546875 126.117188 L 85.433594 120.066406 "/>
<path style=" stroke:none;fill-rule:nonzero;fill:rgb(60%,72.941176%,77.647059%);fill-opacity:1;" d="M 85.941406 153.136719 C 85.941406 153.136719 91.320312 151.328125 95.15625 153.875 L 92.8125 142.421875 L 86.917969 142.421875 L 85.941406 153.136719 "/>
<path style=" stroke:none;fill-rule:nonzero;fill:rgb(66.27451%,65.882353%,56.470588%);fill-opacity:1;" d="M 117.804688 183.835938 C 119.816406 183.835938 124.691406 180.058594 124.691406 176.453125 C 124.691406 174.679688 124.183594 172.980469 123.464844 172.183594 C 122.3125 170.902344 120.164062 170.589844 117.804688 170.589844 C 115.441406 170.589844 113.296875 170.902344 112.140625 172.183594 C 111.421875 172.980469 110.914062 174.679688 110.914062 176.453125 C 110.914062 180.058594 115.789062 183.835938 117.804688 183.835938 "/>
<path style="fill:none;stroke-width:5;stroke-linecap:butt;stroke-linejoin:miter;stroke:rgb(10.196078%,9.803922%,9.803922%);stroke-opacity:1;stroke-miterlimit:4;" d="M 418.409752 655.897063 C 425.554822 655.897063 442.869477 642.420108 442.869477 629.556376 C 442.869477 623.229036 441.065867 617.166497 438.513066 614.323375 C 434.420259 609.752081 426.789601 608.637131 418.409752 608.637131 C 410.016029 608.637131 402.399246 609.752081 398.292565 614.323375 C 395.739763 617.166497 393.936153 623.229036 393.936153 629.556376 C 393.936153 642.420108 411.250808 655.897063 418.409752 655.897063 Z M 418.409752 655.897063 " transform="matrix(0.281553,0,0,0.280282,0,0)"/>
<path style=" stroke:none;fill-rule:nonzero;fill:rgb(82.352941%,81.176471%,71.764706%);fill-opacity:1;" d="M 117.804688 181.109375 C 119.070312 181.109375 122.140625 178.730469 122.140625 176.460938 C 122.140625 175.34375 121.824219 174.273438 121.371094 173.773438 C 120.640625 172.964844 119.289062 172.765625 117.804688 172.765625 C 116.3125 172.765625 114.964844 172.964844 114.234375 173.773438 C 113.78125 174.273438 113.464844 175.34375 113.464844 176.460938 C 113.464844 178.730469 116.535156 181.109375 117.804688 181.109375 "/>
<path style=" stroke:none;fill-rule:nonzero;fill:rgb(100%,100%,99.607843%);fill-opacity:1;" d="M 13.992188 146.933594 L 14.757812 151.136719 L 29.363281 140.101562 L 28.894531 136.421875 L 13.992188 146.933594 "/>
<path style="fill:none;stroke-width:6;stroke-linecap:round;stroke-linejoin:round;stroke:rgb(10.196078%,9.803922%,9.803922%);stroke-opacity:1;stroke-miterlimit:4;" d="M 301.383217 427.88984 C 301.383217 427.88984 300.231681 439.457443 298.56681 447.150597 C 298.56681 447.150597 307.695851 463.93059 319.974273 467.707483 C 319.974273 467.707483 336.983702 459.038748 342.644262 447.150597 L 340.674165 427.025754 M 281.751616 452.474482 C 281.751616 452.474482 290.78354 549.307867 321.028691 655.799505 L 334.902613 706.501845 M 271.457166 456.056258 L 238.076509 476.850071 L 267.683459 498.271043 L 232.3882 522.841748 L 321.153556 684.523398 " transform="matrix(0.281553,0,0,0.280282,0,0)"/>
<path style="fill:none;stroke-width:7;stroke-linecap:round;stroke-linejoin:round;stroke:rgb(10.196078%,9.803922%,9.803922%);stroke-opacity:1;stroke-miterlimit:4;" d="M 510.490975 706.501845 C 510.490975 706.501845 510.726832 518.674623 478.372845 495.873901 C 459.684671 482.68962 388.455954 460.05614 360.319639 452.474482 C 360.319639 452.474482 350.372037 439.819802 342.644262 436.948807 " transform="matrix(0.281553,0,0,0.280282,0,0)"/>
<path style="fill:none;stroke-width:6;stroke-linecap:round;stroke-linejoin:round;stroke:rgb(10.196078%,9.803922%,9.803922%);stroke-opacity:1;stroke-miterlimit:4;" d="M 471.42201 512.779326 L 449.584456 706.501845 M 360.319639 452.474482 C 360.319639 452.474482 351.273842 549.307867 321.028691 655.799505 M 370.600216 456.056258 L 403.994747 476.850071 L 374.373922 498.271043 L 409.669181 522.841748 L 325.551589 668.523869 M 296.874192 496.584681 L 319.974273 467.707483 L 340.979391 496.584681 " transform="matrix(0.281553,0,0,0.280282,0,0)"/>
<path style=" stroke:none;fill-rule:nonzero;fill:rgb(86.27451%,23.137255%,28.627451%);fill-opacity:1;" d="M 89.808594 134.253906 C 89.808594 134.253906 75.910156 137.167969 73.273438 137.785156 C 70.632812 138.402344 75.382812 149.664062 77.222656 151.179688 C 79.0625 152.695312 88.4375 137.0625 89.808594 134.253906 "/>
<path style="fill:none;stroke-width:6;stroke-linecap:round;stroke-linejoin:round;stroke:rgb(10.196078%,9.803922%,9.803922%);stroke-opacity:1;stroke-miterlimit:4;" d="M 318.97535 478.996349 C 318.97535 478.996349 269.611934 489.393255 260.247037 491.595281 C 250.868265 493.797307 267.738955 533.977308 274.273572 539.384815 C 280.80819 544.792321 314.105603 489.01696 318.97535 478.996349 Z M 318.97535 478.996349 " transform="matrix(0.281553,0,0,0.280282,0,0)"/>
<path style=" stroke:none;fill-rule:nonzero;fill:rgb(86.27451%,23.137255%,28.627451%);fill-opacity:1;" d="M 89.773438 134.480469 C 85.59375 134.605469 74.273438 149.507812 74.027344 151.460938 C 73.78125 153.421875 80.425781 161.871094 82.761719 161.625 C 85.097656 161.378906 91.863281 136.929688 89.773438 134.480469 "/>
<path style="fill:none;stroke-width:6;stroke-linecap:round;stroke-linejoin:round;stroke:rgb(10.196078%,9.803922%,9.803922%);stroke-opacity:1;stroke-miterlimit:4;" d="M 318.850485 479.804687 C 304.005388 480.250667 263.798761 533.419834 262.924704 540.388269 C 262.050647 547.384579 285.650189 577.530033 293.946794 576.65201 C 302.2434 575.773987 326.273033 488.543106 318.850485 479.804687 Z M 318.850485 479.804687 " transform="matrix(0.281553,0,0,0.280282,0,0)"/>
<path style=" stroke:none;fill-rule:nonzero;fill:rgb(86.27451%,23.137255%,28.627451%);fill-opacity:1;" d="M 90.851562 134.253906 C 90.851562 134.253906 104.75 137.167969 107.382812 137.785156 C 110.023438 138.402344 105.277344 149.664062 103.441406 151.179688 C 101.601562 152.695312 92.222656 137.0625 90.851562 134.253906 "/>
<path style="fill:none;stroke-width:6;stroke-linecap:round;stroke-linejoin:round;stroke:rgb(10.196078%,9.803922%,9.803922%);stroke-opacity:1;stroke-miterlimit:4;" d="M 322.679688 478.996349 C 322.679688 478.996349 372.043103 489.393255 381.394127 491.595281 C 390.772899 493.797307 373.916083 533.977308 367.395339 539.384815 C 360.860722 544.792321 327.549434 489.01696 322.679688 478.996349 Z M 322.679688 478.996349 " transform="matrix(0.281553,0,0,0.280282,0,0)"/>
<path style=" stroke:none;fill-rule:nonzero;fill:rgb(86.27451%,23.137255%,28.627451%);fill-opacity:1;" d="M 90.886719 134.480469 C 95.070312 134.605469 106.382812 149.507812 106.628906 151.460938 C 106.875 153.421875 100.230469 161.871094 97.898438 161.625 C 95.5625 161.378906 88.792969 136.929688 90.886719 134.480469 "/>
<path style="fill:none;stroke-width:6;stroke-linecap:round;stroke-linejoin:round;stroke:rgb(10.196078%,9.803922%,9.803922%);stroke-opacity:1;stroke-miterlimit:4;" d="M 322.804553 479.804687 C 337.663524 480.250667 377.842403 533.419834 378.71646 540.388269 C 379.590517 547.384579 355.990975 577.530033 347.708244 576.65201 C 339.411638 575.773987 315.36813 488.543106 322.804553 479.804687 Z M 322.804553 479.804687 " transform="matrix(0.281553,0,0,0.280282,0,0)"/>
<path style=" stroke:none;fill-rule:nonzero;fill:rgb(28.627451%,20.784314%,18.039216%);fill-opacity:1;" d="M 135.453125 81.125 C 151.824219 26.910156 113.992188 4.769531 108.472656 7.636719 C 104.730469 2.050781 90.664062 -0.515625 76.945312 3.863281 C 63.226562 8.242188 28.742188 27.257812 43.355469 79.0625 "/>
<path style=" stroke:none;fill-rule:nonzero;fill:rgb(67.45098%,54.509804%,48.627451%);fill-opacity:1;" d="M 79.433594 10.429688 C 93.15625 6.046875 107.21875 8.617188 110.960938 14.203125 C 114.238281 12.5 128.90625 19.613281 136.859375 37.019531 C 130.011719 14.84375 112.136719 5.734375 108.472656 7.636719 C 104.730469 2.050781 90.664062 -0.515625 76.945312 3.863281 C 63.226562 8.242188 28.742188 27.257812 43.355469 79.0625 L 44.246094 79.082031 C 34.222656 32.21875 66.3125 14.617188 79.433594 10.429688 "/>
<path style="fill:none;stroke-width:7;stroke-linecap:round;stroke-linejoin:round;stroke:rgb(10.196078%,9.803922%,9.803922%);stroke-opacity:1;stroke-miterlimit:4;" d="M 481.092134 289.440955 C 539.237742 96.01111 404.868804 17.016921 385.264952 27.246584 C 371.973734 7.316858 322.013739 -1.839667 273.288524 13.783566 C 224.563308 29.4068 99.642511 98.491873 153.986665 282.082286 " transform="matrix(0.281553,0,0,0.280282,0,0)"/>
<path style=" stroke:none;fill-rule:nonzero;fill:rgb(67.45098%,54.509804%,48.627451%);fill-opacity:1;" d="M 55.964844 21.691406 C 55.964844 21.691406 64.601562 29.816406 83.605469 29.167969 C 83.605469 29.167969 88.890625 31.332031 78.011719 32.210938 C 69.738281 32.882812 59.039062 34.414062 48.230469 32.210938 C 45.578125 31.671875 55.964844 21.691406 55.964844 21.691406 "/>
<path style="fill-rule:nonzero;fill:rgb(97.254902%,82.352941%,70.980392%);fill-opacity:1;stroke-width:7;stroke-linecap:round;stroke-linejoin:round;stroke:rgb(10.196078%,9.803922%,9.803922%);stroke-opacity:1;stroke-miterlimit:4;" d="M 459.809537 268.396278 C 463.194774 265.148987 469.798761 256.034273 482.535022 258.54291 C 495.29903 261.051547 501.625539 282.29134 492.038658 305.565916 C 482.437904 328.854428 462.653691 340.645022 447.822468 340.129358 " transform="matrix(0.281553,0,0,0.280282,0,0)"/>
<path style=" stroke:none;fill-rule:nonzero;fill:rgb(85.882353%,61.568627%,53.333333%);fill-opacity:1;" d="M 134.160156 84.925781 C 132.886719 87.511719 130.59375 89.015625 129.035156 88.28125 C 127.476562 87.550781 127.246094 84.859375 128.519531 82.269531 C 129.789062 79.679688 132.082031 78.175781 133.640625 78.910156 C 135.195312 79.640625 135.425781 82.335938 134.160156 84.925781 "/>
<path style="fill:none;stroke-width:7;stroke-linecap:round;stroke-linejoin:round;stroke:rgb(10.196078%,9.803922%,9.803922%);stroke-opacity:1;stroke-miterlimit:4;" d="M 457.783944 293.761385 C 457.783944 293.761385 469.313173 272.61915 481.147629 274.319449 " transform="matrix(0.281553,0,0,0.280282,0,0)"/>
<path style="fill-rule:nonzero;fill:rgb(97.254902%,82.352941%,70.980392%);fill-opacity:1;stroke-width:7;stroke-linecap:round;stroke-linejoin:round;stroke:rgb(10.196078%,9.803922%,9.803922%);stroke-opacity:1;stroke-miterlimit:4;" d="M 180.208378 268.103604 C 176.739898 264.925997 169.913928 255.978525 157.233163 258.80771 C 144.538524 261.636895 138.739224 283.016057 148.894935 306.053706 C 159.078394 329.091355 179.140086 340.380221 193.957435 339.516135 " transform="matrix(0.281553,0,0,0.280282,0,0)"/>
<path style=" stroke:none;fill-rule:nonzero;fill:rgb(85.882353%,61.568627%,53.333333%);fill-opacity:1;" d="M 46.277344 84.953125 C 47.617188 87.507812 49.949219 88.957031 51.488281 88.183594 C 53.027344 87.414062 53.191406 84.71875 51.855469 82.15625 C 50.519531 79.601562 48.1875 78.152344 46.652344 78.925781 C 45.109375 79.699219 44.945312 82.398438 46.277344 84.953125 "/>
<path style="fill:none;stroke-width:7;stroke-linecap:round;stroke-linejoin:round;stroke:rgb(10.196078%,9.803922%,9.803922%);stroke-opacity:1;stroke-miterlimit:4;" d="M 184.81452 293.371153 C 184.81452 293.371153 172.758082 272.521592 160.979122 274.514565 " transform="matrix(0.281553,0,0,0.280282,0,0)"/>
<path style=" stroke:none;fill-rule:nonzero;fill:rgb(97.254902%,82.352941%,70.980392%);fill-opacity:1;" d="M 130.296875 66.328125 C 130.765625 79.664062 126.730469 96.859375 120.058594 105.953125 C 111.957031 116.988281 96.800781 120.679688 90.265625 120.679688 C 83.730469 120.679688 68.578125 116.988281 60.476562 105.953125 C 53.566406 96.539062 49.382812 76.121094 50.203125 62.613281 C 50.203125 62.613281 65.597656 53.820312 77.445312 44.011719 C 77.445312 44.011719 71.039062 51.945312 73.105469 52.652344 C 76.507812 53.820312 89.234375 53.722656 97.164062 47.414062 C 97.164062 47.414062 94.921875 52.960938 96.300781 52.847656 C 97.679688 52.730469 110.894531 48.523438 112.960938 36.265625 C 112.960938 36.265625 112.5 48.523438 108.136719 52.378906 C 108.136719 52.378906 116.292969 51.328125 120.773438 46.890625 C 120.773438 46.890625 126.777344 53.324219 130.296875 66.328125 "/>
<path style="fill:none;stroke-width:7;stroke-linecap:round;stroke-linejoin:round;stroke:rgb(10.196078%,9.803922%,9.803922%);stroke-opacity:1;stroke-miterlimit:4;" d="M 462.778556 236.648084 C 464.443427 284.228565 450.111665 345.578675 426.415005 378.023712 C 397.64049 417.395375 343.809671 430.565719 320.598599 430.565719 C 297.387527 430.565719 243.570582 417.395375 214.796067 378.023712 C 190.253098 344.435851 175.394127 271.587822 178.307651 223.394119 C 178.307651 223.394119 232.984779 192.02222 275.064386 157.026735 C 275.064386 157.026735 252.311153 185.332522 259.650458 187.855096 C 271.734644 192.02222 316.935884 191.673799 345.099946 169.165751 C 345.099946 169.165751 337.136315 188.956109 342.033809 188.551939 C 346.931304 188.133833 393.866783 173.123822 401.206088 129.389918 C 401.206088 129.389918 399.568966 173.123822 384.071794 186.879515 C 384.071794 186.879515 413.040544 183.130496 428.953933 167.29821 C 428.953933 167.29821 450.278152 190.252238 462.778556 236.648084 Z M 320.515356 318.178785 L 320.515356 310.903737 " transform="matrix(0.281553,0,0,0.280282,0,0)"/>
<path style=" stroke:none;fill-rule:nonzero;fill:rgb(100%,100%,99.607843%);fill-opacity:1;" d="M 82.261719 73.242188 C 82.261719 78.757812 78.027344 83.234375 72.808594 83.234375 C 67.585938 83.234375 63.355469 78.757812 63.355469 73.242188 C 63.355469 67.71875 67.585938 63.25 72.808594 63.25 C 78.027344 63.25 82.261719 67.71875 82.261719 73.242188 "/>
<path style=" stroke:none;fill-rule:nonzero;fill:rgb(84.705882%,91.372549%,94.509804%);fill-opacity:1;" d="M 63.269531 71.605469 C 63.269531 71.605469 64.261719 65.277344 71.027344 63.519531 C 78.9375 61.464844 80.96875 68.441406 80.96875 68.441406 C 80.96875 68.441406 76.847656 65.765625 71.941406 66.859375 C 67.3125 67.890625 63.269531 71.605469 63.269531 71.605469 "/>
<path style=" stroke:none;fill-rule:nonzero;fill:rgb(10.196078%,9.803922%,9.803922%);fill-opacity:1;" d="M 80.078125 74.148438 C 80.078125 78.394531 77.816406 81.839844 75.035156 81.839844 C 72.242188 81.839844 69.980469 78.394531 69.980469 74.148438 C 69.980469 69.898438 72.242188 66.453125 75.035156 66.453125 C 77.816406 66.453125 80.078125 69.898438 80.078125 74.148438 "/>
<path style="fill:none;stroke-width:7;stroke-linecap:round;stroke-linejoin:round;stroke:rgb(10.196078%,9.803922%,9.803922%);stroke-opacity:1;stroke-miterlimit:4;" d="M 288.868939 245.679177 C 288.868939 245.679177 280.03125 221.122409 252.463766 226.906211 C 222.315733 233.219614 224.799165 267.197707 224.799165 267.197707 " transform="matrix(0.281553,0,0,0.280282,0,0)"/>
<path style=" stroke:none;fill-rule:nonzero;fill:rgb(100%,100%,99.607843%);fill-opacity:1;" d="M 79.351562 71.414062 C 79.351562 72.28125 78.640625 72.984375 77.753906 72.984375 C 76.875 72.984375 76.160156 72.28125 76.160156 71.414062 C 76.160156 70.542969 76.875 69.835938 77.753906 69.835938 C 78.640625 69.835938 79.351562 70.542969 79.351562 71.414062 "/>
<path style="fill:none;stroke-width:6;stroke-linecap:round;stroke-linejoin:round;stroke:rgb(10.196078%,9.803922%,9.803922%);stroke-opacity:1;stroke-miterlimit:4;" d="M 223.689251 256.438442 L 213.85264 254.166732 " transform="matrix(0.281553,0,0,0.280282,0,0)"/>
<path style=" stroke:none;fill-rule:nonzero;fill:rgb(100%,100%,99.607843%);fill-opacity:1;" d="M 98.226562 73.242188 C 98.226562 78.757812 102.457031 83.234375 107.675781 83.234375 C 112.902344 83.234375 117.132812 78.757812 117.132812 73.242188 C 117.132812 67.71875 112.902344 63.25 107.675781 63.25 C 102.457031 63.25 98.226562 67.71875 98.226562 73.242188 "/>
<path style=" stroke:none;fill-rule:nonzero;fill:rgb(84.705882%,91.372549%,94.509804%);fill-opacity:1;" d="M 117.214844 71.605469 C 117.214844 71.605469 116.222656 65.277344 109.460938 63.519531 C 101.546875 61.464844 99.519531 68.441406 99.519531 68.441406 C 99.519531 68.441406 103.640625 65.765625 108.546875 66.859375 C 113.175781 67.890625 117.214844 71.605469 117.214844 71.605469 "/>
<path style=" stroke:none;fill-rule:nonzero;fill:rgb(10.196078%,9.803922%,9.803922%);fill-opacity:1;" d="M 100.40625 74.148438 C 100.40625 78.394531 102.671875 81.839844 105.453125 81.839844 C 108.246094 81.839844 110.507812 78.394531 110.507812 74.148438 C 110.507812 69.898438 108.246094 66.453125 105.453125 66.453125 C 102.671875 66.453125 100.40625 69.898438 100.40625 74.148438 "/>
<path style="fill:none;stroke-width:7;stroke-linecap:round;stroke-linejoin:round;stroke:rgb(10.196078%,9.803922%,9.803922%);stroke-opacity:1;stroke-miterlimit:4;" d="M 352.175647 245.679177 C 352.175647 245.679177 360.999461 221.122409 388.580819 226.906211 C 418.714978 233.219614 416.24542 267.197707 416.24542 267.197707 " transform="matrix(0.281553,0,0,0.280282,0,0)"/>
<path style=" stroke:none;fill-rule:nonzero;fill:rgb(100%,100%,99.607843%);fill-opacity:1;" d="M 106.769531 71.414062 C 106.769531 72.28125 107.488281 72.984375 108.367188 72.984375 C 109.25 72.984375 109.964844 72.28125 109.964844 71.414062 C 109.964844 70.542969 109.25 69.835938 108.367188 69.835938 C 107.488281 69.835938 106.769531 70.542969 106.769531 71.414062 "/>
<path style="fill:none;stroke-width:6;stroke-linecap:round;stroke-linejoin:round;stroke:rgb(10.196078%,9.803922%,9.803922%);stroke-opacity:1;stroke-miterlimit:4;" d="M 417.355334 256.438442 L 427.191945 254.166732 " transform="matrix(0.281553,0,0,0.280282,0,0)"/>
<path style=" stroke:none;fill-rule:nonzero;fill:rgb(92.156863%,57.254902%,58.039216%);fill-opacity:1;" d="M 56.195312 86.207031 C 56.195312 87.84375 59.09375 89.167969 62.671875 89.167969 C 66.253906 89.167969 69.15625 87.84375 69.15625 86.207031 C 69.15625 84.570312 66.253906 83.246094 62.671875 83.246094 C 59.09375 83.246094 56.195312 84.570312 56.195312 86.207031 "/>
<path style=" stroke:none;fill-rule:nonzero;fill:rgb(92.156863%,57.254902%,58.039216%);fill-opacity:1;" d="M 124.292969 86.207031 C 124.292969 87.84375 121.390625 89.167969 117.8125 89.167969 C 114.234375 89.167969 111.332031 87.84375 111.332031 86.207031 C 111.332031 84.570312 114.234375 83.246094 117.8125 83.246094 C 121.390625 83.246094 124.292969 84.570312 124.292969 86.207031 "/>
<path style="fill:none;stroke-width:6;stroke-linecap:round;stroke-linejoin:round;stroke:rgb(10.196078%,9.803922%,9.803922%);stroke-opacity:1;stroke-miterlimit:4;" d="M 233.692349 207.269158 C 239.685884 203.436519 246.595097 200.816387 253.310075 199.966237 C 268.779499 198.001139 280.378098 200.175291 289.937231 205.150754 M 407.352236 207.269158 C 401.358702 203.436519 394.449488 200.816387 387.73451 199.966237 C 372.265086 198.001139 360.652613 200.175291 351.107355 205.150754 M 321.569774 695.979507 C 321.569774 698.641449 319.43319 700.773791 316.769397 700.773791 C 314.133351 700.773791 311.982893 698.641449 311.982893 695.979507 C 311.982893 693.345438 314.133351 691.185223 316.769397 691.185223 C 319.43319 691.185223 321.569774 693.345438 321.569774 695.979507 Z M 172.549973 529.252709 L 198.660695 706.501845 " transform="matrix(0.281553,0,0,0.280282,0,0)"/>
<path style=" stroke:none;fill-rule:nonzero;fill:rgb(97.254902%,82.352941%,70.980392%);fill-opacity:1;" d="M 18.007812 144.332031 L 15.558594 130.109375 C 15.558594 130.109375 7.894531 128.027344 5.605469 117.277344 C 5.605469 117.277344 1.382812 111.695312 1.023438 109.296875 C 0.628906 106.640625 3.316406 104.09375 5.84375 104.675781 C 5.84375 104.675781 7.003906 99.472656 11.269531 99.703125 C 11.269531 99.703125 13.003906 95.367188 17.269531 96.636719 C 17.269531 96.636719 15.320312 82.15625 15.003906 77.476562 C 14.691406 72.792969 19.585938 72.445312 20.453125 76 C 21.09375 78.625 27.089844 106.089844 27.089844 106.089844 L 27.167969 106.523438 C 29.566406 107.773438 30.644531 109.296875 30.328125 113.894531 C 30.015625 118.398438 27.484375 124.15625 27.484375 124.15625 L 29.140625 135.878906 "/>
<path style=" stroke:none;fill-rule:nonzero;fill:rgb(81.176471%,58.431373%,49.411765%);fill-opacity:1;" d="M 6.503906 118.039062 C 6.503906 118.039062 8.71875 120.078125 10.492188 119.210938 C 12.273438 118.34375 12.664062 116.304688 12.664062 116.304688 C 12.664062 116.304688 14.757812 116.523438 15.824219 115.480469 C 16.894531 114.441406 18.3125 111.925781 18.3125 111.925781 L 20.40625 113.484375 C 20.40625 113.484375 16.535156 118.90625 16.65625 121.246094 C 16.65625 121.246094 8.796875 122.070312 7.847656 122.375 C 6.902344 122.679688 6.503906 118.039062 6.503906 118.039062 "/>
<path style="fill:none;stroke-width:7;stroke-linecap:round;stroke-linejoin:round;stroke:rgb(10.196078%,9.803922%,9.803922%);stroke-opacity:1;stroke-miterlimit:4;" d="M 116.166352 561.72562 C 116.166352 561.72562 140.709321 527.399105 155.318561 511.106902 C 163.44868 502.033998 175.629984 490.703321 189.698141 484.236613 C 229.696659 465.784194 279.906385 452.474482 279.906385 452.474482 C 279.906385 452.474482 288.924434 441.101994 299.510237 436.948807 M 122.478987 607.048328 L 102.708648 484.794088 L 49.69639 524.235435 C 49.69639 524.235435 69.07826 634.643334 77.818831 651.729939 C 84.3257 664.412492 96.687365 669.471577 114.695717 659.855135 C 142.818157 644.859061 182.178475 600.971851 182.178475 600.971851 M 104.970097 500.542753 L 54.205415 538.855214 M 63.140221 513.601602 L 55.259833 464.209328 C 55.259833 464.209328 28.039197 456.780975 19.909079 418.426704 C 19.909079 418.426704 4.911369 398.510914 3.634968 389.953675 C 2.233702 380.476602 11.77896 371.389761 20.755388 373.466355 C 20.755388 373.466355 24.875943 354.902442 40.026266 355.724717 C 40.026266 355.724717 46.186288 340.25479 61.336611 344.784273 C 61.336611 344.784273 54.413524 293.120289 53.289736 276.423916 C 52.179822 259.713607 67.898976 258.905269 70.326913 271.727191 C 73.240436 287.141371 93.246633 377.145689 93.246633 377.145689 L 96.49313 380.058496 C 105.011719 384.518295 108.840921 389.953675 107.717134 406.357373 C 106.60722 422.426586 97.616918 442.969535 97.616918 442.969535 L 102.514413 484.849835 " transform="matrix(0.281553,0,0,0.280282,0,0)"/>
<path style="fill:none;stroke-width:6;stroke-linecap:round;stroke-linejoin:round;stroke:rgb(10.196078%,9.803922%,9.803922%);stroke-opacity:1;stroke-miterlimit:4;" d="M 96.49313 380.058496 C 79.941541 371.389761 55.828664 370.163317 54.136045 380.365107 C 52.443427 390.580834 69.563847 403.569998 79.941541 406.050762 M 72.366379 404.183221 C 72.366379 404.183221 53.581088 426.468279 60.032462 444.711644 M 61.336611 344.784273 L 71.256466 372.225974 M 40.026266 355.515664 L 53.858567 380.476602 M 19.6316 418.217651 C 19.6316 418.217651 28.011449 425.701751 33.28354 425.855057 C 40.581223 426.050173 45.437096 421.520689 44.882139 413.883284 C 44.882139 413.883284 57.410291 417.604428 64.139143 401.716394 M 20.755388 373.466355 C 20.755388 373.466355 35.33688 406.873037 46.186288 413.479114 " transform="matrix(0.281553,0,0,0.280282,0,0)"/>
<path style=" stroke:none;fill-rule:nonzero;fill:rgb(86.27451%,38.823529%,46.27451%);fill-opacity:1;" d="M 90.097656 96.308594 C 96.585938 96.308594 99.925781 94.695312 99.925781 94.695312 C 99.980469 98.527344 99.070312 113.785156 90.421875 113.785156 C 81.777344 113.785156 80.863281 98.527344 80.921875 94.695312 C 80.921875 94.695312 83.613281 96.308594 90.097656 96.308594 "/>
<path style=" stroke:none;fill-rule:nonzero;fill:rgb(70.196078%,32.156863%,31.764706%);fill-opacity:1;" d="M 90.539062 98.988281 C 93.867188 98.988281 96.921875 100.332031 99.382812 102.324219 C 99.851562 99.441406 99.941406 95.992188 99.925781 94.695312 C 99.925781 94.695312 96.585938 96.308594 90.097656 96.308594 C 83.613281 96.308594 80.921875 94.695312 80.921875 94.695312 C 80.902344 96.015625 80.996094 99.539062 81.484375 102.484375 C 83.851562 100.253906 87.121094 98.988281 90.539062 98.988281 "/>
<path style="fill:none;stroke-width:6;stroke-linecap:round;stroke-linejoin:round;stroke:rgb(10.196078%,9.803922%,9.803922%);stroke-opacity:1;stroke-miterlimit:4;" d="M 320.00202 343.613576 C 343.046606 343.613576 354.908809 337.857648 354.908809 337.857648 C 355.103044 351.529719 351.87042 405.96714 321.153556 405.96714 C 290.450566 405.96714 287.204068 351.529719 287.412177 337.857648 C 287.412177 337.857648 296.971309 343.613576 320.00202 343.613576 Z M 320.00202 343.613576 " transform="matrix(0.281553,0,0,0.280282,0,0)"/>
</g>
</svg>
