<?xml version="1.0" encoding="UTF-8"?>
<svg xmlns="http://www.w3.org/2000/svg" xmlns:xlink="http://www.w3.org/1999/xlink" width="172pt" height="200pt" viewBox="0 0 172 200" version="1.1">
<defs>
<clipPath id="clip1">
  <path d="M 9 7 L 163 7 L 163 198.714844 L 9 198.714844 Z M 9 7 "/>
</clipPath>
<clipPath id="clip2">
  <path d="M 7 5 L 165 5 L 165 198.714844 L 7 198.714844 Z M 7 5 "/>
</clipPath>
<clipPath id="clip3">
  <path d="M 56 182 L 133 182 L 133 198.714844 L 56 198.714844 Z M 56 182 "/>
</clipPath>
<clipPath id="clip4">
  <path d="M 55 180 L 134 180 L 134 198.714844 L 55 198.714844 Z M 55 180 "/>
</clipPath>
<clipPath id="clip5">
  <path d="M 75 142 L 133 142 L 133 198.714844 L 75 198.714844 Z M 75 142 "/>
</clipPath>
<clipPath id="clip6">
  <path d="M 74 141 L 134 141 L 134 198.714844 L 74 198.714844 Z M 74 141 "/>
</clipPath>
<clipPath id="clip7">
  <path d="M 59 185 L 147 185 L 147 198.714844 L 59 198.714844 Z M 59 185 "/>
</clipPath>
<clipPath id="clip8">
  <path d="M 58 184 L 149 184 L 149 198.714844 L 58 198.714844 Z M 58 184 "/>
</clipPath>
<clipPath id="clip9">
  <path d="M 9 192 L 155 192 L 155 198.714844 L 9 198.714844 Z M 9 192 "/>
</clipPath>
<clipPath id="clip10">
  <path d="M 8 191 L 156 191 L 156 198.714844 L 8 198.714844 Z M 8 191 "/>
</clipPath>
</defs>
<g id="surface1">
<g clip-path="url(#clip1)" clip-rule="nonzero">
<path style=" stroke:none;fill-rule:nonzero;fill:rgb(47.45098%,47.45098%,47.45098%);fill-opacity:1;" d="M 54.085938 191.042969 L 54.085938 186.480469 C 54.085938 186.042969 53.730469 185.691406 53.292969 185.691406 L 37.691406 185.691406 L 37.691406 191.832031 L 53.292969 191.832031 C 53.730469 191.832031 54.085938 191.480469 54.085938 191.042969 M 118.238281 229.628906 L 118.039062 229.632812 C 118.039062 229.632812 118.109375 229.660156 118.238281 229.628906 M 122.9375 172.28125 C 122.59375 171.011719 122.386719 170.269531 122.386719 170.269531 L 121.371094 164.46875 L 123.347656 172.058594 Z M 112.015625 127.984375 L 111.9375 128.292969 L 110.296875 127.40625 C 110.957031 127.597656 111.609375 127.808594 112.253906 128.035156 Z M 108.339844 127.332031 L 108.300781 126.890625 C 108.339844 126.898438 108.378906 126.910156 108.417969 126.917969 C 108.402344 127.050781 108.378906 127.1875 108.339844 127.332031 M 99.652344 127.324219 C 99.566406 126.976562 99.53125 126.660156 99.578125 126.390625 L 96.054688 128.292969 L 95.976562 127.984375 L 93.550781 128.472656 C 90.117188 128.714844 86.789062 129.164062 85.277344 129.980469 C 85.09375 130.082031 84.511719 131.316406 84.511719 131.316406 C 84.511719 131.402344 84.515625 131.5 84.523438 131.597656 C 83.3125 134.53125 81.261719 142.039062 78.9375 151.324219 C 77.511719 147.046875 76.375 143.832031 76.375 143.832031 L 76.371094 143.832031 L 75.898438 142.449219 C 78.785156 138.660156 76.246094 135.738281 74.96875 134.621094 C 75.109375 134.535156 75.253906 134.449219 75.402344 134.363281 C 75.949219 134.347656 76.617188 134.125 77.191406 133.328125 C 82.5 130.367188 91 126.503906 99.765625 126.097656 Z M 76.445312 289.210938 C 76.242188 289.472656 76.066406 289.726562 75.902344 289.964844 L 75.902344 285.472656 C 75.902344 285.472656 75.890625 285.472656 75.871094 285.46875 L 75.371094 235.074219 L 75.78125 238.171875 L 75.691406 238.171875 L 82.039062 285.917969 C 79.902344 286.453125 77.808594 287.4375 76.445312 289.210938 M 72.539062 222.5 L 75.898438 222.359375 C 75.902344 222.351562 75.902344 222.34375 75.90625 222.339844 L 75.914062 222.339844 C 75.257812 223.363281 74.914062 224.609375 74.742188 225.796875 C 74.339844 224.699219 73.667969 223.511719 72.539062 222.5 M 161.695312 92.066406 L 161.679688 92.042969 C 162.570312 85.910156 162.996094 74.238281 162.273438 61.464844 C 161.59375 49.4375 158.722656 40.082031 154.644531 32.804688 C 151.261719 26.769531 146.511719 22.8125 141.496094 20.089844 C 139.296875 18.898438 137.222656 18.070312 135.289062 17.507812 C 132.847656 14.40625 126.125 8.089844 111.46875 7.289062 C 101.378906 6.738281 63.035156 6.574219 53.726562 54.042969 C 51.398438 65.90625 50.324219 75.910156 50.109375 84.4375 C 49.726562 99.589844 54.398438 111.992188 59.496094 120.910156 C 58.453125 122.429688 57.566406 124.570312 56.871094 126.625 L 48.445312 129.398438 L 48.890625 130.742188 L 44.355469 132.234375 L 43.910156 130.890625 L 36.929688 133.1875 L 38.851562 138.996094 L 45.832031 136.699219 L 45.28125 135.03125 L 49.8125 133.535156 L 50.367188 135.203125 L 55.730469 133.4375 L 66.050781 146.019531 C 66.058594 146.0625 70.140625 172.5 73.925781 177.207031 C 76.121094 179.9375 84.113281 181.566406 84.492188 172.648438 L 86.621094 164.460938 L 85.605469 170.269531 C 85.605469 170.269531 83.488281 177.976562 81.210938 186.402344 C 78.949219 186.128906 76.472656 185.960938 73.78125 185.960938 C 73.09375 185.960938 72.441406 185.96875 71.800781 185.984375 L 71.769531 185.984375 C 57.464844 186.328125 55.144531 190.25 55.144531 190.25 L 59.25 192.664062 C 59.25 192.664062 60.105469 191.695312 62.699219 190.824219 L 59.25 192.664062 L 60.832031 192.902344 L 32.695312 192.902344 C 33.375 192.902344 33.929688 192.421875 33.929688 191.832031 L 33.929688 181.066406 C 33.929688 180.476562 33.375 179.996094 32.695312 179.996094 L 14.792969 179.996094 C 14.109375 179.996094 13.558594 180.476562 13.558594 181.066406 L 13.558594 191.832031 C 13.558594 192.421875 14.109375 192.902344 14.792969 192.902344 L 9.558594 192.902344 L 9.558594 201.929688 L 76.414062 201.929688 C 75.957031 202.320312 75.6875 202.019531 75.6875 202.238281 C 75.695312 202.667969 77.777344 203.113281 80.644531 203.515625 C 79.03125 204.535156 74.160156 207.660156 66.683594 212.792969 C 57.074219 219.390625 56.195312 225.378906 56.160156 228.015625 C 56.160156 228.015625 57.652344 226.453125 60.820312 224.964844 C 60.28125 227.460938 60.621094 229.980469 60.621094 229.980469 L 61.710938 238.171875 L 68.054688 285.898438 C 65.890625 286.425781 63.757812 287.414062 62.375 289.210938 C 61.445312 290.417969 60.976562 291.371094 60.769531 292.121094 L 60.765625 292.121094 C 59.15625 295.035156 60.382812 296.246094 60.382812 296.246094 L 74.359375 296.125 C 74.414062 296.207031 74.453125 296.246094 74.453125 296.246094 L 89.976562 296.109375 L 89.976562 285.472656 C 89.976562 285.472656 89.960938 285.472656 89.941406 285.46875 L 89.386719 229.300781 C 89.386719 229.300781 89.535156 227.210938 88.484375 225.015625 C 91.933594 226.949219 92.621094 229.222656 95.101562 229.308594 C 97.042969 229.378906 98.988281 229.433594 100.902344 229.476562 L 100.910156 229.480469 L 100.914062 229.480469 C 107.367188 229.628906 113.507812 229.65625 118.28125 229.617188 C 118.265625 229.621094 118.25 229.625 118.238281 229.628906 L 121.066406 229.582031 C 124.902344 229.523438 127.394531 229.414062 127.71875 229.308594 C 135.503906 226.75 132.035156 208.457031 129.4375 203.1875 C 131.171875 202.878906 132.300781 202.554688 132.304688 202.238281 C 132.308594 202.019531 132.035156 202.320312 131.578125 201.929688 L 153.070312 201.929688 C 153.960938 201.929688 154.683594 201.210938 154.683594 200.320312 L 154.683594 194.511719 C 154.683594 193.625 153.960938 192.902344 153.070312 192.902344 L 143.492188 192.902344 L 141.699219 190.25 C 141.699219 190.25 139.554688 186.625 126.683594 186.042969 C 126.453125 185.199219 126.230469 184.363281 126.007812 183.546875 C 128.800781 182.457031 132.316406 181.0625 133.832031 180.351562 C 134.972656 179.816406 134.871094 177.105469 134.511719 174.628906 C 134.503906 174.257812 134.460938 173.871094 134.378906 173.453125 C 134.257812 172.933594 134.136719 172.410156 134.015625 171.890625 C 133.804688 170.921875 133.632812 170.269531 133.632812 170.269531 C 130.183594 155.585938 126.5625 140.910156 124.375 134.140625 C 129.714844 137.640625 133.15625 140.957031 133.15625 140.957031 C 133.15625 140.957031 159.46875 124.445312 161.695312 92.066406 "/>
</g>
<g clip-path="url(#clip2)" clip-rule="nonzero">
<path style="fill:none;stroke-width:8;stroke-linecap:round;stroke-linejoin:round;stroke:rgb(47.45098%,47.45098%,47.45098%);stroke-opacity:1;stroke-miterlimit:4;" d="M 100.625 356.295137 L 100.625 347.786074 C 100.625 346.970137 99.963663 346.314473 99.149709 346.314473 L 70.123547 346.314473 L 70.123547 357.766738 L 99.149709 357.766738 C 99.963663 357.766738 100.625 357.111074 100.625 356.295137 Z M 219.978198 428.25791 L 219.607558 428.265195 C 219.607558 428.265195 219.738372 428.316191 219.978198 428.25791 Z M 228.72093 321.304531 C 228.081395 318.936855 227.696221 317.552676 227.696221 317.552676 L 225.806686 306.734219 L 229.484012 320.889277 Z M 208.401163 238.690859 L 208.255814 239.266387 L 205.203488 237.612656 C 206.431686 237.969629 207.645349 238.363027 208.844477 238.785566 Z M 201.5625 237.474238 L 201.489826 236.651016 C 201.5625 236.665586 201.635174 236.687441 201.707849 236.702012 C 201.678779 236.949707 201.635174 237.204688 201.5625 237.474238 Z M 185.399709 237.459668 C 185.239826 236.811289 185.174419 236.221191 185.261628 235.718516 L 178.706395 239.266387 L 178.561047 238.690859 L 174.047965 239.601504 C 167.659884 240.053184 161.468023 240.890977 158.655523 242.413574 C 158.313953 242.602988 157.231105 244.905098 157.231105 244.905098 C 157.231105 245.065371 157.238372 245.2475 157.252907 245.429629 C 155 250.900781 151.184593 264.902852 146.860465 282.219668 C 144.207849 274.242422 142.093023 268.246738 142.093023 268.246738 L 142.085756 268.246738 L 141.206395 265.667793 C 146.577035 258.601191 141.853198 253.151895 139.476744 251.06834 C 139.738372 250.908066 140.007267 250.747793 140.28343 250.58752 C 141.300872 250.558379 142.543605 250.143125 143.611919 248.656953 C 153.488372 243.134805 169.302326 235.929785 185.610465 235.172129 Z M 142.223837 539.378398 C 141.84593 539.866504 141.518895 540.340039 141.213663 540.784434 L 141.213663 532.406504 C 141.213663 532.406504 141.19186 532.406504 141.155523 532.399219 L 140.225291 438.413418 L 140.988372 444.190547 L 140.821221 444.190547 L 152.630814 533.237012 C 148.655523 534.235078 144.760174 536.070938 142.223837 539.378398 Z M 134.956395 414.9625 L 141.206395 414.700234 C 141.213663 414.685664 141.213663 414.671094 141.22093 414.663809 L 141.235465 414.663809 C 140.014535 416.57252 139.375 418.896484 139.055233 421.111172 C 138.306686 419.064043 137.056686 416.849355 134.956395 414.9625 Z M 300.828488 171.703848 L 300.799419 171.660137 C 302.456395 160.222441 303.248547 138.454395 301.90407 114.631934 C 300.639535 92.200937 295.297965 74.752988 287.710756 61.180742 C 281.417151 49.925176 272.579942 42.545313 263.248547 37.467559 C 259.156977 35.245586 255.297965 33.701133 251.700581 32.65207 C 247.15843 26.867656 234.651163 15.087559 207.383721 13.594102 C 188.611919 12.566895 117.274709 12.260918 99.956395 100.790137 C 95.625 122.915156 93.626453 141.572441 93.226744 157.475937 C 92.514535 185.735059 101.206395 208.86543 110.690407 225.497441 C 108.75 228.331367 107.100291 232.323633 105.806686 236.155625 L 90.130814 241.328086 L 90.959302 243.83418 L 82.521802 246.617109 L 81.693314 244.111016 L 68.706395 248.394688 L 72.281977 259.227715 L 85.268895 254.944043 L 84.244186 251.833281 L 92.674419 249.043066 L 93.706395 252.153828 L 103.684593 248.860938 L 122.885174 272.326426 C 122.899709 272.406563 130.494186 321.7125 137.536337 330.491113 C 141.62064 335.583438 156.489826 338.621348 157.194767 321.989336 L 161.155523 306.719648 L 159.265988 317.552676 C 159.265988 317.552676 155.327035 331.926289 151.090116 347.640371 C 146.882267 347.13041 142.274709 346.817148 137.267442 346.817148 C 135.988372 346.817148 134.774709 346.831719 133.582849 346.860859 L 133.524709 346.860859 C 106.911337 347.501953 102.594477 354.81625 102.594477 354.81625 L 110.232558 359.318477 C 110.232558 359.318477 111.824128 357.511758 116.649709 355.887168 L 110.232558 359.318477 L 113.175872 359.762871 L 60.828488 359.762871 C 62.093023 359.762871 63.125 358.866797 63.125 357.766738 L 63.125 337.688848 C 63.125 336.588789 62.093023 335.692715 60.828488 335.692715 L 27.521802 335.692715 C 26.25 335.692715 25.225291 336.588789 25.225291 337.688848 L 25.225291 357.766738 C 25.225291 358.866797 26.25 359.762871 27.521802 359.762871 L 17.78343 359.762871 L 17.78343 376.598867 L 142.165698 376.598867 C 141.315407 377.327383 140.813953 376.766426 140.813953 377.174395 C 140.828488 377.975762 144.702035 378.80627 150.036337 379.556641 C 147.034884 381.458066 137.972384 387.286191 124.0625 396.858887 C 106.184593 409.163516 104.549419 420.33166 104.484012 425.249141 C 104.484012 425.249141 107.260174 422.335078 113.15407 419.559434 C 112.151163 424.214648 112.78343 428.913574 112.78343 428.913574 L 114.811047 444.190547 L 126.613372 533.200586 C 122.587209 534.184082 118.619186 536.027227 116.046512 539.378398 C 114.31686 541.629512 113.444767 543.40709 113.059593 544.80584 L 113.052326 544.80584 C 110.05814 550.240566 112.340116 552.498965 112.340116 552.498965 L 138.343023 552.273125 C 138.444767 552.426113 138.517442 552.498965 138.517442 552.498965 L 167.398256 552.243984 L 167.398256 532.406504 C 167.398256 532.406504 167.369186 532.406504 167.332849 532.399219 L 166.300872 427.645957 C 166.300872 427.645957 166.577035 423.748398 164.622093 419.654141 C 171.039244 423.260293 172.318314 427.500254 176.93314 427.660527 C 180.545058 427.79166 184.164244 427.893652 187.725291 427.973789 L 187.739826 427.981074 L 187.747093 427.981074 C 199.752907 428.25791 211.177326 428.308906 220.05814 428.236055 C 220.02907 428.24334 220 428.250625 219.978198 428.25791 L 225.239826 428.170488 C 232.376453 428.061211 237.013081 427.857227 237.616279 427.660527 C 252.100291 422.88875 245.646802 388.772363 240.813953 378.944687 C 244.040698 378.36916 246.140988 377.764492 246.148256 377.174395 C 246.155523 376.766426 245.646802 377.327383 244.796512 376.598867 L 284.781977 376.598867 C 286.438953 376.598867 287.78343 375.258398 287.78343 373.597383 L 287.78343 362.764355 C 287.78343 361.110625 286.438953 359.762871 284.781977 359.762871 L 266.962209 359.762871 L 263.626453 354.81625 C 263.626453 354.81625 259.636628 348.055625 235.690407 346.970137 C 235.261628 345.396543 234.847384 343.83752 234.43314 342.314922 C 239.62936 340.282363 246.170058 337.681562 248.989826 336.355664 C 251.111919 335.357598 250.922965 330.301699 250.25436 325.68291 C 250.239826 324.99082 250.159884 324.26959 250.007267 323.490078 C 249.781977 322.521152 249.556686 321.544941 249.331395 320.576016 C 248.938953 318.769297 248.619186 317.552676 248.619186 317.552676 C 242.202035 290.167773 235.465116 262.797441 231.395349 250.172266 C 241.329942 256.699766 247.732558 262.884863 247.732558 262.884863 C 247.732558 262.884863 296.686047 232.090508 300.828488 171.703848 Z M 300.828488 171.703848 " transform="matrix(0.5375,0,0,0.536193,0,0)"/>
</g>
<path style=" stroke:none;fill-rule:nonzero;fill:rgb(64.313725%,54.901961%,47.843137%);fill-opacity:1;" d="M 162.273438 61.464844 C 161.59375 49.4375 158.722656 40.082031 154.644531 32.804688 C 151.261719 26.769531 146.511719 22.8125 141.496094 20.089844 C 139.296875 18.898438 137.222656 18.070312 135.289062 17.507812 C 132.847656 14.40625 126.125 8.089844 111.46875 7.289062 C 101.378906 6.738281 63.035156 6.574219 53.726562 54.042969 C 51.398438 65.90625 50.324219 75.910156 50.109375 84.4375 C 49.289062 116.910156 71.695312 136.753906 71.695312 136.753906 C 71.695312 136.753906 87.707031 125.058594 103.300781 126.125 C 118.894531 127.191406 133.15625 140.957031 133.15625 140.957031 C 133.15625 140.957031 159.46875 124.445312 161.695312 92.066406 L 161.679688 92.042969 C 162.570312 85.910156 162.996094 74.238281 162.273438 61.464844 "/>
<path style="fill:none;stroke-width:4;stroke-linecap:round;stroke-linejoin:round;stroke:rgb(47.45098%,47.45098%,47.45098%);stroke-opacity:1;stroke-miterlimit:4;" d="M 301.90407 114.631934 C 300.639535 92.200937 295.297965 74.752988 287.710756 61.180742 C 281.417151 49.925176 272.579942 42.545313 263.248547 37.467559 C 259.156977 35.245586 255.297965 33.701133 251.700581 32.65207 C 247.15843 26.867656 234.651163 15.087559 207.383721 13.594102 C 188.611919 12.566895 117.274709 12.260918 99.956395 100.790137 C 95.625 122.915156 93.626453 141.572441 93.226744 157.475937 C 91.700581 218.037441 133.386628 255.046035 133.386628 255.046035 C 133.386628 255.046035 163.175872 233.234277 192.1875 235.223125 C 221.199128 237.211973 247.732558 262.884863 247.732558 262.884863 C 247.732558 262.884863 296.686047 232.090508 300.828488 171.703848 L 300.799419 171.660137 C 302.456395 160.222441 303.248547 138.454395 301.90407 114.631934 Z M 301.90407 114.631934 " transform="matrix(0.5375,0,0,0.536193,0,0)"/>
<path style="fill-rule:nonzero;fill:rgb(64.313725%,54.901961%,47.843137%);fill-opacity:1;stroke-width:4;stroke-linecap:round;stroke-linejoin:round;stroke:rgb(47.45098%,47.45098%,47.45098%);stroke-opacity:1;stroke-miterlimit:4;" d="M 150.319767 244.351426 C 150.319767 244.351426 144.251453 226.670352 145.406977 214.737266 " transform="matrix(0.5375,0,0,0.536193,0,0)"/>
<path style="fill-rule:nonzero;fill:rgb(64.313725%,54.901961%,47.843137%);fill-opacity:1;stroke-width:4;stroke-linecap:round;stroke-linejoin:round;stroke:rgb(47.45098%,47.45098%,47.45098%);stroke-opacity:1;stroke-miterlimit:4;" d="M 127.630814 195.176621 C 127.630814 195.176621 129.367733 230.626191 139.026163 249.808008 " transform="matrix(0.5375,0,0,0.536193,0,0)"/>
<path style="fill-rule:nonzero;fill:rgb(64.313725%,54.901961%,47.843137%);fill-opacity:1;stroke-width:4;stroke-linecap:round;stroke-linejoin:round;stroke:rgb(47.45098%,47.45098%,47.45098%);stroke-opacity:1;stroke-miterlimit:4;" d="M 232.412791 249.975566 C 232.412791 249.975566 240.843023 233.292559 241.322674 221.315762 " transform="matrix(0.5375,0,0,0.536193,0,0)"/>
<path style="fill-rule:nonzero;fill:rgb(64.313725%,54.901961%,47.843137%);fill-opacity:1;stroke-width:4;stroke-linecap:round;stroke-linejoin:round;stroke:rgb(47.45098%,47.45098%,47.45098%);stroke-opacity:1;stroke-miterlimit:4;" d="M 261.598837 204.355918 C 261.598837 204.355918 255.043605 239.244531 242.856105 256.925605 " transform="matrix(0.5375,0,0,0.536193,0,0)"/>
<path style=" stroke:none;fill-rule:nonzero;fill:rgb(63.921569%,67.45098%,74.509804%);fill-opacity:1;" d="M 122.714844 129.980469 C 119.660156 128.328125 109.214844 128.1875 105.402344 128.195312 C 104.53125 128.195312 104.007812 128.203125 103.996094 128.203125 C 103.984375 128.203125 103.460938 128.195312 102.589844 128.195312 C 98.777344 128.1875 88.332031 128.328125 85.277344 129.980469 C 85.09375 130.082031 84.511719 131.316406 84.511719 131.316406 C 84.476562 134.910156 90.496094 148.046875 90.496094 148.046875 L 117.496094 148.046875 C 117.496094 148.046875 123.515625 134.910156 123.480469 131.316406 C 123.480469 131.316406 122.898438 130.082031 122.714844 129.980469 "/>
<path style="fill:none;stroke-width:4;stroke-linecap:round;stroke-linejoin:round;stroke:rgb(47.45098%,47.45098%,47.45098%);stroke-opacity:1;stroke-miterlimit:4;" d="M 228.306686 242.413574 C 222.623547 239.331953 203.190407 239.069687 196.097384 239.084258 C 194.476744 239.084258 193.502907 239.098828 193.481105 239.098828 C 193.459302 239.098828 192.485465 239.084258 190.864826 239.084258 C 183.771802 239.069687 164.338663 239.331953 158.655523 242.413574 C 158.313953 242.602988 157.231105 244.905098 157.231105 244.905098 C 157.165698 251.607441 168.364826 276.107422 168.364826 276.107422 L 218.597384 276.107422 C 218.597384 276.107422 229.796512 251.607441 229.731105 244.905098 C 229.731105 244.905098 228.648256 242.602988 228.306686 242.413574 Z M 228.306686 242.413574 " transform="matrix(0.5375,0,0,0.536193,0,0)"/>
<path style="fill-rule:nonzero;fill:rgb(100%,93.72549%,85.098039%);fill-opacity:1;stroke-width:4;stroke-linecap:round;stroke-linejoin:round;stroke:rgb(47.45098%,47.45098%,47.45098%);stroke-opacity:1;stroke-miterlimit:4;" d="M 199.97093 220.623672 L 193.481105 216.405566 L 186.991279 220.623672 L 185.261628 238.909414 C 185.261628 238.909414 186.700581 250.157695 193.481105 250.157695 C 200.25436 250.157695 201.700581 238.909414 201.700581 238.909414 Z M 199.97093 220.623672 " transform="matrix(0.5375,0,0,0.536193,0,0)"/>
<path style="fill-rule:nonzero;fill:rgb(63.921569%,67.45098%,74.509804%);fill-opacity:1;stroke-width:4;stroke-linecap:round;stroke-linejoin:round;stroke:rgb(47.45098%,47.45098%,47.45098%);stroke-opacity:1;stroke-miterlimit:4;" d="M 215.915698 268.603711 L 231.039244 326.892246 C 231.039244 326.892246 236.235465 334.548945 242.390988 333.936992 C 247.303779 333.456172 251.337209 330.206992 250.007267 323.490078 C 241.061047 285.039023 231.053779 244.511699 228.306686 242.989102 L 226.802326 242.340723 " transform="matrix(0.5375,0,0,0.536193,0,0)"/>
<path style="fill-rule:nonzero;fill:rgb(63.921569%,67.45098%,74.509804%);fill-opacity:1;stroke-width:4;stroke-linecap:round;stroke-linejoin:round;stroke:rgb(47.45098%,47.45098%,47.45098%);stroke-opacity:1;stroke-miterlimit:4;" d="M 171.046512 268.603711 L 155.922965 326.892246 C 155.922965 326.892246 150.726744 334.548945 144.571221 333.936992 C 139.65843 333.456172 135.625 330.206992 136.954942 323.490078 C 145.901163 285.039023 155.90843 244.511699 158.655523 242.989102 L 160.159884 242.340723 " transform="matrix(0.5375,0,0,0.536193,0,0)"/>
<g clip-path="url(#clip3)" clip-rule="nonzero">
<path style=" stroke:none;fill-rule:nonzero;fill:rgb(81.176471%,81.176471%,81.176471%);fill-opacity:1;" d="M 129.339844 202.984375 C 126.730469 197.988281 122.800781 182.011719 122.800781 182.011719 L 86.484375 182.011719 C 86.484375 182.011719 83.378906 191.9375 81.316406 203.136719 C 81.289062 203.140625 81.261719 203.140625 81.234375 203.144531 C 81.234375 203.144531 75.964844 206.421875 66.683594 212.792969 C 57.074219 219.390625 56.195312 225.378906 56.160156 228.015625 C 56.160156 228.015625 61.488281 222.441406 73.382812 222.316406 C 91.945312 222.117188 90.703125 229.15625 95.101562 229.308594 C 110.984375 229.871094 126.867188 229.589844 127.71875 229.308594 C 135.601562 226.71875 131.945312 207.980469 129.339844 202.984375 "/>
</g>
<g clip-path="url(#clip4)" clip-rule="nonzero">
<path style="fill:none;stroke-width:4;stroke-linecap:round;stroke-linejoin:round;stroke:rgb(47.45098%,47.45098%,47.45098%);stroke-opacity:1;stroke-miterlimit:4;" d="M 240.632267 378.565859 C 235.777616 369.248145 228.46657 339.451855 228.46657 339.451855 L 160.901163 339.451855 C 160.901163 339.451855 155.123547 357.963437 151.286337 378.84998 C 151.235465 378.857266 151.184593 378.857266 151.133721 378.864551 C 151.133721 378.864551 141.329942 384.976797 124.0625 396.858887 C 106.184593 409.163516 104.549419 420.33166 104.484012 425.249141 C 104.484012 425.249141 114.396802 414.853223 136.526163 414.620098 C 171.061047 414.248555 168.75 427.376406 176.93314 427.660527 C 206.482558 428.70959 236.031977 428.185059 237.616279 427.660527 C 252.281977 422.830469 245.479651 387.883574 240.632267 378.565859 Z M 240.632267 378.565859 " transform="matrix(0.5375,0,0,0.536193,0,0)"/>
</g>
<g clip-path="url(#clip5)" clip-rule="nonzero">
<path style=" stroke:none;fill-rule:nonzero;fill:rgb(63.921569%,67.45098%,74.509804%);fill-opacity:1;" d="M 90.492188 142.359375 L 85.605469 170.269531 C 85.605469 170.269531 81.019531 186.96875 78.085938 198.085938 C 76.699219 203.332031 75.683594 201.816406 75.6875 202.238281 C 75.707031 203.542969 94.714844 204.972656 97.046875 204.972656 C 100.476562 204.972656 102.683594 201.910156 103.996094 198.558594 C 105.308594 201.910156 107.515625 204.972656 110.945312 204.972656 C 113.277344 204.972656 132.289062 203.542969 132.304688 202.238281 C 132.308594 201.816406 131.292969 203.332031 129.90625 198.089844 C 126.972656 186.96875 122.386719 170.269531 122.386719 170.269531 L 117.5 142.359375 "/>
</g>
<g clip-path="url(#clip6)" clip-rule="nonzero">
<path style="fill:none;stroke-width:4;stroke-linecap:round;stroke-linejoin:round;stroke:rgb(47.45098%,47.45098%,47.45098%);stroke-opacity:1;stroke-miterlimit:4;" d="M 168.357558 265.500234 L 159.265988 317.552676 C 159.265988 317.552676 150.734012 348.696719 145.276163 369.430273 C 142.696221 379.214238 140.806686 376.387598 140.813953 377.174395 C 140.850291 379.607637 176.213663 382.274004 180.552326 382.274004 C 186.93314 382.274004 191.039244 376.562441 193.481105 370.311777 C 195.922965 376.562441 200.02907 382.274004 206.409884 382.274004 C 210.748547 382.274004 246.119186 379.607637 246.148256 377.174395 C 246.155523 376.387598 244.265988 379.214238 241.686047 369.437559 C 236.228198 348.696719 227.696221 317.552676 227.696221 317.552676 L 218.604651 265.500234 " transform="matrix(0.5375,0,0,0.536193,0,0)"/>
</g>
<path style="fill-rule:nonzero;fill:rgb(100%,100%,100%);fill-opacity:1;stroke-width:4;stroke-linecap:round;stroke-linejoin:round;stroke:rgb(47.45098%,47.45098%,47.45098%);stroke-opacity:1;stroke-miterlimit:4;" d="M 193.481105 250.63123 L 175.843023 250.055703 L 193.481105 296.979395 L 211.119186 250.055703 Z M 193.481105 250.63123 " transform="matrix(0.5375,0,0,0.536193,0,0)"/>
<path style=" stroke:none;fill-rule:nonzero;fill:rgb(100%,100%,100%);fill-opacity:1;" d="M 99.578125 126.390625 L 95.976562 128.335938 L 95.59375 138.78125 L 103.996094 134.132812 C 103.996094 134.132812 99.203125 128.632812 99.578125 126.390625 "/>
<path style="fill:none;stroke-width:4;stroke-linecap:round;stroke-linejoin:round;stroke:rgb(47.45098%,47.45098%,47.45098%);stroke-opacity:1;stroke-miterlimit:4;" d="M 185.261628 235.718516 L 178.561047 239.346523 L 177.848837 258.827031 L 193.481105 250.157695 C 193.481105 250.157695 184.563953 239.900195 185.261628 235.718516 Z M 185.261628 235.718516 " transform="matrix(0.5375,0,0,0.536193,0,0)"/>
<path style=" stroke:none;fill-rule:nonzero;fill:rgb(100%,100%,100%);fill-opacity:1;" d="M 108.414062 126.390625 L 112.015625 128.335938 L 112.402344 138.78125 L 103.996094 134.132812 C 103.996094 134.132812 108.789062 128.632812 108.414062 126.390625 "/>
<path style="fill:none;stroke-width:4;stroke-linecap:round;stroke-linejoin:round;stroke:rgb(47.45098%,47.45098%,47.45098%);stroke-opacity:1;stroke-miterlimit:4;" d="M 201.700581 235.718516 L 208.401163 239.346523 L 209.12064 258.827031 L 193.481105 250.157695 C 193.481105 250.157695 202.398256 239.900195 201.700581 235.718516 Z M 201.700581 235.718516 " transform="matrix(0.5375,0,0,0.536193,0,0)"/>
<path style="fill-rule:nonzero;fill:rgb(63.921569%,67.45098%,74.509804%);fill-opacity:1;stroke-width:4;stroke-linecap:round;stroke-linejoin:round;stroke:rgb(47.45098%,47.45098%,47.45098%);stroke-opacity:1;stroke-miterlimit:4;" d="M 193.481105 296.979395 L 178.561047 238.690859 L 172.725291 239.871055 L 169.513081 249.334473 L 175.348837 250.252402 L 169.905523 254.863906 Z M 193.481105 296.979395 " transform="matrix(0.5375,0,0,0.536193,0,0)"/>
<path style="fill-rule:nonzero;fill:rgb(93.72549%,94.117647%,68.627451%);fill-opacity:1;stroke-width:4;stroke-linecap:round;stroke-linejoin:round;stroke:rgb(47.45098%,47.45098%,47.45098%);stroke-opacity:1;stroke-miterlimit:4;" d="M 210.625 279.036055 L 203.175872 279.953984 L 203.175872 288.412051 C 203.175872 292.411602 210.625 295.952187 210.625 295.952187 C 210.625 295.952187 218.074128 292.411602 218.074128 288.412051 L 218.074128 279.953984 Z M 210.625 279.036055 " transform="matrix(0.5375,0,0,0.536193,0,0)"/>
<path style="fill-rule:nonzero;fill:rgb(63.921569%,67.45098%,74.509804%);fill-opacity:1;stroke-width:4;stroke-linecap:round;stroke-linejoin:round;stroke:rgb(47.45098%,47.45098%,47.45098%);stroke-opacity:1;stroke-miterlimit:4;" d="M 193.481105 296.979395 L 208.401163 238.690859 L 214.244186 239.871055 L 217.449128 249.334473 L 211.62064 250.252402 L 217.056686 254.863906 Z M 193.481105 296.979395 " transform="matrix(0.5375,0,0,0.536193,0,0)"/>
<path style="fill-rule:nonzero;fill:rgb(78.431373%,50.196078%,55.294118%);fill-opacity:1;stroke-width:4;stroke-linecap:round;stroke-linejoin:round;stroke:rgb(47.45098%,47.45098%,47.45098%);stroke-opacity:1;stroke-miterlimit:4;" d="M 189.244186 261.682813 L 178.364826 267.787773 L 187.928779 276.369687 L 193.401163 262.651738 Z M 189.244186 261.682813 " transform="matrix(0.5375,0,0,0.536193,0,0)"/>
<path style="fill-rule:nonzero;fill:rgb(78.431373%,50.196078%,55.294118%);fill-opacity:1;stroke-width:4;stroke-linecap:round;stroke-linejoin:round;stroke:rgb(47.45098%,47.45098%,47.45098%);stroke-opacity:1;stroke-miterlimit:4;" d="M 197.718023 261.682813 L 208.597384 267.787773 L 199.040698 276.369687 L 193.568314 262.651738 Z M 197.718023 261.682813 " transform="matrix(0.5375,0,0,0.536193,0,0)"/>
<path style=" stroke:none;fill-rule:nonzero;fill:rgb(78.431373%,50.196078%,55.294118%);fill-opacity:1;" d="M 112.347656 136.589844 C 108.1875 133.554688 104.058594 136.710938 103.996094 136.761719 C 103.933594 136.710938 99.804688 133.554688 95.644531 136.589844 C 95.59375 136.617188 95.550781 136.644531 95.523438 136.675781 C 95.523438 136.675781 96.347656 141.242188 99.378906 143.273438 C 99.378906 143.273438 103.097656 141.683594 103.996094 140.0625 C 104.894531 141.683594 108.613281 143.273438 108.613281 143.273438 L 108.617188 143.273438 C 111.648438 141.242188 112.46875 136.675781 112.46875 136.675781 C 112.441406 136.644531 112.398438 136.617188 112.347656 136.589844 "/>
<path style="fill:none;stroke-width:4;stroke-linecap:round;stroke-linejoin:round;stroke:rgb(47.45098%,47.45098%,47.45098%);stroke-opacity:1;stroke-miterlimit:4;" d="M 209.018895 254.740059 C 201.27907 249.079492 193.597384 254.965898 193.481105 255.060605 C 193.364826 254.965898 185.68314 249.079492 177.943314 254.740059 C 177.848837 254.791055 177.768895 254.842051 177.718023 254.900332 C 177.718023 254.900332 179.251453 263.41668 184.890988 267.204961 C 184.890988 267.204961 191.809593 264.239902 193.481105 261.216563 C 195.152616 264.239902 202.071221 267.204961 202.071221 267.204961 L 202.078488 267.204961 C 207.718023 263.41668 209.244186 254.900332 209.244186 254.900332 C 209.193314 254.842051 209.113372 254.791055 209.018895 254.740059 Z M 209.018895 254.740059 " transform="matrix(0.5375,0,0,0.536193,0,0)"/>
<path style=" stroke:none;fill-rule:nonzero;fill:rgb(93.72549%,94.117647%,68.627451%);fill-opacity:1;" d="M 105.804688 164.90625 C 105.804688 165.945312 104.964844 166.785156 103.921875 166.785156 C 102.882812 166.785156 102.042969 165.945312 102.042969 164.90625 C 102.042969 163.871094 102.882812 163.03125 103.921875 163.03125 C 104.964844 163.03125 105.804688 163.871094 105.804688 164.90625 "/>
<path style="fill:none;stroke-width:4;stroke-linecap:round;stroke-linejoin:round;stroke:rgb(47.45098%,47.45098%,47.45098%);stroke-opacity:1;stroke-miterlimit:4;" d="M 196.84593 307.550156 C 196.84593 309.488008 195.28343 311.054316 193.343023 311.054316 C 191.409884 311.054316 189.847384 309.488008 189.847384 307.550156 C 189.847384 305.61959 191.409884 304.053281 193.343023 304.053281 C 195.28343 304.053281 196.84593 305.61959 196.84593 307.550156 Z M 196.84593 307.550156 " transform="matrix(0.5375,0,0,0.536193,0,0)"/>
<path style=" stroke:none;fill-rule:nonzero;fill:rgb(93.72549%,94.117647%,68.627451%);fill-opacity:1;" d="M 105.804688 176.234375 C 105.804688 177.273438 104.964844 178.113281 103.921875 178.113281 C 102.882812 178.113281 102.042969 177.273438 102.042969 176.234375 C 102.042969 175.199219 102.882812 174.359375 103.921875 174.359375 C 104.964844 174.359375 105.804688 175.199219 105.804688 176.234375 "/>
<path style="fill:none;stroke-width:4;stroke-linecap:round;stroke-linejoin:round;stroke:rgb(47.45098%,47.45098%,47.45098%);stroke-opacity:1;stroke-miterlimit:4;" d="M 196.84593 328.677109 C 196.84593 330.614961 195.28343 332.18127 193.343023 332.18127 C 191.409884 332.18127 189.847384 330.614961 189.847384 328.677109 C 189.847384 326.746543 191.409884 325.180234 193.343023 325.180234 C 195.28343 325.180234 196.84593 326.746543 196.84593 328.677109 Z M 196.84593 328.677109 " transform="matrix(0.5375,0,0,0.536193,0,0)"/>
<path style=" stroke:none;fill-rule:nonzero;fill:rgb(93.72549%,94.117647%,68.627451%);fill-opacity:1;" d="M 105.804688 187.5625 C 105.804688 188.597656 104.964844 189.4375 103.921875 189.4375 C 102.882812 189.4375 102.042969 188.597656 102.042969 187.5625 C 102.042969 186.527344 102.882812 185.683594 103.921875 185.683594 C 104.964844 185.683594 105.804688 186.527344 105.804688 187.5625 "/>
<path style="fill:none;stroke-width:4;stroke-linecap:round;stroke-linejoin:round;stroke:rgb(47.45098%,47.45098%,47.45098%);stroke-opacity:1;stroke-miterlimit:4;" d="M 196.84593 349.804062 C 196.84593 351.734629 195.28343 353.300937 193.343023 353.300937 C 191.409884 353.300937 189.847384 351.734629 189.847384 349.804062 C 189.847384 347.873496 191.409884 346.299902 193.343023 346.299902 C 195.28343 346.299902 196.84593 347.873496 196.84593 349.804062 Z M 196.84593 349.804062 " transform="matrix(0.5375,0,0,0.536193,0,0)"/>
<path style=" stroke:none;fill-rule:nonzero;fill:rgb(63.921569%,67.45098%,74.509804%);fill-opacity:1;" d="M 82.234375 185.894531 L 95.097656 187.496094 C 95.097656 187.496094 94.515625 192.199219 92.5 192.613281 C 90.484375 193.027344 81.222656 191.5625 80.589844 190.464844 C 79.960938 189.367188 82.234375 185.894531 82.234375 185.894531 "/>
<path style="fill:none;stroke-width:4;stroke-linecap:round;stroke-linejoin:round;stroke:rgb(47.45098%,47.45098%,47.45098%);stroke-opacity:1;stroke-miterlimit:4;" d="M 152.994186 346.693301 L 176.925872 349.680215 C 176.925872 349.680215 175.843023 358.451543 172.093023 359.22377 C 168.343023 359.995996 151.111919 357.264063 149.934593 355.216934 C 148.764535 353.169805 152.994186 346.693301 152.994186 346.693301 Z M 152.994186 346.693301 " transform="matrix(0.5375,0,0,0.536193,0,0)"/>
<path style=" stroke:none;fill-rule:nonzero;fill:rgb(63.921569%,67.45098%,74.509804%);fill-opacity:1;" d="M 125.757812 185.894531 L 112.894531 187.496094 C 112.894531 187.496094 113.476562 192.199219 115.492188 192.613281 C 117.507812 193.027344 126.773438 191.5625 127.402344 190.464844 C 128.035156 189.367188 125.757812 185.894531 125.757812 185.894531 "/>
<path style="fill:none;stroke-width:4;stroke-linecap:round;stroke-linejoin:round;stroke:rgb(47.45098%,47.45098%,47.45098%);stroke-opacity:1;stroke-miterlimit:4;" d="M 233.968023 346.693301 L 210.036337 349.680215 C 210.036337 349.680215 211.119186 358.451543 214.869186 359.22377 C 218.619186 359.995996 235.857558 357.264063 237.027616 355.216934 C 238.204942 353.169805 233.968023 346.693301 233.968023 346.693301 Z M 233.968023 346.693301 " transform="matrix(0.5375,0,0,0.536193,0,0)"/>
<path style="fill-rule:nonzero;fill:rgb(100%,93.72549%,85.098039%);fill-opacity:1;stroke-width:4;stroke-linecap:round;stroke-linejoin:round;stroke:rgb(47.45098%,47.45098%,47.45098%);stroke-opacity:1;stroke-miterlimit:4;" d="M 128.197674 129.071113 C 128.197674 129.071113 100.515988 121.348848 98.77907 146.737617 C 97.75436 161.664902 106.954942 169.110332 126.802326 170.756777 " transform="matrix(0.5375,0,0,0.536193,0,0)"/>
<path style="fill-rule:nonzero;fill:rgb(100%,93.72549%,85.098039%);fill-opacity:1;stroke-width:4;stroke-linecap:round;stroke-linejoin:round;stroke:rgb(47.45098%,47.45098%,47.45098%);stroke-opacity:1;stroke-miterlimit:4;" d="M 109.382267 148.843027 C 109.382267 148.843027 113.175872 147.393281 116.686047 147.655547 " transform="matrix(0.5375,0,0,0.536193,0,0)"/>
<path style="fill-rule:nonzero;fill:rgb(100%,93.72549%,85.098039%);fill-opacity:1;stroke-width:4;stroke-linecap:round;stroke-linejoin:round;stroke:rgb(47.45098%,47.45098%,47.45098%);stroke-opacity:1;stroke-miterlimit:4;" d="M 270.079942 138.804082 C 270.079942 138.804082 298.553779 134.935664 296.809593 160.317148 C 295.792151 175.251719 285.661337 181.37125 265.770349 180.285762 " transform="matrix(0.5375,0,0,0.536193,0,0)"/>
<path style="fill-rule:nonzero;fill:rgb(100%,93.72549%,85.098039%);fill-opacity:1;stroke-width:4;stroke-linecap:round;stroke-linejoin:round;stroke:rgb(47.45098%,47.45098%,47.45098%);stroke-opacity:1;stroke-miterlimit:4;" d="M 286.024709 160.958242 C 286.024709 160.958242 282.456395 159.00582 278.953488 158.787266 " transform="matrix(0.5375,0,0,0.536193,0,0)"/>
<path style=" stroke:none;fill-rule:nonzero;fill:rgb(100%,93.72549%,85.098039%);fill-opacity:1;" d="M 103.398438 124.757812 C 38.640625 120.328125 52.152344 15.402344 110.640625 19.402344 C 169.132812 23.40625 168.152344 129.1875 103.398438 124.757812 "/>
<path style="fill:none;stroke-width:4;stroke-linecap:round;stroke-linejoin:round;stroke:rgb(47.45098%,47.45098%,47.45098%);stroke-opacity:1;stroke-miterlimit:4;" d="M 192.369186 232.67332 C 71.889535 224.411953 97.027616 28.725371 205.843023 36.185371 C 314.665698 43.652656 312.84157 240.934687 192.369186 232.67332 Z M 192.369186 232.67332 " transform="matrix(0.5375,0,0,0.536193,0,0)"/>
<path style=" stroke:none;fill-rule:nonzero;fill:rgb(64.313725%,54.901961%,47.843137%);fill-opacity:1;" d="M 129.363281 20.414062 C 129.363281 20.414062 137.59375 49.179688 139.722656 53.613281 C 141.847656 58.046875 149.691406 61.539062 154.886719 64.3125 C 154.886719 64.3125 155.671875 52.019531 149.304688 37.417969 C 142.9375 22.820312 129.363281 20.414062 129.363281 20.414062 "/>
<path style="fill:none;stroke-width:4;stroke-linecap:round;stroke-linejoin:round;stroke:rgb(47.45098%,47.45098%,47.45098%);stroke-opacity:1;stroke-miterlimit:4;" d="M 240.675872 38.072227 C 240.675872 38.072227 255.988372 91.720117 259.949128 99.98877 C 263.902616 108.257422 278.49564 114.770352 288.161337 119.942813 C 288.161337 119.942813 289.622093 97.016426 277.776163 69.784512 C 265.930233 42.559883 240.675872 38.072227 240.675872 38.072227 Z M 240.675872 38.072227 " transform="matrix(0.5375,0,0,0.536193,0,0)"/>
<path style=" stroke:none;fill-rule:nonzero;fill:rgb(64.313725%,54.901961%,47.843137%);fill-opacity:1;" d="M 130 17.609375 C 137.269531 21.597656 121.191406 52.871094 112.355469 51.53125 C 112.355469 51.53125 99.433594 51.640625 82.933594 52.941406 C 67.816406 54.132812 59.347656 55.089844 59.347656 55.089844 C 59.347656 55.089844 62.773438 30.402344 86.929688 18.28125 C 107.851562 7.785156 128.628906 16.855469 130 17.609375 "/>
<path style="fill:none;stroke-width:4;stroke-linecap:round;stroke-linejoin:round;stroke:rgb(47.45098%,47.45098%,47.45098%);stroke-opacity:1;stroke-miterlimit:4;" d="M 241.860465 32.841484 C 255.385174 40.279629 225.472384 98.60459 209.03343 96.105781 C 209.03343 96.105781 184.992733 96.309766 154.295058 98.735723 C 126.170058 100.957695 110.414244 102.742559 110.414244 102.742559 C 110.414244 102.742559 116.787791 56.700371 161.729651 34.094531 C 200.65407 14.519316 239.309593 31.435449 241.860465 32.841484 Z M 241.860465 32.841484 " transform="matrix(0.5375,0,0,0.536193,0,0)"/>
<path style="fill-rule:nonzero;fill:rgb(64.313725%,54.901961%,47.843137%);fill-opacity:1;stroke-width:4;stroke-linecap:round;stroke-linejoin:round;stroke:rgb(47.45098%,47.45098%,47.45098%);stroke-opacity:1;stroke-miterlimit:4;" d="M 233.175872 52.023301 C 231.19186 57.305039 215.843023 84.981348 185.014535 96.878008 " transform="matrix(0.5375,0,0,0.536193,0,0)"/>
<path style="fill-rule:nonzero;fill:rgb(64.313725%,54.901961%,47.843137%);fill-opacity:1;stroke-width:4;stroke-linecap:round;stroke-linejoin:round;stroke:rgb(47.45098%,47.45098%,47.45098%);stroke-opacity:1;stroke-miterlimit:4;" d="M 170.90843 53.764453 C 156.642442 61.763555 136.068314 79.444629 124.563953 101.307383 " transform="matrix(0.5375,0,0,0.536193,0,0)"/>
<path style="fill:none;stroke-width:4;stroke-linecap:round;stroke-linejoin:round;stroke:rgb(47.45098%,47.45098%,47.45098%);stroke-opacity:1;stroke-miterlimit:4;" d="M 194.796512 169.70043 C 194.796512 169.70043 193.059593 175.594121 198.321221 175.615977 " transform="matrix(0.5375,0,0,0.536193,0,0)"/>
<path style="fill:none;stroke-width:4;stroke-linecap:round;stroke-linejoin:round;stroke:rgb(47.45098%,47.45098%,47.45098%);stroke-opacity:1;stroke-miterlimit:4;" d="M 230.181686 112.096699 L 248.40843 106.975234 " transform="matrix(0.5375,0,0,0.536193,0,0)"/>
<path style="fill:none;stroke-width:4;stroke-linecap:round;stroke-linejoin:round;stroke:rgb(47.45098%,47.45098%,47.45098%);stroke-opacity:1;stroke-miterlimit:4;" d="M 171.373547 108.060723 L 154.011628 100.49873 " transform="matrix(0.5375,0,0,0.536193,0,0)"/>
<path style=" stroke:none;fill-rule:nonzero;fill:rgb(47.45098%,47.45098%,47.45098%);fill-opacity:1;" d="M 129.414062 74.8125 C 129.132812 78.890625 127.542969 82.105469 125.863281 81.992188 C 124.1875 81.875 123.054688 78.476562 123.332031 74.394531 C 123.613281 70.316406 125.203125 67.101562 126.878906 67.21875 C 128.558594 67.332031 129.695312 70.730469 129.414062 74.8125 "/>
<path style=" stroke:none;fill-rule:nonzero;fill:rgb(47.45098%,47.45098%,47.45098%);fill-opacity:1;" d="M 84.460938 71.734375 C 84.179688 75.816406 85.316406 79.214844 86.992188 79.332031 C 88.671875 79.445312 90.261719 76.230469 90.539062 72.152344 C 90.820312 68.070312 89.6875 64.671875 88.007812 64.554688 C 86.328125 64.441406 84.742188 67.65625 84.460938 71.734375 "/>
<path style="fill:none;stroke-width:4;stroke-linecap:round;stroke-linejoin:round;stroke:rgb(47.45098%,47.45098%,47.45098%);stroke-opacity:1;stroke-miterlimit:4;" d="M 184.476744 201.543848 C 184.476744 201.543848 191.017442 199.154316 194.651163 199.402012 C 198.277616 199.649707 204.43314 202.913457 204.43314 202.913457 " transform="matrix(0.5375,0,0,0.536193,0,0)"/>
<path style="fill-rule:nonzero;fill:rgb(63.921569%,67.45098%,74.509804%);fill-opacity:1;stroke-width:4;stroke-linecap:round;stroke-linejoin:round;stroke:rgb(47.45098%,47.45098%,47.45098%);stroke-opacity:1;stroke-miterlimit:4;" d="M 248.619186 317.552676 C 248.619186 317.552676 253.059593 334.439668 248.989826 336.355664 C 243.968023 338.70877 227.12936 345.134277 227.12936 345.134277 L 216.606105 327.912168 L 233.059593 318.936855 " transform="matrix(0.5375,0,0,0.536193,0,0)"/>
<path style=" stroke:none;fill-rule:nonzero;fill:rgb(100%,93.72549%,85.098039%);fill-opacity:1;" d="M 121.804688 184.148438 C 121.804688 184.148438 123.15625 174.675781 110.359375 173.820312 C 97.558594 172.96875 92.742188 181.820312 95.171875 186.257812 C 96.9375 189.488281 108.859375 190.855469 115.015625 186.421875 C 115.015625 186.421875 120.328125 188.714844 121.804688 184.148438 "/>
<path style="fill:none;stroke-width:4;stroke-linecap:round;stroke-linejoin:round;stroke:rgb(47.45098%,47.45098%,47.45098%);stroke-opacity:1;stroke-miterlimit:4;" d="M 226.613372 343.436836 C 226.613372 343.436836 229.127907 325.770332 205.319767 324.174883 C 181.50436 322.586719 172.543605 339.094883 177.063953 347.37082 C 180.348837 353.395645 202.52907 355.945449 213.982558 347.676797 C 213.982558 347.676797 223.866279 351.953184 226.613372 343.436836 Z M 226.613372 343.436836 " transform="matrix(0.5375,0,0,0.536193,0,0)"/>
<path style="fill-rule:nonzero;fill:rgb(55.294118%,58.823529%,64.705882%);fill-opacity:1;stroke-width:4;stroke-linecap:round;stroke-linejoin:round;stroke:rgb(47.45098%,47.45098%,47.45098%);stroke-opacity:1;stroke-miterlimit:4;" d="M 199.418605 339.706836 C 199.418605 339.706836 197.1875 343.072578 198.357558 346.788008 C 200.290698 352.892969 198.357558 346.788008 198.357558 346.788008 " transform="matrix(0.5375,0,0,0.536193,0,0)"/>
<path style="fill-rule:nonzero;fill:rgb(55.294118%,58.823529%,64.705882%);fill-opacity:1;stroke-width:4;stroke-linecap:round;stroke-linejoin:round;stroke:rgb(47.45098%,47.45098%,47.45098%);stroke-opacity:1;stroke-miterlimit:4;" d="M 190.05814 336.690781 C 190.05814 336.690781 185.893895 339.43 186.540698 346.256191 C 187.543605 356.89252 186.540698 346.256191 186.540698 346.256191 " transform="matrix(0.5375,0,0,0.536193,0,0)"/>
<g clip-path="url(#clip7)" clip-rule="nonzero">
<path style=" stroke:none;fill-rule:nonzero;fill:rgb(100%,100%,100%);fill-opacity:1;" d="M 71.773438 185.984375 L 59.25 192.664062 L 94.519531 198.042969 L 146.957031 198.042969 L 141.699219 190.25 Z M 71.773438 185.984375 "/>
</g>
<g clip-path="url(#clip8)" clip-rule="nonzero">
<path style="fill:none;stroke-width:4;stroke-linecap:round;stroke-linejoin:round;stroke:rgb(47.45098%,47.45098%,47.45098%);stroke-opacity:1;stroke-miterlimit:4;" d="M 133.531977 346.860859 L 110.232558 359.318477 L 175.850291 369.350137 L 273.40843 369.350137 L 263.626453 354.81625 Z M 133.531977 346.860859 " transform="matrix(0.5375,0,0,0.536193,0,0)"/>
</g>
<path style="fill-rule:nonzero;fill:rgb(95.294118%,95.294118%,95.294118%);fill-opacity:1;stroke-width:4;stroke-linecap:round;stroke-linejoin:round;stroke:rgb(47.45098%,47.45098%,47.45098%);stroke-opacity:1;stroke-miterlimit:4;" d="M 263.626453 354.81625 C 263.626453 354.81625 258.924419 346.817148 228.953488 346.817148 C 198.982558 346.817148 183.110465 357.890586 183.110465 357.890586 C 183.110465 357.890586 209.556686 353.315508 230.130814 353.315508 C 250.697674 353.315508 255.988372 359.318477 255.988372 359.318477 Z M 263.626453 354.81625 " transform="matrix(0.5375,0,0,0.536193,0,0)"/>
<path style="fill-rule:nonzero;fill:rgb(95.294118%,95.294118%,95.294118%);fill-opacity:1;stroke-width:4;stroke-linecap:round;stroke-linejoin:round;stroke:rgb(47.45098%,47.45098%,47.45098%);stroke-opacity:1;stroke-miterlimit:4;" d="M 102.594477 354.81625 C 102.594477 354.81625 107.289244 346.817148 137.267442 346.817148 C 167.238372 346.817148 183.110465 357.890586 183.110465 357.890586 C 183.110465 357.890586 156.664244 353.315508 136.090116 353.315508 C 115.523256 353.315508 110.232558 359.318477 110.232558 359.318477 Z M 102.594477 354.81625 " transform="matrix(0.5375,0,0,0.536193,0,0)"/>
<g clip-path="url(#clip9)" clip-rule="nonzero">
<path style=" stroke:none;fill-rule:nonzero;fill:rgb(100%,94.117647%,74.117647%);fill-opacity:1;" d="M 9.558594 201.929688 L 153.070312 201.929688 C 153.960938 201.929688 154.683594 201.210938 154.683594 200.320312 L 154.683594 194.511719 C 154.683594 193.625 153.960938 192.902344 153.070312 192.902344 L 9.558594 192.902344 Z M 9.558594 201.929688 "/>
</g>
<g clip-path="url(#clip10)" clip-rule="nonzero">
<path style="fill:none;stroke-width:4;stroke-linecap:round;stroke-linejoin:round;stroke:rgb(47.45098%,47.45098%,47.45098%);stroke-opacity:1;stroke-miterlimit:4;" d="M 17.78343 376.598867 L 284.781977 376.598867 C 286.438953 376.598867 287.78343 375.258398 287.78343 373.597383 L 287.78343 362.764355 C 287.78343 361.110625 286.438953 359.762871 284.781977 359.762871 L 17.78343 359.762871 Z M 17.78343 376.598867 " transform="matrix(0.5375,0,0,0.536193,0,0)"/>
</g>
<path style="fill-rule:nonzero;fill:rgb(100%,100%,100%);fill-opacity:1;stroke-width:4;stroke-linecap:round;stroke-linejoin:round;stroke:rgb(47.45098%,47.45098%,47.45098%);stroke-opacity:1;stroke-miterlimit:4;" d="M 149.411337 224.535801 L 151.133721 229.751973 L 73.80814 255.271875 L 72.085756 250.062988 Z M 149.411337 224.535801 " transform="matrix(0.5375,0,0,0.536193,0,0)"/>
<path style="fill-rule:nonzero;fill:rgb(100%,76.470588%,87.45098%);fill-opacity:1;stroke-width:4;stroke-linecap:round;stroke-linejoin:round;stroke:rgb(47.45098%,47.45098%,47.45098%);stroke-opacity:1;stroke-miterlimit:4;" d="M 150.065407 221.541602 L 153.640988 232.374629 L 93.706395 252.153828 L 90.130814 241.328086 Z M 150.065407 221.541602 " transform="matrix(0.5375,0,0,0.536193,0,0)"/>
<path style="fill-rule:nonzero;fill:rgb(100%,76.470588%,87.45098%);fill-opacity:1;stroke-width:4;stroke-linecap:round;stroke-linejoin:round;stroke:rgb(47.45098%,47.45098%,47.45098%);stroke-opacity:1;stroke-miterlimit:4;" d="M 81.693314 244.111016 L 85.268895 254.944043 L 72.281977 259.227715 L 68.706395 248.394688 Z M 81.693314 244.111016 " transform="matrix(0.5375,0,0,0.536193,0,0)"/>
<path style="fill-rule:nonzero;fill:rgb(100%,100%,100%);fill-opacity:1;stroke-width:4;stroke-linecap:round;stroke-linejoin:round;stroke:rgb(47.45098%,47.45098%,47.45098%);stroke-opacity:1;stroke-miterlimit:4;" d="M 166.286337 222.18998 L 153.350291 231.478555 L 150.363372 222.430391 Z M 166.286337 222.18998 " transform="matrix(0.5375,0,0,0.536193,0,0)"/>
<path style="fill-rule:nonzero;fill:rgb(100%,93.72549%,85.098039%);fill-opacity:1;stroke-width:4;stroke-linecap:round;stroke-linejoin:round;stroke:rgb(47.45098%,47.45098%,47.45098%);stroke-opacity:1;stroke-miterlimit:4;" d="M 145.610465 278.664512 L 141.206395 265.667793 C 148.117733 256.568633 138.306686 250.15041 138.306686 250.15041 C 138.306686 250.15041 144.367733 253.443301 145.755814 241.896328 C 146.351744 236.942422 143.561047 230.961309 138.844477 228.134668 C 130.02907 222.860215 123.343023 219.297773 114.927326 221.782012 C 107.536337 223.960273 102.659884 247.615176 102.659884 247.615176 L 124.527616 274.337129 L 126.213663 285.35957 " transform="matrix(0.5375,0,0,0.536193,0,0)"/>
<path style="fill-rule:nonzero;fill:rgb(100%,93.72549%,85.098039%);fill-opacity:1;stroke-width:4;stroke-linecap:round;stroke-linejoin:round;stroke:rgb(47.45098%,47.45098%,47.45098%);stroke-opacity:1;stroke-miterlimit:4;" d="M 138.306686 250.15041 L 132.587209 246.158145 L 135.268895 241.75791 " transform="matrix(0.5375,0,0,0.536193,0,0)"/>
<path style=" stroke:none;fill-rule:nonzero;fill:rgb(63.921569%,67.45098%,74.509804%);fill-opacity:1;" d="M 66.050781 146.019531 L 76.375 143.832031 C 76.375 143.832031 84.347656 166.390625 84.503906 171.441406 C 84.820312 181.710938 76.21875 180.054688 73.925781 177.207031 C 70.140625 172.496094 66.050781 146.019531 66.050781 146.019531 "/>
<path style="fill:none;stroke-width:4;stroke-linecap:round;stroke-linejoin:round;stroke:rgb(47.45098%,47.45098%,47.45098%);stroke-opacity:1;stroke-miterlimit:4;" d="M 122.885174 272.326426 L 142.093023 268.246738 C 142.093023 268.246738 156.925872 310.318516 157.21657 319.738223 C 157.805233 338.890898 141.802326 335.801992 137.536337 330.491113 C 130.494186 321.705215 122.885174 272.326426 122.885174 272.326426 Z M 122.885174 272.326426 " transform="matrix(0.5375,0,0,0.536193,0,0)"/>
<path style="fill-rule:nonzero;fill:rgb(74.117647%,82.352941%,100%);fill-opacity:1;stroke-width:4;stroke-linecap:round;stroke-linejoin:round;stroke:rgb(47.45098%,47.45098%,47.45098%);stroke-opacity:1;stroke-miterlimit:4;" d="M 92.536337 357.766738 L 70.123547 357.766738 L 70.123547 346.314473 L 92.536337 346.314473 Z M 92.536337 357.766738 " transform="matrix(0.5375,0,0,0.536193,0,0)"/>
<path style="fill-rule:nonzero;fill:rgb(100%,100%,100%);fill-opacity:1;stroke-width:4;stroke-linecap:round;stroke-linejoin:round;stroke:rgb(47.45098%,47.45098%,47.45098%);stroke-opacity:1;stroke-miterlimit:4;" d="M 100.625 356.295137 C 100.625 357.111074 99.963663 357.766738 99.149709 357.766738 L 90.697674 357.766738 C 89.883721 357.766738 89.222384 357.111074 89.222384 356.295137 L 89.222384 347.786074 C 89.222384 346.970137 89.883721 346.314473 90.697674 346.314473 L 99.149709 346.314473 C 99.963663 346.314473 100.625 346.970137 100.625 347.786074 Z M 100.625 356.295137 " transform="matrix(0.5375,0,0,0.536193,0,0)"/>
<path style="fill-rule:nonzero;fill:rgb(100%,76.470588%,87.45098%);fill-opacity:1;stroke-width:4;stroke-linecap:round;stroke-linejoin:round;stroke:rgb(47.45098%,47.45098%,47.45098%);stroke-opacity:1;stroke-miterlimit:4;" d="M 63.125 345.192559 C 63.125 344.085215 62.093023 343.189141 60.828488 343.189141 L 27.521802 343.189141 C 26.25 343.189141 25.225291 344.085215 25.225291 345.192559 L 25.225291 357.766738 C 25.225291 358.866797 26.25 359.762871 27.521802 359.762871 L 60.828488 359.762871 C 62.093023 359.762871 63.125 358.866797 63.125 357.766738 Z M 63.125 345.192559 " transform="matrix(0.5375,0,0,0.536193,0,0)"/>
<path style="fill-rule:nonzero;fill:rgb(100%,76.470588%,87.45098%);fill-opacity:1;stroke-width:4;stroke-linecap:round;stroke-linejoin:round;stroke:rgb(47.45098%,47.45098%,47.45098%);stroke-opacity:1;stroke-miterlimit:4;" d="M 63.125 337.688848 C 63.125 336.588789 62.093023 335.692715 60.828488 335.692715 L 27.521802 335.692715 C 26.25 335.692715 25.225291 336.588789 25.225291 337.688848 L 25.225291 350.263027 C 25.225291 351.370371 26.25 352.266445 27.521802 352.266445 L 60.828488 352.266445 C 62.093023 352.266445 63.125 351.370371 63.125 350.263027 Z M 63.125 337.688848 " transform="matrix(0.5375,0,0,0.536193,0,0)"/>
</g>
</svg>
