<?xml version="1.0" encoding="UTF-8"?>
<svg xmlns="http://www.w3.org/2000/svg" xmlns:xlink="http://www.w3.org/1999/xlink" width="155pt" height="200pt" viewBox="0 0 155 200" version="1.1">
<defs>
<clipPath id="clip1">
  <path d="M 0.015625 0.144531 L 154.882812 0.144531 L 154.882812 199.984375 L 0.015625 199.984375 Z M 0.015625 0.144531 "/>
</clipPath>
</defs>
<g id="surface1">
<g clip-path="url(#clip1)" clip-rule="nonzero">
<path style=" stroke:none;fill-rule:nonzero;fill:rgb(43.137255%,25.490196%,0%);fill-opacity:1;" d="M 30.964844 168.109375 C 30.378906 168.109375 29.925781 168.109375 29.476562 168.109375 C 20.691406 168.109375 11.910156 168.113281 3.125 168.105469 C 2.605469 168.105469 2.070312 168.105469 1.578125 167.972656 C 0.390625 167.65625 -0.128906 166.816406 0.0273438 165.613281 C 0.179688 164.457031 0.890625 163.855469 2.054688 163.84375 C 3.90625 163.824219 5.757812 163.835938 7.609375 163.835938 C 15.15625 163.835938 22.707031 163.832031 30.253906 163.847656 C 31.035156 163.847656 31.535156 163.816406 31.675781 162.800781 C 33.246094 151.621094 36.578125 140.925781 40.660156 130.4375 C 42.722656 125.144531 44.996094 119.941406 47.585938 114.878906 C 47.910156 114.246094 48.007812 113.882812 47.21875 113.46875 C 37.425781 108.328125 30.992188 100.3125 27.273438 89.996094 C 27.070312 89.4375 27.089844 88.707031 26.058594 88.792969 C 20.417969 89.261719 15.976562 85.96875 15.890625 78.605469 C 15.851562 75.363281 16.277344 72.226562 19.226562 69.992188 C 15.355469 66.929688 13.8125 62.742188 13.53125 58.046875 C 13.257812 53.414062 14.125 48.988281 16.65625 44.984375 C 15.476562 44.421875 14.292969 43.957031 13.203125 43.316406 C 8.28125 40.425781 6.867188 35.367188 9.613281 30.367188 C 11.582031 26.78125 14.546875 24.140625 18 22.042969 C 22.214844 19.480469 26.773438 17.78125 31.617188 16.910156 C 32.96875 16.664062 34.066406 16.132812 35.140625 15.285156 C 43.195312 8.914062 52.109375 4.191406 62.136719 1.820312 C 74.253906 -1.042969 86.253906 -0.0898438 98.058594 3.589844 C 108.21875 6.757812 117.285156 11.90625 124.828125 19.453125 C 134.382812 29.011719 139.496094 40.582031 139.789062 54.179688 C 139.796875 54.605469 139.765625 55.035156 139.796875 55.460938 C 139.839844 56.027344 139.921875 56.589844 139.988281 57.160156 C 144.359375 54.589844 147.0625 57.277344 146.855469 61.472656 C 147.449219 61.3125 148.023438 61.109375 148.613281 61.007812 C 151.128906 60.570312 152.78125 61.945312 152.824219 64.492188 C 152.832031 64.964844 152.878906 65.488281 152.707031 65.898438 C 152.167969 67.171875 151.910156 68.066406 153.710938 68.667969 C 154.976562 69.09375 155.222656 71.46875 154.417969 73.296875 C 153.027344 76.464844 150.703125 78.882812 148.015625 80.976562 C 147.234375 81.585938 146.445312 82.246094 145.550781 82.648438 C 143.605469 83.523438 142.488281 85.027344 141.441406 86.835938 C 132.175781 102.808594 122.085938 118.230469 110.34375 132.515625 C 108.355469 134.933594 106.253906 137.257812 104.179688 139.605469 C 103.789062 140.046875 103.558594 140.414062 103.652344 141.085938 C 104.671875 148.363281 105.65625 155.644531 106.59375 162.933594 C 106.742188 164.082031 107.46875 163.832031 108.128906 163.832031 C 121.09375 163.839844 134.054688 163.835938 147.015625 163.835938 C 147.394531 163.835938 147.777344 163.824219 148.15625 163.839844 C 149.355469 163.898438 149.988281 164.648438 150.105469 165.730469 C 150.214844 166.761719 149.71875 167.554688 148.679688 167.933594 C 148.035156 168.167969 147.371094 168.109375 146.707031 168.109375 C 115.515625 168.109375 84.320312 168.109375 53.128906 168.109375 C 52.746094 168.109375 52.367188 168.128906 51.988281 168.105469 C 51.015625 168.042969 51.019531 168.757812 51.109375 169.347656 C 51.222656 170.113281 54.082031 172.128906 54.890625 172.09375 C 60.644531 171.832031 66.402344 171.957031 72.042969 173.074219 C 75.402344 173.734375 78.527344 172.914062 81.742188 172.570312 C 93.132812 171.355469 104.367188 172.09375 115.441406 175.074219 C 116.265625 175.296875 116.808594 175.785156 117.230469 176.550781 C 120.957031 183.308594 124.71875 190.046875 128.480469 196.785156 C 128.945312 197.621094 129.210938 198.46875 128.570312 199.300781 C 127.929688 200.132812 127.078125 200.066406 126.121094 199.839844 C 117.28125 197.734375 108.3125 196.660156 99.222656 196.496094 C 91.421875 196.355469 83.695312 196.949219 76.042969 198.523438 C 74.601562 198.820312 73.234375 198.234375 71.84375 198.019531 C 58.402344 195.929688 44.996094 196.457031 31.617188 198.566406 C 29.183594 198.949219 26.761719 199.417969 24.351562 199.910156 C 23.480469 200.089844 22.730469 200.046875 22.15625 199.34375 C 21.527344 198.578125 21.664062 197.773438 22.117188 196.957031 C 24.675781 192.367188 27.234375 187.777344 29.769531 183.175781 C 30.035156 182.691406 30.566406 182.292969 30.042969 181.539062 C 29.527344 180.789062 29.035156 181.121094 28.453125 181.230469 C 26.566406 181.589844 24.984375 180.933594 24.023438 179.40625 C 23.035156 177.832031 23.351562 176.304688 24.3125 174.875 C 26.066406 172.265625 28.535156 170.34375 30.964844 168.109375 "/>
</g>
<path style=" stroke:none;fill-rule:nonzero;fill:rgb(99.607843%,97.254902%,91.764706%);fill-opacity:1;" d="M 28.304688 78.425781 C 26.277344 62.117188 30.203125 47.511719 40.914062 34.910156 C 43.820312 31.488281 47.410156 28.828125 51.289062 26.566406 C 52.144531 26.070312 52.566406 25.738281 52.839844 27.203125 C 54.355469 35.246094 57.628906 42.457031 63.542969 48.269531 C 65.855469 50.539062 68.523438 52.214844 71.980469 52 C 75.015625 51.808594 77.019531 50.035156 78.613281 47.65625 C 79.703125 46.035156 80.453125 44.25 80.996094 42.070312 C 82.136719 43.574219 83.246094 44.816406 84.445312 45.972656 C 87.519531 48.929688 90.953125 51.359375 95.003906 52.761719 C 100.707031 54.738281 104.847656 52.425781 106.183594 46.558594 C 108.363281 48.589844 110.648438 50.402344 113.316406 51.691406 C 115.308594 52.65625 117.371094 53.308594 119.589844 53.289062 C 120.3125 53.285156 120.589844 53.578125 120.746094 54.203125 C 121.023438 55.308594 121.359375 56.394531 121.640625 57.496094 C 121.71875 57.808594 121.824219 58.226562 121.6875 58.460938 C 119.898438 61.515625 120.519531 64.691406 121.167969 67.863281 C 121.464844 69.300781 121.746094 70.75 122.203125 72.140625 C 122.601562 73.339844 122.433594 74.335938 121.675781 75.289062 C 120.929688 75.40625 120.59375 74.792969 120.144531 74.410156 C 116.5 71.277344 110.734375 70.722656 107.347656 73.390625 C 104.367188 75.734375 102.296875 78.75 103.101562 82.734375 C 103.925781 86.820312 105.953125 90.175781 110.269531 91.558594 C 110.753906 91.710938 111.46875 91.636719 111.511719 92.445312 C 106.929688 99.4375 101.757812 105.976562 96.394531 112.375 C 96.03125 112.808594 95.566406 112.992188 95.074219 113.144531 C 86.105469 115.890625 76.953125 116.554688 67.652344 115.5625 C 60.5625 114.808594 53.769531 113.0625 47.558594 109.441406 C 40.03125 105.050781 34.808594 98.671875 31.511719 90.65625 C 31.441406 90.488281 31.4375 90.289062 31.398438 90.105469 C 31.800781 89.921875 32.140625 90.117188 32.46875 90.304688 C 34.917969 91.734375 37.601562 91.957031 40.320312 91.667969 C 43.050781 91.382812 44.714844 89.417969 46.296875 87.433594 C 51.050781 81.480469 45.34375 72.265625 39.550781 71.75 C 35.816406 71.414062 32.914062 72.886719 30.617188 75.730469 C 30.140625 76.320312 29.765625 76.984375 29.351562 77.621094 C 29.101562 78.007812 28.910156 78.496094 28.304688 78.425781 "/>
<path style=" stroke:none;fill-rule:nonzero;fill:rgb(78.823529%,65.490196%,43.529412%);fill-opacity:1;" d="M 33.109375 20.585938 C 34.167969 20.113281 35.3125 19.988281 36.429688 19.757812 C 37.050781 19.628906 37.597656 19.355469 37.699219 18.773438 C 37.914062 17.515625 38.921875 17.03125 39.789062 16.410156 C 47.472656 10.914062 55.789062 6.722656 65.121094 4.972656 C 76.386719 2.859375 87.484375 3.921875 98.332031 7.605469 C 108.066406 10.914062 116.664062 16.078125 123.675781 23.632812 C 130.375 30.847656 134.460938 39.371094 135.710938 49.191406 C 135.761719 49.613281 135.847656 50.035156 135.917969 50.453125 C 136.074219 51.390625 135.863281 51.878906 134.8125 52.324219 C 132.398438 53.347656 131.105469 55.625 129.6875 57.699219 C 129.210938 58.394531 128.792969 59.132812 128.402344 59.769531 C 125.605469 58.25 124.851562 55.578125 124.210938 52.816406 C 124.089844 52.296875 124.371094 52.175781 124.632812 51.917969 C 125.347656 51.203125 125.570312 50.355469 125 49.476562 C 124.386719 48.53125 123.46875 48.363281 122.507812 48.867188 C 120.230469 50.066406 117.964844 49.730469 115.800781 48.703125 C 110.582031 46.226562 106.460938 42.601562 104.277344 37.089844 C 103.820312 35.941406 103 35.4375 101.804688 35.75 C 100.738281 36.027344 100.273438 37.128906 100.761719 38.457031 C 101.597656 40.734375 102.414062 42.988281 102.371094 45.472656 C 102.316406 48.785156 100.363281 50.347656 97.132812 49.496094 C 93.363281 48.5 90.304688 46.253906 87.460938 43.710938 C 85.25 41.730469 83.4375 39.429688 82.277344 36.65625 C 81.832031 35.597656 81.546875 34.515625 81.503906 33.359375 C 81.445312 31.753906 80.835938 31.070312 79.578125 31.109375 C 78.347656 31.148438 77.800781 31.859375 77.800781 33.496094 C 77.800781 36.195312 77.882812 38.902344 77.265625 41.5625 C 76.824219 43.441406 75.992188 45.136719 74.738281 46.597656 C 73.167969 48.429688 71.28125 48.816406 69.125 47.710938 C 65.652344 45.929688 63.394531 42.933594 61.488281 39.679688 C 58.183594 34.039062 55.898438 28.070312 56.148438 21.378906 C 56.195312 20.128906 55.738281 19.117188 54.429688 19.03125 C 53.152344 18.949219 52.414062 19.761719 52.449219 21.09375 C 52.46875 21.769531 52.007812 21.96875 51.539062 22.207031 C 41.648438 27.234375 34.546875 34.9375 29.828125 44.902344 C 26.945312 50.992188 25.308594 57.449219 24.300781 64.082031 C 24.136719 65.152344 24.496094 66.265625 24.003906 67.300781 C 22.664062 63.691406 20.996094 60.128906 21.105469 56.1875 C 21.21875 52.011719 21.734375 47.878906 24.578125 44.445312 C 23.847656 43.585938 23.226562 44.449219 22.578125 44.507812 C 22.523438 42.269531 22.363281 42.109375 20.078125 41.914062 C 19.859375 41.894531 19.648438 41.773438 19.433594 41.699219 C 16.210938 38.589844 15.78125 34.601562 18.210938 30.617188 C 21.304688 25.542969 25.917969 22.566406 31.496094 20.898438 C 32.039062 20.816406 32.5625 20.644531 33.109375 20.585938 "/>
<path style=" stroke:none;fill-rule:nonzero;fill:rgb(34.117647%,61.176471%,84.313725%);fill-opacity:1;" d="M 77.523438 163.84375 C 69.597656 163.84375 61.667969 163.84375 53.738281 163.84375 C 52.039062 163.84375 52.058594 163.84375 52.351562 162.246094 C 53.9375 153.621094 55.671875 145.03125 57.5 136.457031 C 57.769531 135.207031 57.242188 134.21875 56.21875 133.976562 C 55.078125 133.703125 54.175781 134.304688 53.882812 135.640625 C 51.824219 145.085938 49.988281 154.570312 48.207031 164.070312 C 48.015625 165.09375 47.757812 166.113281 47.664062 167.148438 C 47.585938 168.042969 47.167969 168.199219 46.363281 168.175781 C 42.949219 168.074219 39.535156 167.972656 36.121094 168.007812 C 34.859375 168.019531 34.765625 167.554688 34.886719 166.503906 C 36.242188 154.789062 39.597656 143.601562 43.796875 132.640625 C 45.902344 127.148438 48.269531 121.773438 50.898438 116.511719 C 51.28125 115.742188 51.617188 115.488281 52.484375 115.851562 C 53.792969 116.394531 55.152344 116.859375 56.527344 117.1875 C 57.671875 117.460938 57.976562 117.875 57.765625 119.113281 C 57.257812 122.085938 57.722656 124.886719 60.03125 127.109375 C 60.269531 127.339844 60.507812 127.625 60.804688 127.730469 C 62.730469 128.421875 63.496094 130.113281 64.382812 131.738281 C 67.40625 137.269531 70.46875 142.785156 73.511719 148.308594 C 73.972656 149.148438 74.378906 149.988281 75.574219 149.976562 C 76.753906 149.964844 77.167969 149.152344 77.625 148.292969 C 80.925781 142.105469 84.242188 135.917969 87.5625 129.738281 C 87.824219 129.253906 88.015625 128.738281 88.609375 128.453125 C 92.160156 126.765625 93.367188 123.101562 92.816406 119.175781 C 92.625 117.816406 93.414062 116.789062 94.601562 117.292969 C 96.480469 118.089844 97.335938 117.011719 98.304688 115.878906 C 108.117188 104.367188 117.0625 92.25 124.113281 78.820312 C 124.660156 77.789062 125.085938 77.734375 126.027344 78.25 C 129.773438 80.296875 133.539062 82.300781 137.335938 84.253906 C 138.183594 84.6875 138.265625 85.019531 137.789062 85.828125 C 128.085938 102.222656 117.664062 118.113281 105.34375 132.695312 C 103.90625 134.394531 102.398438 136.046875 100.847656 137.644531 C 99.980469 138.539062 99.632812 139.46875 99.8125 140.710938 C 100.84375 147.9375 101.820312 155.167969 102.847656 162.394531 C 103 163.457031 102.828125 163.878906 101.59375 163.871094 C 93.574219 163.816406 85.546875 163.84375 77.523438 163.84375 "/>
<path style=" stroke:none;fill-rule:nonzero;fill:rgb(99.607843%,99.607843%,99.607843%);fill-opacity:1;" d="M 123.066406 195.265625 C 121.054688 194.941406 119.058594 194.605469 117.0625 194.304688 C 103.503906 192.246094 89.960938 192.089844 76.4375 194.644531 C 74.1875 195.070312 72.035156 194.253906 69.851562 193.972656 C 61.347656 192.878906 52.832031 192.75 44.292969 193.359375 C 38.664062 193.757812 33.070312 194.457031 27.46875 195.472656 C 27.3125 195.015625 27.632812 194.742188 27.792969 194.453125 C 29.875 190.679688 31.96875 186.914062 34.074219 183.148438 C 34.925781 181.621094 35.472656 181.535156 36.769531 182.683594 C 38.1875 183.9375 39.957031 184.074219 41.78125 183.070312 C 43.390625 182.183594 44.621094 180.84375 45.796875 179.488281 C 46.554688 178.617188 47.15625 178.320312 48.210938 179.050781 C 49.359375 179.84375 50.722656 180.132812 52.136719 180.074219 C 54.296875 179.984375 55.691406 178.738281 55.855469 176.574219 C 55.90625 175.933594 56.125 175.722656 56.660156 175.726562 C 62.492188 175.742188 68.320312 175.804688 74.023438 177.265625 C 74.707031 177.441406 75.335938 177.382812 75.984375 177.257812 C 88.132812 174.914062 100.214844 175.25 112.25 178.089844 C 113.558594 178.398438 114.351562 178.972656 114.992188 180.171875 C 117.429688 184.722656 119.992188 189.207031 122.492188 193.722656 C 122.738281 194.164062 123.136719 194.558594 123.066406 195.265625 "/>
<path style=" stroke:none;fill-rule:nonzero;fill:rgb(100%,85.098039%,70.588235%);fill-opacity:1;" d="M 28.304688 78.425781 C 29.464844 77.128906 30.132812 75.488281 31.410156 74.246094 C 36.308594 69.484375 43.621094 70.648438 46.800781 76.710938 C 48.15625 79.296875 49.269531 82.007812 48.058594 84.835938 C 45.425781 90.972656 41.46875 93.332031 34.863281 91.691406 C 33.609375 91.378906 32.488281 90.777344 31.398438 90.105469 C 29.714844 86.386719 28.875 82.441406 28.304688 78.425781 "/>
<path style=" stroke:none;fill-rule:nonzero;fill:rgb(99.607843%,97.254902%,91.764706%);fill-opacity:1;" d="M 143.019531 59.78125 C 143.261719 62.050781 142.296875 63.804688 141.8125 65.65625 C 141.386719 67.292969 142.394531 68.492188 143.960938 68.195312 C 144.472656 68.097656 144.765625 67.746094 145.109375 67.417969 C 146.234375 66.328125 147.445312 65.355469 149.007812 64.722656 C 149.117188 65.613281 148.652344 66.230469 148.304688 66.875 C 147.445312 68.46875 146.257812 69.832031 145.191406 71.285156 C 144.53125 72.191406 144.367188 73.15625 145.226562 73.984375 C 146.082031 74.808594 147.003906 74.605469 147.921875 73.941406 C 148.683594 73.386719 149.523438 72.941406 150.335938 72.441406 C 150.675781 72.972656 150.230469 73.265625 150.015625 73.578125 C 148 76.496094 145.183594 78.445312 142.269531 80.375 C 140.53125 81.523438 139.3125 81.226562 137.699219 80.292969 C 134.382812 78.371094 130.9375 76.667969 127.554688 74.859375 C 127.160156 74.648438 126.660156 74.558594 126.515625 73.992188 C 125.566406 70.230469 124.320312 66.53125 124.277344 62.597656 C 124.273438 62.285156 124.191406 61.933594 124.5625 61.59375 C 125.53125 62.574219 125.871094 63.847656 126.1875 65.078125 C 126.457031 66.132812 126.945312 66.839844 128.0625 66.859375 C 129.183594 66.875 129.621094 66.140625 129.996094 65.136719 C 131.28125 61.695312 133.304688 58.695312 135.796875 55.871094 C 136.464844 56.921875 136.234375 57.871094 136.117188 58.789062 C 135.945312 60.101562 135.613281 61.394531 135.660156 62.738281 C 135.691406 63.703125 136.113281 64.394531 137.042969 64.667969 C 137.914062 64.925781 138.605469 64.566406 139.144531 63.859375 C 140.234375 62.4375 141.273438 60.964844 143.019531 59.78125 "/>
<path style=" stroke:none;fill-rule:nonzero;fill:rgb(100%,85.098039%,70.588235%);fill-opacity:1;" d="M 111.511719 92.445312 C 110.441406 91.753906 109.109375 91.746094 108.03125 90.996094 C 104.222656 88.351562 102.183594 84.691406 102.699219 80.136719 C 103.140625 76.238281 105.609375 73.261719 109.285156 71.902344 C 113.359375 70.394531 117.167969 71.582031 120.519531 74.253906 C 120.921875 74.578125 121.289062 74.945312 121.675781 75.289062 C 118.792969 81.308594 115.328125 86.980469 111.511719 92.445312 "/>
<path style=" stroke:none;fill-rule:nonzero;fill:rgb(99.607843%,99.607843%,99.607843%);fill-opacity:1;" d="M 75.546875 144.261719 C 72.804688 139.289062 70.191406 134.554688 67.492188 129.664062 C 71.125 129.378906 73.742188 127.648438 75.5625 124.472656 C 77.59375 127.0625 79.828125 129.167969 83.410156 129.546875 C 80.792969 134.449219 78.230469 139.238281 75.546875 144.261719 "/>
<path style=" stroke:none;fill-rule:nonzero;fill:rgb(99.607843%,99.607843%,99.607843%);fill-opacity:1;" d="M 22.578125 44.507812 C 23.195312 42.347656 24.496094 44.3125 25.273438 43.996094 C 20.707031 50.609375 20.378906 57.578125 23.644531 64.816406 C 24.03125 65.667969 23.851562 66.480469 24.003906 67.300781 C 22.828125 67.921875 21.90625 67.257812 21.078125 66.605469 C 18.953125 64.9375 18.003906 62.5625 17.515625 60.011719 C 16.828125 56.398438 17.183594 52.851562 18.546875 49.425781 C 19.222656 47.730469 20.089844 46.179688 21.855469 45.351562 C 22.199219 45.191406 22.445312 44.882812 22.578125 44.507812 "/>
<path style=" stroke:none;fill-rule:nonzero;fill:rgb(99.607843%,97.254902%,91.764706%);fill-opacity:1;" d="M 33.078125 178.796875 C 33.378906 178.289062 33.488281 178.03125 33.65625 177.824219 C 34.429688 176.867188 34.527344 175.867188 33.558594 175.0625 C 32.609375 174.277344 31.628906 174.566406 30.769531 175.382812 C 30.011719 176.097656 29.253906 176.820312 28.316406 177.304688 C 27.988281 177.476562 27.664062 177.726562 27.183594 177.394531 C 28.507812 175.03125 30.664062 173.460938 32.621094 171.710938 C 32.816406 171.539062 33.261719 171.621094 33.585938 171.625 C 37.800781 171.699219 42.019531 171.910156 46.230469 171.808594 C 48.304688 171.757812 49.425781 172.949219 50.632812 174.195312 C 51.179688 174.765625 51.707031 175.378906 52.015625 176.296875 C 50.429688 176.394531 49.378906 175.449219 48.246094 174.796875 C 46.613281 173.859375 46.101562 173.878906 44.773438 175.167969 C 43.351562 176.554688 42.167969 178.179688 40.574219 179.394531 C 40.226562 179.660156 39.8125 180.203125 39.382812 179.828125 C 38.957031 179.460938 39.367188 178.941406 39.628906 178.570312 C 40.324219 177.574219 40.414062 176.578125 39.421875 175.804688 C 38.363281 174.980469 37.398438 175.410156 36.558594 176.324219 C 35.660156 177.296875 34.691406 178.191406 33.078125 178.796875 "/>
<path style=" stroke:none;fill-rule:nonzero;fill:rgb(99.607843%,99.607843%,99.607843%);fill-opacity:1;" d="M 31.609375 21.101562 C 26.46875 22.835938 21.992188 25.519531 18.925781 30.152344 C 16.5625 33.722656 16.015625 37.9375 19.453125 41.257812 C 19.609375 41.410156 19.660156 41.5625 19.433594 41.699219 C 17.75 41.363281 16.140625 40.828125 14.707031 39.859375 C 11.886719 37.960938 11.214844 35.386719 12.777344 32.359375 C 14.09375 29.820312 16.09375 27.882812 18.402344 26.265625 C 22.242188 23.574219 26.476562 21.777344 31.078125 20.859375 C 31.347656 20.734375 31.621094 20.609375 31.609375 21.101562 "/>
<path style=" stroke:none;fill-rule:nonzero;fill:rgb(99.607843%,99.607843%,99.607843%);fill-opacity:1;" d="M 67.050781 125.945312 C 62.882812 125.878906 60.628906 123.273438 61.40625 119.472656 C 61.554688 118.742188 61.804688 118.433594 62.609375 118.597656 C 65.863281 119.265625 69.171875 119.464844 72.476562 119.679688 C 72.882812 119.707031 73.332031 119.566406 73.269531 120.292969 C 73.039062 123.085938 69.867188 125.992188 67.050781 125.945312 "/>
<path style=" stroke:none;fill-rule:nonzero;fill:rgb(99.607843%,99.607843%,99.607843%);fill-opacity:1;" d="M 77.328125 119.734375 C 80.964844 119.511719 84.589844 119.332031 88.15625 118.625 C 88.796875 118.496094 88.941406 118.785156 89.070312 119.332031 C 89.601562 121.566406 88.96875 123.792969 87.445312 124.824219 C 85.390625 126.21875 82.894531 126.179688 80.957031 124.722656 C 79.421875 123.574219 77.949219 121.5625 77.328125 119.734375 "/>
<path style=" stroke:none;fill-rule:nonzero;fill:rgb(99.607843%,97.254902%,91.764706%);fill-opacity:1;" d="M 19.558594 78.21875 C 19.683594 77.027344 19.667969 75.972656 20.027344 74.976562 C 20.359375 74.0625 20.832031 73.269531 21.824219 72.90625 C 23.398438 72.328125 23.992188 72.652344 24.109375 74.277344 C 24.347656 77.589844 24.765625 80.882812 25.574219 84.105469 C 25.8125 85.0625 25.445312 85.148438 24.683594 85.117188 C 22.097656 85.007812 20.332031 83.421875 19.792969 80.609375 C 19.636719 79.777344 19.625 78.914062 19.558594 78.21875 "/>
<path style=" stroke:none;fill-rule:nonzero;fill:rgb(88.235294%,84.705882%,79.607843%);fill-opacity:1;" d="M 31.609375 21.101562 C 31.433594 21.019531 31.257812 20.941406 31.078125 20.859375 C 31.730469 20.582031 32.378906 20.289062 33.109375 20.585938 C 32.699219 21.019531 32.105469 20.914062 31.609375 21.101562 "/>
<path style=" stroke:none;fill-rule:nonzero;fill:rgb(43.137255%,25.490196%,0%);fill-opacity:1;" d="M 74.601562 84.167969 C 77.589844 84.167969 80.574219 84.148438 83.558594 84.175781 C 86.101562 84.195312 86.410156 84.542969 86.429688 87.039062 C 86.460938 91.035156 85.761719 94.863281 83.816406 98.394531 C 81.609375 102.398438 77.710938 104.359375 73.667969 103.5 C 71.199219 102.976562 69.464844 101.402344 68.132812 99.355469 C 66.234375 96.4375 65.382812 93.164062 64.972656 89.746094 C 64.851562 88.710938 65.042969 87.597656 63.84375 86.914062 C 63.28125 86.589844 63.320312 85.824219 63.589844 85.21875 C 63.898438 84.519531 64.507812 84.351562 65.230469 84.351562 C 68.355469 84.367188 71.480469 84.359375 74.601562 84.359375 C 74.601562 84.296875 74.601562 84.230469 74.601562 84.167969 "/>
<path style=" stroke:none;fill-rule:nonzero;fill:rgb(43.137255%,25.490196%,0%);fill-opacity:1;" d="M 101.207031 67.53125 C 101.171875 69.210938 100.789062 70.644531 99.550781 71.71875 C 98.25 72.847656 96.441406 73.136719 95.054688 72.351562 C 93.171875 71.285156 92.15625 69.585938 92.199219 67.449219 C 92.234375 65.492188 93.070312 63.777344 94.5625 62.457031 C 96.046875 61.148438 97.863281 61.207031 99.273438 62.597656 C 100.675781 63.980469 101.132812 65.734375 101.207031 67.53125 "/>
<path style=" stroke:none;fill-rule:nonzero;fill:rgb(43.137255%,25.490196%,0%);fill-opacity:1;" d="M 58.792969 67.566406 C 58.851562 69.261719 58.433594 70.777344 57.035156 71.851562 C 54.277344 73.972656 50.367188 72.074219 49.914062 68.359375 C 49.621094 65.980469 50.496094 63.972656 52.289062 62.425781 C 53.886719 61.046875 55.785156 61.246094 57.171875 62.847656 C 58.34375 64.199219 58.828125 65.796875 58.792969 67.566406 "/>
<path style=" stroke:none;fill-rule:nonzero;fill:rgb(43.529412%,26.27451%,0%);fill-opacity:1;" d="M 55.425781 42.355469 C 52.929688 41.660156 50.550781 40.476562 48.75 38.34375 C 48.328125 37.84375 48.464844 37.242188 48.894531 36.792969 C 49.382812 36.277344 50.101562 36.199219 50.566406 36.652344 C 52.199219 38.242188 54.117188 39.265625 56.257812 39.96875 C 56.867188 40.167969 57.085938 40.746094 56.941406 41.363281 C 56.78125 42.042969 56.292969 42.367188 55.425781 42.355469 "/>
<path style=" stroke:none;fill-rule:nonzero;fill:rgb(43.921569%,26.666667%,0.392157%);fill-opacity:1;" d="M 73.417969 67.28125 C 73.503906 66.457031 74.011719 65.976562 74.890625 65.949219 C 75.714844 65.921875 77.007812 67.601562 76.953125 68.667969 C 76.90625 69.601562 76.367188 70.164062 75.398438 70.144531 C 74.5625 70.125 73.375 68.410156 73.417969 67.28125 "/>
<path style=" stroke:none;fill-rule:nonzero;fill:rgb(99.215686%,99.215686%,99.607843%);fill-opacity:1;" d="M 75.53125 155.015625 C 76.941406 155.03125 78.0625 156.136719 78.074219 157.515625 C 78.082031 158.960938 76.90625 160.140625 75.460938 160.136719 C 74.039062 160.132812 72.90625 158.914062 72.949219 157.441406 C 72.996094 156 74.0625 154.996094 75.53125 155.015625 "/>
<path style=" stroke:none;fill-rule:nonzero;fill:rgb(43.137255%,25.490196%,0%);fill-opacity:1;" d="M 73.507812 185.53125 C 73.507812 183.921875 73.492188 182.308594 73.511719 180.699219 C 73.53125 179.273438 74.199219 178.53125 75.382812 178.550781 C 76.5 178.574219 77.199219 179.320312 77.207031 180.625 C 77.230469 183.988281 77.226562 187.351562 77.207031 190.714844 C 77.199219 192.015625 76.496094 192.777344 75.386719 192.800781 C 74.214844 192.824219 73.53125 192.0625 73.511719 190.648438 C 73.492188 188.941406 73.507812 187.238281 73.507812 185.53125 "/>
<path style=" stroke:none;fill-rule:nonzero;fill:rgb(99.607843%,99.607843%,99.607843%);fill-opacity:1;" d="M 75.789062 87.296875 C 77.96875 87.296875 80.148438 87.304688 82.328125 87.292969 C 82.90625 87.289062 83.339844 87.320312 83.296875 88.101562 C 83.109375 91.5 82.515625 94.789062 80.527344 97.644531 C 77.730469 101.664062 73.320312 101.570312 70.6875 97.457031 C 68.875 94.628906 68.292969 91.433594 67.957031 88.160156 C 67.859375 87.191406 68.59375 87.457031 68.976562 87.449219 C 71.246094 87.398438 73.519531 87.425781 75.789062 87.425781 C 75.789062 87.382812 75.789062 87.339844 75.789062 87.296875 "/>
</g>
</svg>
