<?xml version="1.0" encoding="UTF-8"?>
<svg xmlns="http://www.w3.org/2000/svg" xmlns:xlink="http://www.w3.org/1999/xlink" width="186pt" height="200pt" viewBox="0 0 186 200" version="1.1">
<defs>
<clipPath id="clip1">
  <path d="M 25 0.191406 L 185.949219 0.191406 L 185.949219 200 L 25 200 Z M 25 0.191406 "/>
</clipPath>
</defs>
<g id="surface1">
<path style=" stroke:none;fill-rule:nonzero;fill:rgb(77.647059%,59.607843%,41.568627%);fill-opacity:1;" d="M 148.367188 146.738281 C 146.878906 146.46875 145.429688 146.902344 143.960938 147.011719 C 140.957031 147.242188 137.960938 147.589844 134.960938 147.894531 C 134.785156 147.914062 134.617188 148.011719 134.449219 148.074219 C 133.914062 148.121094 133.902344 147.640625 133.75 147.34375 C 133.101562 146.078125 132.582031 144.753906 131.9375 143.484375 C 131.375 142.375 131.496094 142.085938 132.683594 141.660156 C 136.941406 140.140625 140.925781 138.109375 144.648438 135.546875 C 152.0625 130.445312 157.457031 123.699219 161.140625 115.539062 C 162.3125 112.941406 163.296875 110.277344 164.042969 107.527344 C 164.285156 106.617188 164.707031 106.035156 165.792969 105.984375 C 170.597656 105.753906 173.628906 103.347656 174.894531 98.757812 C 175.765625 95.585938 175.769531 92.402344 174.730469 89.25 C 173.601562 85.824219 171.472656 84.164062 167.851562 84.039062 C 166.851562 84.003906 166.609375 83.632812 166.507812 82.726562 C 165.710938 75.703125 164.023438 68.894531 161.480469 62.292969 C 161.226562 61.632812 160.875 61.414062 160.199219 61.65625 C 159.390625 61.949219 158.523438 62.050781 157.695312 62.28125 C 155.851562 62.640625 154.011719 63 152.117188 62.875 C 151.984375 62.800781 151.84375 62.703125 151.828125 62.554688 C 151.671875 61.09375 150.679688 60.714844 149.410156 60.574219 C 145.285156 60.117188 141.839844 58.171875 138.957031 55.332031 C 132.761719 49.242188 129.222656 41.789062 128.058594 33.199219 C 128.003906 32.789062 127.933594 32.382812 127.824219 31.984375 C 127.578125 31.054688 126.945312 30.582031 126.136719 30.695312 C 125.339844 30.804688 124.808594 31.445312 124.871094 32.40625 C 124.949219 33.675781 125.160156 34.933594 125.417969 36.179688 C 126.972656 43.582031 130.136719 50.199219 135.164062 55.878906 C 137.0625 58.023438 139.269531 59.804688 141.773438 61.222656 C 142.097656 61.40625 142.699219 61.472656 142.464844 62.125 C 142.019531 62.339844 141.582031 62.167969 141.148438 62.085938 C 137.171875 61.335938 133.34375 60.089844 129.628906 58.496094 C 128.238281 57.898438 126.824219 57.546875 125.328125 57.371094 C 123.628906 57.171875 121.917969 56.980469 120.308594 56.324219 C 119.871094 54.710938 118.636719 54.394531 117.167969 54.203125 C 113.390625 53.703125 110.191406 51.871094 107.503906 49.292969 C 101.164062 43.210938 97.59375 35.6875 96.359375 27.03125 C 96.277344 26.472656 96.210938 25.910156 96.019531 25.382812 C 95.792969 24.761719 95.332031 24.398438 94.65625 24.398438 C 93.9375 24.398438 93.332031 24.757812 93.257812 25.453125 C 93.117188 26.738281 92.285156 27.03125 91.230469 27.304688 C 82.8125 29.484375 75.105469 33.128906 68.398438 38.71875 C 61.214844 44.703125 55.894531 52.078125 52.265625 60.683594 C 49.273438 67.773438 47.429688 75.152344 46.582031 82.789062 C 46.488281 83.652344 46.15625 84.054688 45.242188 84.050781 C 41.699219 84.035156 39.242188 85.617188 38.074219 89.039062 C 37.976562 89.320312 37.980469 89.765625 37.464844 89.660156 C 37.179688 89.308594 37.230469 88.882812 37.222656 88.476562 C 37.015625 78.699219 37.960938 69.046875 40.460938 59.570312 C 43.492188 48.097656 48.417969 37.550781 55.839844 28.238281 C 59.46875 23.6875 63.605469 19.625 68.226562 16.066406 C 68.523438 15.835938 68.820312 15.609375 69.078125 15.339844 C 71.03125 13.738281 73.425781 13.011719 75.691406 12.054688 C 78.074219 11.046875 80.53125 10.234375 83.027344 9.558594 C 83.507812 9.429688 84.003906 9.269531 84.222656 8.796875 C 84.589844 7.988281 85.277344 7.699219 86.050781 7.453125 C 92.246094 5.46875 98.574219 4.195312 105.074219 3.726562 C 112.859375 3.164062 120.558594 3.664062 128.171875 5.394531 C 132.796875 6.441406 137.183594 8.1875 141.515625 10.070312 C 147.5 12.675781 152.898438 16.230469 157.925781 20.367188 C 161.382812 23.214844 164.386719 26.488281 167.121094 30.023438 C 167.382812 30.363281 167.753906 30.695312 167.554688 31.21875 C 166.582031 31.371094 166.351562 30.351562 165.550781 29.976562 C 165.75 34.433594 164.953125 38.59375 161.933594 42.019531 C 158.925781 45.433594 154.910156 46.691406 150.496094 47.148438 C 153.660156 48.648438 156.976562 48.726562 160.300781 48.324219 C 164.6875 47.792969 168.664062 46.070312 172.429688 43.800781 C 173.078125 43.40625 173.652344 42.773438 174.535156 42.875 C 174.992188 43.148438 175.113281 43.636719 175.308594 44.074219 C 178.695312 51.65625 180.578125 59.640625 181.753906 67.828125 C 182.871094 75.601562 182.800781 83.421875 182.597656 91.226562 C 182.410156 98.570312 181.441406 105.824219 178.90625 112.804688 C 175.902344 121.070312 171.941406 128.796875 166.171875 135.480469 C 163.101562 139.039062 159.625 142.171875 155.128906 143.925781 C 153.863281 144.417969 152.570312 144.824219 151.21875 144.878906 C 149.855469 144.933594 148.851562 145.402344 148.367188 146.738281 "/>
<g clip-path="url(#clip1)" clip-rule="nonzero">
<path style=" stroke:none;fill-rule:nonzero;fill:rgb(43.137255%,25.490196%,0%);fill-opacity:1;" d="M 167.507812 31.25 C 166.671875 29.601562 165.378906 28.289062 164.171875 26.933594 C 156.691406 18.511719 147.53125 12.578125 137.050781 8.53125 C 130.472656 5.988281 123.699219 4.519531 116.675781 4.003906 C 106.128906 3.226562 95.867188 4.574219 85.835938 7.84375 C 85.253906 8.035156 84.742188 8.207031 84.542969 8.902344 C 84.371094 9.507812 83.78125 9.691406 83.230469 9.839844 C 78.988281 10.960938 74.929688 12.574219 70.960938 14.429688 C 70.347656 14.71875 69.789062 15.074219 69.269531 15.5 C 65.488281 17.777344 61.710938 20.054688 58.273438 22.851562 C 51.125 28.675781 45.445312 35.691406 41.125 43.816406 C 36.9375 51.691406 34.292969 60.078125 32.992188 68.886719 C 32.578125 71.695312 32.296875 74.519531 32.152344 77.363281 C 32.035156 79.644531 31.910156 81.921875 31.992188 84.199219 C 32.226562 90.894531 32.898438 97.546875 34.429688 104.089844 C 34.59375 104.792969 34.933594 105.101562 35.660156 105.101562 C 36.96875 105.09375 38.160156 105.5 39.214844 106.289062 C 42.6875 109.136719 44.804688 112.871094 46.132812 117.082031 C 46.933594 119.625 47.246094 122.261719 47.265625 124.929688 C 47.265625 125.042969 47.269531 125.152344 47.277344 125.265625 C 47.417969 127.285156 47.550781 127.402344 49.597656 127.566406 C 54.285156 127.949219 57.949219 130.140625 60.769531 133.855469 C 62.703125 136.40625 63.980469 139.246094 64.570312 142.378906 C 64.746094 143.308594 65.292969 143.660156 66.09375 143.9375 C 67.515625 144.421875 67.945312 145.167969 67.742188 146.554688 C 67.34375 147.558594 66.625 148.144531 65.515625 148.078125 C 64.894531 148.042969 64.726562 148.382812 64.667969 148.871094 C 64.355469 151.320312 63.414062 153.550781 62.230469 155.6875 C 62.042969 156.027344 61.914062 156.382812 62.058594 156.757812 C 63.117188 159.546875 64.195312 162.324219 65.390625 165.332031 C 68.824219 159.847656 71.984375 154.449219 75.539062 149.304688 C 76.835938 147.199219 78.257812 145.175781 79.683594 143.160156 C 80.167969 142.476562 80.050781 142.164062 79.277344 141.875 C 73.535156 139.734375 68.304688 136.703125 63.703125 132.652344 C 59.449219 128.910156 55.96875 124.527344 53.28125 119.53125 C 51.25 115.761719 49.605469 111.832031 48.460938 107.699219 C 48.253906 106.957031 47.914062 106.5625 47.070312 106.5625 C 43.269531 106.546875 40.429688 104.78125 38.351562 101.671875 C 36.503906 98.238281 36.476562 94.570312 36.980469 90.839844 C 37.039062 90.402344 37.125 89.941406 37.554688 89.671875 C 38.242188 87.320312 39.449219 85.382812 41.804688 84.355469 C 42.886719 83.878906 44.03125 83.664062 45.1875 83.761719 C 45.984375 83.828125 46.207031 83.632812 46.296875 82.839844 C 47.707031 70.585938 51.265625 59.078125 58.503906 48.929688 C 65.195312 39.546875 74.082031 32.992188 84.875 28.984375 C 87.226562 28.113281 89.617188 27.371094 92.054688 26.789062 C 92.636719 26.648438 92.839844 26.4375 92.867188 25.828125 C 92.925781 24.699219 93.628906 24.050781 94.628906 24.039062 C 95.640625 24.03125 96.308594 24.628906 96.441406 25.78125 C 97.277344 33.042969 99.875 39.605469 104.324219 45.40625 C 107.453125 49.484375 111.265625 52.632812 116.421875 53.808594 C 117.078125 53.957031 117.746094 54.039062 118.414062 54.128906 C 119.855469 54.324219 120.230469 54.726562 120.320312 56.21875 C 120.394531 57.160156 119.960938 57.699219 118.894531 57.9375 C 117.871094 58.160156 116.871094 57.886719 115.894531 57.683594 C 110.589844 56.582031 106.328125 53.730469 102.796875 49.714844 C 98.132812 44.402344 95.109375 38.242188 93.457031 31.394531 C 93.265625 30.601562 92.855469 30.59375 92.230469 30.761719 C 86.363281 32.316406 80.816406 34.601562 75.707031 37.910156 C 65.101562 44.78125 58.128906 54.414062 54 66.234375 C 52.164062 71.488281 50.945312 76.882812 50.261719 82.390625 C 49.863281 85.617188 49.8125 88.867188 50.121094 92.125 C 50.332031 94.316406 50.429688 96.519531 50.816406 98.695312 C 51.492188 103.273438 52.679688 107.71875 54.363281 112.027344 C 56.355469 116.871094 58.921875 121.382812 62.378906 125.335938 C 66.011719 129.484375 70.253906 132.882812 75.160156 135.449219 C 81.550781 138.785156 88.375 140.597656 95.488281 141.546875 C 100.597656 142.226562 105.722656 142.375 110.835938 142.125 C 119.605469 141.695312 128.175781 140.167969 136.167969 136.308594 C 144.558594 132.261719 151.152344 126.25 155.765625 118.109375 C 157.117188 115.722656 158.222656 113.234375 159.199219 110.683594 C 160.605469 106.875 161.609375 102.960938 162.230469 98.949219 C 162.769531 95.585938 163.039062 92.191406 163.097656 88.800781 C 163.210938 82.007812 161.832031 75.429688 159.910156 68.949219 C 159.34375 67.046875 158.660156 65.1875 157.96875 63.332031 C 157.816406 62.925781 157.542969 62.519531 157.804688 62.050781 C 158.796875 61.753906 159.792969 61.449219 160.792969 61.164062 C 161.378906 60.996094 161.472656 61.484375 161.617188 61.851562 C 163.078125 65.621094 164.332031 69.457031 165.210938 73.402344 C 165.929688 76.609375 166.542969 79.839844 166.824219 83.117188 C 166.855469 83.460938 166.839844 83.796875 167.359375 83.769531 C 172.269531 83.503906 174.777344 86.71875 175.53125 91.101562 C 176.035156 94.015625 175.875 96.914062 174.914062 99.738281 C 173.558594 103.703125 170.132812 106.25 165.917969 106.28125 C 164.90625 106.289062 164.582031 106.675781 164.339844 107.546875 C 162.367188 114.535156 159.277344 120.960938 154.695312 126.640625 C 149.253906 133.386719 142.382812 138.15625 134.367188 141.335938 C 133.671875 141.613281 132.96875 141.875 132.261719 142.117188 C 131.796875 142.277344 131.714844 142.496094 131.941406 142.945312 C 132.796875 144.644531 133.617188 146.363281 134.449219 148.074219 C 136.714844 153.273438 138.851562 158.519531 140.371094 163.996094 C 141.667969 168.660156 142.617188 173.378906 142.484375 178.238281 C 142.359375 182.910156 141.292969 187.277344 137.796875 190.699219 C 135.148438 193.292969 131.832031 194.464844 128.253906 194.976562 C 127.496094 195.085938 127.25 195.34375 127.199219 196.066406 C 127.148438 196.84375 126.949219 197.609375 126.8125 198.382812 C 126.664062 199.230469 126.464844 199.984375 125.34375 200 C 123.746094 200.015625 123.496094 199.871094 123.164062 198.417969 C 122.875 198.046875 122.992188 197.636719 123.058594 197.230469 C 124.226562 190.027344 125.132812 182.785156 125.984375 175.539062 C 126.183594 173.832031 126.421875 172.125 126.511719 170.40625 C 126.542969 169.804688 126.660156 169.210938 126.839844 168.640625 C 127.140625 167.679688 127.929688 167.125 128.855469 167.167969 C 129.894531 167.21875 130.582031 167.808594 130.820312 168.851562 C 130.914062 169.257812 130.90625 169.667969 130.859375 170.082031 C 130.085938 176.691406 129.40625 183.316406 128.460938 189.910156 C 128.304688 191 128.339844 191.007812 129.417969 190.761719 C 134.742188 189.550781 137.914062 185.738281 138.429688 180.226562 C 138.976562 174.355469 137.726562 168.761719 136.050781 163.226562 C 134.125 156.867188 131.5 150.785156 128.480469 144.871094 C 128.054688 144.039062 127.609375 143.773438 126.722656 144.070312 C 125.910156 144.34375 125.0625 144.53125 124.214844 144.703125 C 123.621094 144.824219 123.320312 145.121094 123.269531 145.753906 C 123.101562 147.792969 122.578125 149.738281 121.570312 151.527344 C 121.21875 152.152344 121.308594 152.539062 121.957031 152.878906 C 122.820312 153.332031 123.640625 153.863281 124.34375 154.550781 C 125.035156 155.222656 125.316406 156.011719 125.171875 156.992188 C 124.753906 159.828125 123.792969 162.414062 121.875 164.609375 C 120.914062 165.710938 120.949219 165.738281 121.789062 167.007812 C 122.101562 167.476562 122.429688 167.933594 122.675781 168.441406 C 123.453125 170.019531 123.015625 171.234375 121.375 171.859375 C 119.277344 172.664062 117.152344 173.402344 115.03125 174.140625 C 114.214844 174.421875 113.71875 174.882812 113.40625 175.6875 C 111.875 179.589844 110.371094 183.507812 108.8125 187.398438 C 108.6875 187.710938 108.570312 188.027344 108.425781 188.332031 C 108.019531 189.179688 107.390625 189.703125 106.414062 189.695312 C 105.464844 189.691406 104.878906 189.121094 104.519531 188.332031 C 103.84375 186.828125 103.253906 185.289062 102.667969 183.75 C 101.585938 180.917969 100.449219 178.105469 99.386719 175.261719 C 99.152344 174.644531 98.753906 174.296875 98.140625 174.085938 C 96.125 173.386719 94.117188 172.660156 92.105469 171.9375 C 90.226562 171.265625 89.757812 170.191406 90.578125 168.363281 C 90.871094 167.714844 91.15625 167.054688 91.5625 166.472656 C 92.023438 165.808594 91.945312 165.273438 91.4375 164.660156 C 89.78125 162.660156 88.789062 160.355469 88.222656 157.816406 C 87.839844 156.113281 88.347656 154.925781 89.699219 153.925781 C 91.167969 152.839844 91.144531 152.808594 90.566406 151.09375 C 89.996094 149.40625 89.6875 147.683594 89.941406 145.902344 C 90.035156 145.242188 89.816406 144.917969 89.171875 144.800781 C 88.027344 144.597656 86.902344 144.304688 85.789062 143.976562 C 84.859375 143.703125 84.285156 143.929688 83.710938 144.738281 C 79.929688 150.050781 76.414062 155.535156 72.957031 161.0625 C 70.972656 164.238281 69.070312 167.464844 67.207031 170.710938 C 66.679688 171.628906 66.003906 172.40625 64.832031 172.289062 C 63.675781 172.167969 63.167969 171.300781 62.785156 170.296875 C 61.664062 167.359375 60.523438 164.425781 59.382812 161.496094 C 58.878906 160.199219 58.707031 160.132812 57.730469 161.050781 C 55.195312 163.4375 52.136719 164.761719 48.792969 165.515625 C 47.878906 165.722656 46.941406 165.78125 46.011719 165.890625 C 45.386719 165.960938 45.226562 166.15625 45.539062 166.746094 C 48.019531 171.460938 50.75 176.015625 54.3125 180.019531 C 55.792969 181.679688 57.503906 183.074219 59.445312 184.171875 C 62.167969 185.714844 64.96875 185.6875 67.757812 184.410156 C 71.039062 182.90625 73.789062 180.683594 76.195312 178.003906 C 78.382812 175.570312 80.316406 172.960938 82.046875 170.191406 C 82.648438 169.21875 83.496094 168.933594 84.5625 169.230469 C 85.554688 169.5 85.890625 170.230469 85.933594 171.175781 C 86.195312 176.941406 87.136719 182.632812 87.835938 188.347656 C 88.199219 191.320312 88.679688 194.277344 89.15625 197.230469 C 89.222656 197.636719 89.339844 198.046875 89.050781 198.417969 C 88.667969 199.886719 88.4375 200.027344 86.855469 199.996094 C 85.667969 199.972656 85.523438 199.152344 85.371094 198.269531 C 84.136719 191.191406 83.3125 184.0625 82.449219 176.851562 C 81.90625 177.09375 81.691406 177.59375 81.382812 177.976562 C 78.5625 181.460938 75.464844 184.648438 71.539062 186.898438 C 65.21875 190.527344 59.59375 189.964844 54.078125 185.199219 C 50.085938 181.753906 47.152344 177.472656 44.5 172.976562 C 43.128906 170.660156 41.878906 168.277344 40.746094 165.839844 C 40.441406 165.179688 40.011719 164.914062 39.371094 164.714844 C 33.4375 162.867188 29.21875 159.214844 27.535156 153.085938 C 26.398438 148.949219 27.300781 144.914062 28.617188 140.976562 C 29.527344 138.265625 30.777344 135.710938 32.933594 133.734375 C 33.480469 133.230469 33.082031 132.992188 32.828125 132.648438 C 30.097656 128.964844 27.808594 125.042969 26.375 120.660156 C 25.710938 118.625 25.273438 116.539062 25.453125 114.378906 C 25.730469 111.027344 27.757812 108.796875 30.335938 106.957031 C 30.789062 106.632812 30.957031 106.394531 30.8125 105.796875 C 28.753906 97.085938 27.820312 88.25 28.125 79.308594 C 28.757812 60.757812 34.152344 43.882812 46.101562 29.410156 C 53.332031 20.65625 62.3125 14.238281 72.683594 9.617188 C 75.800781 8.226562 78.777344 6.507812 82.011719 5.34375 C 90.992188 2.117188 100.230469 0.304688 109.789062 0.195312 C 129.832031 -0.03125 147.382812 6.453125 162.277344 19.84375 C 170.921875 27.613281 176.703125 37.324219 180.515625 48.226562 C 184.164062 58.664062 185.875 69.441406 185.933594 80.484375 C 185.96875 86.730469 186.019531 92.976562 185.34375 99.210938 C 184.46875 107.253906 182.082031 114.835938 178.636719 122.109375 C 175.34375 129.054688 171.234375 135.449219 165.644531 140.800781 C 162.054688 144.238281 158.046875 146.988281 153.050781 147.964844 C 152.171875 148.136719 151.269531 148.214844 150.375 148.261719 C 149.308594 148.320312 148.582031 147.84375 148.367188 146.738281 C 148.425781 145.445312 148.917969 144.757812 149.96875 144.714844 C 154.289062 144.542969 157.867188 142.636719 161.117188 139.980469 C 166.296875 135.742188 170.09375 130.390625 173.292969 124.589844 C 176.957031 117.9375 179.648438 110.917969 181.09375 103.441406 C 181.648438 100.574219 181.894531 97.675781 182.101562 94.777344 C 182.496094 89.25 182.539062 83.710938 182.320312 78.183594 C 181.839844 66.1875 179.671875 54.539062 174.746094 43.5 C 174.652344 43.296875 174.542969 43.101562 174.4375 42.902344 C 173.929688 42.695312 173.800781 42.191406 173.589844 41.765625 C 171.871094 38.308594 170.101562 34.886719 167.664062 31.863281 C 167.523438 31.691406 167.390625 31.496094 167.507812 31.25 "/>
</g>
<path style=" stroke:none;fill-rule:nonzero;fill:rgb(27.058824%,46.27451%,67.843137%);fill-opacity:1;" d="M 89.050781 198.417969 C 87.59375 190.140625 86.691406 181.785156 85.679688 173.441406 C 85.597656 172.78125 85.628906 172.097656 85.664062 171.429688 C 85.710938 170.511719 85.46875 169.746094 84.527344 169.476562 C 83.578125 169.203125 82.792969 169.453125 82.238281 170.386719 C 80.101562 173.972656 77.574219 177.269531 74.527344 180.128906 C 72.023438 182.472656 69.285156 184.496094 65.882812 185.378906 C 62.332031 186.300781 59.433594 184.890625 56.777344 182.726562 C 52.789062 179.472656 50.046875 175.226562 47.46875 170.867188 C 46.484375 169.207031 45.613281 167.476562 44.621094 165.652344 C 46.894531 165.523438 48.957031 165.28125 50.960938 164.648438 C 53.769531 163.757812 56.164062 162.195312 58.273438 160.183594 C 58.886719 159.597656 59.070312 159.808594 59.316406 160.453125 C 60.554688 163.703125 61.839844 166.933594 63.066406 170.1875 C 63.417969 171.117188 63.824219 171.953125 64.925781 172.027344 C 65.980469 172.097656 66.5 171.339844 66.964844 170.527344 C 72.109375 161.5625 77.648438 152.851562 83.566406 144.375 C 84.167969 143.511719 84.699219 143.3125 85.667969 143.613281 C 86.914062 144.003906 88.207031 144.25 89.484375 144.523438 C 90.117188 144.65625 90.457031 144.882812 90.335938 145.636719 C 89.957031 147.957031 90.332031 150.1875 91.382812 152.277344 C 91.667969 152.847656 91.578125 153.070312 91.046875 153.394531 C 88.140625 155.179688 87.949219 155.679688 88.8125 158.972656 C 89.371094 161.105469 90.335938 163.050781 91.859375 164.648438 C 92.421875 165.242188 92.40625 165.667969 92.027344 166.300781 C 91.546875 167.097656 91.128906 167.941406 90.738281 168.789062 C 90.132812 170.105469 90.523438 171.035156 91.878906 171.535156 C 94.058594 172.332031 96.234375 173.132812 98.433594 173.871094 C 99.070312 174.085938 99.390625 174.433594 99.628906 175.050781 C 101.261719 179.308594 102.9375 183.550781 104.589844 187.800781 C 104.933594 188.683594 105.359375 189.4375 106.46875 189.429688 C 107.570312 189.417969 108.003906 188.691406 108.351562 187.800781 C 109.988281 183.582031 111.660156 179.378906 113.273438 175.152344 C 113.515625 174.523438 113.875 174.203125 114.496094 173.996094 C 116.726562 173.238281 118.941406 172.4375 121.160156 171.644531 C 122.851562 171.039062 123.238281 169.957031 122.324219 168.417969 C 121.773438 167.488281 120.757812 166.558594 120.773438 165.644531 C 120.789062 164.824219 121.96875 164.054688 122.566406 163.214844 C 123.984375 161.210938 124.65625 158.925781 124.917969 156.515625 C 124.992188 155.859375 124.742188 155.277344 124.222656 154.816406 C 123.351562 154.035156 122.375 153.410156 121.339844 152.878906 C 120.871094 152.636719 120.648438 152.464844 121.011719 151.886719 C 122.253906 149.917969 122.867188 147.734375 122.976562 145.414062 C 123.003906 144.832031 123.1875 144.574219 123.796875 144.460938 C 125.011719 144.238281 126.207031 143.921875 127.398438 143.601562 C 127.917969 143.460938 128.183594 143.578125 128.4375 144.078125 C 132.695312 152.480469 136.363281 161.101562 138.164062 170.398438 C 139 174.714844 139.40625 179.0625 138.070312 183.382812 C 136.648438 188 133.324219 190.367188 128.738281 191.238281 C 128.132812 191.351562 127.933594 191.34375 128.042969 190.558594 C 128.957031 184.007812 129.773438 177.449219 130.417969 170.867188 C 130.464844 170.382812 130.585938 169.90625 130.597656 169.421875 C 130.621094 168.273438 129.957031 167.511719 128.90625 167.425781 C 127.957031 167.347656 127.152344 168.015625 127.019531 169.097656 C 126.492188 173.4375 125.976562 177.777344 125.484375 182.117188 C 124.867188 187.574219 124.050781 193 123.164062 198.417969 C 111.792969 198.417969 100.421875 198.417969 89.050781 198.417969 "/>
<path style=" stroke:none;fill-rule:nonzero;fill:rgb(100%,81.176471%,0%);fill-opacity:1;" d="M 23.160156 85.746094 C 23.167969 86.984375 22.585938 87.789062 21.394531 88.132812 C 19.78125 88.601562 18.167969 89.082031 16.539062 89.496094 C 15.902344 89.65625 15.628906 89.988281 15.5 90.601562 C 15.066406 92.6875 14.585938 94.761719 14.128906 96.839844 C 13.859375 98.078125 12.964844 98.804688 11.660156 98.839844 C 10.316406 98.875 9.347656 98.167969 9.050781 96.882812 C 8.5625 94.773438 8.066406 92.664062 7.652344 90.542969 C 7.527344 89.914062 7.234375 89.671875 6.671875 89.519531 C 5.015625 89.074219 3.363281 88.605469 1.714844 88.125 C 0.605469 87.800781 0.015625 86.980469 0 85.800781 C -0.015625 84.582031 0.601562 83.722656 1.757812 83.390625 C 3.375 82.925781 4.988281 82.460938 6.617188 82.039062 C 7.226562 81.882812 7.535156 81.613281 7.664062 80.945312 C 8.046875 78.929688 8.535156 76.933594 8.980469 74.925781 C 9.304688 73.445312 10.171875 72.710938 11.613281 72.730469 C 12.808594 72.742188 13.972656 73.429688 14.191406 74.875 C 14.5 76.898438 15.070312 78.882812 15.484375 80.894531 C 15.621094 81.558594 15.910156 81.894531 16.605469 82.058594 C 18.203125 82.441406 19.773438 82.929688 21.355469 83.378906 C 22.550781 83.71875 23.148438 84.507812 23.160156 85.746094 "/>
<path style=" stroke:none;fill-rule:nonzero;fill:rgb(99.607843%,97.254902%,91.764706%);fill-opacity:1;" d="M 159.4375 110.8125 C 155.6875 121.148438 149.1875 129.226562 139.660156 134.792969 C 133.003906 138.679688 125.734375 140.738281 118.148438 141.773438 C 109.902344 142.894531 101.652344 142.851562 93.421875 141.566406 C 83.171875 139.960938 73.753906 136.445312 65.933594 129.378906 C 60.621094 124.582031 56.71875 118.808594 54.144531 112.132812 C 53.988281 111.808594 54.058594 111.605469 54.453125 111.6875 C 54.824219 111.765625 55.097656 112.050781 55.417969 112.242188 C 58.695312 114.191406 62.222656 114.941406 65.992188 114.371094 C 68.4375 114.003906 70.355469 112.625 71.980469 110.851562 C 74.230469 108.394531 75.941406 105.667969 75.902344 102.167969 C 75.839844 96.152344 70.933594 90.011719 65.28125 88.996094 C 61.605469 88.335938 58.402344 89.492188 55.617188 91.894531 C 53.71875 93.535156 52.261719 95.503906 51.285156 97.828125 C 51.144531 98.164062 51.117188 98.683594 50.542969 98.667969 C 49.949219 95.878906 49.71875 93.039062 49.699219 90.203125 C 49.59375 75.816406 53.320312 62.523438 61.691406 50.753906 C 69.320312 40.03125 79.949219 33.617188 92.589844 30.335938 C 93.582031 30.078125 93.574219 30.625 93.722656 31.234375 C 95.554688 38.847656 99 45.601562 104.597656 51.144531 C 108.285156 54.792969 112.648438 57.195312 117.929688 57.667969 C 119.289062 57.792969 119.855469 57.46875 120.320312 56.21875 C 122.792969 56.601562 125.253906 57.035156 127.730469 57.390625 C 128.941406 57.566406 130.054688 58.382812 131.238281 58.839844 C 134.90625 60.257812 138.648438 61.417969 142.546875 62 C 142.976562 61.734375 143.335938 62.015625 143.699219 62.164062 C 145.570312 62.921875 147.507812 63.402344 149.503906 63.6875 C 150.570312 63.839844 151.253906 63.25 152.003906 62.714844 C 153.9375 62.492188 155.871094 62.273438 157.804688 62.050781 C 160.460938 68.507812 162.207031 75.207031 163.089844 82.125 C 163.703125 86.933594 163.445312 91.746094 162.886719 96.546875 C 162.789062 97.398438 162.636719 98.246094 162.511719 99.09375 C 161.792969 98.964844 161.789062 98.292969 161.601562 97.8125 C 160.761719 95.699219 159.652344 93.78125 158.019531 92.164062 C 154.460938 88.648438 149.558594 87.761719 145.097656 90.042969 C 139.902344 92.695312 137.171875 97.183594 136.882812 102.839844 C 136.65625 107.320312 139.242188 110.945312 143.582031 113.039062 C 145.769531 114.097656 148.160156 114.605469 150.664062 114.566406 C 153.476562 114.519531 155.855469 113.613281 157.828125 111.613281 C 158.167969 111.265625 158.484375 110.882812 158.917969 110.648438 C 159.109375 110.542969 159.40625 110.304688 159.4375 110.8125 "/>
<path style=" stroke:none;fill-rule:nonzero;fill:rgb(99.607843%,99.607843%,99.607843%);fill-opacity:1;" d="M 39.101562 106.535156 C 37.984375 105.804688 36.785156 105.257812 35.425781 105.375 C 34.539062 105.453125 34.308594 105.0625 34.140625 104.300781 C 31.917969 94.222656 31.113281 84.058594 32.085938 73.769531 C 33.292969 60.984375 37.039062 49.054688 44.058594 38.238281 C 50.230469 28.726562 58.320312 21.269531 68.273438 15.835938 C 68.566406 15.675781 68.84375 15.328125 69.269531 15.5 C 68.015625 16.554688 66.746094 17.589844 65.507812 18.660156 C 55.207031 27.535156 48.054688 38.554688 43.390625 51.242188 C 40.023438 60.390625 38.222656 69.855469 37.691406 79.582031 C 37.507812 82.949219 37.519531 86.308594 37.554688 89.671875 C 36.636719 93.824219 36.800781 97.878906 38.691406 101.769531 C 39.210938 102.941406 39.355469 104.207031 39.53125 105.457031 C 39.589844 105.863281 39.730469 106.371094 39.101562 106.535156 "/>
<path style=" stroke:none;fill-rule:nonzero;fill:rgb(99.607843%,99.607843%,99.607843%);fill-opacity:1;" d="M 167.507812 31.25 C 170.414062 34.78125 172.546875 38.773438 174.4375 42.902344 C 170.105469 45.730469 165.527344 47.972656 160.328125 48.648438 C 156.714844 49.117188 153.175781 48.882812 149.757812 47.039062 C 160.511719 45.980469 165.761719 40.15625 165.257812 29.234375 C 166.089844 29.980469 166.800781 30.617188 167.507812 31.25 "/>
<path style=" stroke:none;fill-rule:nonzero;fill:rgb(43.137255%,25.490196%,0%);fill-opacity:1;" d="M 152.003906 62.714844 C 151.582031 63.777344 150.773438 64.066406 149.6875 63.976562 C 147.179688 63.761719 144.832031 63.003906 142.546875 62 C 132.246094 55.996094 127.28125 46.484375 124.984375 35.238281 C 124.789062 34.289062 124.644531 33.324219 124.578125 32.359375 C 124.496094 31.199219 125.179688 30.414062 126.207031 30.335938 C 127.265625 30.257812 128.011719 30.875 128.148438 32.054688 C 128.980469 39.320312 131.574219 45.878906 136.023438 51.683594 C 139.148438 55.761719 142.953125 58.914062 148.109375 60.09375 C 148.726562 60.234375 149.359375 60.3125 149.988281 60.402344 C 151.675781 60.652344 152 61.023438 152.003906 62.714844 "/>
<path style=" stroke:none;fill-rule:nonzero;fill:rgb(99.607843%,97.254902%,91.764706%);fill-opacity:1;" d="M 61.019531 146.738281 C 60.804688 152.246094 57.769531 156.910156 52.496094 159.980469 C 47.359375 162.96875 42.003906 162.628906 36.894531 159.726562 C 31.804688 156.835938 29.773438 151.769531 31.054688 145.695312 C 31.589844 143.160156 32.371094 140.707031 33.722656 138.476562 C 34.503906 137.179688 35.441406 136.070312 36.925781 135.464844 C 38.21875 134.933594 38.375 133.5625 37.347656 132.410156 C 34.539062 129.25 32.355469 125.699219 30.667969 121.839844 C 29.890625 120.054688 29.320312 118.203125 29.0625 116.261719 C 28.648438 113.148438 31.4375 109.445312 34.5625 108.980469 C 35.851562 108.792969 36.902344 109.199219 37.773438 110.171875 C 40.808594 113.554688 42.71875 117.449219 43.132812 122.003906 C 43.308594 123.976562 43.382812 125.957031 43.523438 127.933594 C 43.546875 128.253906 43.476562 128.507812 43.3125 128.773438 C 42.878906 129.488281 42.910156 130.21875 43.402344 130.871094 C 43.878906 131.503906 44.566406 131.625 45.320312 131.480469 C 47.273438 131.109375 49.191406 131.390625 51.101562 131.789062 C 55.628906 132.734375 57.941406 136.0625 59.742188 139.886719 C 60.644531 141.800781 61 143.867188 61.019531 146.738281 "/>
<path style=" stroke:none;fill-rule:nonzero;fill:rgb(100%,83.529412%,72.941176%);fill-opacity:1;" d="M 159.4375 110.8125 C 158.964844 110.515625 158.84375 111.019531 158.675781 111.207031 C 155.199219 115.121094 150.871094 115.464844 146.140625 114.273438 C 142.964844 113.476562 140.367188 111.832031 138.515625 109.117188 C 136.679688 106.429688 136.09375 103.476562 136.910156 100.292969 C 138.265625 95.007812 141.214844 91.042969 146.488281 89.160156 C 151.203125 87.476562 156.359375 89.195312 159.390625 93.179688 C 160.773438 94.996094 161.507812 97.105469 162.511719 99.09375 C 161.882812 103.101562 160.949219 107.03125 159.4375 110.8125 "/>
<path style=" stroke:none;fill-rule:nonzero;fill:rgb(100%,83.529412%,72.941176%);fill-opacity:1;" d="M 50.542969 98.667969 C 51.683594 96.230469 53.003906 93.953125 54.988281 92.035156 C 60.410156 86.796875 68.726562 87.507812 73.042969 93.679688 C 74.628906 95.949219 75.699219 98.445312 76.140625 101.167969 C 76.394531 102.730469 76.167969 104.300781 75.570312 105.789062 C 74.222656 109.152344 72.0625 111.847656 68.886719 113.652344 C 66.078125 115.25 63.074219 115.085938 60.0625 114.414062 C 58.046875 113.960938 56.113281 113.273438 54.484375 111.921875 C 54.226562 111.710938 54.199219 111.96875 54.144531 112.136719 C 52.34375 107.804688 51.144531 103.316406 50.542969 98.667969 "/>
<path style=" stroke:none;fill-rule:nonzero;fill:rgb(77.647059%,59.607843%,41.568627%);fill-opacity:1;" d="M 39.101562 106.535156 C 39.582031 106.234375 39.300781 105.8125 39.242188 105.457031 C 39.054688 104.226562 38.738281 103.019531 38.691406 101.769531 C 40.375 104.109375 42.550781 105.695312 45.449219 106.179688 C 45.78125 106.234375 46.113281 106.277344 46.449219 106.292969 C 48.355469 106.386719 48.375 106.378906 48.929688 108.253906 C 50.921875 114.953125 53.945312 121.117188 58.328125 126.59375 C 63.34375 132.863281 69.628906 137.4375 76.949219 140.648438 C 77.90625 141.066406 78.875 141.484375 79.867188 141.800781 C 80.679688 142.058594 80.601562 142.34375 80.179688 142.945312 C 78.675781 145.082031 77.226562 147.261719 75.757812 149.421875 C 73.449219 149.082031 71.300781 148.234375 69.167969 147.347656 C 68.589844 147.105469 67.96875 146.933594 67.460938 146.527344 C 67.667969 145.296875 67.3125 144.574219 66.085938 144.269531 C 64.871094 143.96875 64.433594 143.339844 64.191406 142.09375 C 63.285156 137.445312 60.859375 133.621094 57.210938 130.628906 C 55.0625 128.871094 52.433594 128.167969 49.722656 127.894531 C 47.0625 127.621094 47.035156 127.6875 46.988281 125.027344 C 46.882812 118.972656 45.25 113.457031 41.324219 108.726562 C 40.652344 107.917969 39.929688 107.175781 39.101562 106.535156 "/>
<path style=" stroke:none;fill-rule:nonzero;fill:rgb(99.607843%,97.254902%,91.764706%);fill-opacity:1;" d="M 40.636719 93.835938 C 40.652344 92.515625 40.785156 90.839844 41.585938 89.300781 C 42.355469 87.8125 43.890625 87.105469 45.53125 87.363281 C 45.980469 87.4375 46.070312 87.613281 46.070312 88.007812 C 46.039062 92.734375 46.507812 97.414062 47.410156 102.050781 C 47.523438 102.621094 47.359375 102.746094 46.792969 102.726562 C 44.382812 102.652344 42.242188 101.117188 41.335938 98.722656 C 41.152344 98.234375 41.015625 97.726562 40.90625 97.21875 C 40.6875 96.226562 40.632812 95.21875 40.636719 93.835938 "/>
<path style=" stroke:none;fill-rule:nonzero;fill:rgb(100%,44.313725%,39.215686%);fill-opacity:1;" d="M 112.128906 153.738281 C 115.050781 154.261719 117.9375 155.003906 120.550781 156.570312 C 121.019531 156.847656 121.242188 157.136719 121.082031 157.742188 C 120.203125 161.078125 118.28125 163.472656 115.007812 164.730469 C 114.359375 164.976562 114.082031 164.859375 113.863281 164.207031 C 113.078125 161.871094 112.226562 159.554688 111.441406 157.214844 C 111.113281 156.234375 111.304688 155.21875 111.410156 154.21875 C 111.453125 153.769531 111.6875 153.648438 112.128906 153.738281 "/>
<path style=" stroke:none;fill-rule:nonzero;fill:rgb(100%,44.313725%,39.215686%);fill-opacity:1;" d="M 102.019531 156.644531 C 102.007812 156.695312 101.953125 156.988281 101.855469 157.265625 C 101.039062 159.59375 100.203125 161.914062 99.402344 164.246094 C 99.230469 164.742188 99.109375 165.011719 98.46875 164.785156 C 95.070312 163.566406 93.105469 161.113281 92.203125 157.703125 C 92.0625 157.183594 92.261719 156.878906 92.707031 156.605469 C 95.339844 154.988281 98.265625 154.25 101.265625 153.722656 C 101.710938 153.644531 101.875 153.859375 101.894531 154.273438 C 101.925781 154.980469 101.96875 155.6875 102.019531 156.644531 "/>
<path style=" stroke:none;fill-rule:nonzero;fill:rgb(99.607843%,97.254902%,91.764706%);fill-opacity:1;" d="M 172.167969 94.226562 C 172.121094 95.453125 172.054688 97.128906 171.449219 98.722656 C 170.574219 101.035156 168.851562 102.285156 166.449219 102.679688 C 165.8125 102.785156 165.515625 102.738281 165.679688 101.921875 C 166.585938 97.371094 167.027344 92.773438 167 88.132812 C 166.996094 87.457031 167.269531 87.304688 167.847656 87.324219 C 169.496094 87.371094 170.683594 88.078125 171.359375 89.628906 C 171.9375 90.957031 172.054688 92.359375 172.167969 94.226562 "/>
<path style=" stroke:none;fill-rule:nonzero;fill:rgb(99.607843%,99.607843%,99.607843%);fill-opacity:1;" d="M 106.460938 182.664062 C 105.527344 180.253906 104.675781 178.070312 103.835938 175.878906 C 103.753906 175.667969 103.484375 175.421875 103.871094 175.21875 C 104.8125 174.730469 104.832031 173.789062 104.992188 172.914062 C 105.535156 169.941406 106.082031 166.972656 106.753906 163.988281 C 107.210938 166.589844 107.640625 169.195312 108.136719 171.789062 C 108.351562 172.933594 108.191406 174.214844 109.203125 175.121094 C 109.394531 175.292969 109.257812 175.542969 109.175781 175.75 C 108.304688 177.96875 107.433594 180.1875 106.460938 182.664062 "/>
<path style=" stroke:none;fill-rule:nonzero;fill:rgb(99.607843%,99.607843%,99.607843%);fill-opacity:1;" d="M 100.085938 150.1875 C 98.578125 150.582031 97.125 150.917969 95.703125 151.355469 C 95.15625 151.523438 94.941406 151.296875 94.726562 150.917969 C 93.824219 149.3125 93.765625 147.578125 93.917969 145.804688 C 93.957031 145.375 94.167969 145.339844 94.515625 145.382812 C 95.628906 145.527344 96.742188 145.660156 97.855469 145.785156 C 98.140625 145.816406 98.355469 145.894531 98.4375 146.203125 C 98.824219 147.601562 99.515625 148.878906 100.085938 150.1875 "/>
<path style=" stroke:none;fill-rule:nonzero;fill:rgb(99.607843%,96.862745%,91.372549%);fill-opacity:1;" d="M 102.199219 146.050781 C 105.046875 146.199219 107.734375 146.207031 110.417969 146.058594 C 110.960938 146.027344 111.226562 146.152344 110.929688 146.734375 C 110.894531 146.800781 110.875 146.871094 110.847656 146.941406 C 109.949219 149.371094 109.914062 149.394531 107.363281 149.394531 C 106.914062 149.394531 106.449219 149.324219 106.019531 149.410156 C 104.261719 149.757812 103.292969 148.925781 102.753906 147.359375 C 102.613281 146.949219 102.417969 146.558594 102.199219 146.050781 "/>
<path style=" stroke:none;fill-rule:nonzero;fill:rgb(99.607843%,99.607843%,99.215686%);fill-opacity:1;" d="M 113.316406 150.242188 C 113.972656 148.945312 114.5 147.675781 114.847656 146.347656 C 114.964844 145.898438 115.1875 145.742188 115.609375 145.699219 C 116.683594 145.59375 117.761719 145.488281 118.832031 145.335938 C 119.34375 145.261719 119.414062 145.484375 119.347656 145.890625 C 119.070312 147.558594 118.617188 149.148438 117.574219 150.535156 C 117.191406 151.046875 116.804688 151.121094 116.238281 150.960938 C 115.304688 150.699219 114.359375 150.496094 113.316406 150.242188 "/>
<path style=" stroke:none;fill-rule:nonzero;fill:rgb(100%,43.921569%,38.823529%);fill-opacity:1;" d="M 102.28125 167.410156 C 102.074219 168.578125 102.25 170.183594 101.550781 170.796875 C 100.757812 171.492188 99.457031 170.289062 98.347656 170.003906 C 97.414062 169.765625 96.523438 169.367188 95.613281 169.027344 C 95.269531 168.898438 94.71875 168.929688 95.039062 168.257812 C 95.292969 167.722656 95.515625 167.394531 96.203125 167.742188 C 97.269531 168.28125 98.417969 168.605469 99.597656 168.820312 C 100.960938 169.0625 101.546875 168.753906 102.082031 167.433594 C 102.136719 167.328125 102.203125 167.320312 102.28125 167.410156 "/>
<path style=" stroke:none;fill-rule:nonzero;fill:rgb(100%,43.921569%,38.823529%);fill-opacity:1;" d="M 111.476562 168.109375 C 112.039062 168.828125 112.734375 169.058594 113.648438 168.84375 C 114.738281 168.585938 115.84375 168.363281 116.84375 167.855469 C 117.652344 167.441406 117.839844 168.035156 118.0625 168.503906 C 118.371094 169.152344 117.675781 169.023438 117.433594 169.117188 C 115.765625 169.75 114.066406 170.3125 112.390625 170.9375 C 111.828125 171.148438 111.566406 171.078125 111.515625 170.433594 C 111.464844 169.804688 111.347656 169.183594 111.257812 168.554688 C 111.183594 168.335938 111.042969 168.085938 111.476562 168.109375 "/>
<path style=" stroke:none;fill-rule:nonzero;fill:rgb(100%,44.313725%,38.823529%);fill-opacity:1;" d="M 107.699219 154.554688 C 107.894531 155.578125 107.640625 156.109375 106.460938 156.003906 C 105.78125 155.945312 105.519531 155.742188 105.585938 155.082031 C 105.609375 154.859375 105.59375 154.636719 105.574219 154.414062 C 105.453125 153.09375 106.078125 152.574219 107.34375 153.035156 C 108.148438 153.324219 107.566406 154.066406 107.699219 154.554688 "/>
<path style=" stroke:none;fill-rule:nonzero;fill:rgb(84.313725%,38.431373%,28.235294%);fill-opacity:1;" d="M 111.476562 168.109375 C 111.402344 168.257812 111.328125 168.40625 111.257812 168.554688 C 111.023438 168.28125 111.023438 167.960938 111.082031 167.578125 C 111.386719 167.648438 111.394531 167.90625 111.476562 168.109375 "/>
<path style=" stroke:none;fill-rule:nonzero;fill:rgb(71.764706%,34.509804%,19.607843%);fill-opacity:1;" d="M 102.28125 167.410156 C 102.214844 167.410156 102.148438 167.417969 102.082031 167.433594 C 102.175781 167.175781 102.265625 166.917969 102.378906 166.601562 C 102.574219 166.960938 102.542969 167.203125 102.28125 167.410156 "/>
<path style=" stroke:none;fill-rule:nonzero;fill:rgb(43.137255%,25.490196%,0%);fill-opacity:1;" d="M 119.363281 111.96875 C 119.097656 115.804688 118.320312 119.929688 115.59375 123.488281 C 111.882812 128.332031 102.28125 129.964844 97.539062 122 C 95.808594 119.097656 94.835938 115.945312 94.25 112.652344 C 94.191406 112.308594 94.257812 111.972656 93.722656 111.835938 C 92.882812 111.625 92.496094 110.949219 92.710938 110.105469 C 92.9375 109.207031 93.621094 108.890625 94.527344 109.019531 C 97.273438 109.40625 100.039062 109.5625 102.804688 109.640625 C 107.382812 109.769531 111.9375 109.496094 116.472656 108.921875 C 119.0625 108.59375 119.4375 108.890625 119.363281 111.96875 "/>
<path style=" stroke:none;fill-rule:nonzero;fill:rgb(43.137255%,25.490196%,0%);fill-opacity:1;" d="M 75.070312 86.914062 C 75.078125 85.324219 75.386719 83.796875 76.121094 82.382812 C 76.367188 81.90625 76.414062 81.546875 76.109375 81.066406 C 75.429688 80.003906 75.222656 78.777344 75.121094 77.546875 C 75.050781 76.65625 75.382812 75.953125 76.359375 75.867188 C 77.324219 75.78125 77.785156 76.332031 77.828125 77.289062 C 77.847656 77.734375 77.933594 78.179688 78.015625 78.621094 C 78.160156 79.371094 78.371094 79.910156 79.398438 79.613281 C 80.222656 79.375 80.996094 79.828125 81.660156 80.351562 C 84.726562 82.785156 85.519531 87.75 83.351562 90.992188 C 82.429688 92.363281 81.230469 93.390625 79.480469 93.230469 C 77.65625 93.0625 76.410156 91.980469 75.691406 90.300781 C 75.226562 89.21875 75.042969 88.085938 75.070312 86.914062 "/>
<path style=" stroke:none;fill-rule:nonzero;fill:rgb(43.137255%,25.490196%,0%);fill-opacity:1;" d="M 128.128906 87.402344 C 128.152344 85.316406 128.457031 83.75 129.234375 82.308594 C 129.480469 81.855469 129.460938 81.519531 129.191406 81.09375 C 128.515625 80.023438 128.300781 78.804688 128.195312 77.574219 C 128.117188 76.691406 128.425781 75.976562 129.402344 75.871094 C 130.363281 75.769531 130.851562 76.296875 130.894531 77.261719 C 130.914062 77.632812 130.992188 78 131.050781 78.371094 C 131.183594 79.21875 131.308594 79.945312 132.554688 79.613281 C 133.417969 79.378906 134.203125 79.90625 134.882812 80.480469 C 137.664062 82.851562 138.496094 87.417969 136.671875 90.585938 C 135.75 92.1875 134.476562 93.4375 132.46875 93.21875 C 130.453125 92.996094 129.210938 91.699219 128.574219 89.808594 C 128.257812 88.878906 128.105469 87.925781 128.128906 87.402344 "/>
<path style=" stroke:none;fill-rule:nonzero;fill:rgb(43.137255%,25.490196%,0%);fill-opacity:1;" d="M 81.253906 47.015625 C 82.433594 47.058594 83.871094 47.730469 84.992188 49.066406 C 85.585938 49.773438 85.6875 50.503906 84.957031 51.136719 C 84.269531 51.734375 83.503906 51.585938 82.996094 50.902344 C 81.375 48.726562 78.144531 49.8125 77.164062 51.894531 C 76.644531 52.996094 75.988281 53.320312 75.191406 52.921875 C 74.410156 52.535156 74.261719 51.761719 74.757812 50.699219 C 75.820312 48.433594 78.144531 46.988281 81.253906 47.015625 "/>
<path style=" stroke:none;fill-rule:nonzero;fill:rgb(43.137255%,26.27451%,0%);fill-opacity:1;" d="M 105.878906 87.867188 C 106.320312 87.828125 106.738281 88.007812 107.019531 88.378906 C 107.472656 88.972656 107.945312 89.570312 108.277344 90.234375 C 108.664062 91.007812 108.574219 91.808594 107.777344 92.308594 C 106.964844 92.820312 106.195312 92.675781 105.613281 91.882812 C 105.21875 91.339844 104.820312 90.789062 104.507812 90.195312 C 103.917969 89.089844 104.621094 87.894531 105.878906 87.867188 "/>
<path style=" stroke:none;fill-rule:nonzero;fill:rgb(43.137255%,25.490196%,0%);fill-opacity:1;" d="M 47.515625 144.980469 C 47.378906 148.46875 45.699219 151.117188 42.980469 151.671875 C 41.660156 151.945312 40.976562 152.417969 40.398438 153.644531 C 39.46875 155.617188 36.675781 156.191406 34.835938 154.980469 C 34.074219 154.480469 33.753906 153.753906 34.09375 152.84375 C 34.429688 151.925781 35.289062 151.378906 36.253906 151.746094 C 37.394531 152.1875 37.578125 151.558594 37.671875 150.753906 C 37.753906 150.085938 37.746094 149.410156 37.738281 148.734375 C 37.730469 147.871094 38.152344 147.285156 38.921875 147.015625 C 39.640625 146.765625 40.324219 146.933594 40.875 147.511719 C 41.8125 148.5 42.589844 148.394531 43.328125 147.183594 C 44.714844 144.914062 43.589844 141.316406 41.136719 140.207031 C 40.433594 139.886719 39.972656 139.417969 39.9375 138.605469 C 39.886719 137.296875 40.953125 136.441406 42.226562 136.777344 C 44.871094 137.480469 47.066406 140.375 47.410156 143.621094 C 47.460938 144.105469 47.484375 144.589844 47.515625 144.980469 "/>
<path style=" stroke:none;fill-rule:nonzero;fill:rgb(99.607843%,99.607843%,99.607843%);fill-opacity:1;" d="M 104.296875 112.597656 C 108.636719 112.570312 112.109375 112.402344 115.5625 111.953125 C 116.265625 111.859375 116.460938 111.988281 116.371094 112.753906 C 116.019531 115.789062 115.417969 118.730469 113.570312 121.261719 C 110.367188 125.644531 104.078125 125.765625 100.777344 121.480469 C 98.863281 119 97.933594 116.09375 97.320312 113.066406 C 97.195312 112.457031 97.371094 112.285156 97.984375 112.324219 C 100.375 112.480469 102.761719 112.648438 104.296875 112.597656 "/>
</g>
</svg>
