<?xml version="1.0" encoding="UTF-8"?>
<svg xmlns="http://www.w3.org/2000/svg" xmlns:xlink="http://www.w3.org/1999/xlink" width="147pt" height="199pt" viewBox="0 0 147 199" version="1.1">
<defs>
<clipPath id="clip1">
  <path d="M 35 157 L 61 157 L 61 198.855469 L 35 198.855469 Z M 35 157 "/>
</clipPath>
<clipPath id="clip2">
  <path d="M 0 0.132812 L 146.792969 0.132812 L 146.792969 198.855469 L 0 198.855469 Z M 0 0.132812 "/>
</clipPath>
<clipPath id="clip3">
  <path d="M 37 157 L 120 157 L 120 198.855469 L 37 198.855469 Z M 37 157 "/>
</clipPath>
</defs>
<g id="surface1">
<g clip-path="url(#clip1)" clip-rule="nonzero">
<path style=" stroke:none;fill-rule:nonzero;fill:rgb(99.215686%,99.215686%,99.215686%);fill-opacity:1;" d="M 35.226562 198.863281 L 37.636719 198.863281 L 47.933594 170.976562 L 50.132812 166.59375 L 60.207031 159.101562 L 60.296875 157.730469 L 46.285156 162.84375 L 42.988281 170.0625 L 35.226562 198.863281 "/>
</g>
<g clip-path="url(#clip2)" clip-rule="nonzero">
<path style=" stroke:none;fill-rule:nonzero;fill:rgb(0%,0%,0%);fill-opacity:1;" d="M 59.980469 158.691406 C 59.941406 158.503906 60.261719 158.039062 59.683594 158.257812 C 55.640625 159.785156 51.691406 161.507812 48.246094 164.183594 C 46.375 165.640625 45.105469 167.445312 44.453125 169.789062 C 42.105469 178.203125 39.6875 186.605469 36.9375 194.902344 C 36.566406 196.023438 36.191406 197.144531 35.699219 198.222656 C 35.601562 198.441406 35.535156 198.6875 35.226562 198.863281 C 35.082031 198.136719 35.25 197.492188 35.359375 196.863281 C 36.113281 192.621094 37.140625 188.441406 38.167969 184.257812 C 39.453125 179.039062 40.769531 173.828125 42.070312 168.613281 C 42.792969 165.71875 44.5 163.480469 46.820312 161.699219 C 50.621094 158.777344 54.921875 156.785156 59.382812 155.125 C 60.007812 154.890625 60.417969 154.652344 60.332031 153.90625 C 60.292969 153.574219 60.402344 153.230469 60.429688 152.886719 C 60.511719 151.820312 60.503906 151.839844 59.421875 151.535156 C 52.992188 149.710938 46.625 147.695312 40.507812 144.972656 C 37.339844 143.566406 34.441406 141.699219 31.933594 139.28125 C 29.984375 137.398438 28.347656 135.261719 26.921875 132.96875 C 26.640625 132.519531 26.363281 132.390625 25.832031 132.425781 C 22.679688 132.625 19.675781 132.097656 17.25 129.941406 C 14.113281 127.15625 12.917969 123.550781 13.234375 119.425781 C 13.335938 118.125 13.613281 116.847656 14.257812 115.695312 C 14.472656 115.308594 14.183594 115.152344 14.003906 114.957031 C 11.296875 111.9375 8.933594 108.675781 6.941406 105.144531 C 4.109375 100.121094 2.515625 94.675781 1.375 89.078125 C 0.339844 84.007812 -0.0742188 78.875 0.0117188 73.703125 C 0.132812 66.398438 1.503906 59.304688 3.726562 52.363281 C 4.851562 48.851562 6.132812 45.398438 7.648438 42.03125 C 7.851562 41.582031 7.792969 41.257812 7.542969 40.84375 C 6.109375 38.5 4.890625 36.050781 4.511719 33.289062 C 3.886719 28.753906 5.460938 25.664062 9.457031 23.382812 C 11.886719 21.996094 14.550781 21.421875 17.285156 21.085938 C 18.191406 20.976562 19.101562 20.875 20.011719 20.824219 C 20.347656 20.808594 20.496094 20.625 20.671875 20.421875 C 23.707031 16.917969 27.085938 13.792969 30.957031 11.21875 C 34.96875 8.550781 39.265625 6.5625 44.070312 5.804688 C 46.726562 5.382812 49.390625 5.273438 52.066406 5.550781 C 52.496094 5.59375 52.890625 5.628906 53.316406 5.390625 C 59 2.175781 65.125 0.488281 71.644531 0.1875 C 80.144531 -0.207031 88.207031 1.578125 95.957031 4.976562 C 104.402344 8.683594 111.742188 14.007812 118.472656 20.226562 C 124.132812 25.457031 129.28125 31.121094 133.5 37.589844 C 138.96875 45.972656 143.046875 54.960938 145.660156 64.628906 C 147.480469 71.351562 146.957031 77.945312 145.117188 84.539062 C 143.984375 88.605469 142.464844 92.527344 140.597656 96.3125 C 140.464844 96.585938 140.390625 96.796875 140.53125 97.125 C 142.402344 101.460938 141.640625 105.5 138.828125 109.121094 C 135.828125 112.992188 131.652344 115.097656 126.980469 116.300781 C 126.496094 116.425781 126.292969 116.625 126.179688 117.132812 C 125.3125 121.078125 123.960938 124.835938 121.535156 128.121094 C 119.75 130.535156 117.421875 132.398438 115.109375 134.261719 C 108.441406 139.636719 101.28125 144.261719 93.652344 148.167969 C 93.292969 148.351562 92.925781 148.527344 92.511719 148.730469 C 93.507812 149.871094 94.496094 150.867188 95.976562 151.355469 C 99.792969 152.613281 103.71875 153.484375 107.546875 154.6875 C 108.984375 155.140625 110.390625 155.667969 111.773438 156.265625 C 114.421875 157.40625 116.511719 159.214844 117.988281 161.652344 C 120.078125 165.09375 121.539062 168.816406 122 172.8125 C 122.265625 175.101562 122.019531 177.460938 121.929688 179.78125 C 121.789062 183.359375 121.609375 186.933594 121.40625 190.507812 C 121.265625 192.921875 121.179688 195.339844 120.714844 197.71875 C 120.625 198.164062 120.707031 198.863281 119.886719 198.804688 C 119.433594 198.605469 119.308594 198.1875 119.195312 197.765625 C 118.886719 196.632812 118.796875 195.460938 118.765625 194.304688 C 118.679688 191.117188 118.441406 187.917969 118.625 184.730469 C 118.808594 181.558594 118.636719 178.390625 118.75 175.222656 C 118.820312 173.25 118.507812 171.375 117.816406 169.523438 C 116.875 166.996094 115.980469 164.453125 114.253906 162.316406 C 114.101562 162.109375 113.929688 161.921875 113.742188 161.75 C 112.476562 160.285156 110.785156 159.5 109.027344 158.832031 C 106.703125 157.949219 104.296875 157.320312 101.898438 156.671875 C 101.421875 156.542969 101.210938 156.675781 101.132812 157.132812 C 101.097656 157.335938 101.027344 157.527344 100.941406 157.714844 C 100.390625 158.976562 99.351562 159.820312 98.324219 160.648438 C 97.023438 161.695312 95.546875 162.496094 94.082031 163.289062 C 93.609375 163.546875 93.375 163.871094 93.285156 164.390625 C 93.082031 165.625 92.660156 166.777344 91.699219 167.652344 C 91.378906 167.945312 91.339844 168.195312 91.710938 168.484375 C 92.015625 168.722656 92.261719 169.03125 92.546875 169.296875 C 93.699219 170.382812 94 171.730469 93.765625 173.238281 C 93.398438 175.59375 91.996094 177.292969 90.25 178.78125 C 88.234375 180.492188 85.9375 181.78125 83.695312 183.148438 C 81.109375 184.726562 78.730469 186.5625 76.480469 188.582031 C 74.148438 190.671875 71.921875 192.867188 69.636719 195 C 69.136719 195.46875 68.585938 195.882812 68.113281 196.382812 C 67.710938 196.808594 67.21875 196.929688 66.636719 196.953125 C 65.839844 196.988281 65.246094 196.742188 64.703125 196.15625 C 62.789062 194.070312 60.757812 192.078125 59.582031 189.433594 C 58.765625 187.605469 58.132812 185.734375 58.195312 183.699219 C 58.207031 183.3125 58.175781 182.90625 58.617188 182.695312 C 59.144531 182.660156 59.242188 183.085938 59.378906 183.433594 C 59.996094 184.984375 60.613281 186.53125 61.492188 187.960938 C 62.726562 189.96875 64.277344 191.6875 66.078125 193.195312 C 66.496094 193.546875 66.722656 193.320312 66.996094 193.046875 C 68.902344 191.144531 70.808594 189.230469 72.726562 187.332031 C 76.15625 183.929688 80.019531 181.109375 84.222656 178.730469 C 86.074219 177.679688 87.863281 176.527344 89.300781 174.914062 C 89.574219 174.605469 89.851562 174.300781 90.085938 173.960938 C 90.914062 172.777344 90.921875 171.949219 90.132812 170.746094 C 89.859375 170.324219 89.59375 169.890625 89.238281 169.535156 C 88.621094 168.921875 88.46875 168.164062 88.417969 167.351562 C 88.386719 166.832031 88.644531 166.4375 88.902344 166.03125 C 89.578125 164.964844 89.996094 163.824219 89.796875 162.535156 C 89.613281 161.347656 88.921875 160.554688 87.84375 160.070312 C 87.527344 159.929688 87.203125 159.820312 86.890625 159.679688 C 85.921875 159.230469 85.625 158.335938 86.160156 157.414062 C 86.609375 156.636719 87.246094 156.003906 87.792969 155.300781 C 88.277344 154.6875 88.726562 154.050781 88.972656 153.304688 C 89.355469 152.140625 89.078125 151.480469 87.972656 150.957031 C 87.15625 150.570312 86.285156 150.390625 85.382812 150.34375 C 83.6875 150.261719 82.003906 150.441406 80.328125 150.695312 C 80.191406 150.714844 80.058594 150.742188 79.917969 150.746094 C 79.515625 150.757812 79.121094 150.730469 78.914062 150.316406 C 78.714844 149.921875 78.839844 149.550781 79.097656 149.230469 C 79.625 148.574219 80.171875 147.929688 80.800781 147.359375 C 83.769531 144.675781 86.699219 141.957031 89.488281 139.085938 C 90.15625 138.398438 90.273438 137.410156 89.78125 136.75 C 88.988281 136.582031 88.191406 136.609375 87.402344 136.746094 C 85.359375 137.109375 83.453125 137.894531 81.554688 138.691406 C 78.6875 139.890625 75.785156 141.007812 72.988281 142.367188 C 70.714844 143.476562 68.59375 144.800781 66.738281 146.53125 C 64.640625 148.492188 63.738281 151.007812 63.367188 153.761719 C 62.941406 156.925781 62.765625 160.113281 62.386719 163.28125 C 62.203125 164.839844 62.035156 166.402344 61.792969 167.957031 C 61.691406 168.234375 61.714844 168.53125 61.648438 168.816406 C 61.269531 171.042969 60.878906 173.269531 60.042969 175.386719 C 59.742188 176.160156 59.347656 176.878906 58.824219 177.519531 C 58.625 177.765625 58.410156 178.132812 58 177.777344 C 57.867188 177.433594 57.988281 177.101562 58.050781 176.769531 C 58.71875 173.300781 59.175781 169.804688 59.40625 166.28125 C 59.542969 164.238281 59.6875 162.199219 59.671875 160.148438 C 59.667969 159.644531 59.753906 159.152344 59.980469 158.691406 "/>
</g>
<g clip-path="url(#clip3)" clip-rule="nonzero">
<path style=" stroke:none;fill-rule:nonzero;fill:rgb(59.215686%,80%,99.607843%);fill-opacity:1;" d="M 58.660156 182.730469 C 58.339844 183 58.363281 183.378906 58.367188 183.738281 C 58.410156 186.917969 59.609375 189.683594 61.449219 192.199219 C 62.585938 193.75 63.964844 195.09375 65.273438 196.496094 C 65.65625 196.910156 67.296875 196.871094 67.742188 196.460938 C 70.332031 194.046875 72.925781 191.636719 75.503906 189.214844 C 78.59375 186.304688 82.015625 183.84375 85.6875 181.71875 C 87.828125 180.480469 89.875 179.101562 91.554688 177.265625 C 93.054688 175.628906 93.894531 173.734375 93.574219 171.46875 C 93.382812 170.109375 92.378906 169.296875 91.421875 168.488281 C 91.03125 168.15625 91.070312 168.019531 91.421875 167.707031 C 92.433594 166.800781 92.96875 165.621094 93.109375 164.289062 C 93.171875 163.726562 93.390625 163.425781 93.894531 163.164062 C 95.953125 162.113281 97.933594 160.941406 99.601562 159.3125 C 100.078125 158.84375 100.46875 158.320312 100.785156 157.738281 C 102.976562 158.195312 105.152344 158.714844 107.3125 159.296875 C 109.035156 159.757812 110.75 160.25 112.382812 160.976562 C 112.839844 161.183594 113.316406 161.359375 113.710938 161.679688 C 113.890625 161.84375 114.09375 161.976562 114.300781 162.101562 C 115.21875 163.101562 115.894531 164.261719 116.429688 165.492188 C 117.429688 167.785156 118.425781 170.09375 118.859375 172.578125 C 119.164062 174.292969 118.929688 176.035156 118.9375 177.765625 C 118.953125 183.738281 118.660156 189.710938 119.097656 195.679688 C 119.175781 196.753906 119.164062 197.878906 119.886719 198.804688 C 119.542969 198.808594 119.203125 198.816406 118.859375 198.816406 C 91.945312 198.816406 65.03125 198.816406 38.117188 198.816406 C 37.957031 198.816406 37.792969 198.800781 37.636719 198.820312 C 37.097656 198.894531 37.085938 198.640625 37.238281 198.238281 C 38.191406 195.648438 39.128906 193.054688 40.089844 190.472656 C 42.441406 184.144531 44.953125 177.882812 47.167969 171.507812 C 47.71875 169.90625 48.179688 168.285156 49.238281 166.925781 C 50.683594 165.078125 52.425781 163.542969 54.328125 162.175781 C 56.128906 160.875 58.046875 159.769531 59.980469 158.691406 C 59.816406 164.984375 59.445312 171.257812 58.132812 177.441406 C 58.105469 177.570312 58.113281 177.710938 58.101562 177.847656 C 58.386719 178.289062 58.367188 178.804688 58.433594 179.296875 C 58.558594 180.179688 58.660156 181.0625 58.773438 181.945312 C 58.804688 182.214844 58.863281 182.492188 58.660156 182.730469 "/>
</g>
<path style=" stroke:none;fill-rule:nonzero;fill:rgb(25.882353%,25.882353%,25.882353%);fill-opacity:1;" d="M 41.335938 44.65625 C 40.660156 43.207031 40.28125 41.675781 40.09375 40.09375 C 39.988281 39.210938 39.929688 38.324219 39.960938 37.4375 C 39.964844 37.289062 40.027344 37.066406 39.804688 37.042969 C 39.621094 37.023438 39.582031 37.226562 39.527344 37.378906 C 39 38.773438 38.867188 40.222656 39.046875 41.683594 C 39.546875 45.816406 41.347656 49.46875 43.328125 53.054688 C 46.597656 58.980469 50.734375 64.324219 54.738281 69.753906 C 55.207031 70.390625 55.65625 71.046875 56.027344 71.84375 C 54.953125 71.492188 53.871094 71.167969 52.808594 70.777344 C 49.566406 69.589844 46.402344 68.21875 43.347656 66.609375 C 41.207031 65.480469 39.101562 64.289062 36.992188 63.101562 C 36.640625 62.90625 36.347656 62.601562 36.027344 62.34375 C 35.867188 62.265625 35.71875 62.152344 35.546875 62.089844 C 35.390625 61.933594 35.214844 61.800781 35.019531 61.691406 C 31.976562 59.53125 29.203125 57.058594 26.457031 54.542969 C 23.28125 51.632812 20.363281 48.492188 17.722656 45.101562 C 15.445312 42.175781 13.375 39.109375 12.144531 35.566406 C 11.328125 33.21875 10.890625 30.835938 11.765625 28.40625 C 12.371094 26.734375 13.464844 25.457031 15.078125 24.65625 C 15.238281 24.550781 15.335938 24.386719 15.574219 24.34375 C 19.878906 23.550781 24.222656 23.472656 28.578125 23.539062 C 30.679688 23.574219 32.78125 23.546875 34.882812 23.550781 C 35.226562 23.550781 35.5625 23.527344 35.898438 23.433594 C 36.179688 23.347656 36.5 23.351562 36.527344 22.941406 C 36.550781 22.554688 36.253906 22.445312 35.984375 22.328125 C 35.1875 21.980469 34.347656 21.777344 33.492188 21.632812 C 32.035156 21.386719 30.582031 21.132812 29.101562 21.070312 C 28.980469 21.066406 28.882812 21.011719 28.820312 20.90625 C 28.824219 20.507812 29.140625 20.3125 29.386719 20.09375 C 32.148438 17.585938 35.121094 15.367188 38.375 13.527344 C 40.667969 12.230469 43.082031 11.210938 45.582031 10.386719 C 45.933594 10.269531 46.292969 10.046875 46.691406 10.269531 C 45.332031 11.679688 44.027344 13.128906 43.003906 14.8125 C 42.6875 15.339844 42.394531 15.878906 42.210938 16.46875 C 42.140625 16.6875 42.0625 16.953125 42.269531 17.105469 C 42.507812 17.273438 42.699219 17.046875 42.851562 16.894531 C 43.660156 16.058594 44.457031 15.214844 45.285156 14.40625 C 46.167969 13.542969 46.980469 12.578125 48.050781 11.917969 C 48.246094 11.785156 48.410156 11.605469 48.640625 11.527344 C 49.90625 10.46875 51.425781 9.875 52.921875 9.253906 C 56.734375 7.675781 60.714844 6.800781 64.8125 6.351562 C 67.503906 6.058594 70.203125 6.003906 72.894531 6.132812 C 78.003906 6.375 83.019531 7.273438 87.929688 8.726562 C 92.484375 10.078125 96.867188 11.851562 101.082031 14.035156 C 106.359375 16.769531 111.265625 20.066406 115.851562 23.84375 C 118.816406 26.289062 121.609375 28.921875 124.257812 31.699219 C 126.339844 33.878906 128.34375 36.132812 130.089844 38.597656 C 130.226562 38.820312 130.359375 39.042969 130.609375 39.160156 C 131.472656 40.597656 132.425781 41.972656 133.257812 43.429688 C 135.246094 46.898438 137.046875 50.457031 138.597656 54.140625 C 140.234375 58.027344 141.683594 61.980469 142.617188 66.105469 C 143.339844 69.296875 143.683594 72.523438 143.511719 75.792969 C 143.378906 78.25 142.828125 80.640625 142.167969 83.015625 C 141.183594 86.578125 139.96875 90.054688 138.40625 93.410156 C 138.167969 93.929688 137.996094 93.996094 137.472656 93.679688 C 135.773438 92.648438 133.921875 92.03125 131.917969 91.925781 C 131.800781 91.917969 131.6875 91.90625 131.574219 91.902344 C 130.949219 91.875 130.714844 91.625 130.738281 90.933594 C 130.800781 88.90625 131.191406 86.917969 131.378906 84.90625 C 131.632812 82.183594 131.800781 79.453125 131.277344 76.738281 C 131.214844 76.40625 131.082031 76.085938 130.953125 75.769531 C 130.847656 75.515625 130.722656 75.210938 130.398438 75.238281 C 130.03125 75.269531 129.976562 75.613281 129.9375 75.90625 C 129.699219 77.640625 129.628906 79.390625 129.40625 81.125 C 129.136719 83.246094 128.789062 85.351562 128.375 87.445312 C 128.066406 88.992188 127.960938 90.558594 127.898438 92.117188 C 127.757812 95.75 127.046875 99.28125 126.066406 102.8125 C 125.855469 102.066406 125.644531 101.316406 125.425781 100.574219 C 124.328125 96.882812 122.648438 93.441406 120.847656 90.058594 C 117.738281 84.21875 113.9375 78.773438 111.058594 72.804688 C 110.769531 72.207031 110.578125 71.582031 110.03125 71.070312 C 109.085938 70.1875 107.9375 70.289062 106.847656 70.167969 C 104.453125 69.898438 102.054688 69.628906 99.660156 69.355469 C 97.148438 69.070312 94.644531 68.722656 92.152344 68.339844 C 89.40625 67.917969 86.675781 67.410156 83.960938 66.804688 C 83.742188 66.753906 83.523438 66.703125 83.304688 66.652344 C 83.234375 66.34375 83.503906 66.308594 83.65625 66.214844 C 86.433594 64.472656 89.320312 62.972656 92.574219 62.308594 C 95.839844 61.640625 98.929688 62.042969 101.765625 63.886719 C 102.398438 64.296875 103.035156 64.699219 103.667969 65.101562 C 103.988281 65.304688 104.371094 65.519531 104.679688 65.257812 C 104.953125 65.023438 104.796875 64.621094 104.6875 64.292969 C 104.132812 62.625 103.007812 61.363281 101.667969 60.3125 C 99.164062 58.347656 96.234375 57.660156 93.113281 57.839844 C 90.707031 57.976562 88.40625 58.640625 86.195312 59.613281 C 83.15625 60.949219 80.457031 62.800781 78.011719 65.019531 C 77.6875 65.3125 77.402344 65.25 77.078125 65.148438 C 76.417969 64.945312 75.761719 64.726562 75.101562 64.511719 C 74.929688 64.316406 74.664062 64.300781 74.457031 64.175781 C 72.09375 63.382812 69.828125 62.347656 67.582031 61.285156 C 61.976562 58.636719 56.59375 55.589844 51.429688 52.160156 C 48.234375 50.039062 45.121094 47.796875 42.097656 45.433594 C 41.808594 45.210938 41.527344 44.976562 41.335938 44.65625 "/>
<path style=" stroke:none;fill-rule:nonzero;fill:rgb(100%,87.058824%,59.607843%);fill-opacity:1;" d="M 20.609375 55.335938 C 23.640625 57.796875 26.710938 60.203125 29.960938 62.382812 C 37.054688 67.140625 44.503906 71.199219 52.648438 73.898438 C 54.363281 74.464844 56.109375 74.90625 57.859375 75.332031 C 58.53125 75.496094 59.242188 75.457031 59.6875 74.890625 C 60.160156 74.285156 60.476562 73.648438 60.082031 72.757812 C 59.324219 71.0625 58.171875 69.65625 57.0625 68.214844 C 53.519531 63.59375 49.835938 59.082031 46.609375 54.226562 C 46.476562 54.03125 46.277344 53.859375 46.25 53.445312 C 55.027344 60.058594 64.703125 64.683594 75.195312 67.820312 C 74.714844 68.4375 74.265625 69 73.835938 69.574219 C 72.972656 70.726562 72.195312 71.933594 71.625 73.261719 C 71.453125 73.65625 71.3125 74.070312 71.207031 74.484375 C 71.117188 74.828125 70.957031 75.257812 71.285156 75.511719 C 71.644531 75.785156 71.980469 75.445312 72.257812 75.242188 C 73.714844 74.171875 74.972656 72.863281 76.359375 71.707031 C 77.289062 70.933594 78.230469 70.171875 79.15625 69.390625 C 79.4375 69.152344 79.6875 69.070312 80.078125 69.167969 C 87.601562 71.078125 95.257812 72.214844 102.964844 73.046875 C 104.441406 73.207031 105.917969 73.382812 107.394531 73.542969 C 107.632812 73.566406 107.8125 73.597656 107.929688 73.855469 C 110.261719 78.921875 113.371094 83.550781 116.148438 88.367188 C 118.378906 92.238281 120.507812 96.160156 121.996094 100.394531 C 122.808594 102.707031 123.382812 105.066406 123.496094 107.523438 C 123.527344 108.140625 123.613281 108.75 123.902344 109.3125 C 124.175781 109.828125 123.929688 110.347656 123.875 110.851562 C 123.523438 114.140625 122.988281 117.394531 121.84375 120.523438 C 120.390625 124.5 118.042969 127.839844 114.707031 130.453125 C 110.628906 133.652344 106.511719 136.808594 102.105469 139.554688 C 97.492188 142.429688 92.8125 145.171875 87.742188 147.191406 C 87.488281 147.292969 87.242188 147.417969 86.957031 147.402344 C 86.46875 147.3125 85.976562 147.390625 85.488281 147.355469 C 85.355469 147.347656 85.144531 147.433594 85.160156 147.164062 C 87.699219 145.214844 90.144531 143.148438 92.265625 140.746094 C 93.609375 139.222656 93.636719 137.378906 92.960938 135.601562 C 92.332031 133.949219 90.847656 133.363281 89.160156 133.296875 C 87.019531 133.210938 84.996094 133.785156 83.027344 134.542969 C 78.796875 136.175781 74.558594 137.808594 70.527344 139.902344 C 67.605469 141.421875 64.980469 143.34375 62.992188 146.027344 C 62.476562 146.726562 62.09375 147.5 61.65625 148.242188 C 61.265625 148.359375 60.9375 148.144531 60.605469 148.015625 C 55.988281 146.257812 51.355469 144.550781 46.761719 142.730469 C 42.625 141.089844 38.984375 138.675781 35.964844 135.394531 C 33.816406 133.0625 32.117188 130.417969 30.738281 127.5625 C 27.855469 121.585938 26.472656 115.199219 25.484375 108.703125 C 25.164062 106.609375 24.9375 104.5 24.710938 102.390625 C 24.691406 102.207031 24.679688 102.027344 24.765625 101.855469 C 25.28125 101.886719 25.796875 101.886719 26.308594 101.796875 C 26.425781 101.878906 26.507812 101.988281 26.574219 102.109375 C 28.199219 105.082031 30.875 106.386719 34.09375 106.820312 C 37.339844 107.257812 40.511719 106.734375 43.679688 106.109375 C 43.84375 106.078125 43.902344 105.988281 43.957031 105.859375 C 44.191406 105.707031 44.441406 105.792969 44.691406 105.800781 C 48.171875 105.898438 52.550781 104.339844 54.21875 100.761719 C 55.207031 98.640625 55.117188 96.488281 54.542969 94.277344 C 53.539062 90.417969 50.996094 87.820312 47.722656 85.800781 C 45.484375 84.421875 43.015625 83.660156 40.421875 83.375 C 37.144531 83.007812 34.09375 83.796875 31.28125 85.460938 C 27.136719 87.921875 24.792969 91.574219 24.160156 96.34375 C 24.101562 96.796875 24.273438 97.355469 23.78125 97.703125 C 23.527344 97.527344 23.496094 97.242188 23.429688 96.984375 C 21.742188 90.386719 20.273438 83.75 19.46875 76.980469 C 19.03125 73.285156 18.746094 69.574219 18.886719 65.855469 C 19.011719 62.589844 19.347656 59.34375 20.203125 56.175781 C 20.285156 55.875 20.3125 55.539062 20.609375 55.335938 "/>
<path style=" stroke:none;fill-rule:nonzero;fill:rgb(100%,87.058824%,59.607843%);fill-opacity:1;" d="M 58.660156 182.730469 C 58.484375 181.347656 58.304688 179.96875 58.136719 178.585938 C 58.105469 178.34375 58.113281 178.09375 58.101562 177.847656 C 58.664062 177.640625 58.914062 177.132812 59.1875 176.671875 C 60.261719 174.882812 60.664062 172.871094 61.101562 170.871094 C 61.25 170.1875 61.375 169.5 61.515625 168.8125 C 61.65625 168.535156 61.574219 168.203125 61.730469 167.929688 C 62.097656 165.679688 62.765625 163.496094 63.277344 161.277344 C 63.863281 158.746094 64.5 156.222656 65.078125 153.6875 C 66.027344 149.550781 68.472656 146.59375 72.085938 144.503906 C 74.304688 143.21875 76.625 142.136719 79.011719 141.207031 C 81.484375 140.238281 83.789062 138.921875 86.21875 137.863281 C 87.4375 137.332031 88.644531 136.785156 89.984375 136.644531 C 90.421875 137.25 90.339844 138.382812 89.824219 138.957031 C 87.816406 141.183594 85.585938 143.179688 83.390625 145.21875 C 82.121094 146.398438 80.8125 147.542969 79.640625 148.832031 C 79.535156 148.953125 79.425781 149.070312 79.332031 149.195312 C 79.085938 149.53125 78.78125 149.898438 79.03125 150.3125 C 79.269531 150.703125 79.71875 150.5625 80.105469 150.523438 C 81.964844 150.332031 83.816406 149.957031 85.703125 150.167969 C 86.546875 150.265625 87.367188 150.460938 88.132812 150.835938 C 89.304688 151.410156 89.558594 152.019531 89.167969 153.28125 C 88.878906 154.214844 88.296875 154.976562 87.691406 155.722656 C 87.230469 156.289062 86.742188 156.835938 86.335938 157.441406 C 85.765625 158.292969 86.0625 159.136719 87.015625 159.546875 C 87.054688 159.5625 87.09375 159.59375 87.136719 159.601562 C 89.914062 160.316406 90.851562 162.917969 89.292969 165.707031 C 88.871094 166.460938 88.394531 167.144531 88.660156 168.085938 C 88.742188 168.371094 88.789062 168.648438 88.96875 168.890625 C 89.445312 169.535156 89.910156 170.183594 90.394531 170.816406 C 91.054688 171.683594 91.042969 172.578125 90.550781 173.507812 C 89.851562 174.832031 88.769531 175.816406 87.617188 176.722656 C 86.105469 177.914062 84.425781 178.851562 82.765625 179.808594 C 78.777344 182.117188 75.273438 185.023438 72.023438 188.257812 C 70.324219 189.953125 68.621094 191.648438 66.949219 193.367188 C 66.546875 193.777344 66.34375 193.738281 65.933594 193.355469 C 63.9375 191.496094 62.050781 189.554688 60.785156 187.09375 C 60.210938 185.976562 59.742188 184.820312 59.285156 183.652344 C 59.148438 183.308594 59.101562 182.878906 58.660156 182.730469 "/>
<path style=" stroke:none;fill-rule:nonzero;fill:rgb(25.882353%,25.882353%,25.882353%);fill-opacity:1;" d="M 11.53125 46.296875 C 13.378906 48.46875 15.296875 50.570312 17.460938 52.441406 C 17.765625 52.707031 17.804688 52.921875 17.640625 53.3125 C 16.121094 56.898438 15.230469 60.65625 14.699219 64.5 C 14.078125 68.988281 14.21875 73.507812 14.304688 78.015625 C 14.355469 80.492188 14.589844 82.964844 14.839844 85.429688 C 15.128906 88.273438 15.492188 91.109375 15.886719 93.945312 C 16.429688 97.8125 17.015625 101.675781 17.753906 105.507812 C 18.582031 109.789062 19.464844 114.066406 20.664062 118.269531 C 20.675781 118.308594 20.664062 118.355469 20.65625 118.484375 C 19.519531 117.355469 18.382812 116.308594 17.34375 115.175781 C 15.757812 113.445312 14.214844 111.675781 12.84375 109.765625 C 11.511719 107.910156 10.28125 105.996094 9.179688 103.996094 C 8.199219 102.210938 7.347656 100.375 6.757812 98.425781 C 6.726562 98.320312 6.726562 98.207031 6.714844 98.097656 C 6.472656 97.867188 6.519531 97.523438 6.382812 97.25 C 6.335938 97.078125 6.265625 96.910156 6.214844 96.734375 C 5.238281 93.492188 4.628906 90.1875 4.296875 86.820312 C 4.066406 84.457031 3.898438 82.085938 3.925781 79.722656 C 4.019531 72.273438 5.050781 64.953125 7.210938 57.804688 C 8.328125 54.109375 9.640625 50.480469 11.140625 46.925781 C 11.238281 46.695312 11.304688 46.445312 11.53125 46.296875 "/>
<path style=" stroke:none;fill-rule:nonzero;fill:rgb(99.607843%,99.607843%,99.607843%);fill-opacity:1;" d="M 20.609375 55.335938 C 19.933594 57.863281 19.457031 60.4375 19.265625 63.042969 C 19.078125 65.609375 18.996094 68.175781 19.171875 70.753906 C 19.300781 72.589844 19.414062 74.429688 19.613281 76.261719 C 19.929688 79.199219 20.402344 82.109375 20.941406 85.011719 C 21.714844 89.171875 22.703125 93.28125 23.75 97.378906 C 23.777344 97.484375 23.832031 97.582031 23.875 97.683594 C 24.113281 97.890625 24.058594 98.1875 24.097656 98.449219 C 24.238281 99.445312 24.363281 100.441406 24.804688 101.367188 C 24.871094 101.507812 24.941406 101.660156 24.855469 101.824219 C 25.117188 104.769531 25.480469 107.703125 25.964844 110.621094 C 26.65625 114.78125 27.566406 118.890625 28.980469 122.875 C 30.820312 128.054688 33.382812 132.792969 37.433594 136.617188 C 40.519531 139.527344 44.128906 141.582031 48.082031 143.074219 C 52.613281 144.785156 57.132812 146.519531 61.65625 148.242188 C 61.585938 148.757812 61.292969 148.671875 60.914062 148.574219 C 56.375 147.429688 51.96875 145.875 47.550781 144.347656 C 44.09375 143.152344 40.734375 141.773438 37.648438 139.777344 C 33.339844 136.984375 30.355469 133.070312 27.980469 128.625 C 25.324219 123.644531 23.707031 118.292969 22.390625 112.839844 C 20.566406 105.277344 19.273438 97.621094 18.222656 89.921875 C 17.34375 83.449219 16.792969 76.957031 16.910156 70.421875 C 17 65.359375 17.691406 60.386719 19.371094 55.585938 C 19.757812 54.488281 19.765625 54.488281 20.609375 55.335938 "/>
<path style=" stroke:none;fill-rule:nonzero;fill:rgb(99.607843%,99.607843%,99.607843%);fill-opacity:1;" d="M 130.089844 38.75 C 126.070312 33.605469 121.574219 28.90625 116.578125 24.699219 C 106.8125 16.472656 95.867188 10.523438 83.3125 7.742188 C 75.433594 6 67.515625 5.675781 59.578125 7.378906 C 55.875 8.171875 52.347656 9.441406 49.0625 11.34375 C 48.925781 11.421875 48.777344 11.488281 48.636719 11.558594 C 48.535156 11.570312 48.519531 11.539062 48.582031 11.460938 C 50.714844 9.609375 53.136719 8.203125 55.667969 6.984375 C 61.585938 4.140625 67.847656 2.917969 74.390625 3.070312 C 82.121094 3.253906 89.386719 5.289062 96.320312 8.617188 C 104.039062 12.320312 110.757812 17.421875 116.953125 23.261719 C 121.71875 27.753906 126.117188 32.5625 129.804688 37.988281 C 129.945312 38.195312 130.074219 38.410156 130.207031 38.621094 C 130.277344 38.765625 130.203125 38.777344 130.089844 38.75 "/>
<path style=" stroke:none;fill-rule:nonzero;fill:rgb(100%,87.058824%,59.607843%);fill-opacity:1;" d="M 126.933594 112.980469 C 127.066406 111.632812 127.191406 110.386719 127.304688 109.140625 C 127.335938 108.785156 127.542969 108.507812 127.671875 108.195312 C 129.347656 104.0625 130.078125 99.710938 130.597656 95.316406 C 130.628906 95.070312 130.53125 94.769531 131.003906 94.824219 C 132.394531 94.980469 133.765625 95.203125 135.035156 95.828125 C 137.464844 97.023438 138.324219 99.195312 138.253906 101.6875 C 138.171875 104.546875 136.867188 106.808594 134.78125 108.707031 C 132.519531 110.761719 129.863281 112.050781 126.933594 112.980469 "/>
<path style=" stroke:none;fill-rule:nonzero;fill:rgb(99.607843%,99.607843%,99.607843%);fill-opacity:1;" d="M 15.078125 24.65625 C 14.851562 24.980469 14.472656 25.117188 14.179688 25.359375 C 11.792969 27.28125 11.148438 29.820312 11.597656 32.714844 C 12.121094 36.101562 13.726562 39.039062 15.589844 41.84375 C 19.035156 47.035156 23.316406 51.496094 27.914062 55.667969 C 30.234375 57.773438 32.664062 59.746094 35.136719 61.667969 C 35.164062 61.78125 35.152344 61.855469 35.007812 61.785156 C 31.214844 59.441406 27.628906 56.808594 24.1875 53.984375 C 19.863281 50.441406 15.808594 46.628906 12.417969 42.167969 C 10.578125 39.75 8.890625 37.234375 8.023438 34.273438 C 7.679688 33.105469 7.535156 31.914062 7.644531 30.695312 C 7.789062 29.125 8.5 27.898438 9.746094 26.9375 C 11.164062 25.847656 12.765625 25.167969 14.46875 24.691406 C 14.660156 24.636719 14.875 24.664062 15.078125 24.65625 "/>
<path style=" stroke:none;fill-rule:nonzero;fill:rgb(99.607843%,99.607843%,99.607843%);fill-opacity:1;" d="M 11.53125 46.296875 C 11.464844 46.945312 11.109375 47.488281 10.871094 48.074219 C 8.234375 54.523438 6.144531 61.128906 5.097656 68.027344 C 3.644531 77.632812 3.75 87.183594 6.296875 96.628906 C 6.316406 96.695312 6.3125 96.765625 6.320312 96.832031 C 6.382812 96.964844 6.324219 97.003906 6.195312 96.996094 C 4.992188 93.328125 4.128906 89.578125 3.582031 85.757812 C 3.027344 81.890625 2.800781 78 2.886719 74.089844 C 3.023438 67.734375 4.113281 61.539062 5.949219 55.460938 C 7.074219 51.738281 8.394531 48.089844 9.972656 44.441406 C 10.515625 45.089844 11.023438 45.691406 11.53125 46.296875 "/>
<path style=" stroke:none;fill-rule:nonzero;fill:rgb(99.607843%,99.607843%,99.607843%);fill-opacity:1;" d="M 89.984375 136.644531 C 89.75 136.976562 89.355469 136.878906 89.042969 136.972656 C 87.722656 137.363281 86.453125 137.886719 85.246094 138.527344 C 81.546875 140.480469 77.574219 141.839844 73.851562 143.738281 C 72.238281 144.558594 70.710938 145.503906 69.339844 146.691406 C 67.132812 148.605469 65.910156 151.070312 65.230469 153.863281 C 64.082031 158.570312 63.046875 163.300781 61.785156 167.980469 C 61.742188 168.03125 61.695312 168.027344 61.644531 167.984375 C 61.945312 165.265625 62.242188 162.546875 62.546875 159.828125 C 62.765625 157.882812 62.925781 155.925781 63.121094 153.976562 C 63.558594 149.621094 65.816406 146.488281 69.414062 144.160156 C 72.167969 142.378906 75.171875 141.117188 78.195312 139.890625 C 81.019531 138.738281 83.777344 137.398438 86.761719 136.683594 C 87.824219 136.429688 88.90625 136.15625 89.984375 136.644531 "/>
<path style=" stroke:none;fill-rule:nonzero;fill:rgb(99.607843%,99.607843%,99.607843%);fill-opacity:1;" d="M 46.691406 10.269531 C 42.550781 11.363281 38.796875 13.277344 35.273438 15.660156 C 32.96875 17.21875 30.78125 18.925781 28.820312 20.90625 C 27.5 21.054688 26.203125 20.6875 24.800781 20.644531 C 25.484375 19.96875 26.152344 19.273438 26.859375 18.617188 C 30.832031 14.921875 35.214844 11.871094 40.398438 10.085938 C 42.652344 9.3125 44.964844 8.824219 47.355469 8.734375 C 47.644531 8.753906 47.992188 8.46875 48.203125 8.894531 C 47.699219 9.351562 47.195312 9.808594 46.691406 10.269531 "/>
<path style=" stroke:none;fill-rule:nonzero;fill:rgb(100%,87.058824%,59.607843%);fill-opacity:1;" d="M 16.722656 117.789062 C 18.464844 119.464844 20.132812 120.988281 21.84375 122.457031 C 21.945312 122.542969 22.039062 122.664062 22.082031 122.785156 C 22.835938 124.953125 23.730469 127.0625 24.777344 129.230469 C 22.199219 129.164062 19.964844 128.480469 18.421875 126.457031 C 16.492188 123.929688 15.953125 121.050781 16.722656 117.789062 "/>
<path style=" stroke:none;fill-rule:nonzero;fill:rgb(99.607843%,99.607843%,99.607843%);fill-opacity:1;" d="M 41.335938 44.65625 C 43.875 46.554688 46.386719 48.492188 48.996094 50.296875 C 56.917969 55.773438 65.289062 60.425781 74.253906 63.992188 C 74.359375 64.03125 74.460938 64.085938 74.5625 64.132812 C 74.582031 64.25 74.570312 64.332031 74.421875 64.257812 C 71.039062 63.308594 67.761719 62.058594 64.542969 60.671875 C 56.785156 57.324219 49.621094 53.027344 43.214844 47.496094 C 42.292969 46.699219 41.683594 45.785156 41.335938 44.65625 "/>
<path style=" stroke:none;fill-rule:nonzero;fill:rgb(100%,87.058824%,59.607843%);fill-opacity:1;" d="M 89.660156 157.9375 C 91.144531 156.320312 92.578125 154.714844 92.453125 152.34375 C 92.5 152.328125 92.558594 152.292969 92.578125 152.304688 C 93.75 153.265625 95.0625 153.976562 96.460938 154.558594 C 97.074219 154.8125 97.601562 155.226562 98.058594 155.714844 C 98.3125 155.988281 98.339844 156.253906 98.113281 156.566406 C 97.75 157.066406 97.324219 157.507812 96.824219 157.875 C 95.585938 158.773438 94.265625 159.539062 92.90625 160.230469 C 92.65625 160.359375 92.488281 160.417969 92.304688 160.105469 C 91.695312 159.074219 90.824219 158.339844 89.660156 157.9375 "/>
<path style=" stroke:none;fill-rule:nonzero;fill:rgb(99.607843%,99.607843%,99.607843%);fill-opacity:1;" d="M 113.71875 161.820312 C 110.671875 160.222656 107.347656 159.480469 104.042969 158.675781 C 103.132812 158.453125 102.226562 158.21875 101.316406 158.003906 C 101.113281 157.957031 100.90625 157.9375 100.785156 157.738281 C 101.027344 157.296875 100.800781 156.546875 101.253906 156.378906 C 101.636719 156.238281 102.199219 156.582031 102.683594 156.710938 C 105.320312 157.410156 107.953125 158.121094 110.457031 159.230469 C 111.757812 159.808594 112.953125 160.542969 113.875 161.652344 C 113.914062 161.789062 113.871094 161.851562 113.71875 161.820312 "/>
<path style=" stroke:none;fill-rule:nonzero;fill:rgb(50.196078%,43.921569%,29.019608%);fill-opacity:1;" d="M 85.160156 147.164062 C 85.726562 147.480469 86.390625 147.085938 86.957031 147.402344 C 86.371094 147.410156 85.785156 147.4375 85.199219 147.425781 C 84.835938 147.421875 84.945312 147.289062 85.160156 147.164062 "/>
<path style=" stroke:none;fill-rule:nonzero;fill:rgb(76.470588%,76.470588%,76.470588%);fill-opacity:1;" d="M 48.203125 8.894531 C 47.957031 8.640625 47.625 8.859375 47.355469 8.734375 C 47.636719 8.558594 47.957031 8.683594 48.253906 8.621094 C 48.332031 8.601562 48.453125 8.613281 48.398438 8.742188 C 48.371094 8.808594 48.269531 8.84375 48.203125 8.894531 "/>
<path style=" stroke:none;fill-rule:nonzero;fill:rgb(85.882353%,85.882353%,85.882353%);fill-opacity:1;" d="M 6.453125 97.25 C 6.617188 97.511719 6.664062 97.804688 6.714844 98.097656 C 6.261719 98.046875 6.476562 97.625 6.324219 97.40625 C 6.363281 97.351562 6.371094 97.269531 6.453125 97.25 "/>
<path style=" stroke:none;fill-rule:nonzero;fill:rgb(84.313725%,84.313725%,84.313725%);fill-opacity:1;" d="M 74.421875 64.257812 C 74.46875 64.21875 74.515625 64.175781 74.5625 64.132812 C 74.753906 64.238281 75.121094 64.105469 75.101562 64.511719 C 74.875 64.421875 74.613281 64.433594 74.421875 64.257812 "/>
<path style=" stroke:none;fill-rule:nonzero;fill:rgb(99.607843%,95.294118%,87.058824%);fill-opacity:1;" d="M 61.644531 167.984375 C 61.691406 167.984375 61.738281 167.980469 61.785156 167.980469 C 61.710938 168.261719 61.722656 168.574219 61.515625 168.8125 C 61.53125 168.53125 61.46875 168.238281 61.644531 167.984375 "/>
<path style=" stroke:none;fill-rule:nonzero;fill:rgb(83.137255%,83.137255%,83.137255%);fill-opacity:1;" d="M 130.089844 38.75 C 130.128906 38.707031 130.167969 38.664062 130.207031 38.621094 C 130.34375 38.800781 130.476562 38.980469 130.609375 39.160156 C 130.25 39.261719 130.21875 38.945312 130.089844 38.75 "/>
<path style=" stroke:none;fill-rule:nonzero;fill:rgb(74.901961%,74.901961%,74.901961%);fill-opacity:1;" d="M 48.582031 11.460938 C 48.632812 11.472656 48.652344 11.503906 48.636719 11.558594 C 48.476562 11.738281 48.304688 11.890625 48.050781 11.917969 C 48.132812 11.65625 48.335938 11.535156 48.582031 11.460938 "/>
<path style=" stroke:none;fill-rule:nonzero;fill:rgb(83.921569%,83.921569%,83.921569%);fill-opacity:1;" d="M 35.007812 61.785156 C 35.050781 61.746094 35.09375 61.707031 35.136719 61.667969 C 35.300781 61.789062 35.46875 61.910156 35.632812 62.03125 C 35.570312 62.109375 35.496094 62.121094 35.410156 62.0625 C 35.253906 62.003906 35.101562 61.933594 35.007812 61.785156 "/>
<path style=" stroke:none;fill-rule:nonzero;fill:rgb(90.588235%,93.333333%,96.078431%);fill-opacity:1;" d="M 113.71875 161.820312 C 113.773438 161.765625 113.824219 161.707031 113.875 161.652344 C 114.058594 161.761719 114.199219 161.910156 114.300781 162.101562 C 114.070312 162.085938 113.875 162 113.71875 161.820312 "/>
<path style=" stroke:none;fill-rule:nonzero;fill:rgb(77.647059%,77.647059%,77.647059%);fill-opacity:1;" d="M 35.410156 62.0625 C 35.484375 62.050781 35.558594 62.042969 35.632812 62.03125 C 35.804688 62.085938 35.941406 62.183594 36.027344 62.34375 C 35.753906 62.402344 35.59375 62.210938 35.410156 62.0625 "/>
<path style=" stroke:none;fill-rule:nonzero;fill:rgb(92.54902%,92.54902%,92.54902%);fill-opacity:1;" d="M 6.453125 97.25 C 6.410156 97.304688 6.367188 97.355469 6.324219 97.40625 C 6.28125 97.269531 6.238281 97.132812 6.195312 96.996094 C 6.238281 96.941406 6.277344 96.886719 6.320312 96.832031 C 6.449219 96.945312 6.449219 97.097656 6.453125 97.25 "/>
<path style=" stroke:none;fill-rule:nonzero;fill:rgb(99.607843%,99.607843%,99.607843%);fill-opacity:1;" d="M 49.011719 194.5625 C 50.070312 192.367188 51.128906 190.167969 52.1875 187.972656 C 53.425781 185.40625 54.667969 182.84375 55.972656 180.140625 C 56.144531 180.6875 56.273438 181.105469 56.398438 181.523438 C 56.453125 181.695312 56.492188 181.875 56.535156 182.050781 C 56.757812 182.957031 57.285156 183.921875 57.113281 184.742188 C 56.953125 185.539062 56.082031 186.195312 55.503906 186.902344 C 53.386719 189.5 51.265625 192.09375 49.144531 194.691406 C 49.019531 194.730469 48.960938 194.703125 49.011719 194.5625 "/>
<path style=" stroke:none;fill-rule:nonzero;fill:rgb(82.352941%,90.980392%,99.215686%);fill-opacity:1;" d="M 49.011719 194.5625 C 49.054688 194.605469 49.101562 194.648438 49.144531 194.691406 C 49.097656 194.84375 49.003906 194.960938 48.8125 195.054688 C 48.757812 194.824219 48.886719 194.695312 49.011719 194.5625 "/>
<path style=" stroke:none;fill-rule:nonzero;fill:rgb(0%,0%,0%);fill-opacity:1;" d="M 75.800781 95.230469 C 75.28125 95.136719 75.238281 94.667969 75.121094 94.300781 C 74.570312 92.566406 74.570312 90.789062 74.910156 89.023438 C 76.253906 82.070312 82.203125 76.484375 89.234375 75.476562 C 94.007812 74.792969 98.4375 75.585938 102.332031 78.527344 C 104.933594 80.492188 106.933594 82.902344 107.722656 86.199219 C 108.824219 90.820312 106.992188 94.96875 102.75 97.144531 C 100.425781 98.335938 97.960938 98.882812 95.34375 98.683594 C 95.054688 98.792969 94.765625 98.785156 94.46875 98.722656 C 90.90625 97.996094 88.488281 95.910156 87.125 92.582031 C 86.566406 91.214844 86.25 89.765625 86.25 88.308594 C 86.25 85.613281 86.996094 83.121094 88.855469 81.070312 C 89.75 80.085938 90.730469 79.195312 92.058594 78.644531 C 88.769531 78.765625 85.808594 79.664062 83.144531 81.472656 C 79.785156 83.753906 77.808594 86.976562 76.808594 90.847656 C 76.503906 92.019531 76.417969 93.230469 76.25 94.429688 C 76.207031 94.742188 76.253906 95.136719 75.800781 95.230469 "/>
<path style=" stroke:none;fill-rule:nonzero;fill:rgb(0%,0%,0%);fill-opacity:1;" d="M 24.855469 101.824219 C 24.0625 100.554688 24 99.109375 23.875 97.683594 C 24.023438 94.046875 25.152344 90.757812 27.707031 88.132812 C 32.207031 83.5 37.640625 82.019531 43.867188 83.917969 C 47.832031 85.128906 51.117188 87.363281 53.328125 90.9375 C 54.558594 92.929688 55.25 95.15625 55.140625 97.503906 C 54.960938 101.441406 52.695312 104.175781 48.84375 105.355469 C 47.261719 105.839844 45.65625 106.15625 43.992188 105.949219 C 43.6875 106.140625 43.375 106.050781 43.0625 105.980469 C 40.105469 105.296875 38.046875 103.527344 37.066406 100.6875 C 35.710938 96.773438 36.085938 93.042969 38.679688 89.667969 C 39.132812 89.085938 39.679688 88.605469 40.25 88.144531 C 40.820312 87.679688 41.460938 87.328125 42.140625 86.933594 C 41.078125 86.597656 40.003906 86.535156 38.960938 86.5625 C 35.546875 86.648438 32.679688 88.074219 30.273438 90.421875 C 28.515625 92.136719 27.558594 94.289062 27.097656 96.679688 C 26.855469 97.941406 26.796875 99.214844 26.667969 100.488281 C 26.617188 100.953125 26.636719 101.457031 26.203125 101.792969 C 25.765625 102.21875 25.316406 102.230469 24.855469 101.824219 "/>
<path style=" stroke:none;fill-rule:nonzero;fill:rgb(99.607843%,99.607843%,99.607843%);fill-opacity:1;" d="M 26.203125 101.792969 C 26.570312 100.789062 26.542969 99.730469 26.609375 98.6875 C 26.96875 92.75 30.695312 88.167969 36.417969 86.6875 C 38.5 86.148438 40.570312 86.308594 42.761719 86.878906 C 40.339844 87.945312 38.621094 89.5625 37.53125 91.828125 C 35.730469 95.566406 36.371094 100.71875 38.988281 103.519531 C 40.339844 104.972656 42.046875 105.703125 43.992188 105.949219 C 44.046875 105.984375 44.121094 106.011719 44.148438 106.0625 C 44.277344 106.289062 44.046875 106.175781 44.003906 106.183594 C 42.632812 106.527344 41.246094 106.792969 39.84375 106.953125 C 37.410156 107.234375 34.976562 107.320312 32.566406 106.730469 C 29.714844 106.027344 27.5 104.5 26.203125 101.792969 "/>
<path style=" stroke:none;fill-rule:nonzero;fill:rgb(99.607843%,99.607843%,99.607843%);fill-opacity:1;" d="M 75.800781 95.230469 C 76.226562 94.65625 76.121094 93.960938 76.1875 93.324219 C 76.921875 86.167969 81.582031 80.148438 89.523438 78.699219 C 90.503906 78.519531 91.496094 78.421875 92.679688 78.519531 C 90.164062 79.65625 88.40625 81.359375 87.355469 83.738281 C 86.300781 86.125 86.234375 88.589844 86.828125 91.097656 C 87.816406 95.269531 91.019531 98.117188 95.34375 98.683594 C 94.800781 99.09375 94.128906 99.023438 93.515625 99.109375 C 88.859375 99.75 84.21875 99.902344 79.65625 98.480469 C 78.519531 98.125 77.46875 97.582031 76.628906 96.691406 C 76.226562 96.261719 75.914062 95.808594 75.800781 95.230469 "/>
<path style=" stroke:none;fill-rule:nonzero;fill:rgb(0%,0%,0%);fill-opacity:1;" d="M 31.308594 72.355469 C 27.863281 72.289062 25.179688 73.742188 23.109375 76.425781 C 22.605469 77.074219 22.199219 77.796875 21.597656 78.371094 C 21.394531 78.566406 21.171875 78.746094 20.875 78.640625 C 20.589844 78.535156 20.589844 78.25 20.558594 78.007812 C 20.425781 76.96875 20.554688 75.953125 20.910156 74.976562 C 22.347656 71.070312 25.21875 68.851562 29.246094 68.09375 C 33.484375 67.300781 37.402344 68.355469 41.109375 70.363281 C 44.183594 72.027344 46.839844 74.183594 48.875 77.054688 C 49.179688 77.480469 49.441406 77.9375 49.628906 78.429688 C 49.734375 78.714844 49.839844 79.03125 49.625 79.269531 C 49.421875 79.503906 49.105469 79.378906 48.847656 79.308594 C 48.359375 79.171875 47.917969 78.929688 47.484375 78.683594 C 44.394531 76.917969 41.382812 75.023438 38.035156 73.753906 C 35.859375 72.925781 33.636719 72.371094 31.308594 72.355469 "/>
<path style=" stroke:none;fill-rule:nonzero;fill:rgb(0%,0%,0%);fill-opacity:1;" d="M 63.570312 129.28125 C 61.53125 129.277344 59.820312 129.238281 58.144531 128.796875 C 57.632812 128.664062 57.144531 128.484375 56.699219 128.195312 C 56.417969 128.011719 56.210938 127.777344 56.292969 127.402344 C 56.375 127.027344 56.648438 126.914062 56.992188 126.855469 C 58.082031 126.667969 59.183594 126.761719 60.277344 126.75 C 68.6875 126.664062 76.773438 124.964844 84.613281 122 C 85.144531 121.800781 85.671875 121.566406 86.246094 121.511719 C 86.53125 121.484375 86.804688 121.507812 86.976562 121.773438 C 87.164062 122.058594 87.085938 122.339844 86.917969 122.601562 C 86.511719 123.234375 85.917969 123.664062 85.292969 124.050781 C 82.839844 125.558594 80.117188 126.402344 77.375 127.203125 C 72.761719 128.550781 68.046875 129.175781 63.570312 129.28125 "/>
<path style=" stroke:none;fill-rule:nonzero;fill:rgb(0%,0%,0%);fill-opacity:1;" d="M 54.375 108.265625 C 54.367188 107.054688 54.695312 106.175781 55.441406 105.4375 C 56.230469 104.65625 57.074219 103.929688 58.070312 103.476562 C 59.925781 102.636719 60.539062 101.105469 60.699219 99.253906 C 60.726562 98.9375 60.769531 98.621094 60.816406 98.304688 C 60.859375 98.003906 60.917969 97.675781 61.265625 97.609375 C 61.589844 97.546875 61.808594 97.796875 61.992188 98.03125 C 62.648438 98.859375 62.847656 99.839844 62.867188 100.855469 C 62.910156 102.929688 62.03125 104.554688 60.363281 105.765625 C 59.625 106.300781 58.851562 106.789062 58.136719 107.359375 C 57.46875 107.894531 57.480469 108.042969 58.015625 108.691406 C 58.632812 109.4375 59.445312 109.96875 60.15625 110.609375 C 60.871094 111.253906 60.964844 111.773438 60.554688 112.472656 C 60.320312 112.875 59.972656 113.03125 59.527344 113.011719 C 57.683594 112.921875 55.007812 110.800781 54.492188 109.03125 C 54.398438 108.71875 54.371094 108.402344 54.375 108.265625 "/>
<path style=" stroke:none;fill-rule:nonzero;fill:rgb(99.607843%,99.607843%,99.607843%);fill-opacity:1;" d="M 97.628906 93.621094 C 97.636719 95.269531 96.113281 96.566406 94.167969 96.570312 C 92.515625 96.570312 91.257812 95.234375 91.21875 93.4375 C 91.179688 91.699219 92.59375 90.316406 94.414062 90.308594 C 96.179688 90.300781 97.617188 91.785156 97.628906 93.621094 "/>
<path style=" stroke:none;fill-rule:nonzero;fill:rgb(99.607843%,99.607843%,99.607843%);fill-opacity:1;" d="M 40.484375 101.367188 C 40.476562 99.640625 41.757812 98.289062 43.382812 98.300781 C 44.832031 98.316406 45.9375 99.609375 45.933594 101.285156 C 45.929688 102.957031 44.691406 104.125 42.921875 104.128906 C 41.425781 104.128906 40.488281 103.070312 40.484375 101.367188 "/>
</g>
</svg>
