<?xml version="1.0" encoding="UTF-8"?>
<svg xmlns="http://www.w3.org/2000/svg" xmlns:xlink="http://www.w3.org/1999/xlink" width="224pt" height="200pt" viewBox="0 0 224 200" version="1.1">
<defs>
<clipPath id="clip1">
  <path d="M 0.0117188 0.183594 L 223.898438 0.183594 L 223.898438 199.988281 L 0.0117188 199.988281 Z M 0.0117188 0.183594 "/>
</clipPath>
</defs>
<g id="surface1">
<path style=" stroke:none;fill-rule:nonzero;fill:rgb(85.882353%,65.490196%,43.529412%);fill-opacity:1;" d="M 217.949219 108.582031 C 217.9375 108.550781 217.921875 108.519531 217.90625 108.488281 C 217.890625 108.453125 217.875 108.421875 217.859375 108.390625 C 217.621094 108.609375 217.609375 108.929688 217.511719 109.210938 C 215.910156 113.980469 214.417969 118.800781 212.144531 123.304688 C 209.296875 128.945312 205.609375 133.949219 200.367188 137.617188 C 196.78125 140.125 192.722656 141.101562 188.390625 140.808594 C 186.363281 140.675781 184.664062 139.847656 184.082031 137.65625 C 183.886719 136.921875 183.519531 137.226562 183.136719 137.386719 C 180.128906 138.65625 177.019531 139.609375 173.828125 140.289062 C 173.273438 140.410156 172.71875 140.515625 172.164062 140.625 C 171.683594 140.671875 171.546875 140.3125 171.503906 139.964844 C 171.453125 139.570312 171.832031 139.457031 172.109375 139.324219 C 173.738281 138.535156 175.390625 137.808594 176.984375 136.945312 C 184.910156 132.664062 191.050781 126.574219 195.523438 118.765625 C 197.757812 114.859375 199.453125 110.722656 200.667969 106.390625 C 200.945312 105.402344 201.425781 104.925781 202.511719 104.875 C 206.300781 104.695312 209.316406 103.089844 211.003906 99.585938 C 212.230469 97.042969 212.546875 94.285156 212.242188 91.464844 C 212.015625 89.355469 211.636719 87.304688 210.371094 85.535156 C 209.125 83.800781 207.386719 82.976562 205.289062 82.851562 C 205.042969 82.835938 204.792969 82.839844 204.542969 82.847656 C 203.800781 82.863281 203.214844 82.742188 203.171875 81.789062 C 203.121094 80.636719 203.273438 80.363281 204.296875 80.136719 C 205.332031 79.910156 205.894531 79.257812 205.800781 78.402344 C 205.714844 77.660156 205.054688 77.082031 204.109375 77.101562 C 195.484375 77.28125 187.46875 74.671875 179.523438 71.738281 C 172.25 69.054688 165.277344 65.710938 158.425781 62.105469 C 153.984375 59.765625 149.945312 56.824219 146.203125 53.457031 C 138.101562 46.171875 132.078125 37.382812 127.320312 27.652344 C 127.085938 27.171875 126.925781 26.660156 126.675781 26.1875 C 126.253906 25.378906 125.566406 25.132812 124.710938 25.277344 C 123.925781 25.410156 123.695312 25.992188 123.679688 26.683594 C 123.660156 27.683594 122.933594 27.957031 122.183594 28.238281 C 117.953125 29.839844 113.921875 31.835938 110.15625 34.347656 C 102.84375 39.222656 97.117188 45.5625 92.785156 53.207031 C 88.234375 61.238281 85.695312 69.921875 84.277344 78.988281 C 84.132812 79.902344 84.121094 80.828125 83.972656 81.738281 C 83.851562 82.484375 83.46875 82.859375 82.679688 82.847656 C 78.160156 82.765625 76.015625 85.917969 75.363281 89.707031 C 74.988281 91.890625 75.003906 94.09375 75.363281 96.289062 C 76.214844 101.453125 79.621094 104.578125 84.824219 104.890625 C 85.726562 104.945312 86.148438 105.289062 86.378906 106.140625 C 87.554688 110.523438 89.320312 114.667969 91.503906 118.640625 C 92 119.542969 91.8125 119.921875 90.816406 120.128906 C 90.539062 120.1875 90.253906 120.195312 89.96875 120.195312 C 87.023438 120.199219 84.082031 120.199219 81.136719 120.191406 C 80.71875 120.191406 80.269531 120.261719 79.945312 119.886719 C 80.15625 119.472656 79.800781 119.253906 79.613281 118.984375 C 79.242188 118.441406 78.917969 117.863281 78.417969 117.417969 C 77.21875 115.84375 76.605469 113.976562 75.832031 112.195312 C 73.78125 107.464844 72.375 102.523438 71.164062 97.519531 C 71.097656 97.246094 71.039062 96.964844 71.070312 96.679688 C 71.164062 95.191406 71.070312 93.683594 70.886719 92.230469 C 70.507812 89.230469 70.863281 86.253906 71.046875 83.300781 C 71.335938 78.519531 72.042969 73.765625 73.0625 69.074219 C 74.59375 62.054688 76.214844 55.058594 78.757812 48.328125 C 81.191406 41.894531 84.632812 36.042969 89.242188 30.902344 C 93.453125 26.210938 97.996094 21.894531 103.171875 18.28125 C 106.210938 16.15625 109.476562 14.460938 112.984375 13.238281 C 113.679688 13.0625 114.394531 13.152344 115.101562 13.125 C 116.375 13.078125 116.941406 12.65625 117.125 11.402344 C 117.246094 10.59375 117.71875 10.167969 118.34375 9.777344 C 121.273438 7.953125 124.507812 6.890625 127.816406 6.046875 C 132.257812 4.917969 136.765625 4.226562 141.34375 3.902344 C 143.039062 3.78125 144.738281 3.789062 146.433594 3.566406 C 148.050781 3.355469 149.6875 3.671875 151.304688 3.808594 C 157.199219 4.304688 162.925781 5.648438 168.507812 7.597656 C 177.859375 10.867188 186.285156 15.746094 193.714844 22.332031 C 194.664062 23.175781 195.734375 23.902344 196.382812 25.046875 C 196.902344 30.960938 195.527344 36.121094 190.503906 39.824219 C 189.84375 40.308594 189.109375 40.664062 188.378906 41.027344 C 187.882812 41.273438 187.78125 41.5625 188.144531 42.023438 C 188.601562 42.613281 189.09375 43.175781 189.617188 43.703125 C 190.167969 44.257812 190.871094 44.109375 191.53125 44 C 195.355469 43.386719 198.910156 42.007812 202.273438 40.113281 C 203.386719 39.484375 204.464844 38.804688 205.53125 38.09375 C 205.910156 37.84375 206.28125 37.535156 206.796875 37.664062 C 207.484375 38.105469 207.816406 38.835938 208.21875 39.496094 C 212.898438 47.179688 216.203125 55.40625 217.933594 64.253906 C 219.078125 70.117188 219.726562 76.035156 220.199219 81.988281 C 220.390625 84.398438 220.472656 86.824219 220.480469 89.214844 C 220.488281 92.144531 220.453125 95.101562 220.113281 98.035156 C 219.746094 101.179688 219.273438 104.300781 218.621094 107.394531 C 218.527344 107.835938 218.605469 108.433594 217.949219 108.582031 "/>
<g clip-path="url(#clip1)" clip-rule="nonzero">
<path style=" stroke:none;fill-rule:nonzero;fill:rgb(43.137255%,25.490196%,0%);fill-opacity:1;" d="M 109.027344 139.167969 C 109.320312 138.613281 109.777344 138.425781 110.363281 138.636719 C 111.898438 139.191406 113.527344 139.351562 115.09375 139.78125 C 116.054688 140.128906 117.410156 140.21875 117.863281 140.90625 C 118.296875 141.558594 117.28125 142.632812 116.886719 143.511719 C 115.324219 146.957031 113.785156 150.410156 111.902344 153.976562 C 111.351562 151.859375 110.851562 149.953125 110.359375 148.042969 C 109.726562 145.574219 109.097656 143.101562 108.464844 140.632812 C 108.445312 140.0625 108.78125 139.632812 109.027344 139.167969 Z M 118.753906 178.546875 C 120.589844 177.15625 122.199219 175.511719 123.898438 173.660156 C 124.535156 177.871094 125.128906 181.859375 125.75 185.84375 C 125.839844 186.433594 125.625 186.527344 125.085938 186.554688 C 123.855469 186.625 122.550781 186.191406 121.425781 187.199219 C 121.195312 187.402344 120.566406 186.867188 120.433594 186.390625 C 119.789062 184.03125 119.175781 181.664062 118.554688 179.300781 C 118.480469 179.015625 118.46875 178.765625 118.753906 178.546875 Z M 164.09375 172.359375 C 164.585938 169.101562 165.078125 165.847656 165.589844 162.4375 C 168.226562 165.855469 170.730469 169.105469 173.316406 172.464844 C 170.289062 172.605469 167.398438 172.738281 164.511719 172.878906 C 164.101562 172.898438 164.042969 172.695312 164.09375 172.359375 Z M 221.453125 64.457031 C 216.015625 38.082031 201.089844 18.9375 176.867188 7.304688 C 166.328125 2.246094 155.140625 -0.40625 143.328125 0.296875 C 136.476562 0.703125 129.722656 1.640625 123.191406 3.828125 C 119.574219 5.042969 116.105469 6.542969 113.414062 9.394531 C 113.132812 9.695312 112.792969 9.714844 112.449219 9.738281 C 105.453125 10.21875 99.277344 12.882812 93.65625 16.9375 C 86.578125 22.035156 81.167969 28.648438 76.492188 35.945312 C 68.671875 48.140625 64.90625 61.480469 64.945312 75.957031 C 64.960938 81.8125 65.699219 87.574219 66.785156 93.304688 C 68.351562 101.589844 70.609375 109.660156 74.335938 117.265625 C 74.730469 118.070312 75.121094 118.882812 75.570312 119.8125 C 74.992188 119.8125 74.574219 119.8125 74.152344 119.8125 C 51.445312 119.8125 28.734375 119.8125 6.027344 119.816406 C 1.707031 119.816406 -0.847656 123.113281 0.257812 127.316406 C 5.515625 147.347656 10.777344 167.378906 16.085938 187.394531 C 17.023438 190.9375 19.464844 193.054688 23.03125 193.8125 C 24.707031 194.171875 26.425781 193.953125 28.125 193.953125 C 28.863281 193.953125 29.128906 194.050781 29.113281 194.910156 C 29.058594 197.738281 31.652344 200.003906 34.25 200 C 68.703125 199.921875 103.15625 199.941406 137.609375 199.964844 C 139.804688 199.964844 141.261719 198.945312 142.132812 197.070312 C 142.503906 196.269531 142.953125 196.125 143.730469 196.128906 C 161.722656 196.144531 179.710938 196.140625 197.699219 196.140625 C 198.019531 196.140625 198.34375 196.164062 198.65625 196.125 C 199.878906 195.980469 200.601562 194.726562 200.125 193.585938 C 199.71875 192.609375 198.914062 192.433594 197.949219 192.433594 C 187.519531 192.449219 177.085938 192.445312 166.65625 192.445312 C 166.285156 192.445312 165.914062 192.445312 165.542969 192.445312 C 166.742188 191.636719 167.503906 190.398438 169.1875 190.304688 C 173.789062 190.058594 178.339844 189.308594 182.820312 188.1875 C 186.367188 187.300781 189.847656 186.214844 192.859375 184.035156 C 196.433594 181.449219 197.308594 178.207031 195.617188 174.136719 C 194.757812 172.066406 193.617188 170.144531 192.421875 168.261719 C 188.289062 161.746094 183.527344 155.6875 178.859375 149.5625 C 176.601562 146.601562 174.199219 143.753906 172.164062 140.625 C 171.402344 140.039062 171.6875 139.796875 172.4375 139.476562 C 180.070312 136.203125 186.621094 131.472656 191.761719 124.886719 C 196.03125 119.417969 199.007812 113.285156 200.882812 106.617188 C 201.167969 105.59375 201.527344 105.175781 202.703125 105.121094 C 207.5625 104.902344 210.859375 102.152344 212.085938 97.453125 C 212.851562 94.507812 212.796875 91.535156 212.074219 88.597656 C 211.472656 86.15625 210.210938 84.160156 207.785156 83.097656 C 206.648438 82.601562 205.46875 82.488281 204.253906 82.527344 C 203.957031 82.539062 203.625 82.640625 203.472656 82.191406 C 203.144531 81.222656 203.503906 80.589844 204.515625 80.429688 C 205.535156 80.269531 206.226562 79.402344 206.152344 78.386719 C 206.085938 77.527344 205.289062 76.78125 204.347656 76.757812 C 203.675781 76.742188 203.003906 76.808594 202.328125 76.800781 C 196.667969 76.75 191.257812 75.363281 185.910156 73.667969 C 177.074219 70.859375 168.660156 67.042969 160.40625 62.84375 C 154.773438 59.976562 149.636719 56.40625 145.058594 52.042969 C 138.96875 46.238281 134.039062 39.542969 129.984375 32.179688 C 128.855469 30.128906 127.832031 28.019531 126.828125 25.90625 C 126.386719 24.984375 125.609375 24.773438 124.691406 24.914062 C 123.886719 25.039062 123.316406 25.582031 123.386719 26.351562 C 123.484375 27.4375 122.902344 27.679688 122.074219 27.988281 C 114.25 30.890625 107.292969 35.191406 101.433594 41.167969 C 95.011719 47.714844 90.542969 55.476562 87.578125 64.132812 C 85.675781 69.6875 84.386719 75.386719 83.753906 81.226562 C 83.660156 82.078125 83.527344 82.570312 82.414062 82.566406 C 79.195312 82.546875 76.859375 84.332031 75.695312 87.355469 C 74.75 89.816406 74.722656 92.367188 74.871094 94.925781 C 75.230469 101.070312 78.972656 104.808594 85.089844 105.171875 C 85.652344 105.207031 85.859375 105.382812 86.007812 105.921875 C 87.277344 110.488281 89.003906 114.871094 91.398438 118.972656 C 91.921875 119.871094 91.285156 119.828125 90.777344 119.835938 C 88.433594 119.859375 86.09375 119.871094 83.75 119.847656 C 82.488281 119.835938 81.21875 119.960938 79.960938 119.769531 C 79.710938 118.839844 79.148438 118.089844 78.566406 117.355469 C 75.113281 110.816406 72.917969 103.828125 71.269531 96.648438 C 71.210938 95.304688 71.003906 93.980469 70.753906 92.660156 C 69.914062 88.261719 69.183594 83.839844 69 79.363281 C 68.820312 74.855469 68.957031 70.347656 69.59375 65.863281 C 70.476562 59.667969 71.957031 53.636719 74.585938 47.953125 C 78.824219 38.78125 84.308594 30.460938 91.824219 23.609375 C 95.800781 19.984375 100.234375 17.121094 105.324219 15.292969 C 107.816406 14.398438 110.4375 14.148438 112.957031 13.441406 C 113.804688 13.425781 114.65625 13.414062 115.507812 13.390625 C 116.527344 13.363281 117.363281 12.824219 117.359375 11.855469 C 117.359375 10.71875 118 10.300781 118.773438 9.878906 C 119.675781 9.386719 120.570312 8.875 121.515625 8.480469 C 129.628906 5.105469 138.191406 4.164062 146.855469 3.90625 C 150.429688 3.800781 153.992188 4.253906 157.507812 4.9375 C 168.769531 7.136719 179.070312 11.554688 188.328125 18.359375 C 191.125 20.414062 193.855469 22.5625 196.214844 25.136719 C 196.460938 25.707031 196.90625 26.117188 197.335938 26.542969 C 200.492188 29.679688 203.285156 33.121094 205.785156 36.804688 C 206.019531 37.152344 206.191406 37.566406 206.621094 37.742188 C 206.816406 37.988281 207.039062 38.21875 207.207031 38.480469 C 211.648438 45.40625 214.859375 52.863281 216.867188 60.84375 C 218.082031 65.671875 218.703125 70.589844 219.292969 75.523438 C 219.863281 80.285156 220.15625 85.070312 220.167969 89.855469 C 220.179688 93.683594 220.027344 97.527344 219.390625 101.320312 C 218.980469 103.753906 218.773438 106.230469 217.949219 108.582031 C 215.6875 118.152344 211.382812 126.742188 205.539062 134.59375 C 204.984375 135.339844 204.308594 135.964844 203.578125 136.539062 C 202.503906 137.375 202.269531 138.5 202.957031 139.386719 C 203.640625 140.265625 204.808594 140.3125 205.882812 139.480469 C 206.300781 139.152344 206.695312 138.789062 207.085938 138.429688 C 208.773438 136.867188 209.914062 134.890625 211.1875 133.011719 C 219.394531 120.890625 223.375 107.421875 223.832031 92.863281 C 224.136719 83.3125 223.375 73.796875 221.453125 64.457031 "/>
</g>
<path style=" stroke:none;fill-rule:nonzero;fill:rgb(43.137255%,25.490196%,0%);fill-opacity:1;" d="M 41.84375 51.925781 C 39.84375 51.867188 37.558594 51.527344 35.761719 49.746094 C 32.746094 46.753906 33.199219 42.144531 36.96875 40.230469 C 42.035156 37.652344 47.269531 37.6875 52.375 40.28125 C 54.011719 41.113281 55.550781 42.144531 57.101562 43.132812 C 58.121094 43.78125 58.363281 44.894531 57.769531 45.800781 C 57.179688 46.699219 56.101562 46.902344 55.0625 46.261719 C 53.460938 45.28125 51.921875 44.199219 50.230469 43.382812 C 46.773438 41.710938 43.234375 41.839844 39.699219 43.035156 C 38.117188 43.570312 37.5 44.402344 37.574219 45.484375 C 37.652344 46.636719 38.671875 47.65625 40.140625 47.976562 C 42.65625 48.523438 45.058594 48.003906 47.414062 47.121094 C 49.066406 46.503906 50.417969 47.457031 50.179688 49.089844 C 50.0625 49.878906 49.546875 50.296875 48.839844 50.582031 C 46.714844 51.445312 44.507812 51.875 41.84375 51.925781 "/>
<path style=" stroke:none;fill-rule:nonzero;fill:rgb(43.137255%,25.490196%,0%);fill-opacity:1;" d="M 50.585938 24.808594 C 50.589844 20.953125 54.210938 18.167969 58.160156 19.007812 C 62.660156 19.964844 65.90625 24.839844 66.292969 28.683594 C 66.398438 29.722656 65.644531 30.574219 64.648438 30.691406 C 63.671875 30.808594 62.820312 30.1875 62.613281 29.082031 C 62.226562 27.011719 61.246094 25.296875 59.691406 23.902344 C 59.019531 23.300781 58.242188 22.871094 57.367188 22.664062 C 56.351562 22.417969 55.464844 22.679688 54.808594 23.523438 C 54.28125 24.203125 54.070312 24.84375 54.863281 25.558594 C 55.457031 26.09375 56.003906 26.71875 55.953125 27.65625 C 55.875 29.039062 54.398438 30.03125 53.320312 29.199219 C 51.914062 28.121094 50.4375 26.929688 50.585938 24.808594 "/>
<path style=" stroke:none;fill-rule:nonzero;fill:rgb(99.607843%,99.607843%,99.607843%);fill-opacity:1;" d="M 71.269531 96.648438 C 70.269531 91.933594 69.355469 87.203125 68.949219 82.398438 C 68.140625 72.890625 68.941406 63.523438 71.867188 54.414062 C 75.257812 43.84375 80.957031 34.605469 88.476562 26.5 C 93.007812 21.609375 98.222656 17.652344 104.527344 15.277344 C 107.25 14.25 110.054688 13.632812 112.957031 13.441406 C 111.605469 14.042969 110.238281 14.605469 108.910156 15.246094 C 103.777344 17.726562 99.402344 21.261719 95.261719 25.125 C 89.746094 30.265625 84.945312 35.949219 81.511719 42.734375 C 79.015625 47.675781 77.394531 52.914062 75.953125 58.226562 C 74.085938 65.113281 72.527344 72.066406 71.714844 79.160156 C 71.082031 84.671875 70.8125 90.199219 71.382812 95.738281 C 71.414062 96.042969 71.539062 96.375 71.269531 96.648438 "/>
<path style=" stroke:none;fill-rule:nonzero;fill:rgb(43.137255%,25.490196%,0%);fill-opacity:1;" d="M 204.9375 70.851562 C 204.921875 72.085938 203.867188 72.886719 202.59375 72.59375 C 198.8125 71.726562 195.234375 70.285156 191.753906 68.59375 C 184.308594 64.964844 177.628906 60.199219 171.445312 54.703125 C 164.730469 48.734375 158.804688 42.074219 153.882812 34.535156 C 153.707031 34.265625 153.523438 34.003906 153.367188 33.726562 C 152.789062 32.695312 152.988281 31.660156 153.863281 31.101562 C 154.808594 30.5 155.867188 30.726562 156.523438 31.746094 C 157.894531 33.863281 159.300781 35.957031 160.859375 37.941406 C 169.5625 49.015625 179.890625 58.1875 192.40625 64.75 C 195.832031 66.546875 199.421875 67.960938 203.183594 68.910156 C 204.378906 69.214844 204.949219 69.855469 204.9375 70.851562 "/>
<path style=" stroke:none;fill-rule:nonzero;fill:rgb(99.607843%,99.607843%,99.607843%);fill-opacity:1;" d="M 196.214844 25.136719 C 200.234375 28.882812 203.730469 33.058594 206.621094 37.742188 C 203.074219 40.109375 199.402344 42.226562 195.28125 43.4375 C 193.71875 43.898438 192.132812 44.261719 190.5 44.382812 C 189.996094 44.421875 189.644531 44.300781 189.324219 43.871094 C 188.816406 43.1875 188.257812 42.539062 187.667969 41.929688 C 187.242188 41.492188 187.164062 41.253906 187.808594 40.964844 C 193.769531 38.304688 196.148438 33.429688 196.238281 27.160156 C 196.246094 26.484375 196.222656 25.808594 196.214844 25.136719 "/>
<path style=" stroke:none;fill-rule:nonzero;fill:rgb(93.333333%,90.196078%,86.666667%);fill-opacity:1;" d="M 79.960938 119.769531 C 79.351562 119.046875 78.988281 118.183594 78.566406 117.355469 C 79.464844 117.820312 79.703125 118.800781 80.242188 119.546875 C 80.316406 119.648438 80.085938 119.726562 79.960938 119.769531 "/>
<path style=" stroke:none;fill-rule:nonzero;fill:rgb(99.607843%,97.254902%,91.764706%);fill-opacity:1;" d="M 87.863281 96.003906 C 87.054688 90.632812 86.878906 85.25 87.664062 79.871094 C 88.710938 72.714844 90.535156 65.769531 93.59375 59.1875 C 99.894531 45.632812 110.074219 36.328125 124.082031 31.207031 C 124.882812 30.917969 125.179688 31.0625 125.574219 31.824219 C 131.480469 43.1875 139.160156 53.085938 149.59375 60.667969 C 155.214844 64.75 161.472656 67.679688 167.742188 70.5625 C 175.601562 74.167969 183.636719 77.296875 192.085938 79.253906 C 194.296875 79.765625 196.53125 80.144531 198.789062 80.359375 C 199.414062 80.417969 199.585938 80.621094 199.648438 81.242188 C 200.105469 85.96875 199.957031 90.675781 199.371094 95.378906 C 198.714844 95.597656 198.605469 95.003906 198.390625 94.660156 C 197.429688 93.152344 196.332031 91.761719 194.945312 90.625 C 191.066406 87.457031 185.5625 87.058594 181.1875 89.703125 C 176.832031 92.335938 174.167969 96.261719 173.386719 101.25 C 172.433594 107.320312 175.640625 112.1875 181.074219 114.414062 C 183.964844 115.601562 186.980469 116.191406 190.128906 115.566406 C 191.039062 115.386719 191.917969 115.128906 192.761719 114.742188 C 193.035156 114.613281 193.414062 114.21875 193.675781 114.804688 C 189.371094 123.484375 182.890625 130.019531 174.308594 134.460938 C 167.28125 138.09375 159.738281 139.851562 151.925781 140.628906 C 144.15625 141.402344 136.425781 141.136719 128.742188 139.753906 C 120.628906 138.289062 113.0625 135.472656 106.382812 130.507812 C 105.808594 130.082031 105.433594 129.617188 105.292969 128.90625 C 105.121094 128.039062 104.875 127.183594 104.636719 126.332031 C 103.660156 122.839844 100.726562 120.304688 97.117188 119.875 C 96.496094 119.800781 96.105469 119.570312 95.777344 119.035156 C 94.285156 116.578125 92.871094 114.089844 91.878906 111.378906 C 92.074219 110.878906 92.390625 111.21875 92.589844 111.328125 C 93.652344 111.921875 94.824219 112.226562 95.960938 112.621094 C 97.949219 113.308594 100.007812 113.394531 102.058594 113.171875 C 104.082031 112.957031 105.839844 112.03125 107.355469 110.660156 C 110.183594 108.101562 112.238281 105.136719 112.429688 101.164062 C 112.457031 100.585938 112.351562 100.023438 112.238281 99.476562 C 111.421875 95.480469 109.660156 91.953125 106.285156 89.589844 C 101.777344 86.4375 96.171875 87.109375 92 90.859375 C 90.589844 92.128906 89.453125 93.621094 88.535156 95.28125 C 88.378906 95.566406 88.339844 96.003906 87.863281 96.003906 "/>
<path style=" stroke:none;fill-rule:nonzero;fill:rgb(83.921569%,83.921569%,83.921569%);fill-opacity:1;" d="M 51.117188 123.542969 C 66.015625 123.542969 80.914062 123.542969 95.8125 123.542969 C 98.472656 123.542969 100.398438 125.007812 101.082031 127.601562 C 106.316406 147.457031 111.546875 167.3125 116.777344 187.171875 C 117.34375 189.328125 116.597656 190.222656 114.222656 190.222656 C 99.359375 190.226562 84.496094 190.222656 69.632812 190.222656 C 54.945312 190.222656 40.257812 190.222656 25.574219 190.222656 C 21.945312 190.222656 20.363281 189.03125 19.429688 185.492188 C 14.253906 165.839844 9.085938 146.1875 3.921875 126.53125 C 3.382812 124.472656 4.101562 123.546875 6.207031 123.546875 C 21.175781 123.542969 36.148438 123.542969 51.117188 123.542969 "/>
<path style=" stroke:none;fill-rule:nonzero;fill:rgb(40.784314%,69.803922%,99.607843%);fill-opacity:1;" d="M 160.566406 170.777344 C 156.433594 167.074219 152.253906 163.914062 146.101562 165.65625 C 146.875 164.839844 147.15625 164.101562 147.0625 163.234375 C 146.964844 162.34375 146.496094 161.714844 145.71875 161.324219 C 144.4375 160.683594 142.894531 161.269531 142.339844 162.585938 C 141.707031 164.078125 142.507812 165.453125 144.464844 166.128906 C 140.878906 167.632812 137.972656 169.941406 135.699219 173.027344 C 132.867188 176.871094 131.894531 181.203125 132.5 185.90625 C 132.558594 186.386719 132.484375 186.546875 132 186.542969 C 131.367188 186.542969 130.722656 186.453125 130.105469 186.695312 C 129.601562 186.890625 129.617188 186.503906 129.570312 186.183594 C 129.003906 182.425781 128.421875 178.671875 127.875 174.914062 C 126.957031 168.625 126.113281 162.324219 125.402344 156.011719 C 124.933594 151.808594 124.535156 147.601562 124.316406 143.378906 C 124.28125 142.679688 124.550781 142.703125 125.054688 142.820312 C 127.433594 143.378906 129.839844 143.824219 132.269531 144.082031 C 132.941406 144.152344 133.414062 144.429688 133.816406 145.007812 C 135.605469 147.570312 137.4375 150.097656 139.269531 152.628906 C 140.359375 154.136719 141.695312 154.125 142.785156 152.617188 C 143.429688 151.726562 144.074219 150.832031 144.683594 149.917969 C 145.011719 149.425781 145.222656 149.492188 145.507812 149.941406 C 146.179688 150.988281 146.859375 152.027344 147.566406 153.046875 C 148.566406 154.496094 150.066406 154.464844 150.980469 152.953125 C 152.707031 150.097656 154.417969 147.234375 156.09375 144.351562 C 156.300781 143.996094 156.488281 143.851562 156.875 143.792969 C 159.183594 143.441406 161.480469 143.007812 163.734375 142.382812 C 164.421875 142.195312 164.511719 142.40625 164.429688 143.035156 C 163.195312 152.214844 162.003906 161.402344 160.566406 170.777344 "/>
<path style=" stroke:none;fill-rule:nonzero;fill:rgb(100%,83.529412%,72.941176%);fill-opacity:1;" d="M 193.675781 114.804688 C 193.511719 114.621094 193.355469 114.75 193.199219 114.816406 C 187.148438 117.375 181.636719 116.070312 176.832031 112.015625 C 173.355469 109.082031 172.289062 104.996094 173.234375 100.535156 C 174.257812 95.695312 176.871094 91.875 181.179688 89.386719 C 187.085938 85.976562 194.007812 87.726562 197.945312 93.480469 C 198.386719 94.128906 198.609375 94.964844 199.371094 95.378906 C 198.535156 102.167969 196.832031 108.699219 193.675781 114.804688 "/>
<path style=" stroke:none;fill-rule:nonzero;fill:rgb(99.607843%,99.607843%,99.607843%);fill-opacity:1;" d="M 165.5 176.554688 C 169.351562 176.34375 172.988281 176.183594 176.632812 176.234375 C 177.601562 176.246094 178.433594 176.042969 178.855469 175.117188 C 179.253906 174.246094 178.890625 173.496094 178.332031 172.765625 C 174.550781 167.839844 170.625 163.023438 167.015625 157.960938 C 166.472656 157.199219 166.375 156.484375 166.5 155.585938 C 167.074219 151.542969 167.582031 147.492188 168.117188 143.441406 C 168.175781 142.984375 168.25 142.53125 168.34375 141.886719 C 168.835938 142.566406 169.230469 143.121094 169.636719 143.667969 C 174.980469 150.839844 180.644531 157.773438 185.789062 165.097656 C 188.070312 168.347656 190.351562 171.605469 192.011719 175.238281 C 193.308594 178.066406 192.882812 179.558594 190.269531 181.265625 C 187.191406 183.28125 183.6875 184.191406 180.15625 184.972656 C 176.625 185.757812 173.046875 186.25 169.445312 186.585938 C 169.128906 186.613281 168.78125 186.824219 168.726562 186.199219 C 168.4375 182.796875 167.519531 179.585938 165.5 176.554688 "/>
<path style=" stroke:none;fill-rule:nonzero;fill:rgb(100%,83.529412%,72.941176%);fill-opacity:1;" d="M 87.863281 96.003906 C 89.675781 92.359375 92.203125 89.421875 96.132812 88.050781 C 100.375 86.574219 104.28125 87.277344 107.644531 90.359375 C 110.644531 93.109375 112.300781 96.632812 112.664062 100.617188 C 112.90625 103.273438 111.914062 105.742188 110.246094 107.910156 C 108.230469 110.523438 105.972656 112.777344 102.574219 113.367188 C 100.242188 113.769531 97.917969 113.597656 95.667969 112.828125 C 94.390625 112.390625 93.140625 111.863281 91.878906 111.378906 C 89.769531 106.457031 88.464844 101.320312 87.863281 96.003906 "/>
<path style=" stroke:none;fill-rule:nonzero;fill:rgb(99.607843%,97.254902%,91.764706%);fill-opacity:1;" d="M 154.066406 188.9375 C 153.972656 188.148438 154.242188 187.558594 154.394531 186.945312 C 154.535156 186.394531 154.695312 185.84375 154.765625 185.285156 C 154.902344 184.214844 154.367188 183.363281 153.46875 183.128906 C 152.480469 182.871094 151.597656 183.320312 151.183594 184.363281 C 150.671875 185.640625 149.875 186.632812 148.582031 187.15625 C 147.203125 187.707031 145.980469 186.890625 145.933594 185.398438 C 145.902344 184.300781 146.328125 183.316406 146.699219 182.320312 C 147 181.523438 147.363281 180.753906 147.640625 179.949219 C 147.941406 179.0625 147.804688 178.238281 146.992188 177.671875 C 146.195312 177.113281 145.394531 177.226562 144.644531 177.820312 C 143.378906 178.820312 142.378906 180.0625 141.382812 181.316406 C 140.742188 182.121094 140.097656 182.921875 139.433594 183.710938 C 138.953125 184.28125 138.417969 184.804688 137.769531 185.1875 C 136.484375 185.957031 136.109375 185.761719 135.996094 184.304688 C 135.453125 177.230469 141.726562 169.65625 148.726562 168.941406 C 150.324219 168.777344 151.847656 169.039062 153.21875 169.890625 C 157.390625 172.472656 160.800781 175.824219 163.246094 180.113281 C 164.351562 182.054688 164.808594 184.214844 164.988281 186.417969 C 165.070312 187.394531 164.878906 188.339844 163.847656 188.855469 C 162.789062 189.386719 161.921875 188.976562 161.117188 188.316406 C 160.652344 187.933594 160.296875 187.445312 159.984375 186.917969 C 159.273438 185.730469 158.128906 185.515625 157.019531 186.363281 C 156.515625 186.75 156.070312 187.214844 155.601562 187.648438 C 155.140625 188.070312 154.753906 188.585938 154.066406 188.9375 "/>
<path style=" stroke:none;fill-rule:nonzero;fill:rgb(83.921569%,83.921569%,83.921569%);fill-opacity:1;" d="M 73.359375 193.972656 C 86.445312 193.972656 99.53125 193.972656 112.617188 193.984375 C 113.003906 193.984375 113.609375 193.734375 113.75 194.203125 C 113.9375 194.828125 113.871094 195.535156 113.886719 196.210938 C 113.886719 196.253906 113.652344 196.335938 113.523438 196.34375 C 113.242188 196.367188 112.957031 196.355469 112.671875 196.355469 C 86.820312 196.355469 60.96875 196.355469 35.113281 196.355469 C 34.796875 196.355469 34.472656 196.375 34.160156 196.332031 C 33.320312 196.214844 32.789062 195.503906 32.851562 194.675781 C 32.925781 193.679688 33.675781 193.984375 34.210938 193.984375 C 47.261719 193.972656 60.308594 193.972656 73.359375 193.972656 "/>
<path style=" stroke:none;fill-rule:nonzero;fill:rgb(99.607843%,99.607843%,99.607843%);fill-opacity:1;" d="M 117.386719 174.800781 C 116.171875 170.1875 115.054688 165.71875 113.792969 161.296875 C 113.382812 159.855469 113.519531 158.714844 114.28125 157.417969 C 116.535156 153.558594 118.277344 149.4375 120.167969 145.390625 C 120.269531 145.179688 120.367188 144.964844 120.589844 144.480469 C 120.828125 147.226562 121.023438 149.671875 121.25 152.121094 C 121.730469 157.285156 122.382812 162.429688 123.097656 167.566406 C 123.199219 168.308594 123.0625 168.820312 122.578125 169.382812 C 120.976562 171.230469 119.441406 173.140625 117.386719 174.800781 "/>
<path style=" stroke:none;fill-rule:nonzero;fill:rgb(99.607843%,97.254902%,91.764706%);fill-opacity:1;" d="M 208.867188 92.929688 C 208.820312 94.753906 208.699219 96.527344 207.867188 98.15625 C 206.820312 100.214844 205.054688 101.160156 202.828125 101.378906 C 202.390625 101.421875 202.210938 101.363281 202.316406 100.816406 C 203.195312 96.199219 203.640625 91.539062 203.652344 86.835938 C 203.65625 86.363281 203.84375 86.25 204.277344 86.210938 C 205.886719 86.0625 207.199219 86.765625 207.957031 88.207031 C 208.746094 89.703125 208.78125 91.34375 208.867188 92.929688 "/>
<path style=" stroke:none;fill-rule:nonzero;fill:rgb(99.607843%,97.254902%,91.764706%);fill-opacity:1;" d="M 82.570312 86.21875 C 83.230469 86.09375 83.492188 86.347656 83.492188 87.128906 C 83.476562 91.683594 83.890625 96.207031 84.800781 100.671875 C 84.960938 101.453125 84.605469 101.402344 84.085938 101.339844 C 81.535156 101.035156 79.625 99.328125 78.9375 96.625 C 78.335938 94.246094 78.332031 91.835938 78.9375 89.453125 C 79.46875 87.359375 80.667969 86.308594 82.570312 86.21875 "/>
<path style=" stroke:none;fill-rule:nonzero;fill:rgb(83.921569%,83.921569%,83.921569%);fill-opacity:1;" d="M 128.25 196.355469 C 125.308594 196.355469 122.371094 196.359375 119.429688 196.351562 C 118.238281 196.351562 117.503906 195.777344 117.476562 194.859375 C 117.453125 193.914062 118.21875 193.300781 119.464844 193.300781 C 125.3125 193.296875 131.160156 193.296875 137.007812 193.300781 C 138.207031 193.300781 138.917969 193.859375 138.9375 194.792969 C 138.960938 195.761719 138.226562 196.351562 136.96875 196.351562 C 134.0625 196.359375 131.15625 196.355469 128.25 196.355469 "/>
<path style=" stroke:none;fill-rule:nonzero;fill:rgb(40.784314%,69.803922%,99.607843%);fill-opacity:1;" d="M 142.214844 186.25 C 143.175781 190.121094 146.238281 191.886719 149.777344 190.71875 C 150.355469 190.53125 150.574219 190.636719 150.847656 191.113281 C 151.101562 191.554688 151.472656 191.925781 151.886719 192.445312 C 148.703125 192.445312 145.636719 192.441406 142.574219 192.449219 C 142.300781 192.449219 142.09375 192.375 141.949219 192.132812 C 140.941406 190.457031 139.386719 189.675781 137.46875 189.417969 C 139.316406 188.824219 140.847656 187.796875 142.214844 186.25 "/>
<path style=" stroke:none;fill-rule:nonzero;fill:rgb(85.490196%,65.490196%,43.137255%);fill-opacity:1;" d="M 115.09375 139.78125 C 113.550781 139.871094 112.066406 139.535156 110.648438 139.003906 C 109.8125 138.691406 109.355469 138.753906 109.070312 139.644531 C 108.953125 140 108.671875 140.304688 108.464844 140.632812 C 107.890625 139.082031 107.574219 137.46875 107.074219 135.515625 C 109.804688 137.285156 112.476562 138.480469 115.09375 139.78125 "/>
<path style=" stroke:none;fill-rule:nonzero;fill:rgb(99.215686%,98.823529%,98.823529%);fill-opacity:1;" d="M 138.226562 144.765625 C 140.082031 144.765625 141.789062 144.765625 143.722656 144.765625 C 142.765625 146.128906 141.929688 147.324219 141.019531 148.621094 C 140.074219 147.3125 139.191406 146.09375 138.226562 144.765625 "/>
<path style=" stroke:none;fill-rule:nonzero;fill:rgb(99.215686%,99.215686%,99.215686%);fill-opacity:1;" d="M 151.707031 144.453125 C 150.839844 145.902344 150.050781 147.222656 149.175781 148.691406 C 148.28125 147.347656 147.464844 146.125 146.558594 144.765625 C 148.300781 144.660156 149.917969 144.5625 151.707031 144.453125 "/>
<path style=" stroke:none;fill-rule:nonzero;fill:rgb(43.137255%,25.490196%,0%);fill-opacity:1;" d="M 111.226562 88.324219 C 111.171875 86.761719 111.5 85.285156 112.230469 83.914062 C 112.46875 83.472656 112.402344 83.175781 112.148438 82.777344 C 111.382812 81.582031 111.058594 80.253906 111.039062 78.832031 C 111.027344 77.925781 111.433594 77.355469 112.296875 77.304688 C 113.183594 77.253906 113.625 77.855469 113.703125 78.714844 C 113.773438 79.492188 113.820312 80.265625 114.199219 80.980469 C 114.382812 81.328125 114.535156 81.550781 115.003906 81.414062 C 115.949219 81.140625 116.75 81.546875 117.460938 82.113281 C 120.554688 84.574219 121.121094 89.585938 118.667969 92.671875 C 116.839844 94.972656 113.851562 94.839844 112.222656 92.390625 C 111.53125 91.347656 111.226562 90.105469 111.226562 88.324219 "/>
<path style=" stroke:none;fill-rule:nonzero;fill:rgb(43.137255%,25.490196%,0%);fill-opacity:1;" d="M 172.578125 88.324219 C 172.613281 89.835938 172.34375 91.175781 171.5625 92.375 C 169.980469 94.800781 167.070312 94.976562 165.207031 92.769531 C 163.144531 90.324219 163 86.761719 164.957031 83.765625 C 165.421875 83.054688 165.402344 82.589844 165 81.902344 C 164.597656 81.207031 164.335938 80.417969 164.109375 79.640625 C 163.871094 78.828125 164.097656 78.109375 164.996094 77.886719 C 165.832031 77.675781 166.433594 78.015625 166.671875 78.910156 C 166.789062 79.351562 166.96875 79.78125 167.148438 80.203125 C 167.421875 80.855469 167.710938 81.351562 168.621094 81.414062 C 169.960938 81.503906 170.792969 82.519531 171.417969 83.628906 C 172.257812 85.109375 172.628906 86.71875 172.578125 88.324219 "/>
<path style=" stroke:none;fill-rule:nonzero;fill:rgb(43.137255%,25.490196%,0%);fill-opacity:1;" d="M 142.34375 121.1875 C 143.984375 121.222656 145.59375 121.585938 147.09375 122.378906 C 148.183594 122.957031 148.542969 123.902344 148.0625 124.828125 C 147.601562 125.710938 146.648438 125.960938 145.585938 125.460938 C 143.566406 124.507812 141.570312 124.15625 139.519531 125.433594 C 138.75 125.914062 137.753906 125.550781 137.304688 124.792969 C 136.851562 124.027344 137.023438 123.085938 137.792969 122.519531 C 139.125 121.527344 140.671875 121.214844 142.34375 121.1875 "/>
<path style=" stroke:none;fill-rule:nonzero;fill:rgb(43.137255%,25.490196%,0%);fill-opacity:1;" d="M 117.78125 50.039062 C 118.066406 50.0625 118.332031 50.121094 118.570312 50.300781 C 120.273438 51.582031 122.191406 52.519531 123.972656 53.675781 C 124.9375 54.304688 125.203125 55.0625 124.710938 55.78125 C 124.242188 56.464844 123.5 56.535156 122.5625 55.945312 C 120.730469 54.800781 118.792969 53.832031 117.066406 52.523438 C 116.542969 52.125 116.261719 51.621094 116.488281 50.949219 C 116.695312 50.339844 117.140625 50.046875 117.78125 50.039062 "/>
<path style=" stroke:none;fill-rule:nonzero;fill:rgb(43.137255%,25.490196%,0%);fill-opacity:1;" d="M 136.554688 94.675781 C 136.578125 93.683594 136.96875 93.144531 137.628906 92.867188 C 138.371094 92.554688 139.128906 92.632812 139.6875 93.246094 C 140.28125 93.898438 140.785156 94.636719 141.132812 95.457031 C 141.464844 96.234375 141.242188 96.933594 140.648438 97.480469 C 140.082031 98.007812 139.390625 98.109375 138.675781 97.816406 C 137.804688 97.457031 136.519531 95.382812 136.554688 94.675781 "/>
</g>
</svg>
