<?xml version="1.0" encoding="UTF-8"?>
<svg xmlns="http://www.w3.org/2000/svg" xmlns:xlink="http://www.w3.org/1999/xlink" width="169pt" height="200pt" viewBox="0 0 169 200" version="1.1">
<g id="surface1">
<path style=" stroke:none;fill-rule:nonzero;fill:rgb(97.254902%,82.352941%,70.980392%);fill-opacity:1;" d="M 163.523438 199.199219 L 146.929688 199.199219 L 146.929688 187.832031 L 165.742188 187.832031 L 163.523438 199.199219 "/>
<path style=" stroke:none;fill-rule:nonzero;fill:rgb(82.745098%,60%,52.156863%);fill-opacity:1;" d="M 150.617188 197.03125 L 151.753906 190.53125 L 165.0625 188.3125 L 164.308594 191.890625 L 150.617188 197.03125 "/>
<path style=" stroke:none;fill-rule:nonzero;fill:rgb(97.254902%,82.352941%,70.980392%);fill-opacity:1;" d="M 56.933594 170.972656 C 56.933594 170.972656 36.773438 177.8125 31.5625 174.921875 C 28.304688 172.445312 24.769531 164.8125 22.929688 158.109375 C 20.035156 147.5625 17.429688 133.398438 16.707031 130.078125 L 14.394531 122.417969 C 14.394531 122.417969 8.59375 117.480469 5.675781 113.566406 C 3.152344 110.171875 0.347656 105.933594 0.875 101.960938 C 1.402344 97.964844 4.195312 93.640625 7.855469 93.242188 C 7.855469 93.242188 9.066406 90.101562 11.550781 89.535156 C 11.550781 89.535156 12.074219 86.582031 16.089844 86.230469 C 16.089844 86.230469 17.425781 83.96875 20.050781 83.664062 C 22.679688 83.359375 25.515625 82.988281 27.210938 85.863281 C 29.261719 89.34375 29.371094 95.613281 29.371094 95.613281 C 29.371094 95.613281 32.316406 94.582031 33.164062 97.644531 C 34.292969 101.726562 34.539062 107.566406 31.746094 112.625 C 29.714844 116.296875 27.875 117.664062 27.875 117.664062 C 27.875 117.664062 37.542969 139.757812 42.027344 153.488281 C 42.027344 153.921875 45.210938 152.476562 45.210938 152.476562 L 56.933594 170.972656 "/>
<path style=" stroke:none;fill-rule:nonzero;fill:rgb(82.745098%,60%,52.156863%);fill-opacity:1;" d="M 42.941406 153.578125 C 42.941406 153.578125 48.347656 168.371094 52.785156 172.226562 L 57.222656 170.875 L 48.640625 151.429688 L 42.941406 153.578125 "/>
<path style=" stroke:none;fill-rule:nonzero;fill:rgb(83.137255%,92.941176%,95.686275%);fill-opacity:1;" d="M 75.597656 199.191406 L 149.726562 199.191406 L 151.65625 189.855469 C 151.75 189.898438 168.246094 186.097656 168.152344 185.90625 C 168.332031 179.230469 167.589844 174.203125 167.089844 169.914062 C 164.871094 150.839844 160.222656 142.035156 155.574219 140.695312 C 153.144531 139.996094 139.40625 135.640625 131.421875 132.488281 L 130.53125 127.421875 C 130.53125 127.421875 125.8125 125.449219 113.195312 125.449219 C 100.574219 125.449219 95.226562 127.421875 95.226562 127.421875 L 95.226562 132.15625 C 95.226562 132.15625 83.84375 133.542969 78.347656 135.132812 C 72.847656 136.722656 44.488281 147.707031 44.488281 147.707031 C 44.488281 147.707031 47.382812 157.820312 50.277344 162.445312 C 53.171875 167.070312 60.550781 174.007812 60.550781 174.007812 L 71.691406 172.5625 L 75.597656 199.191406 "/>
<path style=" stroke:none;fill-rule:nonzero;fill:rgb(97.254902%,82.352941%,70.980392%);fill-opacity:1;" d="M 120.542969 123.539062 C 120.542969 123.539062 121.078125 129.949219 121.019531 132.050781 L 112.824219 132.953125 L 105.082031 132.210938 C 105.109375 132.242188 105.351562 123.539062 105.351562 123.539062 "/>
<path style=" stroke:none;fill-rule:nonzero;fill:rgb(46.27451%,31.372549%,29.019608%);fill-opacity:1;" d="M 66.9375 72.34375 C 64.476562 65.457031 64.941406 61.503906 64.941406 61.503906 L 62.984375 65.238281 C 54.015625 30.316406 72.96875 23.988281 72.96875 23.988281 C 72.96875 23.988281 65.464844 21.675781 65.671875 14.304688 C 65.671875 14.304688 76.007812 16.761719 87.390625 10.113281 C 97.925781 3.960938 112.875 -0.246094 128 2.636719 C 141.648438 5.238281 144.304688 14.902344 144.304688 14.902344 C 144.304688 14.902344 157.859375 16.84375 162.96875 31.421875 C 168.464844 47.109375 163.835938 62.28125 163.835938 62.28125 L 162.425781 58.113281 C 162.425781 58.113281 162.121094 64.300781 158.625 72.511719 L 157.132812 76.703125 L 68.964844 78.628906 L 66.9375 72.34375 "/>
<path style=" stroke:none;fill-rule:nonzero;fill:rgb(74.509804%,58.823529%,52.156863%);fill-opacity:1;" d="M 67.132812 72.953125 L 68.964844 78.628906 L 71.640625 78.570312 L 67.183594 72.996094 C 67.171875 72.992188 67.148438 72.964844 67.132812 72.953125 Z M 162.96875 31.421875 C 157.859375 16.84375 144.304688 14.902344 144.304688 14.902344 C 144.304688 14.902344 141.648438 5.238281 128 2.636719 C 112.875 -0.246094 97.925781 3.960938 87.390625 10.113281 C 76.007812 16.761719 65.671875 14.304688 65.671875 14.304688 C 65.464844 21.675781 72.96875 23.988281 72.96875 23.988281 C 72.96875 23.988281 54.015625 30.316406 62.984375 65.238281 L 63.304688 64.628906 C 63.222656 64.269531 63.160156 63.917969 63.128906 63.601562 C 60.382812 32.386719 77.492188 24.097656 77.492188 24.097656 C 77.492188 24.097656 79.300781 18.386719 90.679688 11.738281 C 101.21875 5.589844 114.996094 2.515625 130.222656 4.835938 C 145.203125 7.117188 145.082031 19.425781 145.082031 19.425781 C 145.082031 19.425781 159.308594 22.179688 164.492188 36.839844 C 164.101562 35.054688 163.605469 33.242188 162.96875 31.421875 "/>
<path style=" stroke:none;fill-rule:nonzero;fill:rgb(97.254902%,82.352941%,70.980392%);fill-opacity:1;" d="M 77.019531 97.824219 C 64.722656 98.402344 59.222656 81.453125 63.566406 75.386719 C 66.695312 71.007812 73.019531 73.820312 74.203125 76.222656 "/>
<path style=" stroke:none;fill-rule:nonzero;fill:rgb(82.745098%,60%,52.156863%);fill-opacity:1;" d="M 73.929688 83.054688 C 75.089844 86.371094 76.585938 91.277344 74.308594 92.074219 C 72.039062 92.863281 69.253906 90.820312 68.09375 87.5 C 66.933594 84.179688 67.832031 80.847656 70.105469 80.054688 C 72.382812 79.261719 72.765625 79.738281 73.929688 83.054688 "/>
<path style=" stroke:none;fill-rule:nonzero;fill:rgb(97.254902%,82.352941%,70.980392%);fill-opacity:1;" d="M 149.367188 97.824219 C 161.664062 98.402344 167.164062 81.453125 162.824219 75.386719 C 159.691406 71.007812 153.367188 73.820312 152.183594 76.222656 "/>
<path style=" stroke:none;fill-rule:nonzero;fill:rgb(82.745098%,60%,52.156863%);fill-opacity:1;" d="M 105.601562 121.367188 L 120.300781 121.367188 L 120.460938 126.933594 C 120.460938 126.933594 113.925781 133.699219 105.253906 129.21875 L 105.464844 127.074219 L 105.601562 121.367188 "/>
<path style=" stroke:none;fill-rule:nonzero;fill:rgb(97.254902%,82.352941%,70.980392%);fill-opacity:1;" d="M 89.6875 36.964844 C 74.996094 40.605469 74.273438 65.238281 74.273438 65.238281 C 73.9375 78.367188 74.527344 100.933594 82.519531 109.527344 C 90.457031 118.0625 98.144531 122.246094 104.945312 124.269531 C 104.945312 124.269531 113.339844 127.0625 121.441406 124.269531 C 128.242188 122.246094 135.929688 118.0625 143.867188 109.527344 C 152.574219 100.164062 152.5 73.988281 152.007812 61.980469 C 151.863281 58.425781 149.90625 54.359375 149.054688 53.34375 C 136.632812 38.582031 136.667969 29.457031 136.667969 29.457031 L 134.921875 31.554688 C 131.71875 34.75 125.824219 37.933594 115.035156 39.515625 C 115.035156 39.515625 118.894531 26.414062 121.980469 24.101562 C 121.980469 24.101562 108.476562 41.25 86.484375 45.296875 C 86.484375 45.296875 87.175781 42.324219 88.96875 38.441406 L 89.6875 36.964844 "/>
<path style=" stroke:none;fill-rule:nonzero;fill:rgb(92.941176%,61.960784%,60%);fill-opacity:1;" d="M 94.515625 86.671875 C 94.515625 88.253906 90.945312 89.539062 86.542969 89.539062 C 82.136719 89.539062 78.570312 88.253906 78.570312 86.671875 C 78.570312 85.085938 82.136719 83.804688 86.542969 83.804688 C 90.945312 83.804688 94.515625 85.085938 94.515625 86.671875 "/>
<path style=" stroke:none;fill-rule:nonzero;fill:rgb(92.941176%,61.960784%,60%);fill-opacity:1;" d="M 148.558594 86.671875 C 148.558594 88.253906 144.992188 89.539062 140.585938 89.539062 C 136.183594 89.539062 132.613281 88.253906 132.613281 86.671875 C 132.613281 85.085938 136.183594 83.804688 140.585938 83.804688 C 144.992188 83.804688 148.558594 85.085938 148.558594 86.671875 "/>
<path style=" stroke:none;fill-rule:nonzero;fill:rgb(82.745098%,60%,52.156863%);fill-opacity:1;" d="M 152.457031 83.054688 C 151.300781 86.371094 149.804688 91.277344 152.074219 92.074219 C 154.351562 92.863281 157.132812 90.820312 158.292969 87.5 C 159.453125 84.179688 158.554688 80.847656 156.28125 80.054688 C 154.003906 79.261719 153.621094 79.738281 152.457031 83.054688 "/>
<path style=" stroke:none;fill-rule:nonzero;fill:rgb(74.509804%,58.823529%,52.156863%);fill-opacity:1;" d="M 106.304688 22.242188 C 106.304688 22.242188 92.753906 25.433594 87.199219 44.816406 L 91.789062 43.890625 C 91.789062 43.890625 96.335938 29.296875 106.304688 22.242188 "/>
<path style=" stroke:none;fill-rule:nonzero;fill:rgb(74.509804%,58.823529%,52.156863%);fill-opacity:1;" d="M 125.445312 22.511719 C 125.445312 22.511719 119.625 23.722656 115.75 39.132812 L 119.5625 38.503906 C 119.5625 38.503906 120.863281 27.714844 125.445312 22.511719 "/>
<path style=" stroke:none;fill-rule:nonzero;fill:rgb(100%,100%,99.607843%);fill-opacity:1;" d="M 102.09375 72.394531 C 102.09375 77.648438 98.828125 81.90625 94.792969 81.90625 C 90.761719 81.90625 87.488281 77.648438 87.488281 72.394531 C 87.488281 67.140625 90.761719 62.882812 94.792969 62.882812 C 98.828125 62.882812 102.09375 67.140625 102.09375 72.394531 "/>
<path style=" stroke:none;fill-rule:nonzero;fill:rgb(82.352941%,87.843137%,92.156863%);fill-opacity:1;" d="M 95.507812 66.042969 C 97.355469 66.042969 99.117188 66.378906 100.742188 66.96875 C 99.28125 64.84375 97.167969 63.496094 94.808594 63.496094 C 92.136719 63.496094 89.785156 65.207031 88.335938 67.824219 C 90.449219 66.699219 92.894531 66.042969 95.507812 66.042969 "/>
<path style=" stroke:none;fill-rule:nonzero;fill:rgb(100%,100%,99.607843%);fill-opacity:1;" d="M 124.050781 72.394531 C 124.050781 77.648438 127.320312 81.90625 131.351562 81.90625 C 135.386719 81.90625 138.65625 77.648438 138.65625 72.394531 C 138.65625 67.140625 135.386719 62.882812 131.351562 62.882812 C 127.320312 62.882812 124.050781 67.140625 124.050781 72.394531 "/>
<path style=" stroke:none;fill-rule:nonzero;fill:rgb(82.352941%,87.843137%,92.156863%);fill-opacity:1;" d="M 130.539062 66.042969 C 128.695312 66.042969 126.933594 66.378906 125.304688 66.96875 C 126.765625 64.84375 128.882812 63.496094 131.242188 63.496094 C 133.910156 63.496094 136.265625 65.207031 137.714844 67.824219 C 135.601562 66.699219 133.15625 66.042969 130.539062 66.042969 "/>
<path style=" stroke:none;fill-rule:nonzero;fill:rgb(68.235294%,85.098039%,91.764706%);fill-opacity:1;" d="M 112.066406 185.480469 C 98.179688 185.480469 84.457031 182.894531 72.414062 178.199219 C 72.355469 178.355469 75.597656 199.191406 75.597656 199.191406 L 149.726562 199.191406 L 151.753906 190.53125 C 151.753906 190.53125 156.753906 190.5625 161.300781 189.46875 C 164.90625 188.601562 168.289062 186.570312 168.246094 186.484375 C 168.085938 180.558594 167.847656 177.199219 167.476562 172.507812 C 152.429688 180.746094 130.808594 185.480469 112.066406 185.480469 "/>
<path style=" stroke:none;fill-rule:nonzero;fill:rgb(70.196078%,81.176471%,88.627451%);fill-opacity:1;" d="M 130.820312 128.328125 C 130.875 127.203125 124.21875 125.964844 120.609375 126.207031 L 121.152344 131.605469 C 121.152344 131.605469 130.714844 130.5625 130.820312 128.328125 "/>
<path style=" stroke:none;fill-rule:nonzero;fill:rgb(70.196078%,81.176471%,88.627451%);fill-opacity:1;" d="M 95.039062 128.011719 C 94.984375 126.886719 101.644531 125.648438 105.253906 125.890625 L 104.710938 131.292969 C 104.710938 131.292969 95.148438 130.246094 95.039062 128.011719 "/>
<path style="fill:none;stroke-width:8;stroke-linecap:round;stroke-linejoin:round;stroke:rgb(10.196078%,9.803922%,9.803922%);stroke-opacity:1;stroke-miterlimit:4;" d="M 437.554549 289.25127 C 425.422753 263.689844 377.874214 261.442871 376.051914 311.839258 M 539.299649 289.25127 C 551.414571 263.689844 598.96311 261.442871 600.785411 311.839258 " transform="matrix(0.231507,0,0,0.231214,0,0)"/>
<path style="fill:none;stroke-width:7;stroke-linecap:round;stroke-linejoin:round;stroke:rgb(10.196078%,9.803922%,9.803922%);stroke-opacity:1;stroke-miterlimit:4;" d="M 598.558155 96.738086 C 598.558155 96.738086 610.234375 154.24707 496.89742 170.905078 C 496.89742 170.905078 513.568094 114.24082 526.897883 104.239258 C 526.897883 104.239258 468.5674 178.40625 373.571561 195.908984 C 373.571561 195.908984 390.225361 124.242383 446.902274 98.410645 M 486.233589 367.456055 C 486.233589 367.456055 464.990292 375.785059 467.06569 385.786621 C 469.15796 395.788184 476.649639 407.039941 476.649639 407.039941 M 475.822855 328.7 C 475.822855 328.7 482.065921 357.032129 480.412352 369.534082 M 332.687916 423.089746 C 279.571237 425.590137 255.813841 352.284766 274.576784 326.047559 C 288.092178 307.108789 315.40981 319.272852 320.522374 329.662988 M 322.715884 362.455273 C 322.715884 362.455273 304.91471 326.047559 284.751294 343.12793 M 645.195544 423.089746 C 698.312223 425.590137 722.069619 352.284766 703.323548 326.047559 C 689.791281 307.108789 662.47365 319.272852 657.361085 329.662988 M 655.167576 362.455273 C 655.167576 362.455273 672.96875 326.047559 693.132165 343.12793 M 590.34093 127.40166 C 590.34093 127.40166 590.189072 166.867285 643.845692 230.711719 C 647.524038 235.104297 655.977487 252.691504 656.601794 268.065527 C 658.727811 319.999316 659.048401 433.20957 621.438147 473.705762 C 587.151905 510.620313 553.945544 528.714355 524.569388 537.465723 C 489.574473 549.545313 453.314072 537.465723 453.314072 537.465723 C 423.937916 528.714355 390.731555 510.620313 356.445312 473.705762 C 321.922846 436.537793 319.375 338.938086 320.826091 282.155566 C 320.826091 282.155566 323.947624 175.618652 387.407544 159.872949 M 285.021265 257.100977 C 278.120146 270.937598 272.062685 282.155566 272.062685 282.155566 C 233.32193 131.118457 315.190459 103.749316 315.190459 103.749316 C 315.190459 103.749316 282.777136 93.747754 283.671413 61.867773 C 283.671413 61.867773 328.31777 72.494434 377.486132 43.739941 C 422.99302 17.131055 487.566568 -1.064355 552.899408 11.403809 C 611.854197 22.655566 623.32794 64.452637 623.32794 64.452637 C 623.32794 64.452637 681.877774 72.849219 703.947855 135.899609 C 727.688378 203.748047 707.693695 269.366406 707.693695 269.366406 C 707.693695 269.366406 702.277413 252.607031 695.561899 234.648145 M 280.516134 266.004395 C 280.516134 266.004395 278.508229 283.10166 289.138314 312.886719 M 701.602487 251.339941 C 701.602487 251.339941 700.286381 278.100879 685.184911 313.613184 M 454.495192 538.411816 C 454.495192 538.411816 454.191476 561.287012 453.904632 568.348926 M 521.211631 538.546973 C 521.211631 538.546973 522.072162 560.932227 522.747088 568.146191 M 567.477811 572.944238 C 601.966531 586.578125 661.83247 604.469434 672.00698 608.507227 C 702.058062 620.417871 722.170858 673.111914 726.355399 807.372754 C 726.355399 807.372754 703.002959 822.375098 655.505039 824.047656 " transform="matrix(0.231507,0,0,0.231214,0,0)"/>
<path style="fill:none;stroke-width:6;stroke-linecap:round;stroke-linejoin:round;stroke:rgb(10.196078%,9.803922%,9.803922%);stroke-opacity:1;stroke-miterlimit:4;" d="M 686.112935 648.614844 L 647.017844 861.502832 " transform="matrix(0.231507,0,0,0.231214,0,0)"/>
<path style="fill:none;stroke-width:7;stroke-linecap:round;stroke-linejoin:round;stroke:rgb(10.196078%,9.803922%,9.803922%);stroke-opacity:1;stroke-miterlimit:4;" d="M 524.485022 543.767383 C 524.485022 543.767383 565.992973 545.642676 565.992973 554.30957 C 565.992973 561.557324 543.433571 573.62002 488.663323 573.95791 C 433.893075 573.62002 411.333672 561.557324 411.333672 554.30957 C 411.333672 545.642676 451.508645 543.767383 451.508645 543.767383 M 411.333672 555.306348 L 408.853319 582.219336 C 408.853319 593.285254 432.155141 611.666504 488.663323 612.207129 C 545.188378 611.666504 568.473327 593.285254 568.473327 582.219336 L 565.891734 557.536426 " transform="matrix(0.231507,0,0,0.231214,0,0)"/>
<path style=" stroke:none;fill-rule:nonzero;fill:rgb(10.196078%,9.803922%,9.803922%);fill-opacity:1;" d="M 100.957031 73.769531 C 100.957031 77.347656 98.941406 80.246094 96.453125 80.246094 C 93.96875 80.246094 91.953125 77.347656 91.953125 73.769531 C 91.953125 70.1875 93.96875 67.285156 96.453125 67.285156 C 98.941406 67.285156 100.957031 70.1875 100.957031 73.769531 "/>
<path style=" stroke:none;fill-rule:nonzero;fill:rgb(100%,100%,99.607843%);fill-opacity:1;" d="M 100.878906 71.597656 C 100.878906 72.332031 100.28125 72.925781 99.550781 72.925781 C 98.8125 72.925781 98.214844 72.332031 98.214844 71.597656 C 98.214844 70.863281 98.8125 70.269531 99.550781 70.269531 C 100.28125 70.269531 100.878906 70.863281 100.878906 71.597656 "/>
<path style=" stroke:none;fill-rule:nonzero;fill:rgb(10.196078%,9.803922%,9.803922%);fill-opacity:1;" d="M 125.191406 73.769531 C 125.191406 77.347656 127.207031 80.246094 129.691406 80.246094 C 132.179688 80.246094 134.195312 77.347656 134.195312 73.769531 C 134.195312 70.1875 132.179688 67.285156 129.691406 67.285156 C 127.207031 67.285156 125.191406 70.1875 125.191406 73.769531 "/>
<path style=" stroke:none;fill-rule:nonzero;fill:rgb(100%,100%,99.607843%);fill-opacity:1;" d="M 131.441406 71.597656 C 131.441406 72.332031 132.035156 72.925781 132.773438 72.925781 C 133.503906 72.925781 134.101562 72.332031 134.101562 71.597656 C 134.101562 70.863281 133.503906 70.269531 132.773438 70.269531 C 132.035156 70.269531 131.441406 70.863281 131.441406 71.597656 "/>
<path style=" stroke:none;fill-rule:nonzero;fill:rgb(10.196078%,9.803922%,9.803922%);fill-opacity:1;" d="M 102.113281 55.210938 C 101.636719 55.609375 100.375 54.816406 98.554688 53.710938 C 96.757812 52.625 94.25 51.253906 91.867188 51.597656 C 89.464844 51.882812 87.402344 53.8125 86.175781 55.335938 C 84.898438 56.886719 84.417969 58.058594 83.820312 58.113281 C 83.527344 58.128906 83.199219 57.746094 83.070312 56.984375 C 82.941406 56.230469 83.019531 55.140625 83.445312 53.90625 C 83.875 52.675781 84.640625 51.277344 85.914062 49.996094 C 87.164062 48.730469 89.042969 47.5625 91.304688 47.277344 C 93.566406 46.976562 95.675781 47.632812 97.191406 48.507812 C 98.734375 49.386719 99.824219 50.457031 100.605469 51.410156 C 102.15625 53.347656 102.558594 54.84375 102.113281 55.210938 "/>
<path style=" stroke:none;fill-rule:nonzero;fill:rgb(10.196078%,9.803922%,9.803922%);fill-opacity:1;" d="M 124.273438 55.210938 C 123.828125 54.84375 124.230469 53.347656 125.78125 51.410156 C 126.5625 50.457031 127.652344 49.386719 129.195312 48.507812 C 130.710938 47.632812 132.824219 46.976562 135.085938 47.277344 C 137.34375 47.5625 139.222656 48.730469 140.472656 49.996094 C 141.746094 51.277344 142.511719 52.675781 142.941406 53.90625 C 143.367188 55.140625 143.445312 56.230469 143.316406 56.984375 C 143.1875 57.746094 142.859375 58.128906 142.566406 58.113281 C 141.96875 58.058594 141.488281 56.886719 140.210938 55.335938 C 138.984375 53.8125 136.921875 51.882812 134.519531 51.597656 C 132.136719 51.253906 129.628906 52.625 127.832031 53.710938 C 126.011719 54.816406 124.75 55.609375 124.273438 55.210938 "/>
<path style=" stroke:none;fill-rule:nonzero;fill:rgb(10.196078%,9.803922%,9.803922%);fill-opacity:1;" d="M 102.113281 55.210938 C 101.636719 55.609375 100.375 54.816406 98.554688 53.710938 C 96.757812 52.625 94.25 51.253906 91.867188 51.597656 C 89.464844 51.882812 87.402344 53.8125 86.175781 55.335938 C 84.898438 56.886719 84.417969 58.058594 83.820312 58.113281 C 83.527344 58.128906 83.199219 57.746094 83.070312 56.984375 C 82.941406 56.230469 83.019531 55.140625 83.445312 53.90625 C 83.875 52.675781 84.640625 51.277344 85.914062 49.996094 C 87.164062 48.730469 89.042969 47.5625 91.304688 47.277344 C 93.566406 46.976562 95.675781 47.632812 97.191406 48.507812 C 98.734375 49.386719 99.824219 50.457031 100.605469 51.410156 C 102.15625 53.347656 102.558594 54.84375 102.113281 55.210938 "/>
<path style=" stroke:none;fill-rule:nonzero;fill:rgb(10.196078%,9.803922%,9.803922%);fill-opacity:1;" d="M 124.273438 55.210938 C 123.828125 54.84375 124.230469 53.347656 125.78125 51.410156 C 126.5625 50.457031 127.652344 49.386719 129.195312 48.507812 C 130.710938 47.632812 132.824219 46.976562 135.085938 47.277344 C 137.34375 47.5625 139.222656 48.730469 140.472656 49.996094 C 141.746094 51.277344 142.511719 52.675781 142.941406 53.90625 C 143.367188 55.140625 143.445312 56.230469 143.316406 56.984375 C 143.1875 57.746094 142.859375 58.128906 142.566406 58.113281 C 141.96875 58.058594 141.488281 56.886719 140.210938 55.335938 C 138.984375 53.8125 136.921875 51.882812 134.519531 51.597656 C 132.136719 51.253906 129.628906 52.625 127.832031 53.710938 C 126.011719 54.816406 124.75 55.609375 124.273438 55.210938 "/>
<path style="fill:none;stroke-width:5;stroke-linecap:round;stroke-linejoin:round;stroke:rgb(10.196078%,9.803922%,9.803922%);stroke-opacity:1;stroke-miterlimit:4;" d="M 547.651858 602.104199 C 547.651858 602.104199 610.301868 621.042969 621.471893 631.872363 L 599.941753 861.502832 M 611.516734 642.296289 C 611.516734 645.489355 608.935142 648.074219 605.729244 648.074219 C 602.523345 648.074219 599.941753 645.489355 599.941753 642.296289 C 599.941753 639.103223 602.523345 636.501465 605.729244 636.501465 C 608.935142 636.501465 611.516734 639.103223 611.516734 642.296289 Z M 611.516734 642.296289 " transform="matrix(0.231507,0,0,0.231214,0,0)"/>
<path style="fill-rule:nonzero;fill:rgb(100%,100%,99.607843%);fill-opacity:1;stroke-width:6;stroke-linecap:round;stroke-linejoin:round;stroke:rgb(10.196078%,9.803922%,9.803922%);stroke-opacity:1;stroke-miterlimit:4;" d="M 540.767613 702.99834 L 624.914016 702.99834 L 624.914016 754.239453 L 540.767613 754.239453 Z M 540.767613 702.99834 " transform="matrix(0.231507,0,0,0.231214,0,0)"/>
<path style="fill:none;stroke-width:7;stroke-linecap:round;stroke-linejoin:round;stroke:rgb(10.196078%,9.803922%,9.803922%);stroke-opacity:1;stroke-miterlimit:4;" d="M 299.751526 679.937305 L 325.921783 861.502832 " transform="matrix(0.231507,0,0,0.231214,0,0)"/>
<path style=" stroke:none;fill-rule:nonzero;fill:rgb(82.745098%,60%,52.156863%);fill-opacity:1;" d="M 12.714844 111.351562 C 16.011719 110.628906 19.246094 106.707031 20.09375 105.828125 C 20.941406 104.949219 21.347656 102.765625 21.347656 102.765625 L 24.40625 103.464844 C 24.40625 103.464844 23.324219 105.773438 22.5625 106.761719 C 21.800781 107.746094 21.8125 113.355469 21.8125 113.355469 C 21.8125 113.355469 15.410156 110.953125 12.714844 111.351562 "/>
<path style="fill:none;stroke-width:7;stroke-linecap:round;stroke-linejoin:round;stroke:rgb(10.196078%,9.803922%,9.803922%);stroke-opacity:1;stroke-miterlimit:4;" d="M 195.289848 659.461133 C 195.289848 659.461133 181.53823 665.712109 181.53823 663.836816 C 162.167853 604.452539 120.406805 508.89707 120.406805 508.89707 C 120.406805 508.89707 128.354059 502.983984 137.128097 487.103125 C 149.1924 465.224707 148.129392 439.967383 143.253051 422.312598 C 139.591577 409.067285 126.869222 413.527441 126.869222 413.527441 C 126.869222 413.527441 126.396773 386.411719 117.538369 371.358691 C 110.215422 358.924316 97.965514 360.529297 86.609884 361.84707 C 75.271126 363.164844 69.500509 372.946777 69.500509 372.946777 C 52.154909 374.467285 49.893907 387.239551 49.893907 387.239551 C 39.162583 389.689258 33.931906 403.272461 33.931906 403.272461 C 18.121764 404.995703 6.057461 423.697949 3.779586 440.981055 C 1.50171 458.162793 13.616633 476.493359 24.516688 491.174707 C 37.120932 508.103027 62.177561 529.457715 62.177561 529.457715 L 72.166466 562.587891 C 75.287999 576.948242 86.542391 638.207813 99.045396 683.823047 C 106.99265 712.814062 122.262851 745.825977 136.335059 756.537109 C 158.843842 769.039062 245.926174 739.456738 245.926174 739.456738 " transform="matrix(0.231507,0,0,0.231214,0,0)"/>
<path style="fill:none;stroke-width:6;stroke-linecap:round;stroke-linejoin:round;stroke:rgb(10.196078%,9.803922%,9.803922%);stroke-opacity:1;stroke-miterlimit:4;" d="M 34.927422 402.968359 C 34.927422 402.968359 53.403523 399.572559 58.887297 408.915234 C 63.274316 416.416406 82.492835 461.423438 73.41508 468.89082 C 64.354197 476.358203 52.947947 482.169922 44.308894 481.71377 C 35.652968 481.308301 32.480815 478.892383 37.32341 471.914941 C 42.182877 464.903711 50.332609 458.365527 50.332609 458.365527 C 50.332609 458.365527 39.888129 445.475 38.943232 437.129102 C 38.943232 437.129102 35.028661 446.201465 27.267012 451.742871 M 49.893907 387.239551 C 49.893907 387.239551 69.787352 384.114062 76.199149 392.544434 C 85.664987 405.029492 88.972125 422.025391 88.972125 422.025391 M 69.500509 372.946777 C 69.500509 372.946777 91.89118 368.875195 99.332239 379.130176 C 105.862149 388.134961 110.063563 416.09541 110.063563 416.09541 M 126.869222 413.527441 C 126.869222 413.527441 91.064395 416.940137 86.255547 425.539453 C 81.446699 434.13877 83.977672 446.083203 121.722911 447.45166 M 90.591947 443.396973 C 90.591947 443.396973 93.477256 463.957617 76.502866 466.593164 M 105.406574 449.022852 C 105.406574 449.022852 87.622273 470.884375 94.641503 488.066113 " transform="matrix(0.231507,0,0,0.231214,0,0)"/>
<path style="fill:none;stroke-width:7;stroke-linecap:round;stroke-linejoin:round;stroke:rgb(10.196078%,9.803922%,9.803922%);stroke-opacity:1;stroke-miterlimit:4;" d="M 408.414617 573.197656 C 379.038462 575.698047 362.789617 578.823535 322.42904 588.504102 C 289.863859 596.309375 224.42978 623.577148 191.881472 637.56582 C 191.881472 637.56582 202.174094 703.201074 260.926405 751.958691 L 307.175712 744.45752 " transform="matrix(0.231507,0,0,0.231214,0,0)"/>
<path style="fill:none;stroke-width:5;stroke-linecap:round;stroke-linejoin:round;stroke:rgb(10.196078%,9.803922%,9.803922%);stroke-opacity:1;stroke-miterlimit:4;" d="M 262.917437 707.458496 C 262.917437 707.458496 280.431768 731.989355 307.800018 736.33125 " transform="matrix(0.231507,0,0,0.231214,0,0)"/>
<path style="fill:none;stroke-width:7;stroke-linecap:round;stroke-linejoin:round;stroke:rgb(10.196078%,9.803922%,9.803922%);stroke-opacity:1;stroke-miterlimit:4;" d="M 181.53823 663.836816 L 186.549556 677.57207 M 416.868066 431.317383 C 431.699565 447.654395 464.619083 459.666406 488.292114 459.666406 L 487.819665 459.666406 C 511.475823 459.666406 544.39534 447.654395 559.243713 431.317383 " transform="matrix(0.231507,0,0,0.231214,0,0)"/>
<path style="fill:none;stroke-width:6;stroke-linecap:round;stroke-linejoin:round;stroke:rgb(10.196078%,9.803922%,9.803922%);stroke-opacity:1;stroke-miterlimit:4;" d="M 712.586908 814.451563 L 705.500185 861.502832 " transform="matrix(0.231507,0,0,0.231214,0,0)"/>
</g>
</svg>
