<?xml version="1.0" encoding="UTF-8"?>
<svg xmlns="http://www.w3.org/2000/svg" xmlns:xlink="http://www.w3.org/1999/xlink" width="229pt" height="200pt" viewBox="0 0 229 200" version="1.1">
<g id="surface1">
<path style="fill:none;stroke-width:6;stroke-linecap:round;stroke-linejoin:round;stroke:rgb(10.196078%,9.803922%,9.803922%);stroke-opacity:1;stroke-miterlimit:4;" d="M 227.345797 543.850684 L 208.724925 572.25166 L 190.104053 543.850684 " transform="matrix(0.26474,0,0,0.264901,0,0)"/>
<path style=" stroke:none;fill-rule:nonzero;fill:rgb(34.117647%,70.980392%,65.098039%);fill-opacity:1;" d="M 0.925781 199.074219 C 0.925781 199.074219 2.488281 173.414062 3.417969 162.738281 C 4.605469 149.050781 7.746094 147.679688 12.378906 144.523438 C 20.300781 139.128906 39.453125 133.621094 39.453125 133.621094 L 71.0625 133.621094 C 71.0625 133.621094 90.214844 139.128906 98.132812 144.523438 C 102.765625 147.679688 105.90625 149.050781 107.097656 162.738281 C 108.027344 173.414062 109.585938 199.074219 109.585938 199.074219 L 0.925781 199.074219 "/>
<path style=" stroke:none;fill-rule:nonzero;fill:rgb(55.294118%,80%,74.901961%);fill-opacity:1;" d="M 10.222656 150.015625 C 17.957031 143.777344 38.765625 138.480469 38.765625 138.480469 L 71.75 138.480469 C 71.75 138.480469 91.683594 144.066406 100 149.382812 C 103.792969 151.804688 104.820312 154.773438 106.351562 156.921875 C 104.742188 151.015625 104.785156 148.386719 98.132812 144.523438 C 89.847656 139.710938 71.0625 133.621094 71.0625 133.621094 L 39.453125 133.621094 C 39.453125 133.621094 20.300781 139.128906 12.378906 144.523438 C 8.992188 146.832031 4.582031 153.347656 3.695312 160.042969 C 4.210938 157.449219 8.117188 151.714844 10.222656 150.015625 "/>
<path style=" stroke:none;fill-rule:nonzero;fill:rgb(98.039216%,95.294118%,61.176471%);fill-opacity:1;" d="M 75.761719 135.25 C 73.578125 146.804688 59.539062 163.675781 55.257812 163.675781 C 50.976562 163.675781 36.9375 146.804688 34.753906 135.25 L 43.5625 131.941406 L 67.503906 132.328125 L 75.761719 135.25 "/>
<path style=" stroke:none;fill-rule:nonzero;fill:rgb(88.235294%,36.470588%,33.333333%);fill-opacity:1;" d="M 127.714844 199.074219 C 127.714844 199.074219 127.691406 185.519531 129.144531 174.015625 C 131.414062 156.035156 133.171875 151.496094 138.253906 148.566406 C 143.164062 145.738281 149.511719 143.386719 155.253906 141.609375 L 200.355469 141.726562 C 206.039062 143.460938 212.308594 145.761719 217.179688 148.566406 C 222.261719 151.496094 224.113281 156.035156 226.382812 174.015625 C 227.835938 185.519531 227.816406 199.074219 227.816406 199.074219 L 127.714844 199.074219 "/>
<path style=" stroke:none;fill-rule:nonzero;fill:rgb(93.72549%,65.098039%,62.352941%);fill-opacity:1;" d="M 137.011719 154.453125 C 141.9375 149.636719 151.539062 146.921875 156.863281 145.460938 L 198.890625 145.828125 C 204.652344 147.558594 212.355469 149.226562 216.945312 152.570312 C 221.753906 156.070312 225.453125 167.300781 225.453125 167.300781 C 225.453125 167.300781 223.621094 151.839844 217.179688 148.566406 C 212.167969 146.019531 206.039062 143.460938 200.355469 141.726562 L 155.253906 141.609375 C 149.511719 143.386719 143.125 145.667969 138.253906 148.566406 C 131.640625 152.511719 130.140625 166.859375 130.140625 166.859375 C 130.140625 166.859375 133.792969 157.601562 137.011719 154.453125 "/>
<path style=" stroke:none;fill-rule:nonzero;fill:rgb(86.666667%,24.313725%,27.058824%);fill-opacity:1;" d="M 172.492188 192.246094 C 154.957031 191.183594 136.535156 187.558594 128.929688 179.324219 C 128.242188 191.257812 127.714844 199.074219 127.714844 199.074219 L 227.816406 199.074219 C 227.816406 199.074219 227.226562 183.402344 225.300781 168.6875 C 218.363281 181.457031 197.628906 193.769531 172.492188 192.246094 "/>
<path style=" stroke:none;fill-rule:nonzero;fill:rgb(22.745098%,65.490196%,58.431373%);fill-opacity:1;" d="M 51.039062 187.828125 C 31.652344 186.921875 13.339844 183.414062 2.457031 176.578125 C 1.683594 185.886719 0.925781 199.074219 0.925781 199.074219 L 109.585938 199.074219 C 109.585938 199.074219 108.515625 181.609375 107.621094 171.511719 C 95.21875 181.113281 74.707031 188.929688 51.039062 187.828125 "/>
<path style=" stroke:none;fill-rule:nonzero;fill:rgb(100%,100%,99.607843%);fill-opacity:1;" d="M 197.023438 151.515625 C 191.847656 166.445312 182.054688 182.8125 177.925781 182.8125 C 174.355469 182.8125 163.964844 165.503906 158.695312 151.019531 L 197.023438 151.515625 "/>
<path style=" stroke:none;fill-rule:nonzero;fill:rgb(96.862745%,80%,68.627451%);fill-opacity:1;" d="M 170.835938 131.980469 C 170.835938 131.980469 170.859375 134.496094 170.554688 137.039062 L 170.203125 137.726562 C 170.203125 137.726562 162.789062 139.253906 154.714844 141.757812 L 159.550781 153.765625 C 159.550781 153.765625 174.597656 160.277344 195.847656 154.363281 L 200.355469 141.726562 C 192.246094 139.257812 185.324219 137.9375 185.324219 137.9375 L 184.621094 137.308594 C 184.28125 134.679688 184.3125 131.980469 184.3125 131.980469 "/>
<path style=" stroke:none;fill-rule:nonzero;fill:rgb(85.882353%,61.568627%,53.333333%);fill-opacity:1;" d="M 170.960938 131.488281 L 184.125 131.488281 L 184.1875 136.1875 C 184.1875 136.1875 179.667969 142.71875 170.511719 139.917969 L 170.960938 131.488281 "/>
<path style=" stroke:none;fill-rule:nonzero;fill:rgb(45.098039%,27.058824%,23.529412%);fill-opacity:1;" d="M 151.683594 119.34375 C 114.039062 92.3125 131.878906 42.757812 143.277344 30.328125 C 167.339844 4.101562 194.421875 19.359375 196.226562 25.441406 C 196.226562 25.441406 203 21.316406 212.035156 30.328125 C 221.066406 39.335938 245.148438 84.929688 203.625 119.34375 "/>
<path style=" stroke:none;fill-rule:nonzero;fill:rgb(79.215686%,62.352941%,55.294118%);fill-opacity:1;" d="M 146.835938 37.636719 C 167.886719 14.691406 190.40625 22.410156 197.132812 29.042969 C 204.074219 28.402344 209.855469 31.664062 214.742188 36.539062 C 216.871094 38.664062 219.832031 42.820312 222.578125 48.378906 C 219.261719 39.707031 214.890625 33.179688 212.035156 30.328125 C 203 21.316406 196.226562 25.441406 196.226562 25.441406 C 194.421875 19.359375 167.339844 4.101562 143.277344 30.328125 C 134.21875 40.203125 121.105469 73.503906 134.96875 100.332031 C 132.4375 93.300781 133.117188 82.066406 133.117188 81.898438 C 131.085938 63.761719 140.769531 44.25 146.835938 37.636719 "/>
<path style=" stroke:none;fill-rule:nonzero;fill:rgb(79.215686%,62.352941%,55.294118%);fill-opacity:1;" d="M 146.570312 33.855469 C 146.570312 33.855469 157.269531 42.949219 170.347656 43.503906 C 170.347656 43.503906 175.117188 45.539062 165.578125 46.109375 C 156.03125 46.679688 145.964844 45.3125 139.914062 41.539062 L 146.570312 33.855469 "/>
<path style=" stroke:none;fill-rule:nonzero;fill:rgb(96.862745%,80%,68.627451%);fill-opacity:1;" d="M 62.757812 124.4375 C 62.757812 124.4375 62.679688 129.527344 64.351562 131.636719 L 65.957031 136.355469 L 60.1875 144.066406 L 55.257812 151.589844 L 50.328125 144.066406 L 43.34375 138.785156 L 46.160156 131.636719 C 47.832031 129.527344 47.757812 124.4375 47.757812 124.4375 L 62.757812 124.4375 "/>
<path style=" stroke:none;fill-rule:nonzero;fill:rgb(85.882353%,61.568627%,53.333333%);fill-opacity:1;" d="M 48.207031 124.761719 L 62.027344 124.761719 L 62.929688 128.980469 C 62.929688 128.980469 55.519531 134.925781 45.546875 132.734375 L 48.207031 124.761719 "/>
<path style=" stroke:none;fill-rule:nonzero;fill:rgb(26.27451%,20.784314%,16.862745%);fill-opacity:1;" d="M 10.671875 67.746094 C 10.671875 67.746094 1.648438 32.605469 19.738281 19.691406 C 19.738281 19.691406 23.199219 13.609375 35.953125 6.390625 C 52.332031 -2.882812 75.003906 0.925781 78.476562 12.183594 C 78.476562 12.183594 88.558594 13.757812 94.96875 22.945312 C 101.089844 31.71875 103.296875 42.648438 100.261719 67.480469 L 97.835938 71.566406 L 13.121094 72.449219 L 10.671875 67.746094 "/>
<path style=" stroke:none;fill-rule:nonzero;fill:rgb(60%,52.156863%,46.666667%);fill-opacity:1;" d="M 21.539062 25.550781 C 21.539062 25.550781 25.003906 19.46875 37.753906 12.25 C 54.132812 2.976562 76.800781 6.785156 80.277344 18.042969 C 80.277344 18.042969 90.359375 19.617188 96.769531 28.804688 C 98.195312 30.847656 99.40625 33.011719 100.386719 35.4375 C 99.28125 30.402344 97.445312 26.496094 94.96875 22.945312 C 88.558594 13.757812 78.476562 12.183594 78.476562 12.183594 C 75.003906 0.925781 52.332031 -2.882812 35.953125 6.390625 C 23.199219 13.609375 19.738281 19.691406 19.738281 19.691406 C 1.648438 32.605469 10.671875 67.746094 10.671875 67.746094 L 11.636719 69.597656 C 9.898438 60.019531 7.183594 35.796875 21.539062 25.550781 "/>
<path style="fill:none;stroke-width:5;stroke-linecap:round;stroke-linejoin:round;stroke:rgb(10.196078%,9.803922%,9.803922%);stroke-opacity:1;stroke-miterlimit:4;" d="M 300.589861 514.048828 C 291.928647 559.275098 235.239748 632.076563 208.695415 632.076563 C 182.151081 632.076563 125.462183 559.275098 116.786214 514.048828 " transform="matrix(0.26474,0,0,0.264901,0,0)"/>
<path style="fill:none;stroke-width:7;stroke-linecap:round;stroke-linejoin:round;stroke:rgb(10.196078%,9.803922%,9.803922%);stroke-opacity:1;stroke-miterlimit:4;" d="M 286.675849 511.379785 C 278.368757 554.689062 224.970234 617.905566 208.695415 617.905566 C 192.405841 617.905566 139.007318 554.689062 130.700225 511.379785 M 180.395231 469.751562 C 180.395231 469.751562 180.675577 488.965723 174.360416 496.928613 M 237.054619 469.751562 C 237.054619 469.751562 236.759518 488.965723 243.074679 496.928613 " transform="matrix(0.26474,0,0,0.264901,0,0)"/>
<path style=" stroke:none;fill-rule:nonzero;fill:rgb(98.039216%,95.294118%,61.176471%);fill-opacity:1;" d="M 50.328125 144.066406 C 44.246094 134.675781 45.21875 129.085938 47.039062 127.5 C 47.039062 127.5 43.292969 127.175781 40.191406 132.894531 C 35.6875 141.207031 37.042969 149.972656 37.207031 153.621094 C 37.207031 153.621094 43.847656 142.796875 50.328125 144.066406 "/>
<path style="fill:none;stroke-width:7;stroke-linecap:round;stroke-linejoin:round;stroke:rgb(10.196078%,9.803922%,9.803922%);stroke-opacity:1;stroke-miterlimit:4;" d="M 190.104053 543.850684 C 167.130441 508.401074 170.804449 487.299414 177.680302 481.3125 C 177.680302 481.3125 163.530209 480.088574 151.8147 501.676855 C 134.802129 533.056543 139.922131 566.146777 140.541843 579.919629 C 140.541843 579.919629 165.625426 539.058203 190.104053 543.850684 Z M 190.104053 543.850684 " transform="matrix(0.26474,0,0,0.264901,0,0)"/>
<path style=" stroke:none;fill-rule:nonzero;fill:rgb(98.039216%,95.294118%,61.176471%);fill-opacity:1;" d="M 60.1875 144.066406 C 66.269531 134.675781 65.296875 129.085938 63.476562 127.5 C 63.476562 127.5 67.222656 127.175781 70.324219 132.894531 C 74.828125 141.207031 73.472656 149.972656 73.308594 153.621094 C 73.308594 153.621094 66.667969 142.796875 60.1875 144.066406 "/>
<path style="fill:none;stroke-width:7;stroke-linecap:round;stroke-linejoin:round;stroke:rgb(10.196078%,9.803922%,9.803922%);stroke-opacity:1;stroke-miterlimit:4;" d="M 227.345797 543.850684 C 250.319408 508.401074 246.645401 487.299414 239.769548 481.3125 C 239.769548 481.3125 253.91964 480.088574 265.635149 501.676855 C 282.647721 533.056543 277.527719 566.146777 276.908007 579.919629 C 276.908007 579.919629 251.824423 539.058203 227.345797 543.850684 Z M 227.345797 543.850684 L 208.724925 572.25166 L 190.104053 543.850684 M 149.025996 504.419629 C 149.025996 504.419629 76.68199 525.211621 46.758751 545.575977 C 29.259262 557.49082 17.396203 562.666699 12.910668 614.337012 C 9.398966 654.638086 3.496947 751.505176 3.496947 751.505176 M 268.423854 504.419629 C 268.423854 504.419629 340.76786 525.211621 370.676344 545.575977 C 388.175832 557.49082 400.038892 562.666699 404.539182 614.337012 C 408.050884 654.638086 413.938148 751.505176 413.938148 751.505176 M 58.931666 608.497559 C 60.185845 614.337012 71.635764 751.505176 71.635764 751.505176 M 358.518184 608.497559 C 357.264005 614.337012 345.799331 751.505176 345.799331 751.505176 M 646.035071 498.22627 C 646.035071 498.22627 647.082679 522.011719 642.464349 532.437207 M 695.44973 498.22627 C 695.44973 498.22627 694.549672 520.138965 698.622066 531.876855 M 697.028521 520.138965 C 697.028521 520.138965 775.702443 535.135742 820.351221 560.838184 C 839.54754 571.897754 845.139704 589.135937 853.727142 657.012207 C 859.201266 700.439453 860.52922 751.505176 860.52922 751.505176 M 643.821814 520.596094 C 643.821814 520.596094 567.228354 535.135742 522.59433 560.838184 C 503.383256 571.897754 497.776337 588.737793 489.203654 656.614062 C 483.714776 700.041309 482.416331 751.505176 482.416331 751.505176 " transform="matrix(0.26474,0,0,0.264901,0,0)"/>
<path style="fill:none;stroke-width:5;stroke-linecap:round;stroke-linejoin:round;stroke:rgb(10.196078%,9.803922%,9.803922%);stroke-opacity:1;stroke-miterlimit:4;" d="M 773.636736 541.565039 C 773.061289 543.113379 759.368603 580.244043 741.470729 618.436426 C 706.840628 692.388086 687.777105 703.875293 673.700788 705.379395 L 672.077733 705.556348 L 670.454677 705.379395 C 656.363605 703.875293 637.285327 692.329102 602.566696 617.964551 C 584.624556 579.550977 570.872851 542.228613 570.282649 540.665527 " transform="matrix(0.26474,0,0,0.264901,0,0)"/>
<path style="fill:none;stroke-width:7;stroke-linecap:round;stroke-linejoin:round;stroke:rgb(10.196078%,9.803922%,9.803922%);stroke-opacity:1;stroke-miterlimit:4;" d="M 759.235808 536.256445 C 759.235808 536.256445 703.874864 686.755078 672.077733 690.117188 C 640.280602 686.755078 584.683577 535.37168 584.683577 535.37168 " transform="matrix(0.26474,0,0,0.264901,0,0)"/>
<path style="fill:none;stroke-width:6;stroke-linecap:round;stroke-linejoin:round;stroke:rgb(10.196078%,9.803922%,9.803922%);stroke-opacity:1;stroke-miterlimit:4;" d="M 603.068368 580.376758 C 603.068368 580.376758 666.500324 607.450586 740.673956 581.733398 " transform="matrix(0.26474,0,0,0.264901,0,0)"/>
<path style="fill:none;stroke-width:7;stroke-linecap:round;stroke-linejoin:round;stroke:rgb(10.196078%,9.803922%,9.803922%);stroke-opacity:1;stroke-miterlimit:4;" d="M 527.109375 624.924707 L 535.800099 636.795313 L 547.161487 751.505176 M 816.647704 624.924707 L 807.145452 636.795313 L 795.356168 751.505176 " transform="matrix(0.26474,0,0,0.264901,0,0)"/>
<path style="fill-rule:nonzero;fill:rgb(96.862745%,80%,68.627451%);fill-opacity:1;stroke-width:7;stroke-linecap:round;stroke-linejoin:round;stroke:rgb(10.196078%,9.803922%,9.803922%);stroke-opacity:1;stroke-miterlimit:4;" d="M 359.285446 266.638867 C 359.285446 266.638867 390.079234 241.953906 401.647192 280.662402 C 414.926736 325.136621 370.395998 373.636523 350.181581 377.42627 " transform="matrix(0.26474,0,0,0.264901,0,0)"/>
<path style=" stroke:none;fill-rule:nonzero;fill:rgb(85.882353%,61.568627%,53.333333%);fill-opacity:1;" d="M 100.484375 85.753906 C 98.808594 89.566406 95.628906 91.859375 93.386719 90.871094 C 91.144531 89.886719 90.6875 85.992188 92.363281 82.175781 C 94.039062 78.363281 97.21875 76.074219 99.460938 77.0625 C 101.703125 78.046875 102.160156 81.9375 100.484375 85.753906 "/>
<path style="fill:none;stroke-width:7;stroke-linecap:round;stroke-linejoin:round;stroke:rgb(10.196078%,9.803922%,9.803922%);stroke-opacity:1;stroke-miterlimit:4;" d="M 388.308628 280.072559 C 388.308628 280.072559 371.960033 272.891211 359.285446 300.79082 " transform="matrix(0.26474,0,0,0.264901,0,0)"/>
<path style="fill-rule:nonzero;fill:rgb(96.862745%,80%,68.627451%);fill-opacity:1;stroke-width:7;stroke-linecap:round;stroke-linejoin:round;stroke:rgb(10.196078%,9.803922%,9.803922%);stroke-opacity:1;stroke-miterlimit:4;" d="M 58.164404 266.638867 C 58.164404 266.638867 27.370616 241.953906 15.802658 280.662402 C 2.508358 325.136621 47.053852 373.636523 67.253514 377.42627 " transform="matrix(0.26474,0,0,0.264901,0,0)"/>
<path style=" stroke:none;fill-rule:nonzero;fill:rgb(85.882353%,61.568627%,53.333333%);fill-opacity:1;" d="M 8.671875 85.53125 C 10.347656 89.34375 13.523438 91.636719 15.769531 90.652344 C 18.011719 89.664062 18.46875 85.773438 16.792969 81.957031 C 15.117188 78.144531 11.9375 75.851562 9.695312 76.839844 C 7.453125 77.828125 6.996094 81.714844 8.671875 85.53125 "/>
<path style="fill:none;stroke-width:7;stroke-linecap:round;stroke-linejoin:round;stroke:rgb(10.196078%,9.803922%,9.803922%);stroke-opacity:1;stroke-miterlimit:4;" d="M 29.141222 280.072559 C 29.141222 280.072559 45.489816 272.891211 58.164404 300.79082 " transform="matrix(0.26474,0,0,0.264901,0,0)"/>
<path style=" stroke:none;fill-rule:nonzero;fill:rgb(96.862745%,80%,68.627451%);fill-opacity:1;" d="M 88.261719 31.96875 C 98.375 59.574219 96.980469 98.835938 86.695312 112.847656 C 78.753906 123.664062 68.050781 128.742188 55.257812 128.742188 C 42.460938 128.742188 31.761719 123.664062 23.820312 112.847656 C 13.023438 98.144531 12.125 55.121094 23.929688 27.636719 L 24.15625 27.34375 C 34.199219 20.269531 49.519531 19.800781 49.519531 19.800781 C 49.519531 19.800781 39.992188 24.503906 41.367188 26.042969 C 42.792969 27.636719 51.921875 28.429688 60.332031 25.980469 C 72.464844 22.449219 75.5 17.398438 75.5 17.398438 C 75.5 17.398438 76.265625 27.824219 88.652344 32.140625 "/>
<path style="fill:none;stroke-width:7;stroke-linecap:round;stroke-linejoin:round;stroke:rgb(10.196078%,9.803922%,9.803922%);stroke-opacity:1;stroke-miterlimit:4;" d="M 333.390335 120.682031 C 371.591157 224.892676 366.323605 373.105664 327.47356 425.999902 C 297.476545 466.831836 257.047711 486.001758 208.724925 486.001758 C 160.387384 486.001758 119.973304 466.831836 89.97629 425.999902 C 49.193334 370.495605 45.799672 208.082129 90.389431 104.328613 L 91.245224 103.222656 C 129.180455 76.51748 187.049758 74.747949 187.049758 74.747949 C 187.049758 74.747949 151.062193 92.502246 156.25597 98.312207 C 161.641563 104.328613 196.124113 107.32207 227.891734 98.07627 C 273.720916 84.745801 285.18559 65.679102 285.18559 65.679102 C 285.18559 65.679102 288.077579 105.036426 334.86584 121.330859 M 199.060368 272.876465 C 199.060368 272.876465 202.852415 287.268652 200.314547 302.088477 M 206.895299 293.889648 C 206.895299 293.889648 191.609068 313.000586 191.225437 319.887012 C 190.841805 326.758691 203.796739 338.231152 203.796739 338.231152 " transform="matrix(0.26474,0,0,0.264901,0,0)"/>
<path style=" stroke:none;fill-rule:nonzero;fill:rgb(28.235294%,22.352941%,18.431373%);fill-opacity:1;" d="M 45.75 40.503906 C 45.734375 40.996094 43.066406 41.257812 40.089844 41.933594 C 38.601562 42.273438 37.046875 42.71875 35.707031 43.25 C 34.363281 43.78125 33.246094 44.390625 32.496094 44.855469 C 30.980469 45.777344 29.777344 46.761719 28.890625 47.554688 C 27.996094 48.339844 27.40625 48.910156 26.941406 48.796875 C 26.476562 48.691406 26.285156 47.632812 26.847656 46.210938 C 27.382812 44.789062 28.75 43.074219 30.6875 41.90625 C 31.644531 41.3125 33.085938 40.65625 34.714844 40.21875 C 36.347656 39.773438 38.148438 39.546875 39.796875 39.507812 C 43.105469 39.425781 45.769531 40.042969 45.75 40.503906 "/>
<path style="fill:none;stroke-width:5;stroke-linecap:butt;stroke-linejoin:miter;stroke:rgb(10.196078%,9.803922%,9.803922%);stroke-opacity:1;stroke-miterlimit:4;" d="M 172.811135 152.902246 C 172.752115 154.760254 162.674417 155.748242 151.431069 158.299316 C 145.809395 159.582227 139.936886 161.263281 134.875904 163.26875 C 129.800167 165.274219 125.580223 167.574609 122.747254 169.329395 C 117.022295 172.809473 112.477739 176.525488 109.128343 179.518945 C 105.749437 182.48291 103.521425 184.63584 101.765574 184.208203 C 100.009723 183.810059 99.286726 179.813867 101.411453 174.446289 C 103.432894 169.078711 108.597162 162.605176 115.915666 158.196094 C 119.530653 155.954688 124.975266 153.477344 131.128122 151.825781 C 137.295732 150.144727 144.09781 149.289453 150.324441 149.141992 C 162.821967 148.832324 172.884911 151.162207 172.811135 152.902246 Z M 172.811135 152.902246 " transform="matrix(0.26474,0,0,0.264901,0,0)"/>
<path style=" stroke:none;fill-rule:nonzero;fill:rgb(28.235294%,22.352941%,18.431373%);fill-opacity:1;" d="M 64.523438 39.855469 C 64.46875 39.398438 67.085938 38.601562 70.394531 38.453125 C 72.039062 38.378906 73.851562 38.484375 75.507812 38.816406 C 77.164062 39.136719 78.648438 39.691406 79.644531 40.21875 C 81.65625 41.25 83.140625 42.867188 83.773438 44.25 C 84.429688 45.632812 84.3125 46.699219 83.855469 46.835938 C 83.402344 46.984375 82.773438 46.457031 81.824219 45.734375 C 80.882812 45.003906 79.617188 44.101562 78.042969 43.289062 C 77.261719 42.875 76.105469 42.34375 74.726562 41.910156 C 73.355469 41.46875 71.773438 41.128906 70.265625 40.898438 C 67.25 40.425781 64.574219 40.347656 64.523438 39.855469 "/>
<path style="fill:none;stroke-width:5;stroke-linecap:butt;stroke-linejoin:miter;stroke:rgb(10.196078%,9.803922%,9.803922%);stroke-opacity:1;stroke-miterlimit:4;" d="M 243.723901 150.454395 C 243.517331 148.729102 253.403214 145.720898 265.90074 145.160547 C 272.112616 144.880371 278.958959 145.278516 285.2151 146.531934 C 291.47124 147.741113 297.078159 149.835059 300.840697 151.825781 C 308.439547 155.71875 314.046466 161.823633 316.436784 167.04375 C 318.915632 172.263867 318.47298 176.289551 316.74664 176.805664 C 315.035054 177.366016 312.659491 175.375293 309.074014 172.647266 C 305.518047 169.889746 300.737411 166.483398 294.791127 163.416211 C 291.840117 161.853125 287.472622 159.847656 282.26409 158.21084 C 277.085068 156.544531 271.109273 155.261621 265.413824 154.391602 C 254.022926 152.607324 243.915717 152.312402 243.723901 150.454395 Z M 243.723901 150.454395 " transform="matrix(0.26474,0,0,0.264901,0,0)"/>
<path style="fill:none;stroke-width:7;stroke-linecap:round;stroke-linejoin:round;stroke:rgb(10.196078%,9.803922%,9.803922%);stroke-opacity:1;stroke-miterlimit:4;" d="M 40.310794 255.741504 C 40.310794 255.741504 8.720234 123.085645 77.050867 74.335059 C 77.050867 74.335059 87.630237 51.375391 135.805472 24.124609 C 197.673393 -10.882617 283.311698 3.494824 296.428937 45.993066 C 296.428937 45.993066 332.844398 51.935742 357.057434 86.618555 C 380.178596 119.738281 390.182519 160.997852 378.717846 254.73877 M 58.931666 258.808691 L 79.249369 258.808691 M 357.677146 258.808691 L 337.374198 258.808691 " transform="matrix(0.26474,0,0,0.264901,0,0)"/>
<path style=" stroke:none;fill-rule:nonzero;fill:rgb(91.764706%,56.078431%,50.196078%);fill-opacity:1;" d="M 30.675781 75.976562 C 30.675781 77.929688 27.554688 79.511719 23.707031 79.511719 C 19.863281 79.511719 16.738281 77.929688 16.738281 75.976562 C 16.738281 74.023438 19.863281 72.441406 23.707031 72.441406 C 27.554688 72.441406 30.675781 74.023438 30.675781 75.976562 "/>
<path style=" stroke:none;fill-rule:nonzero;fill:rgb(91.764706%,56.078431%,50.196078%);fill-opacity:1;" d="M 91.785156 75.976562 C 91.785156 77.929688 88.667969 79.511719 84.820312 79.511719 C 80.972656 79.511719 77.851562 77.929688 77.851562 75.976562 C 77.851562 74.023438 80.972656 72.441406 84.820312 72.441406 C 88.667969 72.441406 91.785156 74.023438 91.785156 75.976562 "/>
<path style="fill:none;stroke-width:7;stroke-linecap:round;stroke-linejoin:round;stroke:rgb(10.196078%,9.803922%,9.803922%);stroke-opacity:1;stroke-miterlimit:4;" d="M 82.052828 110.580957 C 84.944818 107.941406 88.013868 105.493555 91.245224 103.222656 M 334.86584 121.330859 C 336.636446 121.950195 338.480827 122.525293 340.384228 123.085645 M 90.300901 227.871387 C 104.391973 212.181543 161.464503 207.949414 183.006874 226.544238 C 198.927572 240.302344 196.374949 267.803809 172.191423 288.728516 C 150.752337 307.293848 110.441543 311.555469 90.699287 286.546094 C 73.775246 265.12002 78.14274 241.393555 90.300901 227.871387 Z M 325.83575 227.871387 C 311.744678 212.181543 254.657393 207.949414 233.115021 226.544238 C 217.194323 240.302344 219.746947 267.803809 243.945227 288.728516 C 265.384314 307.293848 305.695108 311.555469 325.437364 286.546094 C 342.361405 265.12002 337.979155 241.393555 325.83575 227.871387 Z M 193.025553 249.371191 C 193.025553 249.371191 209.905329 241.305078 223.111098 252.305664 M 665.954387 687.890527 C 665.954387 687.890527 673.213871 692.417578 673.376177 705.807031 C 673.464707 711.970898 673.523727 751.505176 673.523727 751.505176 " transform="matrix(0.26474,0,0,0.264901,0,0)"/>
<path style=" stroke:none;fill-rule:nonzero;fill:rgb(100%,100%,99.607843%);fill-opacity:1;" d="M 175.734375 191.449219 C 175.734375 192.386719 174.964844 193.152344 174.027344 193.152344 C 173.085938 193.152344 172.320312 192.386719 172.320312 191.449219 C 172.320312 190.507812 173.085938 189.742188 174.027344 189.742188 C 174.964844 189.742188 175.734375 190.507812 175.734375 191.449219 "/>
<path style="fill:none;stroke-width:7;stroke-linecap:round;stroke-linejoin:round;stroke:rgb(10.196078%,9.803922%,9.803922%);stroke-opacity:1;stroke-miterlimit:4;" d="M 663.80015 722.720801 C 663.80015 726.259863 660.893405 729.150098 657.352194 729.150098 C 653.796227 729.150098 650.904237 726.259863 650.904237 722.720801 C 650.904237 719.166992 653.796227 716.276758 657.352194 716.276758 C 660.893405 716.276758 663.80015 719.166992 663.80015 722.720801 Z M 572.953313 450.522656 C 430.758904 348.479688 498.145214 161.410742 541.200447 114.488672 C 632.09155 15.483398 734.388305 73.081641 741.205138 96.041309 C 741.205138 96.041309 766.790393 80.469434 800.918822 114.488672 C 835.032495 148.493164 925.997373 320.60957 769.151201 450.522656 " transform="matrix(0.26474,0,0,0.264901,0,0)"/>
<path style="fill-rule:nonzero;fill:rgb(96.862745%,80%,68.627451%);fill-opacity:1;stroke-width:7;stroke-linecap:round;stroke-linejoin:round;stroke:rgb(10.196078%,9.803922%,9.803922%);stroke-opacity:1;stroke-miterlimit:4;" d="M 812.531045 321.582812 C 816.514909 317.630859 824.172779 306.64502 839.783621 309.078125 C 855.409218 311.540723 863.981902 336.24043 853.269736 364.007324 C 842.542815 391.788965 818.979002 406.41709 800.889312 406.41709 " transform="matrix(0.26474,0,0,0.264901,0,0)"/>
<path style="fill-rule:nonzero;fill:rgb(96.862745%,80%,68.627451%);fill-opacity:1;stroke-width:7;stroke-linecap:round;stroke-linejoin:round;stroke:rgb(10.196078%,9.803922%,9.803922%);stroke-opacity:1;stroke-miterlimit:4;" d="M 530.827647 321.391113 C 526.829029 317.424414 519.185914 306.438574 503.575072 308.87168 C 487.949475 311.319531 479.376791 336.033984 490.088957 363.800879 C 500.801122 391.567773 524.394446 406.210645 542.454626 406.210645 " transform="matrix(0.26474,0,0,0.264901,0,0)"/>
<path style=" stroke:none;fill-rule:nonzero;fill:rgb(85.882353%,61.568627%,53.333333%);fill-opacity:1;" d="M 220.863281 95.789062 C 219.507812 98.714844 216.941406 100.472656 215.128906 99.714844 C 213.320312 98.960938 212.949219 95.976562 214.300781 93.050781 C 215.65625 90.125 218.222656 88.367188 220.035156 89.125 C 221.84375 89.878906 222.214844 92.867188 220.863281 95.789062 "/>
<path style=" stroke:none;fill-rule:nonzero;fill:rgb(85.882353%,61.568627%,53.333333%);fill-opacity:1;" d="M 134.785156 95.789062 C 136.136719 98.714844 138.703125 100.472656 140.511719 99.714844 C 142.324219 98.960938 142.695312 95.976562 141.339844 93.050781 C 139.988281 90.125 137.417969 88.367188 135.609375 89.125 C 133.800781 89.878906 133.429688 92.867188 134.785156 95.789062 "/>
<path style="fill:none;stroke-width:7;stroke-linecap:round;stroke-linejoin:round;stroke:rgb(10.196078%,9.803922%,9.803922%);stroke-opacity:1;stroke-miterlimit:4;" d="M 811.099806 351.502637 C 811.099806 351.502637 824.276064 326.168848 838.736013 327.702441 M 532.052316 351.635352 C 532.052316 351.635352 518.876058 326.316309 504.416109 327.835156 " transform="matrix(0.26474,0,0,0.264901,0,0)"/>
<path style=" stroke:none;fill-rule:nonzero;fill:rgb(96.862745%,80%,68.627451%);fill-opacity:1;" d="M 140.042969 75.582031 C 138.089844 88.683594 142.066406 108.734375 149.3125 118.667969 C 157.015625 129.21875 171.421875 134.210938 177.632812 134.210938 C 183.847656 134.210938 198.253906 129.21875 205.953125 118.667969 C 213.203125 108.734375 217.179688 88.683594 215.226562 75.582031 C 213.273438 62.484375 194.246094 44.277344 191.808594 42.390625 C 191.808594 42.390625 171.375 47.601562 140.085938 75.582031 "/>
<path style="fill:none;stroke-width:7;stroke-linecap:round;stroke-linejoin:round;stroke:rgb(10.196078%,9.803922%,9.803922%);stroke-opacity:1;stroke-miterlimit:4;" d="M 528.983266 285.322168 C 521.605742 334.780566 536.626382 410.472266 563.996998 447.971582 C 593.093955 487.800781 647.510576 506.646289 670.971104 506.646289 C 694.446387 506.646289 748.863008 487.800781 777.94521 447.971582 C 805.330581 410.472266 820.351221 334.780566 812.973697 285.322168 C 805.596172 235.878516 733.724328 167.146973 724.517177 160.024609 C 724.517177 160.024609 647.333515 179.695898 529.145572 285.322168 M 608.21788 407.080664 C 608.21788 407.080664 630.409474 440.480566 670.897329 440.480566 C 711.399939 440.480566 733.576777 407.080664 733.576777 407.080664 M 134.418498 365.747363 C 134.418498 365.747363 160.741505 418.995508 208.724925 418.995508 C 256.7231 418.995508 283.001842 365.747363 283.001842 365.747363 M 670.897329 369.419141 L 670.897329 362.06084 M 709.806393 244.976855 C 709.806393 244.976855 738.077067 231.380957 758.940707 254.620801 M 631.973509 244.976855 C 631.973509 244.976855 603.71759 231.380957 582.839196 254.620801 " transform="matrix(0.26474,0,0,0.264901,0,0)"/>
<path style=" stroke:none;fill-rule:nonzero;fill:rgb(91.764706%,56.078431%,50.196078%);fill-opacity:1;" d="M 157.53125 92.445312 C 157.53125 94.457031 154.152344 96.082031 149.988281 96.082031 C 145.824219 96.082031 142.445312 94.457031 142.445312 92.445312 C 142.445312 90.441406 145.824219 88.816406 149.988281 88.816406 C 154.152344 88.816406 157.53125 90.441406 157.53125 92.445312 "/>
<path style=" stroke:none;fill-rule:nonzero;fill:rgb(91.764706%,56.078431%,50.196078%);fill-opacity:1;" d="M 212.839844 92.445312 C 212.839844 94.457031 209.460938 96.082031 205.296875 96.082031 C 201.132812 96.082031 197.753906 94.457031 197.753906 92.445312 C 197.753906 90.441406 201.132812 88.816406 205.296875 88.816406 C 209.460938 88.816406 212.839844 90.441406 212.839844 92.445312 "/>
<path style="fill:none;stroke-width:5;stroke-linecap:round;stroke-linejoin:round;stroke:rgb(10.196078%,9.803922%,9.803922%);stroke-opacity:1;stroke-miterlimit:4;" d="M 373.84868 642.502051 C 373.84868 642.502051 366.42689 667.245996 352.158758 676.536035 M 43.45362 642.502051 C 43.45362 642.502051 50.890164 667.245996 65.158297 676.536035 " transform="matrix(0.26474,0,0,0.264901,0,0)"/>
<path style=" stroke:none;fill-rule:nonzero;fill:rgb(100%,100%,99.607843%);fill-opacity:1;" d="M 170.019531 82.667969 C 170.019531 87.929688 166.234375 92.199219 161.5625 92.199219 C 156.886719 92.199219 153.101562 87.929688 153.101562 82.667969 C 153.101562 77.402344 156.886719 73.136719 161.5625 73.136719 C 166.234375 73.136719 170.019531 77.402344 170.019531 82.667969 "/>
<path style=" stroke:none;fill-rule:nonzero;fill:rgb(10.196078%,9.803922%,9.803922%);fill-opacity:1;" d="M 167.984375 83.152344 C 167.984375 86.363281 166 88.96875 163.550781 88.96875 C 161.101562 88.96875 159.117188 86.363281 159.117188 83.152344 C 159.117188 79.9375 161.101562 77.335938 163.550781 77.335938 C 166 77.335938 167.984375 79.9375 167.984375 83.152344 "/>
<path style=" stroke:none;fill-rule:nonzero;fill:rgb(84.705882%,91.372549%,94.509804%);fill-opacity:1;" d="M 153.023438 80.820312 C 153.023438 80.820312 153.914062 75 159.96875 73.386719 C 167.046875 71.496094 168.863281 77.910156 168.863281 77.910156 C 168.863281 77.910156 165.175781 75.453125 160.785156 76.457031 C 156.644531 77.402344 153.023438 80.820312 153.023438 80.820312 "/>
<path style="fill:none;stroke-width:7;stroke-linecap:round;stroke-linejoin:round;stroke:rgb(10.196078%,9.803922%,9.803922%);stroke-opacity:1;stroke-miterlimit:4;" d="M 639.070688 295.555957 C 639.070688 295.555957 630.675065 271.696777 604.425832 277.300293 C 575.742017 283.449414 578.102825 316.480664 578.102825 316.480664 " transform="matrix(0.26474,0,0,0.264901,0,0)"/>
<path style=" stroke:none;fill-rule:nonzero;fill:rgb(100%,100%,99.607843%);fill-opacity:1;" d="M 167.621094 80.640625 C 167.621094 81.308594 167.089844 81.851562 166.425781 81.851562 C 165.765625 81.851562 165.226562 81.308594 165.226562 80.640625 C 165.226562 79.972656 165.765625 79.429688 166.425781 79.429688 C 167.089844 79.429688 167.621094 79.972656 167.621094 80.640625 "/>
<path style="fill:none;stroke-width:7;stroke-linecap:round;stroke-linejoin:round;stroke:rgb(10.196078%,9.803922%,9.803922%);stroke-opacity:1;stroke-miterlimit:4;" d="M 577.040461 306.025684 L 567.68576 303.81377 " transform="matrix(0.26474,0,0,0.264901,0,0)"/>
<path style=" stroke:none;fill-rule:nonzero;fill:rgb(100%,100%,99.607843%);fill-opacity:1;" d="M 185.003906 82.667969 C 185.003906 87.929688 188.792969 92.199219 193.460938 92.199219 C 198.136719 92.199219 201.921875 87.929688 201.921875 82.667969 C 201.921875 77.402344 198.136719 73.136719 193.460938 73.136719 C 188.792969 73.136719 185.003906 77.402344 185.003906 82.667969 "/>
<path style=" stroke:none;fill-rule:nonzero;fill:rgb(10.196078%,9.803922%,9.803922%);fill-opacity:1;" d="M 187.042969 83.152344 C 187.042969 86.363281 189.027344 88.96875 191.472656 88.96875 C 193.921875 88.96875 195.910156 86.363281 195.910156 83.152344 C 195.910156 79.9375 193.921875 77.335938 191.472656 77.335938 C 189.027344 77.335938 187.042969 79.9375 187.042969 83.152344 "/>
<path style=" stroke:none;fill-rule:nonzero;fill:rgb(84.705882%,91.372549%,94.509804%);fill-opacity:1;" d="M 202 80.820312 C 202 80.820312 201.109375 75 195.058594 73.386719 C 187.976562 71.496094 186.164062 77.910156 186.164062 77.910156 C 186.164062 77.910156 189.847656 75.453125 194.242188 76.457031 C 198.382812 77.402344 202 80.820312 202 80.820312 "/>
<path style="fill:none;stroke-width:7;stroke-linecap:round;stroke-linejoin:round;stroke:rgb(10.196078%,9.803922%,9.803922%);stroke-opacity:1;stroke-miterlimit:4;" d="M 701.956707 295.555957 C 701.956707 295.555957 710.367085 271.696777 736.601562 277.300293 C 765.300133 283.449414 762.939325 316.480664 762.939325 316.480664 " transform="matrix(0.26474,0,0,0.264901,0,0)"/>
<path style=" stroke:none;fill-rule:nonzero;fill:rgb(100%,100%,99.607843%);fill-opacity:1;" d="M 193.316406 80.640625 C 193.316406 81.308594 193.851562 81.851562 194.511719 81.851562 C 195.175781 81.851562 195.710938 81.308594 195.710938 80.640625 C 195.710938 79.972656 195.175781 79.429688 194.511719 79.429688 C 193.851562 79.429688 193.316406 79.972656 193.316406 80.640625 "/>
<path style="fill:none;stroke-width:7;stroke-linecap:round;stroke-linejoin:round;stroke:rgb(10.196078%,9.803922%,9.803922%);stroke-opacity:1;stroke-miterlimit:4;" d="M 764.001689 306.025684 L 773.35639 303.81377 " transform="matrix(0.26474,0,0,0.264901,0,0)"/>
<path style=" stroke:none;fill-rule:nonzero;fill:rgb(100%,100%,99.607843%);fill-opacity:1;" d="M 44.144531 67.757812 C 44.144531 72.703125 40.984375 76.710938 37.09375 76.710938 C 33.199219 76.710938 30.042969 72.703125 30.042969 67.757812 C 30.042969 62.808594 33.199219 58.800781 37.09375 58.800781 C 40.984375 58.800781 44.144531 62.808594 44.144531 67.757812 "/>
<path style=" stroke:none;fill-rule:nonzero;fill:rgb(10.196078%,9.803922%,9.803922%);fill-opacity:1;" d="M 42.640625 68.210938 C 42.640625 70.871094 40.996094 73.035156 38.964844 73.035156 C 36.933594 73.035156 35.289062 70.871094 35.289062 68.210938 C 35.289062 65.546875 36.933594 63.386719 38.964844 63.386719 C 40.996094 63.386719 42.640625 65.546875 42.640625 68.210938 "/>
<path style=" stroke:none;fill-rule:nonzero;fill:rgb(84.705882%,91.372549%,94.509804%);fill-opacity:1;" d="M 29.894531 66.085938 C 29.894531 66.085938 30.640625 60.621094 35.742188 59.101562 C 41.710938 57.324219 43.242188 63.355469 43.242188 63.355469 C 43.242188 63.355469 40.132812 61.042969 36.429688 61.988281 C 32.9375 62.875 29.894531 66.085938 29.894531 66.085938 "/>
<path style="fill:none;stroke-width:7;stroke-linecap:round;stroke-linejoin:round;stroke:rgb(10.196078%,9.803922%,9.803922%);stroke-opacity:1;stroke-miterlimit:4;" d="M 163.338394 239.166895 C 163.338394 239.166895 157.554415 216.398926 135.0087 223.108398 C 115.738605 228.844629 112.920391 249.474414 112.920391 249.474414 " transform="matrix(0.26474,0,0,0.264901,0,0)"/>
<path style=" stroke:none;fill-rule:nonzero;fill:rgb(100%,100%,99.607843%);fill-opacity:1;" d="M 42.722656 65.644531 C 42.722656 66.269531 42.21875 66.78125 41.597656 66.78125 C 40.976562 66.78125 40.472656 66.269531 40.472656 65.644531 C 40.472656 65.015625 40.976562 64.503906 41.597656 64.503906 C 42.21875 64.503906 42.722656 65.015625 42.722656 65.644531 "/>
<path style=" stroke:none;fill-rule:nonzero;fill:rgb(100%,100%,99.607843%);fill-opacity:1;" d="M 66.371094 67.757812 C 66.371094 72.703125 69.527344 76.710938 73.421875 76.710938 C 77.316406 76.710938 80.472656 72.703125 80.472656 67.757812 C 80.472656 62.808594 77.316406 58.800781 73.421875 58.800781 C 69.527344 58.800781 66.371094 62.808594 66.371094 67.757812 "/>
<path style=" stroke:none;fill-rule:nonzero;fill:rgb(10.196078%,9.803922%,9.803922%);fill-opacity:1;" d="M 67.875 68.210938 C 67.875 70.871094 69.519531 73.035156 71.546875 73.035156 C 73.578125 73.035156 75.226562 70.871094 75.226562 68.210938 C 75.226562 65.546875 73.578125 63.386719 71.546875 63.386719 C 69.519531 63.386719 67.875 65.546875 67.875 68.210938 "/>
<path style=" stroke:none;fill-rule:nonzero;fill:rgb(84.705882%,91.372549%,94.509804%);fill-opacity:1;" d="M 80.621094 66.085938 C 80.621094 66.085938 79.871094 60.621094 74.773438 59.101562 C 68.804688 57.324219 67.273438 63.355469 67.273438 63.355469 C 67.273438 63.355469 70.378906 61.042969 74.082031 61.988281 C 77.574219 62.875 80.621094 66.085938 80.621094 66.085938 "/>
<path style="fill:none;stroke-width:7;stroke-linecap:round;stroke-linejoin:round;stroke:rgb(10.196078%,9.803922%,9.803922%);stroke-opacity:1;stroke-miterlimit:4;" d="M 254.111456 239.166895 C 254.111456 239.166895 259.895435 216.398926 282.44115 223.108398 C 301.696489 228.844629 304.529459 249.474414 304.529459 249.474414 " transform="matrix(0.26474,0,0,0.264901,0,0)"/>
<path style=" stroke:none;fill-rule:nonzero;fill:rgb(100%,100%,99.607843%);fill-opacity:1;" d="M 72.671875 65.644531 C 72.671875 66.269531 73.175781 66.78125 73.796875 66.78125 C 74.417969 66.78125 74.921875 66.269531 74.921875 65.644531 C 74.921875 65.015625 74.417969 64.503906 73.796875 64.503906 C 73.175781 64.503906 72.671875 65.015625 72.671875 65.644531 "/>
</g>
</svg>
