<?xml version="1.0" encoding="UTF-8"?>
<svg xmlns="http://www.w3.org/2000/svg" xmlns:xlink="http://www.w3.org/1999/xlink" width="222pt" height="200pt" viewBox="0 0 222 200" version="1.1">
<g id="surface1">
<path style=" stroke:none;fill-rule:nonzero;fill:rgb(92.54902%,60.392157%,59.215686%);fill-opacity:1;" d="M 220.574219 199.109375 C 220.574219 199.109375 220.246094 184.917969 218.855469 173.855469 C 216.679688 156.566406 215.253906 152.273438 210.382812 149.457031 C 208.246094 148.222656 205.839844 147.089844 203.34375 146.070312 L 148.605469 142.582031 C 142.949219 144.261719 136.496094 146.574219 131.507812 149.457031 C 126.636719 152.273438 125.210938 156.566406 123.035156 173.855469 C 121.644531 184.917969 121.316406 199.109375 121.316406 199.109375 L 220.574219 199.109375 "/>
<path style=" stroke:none;fill-rule:nonzero;fill:rgb(96.470588%,80.784314%,78.431373%);fill-opacity:1;" d="M 124.484375 177.429688 C 126.660156 160.136719 128.085938 155.84375 132.957031 153.03125 C 137.941406 150.148438 144.394531 147.835938 150.054688 146.152344 L 204.792969 149.644531 C 207.289062 150.664062 209.695312 151.792969 211.832031 153.03125 C 213.570312 154.035156 214.871094 155.234375 215.921875 157.144531 C 214.640625 152.9375 213.015625 150.976562 210.382812 149.457031 C 208.246094 148.222656 205.839844 147.089844 203.34375 146.070312 L 148.605469 142.582031 C 142.949219 144.261719 136.496094 146.574219 131.507812 149.457031 C 126.636719 152.273438 125.210938 156.566406 123.035156 173.855469 C 121.644531 184.917969 121.316406 199.109375 121.316406 199.109375 L 122.878906 199.109375 C 123.070312 194.1875 123.523438 185.066406 124.484375 177.429688 "/>
<path style=" stroke:none;fill-rule:nonzero;fill:rgb(100%,100%,99.607843%);fill-opacity:1;" d="M 154.03125 149.777344 L 162.59375 181.730469 L 185.003906 179.714844 C 186.75 175.257812 192.085938 155.828125 192.085938 155.828125 L 194.464844 148.503906 L 164.496094 147.550781 L 154.03125 149.777344 "/>
<path style=" stroke:none;fill-rule:nonzero;fill:rgb(45.098039%,27.058824%,23.529412%);fill-opacity:1;" d="M 126.347656 80.8125 C 119.265625 41.761719 146.652344 23.746094 158.988281 19.085938 C 171.324219 14.417969 183.96875 17.152344 187.332031 23.105469 C 192.300781 20.046875 221.605469 39.964844 212.636719 79.808594 L 202.335938 87.605469 L 139.980469 90.179688 L 126.347656 80.8125 "/>
<path style=" stroke:none;fill-rule:nonzero;fill:rgb(79.215686%,62.352941%,55.294118%);fill-opacity:1;" d="M 160.964844 25.042969 C 173.300781 20.378906 185.945312 23.113281 189.308594 29.066406 C 192.527344 27.085938 205.953125 34.757812 212.574219 51.238281 C 207.171875 30.660156 190.917969 20.898438 187.332031 23.105469 C 183.96875 17.152344 171.324219 14.417969 158.988281 19.085938 C 146.652344 23.746094 119.265625 41.761719 126.347656 80.8125 L 127.597656 81.675781 C 123.6875 46.148438 149.179688 29.5 160.964844 25.042969 "/>
<path style=" stroke:none;fill-rule:nonzero;fill:rgb(79.215686%,62.352941%,55.294118%);fill-opacity:1;" d="M 144.9375 32.128906 C 144.9375 32.128906 155.292969 40.964844 167.953125 41.5 C 167.953125 41.5 172.574219 43.480469 163.335938 44.03125 C 154.097656 44.589844 144.355469 43.261719 138.5 39.59375 L 144.9375 32.128906 "/>
<path style=" stroke:none;fill-rule:nonzero;fill:rgb(98.823529%,89.411765%,79.607843%);fill-opacity:1;" d="M 187.4375 150.308594 C 179.71875 155.300781 170.945312 156.890625 164.601562 155.511719 C 159.890625 154.488281 159.105469 151.476562 159.105469 151.476562 C 154.03125 151.105469 150.859375 147.230469 149.429688 144.21875 C 148.003906 141.207031 150.011719 135.222656 152.679688 132.101562 C 155.027344 129.367188 159.429688 128.507812 161.953125 128.242188 L 185.664062 123.980469 L 186.617188 128.996094 L 187.4375 150.308594 "/>
<path style=" stroke:none;fill-rule:nonzero;fill:rgb(98.823529%,89.411765%,79.607843%);fill-opacity:1;" d="M 186.167969 199.109375 C 185.957031 188.492188 182.574219 152.855469 182.574219 152.855469 L 164.601562 155.511719 C 164.601562 155.511719 161.851562 185.308594 162.382812 199.109375 L 186.167969 199.109375 "/>
<path style=" stroke:none;fill-rule:nonzero;fill:rgb(45.098039%,27.058824%,23.529412%);fill-opacity:1;" d="M 195.164062 118.734375 C 195.164062 118.734375 204.585938 129.980469 203.957031 141.328125 C 203.292969 153.324219 196.527344 155.449219 192.828125 156.511719 L 191.03125 152.476562 C 186.695312 150.246094 183.566406 144.644531 183.523438 139.207031 C 183.46875 132.09375 186.40625 125.996094 186.40625 125.996094 L 187.332031 118.78125 L 195.164062 118.734375 "/>
<path style=" stroke:none;fill-rule:nonzero;fill:rgb(97.254902%,82.352941%,70.980392%);fill-opacity:1;" d="M 170.996094 142.324219 C 169.035156 141.339844 167.0625 139.828125 165.414062 138.261719 L 165.449219 137.148438 C 166.515625 135.234375 166.871094 131.699219 166.988281 129.875 L 175 129.789062 C 175.109375 131.589844 175.460938 135.207031 176.546875 137.148438 L 175.9375 138.574219 C 174.6875 139.8125 173.28125 141.148438 171.757812 142.496094 L 170.996094 142.324219 "/>
<path style=" stroke:none;fill-rule:nonzero;fill:rgb(34.901961%,37.647059%,52.941176%);fill-opacity:1;" d="M 106.292969 199.109375 C 106.292969 199.109375 104.796875 170.085938 103.90625 159.8125 C 102.765625 146.648438 99.757812 145.332031 95.316406 142.296875 C 87.726562 137.109375 67.070312 130.636719 67.070312 130.636719 L 40.113281 130.636719 C 40.113281 130.636719 19.453125 137.109375 11.863281 142.296875 C 7.425781 145.332031 4.414062 146.648438 3.273438 159.8125 C 2.386719 170.085938 0.886719 199.109375 0.886719 199.109375 L 106.292969 199.109375 "/>
<path style=" stroke:none;fill-rule:nonzero;fill:rgb(47.843137%,54.117647%,71.764706%);fill-opacity:1;" d="M 5.421875 163.539062 C 6.566406 150.375 9.574219 149.058594 14.015625 146.023438 C 21.605469 140.835938 42.261719 134.363281 42.261719 134.363281 L 69.21875 134.363281 C 69.21875 134.363281 89.878906 140.835938 97.46875 146.023438 C 99.191406 147.203125 100.699219 148.132812 101.964844 149.589844 C 100.410156 145.496094 98.160156 144.242188 95.316406 142.296875 C 87.726562 137.109375 67.070312 130.636719 67.070312 130.636719 L 40.113281 130.636719 C 40.113281 130.636719 19.453125 137.109375 11.863281 142.296875 C 7.425781 145.332031 4.414062 146.648438 3.273438 159.8125 C 2.386719 170.085938 0.886719 199.109375 0.886719 199.109375 L 3.234375 199.109375 C 3.667969 190.941406 4.730469 171.546875 5.421875 163.539062 "/>
<path style=" stroke:none;fill-rule:nonzero;fill:rgb(97.254902%,82.352941%,70.980392%);fill-opacity:1;" d="M 59.0625 122.019531 C 59.0625 122.019531 59.003906 126.089844 60.226562 128.121094 L 46.957031 128.121094 C 48.175781 126.089844 48.117188 122.019531 48.117188 122.019531 L 59.0625 122.019531 "/>
<path style=" stroke:none;fill-rule:nonzero;fill:rgb(100%,100%,99.607843%);fill-opacity:1;" d="M 48.230469 199.109375 C 48.230469 199.109375 41.867188 160.820312 40.703125 147.65625 C 39.78125 137.214844 40.492188 130.988281 40.492188 130.988281 L 40.113281 130.636719 C 40.113281 130.636719 43.449219 126.625 43.878906 126.316406 C 45.375 125.257812 47.539062 125.519531 47.539062 125.519531 L 59.316406 124.996094 C 59.316406 124.996094 61.550781 125.257812 62.949219 126 C 63.414062 126.246094 67.070312 130.636719 67.070312 130.636719 L 66.6875 130.988281 C 66.6875 130.988281 67.402344 137.214844 66.476562 147.65625 C 65.3125 160.820312 58.949219 199.109375 58.949219 199.109375 L 48.230469 199.109375 "/>
<path style=" stroke:none;fill-rule:nonzero;fill:rgb(97.254902%,82.352941%,70.980392%);fill-opacity:1;" d="M 48.230469 124.777344 L 45.992188 126.210938 C 45.992188 126.210938 44.40625 127.484375 44.722656 129.289062 C 45.234375 132.207031 51.171875 136.617188 51.171875 136.617188 L 53.601562 150.628906 L 53.578125 150.628906 L 56.007812 136.617188 C 56.007812 136.617188 61.945312 132.207031 62.460938 129.289062 C 62.777344 127.484375 61.191406 126.210938 61.191406 126.210938 L 58.949219 124.777344 L 48.230469 124.777344 "/>
<path style=" stroke:none;fill-rule:nonzero;fill:rgb(33.72549%,25.490196%,21.568627%);fill-opacity:1;" d="M 96.3125 67.464844 C 100.910156 42.785156 97.089844 30.792969 91.222656 22.351562 C 85.082031 13.515625 75.84375 12.003906 75.84375 12.003906 C 72.511719 1.175781 50.789062 -2.488281 35.089844 6.429688 C 22.867188 13.371094 20.183594 19.222656 20.183594 19.222656 C 1.800781 32.539062 10.863281 67.457031 10.863281 67.457031 L 11 71.445312 L 96.152344 71.285156 L 96.3125 67.464844 "/>
<path style=" stroke:none;fill-rule:nonzero;fill:rgb(71.764706%,63.529412%,57.647059%);fill-opacity:1;" d="M 22.09375 24.125 C 22.09375 24.125 24.777344 18.273438 37 11.332031 C 52.699219 2.414062 74.421875 6.078125 77.753906 16.90625 C 77.753906 16.90625 86.992188 18.417969 93.132812 27.257812 C 94.277344 28.90625 95.34375 30.6875 96.285156 32.675781 C 95.011719 28.570312 93.238281 25.253906 91.222656 22.351562 C 85.082031 13.515625 75.84375 12.003906 75.84375 12.003906 C 72.511719 1.175781 50.789062 -2.488281 35.089844 6.429688 C 22.867188 13.371094 20.183594 19.222656 20.183594 19.222656 C 1.800781 32.539062 10.863281 67.457031 10.863281 67.457031 L 11 71.445312 L 12.554688 71.441406 C 11.285156 65.859375 5.472656 36.167969 22.09375 24.125 "/>
<path style="fill-rule:nonzero;fill:rgb(97.254902%,82.352941%,70.980392%);fill-opacity:1;stroke-width:7;stroke-linecap:round;stroke-linejoin:round;stroke:rgb(10.196078%,9.803922%,9.803922%);stroke-opacity:1;stroke-miterlimit:4;" d="M 64.464122 272.526855 C 64.464122 272.526855 33.671611 247.842285 22.109023 286.555664 C 8.822054 331.033887 52.162514 382.304199 79.660227 385.431934 " transform="matrix(0.253714,0,0,0.254777,0,0)"/>
<path style=" stroke:none;fill-rule:nonzero;fill:rgb(85.882353%,61.568627%,53.333333%);fill-opacity:1;" d="M 9.910156 83.765625 C 11.515625 87.433594 14.5625 89.636719 16.710938 88.6875 C 18.859375 87.738281 19.296875 83.996094 17.691406 80.324219 C 16.085938 76.660156 13.039062 74.453125 10.890625 75.40625 C 8.742188 76.351562 8.304688 80.09375 9.910156 83.765625 "/>
<path style="fill:none;stroke-width:7;stroke-linecap:round;stroke-linejoin:round;stroke:rgb(10.196078%,9.803922%,9.803922%);stroke-opacity:1;stroke-miterlimit:4;" d="M 38.56762 287.843555 C 38.56762 287.843555 54.918444 280.652832 67.589562 308.557129 " transform="matrix(0.253714,0,0,0.254777,0,0)"/>
<path style="fill-rule:nonzero;fill:rgb(97.254902%,82.352941%,70.980392%);fill-opacity:1;stroke-width:7;stroke-linecap:round;stroke-linejoin:round;stroke:rgb(10.196078%,9.803922%,9.803922%);stroke-opacity:1;stroke-miterlimit:4;" d="M 355.992223 272.526855 C 355.992223 272.526855 386.784734 247.842285 398.347322 286.555664 C 411.634291 331.033887 368.293831 382.304199 340.796118 385.431934 " transform="matrix(0.253714,0,0,0.254777,0,0)"/>
<path style=" stroke:none;fill-rule:nonzero;fill:rgb(85.882353%,61.568627%,53.333333%);fill-opacity:1;" d="M 96.765625 83.765625 C 95.160156 87.433594 92.113281 89.636719 89.96875 88.6875 C 87.816406 87.738281 87.378906 83.996094 88.984375 80.324219 C 90.589844 76.660156 93.636719 74.453125 95.785156 75.40625 C 97.933594 76.351562 98.371094 80.09375 96.765625 83.765625 "/>
<path style="fill:none;stroke-width:7;stroke-linecap:round;stroke-linejoin:round;stroke:rgb(10.196078%,9.803922%,9.803922%);stroke-opacity:1;stroke-miterlimit:4;" d="M 381.888725 287.843555 C 381.888725 287.843555 365.537901 280.652832 352.866783 308.557129 " transform="matrix(0.253714,0,0,0.254777,0,0)"/>
<path style=" stroke:none;fill-rule:nonzero;fill:rgb(97.254902%,82.352941%,70.980392%);fill-opacity:1;" d="M 91.753906 64.226562 C 91.414062 72.824219 89.828125 91.265625 84.742188 102.921875 C 79.761719 114.335938 68.71875 119.480469 57.144531 122.464844 C 53.390625 123.253906 49.851562 122.464844 49.851562 122.464844 C 38.273438 119.480469 26.402344 113.917969 22.253906 102.921875 C 17.757812 91.019531 15.578125 72.824219 15.242188 64.226562 C 17.453125 55.234375 21.28125 48.023438 24.421875 43.199219 L 25.695312 43.152344 C 29.257812 42.9375 32.71875 41.910156 35.875 40.515625 L 36.792969 41.773438 C 51.699219 42.410156 65.707031 33.707031 70.304688 27.496094 C 70.304688 27.496094 72.15625 42.941406 87.433594 51.011719 L 88.269531 51.007812 C 89.609375 54.398438 90.863281 58.25 91.75 62.378906 L 91.753906 64.226562 "/>
<path style=" stroke:none;fill-rule:nonzero;fill:rgb(85.882353%,61.568627%,53.333333%);fill-opacity:1;" d="M 48.230469 122.390625 L 58.949219 122.390625 L 58.949219 124.777344 C 58.949219 124.777344 55.675781 129.4375 47.3125 127.84375 L 48.230469 122.390625 "/>
<path style=" stroke:none;fill-rule:nonzero;fill:rgb(85.882353%,61.568627%,53.333333%);fill-opacity:1;" d="M 167.351562 130.191406 L 175.480469 130.191406 L 175.480469 132.582031 C 175.480469 132.582031 173 137.238281 166.652344 135.644531 L 167.351562 130.191406 "/>
<path style=" stroke:none;fill-rule:nonzero;fill:rgb(81.176471%,86.27451%,87.843137%);fill-opacity:1;" d="M 52.132812 144.703125 L 50.867188 137.253906 L 44.234375 145.816406 C 44.234375 145.816406 47.558594 142.945312 52.132812 144.703125 "/>
<path style=" stroke:none;fill-rule:nonzero;fill:rgb(81.176471%,86.27451%,87.843137%);fill-opacity:1;" d="M 55.046875 144.703125 L 56.3125 137.253906 L 62.949219 145.816406 C 62.949219 145.816406 59.625 142.945312 55.046875 144.703125 "/>
<path style="fill:none;stroke-width:7;stroke-linecap:round;stroke-linejoin:round;stroke:rgb(10.196078%,9.803922%,9.803922%);stroke-opacity:1;stroke-miterlimit:4;" d="M 189.651077 478.92666 C 189.651077 478.92666 189.882021 494.902637 185.078389 502.875293 M 232.791385 478.92666 C 232.791385 478.92666 232.560441 494.902637 237.379469 502.875293 M 585.719753 559.634473 C 563.425975 566.227246 537.991361 575.303809 518.330342 586.618848 C 499.131211 597.673242 493.511578 614.523145 484.935864 682.382715 C 479.454797 725.803027 478.161511 781.504297 478.161511 781.504297 " transform="matrix(0.253714,0,0,0.254777,0,0)"/>
<path style="fill:none;stroke-width:6;stroke-linecap:round;stroke-linejoin:round;stroke:rgb(10.196078%,9.803922%,9.803922%);stroke-opacity:1;stroke-miterlimit:4;" d="M 538.206908 641.7375 L 559.607703 781.504297 " transform="matrix(0.253714,0,0,0.254777,0,0)"/>
<path style="fill:none;stroke-width:7;stroke-linecap:round;stroke-linejoin:round;stroke:rgb(10.196078%,9.803922%,9.803922%);stroke-opacity:1;stroke-miterlimit:4;" d="M 801.467483 573.325977 C 811.30569 577.327637 820.789784 581.773926 829.211536 586.618848 C 848.410667 597.673242 854.0303 614.523145 862.606014 682.382715 C 868.087081 725.803027 869.380367 781.504297 869.380367 781.504297 " transform="matrix(0.253714,0,0,0.254777,0,0)"/>
<path style="fill:none;stroke-width:6;stroke-linecap:round;stroke-linejoin:round;stroke:rgb(10.196078%,9.803922%,9.803922%);stroke-opacity:1;stroke-miterlimit:4;" d="M 809.33497 641.7375 L 787.934174 781.504297 " transform="matrix(0.253714,0,0,0.254777,0,0)"/>
<path style="fill-rule:nonzero;fill:rgb(97.254902%,82.352941%,70.980392%);fill-opacity:1;stroke-width:7;stroke-linecap:round;stroke-linejoin:round;stroke:rgb(10.196078%,9.803922%,9.803922%);stroke-opacity:1;stroke-miterlimit:4;" d="M 816.956116 327.185547 C 820.974539 323.168555 828.703459 312.083496 844.469225 314.551953 C 860.250387 317.02041 868.903083 341.980957 858.094911 370.023242 C 847.271344 398.080859 823.453336 412.860937 805.193377 412.860937 " transform="matrix(0.253714,0,0,0.254777,0,0)"/>
<path style="fill-rule:nonzero;fill:rgb(97.254902%,82.352941%,70.980392%);fill-opacity:1;stroke-width:7;stroke-linecap:round;stroke-linejoin:round;stroke:rgb(10.196078%,9.803922%,9.803922%);stroke-opacity:1;stroke-miterlimit:4;" d="M 532.417916 326.970898 C 528.399493 322.969238 520.670573 311.868848 504.889411 314.337305 C 489.108249 316.805762 480.470949 341.766309 491.279121 369.808594 C 502.102689 397.850879 525.920696 412.646289 544.165259 412.646289 " transform="matrix(0.253714,0,0,0.254777,0,0)"/>
<path style=" stroke:none;fill-rule:nonzero;fill:rgb(85.882353%,61.568627%,53.333333%);fill-opacity:1;" d="M 212.839844 93.65625 C 211.527344 96.496094 209.042969 98.203125 207.289062 97.46875 C 205.539062 96.734375 205.175781 93.835938 206.488281 90.992188 C 207.800781 88.152344 210.285156 86.441406 212.035156 87.183594 C 213.789062 87.914062 214.148438 90.8125 212.839844 93.65625 "/>
<path style=" stroke:none;fill-rule:nonzero;fill:rgb(85.882353%,61.568627%,53.333333%);fill-opacity:1;" d="M 129.523438 93.65625 C 130.832031 96.496094 133.3125 98.203125 135.066406 97.46875 C 136.820312 96.734375 137.179688 93.835938 135.867188 90.992188 C 134.554688 88.152344 132.070312 86.441406 130.320312 87.183594 C 128.570312 87.914062 128.210938 90.8125 129.523438 93.65625 "/>
<path style="fill:none;stroke-width:7;stroke-linecap:round;stroke-linejoin:round;stroke:rgb(10.196078%,9.803922%,9.803922%);stroke-opacity:1;stroke-miterlimit:4;" d="M 815.508868 357.389648 C 815.508868 357.389648 828.811233 331.81582 843.42228 333.349023 M 533.665013 357.527637 C 533.665013 357.527637 520.362648 331.938477 505.751601 333.487012 " transform="matrix(0.253714,0,0,0.254777,0,0)"/>
<path style=" stroke:none;fill-rule:nonzero;fill:rgb(97.254902%,82.352941%,70.980392%);fill-opacity:1;" d="M 184.929688 44.011719 C 169.761719 58.800781 148.371094 71.605469 134.132812 75.628906 C 133.378906 88.171875 137.230469 107.136719 143.585938 115.875 C 151.039062 126.125 164.984375 130.191406 170.996094 130.191406 C 177.011719 130.191406 190.957031 126.125 198.410156 115.875 C 204.546875 107.433594 208.261719 91.464844 207.828125 79.082031 C 207.828125 79.082031 200.945312 54.597656 184.929688 44.011719 "/>
<path style="fill:none;stroke-width:7;stroke-linecap:round;stroke-linejoin:round;stroke:rgb(10.196078%,9.803922%,9.803922%);stroke-opacity:1;stroke-miterlimit:4;" d="M 728.889534 172.745996 C 669.105873 230.793066 584.795978 281.051465 528.676626 296.843457 C 525.705149 346.074609 540.885857 420.511621 565.935564 454.809375 C 595.31162 495.040625 650.276253 511.00127 673.97109 511.00127 C 697.681324 511.00127 752.645957 495.040625 782.022012 454.809375 C 806.20953 421.676855 820.851369 358.999512 819.142385 310.396973 C 819.142385 310.396973 792.014182 214.295801 728.889534 172.745996 Z M 621.038763 415.390723 C 621.038763 415.390723 639.76061 447.250684 673.894109 447.250684 C 708.043004 447.250684 726.749455 415.390723 726.749455 415.390723 M 153.777801 380.786328 C 153.777801 380.786328 173.823726 417.537207 210.359041 417.537207 C 246.940544 417.537207 266.971073 380.786328 266.971073 380.786328 M 673.894109 379.375781 L 673.894109 371.955078 M 636.219471 261.579785 C 636.219471 261.579785 627.289643 257.286816 615.727055 257.593457 M 711.738105 261.579785 C 711.738105 261.579785 740.282763 247.842285 761.360237 271.315625 " transform="matrix(0.253714,0,0,0.254777,0,0)"/>
<path style=" stroke:none;fill-rule:nonzero;fill:rgb(100%,100%,99.607843%);fill-opacity:1;" d="M 163.785156 83.222656 C 163.785156 88.246094 160.046875 92.320312 155.433594 92.320312 C 150.820312 92.320312 147.082031 88.246094 147.082031 83.222656 C 147.082031 78.195312 150.820312 74.125 155.433594 74.125 C 160.046875 74.125 163.785156 78.195312 163.785156 83.222656 "/>
<path style=" stroke:none;fill-rule:nonzero;fill:rgb(10.196078%,9.803922%,9.803922%);fill-opacity:1;" d="M 161.371094 84.046875 C 161.371094 87.734375 159.59375 90.726562 157.398438 90.726562 C 155.203125 90.726562 153.421875 87.734375 153.421875 84.046875 C 153.421875 80.355469 155.203125 77.367188 157.398438 77.367188 C 159.59375 77.367188 161.371094 80.355469 161.371094 84.046875 "/>
<path style=" stroke:none;fill-rule:nonzero;fill:rgb(84.705882%,91.372549%,94.509804%);fill-opacity:1;" d="M 147.007812 81.734375 C 147.007812 81.734375 147.886719 75.96875 153.859375 74.371094 C 160.851562 72.5 162.644531 78.851562 162.644531 78.851562 C 162.644531 78.851562 159.003906 76.417969 154.667969 77.410156 C 150.578125 78.351562 147.007812 81.734375 147.007812 81.734375 "/>
<path style="fill:none;stroke-width:7;stroke-linecap:round;stroke-linejoin:round;stroke:rgb(10.196078%,9.803922%,9.803922%);stroke-opacity:1;stroke-miterlimit:4;" d="M 642.316389 310.97959 C 642.316389 310.97959 633.648297 286.402344 606.612472 292.18252 C 577.067057 298.499316 579.499666 332.536426 579.499666 332.536426 " transform="matrix(0.253714,0,0,0.254777,0,0)"/>
<path style=" stroke:none;fill-rule:nonzero;fill:rgb(100%,100%,99.607843%);fill-opacity:1;" d="M 161.21875 81.558594 C 161.21875 82.347656 160.585938 82.988281 159.804688 82.988281 C 159.027344 82.988281 158.394531 82.347656 158.394531 81.558594 C 158.394531 80.765625 159.027344 80.125 159.804688 80.125 C 160.585938 80.125 161.21875 80.765625 161.21875 81.558594 "/>
<path style="fill:none;stroke-width:6;stroke-linecap:round;stroke-linejoin:round;stroke:rgb(10.196078%,9.803922%,9.803922%);stroke-opacity:1;stroke-miterlimit:4;" d="M 578.406532 321.758008 L 568.768476 319.488867 " transform="matrix(0.253714,0,0,0.254777,0,0)"/>
<path style=" stroke:none;fill-rule:nonzero;fill:rgb(100%,100%,99.607843%);fill-opacity:1;" d="M 178.207031 83.222656 C 178.207031 88.246094 181.949219 92.320312 186.558594 92.320312 C 191.175781 92.320312 194.910156 88.246094 194.910156 83.222656 C 194.910156 78.195312 191.175781 74.125 186.558594 74.125 C 181.949219 74.125 178.207031 78.195312 178.207031 83.222656 "/>
<path style=" stroke:none;fill-rule:nonzero;fill:rgb(10.196078%,9.803922%,9.803922%);fill-opacity:1;" d="M 180.621094 84.046875 C 180.621094 87.734375 182.402344 90.726562 184.597656 90.726562 C 186.792969 90.726562 188.574219 87.734375 188.574219 84.046875 C 188.574219 80.355469 186.792969 77.367188 184.597656 77.367188 C 182.402344 77.367188 180.621094 80.355469 180.621094 84.046875 "/>
<path style=" stroke:none;fill-rule:nonzero;fill:rgb(84.705882%,91.372549%,94.509804%);fill-opacity:1;" d="M 194.988281 81.734375 C 194.988281 81.734375 194.109375 75.96875 188.136719 74.371094 C 181.144531 72.5 179.351562 78.851562 179.351562 78.851562 C 179.351562 78.851562 182.992188 76.417969 187.328125 77.410156 C 191.417969 78.351562 194.988281 81.734375 194.988281 81.734375 "/>
<path style="fill:none;stroke-width:7;stroke-linecap:round;stroke-linejoin:round;stroke:rgb(10.196078%,9.803922%,9.803922%);stroke-opacity:1;stroke-miterlimit:4;" d="M 705.641188 310.97959 C 705.641188 310.97959 714.293884 286.402344 741.329709 292.18252 C 770.890519 298.499316 768.457911 332.536426 768.457911 332.536426 " transform="matrix(0.253714,0,0,0.254777,0,0)"/>
<path style="fill:none;stroke-width:6;stroke-linecap:round;stroke-linejoin:round;stroke:rgb(10.196078%,9.803922%,9.803922%);stroke-opacity:1;stroke-miterlimit:4;" d="M 769.551045 321.758008 L 779.189101 319.488867 M 159.597586 514.129004 C 159.597586 514.129004 156.795467 538.568262 160.428984 579.550781 C 165.017068 631.219727 190.097568 781.504297 190.097568 781.504297 M 132.161458 522.377637 L 101.984797 576.438379 L 137.811884 589.639258 L 104.602161 618.294824 L 178.842905 779.526465 " transform="matrix(0.253714,0,0,0.254777,0,0)"/>
<path style=" stroke:none;fill-rule:nonzero;fill:rgb(71.764706%,63.529412%,57.647059%);fill-opacity:1;" d="M 31.949219 13.320312 C 31.949219 13.320312 42.203125 20.113281 54.734375 20.527344 C 54.734375 20.527344 59.308594 22.050781 50.164062 22.472656 C 41.019531 22.902344 31.371094 21.878906 25.570312 19.058594 L 31.949219 13.320312 "/>
<path style="fill:none;stroke-width:7;stroke-linecap:round;stroke-linejoin:round;stroke:rgb(10.196078%,9.803922%,9.803922%);stroke-opacity:1;stroke-miterlimit:4;" d="M 116.472674 142.909863 C 116.472674 142.909863 76.688749 184.796973 60.076189 252.089258 C 61.400267 285.835059 69.991378 357.25166 87.712468 403.968359 C 104.063292 447.128027 166.556693 480.674512 210.851721 480.674512 C 252.729536 480.674512 314.376144 448.768555 334.00637 403.968359 C 354.052294 358.217578 360.303174 285.835059 361.642649 252.089258 " transform="matrix(0.253714,0,0,0.254777,0,0)"/>
<path style="fill:none;stroke-width:6;stroke-linecap:round;stroke-linejoin:round;stroke:rgb(10.196078%,9.803922%,9.803922%);stroke-opacity:1;stroke-miterlimit:4;" d="M 199.181359 290.52666 C 199.181359 290.52666 202.645517 303.666211 200.336078 317.189062 M 206.340618 309.722363 C 206.340618 309.722363 192.39161 327.154883 192.037496 333.441016 C 191.683383 339.711816 203.507707 350.168262 203.507707 350.168262 " transform="matrix(0.253714,0,0,0.254777,0,0)"/>
<path style=" stroke:none;fill-rule:nonzero;fill:rgb(92.156863%,57.254902%,58.039216%);fill-opacity:1;" d="M 32.15625 82.101562 C 32.15625 83.980469 29.164062 85.503906 25.476562 85.503906 C 21.792969 85.503906 18.800781 83.980469 18.800781 82.101562 C 18.800781 80.222656 21.792969 78.703125 25.476562 78.703125 C 29.164062 78.703125 32.15625 80.222656 32.15625 82.101562 "/>
<path style=" stroke:none;fill-rule:nonzero;fill:rgb(92.156863%,57.254902%,58.039216%);fill-opacity:1;" d="M 74.628906 82.101562 C 74.628906 83.980469 77.617188 85.503906 81.304688 85.503906 C 84.992188 85.503906 87.984375 83.980469 87.984375 82.101562 C 87.984375 80.222656 84.992188 78.703125 81.304688 78.703125 C 77.617188 78.703125 74.628906 80.222656 74.628906 82.101562 "/>
<path style=" stroke:none;fill-rule:nonzero;fill:rgb(92.156863%,57.254902%,58.039216%);fill-opacity:1;" d="M 139.328125 96.382812 C 139.328125 98.28125 142.347656 99.820312 146.070312 99.820312 C 149.796875 99.820312 152.816406 98.28125 152.816406 96.382812 C 152.816406 94.488281 149.796875 92.953125 146.070312 92.953125 C 142.347656 92.953125 139.328125 94.488281 139.328125 96.382812 "/>
<path style=" stroke:none;fill-rule:nonzero;fill:rgb(92.156863%,57.254902%,58.039216%);fill-opacity:1;" d="M 189.078125 96.382812 C 189.078125 98.28125 192.097656 99.820312 195.820312 99.820312 C 199.546875 99.820312 202.566406 98.28125 202.566406 96.382812 C 202.566406 94.488281 199.546875 92.953125 195.820312 92.953125 C 192.097656 92.953125 189.078125 94.488281 189.078125 96.382812 "/>
<path style=" stroke:none;fill-rule:nonzero;fill:rgb(100%,100%,99.607843%);fill-opacity:1;" d="M 44.796875 70.582031 C 44.796875 76.160156 41.246094 80.683594 36.871094 80.683594 C 32.488281 80.683594 28.945312 76.160156 28.945312 70.582031 C 28.945312 65 32.488281 60.476562 36.871094 60.476562 C 41.246094 60.476562 44.796875 65 44.796875 70.582031 "/>
<path style=" stroke:none;fill-rule:nonzero;fill:rgb(100%,100%,99.607843%);fill-opacity:1;" d="M 62.199219 70.582031 C 62.199219 76.160156 65.746094 80.683594 70.125 80.683594 C 74.503906 80.683594 78.050781 76.160156 78.050781 70.582031 C 78.050781 65 74.503906 60.476562 70.125 60.476562 C 65.746094 60.476562 62.199219 65 62.199219 70.582031 "/>
<path style=" stroke:none;fill-rule:nonzero;fill:rgb(84.705882%,91.372549%,94.509804%);fill-opacity:1;" d="M 28.777344 68.695312 C 28.777344 68.695312 29.617188 62.53125 35.355469 60.816406 C 42.0625 58.8125 43.78125 65.617188 43.78125 65.617188 C 43.78125 65.617188 40.289062 63.003906 36.125 64.070312 C 32.199219 65.074219 28.777344 68.695312 28.777344 68.695312 "/>
<path style=" stroke:none;fill-rule:nonzero;fill:rgb(84.705882%,91.372549%,94.509804%);fill-opacity:1;" d="M 78.21875 68.695312 C 78.21875 68.695312 77.375 62.53125 71.640625 60.816406 C 64.933594 58.8125 63.210938 65.617188 63.210938 65.617188 C 63.210938 65.617188 66.707031 63.003906 70.867188 64.070312 C 74.796875 65.074219 78.21875 68.695312 78.21875 68.695312 "/>
<path style=" stroke:none;fill-rule:nonzero;fill:rgb(10.196078%,9.803922%,9.803922%);fill-opacity:1;" d="M 63.507812 70.496094 C 63.507812 74.230469 65.53125 77.265625 68.023438 77.265625 C 70.515625 77.265625 72.542969 74.230469 72.542969 70.496094 C 72.542969 66.757812 70.515625 63.730469 68.023438 63.730469 C 65.53125 63.730469 63.507812 66.757812 63.507812 70.496094 "/>
<path style="fill:none;stroke-width:7;stroke-linecap:round;stroke-linejoin:round;stroke:rgb(10.196078%,9.803922%,9.803922%);stroke-opacity:1;stroke-miterlimit:4;" d="M 249.142209 257.547461 C 249.142209 257.547461 255.931957 230.839062 282.367328 238.704395 C 304.969032 245.435156 308.294623 269.629102 308.294623 269.629102 " transform="matrix(0.253714,0,0,0.254777,0,0)"/>
<path style=" stroke:none;fill-rule:nonzero;fill:rgb(10.196078%,9.803922%,9.803922%);fill-opacity:1;" d="M 46.304688 52.691406 C 45.894531 53.144531 43.683594 51.402344 40.878906 51.027344 C 39.488281 50.804688 37.988281 50.855469 36.707031 51.027344 C 35.40625 51.171875 34.558594 51.5 34.050781 51.710938 C 33.082031 52.109375 32.082031 52.808594 31.277344 53.332031 C 30.464844 53.847656 29.78125 54.210938 29.167969 53.742188 C 28.570312 53.289062 28.8125 52.371094 29.625 51.453125 C 30.429688 50.535156 31.765625 49.710938 33.011719 49.203125 C 33.324219 49.078125 33.785156 48.894531 34.378906 48.742188 C 34.96875 48.578125 35.71875 48.472656 36.4375 48.414062 C 37.914062 48.289062 39.71875 48.355469 41.371094 48.832031 C 43.03125 49.296875 44.449219 50.175781 45.289062 50.988281 C 46.144531 51.800781 46.496094 52.480469 46.304688 52.691406 "/>
<path style=" stroke:none;fill-rule:nonzero;fill:rgb(10.196078%,9.803922%,9.803922%);fill-opacity:1;" d="M 60.902344 52.691406 C 60.710938 52.480469 61.0625 51.800781 61.917969 50.988281 C 62.757812 50.175781 64.175781 49.296875 65.832031 48.832031 C 67.488281 48.355469 69.292969 48.289062 70.769531 48.414062 C 71.488281 48.472656 72.238281 48.578125 72.828125 48.742188 C 73.421875 48.894531 73.882812 49.078125 74.195312 49.203125 C 75.441406 49.710938 76.777344 50.535156 77.582031 51.453125 C 78.394531 52.371094 78.636719 53.289062 78.039062 53.742188 C 77.425781 54.210938 76.746094 53.847656 75.929688 53.332031 C 75.125 52.808594 74.125 52.109375 73.15625 51.710938 C 72.648438 51.5 71.800781 51.171875 70.5 51.027344 C 69.21875 50.855469 67.71875 50.804688 66.328125 51.027344 C 63.523438 51.402344 61.3125 53.144531 60.902344 52.691406 "/>
<path style="fill:none;stroke-width:7;stroke-linecap:round;stroke-linejoin:round;stroke:rgb(10.196078%,9.803922%,9.803922%);stroke-opacity:1;stroke-miterlimit:4;" d="M 145.017332 163.960742 C 203.769443 166.459863 258.980416 132.300098 277.101809 107.922168 C 277.101809 107.922168 284.399634 168.54502 344.61439 200.220996 M 199.612454 119.375195 C 199.612454 119.375195 153.146555 166.260547 101.27657 169.372949 M 319.195172 144.489062 C 319.195172 144.489062 354.190861 194.793457 364.198427 258.544043 M 379.610079 264.799512 C 402.104008 166.674512 382.673934 120.862402 359.548758 87.729883 C 335.345844 53.048828 298.933699 47.115332 298.933699 47.115332 C 285.800693 4.614941 200.182116 -9.766504 138.304564 25.236523 C 90.12968 52.481543 79.552453 75.448926 79.552453 75.448926 C -0.400303 135.18252 42.816987 264.768848 42.816987 264.768848 M 187.372431 492.66416 C 187.372431 492.66416 178.842905 491.636914 172.946139 495.791895 C 171.252551 497.003125 158.104149 512.749121 158.104149 512.749121 C 158.104149 512.749121 76.673353 538.154297 46.758428 558.515234 C 29.268282 570.428223 17.397769 575.595117 12.902062 627.264063 C 9.407112 667.587305 3.49495 781.504297 3.49495 781.504297 " transform="matrix(0.253714,0,0,0.254777,0,0)"/>
<path style="fill:none;stroke-width:6;stroke-linecap:round;stroke-linejoin:round;stroke:rgb(10.196078%,9.803922%,9.803922%);stroke-opacity:1;stroke-miterlimit:4;" d="M 158.766188 543.305859 C 158.766188 543.305859 162.522874 570.796191 169.189453 579.550781 L 198.349961 538.721582 " transform="matrix(0.253714,0,0,0.254777,0,0)"/>
<path style="fill:none;stroke-width:7;stroke-linecap:round;stroke-linejoin:round;stroke:rgb(10.196078%,9.803922%,9.803922%);stroke-opacity:1;stroke-miterlimit:4;" d="M 42.940157 625.80752 L 65.434086 779.526465 " transform="matrix(0.253714,0,0,0.254777,0,0)"/>
<path style="fill:none;stroke-width:6;stroke-linecap:round;stroke-linejoin:round;stroke:rgb(10.196078%,9.803922%,9.803922%);stroke-opacity:1;stroke-miterlimit:4;" d="M 262.844876 514.129004 C 262.844876 514.129004 265.662391 538.568262 262.013478 579.550781 C 257.425394 631.219727 232.344894 781.504297 232.344894 781.504297 M 290.2964 522.377637 L 320.457665 576.438379 L 284.630578 589.639258 L 317.840301 618.294824 L 243.614953 779.526465 " transform="matrix(0.253714,0,0,0.254777,0,0)"/>
<path style="fill:none;stroke-width:7;stroke-linecap:round;stroke-linejoin:round;stroke:rgb(10.196078%,9.803922%,9.803922%);stroke-opacity:1;stroke-miterlimit:4;" d="M 233.792142 490.609668 C 233.792142 490.609668 242.5988 491.636914 248.110659 494.55 C 249.942814 495.515918 264.353709 512.749121 264.353709 512.749121 C 264.353709 512.749121 345.769109 538.154297 375.684034 558.515234 C 393.189576 570.428223 405.044693 575.595117 409.5404 627.264063 C 413.050746 667.587305 418.947512 781.504297 418.947512 781.504297 " transform="matrix(0.253714,0,0,0.254777,0,0)"/>
<path style="fill:none;stroke-width:6;stroke-linecap:round;stroke-linejoin:round;stroke:rgb(10.196078%,9.803922%,9.803922%);stroke-opacity:1;stroke-miterlimit:4;" d="M 241.182344 495.37793 C 241.182344 495.37793 247.433224 500.376172 246.186128 507.45957 C 244.153822 518.912598 220.751513 536.222461 220.751513 536.222461 L 211.175042 591.218457 L 211.26742 591.218457 L 201.690949 536.222461 C 201.690949 536.222461 178.28864 518.912598 176.271731 507.45957 C 175.024634 500.376172 181.275514 495.37793 181.275514 495.37793 M 263.676274 543.305859 C 263.676274 543.305859 259.934984 570.796191 253.268405 579.550781 L 224.092501 538.721582 " transform="matrix(0.253714,0,0,0.254777,0,0)"/>
<path style="fill:none;stroke-width:7;stroke-linecap:round;stroke-linejoin:round;stroke:rgb(10.196078%,9.803922%,9.803922%);stroke-opacity:1;stroke-miterlimit:4;" d="M 379.502305 625.80752 L 357.008376 779.526465 " transform="matrix(0.253714,0,0,0.254777,0,0)"/>
<path style=" stroke:none;fill-rule:nonzero;fill:rgb(10.196078%,9.803922%,9.803922%);fill-opacity:1;" d="M 43.488281 70.496094 C 43.488281 74.230469 41.464844 77.265625 38.96875 77.265625 C 36.476562 77.265625 34.453125 74.230469 34.453125 70.496094 C 34.453125 66.757812 36.476562 63.730469 38.96875 63.730469 C 41.464844 63.730469 43.488281 66.757812 43.488281 70.496094 "/>
<path style=" stroke:none;fill-rule:nonzero;fill:rgb(100%,100%,99.607843%);fill-opacity:1;" d="M 43.269531 68.074219 C 43.269531 68.953125 42.652344 69.664062 41.886719 69.664062 C 41.125 69.664062 40.503906 68.953125 40.503906 68.074219 C 40.503906 67.191406 41.125 66.476562 41.886719 66.476562 C 42.652344 66.476562 43.269531 67.191406 43.269531 68.074219 "/>
<path style=" stroke:none;fill-rule:nonzero;fill:rgb(100%,100%,99.607843%);fill-opacity:1;" d="M 72.296875 68.074219 C 72.296875 68.953125 71.679688 69.664062 70.914062 69.664062 C 70.152344 69.664062 69.53125 68.953125 69.53125 68.074219 C 69.53125 67.191406 70.152344 66.476562 70.914062 66.476562 C 71.679688 66.476562 72.296875 67.191406 72.296875 68.074219 "/>
<path style="fill:none;stroke-width:7;stroke-linecap:round;stroke-linejoin:round;stroke:rgb(10.196078%,9.803922%,9.803922%);stroke-opacity:1;stroke-miterlimit:4;" d="M 172.561233 257.547461 C 172.561233 257.547461 165.786881 230.839062 139.35151 238.704395 C 116.73441 245.435156 113.424215 269.629102 113.424215 269.629102 M 497.991888 317.189062 C 470.078477 163.914746 578.021625 93.203418 626.643 74.912305 C 675.264376 56.590527 725.102055 67.322949 738.358231 90.688965 C 757.942268 78.683984 873.444978 156.862012 838.095175 313.24873 M 788.85795 179.691406 C 788.85795 179.691406 810.274141 216.93291 809.981612 284.48584 M 684.071034 156.862012 C 684.071034 156.862012 670.306781 211.168066 633.956222 246.569727 M 626.904737 182.849805 C 626.904737 182.849805 602.809597 258.666699 547.767983 290.557324 M 658.174532 509.759375 C 657.712644 516.919434 656.311585 530.794922 652.108407 538.307617 M 689.752252 509.42207 C 690.183347 516.490137 691.56901 530.687598 695.849169 538.307617 M 734.709319 494.534668 C 734.709319 494.534668 723.131334 518.467969 723.346882 546.387598 C 723.516241 567.729785 735.848642 589.715918 752.938485 598.470508 " transform="matrix(0.253714,0,0,0.254777,0,0)"/>
<path style="fill:none;stroke-width:6;stroke-linecap:round;stroke-linejoin:round;stroke:rgb(10.196078%,9.803922%,9.803922%);stroke-opacity:1;stroke-miterlimit:4;" d="M 748.873874 538.384277 C 748.873874 538.384277 765.855944 589.73125 749.597498 606.811133 " transform="matrix(0.253714,0,0,0.254777,0,0)"/>
<path style="fill:none;stroke-width:7;stroke-linecap:round;stroke-linejoin:round;stroke:rgb(10.196078%,9.803922%,9.803922%);stroke-opacity:1;stroke-miterlimit:4;" d="M 769.227724 469.068164 C 769.227724 469.068164 806.363492 510.17334 803.884695 554.712891 C 801.267332 601.797559 774.601017 610.138184 760.020763 614.308496 " transform="matrix(0.253714,0,0,0.254777,0,0)"/>
<path style="fill:none;stroke-width:6;stroke-linecap:round;stroke-linejoin:round;stroke:rgb(10.196078%,9.803922%,9.803922%);stroke-opacity:1;stroke-miterlimit:4;" d="M 775.848114 525.658691 C 775.848114 525.658691 796.263549 582.371875 751.922332 614.308496 " transform="matrix(0.253714,0,0,0.254777,0,0)"/>
<path style="fill:none;stroke-width:7;stroke-linecap:round;stroke-linejoin:round;stroke:rgb(10.196078%,9.803922%,9.803922%);stroke-opacity:1;stroke-miterlimit:4;" d="M 635.003167 503.764551 C 624.872431 505.175098 610.061233 508.885449 601.778048 518.498633 C 591.262405 530.748926 583.34873 554.237598 588.968363 566.058594 C 594.603392 577.87959 607.105152 593.088965 627.104888 594.545508 C 627.104888 594.545508 630.199535 606.366504 648.76742 610.383496 C 673.770939 615.795703 708.350929 609.555566 738.77393 589.96123 M 636.419623 518.498633 C 631.154103 521.749023 652.724257 547.997461 673.97109 558.622559 M 717.096002 518.498633 C 717.096002 518.498633 673.97109 570.688867 627.104888 594.545508 " transform="matrix(0.253714,0,0,0.254777,0,0)"/>
<path style="fill:none;stroke-width:6;stroke-linecap:round;stroke-linejoin:round;stroke:rgb(10.196078%,9.803922%,9.803922%);stroke-opacity:1;stroke-miterlimit:4;" d="M 648.76742 610.383496 C 648.76742 610.383496 637.928456 727.33623 640.022347 781.504297 M 696.203283 610.49082 C 696.203283 610.49082 693.524335 727.596875 699.267138 781.504297 M 719.605592 599.957715 C 719.605592 599.957715 732.938749 739.831836 733.770147 781.504297 M 607.105152 587.876074 L 640.853744 713.29209 M 757.095474 611.625391 C 757.095474 611.625391 736.064189 687.886914 729.182063 705.380762 " transform="matrix(0.253714,0,0,0.254777,0,0)"/>
<path style=" stroke:none;fill-rule:nonzero;fill:rgb(100%,100%,99.607843%);fill-opacity:1;" d="M 188.417969 81.558594 C 188.417969 82.347656 187.785156 82.988281 187.003906 82.988281 C 186.226562 82.988281 185.597656 82.347656 185.597656 81.558594 C 185.597656 80.765625 186.226562 80.125 187.003906 80.125 C 187.785156 80.125 188.417969 80.765625 188.417969 81.558594 "/>
</g>
</svg>
