<?xml version="1.0" encoding="UTF-8"?>
<svg xmlns="http://www.w3.org/2000/svg" xmlns:xlink="http://www.w3.org/1999/xlink" width="146pt" height="200pt" viewBox="0 0 146 200" version="1.1">
<defs>
<clipPath id="clip1">
  <path d="M 0 0.00390625 L 123 0.00390625 L 123 199.988281 L 0 199.988281 Z M 0 0.00390625 "/>
</clipPath>
<clipPath id="clip2">
  <path d="M 117 104 L 145.996094 104 L 145.996094 141 L 117 141 Z M 117 104 "/>
</clipPath>
</defs>
<g id="surface1">
<g clip-path="url(#clip1)" clip-rule="nonzero">
<path style=" stroke:none;fill-rule:nonzero;fill:rgb(43.137255%,25.490196%,0%);fill-opacity:1;" d="M 7.425781 75.269531 C 4.289062 69.515625 3.449219 63.304688 3.457031 56.957031 C 3.472656 47.703125 4.949219 38.652344 8.511719 30.089844 C 15.078125 14.292969 26.925781 4.566406 43.652344 1.179688 C 59.117188 -1.949219 73.519531 1.261719 86.753906 9.769531 C 87.441406 10.210938 88.117188 10.261719 88.855469 10.347656 C 94.480469 11.019531 99.714844 12.835938 104.519531 15.835938 C 112.796875 20.996094 117.84375 28.53125 120.53125 37.757812 C 122.5625 44.726562 122.972656 51.855469 122.601562 59.054688 C 122.292969 65.121094 121.527344 71.117188 119.644531 76.921875 C 119.210938 78.257812 118.703125 79.570312 118.152344 80.863281 C 117.925781 81.40625 117.917969 81.714844 118.390625 82.140625 C 122.042969 85.441406 121.277344 91.453125 119.105469 94.078125 C 117.703125 95.773438 115.816406 96.535156 113.738281 96.925781 C 112.464844 97.164062 111.175781 97.34375 109.886719 97.289062 C 109.074219 97.253906 108.90625 97.609375 108.804688 98.304688 C 107.667969 105.910156 106.019531 113.382812 102.871094 120.453125 C 100.679688 125.378906 97.796875 129.832031 93.699219 133.421875 C 92.273438 134.671875 90.742188 135.785156 89.054688 136.652344 C 88.46875 136.957031 88.492188 137.171875 88.792969 137.699219 C 93.886719 146.570312 98.03125 155.835938 100.394531 165.824219 C 101.28125 169.574219 101.773438 173.363281 101.113281 177.234375 C 99.878906 184.484375 93.425781 186.355469 88.679688 185.3125 C 86.390625 184.8125 84.304688 183.859375 82.351562 182.601562 C 81.851562 182.277344 81.660156 182.203125 81.542969 182.941406 C 80.738281 188.035156 79.878906 193.117188 79.035156 198.203125 C 78.804688 199.582031 78.300781 200 76.902344 200 C 61.027344 200 45.148438 200 29.269531 200 C 27.796875 200 27.046875 199.355469 26.933594 197.910156 C 26.59375 193.699219 26.296875 189.480469 26.136719 185.253906 C 25.980469 181.144531 25.914062 177.03125 26.03125 172.921875 C 26.34375 161.746094 27.441406 150.675781 30.875 139.949219 C 31.242188 138.8125 31.675781 137.695312 32.09375 136.574219 C 32.207031 136.265625 32.253906 136.050781 31.867188 135.882812 C 22.964844 131.953125 18.109375 124.652344 15.117188 115.804688 C 13.238281 110.261719 12.292969 104.535156 11.726562 98.734375 C 11.578125 97.183594 11.433594 95.628906 11.375 94.070312 C 11.351562 93.429688 11.09375 93.257812 10.539062 93.203125 C 9.191406 93.070312 7.859375 92.855469 6.554688 92.496094 C 2.289062 91.320312 0.148438 88.769531 0.0078125 84.679688 C -0.144531 80.308594 2.007812 77.113281 6.054688 75.699219 C 6.480469 75.550781 6.914062 75.429688 7.425781 75.269531 "/>
</g>
<g clip-path="url(#clip2)" clip-rule="nonzero">
<path style=" stroke:none;fill-rule:nonzero;fill:rgb(100%,44.313725%,39.215686%);fill-opacity:1;" d="M 145.988281 119.578125 C 145.988281 125.574219 142.5 129.785156 136.648438 130.984375 C 134.800781 131.367188 132.933594 131.675781 131.089844 132.082031 C 127.828125 132.796875 125.261719 134.546875 123.457031 137.371094 C 122.957031 138.15625 122.476562 138.957031 121.921875 139.703125 C 121.144531 140.746094 119.710938 140.988281 118.613281 140.320312 C 117.515625 139.65625 117.035156 138.242188 117.65625 137.101562 C 120.117188 132.582031 123.433594 129.015625 128.578125 127.515625 C 130.773438 126.875 133.027344 126.519531 135.269531 126.132812 C 138.726562 125.539062 140.414062 123.472656 141.023438 120.828125 C 141.226562 119.945312 141.167969 119.046875 140.953125 118.15625 C 139.988281 114.085938 135.632812 110.195312 131.46875 109.703125 C 129.453125 109.46875 127.964844 110.234375 126.996094 112.015625 C 126.652344 112.652344 126.445312 113.339844 126.226562 114.027344 C 125.773438 115.460938 124.402344 116.191406 123.042969 115.765625 C 121.710938 115.351562 120.992188 114.027344 121.378906 112.617188 C 122.382812 108.929688 124.34375 106.039062 128.234375 104.964844 C 131.078125 104.175781 133.855469 104.671875 136.457031 105.960938 C 141.171875 108.300781 144.523438 111.832031 145.878906 117.039062 C 146.109375 117.925781 145.917969 118.832031 145.988281 119.578125 "/>
</g>
<path style=" stroke:none;fill-rule:nonzero;fill:rgb(100%,44.313725%,39.215686%);fill-opacity:1;" d="M 108.605469 148.464844 C 108.613281 145.617188 110.042969 144.003906 113.207031 143.265625 C 115.582031 142.710938 117.542969 143.539062 118.542969 145.519531 C 119.5625 147.542969 118.949219 150.171875 117.167969 151.726562 C 115.078125 153.554688 112.203125 153.144531 110.277344 151.960938 C 109.039062 151.203125 108.601562 149.898438 108.605469 148.464844 "/>
<path style=" stroke:none;fill-rule:nonzero;fill:rgb(99.607843%,96.078431%,88.627451%);fill-opacity:1;" d="M 14.175781 79.167969 C 14.105469 73.738281 13.964844 68.304688 14.441406 62.882812 C 15.050781 55.90625 16.382812 49.117188 19.882812 42.925781 C 23.710938 36.164062 29.523438 31.714844 36.613281 28.796875 C 42.242188 26.476562 48.121094 25.472656 54.203125 25.597656 C 54.5625 25.605469 54.800781 25.683594 55.023438 25.996094 C 58.964844 31.46875 64.316406 35.230469 70.1875 38.316406 C 79.058594 42.976562 88.527344 45.851562 98.40625 47.421875 C 100.09375 47.6875 101.796875 47.886719 103.496094 48.066406 C 103.953125 48.117188 104.164062 48.273438 104.347656 48.6875 C 106.238281 52.96875 107.34375 57.453125 107.929688 62.089844 C 108.601562 67.4375 108.03125 72.753906 107.671875 78.074219 C 107.332031 83.1875 106.929688 88.300781 106.292969 93.390625 C 105.160156 102.390625 103.566406 111.285156 99.761719 119.617188 C 97.570312 124.421875 94.683594 128.726562 90.433594 131.996094 C 87.628906 134.152344 84.484375 135.570312 81.039062 136.347656 C 80.757812 136.410156 80.480469 136.511719 80.191406 136.265625 C 77.9375 134.367188 75.4375 134.511719 73.171875 135.953125 C 71.582031 136.964844 70.03125 137.152344 68.277344 137.148438 C 66.3125 137.140625 64.4375 136.890625 62.535156 136.3125 C 57.738281 134.859375 52.867188 133.664062 47.84375 133.3125 C 45.3125 133.136719 42.78125 133.179688 40.632812 134.882812 C 40.292969 135.152344 39.875 134.949219 39.5 134.882812 C 30.042969 133.230469 23.703125 127.691406 19.804688 119.109375 C 17.402344 113.820312 16.140625 108.226562 15.347656 102.507812 C 14.511719 96.464844 14.226562 90.386719 14.175781 84.296875 C 14.164062 82.585938 14.175781 80.875 14.175781 79.167969 "/>
<path style=" stroke:none;fill-rule:nonzero;fill:rgb(52.54902%,54.901961%,56.862745%);fill-opacity:1;" d="M 57.367188 3.300781 C 62.792969 3.597656 68.066406 4.644531 73.179688 6.480469 C 78.390625 8.351562 83.222656 10.921875 87.644531 14.253906 C 88.457031 14.867188 89.21875 14.808594 89.972656 14.070312 C 90.21875 13.828125 90.40625 13.765625 90.753906 13.835938 C 98.558594 15.367188 105.1875 18.960938 110.378906 25.046875 C 115.140625 30.625 117.5625 37.214844 118.761719 44.347656 C 119.585938 49.257812 119.671875 54.207031 119.421875 59.148438 C 119.078125 65.960938 118.121094 72.675781 115.507812 79.0625 C 115.191406 79.835938 114.90625 80.03125 114.089844 79.710938 C 113.261719 79.386719 112.351562 79.238281 111.460938 79.140625 C 110.886719 79.078125 110.761719 78.859375 110.800781 78.351562 C 110.941406 76.441406 111.035156 74.523438 111.191406 72.613281 C 111.445312 69.4375 111.433594 66.265625 111.1875 63.089844 C 110.863281 58.914062 109.992188 54.859375 108.625 50.90625 C 108.390625 50.226562 108.140625 49.550781 107.855469 48.890625 C 107.664062 48.441406 107.789062 48.328125 108.25 48.296875 C 109.460938 48.210938 110.113281 47.601562 110.078125 46.652344 C 110.039062 45.714844 109.324219 45.144531 108.109375 45.105469 C 95.199219 44.695312 83.066406 41.3125 71.601562 35.476562 C 67.164062 33.214844 63.097656 30.390625 59.683594 26.714844 C 57.582031 24.445312 55.890625 21.917969 54.878906 18.96875 C 54.5 17.863281 53.707031 17.410156 52.757812 17.726562 C 51.878906 18.027344 51.53125 18.882812 51.871094 19.960938 C 51.996094 20.359375 52.164062 20.746094 52.320312 21.136719 C 52.472656 21.519531 52.628906 21.902344 52.808594 22.34375 C 51.125 22.476562 49.511719 22.554688 47.910156 22.730469 C 39.640625 23.632812 32.105469 26.425781 25.523438 31.578125 C 18.644531 36.96875 14.820312 44.222656 12.828125 52.566406 C 11.902344 56.449219 11.429688 60.394531 11.164062 64.375 C 10.960938 67.367188 11.0625 70.367188 10.835938 73.355469 C 10.367188 73.328125 10.402344 72.910156 10.3125 72.628906 C 9.699219 70.675781 9.375 68.65625 9.175781 66.625 C 9.066406 65.523438 8.96875 64.417969 8.949219 63.304688 C 8.828125 57.480469 9.546875 51.75 10.832031 46.082031 C 12.132812 40.355469 13.933594 34.792969 16.625 29.550781 C 19.417969 24.113281 22.871094 19.140625 27.378906 14.980469 C 34.292969 8.601562 42.421875 4.726562 51.777344 3.503906 C 52.753906 3.375 53.75 3.328125 54.742188 3.359375 C 55.28125 3.359375 55.824219 3.359375 56.363281 3.359375 C 56.699219 3.335938 57.039062 3.417969 57.367188 3.300781 "/>
<path style=" stroke:none;fill-rule:nonzero;fill:rgb(99.607843%,99.607843%,99.607843%);fill-opacity:1;" d="M 40.613281 198.375 C 37.230469 198.375 33.894531 198.371094 30.558594 198.386719 C 29.984375 198.390625 30.144531 197.992188 30.117188 197.710938 C 29.734375 193.796875 29.496094 189.878906 29.332031 185.953125 C 29.035156 178.8125 29.050781 171.675781 29.609375 164.546875 C 30.308594 155.585938 31.675781 146.75 34.804688 138.257812 C 35.148438 137.324219 35.519531 137.109375 36.441406 137.441406 C 37.253906 137.734375 38.136719 137.832031 38.988281 138.007812 C 39.21875 138.054688 39.46875 138.027344 39.523438 138.363281 C 39.898438 140.726562 41.605469 141.976562 43.5 143.054688 C 43.863281 143.261719 44.089844 143.511719 44.234375 143.902344 C 44.671875 145.046875 45.136719 146.183594 45.589844 147.320312 C 46.128906 148.660156 46.722656 148.941406 48.148438 148.507812 C 48.429688 150.644531 49.492188 152.25 51.441406 153.21875 C 51.710938 153.355469 51.71875 153.542969 51.691406 153.804688 C 51.519531 155.546875 52.191406 156.972656 53.414062 158.15625 C 53.71875 158.449219 53.890625 158.71875 53.863281 159.160156 C 53.359375 167.777344 52.863281 176.402344 52.371094 185.023438 C 52.335938 185.652344 52.414062 186.300781 52.289062 186.90625 C 51.992188 188.328125 52.554688 189.277344 53.644531 190.152344 C 54.976562 191.222656 56.175781 192.453125 57.449219 193.601562 C 58.375 194.4375 59.050781 194.445312 59.988281 193.640625 C 61.511719 192.328125 63.015625 190.988281 64.542969 189.675781 C 65.039062 189.253906 65.265625 188.746094 65.242188 188.101562 C 65.042969 182.226562 64.839844 176.351562 64.648438 170.480469 C 64.566406 167.929688 64.53125 165.378906 64.410156 162.835938 C 64.367188 161.960938 64.710938 161.84375 65.496094 162.082031 C 64.691406 163.097656 65.105469 163.960938 65.71875 164.867188 C 69.375 170.285156 73.417969 175.371094 78.398438 179.660156 C 78.703125 179.921875 78.792969 180.167969 78.722656 180.582031 C 77.769531 186.320312 76.832031 192.058594 75.910156 197.796875 C 75.828125 198.300781 75.609375 198.390625 75.144531 198.386719 C 64.921875 198.375 54.695312 198.371094 44.46875 198.390625 C 43.929688 198.394531 43.773438 198.234375 43.6875 197.714844 C 42.085938 187.894531 40.457031 178.078125 38.851562 168.257812 C 38.472656 165.921875 38.171875 163.570312 37.816406 161.230469 C 37.632812 160.03125 36.945312 159.394531 36.03125 159.507812 C 35.015625 159.632812 34.488281 160.46875 34.683594 161.742188 C 35.398438 166.363281 36.117188 170.988281 36.859375 175.605469 C 37.851562 181.757812 38.871094 187.910156 39.878906 194.0625 C 40.113281 195.476562 40.359375 196.890625 40.613281 198.375 "/>
<path style=" stroke:none;fill-rule:nonzero;fill:rgb(99.607843%,99.607843%,99.607843%);fill-opacity:1;" d="M 77.199219 153.175781 C 80.296875 156.546875 83.402344 159.929688 86.507812 163.3125 C 88.195312 165.148438 89.875 166.988281 91.5625 168.820312 C 92.355469 169.679688 93.292969 169.800781 94.007812 169.160156 C 94.734375 168.515625 94.714844 167.546875 93.933594 166.695312 C 88.785156 161.082031 83.628906 155.46875 78.472656 149.859375 C 78.328125 149.703125 78.1875 149.476562 78.011719 149.4375 C 76.9375 149.191406 77.378906 148.554688 77.613281 147.980469 C 78.230469 146.472656 79.097656 145.109375 80.039062 143.789062 C 80.902344 142.582031 81.648438 141.324219 81.738281 139.792969 C 81.757812 139.421875 81.984375 139.371094 82.253906 139.296875 C 83.089844 139.0625 83.9375 138.859375 84.75 138.558594 C 85.304688 138.351562 85.582031 138.453125 85.890625 138.964844 C 87.546875 141.714844 89.011719 144.570312 90.375 147.46875 C 93.289062 153.65625 95.847656 159.980469 97.355469 166.675781 C 98.054688 169.789062 98.585938 172.941406 98.078125 176.128906 C 97.289062 181.105469 93.570312 183.410156 88.691406 182.066406 C 85.945312 181.308594 83.609375 179.808594 81.421875 178.046875 C 76.417969 174.007812 72.457031 169.042969 68.820312 163.796875 C 68.640625 163.539062 68.605469 163.363281 68.828125 163.097656 C 71.585938 159.8125 74.335938 156.515625 77.089844 153.222656 C 77.105469 153.203125 77.136719 153.199219 77.199219 153.175781 "/>
<path style=" stroke:none;fill-rule:nonzero;fill:rgb(99.607843%,96.078431%,88.627451%);fill-opacity:1;" d="M 46.914062 136.390625 C 50.386719 136.511719 53.742188 137.351562 57.101562 138.109375 C 61.375 139.074219 65.511719 140.503906 69.636719 141.957031 C 71.023438 142.445312 71.511719 142.230469 72.265625 140.949219 C 73.160156 139.429688 74.5 138.472656 76.25 138.136719 C 77.082031 137.976562 77.789062 138.210938 78.3125 138.910156 C 78.800781 139.558594 78.542969 140.179688 78.195312 140.75 C 77.554688 141.796875 76.84375 142.800781 76.195312 143.84375 C 74.660156 146.328125 73.59375 148.972656 73.609375 151.949219 C 73.613281 152.398438 73.371094 152.675781 73.128906 152.96875 C 72.019531 154.3125 70.832031 155.59375 69.8125 157 C 68.78125 158.421875 67.34375 158.945312 65.765625 158.855469 C 62.703125 158.683594 59.710938 158.042969 56.894531 156.75 C 56.519531 156.578125 56.167969 156.328125 55.847656 156.0625 C 54.78125 155.175781 54.59375 154.394531 55.105469 153.117188 C 55.664062 151.71875 55.167969 150.835938 53.703125 150.636719 C 53.050781 150.550781 52.515625 150.269531 52.058594 149.792969 C 50.851562 148.535156 51.207031 147.246094 52.894531 146.789062 C 54.421875 146.378906 54.84375 146.007812 54.832031 145.089844 C 54.820312 144.167969 54.359375 143.816406 52.859375 143.382812 C 49.828125 142.511719 46.851562 141.488281 44.183594 139.753906 C 43.605469 139.382812 43.050781 138.972656 42.773438 138.289062 C 42.492188 137.605469 42.621094 137.15625 43.367188 136.890625 C 44.519531 136.472656 45.707031 136.394531 46.914062 136.390625 "/>
<path style=" stroke:none;fill-rule:nonzero;fill:rgb(99.607843%,99.607843%,99.607843%);fill-opacity:1;" d="M 54.671875 3.429688 C 43.734375 4.285156 34.292969 8.460938 26.511719 16.203125 C 19.898438 22.777344 15.597656 30.75 12.84375 39.582031 C 10.375 47.503906 8.945312 55.597656 9.25 63.925781 C 9.367188 67.125 9.707031 70.3125 10.835938 73.355469 C 10.886719 73.792969 10.9375 74.226562 10.996094 74.761719 C 10.433594 74.304688 10.207031 73.722656 9.925781 73.1875 C 8.121094 69.796875 7.242188 66.128906 6.90625 62.347656 C 5.921875 51.183594 7.476562 40.324219 11.972656 30.082031 C 18.09375 16.140625 28.910156 7.664062 43.773438 4.347656 C 47.359375 3.550781 51 3.148438 54.683594 3.265625 C 54.742188 3.308594 54.761719 3.347656 54.738281 3.378906 C 54.714844 3.414062 54.691406 3.429688 54.671875 3.429688 "/>
<path style=" stroke:none;fill-rule:nonzero;fill:rgb(100%,74.901961%,44.313725%);fill-opacity:1;" d="M 62.03125 186.78125 C 62.191406 187.398438 61.910156 187.789062 61.445312 188.160156 C 60.675781 188.78125 59.941406 189.453125 59.214844 190.121094 C 58.894531 190.414062 58.675781 190.460938 58.328125 190.117188 C 57.515625 189.320312 56.660156 188.5625 55.792969 187.820312 C 55.445312 187.523438 55.410156 187.179688 55.433594 186.78125 C 55.796875 180.496094 56.152344 174.210938 56.511719 167.925781 C 56.640625 165.683594 56.777344 163.4375 56.886719 161.191406 C 56.921875 160.511719 57.085938 160.25 57.84375 160.53125 C 58.710938 160.855469 59.628906 161.054688 60.539062 161.234375 C 61.0625 161.335938 61.203125 161.566406 61.21875 162.074219 C 61.332031 165.96875 61.472656 169.863281 61.601562 173.757812 C 61.746094 178.101562 61.886719 182.445312 62.03125 186.78125 "/>
<path style=" stroke:none;fill-rule:nonzero;fill:rgb(99.607843%,96.078431%,88.627451%);fill-opacity:1;" d="M 11.136719 84.195312 C 11.136719 85.996094 11.128906 87.796875 11.144531 89.59375 C 11.144531 89.902344 11.179688 90.144531 10.75 90.078125 C 8.976562 89.792969 7.175781 89.605469 5.546875 88.746094 C 4.1875 88.03125 3.457031 86.890625 3.261719 85.398438 C 2.742188 81.417969 4.675781 78.929688 8.800781 78.238281 C 10.984375 77.875 10.984375 77.875 10.984375 80.054688 C 10.984375 80.746094 10.984375 81.4375 10.984375 82.125 C 10.984375 82.816406 10.984375 83.507812 10.984375 84.195312 C 11.035156 84.195312 11.085938 84.195312 11.136719 84.195312 "/>
<path style=" stroke:none;fill-rule:nonzero;fill:rgb(99.607843%,96.078431%,88.627451%);fill-opacity:1;" d="M 110.597656 94.09375 C 110.386719 94.113281 110.179688 94.132812 109.96875 94.148438 C 109.574219 94.183594 109.390625 94.105469 109.445312 93.609375 C 109.769531 90.605469 110.058594 87.597656 110.351562 84.589844 C 110.414062 83.964844 110.4375 83.335938 110.488281 82.707031 C 110.511719 82.371094 110.609375 82.167969 111.046875 82.242188 C 112.230469 82.4375 113.394531 82.699219 114.480469 83.230469 C 117.074219 84.503906 118.105469 86.578125 117.648438 89.605469 C 117.269531 92.085938 115.789062 93.433594 112.921875 93.867188 C 112.152344 93.984375 111.375 94.046875 110.601562 94.136719 C 110.601562 94.121094 110.597656 94.109375 110.597656 94.09375 "/>
<path style=" stroke:none;fill-rule:nonzero;fill:rgb(81.568627%,82.352941%,83.529412%);fill-opacity:1;" d="M 54.671875 3.429688 C 54.679688 3.375 54.683594 3.320312 54.683594 3.265625 C 55.28125 3.1875 55.878906 3.203125 56.472656 3.296875 C 56.539062 3.332031 56.5625 3.363281 56.535156 3.386719 C 56.511719 3.410156 56.488281 3.421875 56.460938 3.421875 C 55.863281 3.425781 55.269531 3.425781 54.671875 3.429688 "/>
<path style=" stroke:none;fill-rule:nonzero;fill:rgb(65.098039%,66.666667%,68.235294%);fill-opacity:1;" d="M 56.460938 3.421875 C 56.46875 3.382812 56.472656 3.339844 56.472656 3.296875 C 56.769531 3.300781 57.070312 3.300781 57.367188 3.300781 C 57.09375 3.558594 56.769531 3.417969 56.460938 3.421875 "/>
<path style=" stroke:none;fill-rule:nonzero;fill:rgb(100%,87.843137%,77.254902%);fill-opacity:1;" d="M 27.386719 98.414062 C 24.910156 98.261719 22.480469 97.878906 20.410156 96.394531 C 18.875 95.296875 17.710938 93.90625 17.871094 91.828125 C 18 90.144531 18.878906 88.796875 20.054688 87.71875 C 22.074219 85.859375 24.546875 84.929688 27.296875 85.082031 C 31.042969 85.292969 33.808594 86.957031 35.277344 90.519531 C 36.015625 92.300781 35.648438 94.039062 34.273438 95.410156 C 32.386719 97.285156 30.167969 98.511719 27.386719 98.414062 "/>
<path style=" stroke:none;fill-rule:nonzero;fill:rgb(100%,87.843137%,77.254902%);fill-opacity:1;" d="M 95.058594 88.453125 C 98.253906 88.453125 100.851562 90.101562 102.316406 93.507812 C 102.871094 94.800781 102.558594 96.519531 101.59375 97.59375 C 99.964844 99.410156 97.980469 100.667969 95.523438 100.679688 C 92.320312 100.699219 89.25 100.085938 87.019531 97.429688 C 85.941406 96.144531 85.910156 93.980469 86.957031 92.390625 C 88.753906 89.660156 91.335938 88.4375 95.058594 88.453125 "/>
<path style=" stroke:none;fill-rule:nonzero;fill:rgb(43.137255%,25.490196%,0%);fill-opacity:1;" d="M 47.109375 75.425781 C 47.117188 76.753906 46.75 77.964844 45.921875 79.011719 C 44.296875 81.074219 41.394531 80.777344 40.230469 78.4375 C 39.164062 76.292969 39.816406 73.160156 41.652344 71.625 C 42.867188 70.605469 44.28125 70.628906 45.46875 71.691406 C 46.582031 72.683594 47.109375 73.882812 47.109375 75.425781 "/>
<path style=" stroke:none;fill-rule:nonzero;fill:rgb(43.137255%,25.490196%,0%);fill-opacity:1;" d="M 75.421875 77.542969 C 75.484375 75.757812 76.050781 74.1875 77.472656 73.027344 C 78.617188 72.089844 79.964844 72.140625 81.085938 73.09375 C 83.390625 75.054688 83.417969 79.003906 81.136719 81.011719 C 79.519531 82.4375 77.101562 82.027344 76.054688 80.136719 C 75.609375 79.335938 75.386719 78.472656 75.421875 77.542969 "/>
<path style=" stroke:none;fill-rule:nonzero;fill:rgb(43.137255%,25.490196%,0%);fill-opacity:1;" d="M 59.558594 116.542969 C 62.179688 116.585938 64.011719 117.9375 65.332031 120.082031 C 65.765625 120.785156 65.554688 121.570312 64.917969 121.972656 C 64.277344 122.378906 63.511719 122.226562 63.039062 121.511719 C 62.320312 120.425781 61.476562 119.507812 60.128906 119.296875 C 58.527344 119.042969 57.257812 119.699219 56.242188 120.902344 C 56.050781 121.128906 55.898438 121.390625 55.71875 121.632812 C 55.226562 122.292969 54.476562 122.464844 53.824219 122.070312 C 53.191406 121.691406 53.027344 120.910156 53.421875 120.175781 C 54.589844 118 57.035156 116.554688 59.558594 116.542969 "/>
<path style=" stroke:none;fill-rule:nonzero;fill:rgb(43.137255%,25.490196%,0%);fill-opacity:1;" d="M 80.417969 49.417969 C 78.429688 49.429688 76.542969 48.042969 75.929688 46.136719 C 75.707031 45.449219 75.929688 44.945312 76.546875 44.648438 C 77.199219 44.332031 77.710938 44.609375 78.074219 45.183594 C 78.214844 45.410156 78.296875 45.675781 78.441406 45.902344 C 79.285156 47.234375 80.6875 47.445312 81.886719 46.433594 C 81.957031 46.375 82.011719 46.304688 82.082031 46.246094 C 82.628906 45.808594 83.210938 45.785156 83.699219 46.277344 C 84.226562 46.804688 84.1875 47.398438 83.691406 47.960938 C 82.914062 48.851562 81.664062 49.410156 80.417969 49.417969 "/>
<path style=" stroke:none;fill-rule:nonzero;fill:rgb(43.137255%,25.490196%,0%);fill-opacity:1;" d="M 44.210938 42.742188 C 45.851562 42.761719 47.007812 43.386719 47.910156 44.480469 C 48.375 45.042969 48.386719 45.667969 47.835938 46.167969 C 47.316406 46.640625 46.742188 46.570312 46.214844 46.109375 C 44.480469 44.589844 43.441406 44.742188 42.183594 46.703125 C 41.789062 47.320312 41.265625 47.558594 40.578125 47.238281 C 39.945312 46.945312 39.742188 46.261719 40.113281 45.558594 C 41.019531 43.839844 42.414062 42.835938 44.210938 42.742188 "/>
<path style=" stroke:none;fill-rule:nonzero;fill:rgb(43.137255%,25.490196%,0%);fill-opacity:1;" d="M 62.453125 84.53125 C 62.511719 85.5 62.167969 86.007812 61.53125 86.265625 C 60.902344 86.527344 60.269531 86.445312 59.796875 85.914062 C 58.984375 85.003906 58.671875 83.878906 58.660156 82.695312 C 58.652344 81.988281 59.140625 81.542969 59.800781 81.359375 C 60.429688 81.183594 61.101562 81.3125 61.394531 81.878906 C 61.867188 82.792969 62.167969 83.792969 62.453125 84.53125 "/>
</g>
</svg>
