<?xml version="1.0" encoding="UTF-8"?>
<svg xmlns="http://www.w3.org/2000/svg" xmlns:xlink="http://www.w3.org/1999/xlink" width="228pt" height="200pt" viewBox="0 0 228 200" version="1.1">
<g id="surface1">
<path style=" stroke:none;fill-rule:nonzero;fill:rgb(49.019608%,30.196078%,24.705882%);fill-opacity:1;" d="M 195.082031 128.171875 C 208.1875 127.558594 210.804688 119.847656 210.804688 119.847656 L 213.25 129.636719 C 218.589844 125.210938 220.617188 108.828125 221.191406 102.792969 L 223.890625 83.136719 C 229.792969 30.988281 203.183594 31.363281 203.183594 31.363281 C 197.894531 19.5 155.601562 11.964844 136.15625 40.308594 C 123.871094 58.222656 129.066406 84.03125 129.066406 84.03125 L 135.691406 104.472656 C 136.820312 109.78125 138.695312 121.324219 135.324219 127.566406 C 135.324219 127.566406 143.644531 125.875 144.585938 123.234375 C 144.585938 123.234375 146.410156 127.027344 156.804688 127.636719 "/>
<path style=" stroke:none;fill-rule:nonzero;fill:rgb(60%,78.039216%,38.431373%);fill-opacity:1;" d="M 216.273438 198.972656 C 219.746094 163.378906 217.296875 146.941406 210.921875 145.199219 C 207.773438 144.335938 189.265625 139.160156 183.175781 136.863281 L 170.011719 136.789062 C 163.921875 139.085938 145.226562 144.335938 142.078125 145.199219 C 135.707031 146.941406 133.253906 163.378906 136.34375 198.972656 L 216.273438 198.972656 "/>
<path style=" stroke:none;fill-rule:nonzero;fill:rgb(97.254902%,82.352941%,70.980392%);fill-opacity:1;" d="M 199.46875 141.304688 C 195.082031 153.050781 176.640625 154.902344 165.835938 151.210938 C 156.871094 148.148438 152.96875 141.476562 152.96875 141.476562 L 170.921875 136.328125 L 182.996094 136.863281 L 199 141.359375 "/>
<path style=" stroke:none;fill-rule:nonzero;fill:rgb(97.254902%,82.352941%,70.980392%);fill-opacity:1;" d="M 171.394531 132.859375 L 170.855469 138.613281 C 170.855469 138.613281 174.101562 143.039062 176.96875 143.039062 C 181.203125 143.039062 182.945312 137.222656 182.945312 137.222656 L 182.699219 132.621094 "/>
<path style=" stroke:none;fill-rule:nonzero;fill:rgb(66.666667%,72.54902%,83.137255%);fill-opacity:1;" d="M 42.035156 127.417969 C 42.035156 127.417969 16.609375 137.597656 12.828125 138.691406 C 6.480469 140.527344 1.800781 159.414062 1.800781 199.160156 L 101.925781 199.160156 C 101.925781 159.414062 97.246094 140.527344 90.898438 138.691406 C 87.117188 137.597656 61.234375 129.746094 61.234375 129.746094 L 42.503906 127.417969 "/>
<path style=" stroke:none;fill-rule:nonzero;fill:rgb(83.529412%,89.803922%,93.333333%);fill-opacity:1;" d="M 1.753906 198.878906 C 1.753906 198.878906 2.316406 172.136719 4.292969 158.671875 C 6.269531 145.207031 11.441406 139.179688 11.441406 139.179688 C 11.441406 139.179688 32.074219 132.804688 39.785156 129.910156 L 38.136719 135.800781 C 38.136719 135.800781 15.078125 140.867188 11.722656 144.738281 C 7.011719 150.171875 5.046875 198.878906 5.046875 198.878906 L 1.753906 198.878906 "/>
<path style=" stroke:none;fill-rule:nonzero;fill:rgb(83.529412%,89.803922%,93.333333%);fill-opacity:1;" d="M 68.1875 131.738281 C 68.1875 131.738281 90.898438 138.476562 91.933594 139.039062 C 92.515625 139.359375 93.667969 140.574219 94.980469 143.058594 C 94.953125 142.960938 97.390625 148.660156 97.332031 148.675781 C 95.914062 146.988281 92.191406 143.257812 90.121094 142.507812 C 86.765625 141.289062 68.1875 136.472656 68.1875 136.472656 L 68.1875 131.738281 "/>
<path style=" stroke:none;fill-rule:nonzero;fill:rgb(97.254902%,82.352941%,70.980392%);fill-opacity:1;" d="M 59.519531 129.152344 C 59.53125 127.015625 59.265625 121.921875 59.265625 121.921875 L 44.449219 121.921875 C 44.449219 121.921875 44.328125 127.296875 44.371094 128.777344 L 40.167969 130.363281 L 44.371094 135.800781 L 51.234375 149.207031 L 59.183594 135.800781 L 63.648438 130.578125 L 59.519531 129.152344 "/>
<path style=" stroke:none;fill-rule:nonzero;fill:rgb(46.27451%,31.372549%,29.019608%);fill-opacity:1;" d="M 6.996094 70.84375 C 4.597656 64.113281 5.046875 60.246094 5.046875 60.246094 L 3.140625 63.898438 C -5.605469 29.765625 12.875 23.578125 12.875 23.578125 C 12.875 23.578125 5.558594 21.320312 5.761719 14.117188 C 5.761719 14.117188 15.839844 16.515625 26.9375 10.019531 C 37.210938 4.003906 51.785156 -0.105469 66.539062 2.710938 C 79.847656 5.253906 82.433594 14.699219 82.433594 14.699219 C 82.433594 14.699219 95.652344 16.597656 100.632812 30.847656 C 105.996094 46.179688 101.480469 61.007812 101.480469 61.007812 L 100.101562 56.933594 C 100.101562 56.933594 99.808594 62.980469 96.398438 71.007812 L 94.941406 75.105469 L 8.972656 76.988281 L 6.996094 70.84375 "/>
<path style=" stroke:none;fill-rule:nonzero;fill:rgb(74.509804%,58.823529%,52.156863%);fill-opacity:1;" d="M 7.183594 71.4375 L 8.972656 76.988281 L 11.582031 76.929688 L 7.234375 71.476562 C 7.222656 71.476562 7.203125 71.453125 7.183594 71.4375 Z M 100.632812 30.847656 C 95.652344 16.597656 82.433594 14.699219 82.433594 14.699219 C 82.433594 14.699219 79.847656 5.253906 66.539062 2.710938 C 51.785156 -0.105469 37.210938 4.003906 26.9375 10.019531 C 15.839844 16.515625 5.761719 14.117188 5.761719 14.117188 C 5.558594 21.320312 12.875 23.578125 12.875 23.578125 C 12.875 23.578125 -5.605469 29.765625 3.140625 63.898438 L 3.453125 63.304688 C 3.375 62.949219 3.308594 62.609375 3.28125 62.296875 C 0.601562 31.789062 17.289062 23.6875 17.289062 23.6875 C 17.289062 23.6875 19.046875 18.105469 30.148438 11.609375 C 40.421875 5.597656 53.855469 2.59375 68.703125 4.859375 C 83.3125 7.09375 83.191406 19.117188 83.191406 19.117188 C 83.191406 19.117188 97.066406 21.8125 102.117188 36.140625 C 101.738281 34.398438 101.257812 32.625 100.632812 30.847656 "/>
<path style=" stroke:none;fill-rule:nonzero;fill:rgb(97.254902%,82.352941%,70.980392%);fill-opacity:1;" d="M 16.828125 95.746094 C 4.835938 96.3125 -0.527344 79.746094 3.707031 73.816406 C 6.757812 69.535156 12.925781 72.285156 14.078125 74.632812 "/>
<path style=" stroke:none;fill-rule:nonzero;fill:rgb(82.745098%,60%,52.156863%);fill-opacity:1;" d="M 13.8125 81.308594 C 14.941406 84.554688 16.398438 89.351562 14.183594 90.125 C 11.964844 90.902344 9.253906 88.898438 8.121094 85.65625 C 6.988281 82.414062 7.867188 79.152344 10.082031 78.378906 C 12.304688 77.601562 12.679688 78.066406 13.8125 81.308594 "/>
<path style=" stroke:none;fill-rule:nonzero;fill:rgb(97.254902%,82.352941%,70.980392%);fill-opacity:1;" d="M 87.371094 95.746094 C 99.363281 96.3125 104.726562 79.746094 100.492188 73.816406 C 97.441406 69.535156 91.273438 72.285156 90.117188 74.632812 "/>
<path style=" stroke:none;fill-rule:nonzero;fill:rgb(82.745098%,60%,52.156863%);fill-opacity:1;" d="M 44.695312 119.800781 L 59.027344 119.800781 L 59.183594 127.050781 C 59.183594 127.050781 51.488281 133.5 44.292969 129.636719 L 44.5625 125.378906 L 44.695312 119.800781 "/>
<path style=" stroke:none;fill-rule:nonzero;fill:rgb(97.254902%,82.352941%,70.980392%);fill-opacity:1;" d="M 29.179688 36.261719 C 14.851562 39.824219 14.144531 63.898438 14.144531 63.898438 C 13.820312 76.730469 14.398438 98.789062 22.1875 107.1875 C 29.925781 115.53125 37.425781 119.617188 44.058594 121.59375 C 44.058594 121.59375 52.238281 124.324219 60.140625 121.59375 C 66.773438 119.617188 74.269531 115.53125 82.011719 107.1875 C 90.5 98.035156 90.425781 72.449219 89.945312 60.714844 C 89.804688 57.238281 87.898438 53.265625 87.066406 52.273438 C 74.957031 37.84375 74.988281 28.925781 74.988281 28.925781 L 73.285156 30.976562 C 70.164062 34.097656 64.414062 37.207031 53.894531 38.757812 C 53.894531 38.757812 57.65625 25.953125 60.667969 23.691406 C 60.667969 23.691406 47.5 40.449219 26.054688 44.40625 C 26.054688 44.40625 26.726562 41.5 28.480469 37.707031 L 29.179688 36.261719 "/>
<path style=" stroke:none;fill-rule:nonzero;fill:rgb(10.196078%,9.803922%,9.803922%);fill-opacity:1;" d="M 41.296875 54.09375 C 40.828125 54.488281 39.601562 53.714844 37.824219 52.632812 C 36.074219 51.570312 33.625 50.226562 31.300781 50.566406 C 28.960938 50.84375 26.953125 52.730469 25.753906 54.222656 C 24.507812 55.734375 24.039062 56.882812 23.457031 56.933594 C 23.171875 56.953125 22.851562 56.578125 22.722656 55.832031 C 22.597656 55.09375 22.675781 54.027344 23.09375 52.820312 C 23.511719 51.617188 24.257812 50.253906 25.496094 49 C 26.71875 47.761719 28.550781 46.621094 30.753906 46.34375 C 32.957031 46.046875 35.015625 46.6875 36.496094 47.542969 C 38 48.40625 39.0625 49.449219 39.824219 50.382812 C 41.335938 52.273438 41.726562 53.738281 41.296875 54.09375 "/>
<path style=" stroke:none;fill-rule:nonzero;fill:rgb(10.196078%,9.803922%,9.803922%);fill-opacity:1;" d="M 62.902344 54.09375 C 62.46875 53.738281 62.859375 52.273438 64.371094 50.382812 C 65.136719 49.449219 66.199219 48.40625 67.703125 47.542969 C 69.179688 46.6875 71.238281 46.046875 73.445312 46.34375 C 75.648438 46.621094 77.476562 47.761719 78.699219 49 C 79.941406 50.253906 80.6875 51.617188 81.105469 52.820312 C 81.523438 54.027344 81.597656 55.09375 81.472656 55.832031 C 81.34375 56.578125 81.027344 56.953125 80.738281 56.933594 C 80.15625 56.882812 79.6875 55.734375 78.441406 54.222656 C 77.246094 52.730469 75.234375 50.84375 72.894531 50.566406 C 70.570312 50.226562 68.125 51.570312 66.371094 52.632812 C 64.597656 53.714844 63.367188 54.488281 62.902344 54.09375 "/>
<path style=" stroke:none;fill-rule:nonzero;fill:rgb(92.941176%,61.960784%,60%);fill-opacity:1;" d="M 33.886719 84.84375 C 33.886719 86.394531 30.402344 87.648438 26.109375 87.648438 C 21.816406 87.648438 18.335938 86.394531 18.335938 84.84375 C 18.335938 83.296875 21.816406 82.046875 26.109375 82.046875 C 30.402344 82.046875 33.886719 83.296875 33.886719 84.84375 "/>
<path style=" stroke:none;fill-rule:nonzero;fill:rgb(92.941176%,61.960784%,60%);fill-opacity:1;" d="M 86.585938 84.84375 C 86.585938 86.394531 83.105469 87.648438 78.808594 87.648438 C 74.515625 87.648438 71.035156 86.394531 71.035156 84.84375 C 71.035156 83.296875 74.515625 82.046875 78.808594 82.046875 C 83.105469 82.046875 86.585938 83.296875 86.585938 84.84375 "/>
<path style=" stroke:none;fill-rule:nonzero;fill:rgb(82.745098%,60%,52.156863%);fill-opacity:1;" d="M 90.386719 81.308594 C 89.253906 84.554688 87.796875 89.351562 90.011719 90.125 C 92.230469 90.902344 94.945312 88.898438 96.074219 85.65625 C 97.207031 82.414062 96.328125 79.152344 94.113281 78.378906 C 91.894531 77.601562 91.519531 78.066406 90.386719 81.308594 "/>
<path style=" stroke:none;fill-rule:nonzero;fill:rgb(74.509804%,58.823529%,52.156863%);fill-opacity:1;" d="M 45.382812 21.875 C 45.382812 21.875 32.167969 24.992188 26.75 43.9375 L 31.226562 43.03125 C 31.226562 43.03125 35.660156 28.769531 45.382812 21.875 "/>
<path style=" stroke:none;fill-rule:nonzero;fill:rgb(74.509804%,58.823529%,52.156863%);fill-opacity:1;" d="M 64.042969 22.136719 C 64.042969 22.136719 58.367188 23.320312 54.589844 38.378906 L 58.308594 37.765625 C 58.308594 37.765625 59.578125 27.222656 64.042969 22.136719 "/>
<path style="fill:none;stroke-width:8;stroke-linecap:round;stroke-linejoin:round;stroke:rgb(10.196078%,9.803922%,9.803922%);stroke-opacity:1;stroke-miterlimit:4;" d="M 313.8946 423.348047 C 302.577782 440.927051 276.552563 472.33418 231.302597 472.33418 C 186.069936 472.33418 160.044716 440.927051 148.727899 423.348047 " transform="matrix(0.225743,0,0,0.225989,0,0)"/>
<path style=" stroke:none;fill-rule:nonzero;fill:rgb(81.176471%,58.431373%,49.411765%);fill-opacity:1;" d="M 171.382812 128.398438 L 182.699219 128.398438 L 182.796875 133.910156 C 182.796875 133.910156 181.402344 139.003906 170.597656 138.574219 L 171.023438 134.917969 L 171.382812 128.398438 "/>
<path style=" stroke:none;fill-rule:nonzero;fill:rgb(87.843137%,71.764706%,62.352941%);fill-opacity:1;" d="M 203.550781 31.945312 C 198.261719 20.082031 155.601562 11.964844 136.15625 40.308594 C 123.871094 58.222656 128.816406 83.171875 128.816406 83.171875 L 132.6875 82.21875 C 132.6875 82.21875 130.539062 48.632812 150.226562 34.101562 C 172.765625 17.472656 203.550781 31.945312 203.550781 31.945312 "/>
<path style=" stroke:none;fill-rule:nonzero;fill:rgb(97.254902%,82.352941%,70.980392%);fill-opacity:1;" d="M 138.640625 85.113281 C 138.640625 85.113281 136.363281 80.6875 132.074219 82.027344 C 123.128906 84.828125 125.996094 104.238281 140.777344 105.910156 "/>
<path style=" stroke:none;fill-rule:nonzero;fill:rgb(97.254902%,82.352941%,70.980392%);fill-opacity:1;" d="M 214.90625 85.1875 C 214.90625 85.1875 217.183594 80.761719 221.472656 82.101562 C 230.417969 84.902344 228.042969 104.3125 213.027344 105.988281 "/>
<path style=" stroke:none;fill-rule:nonzero;fill:rgb(97.254902%,82.352941%,70.980392%);fill-opacity:1;" d="M 214.539062 80.933594 C 214.890625 88.433594 214.609375 100.410156 211.367188 110.128906 C 205.300781 128.308594 185.945312 132.429688 176.753906 132.429688 C 167.566406 132.429688 148.207031 128.308594 142.140625 110.128906 C 138.710938 99.859375 138.597656 87.058594 139.039062 79.695312 C 151.949219 44.40625 194.976562 47.371094 194.976562 47.371094 L 199.96875 40.308594 L 198.757812 48.5 C 198.757812 48.5 202.78125 66.671875 214.539062 80.933594 "/>
<path style=" stroke:none;fill-rule:nonzero;fill:rgb(100%,100%,99.607843%);fill-opacity:1;" d="M 166.730469 88.238281 C 166.730469 93.851562 163.246094 98.398438 158.949219 98.398438 C 154.652344 98.398438 151.167969 93.851562 151.167969 88.238281 C 151.167969 82.628906 154.652344 78.082031 158.949219 78.082031 C 163.246094 78.082031 166.730469 82.628906 166.730469 88.238281 "/>
<path style=" stroke:none;fill-rule:nonzero;fill:rgb(100%,100%,99.607843%);fill-opacity:1;" d="M 202.757812 88.238281 C 202.757812 93.851562 199.273438 98.398438 194.976562 98.398438 C 190.679688 98.398438 187.195312 93.851562 187.195312 88.238281 C 187.195312 82.628906 190.679688 78.082031 194.976562 78.082031 C 199.273438 78.082031 202.757812 82.628906 202.757812 88.238281 "/>
<path style=" stroke:none;fill-rule:nonzero;fill:rgb(10.196078%,9.803922%,9.803922%);fill-opacity:1;" d="M 165.515625 89.707031 C 165.515625 93.527344 163.367188 96.628906 160.71875 96.628906 C 158.070312 96.628906 155.921875 93.527344 155.921875 89.707031 C 155.921875 85.882812 158.070312 82.785156 160.71875 82.785156 C 163.367188 82.785156 165.515625 85.882812 165.515625 89.707031 "/>
<path style=" stroke:none;fill-rule:nonzero;fill:rgb(10.196078%,9.803922%,9.803922%);fill-opacity:1;" d="M 188.277344 89.707031 C 188.277344 93.527344 190.421875 96.628906 193.074219 96.628906 C 195.722656 96.628906 197.871094 93.527344 197.871094 89.707031 C 197.871094 85.882812 195.722656 82.785156 193.074219 82.785156 C 190.421875 82.785156 188.277344 85.882812 188.277344 89.707031 "/>
<path style=" stroke:none;fill-rule:nonzero;fill:rgb(92.54902%,59.607843%,58.823529%);fill-opacity:1;" d="M 154.625 99.542969 C 154.625 101.300781 151.667969 102.726562 148.019531 102.726562 C 144.371094 102.726562 141.410156 101.300781 141.410156 99.542969 C 141.410156 97.789062 144.371094 96.363281 148.019531 96.363281 C 151.667969 96.363281 154.625 97.789062 154.625 99.542969 "/>
<path style=" stroke:none;fill-rule:nonzero;fill:rgb(92.54902%,59.607843%,58.823529%);fill-opacity:1;" d="M 212.160156 99.542969 C 212.160156 101.300781 209.203125 102.726562 205.554688 102.726562 C 201.902344 102.726562 198.945312 101.300781 198.945312 99.542969 C 198.945312 97.789062 201.902344 96.363281 205.554688 96.363281 C 209.203125 96.363281 212.160156 97.789062 212.160156 99.542969 "/>
<path style=" stroke:none;fill-rule:nonzero;fill:rgb(100%,100%,99.607843%);fill-opacity:1;" d="M 165.433594 87.390625 C 165.433594 88.171875 164.796875 88.808594 164.015625 88.808594 C 163.234375 88.808594 162.597656 88.171875 162.597656 87.390625 C 162.597656 86.605469 163.234375 85.96875 164.015625 85.96875 C 164.796875 85.96875 165.433594 86.605469 165.433594 87.390625 "/>
<path style=" stroke:none;fill-rule:nonzero;fill:rgb(100%,100%,99.607843%);fill-opacity:1;" d="M 197.5 87.390625 C 197.5 88.171875 196.867188 88.808594 196.082031 88.808594 C 195.300781 88.808594 194.664062 88.171875 194.664062 87.390625 C 194.664062 86.605469 195.300781 85.96875 196.082031 85.96875 C 196.867188 85.96875 197.5 86.605469 197.5 87.390625 "/>
<path style=" stroke:none;fill-rule:nonzero;fill:rgb(81.176471%,58.431373%,49.411765%);fill-opacity:1;" d="M 139.695312 99.789062 L 139.035156 92.644531 C 139.035156 92.644531 137.183594 88.21875 134.332031 87.53125 C 130.664062 86.648438 130.589844 92.566406 133.109375 95.90625 C 136.964844 101.023438 139.695312 99.789062 139.695312 99.789062 "/>
<path style=" stroke:none;fill-rule:nonzero;fill:rgb(81.176471%,58.431373%,49.411765%);fill-opacity:1;" d="M 214.378906 99.789062 L 215.035156 92.644531 C 215.035156 92.644531 216.890625 88.21875 219.738281 87.53125 C 223.40625 86.648438 223.484375 92.566406 220.960938 95.90625 C 217.105469 101.023438 214.378906 99.789062 214.378906 99.789062 "/>
<path style=" stroke:none;fill-rule:nonzero;fill:rgb(82.352941%,87.843137%,92.156863%);fill-opacity:1;" d="M 159.636719 80.570312 C 161.4375 80.570312 163.15625 80.894531 164.738281 81.472656 C 163.316406 79.394531 161.253906 78.082031 158.949219 78.082031 C 156.347656 78.082031 154.054688 79.753906 152.640625 82.3125 C 154.703125 81.210938 157.085938 80.570312 159.636719 80.570312 "/>
<path style=" stroke:none;fill-rule:nonzero;fill:rgb(82.352941%,87.843137%,92.156863%);fill-opacity:1;" d="M 194.339844 80.570312 C 192.539062 80.570312 190.824219 80.894531 189.238281 81.472656 C 190.664062 79.394531 192.726562 78.082031 195.027344 78.082031 C 197.628906 78.082031 199.921875 79.753906 201.335938 82.3125 C 199.273438 81.210938 196.890625 80.570312 194.339844 80.570312 "/>
<path style=" stroke:none;fill-rule:nonzero;fill:rgb(87.843137%,71.764706%,62.352941%);fill-opacity:1;" d="M 142.4375 38.144531 C 154.757812 42.285156 162.941406 42.332031 167.527344 41.699219 C 170.605469 41.277344 168.984375 40.171875 167.578125 39.925781 C 153.144531 37.394531 148.835938 31.84375 148.835938 31.84375 L 142.4375 38.144531 "/>
<path style=" stroke:none;fill-rule:nonzero;fill:rgb(66.666667%,72.54902%,83.137255%);fill-opacity:1;" d="M 38.136719 126.375 C 37.820312 128.269531 44.371094 135.800781 44.371094 135.800781 L 37.617188 149.207031 C 37.617188 149.207031 31.554688 135.164062 33.558594 131.738281 L 38.136719 126.375 "/>
<path style=" stroke:none;fill-rule:nonzero;fill:rgb(48.235294%,57.254902%,74.117647%);fill-opacity:1;" d="M 38.136719 126.375 C 38.449219 124.484375 44.34375 123.738281 44.34375 123.738281 L 44.1875 128.726562 L 40.675781 130.363281 L 38.136719 126.375 "/>
<path style=" stroke:none;fill-rule:nonzero;fill:rgb(48.235294%,57.254902%,74.117647%);fill-opacity:1;" d="M 65.726562 126.375 C 65.410156 124.484375 59.515625 123.738281 59.515625 123.738281 L 59.671875 128.726562 L 63.183594 130.363281 L 65.726562 126.375 "/>
<path style=" stroke:none;fill-rule:nonzero;fill:rgb(66.666667%,72.54902%,83.137255%);fill-opacity:1;" d="M 65.753906 126.375 L 70.332031 131.738281 C 72.332031 135.164062 66.273438 149.207031 66.273438 149.207031 L 59.519531 135.800781 C 59.519531 135.800781 66.070312 128.269531 65.753906 126.375 "/>
<path style=" stroke:none;fill-rule:nonzero;fill:rgb(48.235294%,57.254902%,74.117647%);fill-opacity:1;" d="M 48.113281 143.113281 L 44.292969 135.960938 L 38.136719 148.183594 C 38.136719 148.183594 44.796875 141.488281 48.113281 143.113281 "/>
<path style=" stroke:none;fill-rule:nonzero;fill:rgb(48.235294%,57.254902%,74.117647%);fill-opacity:1;" d="M 55.746094 143.113281 L 59.570312 135.960938 L 65.726562 148.183594 C 65.726562 148.183594 59.0625 141.488281 55.746094 143.113281 "/>
<path style=" stroke:none;fill-rule:nonzero;fill:rgb(80.392157%,87.45098%,58.431373%);fill-opacity:1;" d="M 153.160156 142.050781 C 153.160156 142.050781 143.894531 143.230469 141.199219 145.761719 C 138.503906 148.289062 133.960938 157.5625 134.96875 167.679688 C 135.980469 177.792969 136.34375 198.972656 136.34375 198.972656 L 140.285156 198.921875 C 140.285156 198.921875 138.546875 172.953125 139.21875 166.039062 C 139.894531 159.128906 141.164062 152.839844 144.039062 149.945312 C 148.140625 145.820312 155.300781 145.515625 155.300781 145.515625 L 153.160156 142.050781 "/>
<path style=" stroke:none;fill-rule:nonzero;fill:rgb(100%,100%,99.607843%);fill-opacity:1;" d="M 41.277344 70.890625 C 41.277344 76.027344 38.089844 80.191406 34.15625 80.191406 C 30.226562 80.191406 27.035156 76.027344 27.035156 70.890625 C 27.035156 65.757812 30.226562 61.59375 34.15625 61.59375 C 38.089844 61.59375 41.277344 65.757812 41.277344 70.890625 "/>
<path style=" stroke:none;fill-rule:nonzero;fill:rgb(10.196078%,9.803922%,9.803922%);fill-opacity:1;" d="M 40.167969 72.234375 C 40.167969 75.730469 38.199219 78.570312 35.777344 78.570312 C 33.351562 78.570312 31.386719 75.730469 31.386719 72.234375 C 31.386719 68.734375 33.351562 65.898438 35.777344 65.898438 C 38.199219 65.898438 40.167969 68.734375 40.167969 72.234375 "/>
<path style=" stroke:none;fill-rule:nonzero;fill:rgb(100%,100%,99.607843%);fill-opacity:1;" d="M 40.089844 70.113281 C 40.089844 70.828125 39.507812 71.410156 38.792969 71.410156 C 38.078125 71.410156 37.496094 70.828125 37.496094 70.113281 C 37.496094 69.394531 38.078125 68.816406 38.792969 68.816406 C 39.507812 68.816406 40.089844 69.394531 40.089844 70.113281 "/>
<path style=" stroke:none;fill-rule:nonzero;fill:rgb(82.352941%,87.843137%,92.156863%);fill-opacity:1;" d="M 34.855469 64.6875 C 36.65625 64.6875 38.375 65.011719 39.957031 65.585938 C 38.535156 63.511719 36.472656 62.195312 34.167969 62.195312 C 31.566406 62.195312 29.273438 63.867188 27.859375 66.425781 C 29.921875 65.324219 32.308594 64.6875 34.855469 64.6875 "/>
<path style="fill:none;stroke-width:8;stroke-linecap:round;stroke-linejoin:round;stroke:rgb(10.196078%,9.803922%,9.803922%);stroke-opacity:1;stroke-miterlimit:4;" d="M 179.390591 289.8375 C 167.277789 264.272754 119.726391 262.042969 117.909471 312.429199 " transform="matrix(0.225743,0,0,0.225989,0,0)"/>
<path style=" stroke:none;fill-rule:nonzero;fill:rgb(100%,100%,99.607843%);fill-opacity:1;" d="M 62.6875 70.890625 C 62.6875 76.027344 65.875 80.191406 69.804688 80.191406 C 73.738281 80.191406 76.929688 76.027344 76.929688 70.890625 C 76.929688 65.757812 73.738281 61.59375 69.804688 61.59375 C 65.875 61.59375 62.6875 65.757812 62.6875 70.890625 "/>
<path style=" stroke:none;fill-rule:nonzero;fill:rgb(10.196078%,9.803922%,9.803922%);fill-opacity:1;" d="M 63.796875 72.234375 C 63.796875 75.730469 65.761719 78.570312 68.1875 78.570312 C 70.609375 78.570312 72.578125 75.730469 72.578125 72.234375 C 72.578125 68.734375 70.609375 65.898438 68.1875 65.898438 C 65.761719 65.898438 63.796875 68.734375 63.796875 72.234375 "/>
<path style=" stroke:none;fill-rule:nonzero;fill:rgb(100%,100%,99.607843%);fill-opacity:1;" d="M 69.890625 70.113281 C 69.890625 70.828125 70.472656 71.410156 71.1875 71.410156 C 71.90625 71.410156 72.488281 70.828125 72.488281 70.113281 C 72.488281 69.394531 71.90625 68.816406 71.1875 68.816406 C 70.472656 68.816406 69.890625 69.394531 69.890625 70.113281 "/>
<path style=" stroke:none;fill-rule:nonzero;fill:rgb(82.352941%,87.843137%,92.156863%);fill-opacity:1;" d="M 69.015625 64.6875 C 67.210938 64.6875 65.496094 65.011719 63.910156 65.585938 C 65.335938 63.511719 67.398438 62.195312 69.699219 62.195312 C 72.300781 62.195312 74.59375 63.867188 76.007812 66.425781 C 73.949219 65.324219 71.5625 64.6875 69.015625 64.6875 "/>
<path style="fill:none;stroke-width:8;stroke-linecap:round;stroke-linejoin:round;stroke:rgb(10.196078%,9.803922%,9.803922%);stroke-opacity:1;stroke-miterlimit:4;" d="M 281.138124 289.8375 C 293.268229 264.272754 340.819627 262.042969 342.636547 312.429199 " transform="matrix(0.225743,0,0,0.225989,0,0)"/>
<path style="fill:none;stroke-width:7;stroke-linecap:round;stroke-linejoin:round;stroke:rgb(10.196078%,9.803922%,9.803922%);stroke-opacity:1;stroke-miterlimit:4;" d="M 340.404331 97.332715 C 340.404331 97.332715 352.067229 154.823145 238.743318 171.50332 C 238.743318 171.50332 255.407072 114.842578 268.748458 104.834473 C 268.748458 104.834473 210.416667 178.987793 115.417695 196.497656 C 115.417695 196.497656 132.081449 124.833398 188.734752 98.99209 M 228.084053 368.052832 C 228.084053 368.052832 206.834738 376.384277 208.911218 386.392383 C 211.005003 396.383203 218.497636 407.63584 218.497636 407.63584 M 217.667044 329.299512 C 217.667044 329.299512 223.913788 357.629883 222.252604 370.127051 M 74.545641 423.676465 C 21.422355 426.182812 -2.33604 352.876465 16.421498 326.637598 C 29.935924 307.693066 57.258943 319.861816 62.363624 330.250195 M 64.561232 363.057422 C 64.561232 363.057422 46.772718 326.637598 26.596251 343.715332 M 387.038617 423.676465 C 440.161904 426.182812 463.920299 352.876465 445.16276 326.637598 C 431.648335 307.693066 404.325315 319.861816 399.203331 330.250195 M 397.023026 363.057422 C 397.023026 363.057422 414.811541 326.637598 434.988007 343.715332 M 332.18493 127.996582 C 332.18493 127.996582 332.046498 167.458594 385.688905 231.309961 C 389.374657 235.700391 397.81901 253.279395 398.441954 268.663184 C 400.570347 320.587793 400.899123 433.805566 363.297526 474.304688 C 329.000994 511.225781 295.794613 529.306055 266.412418 538.052344 C 231.406421 550.134668 195.171841 538.052344 195.171841 538.052344 C 165.789645 529.306055 132.565961 511.225781 98.286732 474.304688 C 63.782552 437.141602 61.22156 339.532324 62.657792 282.750586 C 62.657792 282.750586 65.789816 176.222168 129.260896 160.458105 M 26.873115 257.687109 C 19.968819 271.515234 13.912418 282.750586 13.912418 282.750586 C -24.831243 131.712891 57.033991 104.333203 57.033991 104.333203 C 57.033991 104.333203 24.623595 94.342383 25.523403 62.468555 C 25.523403 62.468555 70.167729 73.081641 119.328399 44.336426 C 164.837925 17.717285 229.399157 -0.466699 294.756373 11.995898 C 353.711109 23.248535 365.166358 65.044043 365.166358 65.044043 C 365.166358 65.044043 423.723102 73.444629 445.785704 136.500879 C 469.5441 204.345117 449.540673 269.95957 449.540673 269.95957 C 449.540673 269.95957 444.12452 253.210254 437.410567 235.233691 M 22.356771 266.588965 C 22.356771 266.588965 20.366811 283.70127 30.991468 313.483594 M 443.43236 251.931152 C 443.43236 251.931152 442.13456 278.688574 427.028166 314.20957 " transform="matrix(0.225743,0,0,0.225989,0,0)"/>
<path style=" stroke:none;fill-rule:nonzero;fill:rgb(10.196078%,9.803922%,9.803922%);fill-opacity:1;" d="M 41.296875 54.09375 C 40.828125 54.488281 39.601562 53.714844 37.824219 52.632812 C 36.074219 51.570312 33.625 50.226562 31.300781 50.566406 C 28.960938 50.84375 26.953125 52.730469 25.753906 54.222656 C 24.507812 55.734375 24.039062 56.882812 23.457031 56.933594 C 23.171875 56.953125 22.851562 56.578125 22.722656 55.832031 C 22.597656 55.09375 22.675781 54.027344 23.09375 52.820312 C 23.511719 51.617188 24.257812 50.253906 25.496094 49 C 26.71875 47.761719 28.550781 46.621094 30.753906 46.34375 C 32.957031 46.046875 35.015625 46.6875 36.496094 47.542969 C 38 48.40625 39.0625 49.449219 39.824219 50.382812 C 41.335938 52.273438 41.726562 53.738281 41.296875 54.09375 "/>
<path style=" stroke:none;fill-rule:nonzero;fill:rgb(10.196078%,9.803922%,9.803922%);fill-opacity:1;" d="M 62.902344 54.09375 C 62.46875 53.738281 62.859375 52.273438 64.371094 50.382812 C 65.136719 49.449219 66.199219 48.40625 67.703125 47.542969 C 69.179688 46.6875 71.238281 46.046875 73.445312 46.34375 C 75.648438 46.621094 77.476562 47.761719 78.699219 49 C 79.941406 50.253906 80.6875 51.617188 81.105469 52.820312 C 81.523438 54.027344 81.597656 55.09375 81.472656 55.832031 C 81.34375 56.578125 81.027344 56.953125 80.738281 56.933594 C 80.15625 56.882812 79.6875 55.734375 78.441406 54.222656 C 77.246094 52.730469 75.234375 50.84375 72.894531 50.566406 C 70.570312 50.226562 68.125 51.570312 66.371094 52.632812 C 64.597656 53.714844 63.367188 54.488281 62.902344 54.09375 "/>
<path style="fill:none;stroke-width:7;stroke-linecap:round;stroke-linejoin:round;stroke:rgb(10.196078%,9.803922%,9.803922%);stroke-opacity:1;stroke-miterlimit:4;" d="M 180.186575 576.85752 L 195.742873 569.615039 C 196.348513 559.641504 196.556161 539.054883 196.556161 539.054883 M 262.968921 539.054883 C 262.968921 539.054883 263.366913 563.565234 264.595498 572.121387 L 279.563459 576.85752 M 313.358176 586.001367 C 345.232148 597.150293 392.904674 610.891992 402.664131 613.709473 C 430.783135 621.833496 451.513329 705.407227 451.513329 881.283691 M 410.727796 690.144434 L 377.659848 881.508398 M 148.658683 582.941895 C 120.487767 594.159961 69.596697 610.096875 57.068599 613.709473 C 28.949596 621.833496 8.219401 705.407227 8.219401 881.283691 M 51.531319 704.819531 L 82.072882 881.508398 M 755.717688 604.61748 C 727.442948 613.36377 644.556778 632.947852 628.342928 642.506543 C 603.736637 657.008789 590.274123 722.95166 604.428797 877.947656 " transform="matrix(0.225743,0,0,0.225989,0,0)"/>
<path style="fill:none;stroke-width:6;stroke-linecap:round;stroke-linejoin:round;stroke:rgb(10.196078%,9.803922%,9.803922%);stroke-opacity:1;stroke-miterlimit:4;" d="M 668.107525 878.155078 L 645.04129 724.317187 C 644.193394 718.232813 642.532209 714.06709 636.285465 709.486523 " transform="matrix(0.225743,0,0,0.225989,0,0)"/>
<path style="fill:none;stroke-width:7;stroke-linecap:round;stroke-linejoin:round;stroke:rgb(10.196078%,9.803922%,9.803922%);stroke-opacity:1;stroke-miterlimit:4;" d="M 810.640591 605.62002 C 838.015522 613.311914 922.009149 635.817187 935.367839 642.506543 C 960.92585 655.280273 973.436643 722.95166 959.28197 877.947656 " transform="matrix(0.225743,0,0,0.225989,0,0)"/>
<path style="fill:none;stroke-width:6;stroke-linecap:round;stroke-linejoin:round;stroke:rgb(10.196078%,9.803922%,9.803922%);stroke-opacity:1;stroke-miterlimit:4;" d="M 895.603242 878.155078 L 923.964501 717.230273 C 925.625685 710.160645 927.702166 703.07373 933.966214 699.737695 " transform="matrix(0.225743,0,0,0.225989,0,0)"/>
<path style="fill:none;stroke-width:7;stroke-linecap:round;stroke-linejoin:round;stroke:rgb(10.196078%,9.803922%,9.803922%);stroke-opacity:1;stroke-miterlimit:4;" d="M 733.412829 308.557324 C 720.279091 298.566504 687.159231 293.571094 669.024637 315.436816 " transform="matrix(0.225743,0,0,0.225989,0,0)"/>
<path style="fill:none;stroke-width:8;stroke-linecap:round;stroke-linejoin:round;stroke:rgb(10.196078%,9.803922%,9.803922%);stroke-opacity:1;stroke-miterlimit:4;" d="M 734.814453 364.405664 C 720.348307 333.914648 659.749692 333.776367 668.401693 405.699902 " transform="matrix(0.225743,0,0,0.225989,0,0)"/>
<path style="fill:none;stroke-width:7;stroke-linecap:round;stroke-linejoin:round;stroke:rgb(10.196078%,9.803922%,9.803922%);stroke-opacity:1;stroke-miterlimit:4;" d="M 614.153646 376.62627 C 614.153646 376.62627 604.065413 357.042188 585.065618 362.970996 C 545.439453 375.364453 558.140591 461.254395 623.618935 468.652441 M 585.775082 386.133105 C 585.775082 386.133105 598.839604 377.23125 614.86311 412.250977 M 831.526521 308.557324 C 844.660259 298.566504 877.780119 293.571094 895.89741 315.436816 " transform="matrix(0.225743,0,0,0.225989,0,0)"/>
<path style="fill:none;stroke-width:8;stroke-linecap:round;stroke-linejoin:round;stroke:rgb(10.196078%,9.803922%,9.803922%);stroke-opacity:1;stroke-miterlimit:4;" d="M 831.613041 367.361426 C 843.431675 333.983789 908.165947 331.529297 899.237082 405.699902 " transform="matrix(0.225743,0,0,0.225989,0,0)"/>
<path style="fill:none;stroke-width:7;stroke-linecap:round;stroke-linejoin:round;stroke:rgb(10.196078%,9.803922%,9.803922%);stroke-opacity:1;stroke-miterlimit:4;" d="M 951.996985 376.954687 C 951.996985 376.954687 962.085218 357.370605 981.085012 363.299414 C 1020.711177 375.692871 1010.190344 461.582812 943.67376 468.998145 M 979.99486 386.461523 C 979.99486 386.461523 966.947643 377.559668 950.906833 412.579395 M 656.531147 384.456445 L 667.571101 391.318652 M 900.067674 391.318652 L 914.862596 384.456445 M 782.988795 463.570605 L 782.988795 453.5625 M 950.370408 358.131152 C 951.927769 391.318652 950.68188 444.314941 936.319559 487.32041 C 909.446443 567.765527 823.705112 586.001367 782.988795 586.001367 C 742.289782 586.001367 656.531147 567.765527 629.658032 487.32041 C 614.465118 441.877734 613.963302 385.234277 615.918654 352.651758 C 673.108381 196.497656 863.711965 209.61709 863.711965 209.61709 L 885.82648 178.365527 L 880.46224 214.6125 C 880.46224 214.6125 898.285362 295.023047 950.370408 358.131152 M 571.741536 371.838281 C 571.741536 371.838281 548.727214 257.635254 603.1483 178.365527 C 689.287623 52.944434 876.638055 86.2875 900.067674 138.78252 C 900.067674 138.78252 1017.942537 137.123145 991.79619 367.87998 M 601.089124 462.291504 C 606.089981 485.782031 614.395902 536.859668 599.462548 564.481348 C 599.462548 564.481348 636.320073 556.996875 640.490337 545.312109 C 640.490337 545.312109 648.571306 562.095996 694.617256 564.79248 M 979.839124 454.858887 C 977.295436 481.564453 968.314659 554.058398 944.660088 573.64248 L 933.827782 530.325879 C 933.827782 530.325879 922.234101 564.446777 864.179174 567.160547 M 811.090495 615.870117 L 809.325487 586.84834 M 759.247704 587.902734 L 756.859752 613.36377 " transform="matrix(0.225743,0,0,0.225989,0,0)"/>
<path style="fill:none;stroke-width:8;stroke-linecap:round;stroke-linejoin:round;stroke:rgb(10.196078%,9.803922%,9.803922%);stroke-opacity:1;stroke-miterlimit:4;" d="M 839.17489 492.955371 C 831.647649 504.674707 814.309039 525.589746 784.182771 525.589746 C 754.0392 525.589746 736.700589 504.674707 729.173348 492.955371 " transform="matrix(0.225743,0,0,0.225989,0,0)"/>
<path style="fill:none;stroke-width:7;stroke-linecap:round;stroke-linejoin:round;stroke:rgb(10.196078%,9.803922%,9.803922%);stroke-opacity:1;stroke-miterlimit:4;" d="M 677.624726 628.816699 C 677.624726 628.816699 694.911424 655.556836 734.624109 669.108398 C 782.486979 685.442871 860.147341 678.995508 881.967688 629.196973 M 196.435033 547.541895 C 196.435033 547.541895 170.323294 550.843359 168.938973 559.209375 C 167.537349 567.592676 196.556161 600.918457 196.556161 600.918457 L 166.637541 660.241113 C 166.637541 660.241113 139.78173 598.100977 148.658683 582.941895 L 168.938973 559.209375 M 263.782209 547.541895 C 263.782209 547.541895 289.893949 550.843359 291.278269 559.209375 C 292.679893 567.592676 263.661081 600.918457 263.661081 600.918457 L 293.579701 660.241113 C 293.579701 660.241113 320.418209 598.100977 311.558559 582.941895 L 291.278269 559.209375 M 196.556161 600.918457 L 226.959293 660.241113 L 263.661081 600.918457 M 229.191509 656.645801 C 229.191509 656.645801 218.912932 666.671191 220.210732 681.95127 " transform="matrix(0.225743,0,0,0.225989,0,0)"/>
</g>
</svg>
