<?xml version="1.0" encoding="UTF-8"?>
<svg xmlns="http://www.w3.org/2000/svg" xmlns:xlink="http://www.w3.org/1999/xlink" width="146pt" height="200pt" viewBox="0 0 146 200" version="1.1">
<g id="surface1">
<path style=" stroke:none;fill-rule:nonzero;fill:rgb(100%,100%,100%);fill-opacity:1;" d="M 120.515625 138.546875 C 112.644531 92.410156 106.324219 93.796875 106.324219 93.796875 L 78.9375 92.96875 C 78.9375 92.96875 68.550781 106.035156 65.574219 109.859375 C 65.574219 109.859375 55.894531 105.121094 50.222656 101.34375 L 44.699219 109.308594 C 44.699219 109.308594 62.949219 122.808594 68.339844 120.257812 C 72.128906 118.46875 75.640625 115.34375 77.390625 113.644531 C 76.492188 123.996094 74.71875 143.214844 72.851562 166.617188 C 72.851562 166.617188 79.828125 169.0625 91.433594 169.0625 L 94.621094 169.0625 C 106.226562 169.0625 113.207031 166.617188 113.207031 166.617188 C 112.285156 156.707031 111.46875 148.878906 110.777344 140.714844 C 116.773438 141.636719 120.515625 138.546875 120.515625 138.546875 "/>
<path style=" stroke:none;fill-rule:nonzero;fill:rgb(99.607843%,97.254902%,92.156863%);fill-opacity:1;" d="M 90.609375 190.742188 C 91.183594 181.191406 91.234375 156.730469 91.234375 156.730469 L 81.910156 156.492188 C 83.570312 173.300781 83.09375 189.410156 83.09375 189.410156 C 83.09375 189.410156 83.054688 189.441406 82.980469 189.5 C 84.96875 191.289062 87.964844 191.496094 90.609375 190.742188 "/>
<path style="fill:none;stroke-width:17;stroke-linecap:round;stroke-linejoin:round;stroke:rgb(42.352941%,25.882353%,11.764706%);stroke-opacity:1;stroke-miterlimit:4;" d="M 637.368686 1343.778711 C 641.407882 1276.493457 641.76509 1104.166152 641.76509 1104.166152 L 576.176236 1102.487461 C 587.854185 1220.904004 584.501926 1334.394551 584.501926 1334.394551 C 584.501926 1334.394551 584.227151 1334.614707 583.705078 1335.0275 C 597.691139 1347.631445 618.766401 1349.08998 637.368686 1343.778711 Z M 637.368686 1343.778711 " transform="matrix(0.142162,0,0,0.141945,0,0)"/>
<path style=" stroke:none;fill-rule:nonzero;fill:rgb(100%,100%,100%);fill-opacity:1;" d="M 82.980469 189.5 C 82.175781 190.117188 76.75 195.792969 79.84375 197.65625 C 83.539062 199.878906 87.8125 198.179688 90.207031 193.675781 C 90.386719 193.339844 90.742188 192.78125 90.609375 190.742188 C 87.964844 191.496094 84.96875 191.289062 82.980469 189.5 "/>
<path style="fill:none;stroke-width:17;stroke-linecap:round;stroke-linejoin:round;stroke:rgb(42.352941%,25.882353%,11.764706%);stroke-opacity:1;stroke-miterlimit:4;" d="M 583.705078 1335.0275 C 578.044708 1339.375586 539.878425 1379.361465 561.640625 1392.488281 C 587.634364 1408.146895 617.694777 1396.175898 634.538501 1364.445879 C 635.802467 1362.079199 638.302922 1358.143906 637.368686 1343.778711 C 618.766401 1349.08998 597.691139 1347.631445 583.705078 1335.0275 Z M 583.705078 1335.0275 " transform="matrix(0.142162,0,0,0.141945,0,0)"/>
<path style=" stroke:none;fill-rule:nonzero;fill:rgb(99.607843%,97.254902%,92.156863%);fill-opacity:1;" d="M 95.945312 190.742188 C 95.371094 181.191406 95.316406 156.730469 95.316406 156.730469 L 104.644531 156.492188 C 102.984375 173.300781 103.460938 189.410156 103.460938 189.410156 C 103.460938 189.410156 103.5 189.441406 103.574219 189.5 C 101.585938 191.289062 98.589844 191.496094 95.945312 190.742188 "/>
<path style="fill:none;stroke-width:17;stroke-linecap:round;stroke-linejoin:round;stroke:rgb(42.352941%,25.882353%,11.764706%);stroke-opacity:1;stroke-miterlimit:4;" d="M 674.902986 1343.778711 C 670.86379 1276.493457 670.479104 1104.166152 670.479104 1104.166152 L 736.095436 1102.487461 C 724.417487 1220.904004 727.769745 1334.394551 727.769745 1334.394551 C 727.769745 1334.394551 728.044521 1334.614707 728.566594 1335.0275 C 714.580533 1347.631445 693.505271 1349.08998 674.902986 1343.778711 Z M 674.902986 1343.778711 " transform="matrix(0.142162,0,0,0.141945,0,0)"/>
<path style=" stroke:none;fill-rule:nonzero;fill:rgb(100%,100%,100%);fill-opacity:1;" d="M 103.574219 189.5 C 104.378906 190.117188 109.800781 195.792969 106.710938 197.65625 C 103.015625 199.878906 98.742188 198.179688 96.347656 193.675781 C 96.167969 193.339844 95.8125 192.78125 95.945312 190.742188 C 98.589844 191.496094 101.585938 191.289062 103.574219 189.5 "/>
<path style="fill:none;stroke-width:17;stroke-linecap:round;stroke-linejoin:round;stroke:rgb(42.352941%,25.882353%,11.764706%);stroke-opacity:1;stroke-miterlimit:4;" d="M 728.566594 1335.0275 C 734.226964 1339.375586 772.365769 1379.361465 750.631047 1392.488281 C 724.637307 1408.146895 694.576894 1396.175898 677.733171 1364.445879 C 676.469205 1362.079199 673.96875 1358.143906 674.902986 1343.778711 C 693.505271 1349.08998 714.580533 1347.631445 728.566594 1335.0275 Z M 728.566594 1335.0275 " transform="matrix(0.142162,0,0,0.141945,0,0)"/>
<path style="fill-rule:nonzero;fill:rgb(99.607843%,97.254902%,92.156863%);fill-opacity:1;stroke-width:17;stroke-linecap:round;stroke-linejoin:round;stroke:rgb(42.352941%,25.882353%,11.764706%);stroke-opacity:1;stroke-miterlimit:4;" d="M 780.224342 990.868242 C 782.257679 1003.692344 792.067155 1030.661484 802.591048 1039.687891 C 825.919467 1059.612031 820.863602 1022.763379 815.065844 1011.012539 C 820.89108 1022.873457 828.255057 1049.842598 839.65823 1056.997676 C 857.271324 1068.088047 868.537109 1043.953418 868.097469 1030.881641 C 867.108278 1001.022949 835.811376 963.954141 804.102312 959.083184 " transform="matrix(0.142162,0,0,0.141945,0,0)"/>
<path style="fill-rule:nonzero;fill:rgb(100%,100%,100%);fill-opacity:1;stroke-width:17;stroke-linecap:round;stroke-linejoin:round;stroke:rgb(42.352941%,25.882353%,11.764706%);stroke-opacity:1;stroke-miterlimit:4;" d="M 747.910772 660.798984 C 747.910772 660.798984 792.369408 651.029551 847.736622 976.062734 C 847.736622 976.062734 820.204142 998.821387 776.350011 990.895762 " transform="matrix(0.142162,0,0,0.141945,0,0)"/>
<path style="fill-rule:nonzero;fill:rgb(100%,100%,100%);fill-opacity:1;stroke-width:17;stroke-linecap:round;stroke-linejoin:round;stroke:rgb(42.352941%,25.882353%,11.764706%);stroke-opacity:1;stroke-miterlimit:4;" d="M 555.265839 654.964844 C 555.265839 654.964844 482.203098 747.017676 461.265224 773.959297 C 461.265224 773.959297 393.175915 740.578105 353.278548 713.966719 L 314.425326 770.079043 C 314.425326 770.079043 442.800326 865.186543 480.719312 847.216289 C 518.638297 829.273555 552.600519 792.314824 552.600519 792.314824 " transform="matrix(0.142162,0,0,0.141945,0,0)"/>
<path style="fill-rule:nonzero;fill:rgb(100%,100%,100%);fill-opacity:1;stroke-width:17;stroke-linecap:round;stroke-linejoin:round;stroke:rgb(42.352941%,25.882353%,11.764706%);stroke-opacity:1;stroke-miterlimit:4;" d="M 760.02836 750.980488 C 760.02836 750.980488 773.574781 928.75666 796.326172 1173.818086 C 796.326172 1173.818086 747.223833 1191.045312 665.588105 1191.045312 L 643.166444 1191.045312 C 561.530715 1191.045312 512.455854 1173.818086 512.455854 1173.818086 C 531.305437 937.370273 548.726188 750.980488 548.726188 750.980488 " transform="matrix(0.142162,0,0,0.141945,0,0)"/>
<path style=" stroke:none;fill-rule:nonzero;fill:rgb(42.352941%,25.882353%,11.764706%);fill-opacity:1;" d="M 95.0625 121.296875 C 95.0625 122.214844 94.320312 122.957031 93.402344 122.957031 C 92.484375 122.957031 91.742188 122.214844 91.742188 121.296875 C 91.742188 120.382812 92.484375 119.640625 93.402344 119.640625 C 94.320312 119.640625 95.0625 120.382812 95.0625 121.296875 "/>
<path style=" stroke:none;fill-rule:nonzero;fill:rgb(42.352941%,25.882353%,11.764706%);fill-opacity:1;" d="M 95.0625 130.96875 C 95.0625 131.882812 94.320312 132.625 93.402344 132.625 C 92.484375 132.625 91.742188 131.882812 91.742188 130.96875 C 91.742188 130.050781 92.484375 129.308594 93.402344 129.308594 C 94.320312 129.308594 95.0625 130.050781 95.0625 130.96875 "/>
<path style="fill:none;stroke-width:17;stroke-linecap:round;stroke-linejoin:round;stroke:rgb(89.803922%,42.745098%,38.039216%);stroke-opacity:1;stroke-miterlimit:4;" d="M 95.401969 195.553789 C 86.05961 180.693242 76.689774 165.860215 65.478944 148.027559 M 49.459546 243.768008 C 32.780688 238.319141 30.115368 233.723379 10.111729 227.17373 M 159.424604 159.035371 C 159.424604 159.035371 156.374599 136.304238 153.049818 119.517324 " transform="matrix(0.142162,0,0,0.141945,0,0)"/>
<path style="fill-rule:nonzero;fill:rgb(100%,100%,100%);fill-opacity:1;stroke-width:17;stroke-linecap:round;stroke-linejoin:round;stroke:rgb(42.352941%,25.882353%,11.764706%);stroke-opacity:1;stroke-miterlimit:4;" d="M 157.720997 302.109414 L 139.997993 261.573145 L 156.649374 302.549727 L 323.93255 714.46207 L 329.345623 712.177949 L 330.444724 711.710117 L 335.857796 709.425996 Z M 157.720997 302.109414 " transform="matrix(0.142162,0,0,0.141945,0,0)"/>
<path style=" stroke:none;fill-rule:nonzero;fill:rgb(100%,100%,100%);fill-opacity:1;" d="M 69.8125 13.125 C 41.949219 42.367188 60.570312 82.253906 58.296875 88.5 C 56.023438 94.742188 47.859375 91.109375 47.859375 91.109375 C 47.710938 90.992188 47.644531 90.921875 47.644531 90.921875 C 55.949219 84.175781 49.535156 76.457031 46.222656 69.078125 C 43.6875 63.4375 42.46875 57.226562 42.453125 51.054688 C 42.417969 34.46875 51.328125 14.886719 67.332031 8.453125 Z M 69.8125 13.125 "/>
<path style=" stroke:none;fill-rule:nonzero;fill:rgb(83.137255%,65.490196%,43.137255%);fill-opacity:1;" d="M 144.597656 51.058594 C 144.617188 43.441406 142.625 35.730469 139.089844 28.75 C 136.160156 22.457031 131.984375 16.796875 126.679688 12.730469 C 120.648438 7.492188 113.414062 3.761719 105.46875 2.433594 C 92.964844 0.347656 80.886719 0.789062 70.792969 8.980469 C 55.5625 15.902344 47.109375 34.902344 47.144531 51.054688 C 47.160156 57.226562 48.378906 63.4375 50.914062 69.078125 C 54.226562 76.457031 60.640625 84.175781 52.335938 90.921875 C 52.335938 90.921875 59.226562 98.019531 82.257812 89.503906 L 108.992188 89.503906 C 132.019531 98.019531 138.914062 90.921875 138.914062 90.921875 C 136.996094 89.367188 136.296875 87.285156 136.296875 87.285156 C 133.261719 81.476562 138.097656 75.160156 140.828125 69.078125 C 143.363281 63.4375 144.585938 57.226562 144.597656 51.058594 "/>
<path style="fill-rule:nonzero;fill:rgb(99.607843%,97.254902%,92.156863%);fill-opacity:1;stroke-width:17;stroke-linecap:round;stroke-linejoin:round;stroke:rgb(42.352941%,25.882353%,11.764706%);stroke-opacity:1;stroke-miterlimit:4;" d="M 611.594767 654.497012 L 654.954302 789.562871 L 698.588613 650.451641 " transform="matrix(0.142162,0,0,0.141945,0,0)"/>
<path style="fill-rule:nonzero;fill:rgb(100%,100%,100%);fill-opacity:1;stroke-width:17;stroke-linecap:round;stroke-linejoin:round;stroke:rgb(42.352941%,25.882353%,11.764706%);stroke-opacity:1;stroke-miterlimit:4;" d="M 729.088667 666.880801 L 735.078767 719.415586 L 702.078259 729.515254 L 721.587302 775.995742 L 676.579115 804.28582 " transform="matrix(0.142162,0,0,0.141945,0,0)"/>
<path style="fill-rule:nonzero;fill:rgb(100%,100%,100%);fill-opacity:1;stroke-width:17;stroke-linecap:round;stroke-linejoin:round;stroke:rgb(42.352941%,25.882353%,11.764706%);stroke-opacity:1;stroke-miterlimit:4;" d="M 581.094713 666.880801 L 575.104613 719.415586 L 608.105121 729.515254 L 588.596078 775.995742 L 633.604265 804.28582 " transform="matrix(0.142162,0,0,0.141945,0,0)"/>
<path style=" stroke:none;fill-rule:nonzero;fill:rgb(42.352941%,25.882353%,11.764706%);fill-opacity:1;" d="M 90.558594 101.988281 L 96.03125 101.988281 L 93.105469 109.730469 "/>
<path style=" stroke:none;fill-rule:nonzero;fill:rgb(83.137255%,65.490196%,43.137255%);fill-opacity:1;" d="M 139.40625 90.921875 C 131.105469 84.175781 137.515625 76.457031 140.828125 69.078125 C 143.363281 63.4375 144.585938 57.226562 144.597656 51.058594 C 144.648438 29.003906 127.875 6.175781 105.46875 2.433594 C 92.625 0.289062 80.226562 0.816406 69.96875 9.667969 "/>
<path style="fill:none;stroke-width:17;stroke-linecap:round;stroke-linejoin:round;stroke:rgb(42.352941%,25.882353%,11.764706%);stroke-opacity:1;stroke-miterlimit:4;" d="M 501.245024 57.791016 C 491.380592 60.020098 481.790935 62.882129 472.723352 66.542227 C 360.147929 111.866895 299.367642 242.832344 299.61494 359.680273 C 299.72485 403.161133 308.325316 446.917188 326.130752 486.655391 C 349.459172 538.639785 394.549791 593.018379 336.132572 640.544609 M 980.617937 640.544609 C 922.228195 593.018379 967.318814 538.639785 990.619756 486.655391 C 1008.45267 446.917188 1017.053136 403.161133 1017.135568 359.707793 C 1017.492776 204.33252 899.504281 43.508379 741.893193 17.144668 C 651.547089 2.036445 564.333423 5.751582 492.17744 68.11084 " transform="matrix(0.142162,0,0,0.141945,0,0)"/>
<path style="fill-rule:nonzero;fill:rgb(99.607843%,97.254902%,92.156863%);fill-opacity:1;stroke-width:17;stroke-linecap:round;stroke-linejoin:round;stroke:rgb(42.352941%,25.882353%,11.764706%);stroke-opacity:1;stroke-miterlimit:4;" d="M 401.061965 412.215059 C 401.061965 412.215059 356.218643 391.410293 356.218643 447.440059 C 356.218643 503.497344 405.870532 492.269375 405.870532 492.269375 " transform="matrix(0.142162,0,0,0.141945,0,0)"/>
<path style="fill-rule:nonzero;fill:rgb(99.607843%,97.254902%,92.156863%);fill-opacity:1;stroke-width:17;stroke-linecap:round;stroke-linejoin:round;stroke:rgb(42.352941%,25.882353%,11.764706%);stroke-opacity:1;stroke-miterlimit:4;" d="M 912.226375 412.215059 C 912.226375 412.215059 957.04222 391.410293 957.04222 447.440059 C 957.04222 503.497344 907.417808 492.269375 907.417808 492.269375 " transform="matrix(0.142162,0,0,0.141945,0,0)"/>
<path style=" stroke:none;fill-rule:nonzero;fill:rgb(99.607843%,97.254902%,92.156863%);fill-opacity:1;" d="M 130.203125 55.925781 C 125.652344 21.492188 96.671875 20.804688 93.203125 20.851562 C 89.683594 20.824219 60.765625 21.65625 56.339844 56.066406 C 56.339844 56.066406 51.683594 94.792969 92.992188 95.144531 L 92.992188 95.148438 C 93.105469 95.148438 93.21875 95.148438 93.328125 95.144531 C 93.449219 95.148438 93.566406 95.148438 93.6875 95.148438 L 93.6875 95.144531 C 134.996094 94.636719 130.203125 55.925781 130.203125 55.925781 "/>
<path style=" stroke:none;fill-rule:nonzero;fill:rgb(98.039216%,82.745098%,72.54902%);fill-opacity:1;" d="M 56.527344 68.164062 C 55.996094 71.574219 58.210938 74.699219 61.128906 75.835938 C 63.957031 76.9375 67.191406 77.203125 69.578125 75.113281 C 71.941406 73.035156 73.710938 70.308594 72.75 66.960938 C 71.953125 64.214844 70.242188 61.574219 67.582031 60.566406 C 62.421875 58.617188 57.355469 62.875 56.527344 68.164062 "/>
<path style=" stroke:none;fill-rule:nonzero;fill:rgb(98.039216%,82.745098%,72.54902%);fill-opacity:1;" d="M 112.832031 68.164062 C 112.296875 71.574219 114.511719 74.699219 117.429688 75.835938 C 120.257812 76.9375 123.496094 77.203125 125.878906 75.113281 C 128.242188 73.035156 130.011719 70.308594 129.050781 66.960938 C 128.253906 64.214844 126.542969 61.574219 123.882812 60.566406 C 118.722656 58.617188 113.65625 62.875 112.832031 68.164062 "/>
<path style="fill:none;stroke-width:17;stroke-linecap:round;stroke-linejoin:round;stroke:rgb(42.352941%,25.882353%,11.764706%);stroke-opacity:1;stroke-miterlimit:4;" d="M 915.770976 393.997129 C 883.759659 151.412461 679.903896 146.569023 655.53133 146.899258 C 630.746602 146.706621 427.330479 152.568281 396.198443 394.987832 C 396.198443 394.987832 363.445232 667.816465 654.020066 670.293223 L 654.020066 670.320742 C 654.816915 670.320742 655.613763 670.320742 656.383134 670.293223 C 657.234937 670.320742 658.059263 670.320742 658.911066 670.320742 L 658.911066 670.293223 C 949.4859 666.715684 915.770976 393.997129 915.770976 393.997129 Z M 915.770976 393.997129 " transform="matrix(0.142162,0,0,0.141945,0,0)"/>
<path style="fill:none;stroke-width:12;stroke-linecap:round;stroke-linejoin:round;stroke:rgb(42.352941%,25.882353%,11.764706%);stroke-opacity:1;stroke-miterlimit:4;" d="M 514.434236 260.967715 C 519.654966 249.024238 541.801851 238.484258 553.15007 249.547109 M 653.08583 418.792227 C 654.652049 421.131387 656.190791 423.470547 657.75701 425.809707 " transform="matrix(0.142162,0,0,0.141945,0,0)"/>
<path style=" stroke:none;fill-rule:nonzero;fill:rgb(83.137255%,65.490196%,43.137255%);fill-opacity:1;" d="M 81.828125 21.289062 C 86.125 30.503906 93.179688 38.351562 101.664062 43.941406 C 108.457031 48.417969 126.757812 56.0625 132.648438 55.316406 C 132.648438 55.316406 132.648438 33.960938 120.136719 26.894531 C 96.253906 13.410156 81.828125 21.289062 81.828125 21.289062 "/>
<path style=" stroke:none;fill-rule:nonzero;fill:rgb(100%,100%,100%);fill-opacity:1;" d="M 54.46875 23.054688 C 54.46875 23.054688 55.269531 32.386719 65.269531 30.5 C 65.269531 30.5 61.410156 35.839844 50.394531 31.214844 "/>
<path style="fill:none;stroke-width:17;stroke-linecap:round;stroke-linejoin:round;stroke:rgb(42.352941%,25.882353%,11.764706%);stroke-opacity:1;stroke-miterlimit:4;" d="M 708.150792 146.734141 C 708.150792 146.734141 738.48598 251.143242 901.565095 326.051406 M 575.599208 149.981445 C 605.824486 214.90002 655.448898 270.186758 715.130083 309.567207 C 762.913501 341.10459 877.851991 394.960312 919.288099 389.704082 " transform="matrix(0.142162,0,0,0.141945,0,0)"/>
<path style=" stroke:none;fill-rule:nonzero;fill:rgb(99.607843%,97.254902%,92.156863%);fill-opacity:1;" d="M 51.445312 92.71875 C 48.414062 92.683594 47.945312 97.054688 48.035156 99.230469 C 48.132812 101.566406 49.117188 103.878906 51.785156 103.71875 C 55.492188 103.5 56.734375 98.832031 55.320312 95.960938 C 54.605469 94.507812 53.222656 92.738281 51.445312 92.71875 "/>
<path style="fill:none;stroke-width:17;stroke-linecap:round;stroke-linejoin:round;stroke:rgb(42.352941%,25.882353%,11.764706%);stroke-opacity:1;stroke-miterlimit:4;" d="M 361.879013 653.203594 C 340.556453 652.955918 337.25915 683.750273 337.891133 699.078652 C 338.578071 715.535332 345.502408 731.826895 364.269558 730.698594 C 390.34573 729.1575 399.083583 696.27166 389.136719 676.044805 C 384.108332 665.807539 374.381287 653.341191 361.879013 653.203594 Z M 361.879013 653.203594 " transform="matrix(0.142162,0,0,0.141945,0,0)"/>
<path style=" stroke:none;fill-rule:nonzero;fill:rgb(99.607843%,97.254902%,92.156863%);fill-opacity:1;" d="M 47.636719 108.15625 C 46.179688 108.878906 44.425781 109.085938 42.804688 108.6875 C 40.128906 108.03125 39.007812 105.929688 38.046875 103.535156 C 37.453125 102.054688 36.851562 100.6875 36.699219 99.097656 C 36.414062 96.070312 36.96875 93.605469 39.5 91.804688 C 41.976562 90.035156 45.082031 88.664062 47.867188 90.722656 C 48.972656 91.542969 49.59375 92.898438 49.152344 94.253906 C 48.78125 95.382812 47.3125 96.097656 46.296875 96.585938 C 47.644531 96.5625 49.648438 96.539062 50.210938 98.070312 C 50.71875 99.464844 50.03125 100.996094 48.9375 101.769531 C 49.414062 102.078125 49.957031 102.058594 50.34375 102.574219 C 50.625 102.949219 50.804688 103.582031 50.835938 104.128906 C 50.914062 105.371094 50.179688 106.023438 49.398438 106.859375 C 48.902344 107.394531 48.300781 107.828125 47.636719 108.15625 "/>
<path style="fill:none;stroke-width:17;stroke-linecap:round;stroke-linejoin:round;stroke:rgb(42.352941%,25.882353%,11.764706%);stroke-opacity:1;stroke-miterlimit:4;" d="M 335.088426 761.960781 C 324.839309 767.051895 312.5019 768.51043 301.098726 765.703437 C 282.276621 761.080156 274.390571 746.274648 267.6311 729.405176 C 263.454516 718.975273 259.222977 709.343437 258.151354 698.142988 C 256.145494 676.815352 260.047303 659.450527 277.85274 646.764023 C 295.273491 634.297676 317.118124 624.63832 336.7096 639.141113 C 344.48574 644.920215 348.854666 654.469492 345.749706 664.01877 C 343.139341 671.971914 332.807791 677.007988 325.663634 680.44793 C 335.143381 680.282812 349.239351 680.117695 353.196115 690.905352 C 356.768193 700.729824 351.932149 711.51748 344.238442 716.966348 C 347.5907 719.140391 351.410076 719.002793 354.130351 722.635371 C 356.108733 725.277246 357.372699 729.73541 357.592519 733.588145 C 358.14207 742.339355 352.976295 746.935117 347.48079 752.824297 C 343.991144 756.594473 339.759605 759.649141 335.088426 761.960781 Z M 335.088426 761.960781 " transform="matrix(0.142162,0,0,0.141945,0,0)"/>
<path style="fill:none;stroke-width:12;stroke-linecap:round;stroke-linejoin:round;stroke:rgb(42.352941%,25.882353%,11.764706%);stroke-opacity:1;stroke-miterlimit:4;" d="M 650.640331 416.783301 C 652.20655 419.122461 653.772769 421.461621 655.338988 423.800781 " transform="matrix(0.142162,0,0,0.141945,0,0)"/>
<path style=" stroke:none;fill-rule:nonzero;fill:rgb(42.352941%,25.882353%,11.764706%);fill-opacity:1;" d="M 111.511719 61.113281 C 109.351562 62.789062 107.335938 60.789062 106.871094 58.480469 C 106.371094 55.996094 108.925781 51.351562 111.433594 53.847656 C 113.0625 55.472656 113.457031 59.597656 111.511719 61.113281 "/>
<path style="fill:none;stroke-width:11.995;stroke-linecap:round;stroke-linejoin:round;stroke:rgb(42.352941%,25.882353%,11.764706%);stroke-opacity:1;stroke-miterlimit:4;" d="M 767.969365 381.420703 C 765.001793 377.045098 764.287377 370.330332 762.803591 363.808203 " transform="matrix(0.142162,0,0,0.141945,0,0)"/>
<path style=" stroke:none;fill-rule:nonzero;fill:rgb(42.352941%,25.882353%,11.764706%);fill-opacity:1;" d="M 78.128906 61.113281 C 75.972656 62.789062 73.953125 60.789062 73.492188 58.480469 C 72.992188 55.996094 75.546875 51.351562 78.050781 53.847656 C 79.679688 55.472656 80.078125 59.597656 78.128906 61.113281 "/>
<path style="fill:none;stroke-width:11.995;stroke-linecap:round;stroke-linejoin:round;stroke:rgb(42.352941%,25.882353%,11.764706%);stroke-opacity:1;stroke-miterlimit:4;" d="M 533.173908 381.420703 C 530.206336 377.045098 529.49192 370.330332 527.980656 363.808203 " transform="matrix(0.142162,0,0,0.141945,0,0)"/>
<path style="fill-rule:nonzero;fill:rgb(100%,100%,100%);fill-opacity:1;stroke-width:14;stroke-linecap:round;stroke-linejoin:round;stroke:rgb(42.352941%,25.882353%,11.764706%);stroke-opacity:1;stroke-miterlimit:4;" d="M 604.587998 523.449004 C 604.587998 523.449004 655.503853 531.980059 691.774187 522.981172 C 691.774187 522.981172 693.505271 587.982305 655.146645 587.982305 C 623.32767 587.982305 617.6673 531.29207 617.6673 531.29207 " transform="matrix(0.142162,0,0,0.141945,0,0)"/>
</g>
</svg>
