<?xml version="1.0" encoding="UTF-8"?>
<svg xmlns="http://www.w3.org/2000/svg" xmlns:xlink="http://www.w3.org/1999/xlink" width="225pt" height="200pt" viewBox="0 0 225 200" version="1.1">
<g id="surface1">
<path style=" stroke:none;fill-rule:nonzero;fill:rgb(85.882353%,65.490196%,43.529412%);fill-opacity:1;" d="M 210.613281 131.125 C 208.339844 134.460938 205.859375 137.601562 202.769531 140.242188 C 199.054688 143.417969 194.734375 144.894531 189.929688 145.113281 C 189.101562 145.152344 188.246094 145.007812 187.429688 144.832031 C 185.464844 144.398438 184.167969 143.230469 183.835938 141.117188 C 179.515625 143.007812 175.121094 144.277344 170.566406 144.992188 C 170.464844 145.007812 170.378906 145.113281 170.285156 145.175781 C 169.851562 145.476562 169.363281 145.5625 169.140625 145.019531 C 168.957031 144.574219 169.453125 144.371094 169.785156 144.210938 C 170.789062 143.734375 171.839844 143.367188 172.855469 142.910156 C 177.890625 140.644531 182.464844 137.691406 186.546875 133.9375 C 193.761719 127.300781 198.273438 119.066406 201.042969 109.773438 C 201.519531 108.171875 201.519531 108.144531 203.234375 107.980469 C 209.851562 107.347656 212.574219 103.210938 213.011719 97.351562 C 213.207031 94.789062 213.132812 92.203125 212.042969 89.773438 C 210.734375 86.863281 208.578125 85.273438 205.308594 85.324219 C 203.96875 85.34375 203.574219 84.914062 203.625 83.738281 C 203.660156 82.964844 204.027344 82.578125 204.796875 82.429688 C 205.980469 82.199219 206.457031 81.609375 206.335938 80.683594 C 206.226562 79.816406 205.632812 79.324219 204.496094 79.359375 C 196.066406 79.621094 188.226562 77.082031 180.457031 74.28125 C 172.945312 71.574219 165.714844 68.210938 158.632812 64.527344 C 153.125 61.664062 148.128906 58.085938 143.628906 53.785156 C 136.074219 46.570312 130.195312 38.167969 125.691406 28.765625 C 125.359375 28.074219 125.023438 27.382812 124.644531 26.714844 C 124.277344 26.066406 123.703125 25.839844 122.992188 25.949219 C 122.265625 26.066406 121.742188 26.503906 121.707031 27.222656 C 121.652344 28.359375 120.953125 28.773438 120.027344 29.125 C 113.636719 31.5625 107.757812 34.875 102.53125 39.332031 C 97.125 43.941406 92.800781 49.410156 89.414062 55.640625 C 84.65625 64.394531 82.039062 73.800781 80.878906 83.65625 C 80.710938 85.09375 80.464844 85.378906 79.089844 85.316406 C 76.371094 85.195312 73.65625 87.125 72.59375 89.953125 C 72.238281 90.894531 71.941406 91.859375 71.859375 92.851562 C 71.582031 96.191406 71.476562 99.503906 73.046875 102.648438 C 74.488281 105.535156 76.796875 107.316406 79.894531 107.652344 C 82.230469 107.902344 83.546875 108.726562 83.851562 111.105469 C 83.960938 111.96875 84.402344 112.78125 84.644531 113.628906 C 84.75 114 84.886719 114.460938 84.507812 114.6875 C 84.132812 114.914062 83.917969 114.457031 83.691406 114.234375 C 80.082031 110.71875 75.902344 108.429688 70.78125 108.128906 C 70.089844 108.089844 69.597656 107.777344 69.402344 107.117188 C 68.253906 103.210938 67.183594 99.289062 66.632812 95.246094 C 66.75 94.738281 66.78125 94.226562 66.597656 93.722656 C 66.507812 90.121094 66.4375 86.527344 66.671875 82.917969 C 66.929688 78.96875 67.386719 75.050781 68.128906 71.171875 C 70.765625 57.449219 75.519531 44.601562 84.550781 33.738281 C 90.457031 26.636719 97.152344 20.324219 105.378906 15.875 C 106.691406 15.164062 108.070312 14.578125 109.472656 14.0625 C 109.933594 13.9375 110.382812 13.769531 110.839844 13.621094 C 111.613281 13.382812 112.40625 13.304688 113.21875 13.289062 C 114.347656 13.269531 114.808594 12.933594 114.929688 11.855469 C 115.023438 11.023438 115.441406 10.546875 116.085938 10.132812 C 118.828125 8.367188 121.875 7.328125 124.976562 6.46875 C 130.566406 4.921875 136.28125 4.191406 142.074219 3.816406 C 153.707031 3.0625 164.523438 6.007812 175.007812 10.65625 C 181.921875 13.726562 188.148438 17.890625 193.832031 22.867188 C 194.90625 23.808594 196.183594 24.59375 196.890625 25.921875 C 196.882812 28.605469 196.824219 31.277344 195.925781 33.863281 C 194.660156 37.519531 192.367188 40.25 188.890625 41.972656 C 187.679688 42.570312 187.75 42.53125 188.476562 43.597656 C 189.515625 45.125 190.761719 45.503906 192.601562 45.128906 C 197.503906 44.132812 201.839844 41.941406 205.996094 39.285156 C 206.40625 39.023438 206.765625 38.636719 207.316406 38.65625 C 208.394531 39.316406 208.800781 40.492188 209.398438 41.492188 C 214.953125 50.769531 218.363281 60.796875 219.867188 71.503906 C 221.019531 79.683594 221.765625 87.890625 221.46875 96.15625 C 221.304688 100.714844 220.925781 105.273438 219.65625 109.691406 C 219.480469 110.09375 219.230469 110.472656 219.292969 110.941406 C 219.332031 111.339844 219.210938 111.699219 219.023438 112.039062 C 218.730469 112.441406 218.570312 112.902344 218.441406 113.378906 C 217.097656 117.410156 215.746094 121.4375 214.035156 125.332031 C 213.527344 126.25 213.152344 127.242188 212.617188 128.152344 C 212.023438 129.195312 211.589844 130.34375 210.613281 131.125 "/>
<path style=" stroke:none;fill-rule:nonzero;fill:rgb(43.137255%,25.490196%,0%);fill-opacity:1;" d="M 66.484375 132.289062 C 66.796875 130.71875 67.351562 129.273438 68.410156 128.058594 C 69.71875 126.550781 71.257812 126.269531 73.023438 127.195312 C 74.355469 127.894531 75.597656 128.679688 76.335938 130.078125 C 76.601562 130.582031 77.003906 131.011719 77.34375 131.472656 C 78.667969 133.257812 78.753906 133.402344 77.441406 135.191406 C 76.027344 137.109375 74.226562 138.554688 72.28125 138.753906 C 68.53125 138.746094 65.859375 135.417969 66.484375 132.289062 Z M 89.210938 143.550781 C 89.699219 143.898438 90.160156 144.207031 90.59375 144.550781 C 91.300781 145.113281 92.046875 145.394531 92.925781 144.96875 C 93.816406 144.542969 94.050781 143.777344 93.996094 142.867188 C 94.546875 142.210938 94.972656 142.808594 95.328125 143.074219 C 96.6875 144.089844 98.164062 144.882812 99.679688 145.625 C 100.972656 146.253906 102.332031 146.34375 103.710938 146.199219 C 104.808594 146.082031 105.417969 145.277344 105.972656 144.417969 C 107.15625 142.59375 107.15625 142.621094 109.265625 143.128906 C 110.527344 143.433594 111.808594 143.636719 113.058594 143.980469 C 113.953125 144.304688 114.847656 144.625 115.8125 144.972656 C 111.359375 151.839844 107.105469 158.726562 101.167969 164.335938 C 99.566406 165.855469 99.542969 165.828125 97.613281 164.785156 C 91.457031 161.453125 85.367188 158.011719 79.480469 154.214844 C 79.164062 154.011719 78.847656 153.796875 78.386719 153.492188 C 83.609375 151.871094 87.1875 148.613281 89.210938 143.550781 Z M 224.820312 88.238281 C 224.746094 79.503906 223.773438 70.84375 221.675781 62.371094 C 216.492188 41.425781 204.804688 24.996094 186.828125 13.117188 C 176.441406 6.257812 165.003906 2.007812 152.660156 0.574219 C 142.589844 -0.59375 132.625 0.554688 122.886719 3.390625 C 118.53125 4.660156 114.316406 6.28125 111.089844 9.703125 C 110.835938 9.972656 110.539062 9.925781 110.25 9.949219 C 103.804688 10.445312 97.960938 12.65625 92.578125 16.167969 C 85.835938 20.574219 80.488281 26.382812 75.824219 32.882812 C 66.296875 46.160156 61.25 60.910156 61.175781 77.316406 C 61.132812 87.570312 63.039062 97.515625 65.757812 107.339844 C 65.964844 108.089844 65.910156 108.378906 65.105469 108.628906 C 61.480469 109.761719 58.554688 111.886719 56.375 115.023438 C 56.265625 115.179688 56.230469 115.511719 55.882812 115.378906 C 55.769531 114.394531 55.679688 113.402344 55.53125 112.421875 C 55.136719 109.804688 54.75 107.171875 53.140625 104.945312 C 51.4375 102.597656 48.636719 102.28125 46.425781 104.164062 C 45.078125 105.308594 44.203125 106.777344 43.578125 108.414062 C 42.808594 110.425781 42.527344 112.53125 42.425781 114.679688 C 42.050781 114.652344 41.9375 114.371094 41.75 114.207031 C 39.449219 112.199219 36.734375 112.796875 35.46875 115.585938 C 34.984375 116.652344 34.835938 117.777344 34.792969 118.941406 C 34.691406 121.882812 35.253906 124.734375 35.960938 127.589844 C 35.652344 127.589844 35.386719 127.605469 35.125 127.585938 C 32.34375 127.382812 30.234375 129.5625 30.53125 132.328125 C 30.707031 133.949219 31.238281 135.460938 31.949219 136.914062 C 34.90625 142.941406 39.460938 147.601562 44.605469 151.753906 C 50.910156 156.847656 57.734375 161.160156 64.75 165.1875 C 65.125 165.402344 65.644531 165.46875 65.71875 166.054688 C 65.820312 166.84375 66.363281 167.316406 66.972656 167.753906 C 72.789062 171.9375 78.757812 175.890625 85.023438 179.371094 C 89.605469 181.921875 94.277344 184.285156 99.40625 185.574219 C 102.878906 186.449219 106.101562 186.136719 109.171875 184.078125 C 112.332031 181.957031 115.328125 179.652344 118.148438 177.105469 C 119.476562 175.910156 120.78125 174.6875 122.1875 173.394531 C 122.242188 173.710938 122.28125 173.890625 122.308594 174.070312 C 123.527344 182.0625 124.738281 190.0625 126.144531 198.027344 C 126.382812 199.398438 126.882812 199.953125 127.953125 199.996094 C 129.238281 200.046875 129.710938 199.632812 130.082031 198.121094 C 130.4375 197.65625 130.230469 197.152344 130.148438 196.675781 C 127.890625 183.167969 125.726562 169.644531 124.28125 156.019531 C 124.03125 153.65625 123.746094 151.292969 123.730469 148.914062 C 123.722656 147.679688 123.847656 147.585938 125.082031 147.839844 C 126.621094 148.15625 128.167969 148.496094 129.730469 148.59375 C 131.027344 148.675781 131.816406 149.304688 132.507812 150.320312 C 134.148438 152.730469 135.84375 155.101562 137.613281 157.417969 C 138.851562 159.039062 140.339844 159.007812 141.628906 157.425781 C 142.234375 156.683594 142.75 155.871094 143.320312 155.101562 C 143.671875 154.621094 143.964844 154.648438 144.285156 155.121094 C 144.800781 155.886719 145.289062 156.667969 145.824219 157.417969 C 147.34375 159.542969 149.058594 159.5 150.394531 157.28125 C 151.941406 154.71875 153.503906 152.164062 154.996094 149.570312 C 155.441406 148.796875 156.019531 148.402344 156.878906 148.265625 C 159.113281 147.902344 161.324219 147.441406 163.511719 146.859375 C 164.785156 146.523438 164.851562 146.578125 164.675781 147.855469 C 163.511719 156.332031 162.339844 164.804688 160.992188 173.253906 C 159.75 181.023438 158.605469 188.808594 156.589844 196.425781 C 156.488281 196.808594 156.464844 197.183594 156.675781 197.542969 C 156.855469 198.613281 157.414062 199.292969 158.5625 199.339844 C 159.664062 199.382812 160.246094 198.746094 160.527344 197.761719 C 160.816406 196.769531 161.132812 195.78125 161.355469 194.773438 C 164.066406 182.492188 165.742188 170.03125 167.566406 157.597656 C 167.882812 155.445312 168.179688 153.289062 168.527344 150.855469 C 169.851562 153.921875 170.929688 156.742188 171.871094 159.609375 C 174.167969 166.621094 176.101562 173.714844 175.875 181.195312 C 175.695312 187.195312 174.144531 192.496094 168.242188 195.464844 C 167.320312 195.929688 167.082031 197.058594 167.542969 197.96875 C 168.011719 198.890625 168.960938 199.253906 169.96875 198.871094 C 170.359375 198.722656 170.738281 198.53125 171.101562 198.320312 C 176.46875 195.195312 178.808594 190.230469 179.527344 184.3125 C 180.242188 178.441406 179.378906 172.6875 178.027344 166.992188 C 176.238281 159.441406 173.472656 152.234375 170.285156 145.175781 C 169.96875 145.03125 169.507812 145.351562 169.265625 144.867188 C 169.355469 144.785156 169.425781 144.691406 169.523438 144.644531 C 169.835938 144.5 170.152344 144.367188 170.472656 144.242188 C 177.246094 141.621094 183.285156 137.832031 188.375 132.644531 C 194.796875 126.101562 198.972656 118.246094 201.421875 109.445312 C 201.644531 108.640625 201.957031 108.289062 202.886719 108.269531 C 207.824219 108.171875 211.34375 105.457031 212.746094 100.800781 C 213.488281 98.328125 213.519531 95.800781 213.261719 93.273438 C 212.804688 88.824219 210.269531 84.558594 204.632812 84.960938 C 203.738281 85.023438 204.007812 84.28125 203.933594 83.808594 C 203.847656 83.269531 203.894531 82.871094 204.625 82.78125 C 206.242188 82.578125 206.8125 81.9375 206.695312 80.644531 C 206.597656 79.503906 205.816406 78.953125 204.253906 79.027344 C 200.394531 79.207031 196.613281 78.667969 192.886719 77.757812 C 179.652344 74.53125 167.304688 69.074219 155.511719 62.390625 C 145.367188 56.636719 137.71875 48.203125 131.433594 38.472656 C 129.015625 34.726562 126.925781 30.804688 125.050781 26.765625 C 124.589844 25.773438 123.828125 25.40625 122.816406 25.601562 C 121.820312 25.796875 121.265625 26.492188 121.355469 27.5 C 121.429688 28.300781 120.964844 28.433594 120.398438 28.644531 C 112.386719 31.605469 105.21875 35.941406 99.160156 42 C 92.171875 48.988281 87.402344 57.347656 84.289062 66.691406 C 82.453125 72.195312 81.226562 77.835938 80.558594 83.601562 C 80.480469 84.277344 80.570312 84.992188 79.410156 85 C 75.679688 85.023438 73.269531 86.90625 72.078125 90.464844 C 71.269531 92.886719 71.285156 95.378906 71.429688 97.867188 C 71.789062 104.035156 75.726562 107.964844 81.839844 108.277344 C 82.515625 108.3125 82.757812 108.554688 82.933594 109.148438 C 83.382812 110.695312 83.894531 112.21875 84.386719 113.753906 C 84.476562 114.03125 84.636719 114.300781 84.339844 114.761719 C 84.273438 114.601562 84.257812 114.472656 84.183594 114.390625 C 80.546875 110.527344 76.179688 108.140625 70.8125 107.859375 C 70.019531 107.816406 69.777344 107.429688 69.589844 106.785156 C 68.496094 102.953125 67.5625 99.085938 66.839844 95.164062 C 67.050781 94.738281 66.800781 94.34375 66.761719 93.933594 C 66.550781 92.222656 66.335938 90.515625 66.085938 88.808594 C 65.628906 85.621094 65.339844 82.414062 65.28125 79.191406 C 65.226562 76.234375 65.417969 73.289062 65.71875 70.351562 C 66.660156 61.15625 69.167969 52.457031 73.648438 44.332031 C 77.597656 37.160156 82.257812 30.5625 88.25 24.933594 C 94.144531 19.394531 100.808594 15.402344 108.953125 14.261719 C 109.519531 13.992188 110.167969 14.074219 110.746094 13.851562 C 111.621094 13.792969 112.496094 13.726562 113.371094 13.683594 C 114.546875 13.625 115.328125 13 115.277344 11.859375 C 115.246094 11.125 115.570312 10.835938 116.066406 10.519531 C 118.902344 8.695312 122.042969 7.589844 125.261719 6.710938 C 129.851562 5.460938 134.527344 4.730469 139.265625 4.324219 C 143.859375 3.933594 148.445312 3.800781 153.011719 4.464844 C 162.609375 5.859375 171.679688 8.875 180.167969 13.605469 C 186.257812 17 191.796875 21.128906 196.773438 26.011719 C 196.816406 26.386719 197.082031 26.617188 197.316406 26.863281 C 200.425781 30.136719 203.363281 33.550781 205.9375 37.265625 C 206.296875 37.785156 206.5625 38.421875 207.203125 38.707031 C 210.160156 42.972656 212.472656 47.589844 214.460938 52.375 C 218.691406 62.566406 220.070312 73.339844 220.894531 84.214844 C 221.277344 89.265625 221.332031 94.328125 220.929688 99.382812 C 220.648438 102.933594 220.222656 106.457031 219.324219 109.914062 C 219.136719 110.207031 219.238281 110.558594 219.125 110.867188 C 219.148438 111.277344 219.015625 111.644531 218.839844 112 C 218.554688 112.511719 218.480469 113.097656 218.273438 113.636719 C 217.054688 117.652344 215.636719 121.589844 213.914062 125.417969 C 213.425781 126.351562 212.980469 127.304688 212.5 128.242188 C 212.042969 129.347656 211.15625 130.226562 210.847656 131.40625 C 208.734375 134.71875 206.984375 138.300781 203.796875 140.8125 C 202.90625 141.515625 202.792969 142.636719 203.433594 143.476562 C 204.070312 144.316406 205.164062 144.519531 206.089844 143.90625 C 206.988281 143.308594 207.777344 142.585938 208.496094 141.777344 C 210.136719 139.933594 211.398438 137.824219 212.738281 135.769531 C 219.195312 125.878906 222.933594 115.003906 224.421875 103.304688 C 225.0625 98.289062 224.863281 93.261719 224.820312 88.238281 "/>
<path style=" stroke:none;fill-rule:nonzero;fill:rgb(40.784314%,69.803922%,99.607843%);fill-opacity:1;" d="M 130.082031 198.121094 C 128.539062 189.328125 127.152344 180.511719 125.902344 171.675781 C 124.933594 164.84375 124.039062 158.007812 123.492188 151.125 C 123.410156 150.058594 123.40625 148.980469 123.316406 147.910156 C 123.269531 147.324219 123.476562 147.140625 124.035156 147.265625 C 126.351562 147.78125 128.6875 148.191406 131.050781 148.421875 C 131.59375 148.476562 131.832031 148.855469 132.097656 149.226562 C 133.976562 151.839844 135.847656 154.460938 137.726562 157.070312 C 138.976562 158.804688 140.304688 158.777344 141.554688 157.007812 C 142.28125 155.980469 143.007812 154.949219 143.8125 153.808594 C 144.675781 155.101562 145.464844 156.3125 146.285156 157.507812 C 147.378906 159.097656 148.949219 159.070312 149.941406 157.421875 C 151.703125 154.503906 153.4375 151.570312 155.160156 148.628906 C 155.332031 148.335938 155.488281 148.160156 155.828125 148.105469 C 158.960938 147.609375 162.058594 146.949219 165.25 146.039062 C 164.917969 148.539062 164.636719 150.921875 164.285156 153.292969 C 163.175781 160.796875 162.089844 168.304688 160.910156 175.796875 C 159.796875 182.871094 158.75 189.960938 156.777344 196.863281 C 156.714844 197.082031 156.707031 197.316406 156.675781 197.542969 C 152.738281 197.605469 148.804688 197.660156 144.867188 197.734375 C 141.082031 197.808594 137.300781 197.902344 133.515625 197.996094 C 132.371094 198.023438 131.226562 198.078125 130.082031 198.121094 "/>
<path style=" stroke:none;fill-rule:nonzero;fill:rgb(100%,44.313725%,39.215686%);fill-opacity:1;" d="M 26.035156 104.46875 C 25.320312 104.488281 24.769531 104.152344 24.269531 103.714844 C 19.710938 99.738281 15.144531 95.765625 10.605469 91.769531 C 9.363281 90.671875 9.257812 89.140625 10.246094 87.988281 C 11.203125 86.871094 12.820312 86.769531 14.042969 87.832031 C 18.648438 91.816406 23.234375 95.820312 27.820312 99.828125 C 28.8125 100.695312 29.082031 101.855469 28.589844 102.9375 C 28.089844 104.035156 27.226562 104.550781 26.035156 104.46875 "/>
<path style=" stroke:none;fill-rule:nonzero;fill:rgb(100%,44.313725%,39.215686%);fill-opacity:1;" d="M 18.507812 123.140625 C 18.511719 124.847656 17.011719 126.074219 15.320312 125.6875 C 13.265625 125.210938 11.289062 124.480469 9.363281 123.625 C 7.050781 122.59375 4.6875 121.71875 2.25 121.042969 C 0.46875 120.546875 -0.296875 119.320312 0.105469 117.707031 C 0.453125 116.300781 1.9375 115.546875 3.605469 115.980469 C 6.054688 116.617188 8.433594 117.460938 10.746094 118.492188 C 12.601562 119.320312 14.488281 120.050781 16.457031 120.570312 C 17.785156 120.921875 18.503906 121.875 18.507812 123.140625 "/>
<path style=" stroke:none;fill-rule:nonzero;fill:rgb(100%,44.313725%,39.215686%);fill-opacity:1;" d="M 37.164062 69.746094 C 38.207031 69.757812 39.011719 70.195312 39.503906 71.132812 C 41.5625 75.0625 43.507812 79.046875 45.300781 83.105469 C 45.953125 84.582031 45.347656 86.0625 43.976562 86.648438 C 42.625 87.222656 41.21875 86.683594 40.546875 85.25 C 38.714844 81.335938 36.851562 77.441406 34.886719 73.589844 C 33.949219 71.75 35.171875 69.757812 37.164062 69.746094 "/>
<path style=" stroke:none;fill-rule:nonzero;fill:rgb(96.078431%,94.117647%,91.764706%);fill-opacity:1;" d="M 212.621094 128.34375 C 212.109375 129.410156 211.585938 130.472656 210.847656 131.40625 C 210.769531 131.3125 210.691406 131.21875 210.613281 131.125 C 211.210938 130.113281 211.8125 129.101562 212.410156 128.085938 C 212.554688 128.109375 212.570312 128.242188 212.621094 128.34375 "/>
<path style=" stroke:none;fill-rule:nonzero;fill:rgb(99.607843%,99.607843%,99.607843%);fill-opacity:1;" d="M 66.625 94.003906 C 65.710938 88.980469 65.066406 83.929688 65.011719 78.816406 C 64.828125 62.457031 69.734375 47.761719 79.371094 34.597656 C 83.984375 28.292969 89.246094 22.675781 95.996094 18.613281 C 99.96875 16.226562 104.195312 14.511719 108.851562 14.042969 C 109.132812 14.023438 109.507812 13.726562 109.589844 14.292969 C 101.863281 17.339844 95.730469 22.601562 89.882812 28.324219 C 77.730469 40.226562 71.53125 55.0625 68.386719 71.453125 C 66.972656 78.835938 66.585938 86.289062 66.828125 93.785156 C 66.925781 94.011719 66.816406 94.046875 66.625 94.003906 "/>
<path style=" stroke:none;fill-rule:nonzero;fill:rgb(43.137255%,25.490196%,0%);fill-opacity:1;" d="M 153.828125 31.628906 C 154.757812 31.710938 155.320312 32.175781 155.761719 32.863281 C 163.375 44.671875 173.21875 54.273438 184.820312 62.09375 C 190.695312 66.054688 196.964844 69.222656 203.875 70.984375 C 205.109375 71.300781 205.75 72.300781 205.46875 73.367188 C 205.175781 74.464844 204.175781 75.019531 202.949219 74.714844 C 196.726562 73.152344 190.96875 70.492188 185.535156 67.136719 C 172.433594 59.046875 161.597656 48.582031 153.019531 35.777344 C 152.679688 35.269531 152.324219 34.753906 152.101562 34.191406 C 151.628906 32.980469 152.640625 31.601562 153.828125 31.628906 "/>
<path style=" stroke:none;fill-rule:nonzero;fill:rgb(99.607843%,99.607843%,99.607843%);fill-opacity:1;" d="M 196.773438 26.011719 C 200.695312 29.875 204.238281 34.050781 207.203125 38.703125 C 202.4375 42.257812 197.210938 44.75 191.28125 45.632812 C 190.328125 45.773438 189.613281 45.585938 189.035156 44.722656 C 188.511719 43.9375 187.820312 43.265625 187.144531 42.480469 C 189.675781 41.445312 191.851562 40.042969 193.460938 37.902344 C 195.5625 35.113281 196.433594 31.90625 196.566406 28.453125 C 196.597656 27.640625 196.277344 26.789062 196.773438 26.011719 "/>
<path style=" stroke:none;fill-rule:nonzero;fill:rgb(98.039216%,97.254902%,96.078431%);fill-opacity:1;" d="M 218.417969 113.621094 C 217.375 117.765625 215.890625 121.746094 214 125.574219 C 213.800781 125.597656 213.664062 125.570312 213.789062 125.324219 C 215.351562 121.304688 216.886719 117.277344 218.214844 113.171875 C 218.617188 113.171875 218.535156 113.390625 218.417969 113.621094 "/>
<path style=" stroke:none;fill-rule:nonzero;fill:rgb(96.470588%,94.117647%,91.764706%);fill-opacity:1;" d="M 213.789062 125.324219 C 213.859375 125.40625 213.929688 125.492188 214 125.574219 C 213.660156 126.558594 213.152344 127.453125 212.621094 128.34375 C 212.550781 128.257812 212.480469 128.171875 212.410156 128.085938 C 212.871094 127.164062 213.328125 126.246094 213.789062 125.324219 "/>
<path style=" stroke:none;fill-rule:nonzero;fill:rgb(96.470588%,91.764706%,87.45098%);fill-opacity:1;" d="M 109.589844 14.292969 C 109.410156 14.019531 109.09375 14.140625 108.851562 14.042969 C 109.460938 13.761719 110.109375 13.84375 110.746094 13.851562 C 110.417969 14.144531 110.003906 14.222656 109.589844 14.292969 "/>
<path style=" stroke:none;fill-rule:nonzero;fill:rgb(90.588235%,87.058824%,82.745098%);fill-opacity:1;" d="M 218.417969 113.621094 C 218.351562 113.472656 218.28125 113.320312 218.214844 113.171875 C 218.375 112.753906 218.3125 112.222656 218.839844 112 C 218.820312 112.574219 218.691406 113.117188 218.417969 113.621094 "/>
<path style=" stroke:none;fill-rule:nonzero;fill:rgb(88.627451%,78.039216%,66.666667%);fill-opacity:1;" d="M 66.625 94.003906 C 66.691406 93.929688 66.761719 93.859375 66.828125 93.785156 C 67.121094 94.242188 67.167969 94.703125 66.839844 95.164062 C 66.769531 94.777344 66.695312 94.390625 66.625 94.003906 "/>
<path style=" stroke:none;fill-rule:nonzero;fill:rgb(84.705882%,76.862745%,68.627451%);fill-opacity:1;" d="M 219.324219 109.914062 C 219.347656 110.25 219.394531 110.59375 219.125 110.867188 C 218.878906 110.484375 219.046875 110.1875 219.324219 109.914062 "/>
<path style=" stroke:none;fill-rule:nonzero;fill:rgb(99.607843%,97.254902%,91.764706%);fill-opacity:1;" d="M 193.90625 118.214844 C 188.902344 128.160156 181.261719 135.320312 171.105469 139.796875 C 164.128906 142.867188 156.765625 144.355469 149.203125 144.9375 C 140.75 145.589844 132.363281 145.179688 124.082031 143.3125 C 110.917969 140.34375 100.109375 133.835938 92.773438 122.195312 C 91.242188 119.765625 89.871094 117.25 88.910156 114.527344 C 89.457031 114.335938 89.871094 114.691406 90.304688 114.902344 C 92.617188 116.023438 95.089844 116.640625 97.621094 116.683594 C 100.277344 116.726562 102.761719 115.925781 104.75 113.996094 C 106.515625 112.289062 108.257812 110.570312 109.226562 108.226562 C 110.023438 106.296875 110.355469 104.304688 109.925781 102.269531 C 109.105469 98.363281 107.335938 94.964844 104.125 92.488281 C 100.480469 89.679688 95.433594 89.476562 91.472656 91.816406 C 88.996094 93.285156 87.121094 95.292969 85.730469 97.796875 C 85.503906 98.207031 85.414062 98.769531 84.796875 98.84375 C 83.269531 89.339844 84.390625 80.050781 87.042969 70.882812 C 89.667969 61.808594 93.785156 53.550781 100.203125 46.539062 C 106.359375 39.816406 113.828125 35.109375 122.371094 32.035156 C 123.019531 31.800781 123.285156 31.941406 123.585938 32.539062 C 127.726562 40.695312 132.914062 48.113281 139.335938 54.636719 C 144.699219 60.089844 150.792969 64.542969 157.613281 68.019531 C 167.410156 73.011719 177.417969 77.476562 188.011719 80.507812 C 191.660156 81.554688 195.355469 82.386719 199.140625 82.710938 C 199.867188 82.773438 199.988281 83.082031 200.046875 83.703125 C 200.5 88.613281 200.375 93.503906 199.730469 98.386719 C 199.078125 98.410156 198.957031 97.832031 198.703125 97.441406 C 197.605469 95.761719 196.441406 94.144531 194.777344 92.972656 C 189.679688 89.382812 183.007812 89.960938 178.421875 94.273438 C 175.078125 97.417969 173.125 101.253906 172.792969 105.78125 C 172.558594 108.953125 173.71875 111.789062 175.84375 114.214844 C 178.417969 117.152344 181.796875 118.394531 185.503906 119.058594 C 188.007812 119.507812 190.378906 119.140625 192.722656 118.273438 C 193.101562 118.132812 193.492188 117.867188 193.90625 118.214844 "/>
<path style=" stroke:none;fill-rule:nonzero;fill:rgb(99.607843%,97.254902%,91.764706%);fill-opacity:1;" d="M 39.042969 117.042969 C 40.449219 118.273438 41.1875 119.839844 41.949219 121.367188 C 43.054688 123.59375 44 125.894531 44.769531 128.265625 C 45.21875 129.636719 46.214844 130.253906 47.351562 129.886719 C 48.429688 129.535156 48.851562 128.511719 48.480469 127.148438 C 47.339844 122.921875 46.339844 118.671875 46.351562 114.261719 C 46.355469 112.160156 46.824219 110.152344 47.929688 108.335938 C 48.304688 107.714844 48.703125 106.871094 49.457031 106.921875 C 50.238281 106.96875 50.453125 107.894531 50.707031 108.5625 C 51.398438 110.363281 51.695312 112.261719 51.855469 114.171875 C 52.195312 118.183594 52.46875 122.199219 52.777344 126.210938 C 52.816406 126.707031 52.890625 127.203125 52.984375 127.691406 C 53.191406 128.792969 53.945312 129.449219 54.933594 129.421875 C 55.992188 129.390625 56.769531 128.648438 56.792969 127.472656 C 56.824219 125.625 56.941406 123.800781 57.402344 122.003906 C 58.953125 115.980469 63.535156 111.9375 69.691406 111.730469 C 75.046875 111.554688 79.273438 114.085938 82.351562 118.414062 C 83.863281 120.542969 84.988281 122.910156 85.265625 125.574219 C 85.515625 128.007812 84.011719 129.070312 81.753906 128.078125 C 80.128906 127.363281 78.722656 126.285156 77.277344 125.285156 C 76.265625 124.589844 75.257812 123.894531 74.121094 123.417969 C 71.5 122.3125 69.027344 122.613281 66.757812 124.320312 C 63.375 126.863281 61.625 132.53125 63.019531 136.320312 C 65.460938 142.945312 72.839844 144.621094 78.421875 139.828125 C 79.8125 138.636719 80.941406 137.265625 81.648438 135.566406 C 81.855469 135.070312 82.140625 134.613281 82.367188 134.128906 C 82.785156 133.234375 83.40625 132.773438 84.453125 132.914062 C 85.464844 133.050781 85.929688 133.714844 86.117188 134.574219 C 87.546875 141.125 83.871094 149.136719 75.445312 150.03125 C 75.027344 150.074219 74.605469 150.078125 74.1875 150.113281 C 72.742188 150.230469 72.046875 151.101562 72.296875 152.511719 C 72.382812 153 72.441406 153.535156 72.683594 153.949219 C 73.539062 155.421875 73.074219 156.515625 71.976562 157.65625 C 70.703125 158.976562 69.582031 160.449219 68.433594 161.886719 C 68.0625 162.355469 67.769531 162.457031 67.222656 162.140625 C 58.460938 157.070312 49.867188 151.757812 42.5 144.703125 C 39.457031 141.792969 36.933594 138.480469 35.171875 134.632812 C 34.839844 133.90625 34.644531 133.117188 34.421875 132.347656 C 34.34375 132.066406 34.277344 131.726562 34.585938 131.503906 C 34.898438 131.273438 35.1875 131.488281 35.441406 131.617188 C 36.710938 132.269531 37.578125 133.335938 38.328125 134.511719 C 38.492188 134.769531 38.617188 135.050781 38.773438 135.3125 C 39.453125 136.417969 40.496094 136.753906 41.503906 136.199219 C 42.449219 135.675781 42.757812 134.605469 42.203125 133.503906 C 40.429688 129.976562 39.453125 126.203125 38.839844 122.335938 C 38.566406 120.617188 38.386719 118.859375 39.042969 117.042969 "/>
<path style=" stroke:none;fill-rule:nonzero;fill:rgb(99.607843%,99.607843%,99.607843%);fill-opacity:1;" d="M 119.417969 146.757812 C 119.636719 153.839844 120.539062 160.753906 121.449219 167.671875 C 121.507812 168.128906 121.59375 168.523438 121.183594 168.921875 C 117.0625 172.9375 112.824219 176.789062 108.140625 180.164062 C 105.210938 182.273438 102.277344 182.566406 98.945312 181.46875 C 94.125 179.878906 89.652344 177.574219 85.273438 175.0625 C 80.460938 172.296875 75.832031 169.242188 71.269531 166.074219 C 70.628906 165.628906 70.507812 165.371094 71.074219 164.71875 C 72.984375 162.519531 74.835938 160.269531 76.664062 158.003906 C 77.09375 157.472656 77.371094 157.457031 77.9375 157.820312 C 84.480469 162.011719 91.253906 165.796875 98.101562 169.457031 C 99.144531 170.011719 100.019531 169.976562 100.984375 169.359375 C 103.9375 167.472656 106.234375 164.90625 108.429688 162.242188 C 112.21875 157.65625 115.511719 152.71875 118.667969 147.679688 C 118.859375 147.371094 118.960938 146.976562 119.417969 146.757812 "/>
<path style=" stroke:none;fill-rule:nonzero;fill:rgb(100%,83.529412%,72.941176%);fill-opacity:1;" d="M 193.90625 118.214844 C 192.570312 118.53125 191.332031 119.128906 189.964844 119.378906 C 187.121094 119.902344 184.410156 119.328125 181.765625 118.429688 C 177.050781 116.824219 173.847656 113.6875 172.757812 108.730469 C 171.773438 104.277344 173.308594 100.335938 175.8125 96.769531 C 178.058594 93.574219 181.046875 91.285156 184.980469 90.550781 C 190.003906 89.617188 194.179688 91.183594 197.429688 95.125 C 198.273438 96.148438 198.96875 97.296875 199.730469 98.386719 C 198.882812 105.320312 197.082031 111.96875 193.90625 118.214844 "/>
<path style=" stroke:none;fill-rule:nonzero;fill:rgb(100%,83.529412%,72.941176%);fill-opacity:1;" d="M 84.796875 98.84375 C 85.621094 97.46875 86.367188 96.0625 87.425781 94.828125 C 90.023438 91.800781 93.25 89.964844 97.246094 89.914062 C 101.570312 89.863281 104.894531 91.890625 107.335938 95.449219 C 109.101562 98.027344 110.261719 100.839844 110.433594 103.953125 C 110.53125 105.707031 110.074219 107.472656 109.203125 109.015625 C 107.601562 111.851562 105.527344 114.296875 102.59375 115.839844 C 99.445312 117.492188 96.1875 117.117188 92.921875 116.203125 C 91.511719 115.8125 90.195312 115.210938 88.910156 114.527344 C 87.070312 110.460938 86.023438 106.160156 85.21875 101.789062 C 85.039062 100.816406 84.9375 99.824219 84.796875 98.84375 "/>
<path style=" stroke:none;fill-rule:nonzero;fill:rgb(85.882353%,65.490196%,43.529412%);fill-opacity:1;" d="M 113.058594 143.980469 C 111.320312 144.007812 109.644531 143.644531 108.027344 143.054688 C 107.386719 142.820312 107.085938 142.90625 106.808594 143.546875 C 105.4375 146.695312 103.496094 147.367188 99.726562 145.980469 C 98.035156 145.359375 96.554688 144.316406 95.082031 143.277344 C 94.773438 143.058594 94.507812 142.597656 93.996094 142.871094 C 93.609375 141.5625 92.382812 141.089844 91.441406 140.359375 C 90.632812 139.738281 90.179688 139.128906 90.242188 138 C 90.390625 135.289062 90.164062 132.625 88.140625 130.5 C 87.949219 130.296875 87.96875 130.101562 88.113281 129.886719 C 89.242188 128.222656 89.242188 126.359375 89.09375 124.464844 C 89.050781 124.257812 88.863281 123.980469 89.3125 124.003906 C 94.9375 133.089844 102.769531 139.558594 112.566406 143.703125 C 112.738281 143.777344 112.894531 143.886719 113.058594 143.980469 "/>
<path style=" stroke:none;fill-rule:nonzero;fill:rgb(99.607843%,97.254902%,91.764706%);fill-opacity:1;" d="M 209.550781 95.902344 C 209.4375 98.300781 209.246094 100.742188 207.359375 102.640625 C 206.28125 103.726562 204.925781 104.175781 203.457031 104.378906 C 202.960938 104.445312 202.660156 104.390625 202.789062 103.746094 C 203.734375 99.078125 204.15625 94.359375 204.167969 89.605469 C 204.167969 88.921875 204.445312 88.765625 205.050781 88.75 C 206.714844 88.707031 208.003906 89.464844 208.714844 91.007812 C 209.421875 92.539062 209.496094 94.183594 209.550781 95.902344 "/>
<path style=" stroke:none;fill-rule:nonzero;fill:rgb(99.607843%,97.254902%,91.764706%);fill-opacity:1;" d="M 81.746094 104.269531 C 79.476562 104.507812 77.082031 103.140625 76.140625 100.859375 C 74.835938 97.691406 74.847656 94.433594 75.949219 91.199219 C 76.476562 89.660156 77.65625 88.910156 79.25 88.757812 C 79.9375 88.691406 80.28125 88.828125 80.285156 89.65625 C 80.300781 94.574219 80.769531 99.449219 81.746094 104.269531 "/>
<path style=" stroke:none;fill-rule:nonzero;fill:rgb(99.215686%,99.215686%,99.215686%);fill-opacity:1;" d="M 142.398438 149.054688 C 141.390625 150.488281 140.523438 151.726562 139.605469 153.03125 C 138.652344 151.707031 137.742188 150.441406 136.742188 149.054688 C 138.625 149.054688 140.382812 149.054688 142.398438 149.054688 "/>
<path style=" stroke:none;fill-rule:nonzero;fill:rgb(99.215686%,99.215686%,99.215686%);fill-opacity:1;" d="M 145.339844 149.078125 C 147.15625 148.96875 148.800781 148.867188 150.617188 148.757812 C 149.710938 150.265625 148.898438 151.617188 148.011719 153.097656 C 147.085938 151.710938 146.257812 150.460938 145.339844 149.078125 "/>
<path style=" stroke:none;fill-rule:nonzero;fill:rgb(74.117647%,54.901961%,31.764706%);fill-opacity:1;" d="M 89.3125 124.003906 C 89.238281 124.160156 89.167969 124.3125 89.09375 124.464844 C 88.878906 124.21875 88.765625 123.890625 88.988281 123.660156 C 89.109375 123.539062 89.257812 123.828125 89.3125 124.003906 "/>
<path style=" stroke:none;fill-rule:nonzero;fill:rgb(43.137255%,25.490196%,0%);fill-opacity:1;" d="M 143.351562 170.96875 C 141.929688 170.976562 140.789062 169.859375 140.769531 168.433594 C 140.75 167.019531 141.886719 165.871094 143.3125 165.867188 C 144.726562 165.859375 145.90625 167.007812 145.90625 168.394531 C 145.90625 169.804688 144.765625 170.957031 143.351562 170.96875 "/>
<path style=" stroke:none;fill-rule:nonzero;fill:rgb(43.137255%,25.490196%,0%);fill-opacity:1;" d="M 143.328125 178.992188 C 144.777344 178.992188 145.90625 180.097656 145.90625 181.507812 C 145.902344 182.914062 144.742188 184.066406 143.335938 184.0625 C 141.917969 184.0625 140.769531 182.921875 140.769531 181.511719 C 140.765625 180.066406 141.855469 178.996094 143.328125 178.992188 "/>
<path style=" stroke:none;fill-rule:nonzero;fill:rgb(43.137255%,25.490196%,0%);fill-opacity:1;" d="M 107.722656 87.269531 C 107.855469 85.015625 108.839844 82.921875 110.808594 81.359375 C 111.382812 80.902344 111.429688 80.628906 110.976562 80.035156 C 109.945312 78.679688 109.5625 77.085938 109.601562 75.390625 C 109.621094 74.523438 110.054688 74.019531 110.925781 73.984375 C 111.800781 73.945312 112.3125 74.421875 112.375 75.273438 C 112.476562 76.636719 112.707031 77.929688 113.730469 78.953125 C 114.132812 79.355469 114.53125 79.542969 115.136719 79.492188 C 119.078125 79.160156 121.976562 81.1875 123.039062 84.96875 C 123.355469 86.089844 122.851562 87.152344 121.847656 87.484375 C 120.820312 87.824219 119.820312 87.308594 119.375 86.207031 C 119.359375 86.171875 119.347656 86.132812 119.332031 86.097656 C 118.542969 84.023438 117.394531 83.09375 115.8125 83.253906 C 113.832031 83.457031 112.050781 85.003906 111.679688 86.867188 C 111.597656 87.277344 111.597656 87.707031 111.558594 88.125 C 111.441406 89.320312 110.628906 90.105469 109.558594 90.0625 C 108.476562 90.015625 107.757812 89.199219 107.722656 87.980469 C 107.71875 87.828125 107.722656 87.671875 107.722656 87.269531 "/>
<path style=" stroke:none;fill-rule:nonzero;fill:rgb(43.137255%,25.490196%,0%);fill-opacity:1;" d="M 165.671875 80.328125 C 164.628906 78.898438 164.15625 77.3125 164.117188 75.585938 C 164.101562 74.710938 164.433594 74.066406 165.378906 73.988281 C 166.367188 73.90625 166.851562 74.4375 166.921875 75.410156 C 166.957031 75.90625 167.027344 76.402344 167.128906 76.890625 C 167.488281 78.5625 168.355469 79.277344 170.207031 79.472656 C 174.371094 79.910156 177.675781 83.554688 177.691406 87.71875 C 177.695312 89.140625 176.925781 90.070312 175.753906 90.0625 C 174.621094 90.058594 173.871094 89.195312 173.816406 87.820312 C 173.738281 85.761719 172.707031 84.359375 170.839844 83.585938 C 168.851562 82.769531 167.066406 83.539062 166.25 85.515625 C 166.148438 85.761719 166.085938 86.023438 165.980469 86.269531 C 165.550781 87.3125 164.585938 87.804688 163.589844 87.5 C 162.605469 87.199219 162.03125 86.207031 162.316406 85.117188 C 162.746094 83.496094 163.546875 82.070312 164.855469 80.976562 C 165.121094 80.757812 165.390625 80.550781 165.671875 80.328125 "/>
<path style=" stroke:none;fill-rule:nonzero;fill:rgb(43.137255%,25.490196%,0%);fill-opacity:1;" d="M 141.886719 124.316406 C 137.457031 124.335938 133.734375 121.816406 132.757812 118.179688 C 132.527344 117.335938 132.722656 116.660156 133.332031 116.101562 C 133.886719 115.589844 134.574219 115.527344 135.269531 115.757812 C 135.9375 115.980469 136.289062 116.523438 136.5 117.175781 C 137.773438 121.171875 144.308594 121.347656 146.265625 118.511719 C 146.660156 117.9375 146.9375 117.328125 147.148438 116.660156 C 147.527344 115.4375 148.46875 114.917969 149.621094 115.222656 C 150.613281 115.484375 151.136719 116.535156 150.863281 117.707031 C 149.933594 121.679688 146.378906 124.296875 141.886719 124.316406 "/>
<path style=" stroke:none;fill-rule:nonzero;fill:rgb(43.137255%,25.490196%,0%);fill-opacity:1;" d="M 114.632812 47.171875 C 116.964844 47.21875 118.570312 48.019531 119.566406 49.847656 C 120.136719 50.890625 119.992188 51.71875 119.214844 52.160156 C 118.40625 52.617188 117.703125 52.351562 117.109375 51.269531 C 116.496094 50.152344 115.511719 49.886719 114.378906 50.023438 C 113.105469 50.179688 111.800781 50.46875 111.285156 51.828125 C 110.910156 52.808594 110.339844 53.207031 109.371094 52.957031 C 108.589844 52.753906 108.257812 51.828125 108.609375 50.839844 C 109.417969 48.574219 111.324219 47.753906 113.453125 47.277344 C 113.929688 47.171875 114.4375 47.1875 114.632812 47.171875 "/>
<path style=" stroke:none;fill-rule:nonzero;fill:rgb(43.137255%,25.490196%,0%);fill-opacity:1;" d="M 141.632812 86.617188 C 142.152344 86.59375 142.640625 86.738281 142.980469 87.121094 C 143.613281 87.835938 144.195312 88.613281 144.539062 89.5 C 144.894531 90.414062 144.632812 91.269531 143.761719 91.785156 C 142.921875 92.277344 142.027344 92.234375 141.371094 91.46875 C 140.808594 90.8125 140.304688 90.066406 139.929688 89.28125 C 139.324219 88.027344 140.25 86.644531 141.632812 86.617188 "/>
</g>
</svg>
