<?xml version="1.0" encoding="UTF-8"?>
<svg xmlns="http://www.w3.org/2000/svg" xmlns:xlink="http://www.w3.org/1999/xlink" width="137pt" height="200pt" viewBox="0 0 137 200" version="1.1">
<g id="surface1">
<path style=" stroke:none;fill-rule:nonzero;fill:rgb(45.490196%,29.803922%,27.058824%);fill-opacity:1;" d="M 95.609375 13.570312 C 89.929688 0.84375 48.402344 -8.246094 27.519531 22.15625 C 14.320312 41.371094 16.742188 68.226562 16.742188 68.226562 L 22.824219 89.328125 L 19.546875 88.878906 C 19.546875 88.878906 26.027344 114.746094 52.699219 129.746094 L 83.882812 129.960938 C 109.054688 114.917969 114.839844 94.445312 116.011719 90.253906 L 116.167969 90.175781 L 118.949219 67.484375 C 122.535156 16.121094 95.609375 13.570312 95.609375 13.570312 "/>
<path style="fill:none;stroke-width:7;stroke-linecap:round;stroke-linejoin:round;stroke:rgb(10.196078%,9.803922%,9.803922%);stroke-opacity:1;stroke-miterlimit:4;" d="M 81.724595 366.609375 C 81.724595 366.609375 100.572964 465.818848 216.401831 533.317383 M 477.347029 368.478516 C 477.347029 368.478516 467.552321 464.771484 349.210339 533.945801 " transform="matrix(0.242478,0,0,0.242424,0,0)"/>
<path style=" stroke:none;fill-rule:nonzero;fill:rgb(78.823529%,60.784314%,53.333333%);fill-opacity:1;" d="M 30.726562 28.722656 C 60.027344 -10.671875 114.988281 21.652344 118.828125 45.691406 C 115.394531 18.417969 95.609375 13.570312 95.609375 13.570312 C 89.929688 0.84375 48.402344 -8.246094 27.519531 22.15625 C 14.320312 41.371094 16.742188 68.226562 16.742188 68.226562 C 16.742188 68.226562 20.320312 70.0625 20.21875 70.136719 C 19.007812 58.015625 22.421875 39.890625 30.726562 28.722656 "/>
<path style=" stroke:none;fill-rule:nonzero;fill:rgb(78.823529%,60.784314%,53.333333%);fill-opacity:1;" d="M 25.894531 28.722656 C 27.105469 34.050781 63.046875 36.40625 72.152344 34.085938 C 77.234375 32.792969 75.390625 31.273438 71.894531 31.167969 C 38.796875 30.160156 35.558594 21.035156 35.558594 21.035156 L 25.894531 28.722656 "/>
<path style="fill:none;stroke-width:7;stroke-linecap:round;stroke-linejoin:round;stroke:rgb(10.196078%,9.803922%,9.803922%);stroke-opacity:1;stroke-miterlimit:4;" d="M 70.141708 285.237305 C 70.141708 285.237305 59.058223 170.655762 113.492957 91.394531 C 199.615505 -34.015137 370.877908 3.480469 394.301437 55.977539 C 394.301437 55.977539 504.991304 69.416016 490.202583 281.289551 " transform="matrix(0.242478,0,0,0.242424,0,0)"/>
<path style=" stroke:none;fill-rule:nonzero;fill:rgb(100%,89.803922%,51.764706%);fill-opacity:1;" d="M 97.796875 199.152344 L 95.15625 184.984375 C 96.300781 184.203125 108.777344 165.339844 109.480469 148.371094 C 109.863281 139.113281 104.777344 135.128906 101.515625 133.59375 L 82.386719 127.289062 L 55.21875 127.109375 L 34.6875 133.195312 C 31.519531 134.203125 26.097656 137.609375 26.480469 146.867188 C 27.183594 163.835938 37.9375 177.507812 41.105469 183.265625 L 39.34375 199.152344 L 97.796875 199.152344 "/>
<path style=" stroke:none;fill-rule:nonzero;fill:rgb(97.254902%,82.352941%,70.980392%);fill-opacity:1;" d="M 73.65625 124.910156 L 73.460938 117.113281 L 62.839844 117.988281 L 62.59375 124.925781 L 41.300781 131.757812 C 41.300781 131.757812 45.628906 140.171875 68.570312 140.171875 C 91.511719 140.171875 95.359375 131.402344 95.359375 131.402344 L 73.65625 124.910156 "/>
<path style="fill:none;stroke-width:6;stroke-linecap:round;stroke-linejoin:round;stroke:rgb(10.196078%,9.803922%,9.803922%);stroke-opacity:1;stroke-miterlimit:4;" d="M 391.884979 543.839355 C 391.884979 543.839355 363.547987 581.512207 280.115762 577.983398 C 194.863139 577.983398 170.328039 543.500977 170.328039 543.500977 " transform="matrix(0.242478,0,0,0.242424,0,0)"/>
<path style=" stroke:none;fill-rule:nonzero;fill:rgb(81.176471%,58.431373%,49.411765%);fill-opacity:1;" d="M 62.871094 115.871094 L 73.183594 115.582031 L 73.40625 124.722656 L 75.335938 125.519531 C 75.289062 127.339844 71.71875 129.359375 64.613281 129.492188 C 60.496094 129.570312 56.433594 128.316406 55.644531 127.1875 L 62.382812 125.210938 L 62.871094 115.871094 "/>
<path style="fill:none;stroke-width:7;stroke-linecap:round;stroke-linejoin:round;stroke:rgb(10.196078%,9.803922%,9.803922%);stroke-opacity:1;stroke-miterlimit:4;" d="M 259.15702 493.96875 L 258.142108 515.318848 L 148.322166 547.867676 C 135.257185 552.024902 109.111114 559.727051 107.435704 628.047363 M 302.073306 493.96875 L 303.072109 515.318848 L 412.892051 547.867676 C 425.957031 552.024902 452.119212 559.727051 453.778513 628.047363 " transform="matrix(0.242478,0,0,0.242424,0,0)"/>
<path style=" stroke:none;fill-rule:nonzero;fill:rgb(97.254902%,82.352941%,70.980392%);fill-opacity:1;" d="M 27.292969 70.3125 C 27.292969 70.3125 24.84375 65.5625 20.238281 67 C 10.628906 70.003906 13.710938 90.828125 29.589844 92.621094 "/>
<path style=" stroke:none;fill-rule:nonzero;fill:rgb(97.254902%,82.352941%,70.980392%);fill-opacity:1;" d="M 109.210938 70.390625 C 109.210938 70.390625 111.660156 65.640625 116.265625 67.082031 C 125.871094 70.082031 123.320312 90.90625 107.195312 92.703125 "/>
<path style=" stroke:none;fill-rule:nonzero;fill:rgb(97.254902%,82.352941%,70.980392%);fill-opacity:1;" d="M 108.816406 65.828125 C 109.011719 73.878906 108.894531 86.722656 105.410156 97.148438 C 98.894531 116.648438 78.101562 121.066406 68.230469 121.066406 C 58.359375 121.066406 37.566406 116.648438 31.050781 97.148438 C 27.367188 86.128906 27.242188 72.398438 27.71875 64.5 C 27.71875 64.5 27.519531 58.417969 35.171875 52.964844 C 42.511719 47.730469 66.507812 44.789062 74.449219 41.148438 C 88.320312 34.78125 89.882812 27.207031 89.882812 27.207031 C 89.882812 27.207031 108.21875 41.449219 108.816406 65.828125 "/>
<path style=" stroke:none;fill-rule:nonzero;fill:rgb(92.54902%,59.607843%,58.823529%);fill-opacity:1;" d="M 44.464844 85.792969 C 44.464844 87.675781 41.285156 89.203125 37.363281 89.203125 C 33.445312 89.203125 30.265625 87.675781 30.265625 85.792969 C 30.265625 83.90625 33.445312 82.378906 37.363281 82.378906 C 41.285156 82.378906 44.464844 83.90625 44.464844 85.792969 "/>
<path style=" stroke:none;fill-rule:nonzero;fill:rgb(92.54902%,59.607843%,58.823529%);fill-opacity:1;" d="M 106.261719 85.792969 C 106.261719 87.675781 103.085938 89.203125 99.164062 89.203125 C 95.242188 89.203125 92.066406 87.675781 92.066406 85.792969 C 92.066406 83.90625 95.242188 82.378906 99.164062 82.378906 C 103.085938 82.378906 106.261719 83.90625 106.261719 85.792969 "/>
<path style=" stroke:none;fill-rule:nonzero;fill:rgb(81.176471%,58.431373%,49.411765%);fill-opacity:1;" d="M 28.421875 87.105469 L 27.714844 78.925781 C 27.714844 78.925781 25.722656 73.851562 22.664062 73.066406 C 18.722656 72.054688 18.648438 78.835938 21.351562 82.660156 C 25.492188 88.519531 28.421875 87.105469 28.421875 87.105469 "/>
<path style=" stroke:none;fill-rule:nonzero;fill:rgb(81.176471%,58.431373%,49.411765%);fill-opacity:1;" d="M 108.644531 87.105469 L 109.351562 78.925781 C 109.351562 78.925781 111.34375 73.851562 114.402344 73.066406 C 118.34375 72.054688 118.421875 78.835938 115.714844 82.660156 C 111.574219 88.519531 108.644531 87.105469 108.644531 87.105469 "/>
<path style="fill:none;stroke-width:7;stroke-linecap:round;stroke-linejoin:round;stroke:rgb(10.196078%,9.803922%,9.803922%);stroke-opacity:1;stroke-miterlimit:4;" d="M 231.80272 225.279785 C 216.401831 212.679199 183.37691 214.032715 171.214074 237.606445 M 331.409101 225.279785 C 346.826101 212.679199 379.851021 214.032715 391.997747 237.606445 M 112.558594 290.039062 C 112.558594 290.039062 102.457801 270.445312 83.464445 276.375 C 43.83454 288.766113 56.545107 374.666016 122.031107 382.062012 M 84.173272 299.529785 C 84.173272 299.529785 97.222143 290.635254 113.267421 325.665527 M 448.768391 271.541016 C 449.573877 304.750488 449.090585 357.730957 434.720717 400.737305 C 407.849709 481.174805 322.097685 499.398926 281.38843 499.398926 C 240.679174 499.398926 154.92715 481.174805 128.056142 400.737305 C 112.864678 355.281738 112.349167 298.643555 114.314553 266.0625 C 114.314553 266.0625 113.492957 240.974121 145.051893 218.47998 C 175.322052 196.888184 274.284044 184.754883 307.035099 169.737305 C 364.240705 143.472656 370.684592 112.229004 370.684592 112.229004 C 370.684592 112.229004 446.303604 170.978027 448.768391 271.541016 Z M 450.395472 290.361328 C 450.395472 290.361328 460.496265 270.767578 479.489621 276.713379 C 519.103416 289.088379 508.583771 374.988281 442.082858 382.400391 M 478.394161 299.868164 C 478.394161 299.868164 465.34529 290.95752 449.300011 325.987793 " transform="matrix(0.242478,0,0,0.242424,0,0)"/>
<path style="fill:none;stroke-width:8;stroke-linecap:round;stroke-linejoin:round;stroke:rgb(10.196078%,9.803922%,9.803922%);stroke-opacity:1;stroke-miterlimit:4;" d="M 245.367102 318.60791 C 245.367102 318.60791 239.841469 277.728516 214.887517 277.728516 C 187.871521 277.728516 170.553576 325.520508 170.553576 325.520508 " transform="matrix(0.242478,0,0,0.242424,0,0)"/>
<path style="fill:none;stroke-width:7;stroke-linecap:round;stroke-linejoin:round;stroke:rgb(10.196078%,9.803922%,9.803922%);stroke-opacity:1;stroke-miterlimit:4;" d="M 172.01956 317.77002 L 161.612682 312.355957 " transform="matrix(0.242478,0,0,0.242424,0,0)"/>
<path style="fill:none;stroke-width:8;stroke-linecap:round;stroke-linejoin:round;stroke:rgb(10.196078%,9.803922%,9.803922%);stroke-opacity:1;stroke-miterlimit:4;" d="M 316.201528 318.60791 C 316.201528 318.60791 321.727161 277.728516 346.681113 277.728516 C 373.697109 277.728516 390.998945 325.520508 390.998945 325.520508 " transform="matrix(0.242478,0,0,0.242424,0,0)"/>
<path style="fill:none;stroke-width:7;stroke-linecap:round;stroke-linejoin:round;stroke:rgb(10.196078%,9.803922%,9.803922%);stroke-opacity:1;stroke-miterlimit:4;" d="M 389.532961 317.77002 L 399.955948 312.355957 " transform="matrix(0.242478,0,0,0.242424,0,0)"/>
<path style=" stroke:none;fill-rule:nonzero;fill:rgb(87.45098%,45.098039%,43.921569%);fill-opacity:1;" d="M 68.5625 113.015625 C 57.050781 113.015625 56.226562 98.167969 56.089844 94.832031 C 56.089844 94.832031 68.332031 99.078125 80.578125 94.832031 C 80.441406 98.167969 79.617188 113.015625 68.105469 113.015625 "/>
<path style=" stroke:none;fill-rule:nonzero;fill:rgb(76.470588%,34.901961%,32.54902%);fill-opacity:1;" d="M 67.621094 99.882812 C 71.953125 99.882812 75.824219 102.121094 78.410156 105.636719 C 80.246094 101.386719 80.507812 96.5625 80.578125 94.832031 C 68.332031 99.078125 56.089844 94.832031 56.089844 94.832031 C 56.152344 96.402344 56.371094 100.535156 57.789062 104.460938 C 60.332031 101.632812 63.792969 99.882812 67.621094 99.882812 "/>
<path style="fill:none;stroke-width:7;stroke-linecap:round;stroke-linejoin:round;stroke:rgb(10.196078%,9.803922%,9.803922%);stroke-opacity:1;stroke-miterlimit:4;" d="M 282.757755 466.189453 C 235.282419 466.189453 231.883269 404.942871 231.319429 391.182129 C 231.319429 391.182129 281.807282 408.697266 332.311245 391.182129 C 331.747405 404.942871 328.348255 466.189453 280.872919 466.189453 M 281.613966 366.609375 L 281.613966 358.858887 " transform="matrix(0.242478,0,0,0.242424,0,0)"/>
<path style=" stroke:none;fill-rule:nonzero;fill:rgb(94.509804%,66.27451%,28.235294%);fill-opacity:1;" d="M 94.679688 164.933594 C 87.253906 158.570312 86.265625 148.113281 86.265625 148.113281 C 86.265625 148.113281 84.902344 131.449219 82.851562 125.53125 L 77.476562 124.175781 C 80.894531 136.910156 80.660156 147.507812 80.660156 147.507812 L 55.503906 147.507812 C 55.503906 147.507812 55.269531 136.910156 58.6875 124.175781 L 53.316406 125.53125 C 51.261719 131.449219 49.894531 148.113281 49.894531 148.113281 C 49.894531 148.113281 48.910156 158.570312 41.484375 164.933594 L 40.464844 190.519531 L 39.34375 199.152344 L 97.796875 199.152344 L 95.867188 190.839844 L 94.679688 164.933594 "/>
<path style=" stroke:none;fill-rule:nonzero;fill:rgb(92.156863%,55.294118%,18.431373%);fill-opacity:1;" d="M 63.457031 181.421875 C 54.652344 181.421875 43.257812 179.1875 41.035156 176.359375 C 41.238281 176.257812 38.691406 199.152344 38.960938 199.152344 L 97.921875 199.152344 C 97.921875 199.152344 95.601562 189.25 94.957031 182.628906 C 94.597656 178.941406 93.925781 170.992188 93.957031 171.054688 C 89.738281 176.722656 74.910156 181.421875 63.457031 181.421875 "/>
<path style="fill-rule:nonzero;fill:rgb(91.372549%,54.117647%,59.607843%);fill-opacity:1;stroke-width:7;stroke-linecap:round;stroke-linejoin:round;stroke:rgb(10.196078%,9.803922%,9.803922%);stroke-opacity:1;stroke-miterlimit:4;" d="M 170.360259 756.389648 L 161.499914 821.503418 " transform="matrix(0.242478,0,0,0.242424,0,0)"/>
<path style="fill-rule:nonzero;fill:rgb(91.372549%,54.117647%,59.607843%);fill-opacity:1;stroke-width:7;stroke-linecap:round;stroke-linejoin:round;stroke:rgb(10.196078%,9.803922%,9.803922%);stroke-opacity:1;stroke-miterlimit:4;" d="M 391.192262 760.12793 L 403.129562 821.503418 " transform="matrix(0.242478,0,0,0.242424,0,0)"/>
<path style="fill-rule:nonzero;fill:rgb(91.372549%,54.117647%,59.607843%);fill-opacity:1;stroke-width:7;stroke-linecap:round;stroke-linejoin:round;stroke:rgb(10.196078%,9.803922%,9.803922%);stroke-opacity:1;stroke-miterlimit:4;" d="M 166.88056 628.417969 L 174.887089 735.732422 " transform="matrix(0.242478,0,0,0.242424,0,0)"/>
<path style=" stroke:none;fill-rule:nonzero;fill:rgb(100%,89.803922%,51.764706%);fill-opacity:1;" d="M 34.171875 154.335938 C 34.171875 154.335938 37.335938 161.386719 40.226562 169.019531 C 42.46875 174.945312 43.882812 180.472656 41.386719 184.023438 C 38.558594 188.042969 29.773438 189.683594 26.316406 177.882812 C 23 166.550781 21.09375 152.894531 21.09375 152.894531 L 34.171875 154.335938 "/>
<path style="fill:none;stroke-width:7;stroke-linecap:round;stroke-linejoin:round;stroke:rgb(10.196078%,9.803922%,9.803922%);stroke-opacity:1;stroke-miterlimit:4;" d="M 140.927806 636.635742 C 140.927806 636.635742 153.976677 665.720215 165.897867 697.205566 C 175.144845 721.649414 180.976562 744.449707 170.682453 759.09668 C 159.019018 775.677246 122.788264 782.444824 108.531164 733.766602 C 94.854015 687.021973 86.992473 630.689941 86.992473 630.689941 Z M 140.927806 636.635742 " transform="matrix(0.242478,0,0,0.242424,0,0)"/>
<path style=" stroke:none;fill-rule:nonzero;fill:rgb(97.254902%,82.352941%,70.980392%);fill-opacity:1;" d="M 34.261719 154.625 C 34.261719 154.625 33.390625 151.878906 31.8125 150.425781 C 29.285156 148.09375 25.902344 148.25 25.902344 148.25 C 25.902344 148.25 24.191406 147.28125 20.851562 147.472656 C 18.601562 147.605469 15.445312 148.171875 13.035156 149.570312 C 11.5 150.464844 6.546875 153.265625 2.074219 154.234375 C -0.519531 154.796875 1.417969 157.070312 4.019531 157.070312 C 6.84375 157.070312 6.785156 156.957031 9.847656 156.449219 C 9.847656 156.449219 6.730469 161.238281 5.644531 171.855469 C 5.488281 173.371094 6.652344 174.304688 7.742188 173.0625 C 7.742188 173.0625 7.703125 174.910156 8.558594 175.160156 C 9.765625 175.507812 11.046875 173.566406 11.046875 173.566406 C 11.046875 173.566406 11.179688 175.261719 12.175781 175.082031 C 13.648438 174.808594 14.816406 173.367188 14.816406 173.367188 C 14.816406 173.367188 15.050781 174.515625 16.273438 173.875 C 17.5 173.234375 20.386719 170.425781 22.910156 166.90625 C 23.757812 165.726562 24.578125 164.535156 25.332031 163.429688 C 25.332031 163.429688 26.78125 163.5 29.132812 162.394531 C 32.359375 160.882812 34.144531 158.316406 34.261719 154.625 "/>
<path style="fill:none;stroke-width:7;stroke-linecap:round;stroke-linejoin:round;stroke:rgb(10.196078%,9.803922%,9.803922%);stroke-opacity:1;stroke-miterlimit:4;" d="M 141.298329 637.828125 C 141.298329 637.828125 137.705862 626.500488 131.197536 620.506348 C 120.774549 610.886719 106.823534 611.53125 106.823534 611.53125 C 106.823534 611.53125 99.767478 607.535156 85.99367 608.324707 C 76.714473 608.872559 63.697822 611.208984 53.758126 616.977539 C 47.427007 620.66748 26.999886 632.220703 8.55426 636.216797 C -2.142592 638.537109 5.847827 647.915039 16.576899 647.915039 C 28.224224 647.915039 27.982579 647.447754 40.612597 645.353027 C 40.612597 645.353027 27.757043 665.10791 23.278541 708.903809 C 22.634153 715.155762 27.434848 719.006836 31.929459 713.882812 C 31.929459 713.882812 31.768362 721.504395 35.29639 722.535645 C 40.274293 723.969727 45.55828 715.961426 45.55828 715.961426 C 45.55828 715.961426 46.10601 722.95459 50.213988 722.213379 C 56.287352 721.085449 61.104157 715.139648 61.104157 715.139648 C 61.104157 715.139648 62.07074 719.876953 67.113082 717.234375 C 72.171533 714.591797 84.076614 703.006348 94.483491 688.488281 C 97.9793 683.62207 101.36234 678.70752 104.471516 674.147461 C 104.471516 674.147461 110.448221 674.4375 120.146271 669.877441 C 133.452897 663.641602 140.815038 653.055176 141.298329 637.828125 Z M 141.298329 637.828125 " transform="matrix(0.242478,0,0,0.242424,0,0)"/>
<path style="fill:none;stroke-width:6;stroke-linecap:round;stroke-linejoin:round;stroke:rgb(10.196078%,9.803922%,9.803922%);stroke-opacity:1;stroke-miterlimit:4;" d="M 122.353302 652.249512 C 122.353302 652.249512 116.247719 661.96582 107.967324 674.147461 M 40.612597 645.353027 C 40.612597 645.353027 67.709141 640.55127 75.554573 632.220703 M 38.212249 665.720215 C 38.212249 665.720215 75.248489 663.947754 93.210823 669.087891 M 45.55828 715.961426 C 45.55828 715.961426 56.013487 682.220215 65.469891 666.04248 M 32.058337 713.689453 C 32.058337 713.689453 42.352446 681.301758 49.118528 665.720215 M 61.104157 715.139648 C 61.104157 715.139648 74.926294 683.847656 85.99367 667.31543 " transform="matrix(0.242478,0,0,0.242424,0,0)"/>
<path style="fill-rule:nonzero;fill:rgb(91.372549%,54.117647%,59.607843%);fill-opacity:1;stroke-width:7;stroke-linecap:round;stroke-linejoin:round;stroke:rgb(10.196078%,9.803922%,9.803922%);stroke-opacity:1;stroke-miterlimit:4;" d="M 393.769816 628.417969 L 385.763287 735.732422 " transform="matrix(0.242478,0,0,0.242424,0,0)"/>
<path style=" stroke:none;fill-rule:nonzero;fill:rgb(100%,89.803922%,51.764706%);fill-opacity:1;" d="M 101.773438 154.335938 C 101.773438 154.335938 98.609375 161.386719 95.71875 169.019531 C 93.476562 174.945312 92.101562 180.3125 94.59375 183.863281 C 97.421875 187.882812 106.207031 189.523438 109.664062 177.71875 C 112.980469 166.390625 114.851562 152.894531 114.851562 152.894531 L 101.773438 154.335938 "/>
<path style="fill:none;stroke-width:7;stroke-linecap:round;stroke-linejoin:round;stroke:rgb(10.196078%,9.803922%,9.803922%);stroke-opacity:1;stroke-miterlimit:4;" d="M 419.722571 636.635742 C 419.722571 636.635742 406.6737 665.720215 394.752509 697.205566 C 385.505531 721.649414 379.834911 743.789062 390.112911 758.436035 C 401.776346 775.016602 438.0071 781.78418 452.264199 733.089844 C 465.941349 686.361328 473.657904 630.689941 473.657904 630.689941 Z M 419.722571 636.635742 " transform="matrix(0.242478,0,0,0.242424,0,0)"/>
<path style=" stroke:none;fill-rule:nonzero;fill:rgb(97.254902%,82.352941%,70.980392%);fill-opacity:1;" d="M 101.683594 154.625 C 101.683594 154.625 102.558594 151.878906 104.132812 150.425781 C 106.660156 148.09375 110.042969 148.25 110.042969 148.25 C 110.042969 148.25 111.753906 147.28125 115.097656 147.472656 C 117.34375 147.605469 120.5 148.171875 122.910156 149.570312 C 124.445312 150.464844 129.398438 153.265625 133.871094 154.234375 C 136.464844 154.796875 134.527344 157.070312 131.925781 157.070312 C 129.101562 157.070312 129.160156 156.957031 126.097656 156.449219 C 126.097656 156.449219 129.21875 161.238281 130.304688 171.855469 C 130.457031 173.371094 129.292969 174.304688 128.203125 173.0625 C 128.203125 173.0625 128.242188 174.910156 127.386719 175.160156 C 126.179688 175.507812 124.898438 173.566406 124.898438 173.566406 C 124.898438 173.566406 124.765625 175.261719 123.773438 175.082031 C 122.296875 174.808594 121.132812 173.367188 121.132812 173.367188 C 121.132812 173.367188 120.894531 174.515625 119.671875 173.875 C 118.445312 173.234375 115.558594 170.425781 113.035156 166.90625 C 112.1875 165.726562 111.367188 164.535156 110.613281 163.429688 C 110.613281 163.429688 109.164062 163.5 106.816406 162.394531 C 103.585938 160.882812 101.800781 158.316406 101.683594 154.625 "/>
<path style="fill:none;stroke-width:7;stroke-linecap:round;stroke-linejoin:round;stroke:rgb(10.196078%,9.803922%,9.803922%);stroke-opacity:1;stroke-miterlimit:4;" d="M 419.352047 637.828125 C 419.352047 637.828125 422.960624 626.500488 429.45284 620.506348 C 439.875827 610.886719 453.826842 611.53125 453.826842 611.53125 C 453.826842 611.53125 460.882898 607.535156 474.672816 608.324707 C 483.935903 608.872559 496.952555 611.208984 506.89225 616.977539 C 513.223369 620.66748 533.65049 632.220703 552.096117 636.216797 C 562.792969 638.537109 554.802549 647.915039 544.073477 647.915039 C 532.426152 647.915039 532.667798 647.447754 520.037779 645.353027 C 520.037779 645.353027 532.909443 665.10791 537.387945 708.903809 C 538.016224 715.155762 533.215528 719.006836 528.720917 713.882812 C 528.720917 713.882812 528.882014 721.504395 525.353986 722.535645 C 520.376083 723.969727 515.092096 715.961426 515.092096 715.961426 C 515.092096 715.961426 514.544366 722.95459 510.452498 722.213379 C 504.363025 721.085449 499.562329 715.139648 499.562329 715.139648 C 499.562329 715.139648 498.579636 719.876953 493.537295 717.234375 C 488.478844 714.591797 476.573763 703.006348 466.166885 688.488281 C 462.671077 683.62207 459.288036 678.70752 456.178861 674.147461 C 456.178861 674.147461 450.202156 674.4375 440.520216 669.877441 C 427.197479 663.641602 419.835339 653.055176 419.352047 637.828125 Z M 419.352047 637.828125 " transform="matrix(0.242478,0,0,0.242424,0,0)"/>
<path style="fill:none;stroke-width:6;stroke-linecap:round;stroke-linejoin:round;stroke:rgb(10.196078%,9.803922%,9.803922%);stroke-opacity:1;stroke-miterlimit:4;" d="M 438.297075 652.249512 C 438.297075 652.249512 444.418767 661.96582 452.683052 674.147461 M 520.037779 645.353027 C 520.037779 645.353027 492.941235 640.55127 485.095803 632.220703 M 522.438127 665.720215 C 522.438127 665.720215 485.401888 663.947754 467.439553 669.087891 M 515.092096 715.961426 C 515.092096 715.961426 504.653 682.220215 495.196596 666.04248 M 528.592039 713.689453 C 528.592039 713.689453 518.31404 681.301758 511.547958 665.720215 M 499.562329 715.139648 C 499.562329 715.139648 485.724082 683.847656 474.672816 667.31543 " transform="matrix(0.242478,0,0,0.242424,0,0)"/>
<path style="fill:none;stroke-width:7;stroke-linecap:round;stroke-linejoin:round;stroke:rgb(10.196078%,9.803922%,9.803922%);stroke-opacity:1;stroke-miterlimit:4;" d="M 390.467324 680.351074 C 359.842752 654.102539 355.766994 610.967285 355.766994 610.967285 C 355.766994 610.967285 350.144702 542.228027 341.687101 517.816406 L 319.52013 512.225098 C 333.616133 564.754395 332.649549 608.469727 332.649549 608.469727 L 228.902971 608.469727 C 228.902971 608.469727 227.936388 564.754395 242.032391 512.225098 L 219.881529 517.816406 C 211.407818 542.228027 205.769417 610.967285 205.769417 610.967285 C 205.769417 610.967285 201.709768 654.102539 171.085196 680.351074 " transform="matrix(0.242478,0,0,0.242424,0,0)"/>
</g>
</svg>
