<?xml version="1.0" encoding="UTF-8"?>
<svg xmlns="http://www.w3.org/2000/svg" xmlns:xlink="http://www.w3.org/1999/xlink" width="200pt" height="200pt" viewBox="0 0 200 200" version="1.1">
<defs>
<linearGradient id="linear0" gradientUnits="userSpaceOnUse" x1="284.74725" y1="974.62592" x2="119.19037" y2="810.62592" gradientTransform="matrix(0.364399,0,0,0.364399,11.352456,-188.578114)">
<stop offset="0" style="stop-color:rgb(43.529412%,0.392157%,0.784314%);stop-opacity:1;"/>
<stop offset="1" style="stop-color:rgb(43.529412%,0.392157%,0.784314%);stop-opacity:0;"/>
</linearGradient>
<linearGradient id="linear1" gradientUnits="userSpaceOnUse" x1="-163.05635" y1="973.8692" x2="-192.61784" y2="870.60034" gradientTransform="matrix(0.325508,-0.163801,0.144933,0.334337,9.491539,-176.947379)">
<stop offset="0" style="stop-color:rgb(89.019608%,22.745098%,29.411765%);stop-opacity:1;"/>
<stop offset="1" style="stop-color:rgb(82.352941%,14.117647%,21.176471%);stop-opacity:0.54902;"/>
</linearGradient>
</defs>
<g id="surface1">
<path style=" stroke:none;fill-rule:nonzero;fill:rgb(12.941176%,12.941176%,12.941176%);fill-opacity:1;" d="M 0 100 C 0 155.226562 44.773438 200 100 200 C 155.226562 200 200 155.226562 200 100 C 200 44.773438 155.226562 0 100 0 C 44.773438 0 0 44.773438 0 100 Z M 0 100 "/>
<path style=" stroke:none;fill-rule:nonzero;fill:rgb(100%,100%,100%);fill-opacity:1;" d="M 99.050781 155.414062 C 76.476562 155.507812 54.53125 161.242188 36.386719 171.785156 C 54.28125 186.589844 76.773438 194.703125 100 194.730469 C 122.855469 194.699219 145.011719 186.84375 162.777344 172.464844 C 144.449219 161.507812 122.082031 155.523438 99.050781 155.414062 Z M 99.050781 155.414062 "/>
<path style=" stroke:none;fill-rule:nonzero;fill:rgb(12.941176%,12.941176%,12.941176%);fill-opacity:1;" d="M 51.71875 112.964844 C 60.761719 160.90625 87.796875 188.292969 137.179688 180.777344 C 122.128906 153.378906 136.890625 139.925781 146.546875 122.136719 L 118.691406 79.417969 C 103.476562 96.0625 92.292969 113.566406 51.71875 112.964844 Z M 51.71875 112.964844 "/>
<path style=" stroke:none;fill-rule:nonzero;fill:rgb(100%,72.54902%,15.686275%);fill-opacity:1;" d="M 54.632812 112.449219 C 64.605469 156.550781 86.410156 183.8125 132.019531 177.203125 C 117.894531 151.488281 134.570312 137.75 143.628906 121.054688 L 120.746094 109.578125 C 106.46875 125.195312 92.714844 113.011719 54.632812 112.449219 Z M 54.632812 112.449219 "/>
<path style=" stroke:none;fill-rule:nonzero;fill:rgb(12.941176%,12.941176%,12.941176%);fill-opacity:1;" d="M 60.820312 115.023438 C 73.1875 157.328125 85.894531 177.371094 126.351562 174.625 C 112.226562 148.910156 130.445312 134.660156 139.507812 117.960938 L 117.074219 113.464844 C 102.796875 129.085938 98.898438 115.589844 60.820312 115.023438 Z M 60.820312 115.023438 "/>
<path style=" stroke:none;fill-rule:nonzero;fill:url(#linear0);" d="M 63.734375 115.570312 C 76.976562 156.859375 84.933594 173.269531 123.433594 172.804688 C 109.3125 147.089844 128.078125 133.75 137.140625 117.050781 L 118.609375 111.925781 C 104.332031 127.546875 101.8125 116.136719 63.734375 115.570312 Z M 63.734375 115.570312 "/>
<path style=" stroke:none;fill-rule:nonzero;fill:rgb(12.941176%,12.941176%,12.941176%);fill-opacity:1;" d="M 50.226562 112.960938 C 93.039062 139.097656 136.292969 139.914062 178.261719 132.664062 C 106.046875 82.300781 88.617188 106.203125 50.226562 112.960938 Z M 50.226562 112.960938 "/>
<path style=" stroke:none;fill-rule:nonzero;fill:rgb(100%,72.54902%,15.686275%);fill-opacity:1;" d="M 54.632812 112.449219 C 94.957031 135.824219 136.085938 135.828125 177.367188 131.335938 C 108.144531 83.058594 91.433594 105.972656 54.632812 112.449219 Z M 54.632812 112.449219 "/>
<path style=" stroke:none;fill-rule:nonzero;fill:url(#linear1);" d="M 74.125 141.722656 C 73.773438 141.710938 73.441406 141.722656 73.125 141.742188 C 80.617188 158.972656 89.332031 168.382812 106.414062 171.5625 C 107.152344 167.945312 106.125 163.203125 102.027344 157.316406 C 96.054688 148.722656 81.496094 141.921875 74.125 141.722656 Z M 74.125 141.722656 "/>
<path style=" stroke:none;fill-rule:nonzero;fill:rgb(12.941176%,12.941176%,12.941176%);fill-opacity:1;" d="M 134.796875 29.570312 C 114.054688 29.570312 97.242188 48.992188 97.242188 72.945312 C 97.257812 80.574219 99.015625 88.066406 102.335938 94.660156 L 167.269531 94.660156 C 170.585938 88.0625 172.339844 80.574219 172.351562 72.945312 C 172.351562 48.992188 155.539062 29.570312 134.796875 29.570312 Z M 134.796875 29.570312 "/>
<path style=" stroke:none;fill-rule:nonzero;fill:rgb(100%,100%,100%);fill-opacity:1;" d="M 131.152344 30.300781 C 110.410156 30.300781 93.597656 49.71875 93.597656 73.675781 C 93.613281 81.019531 95.242188 88.242188 98.332031 94.660156 L 164.011719 94.660156 C 167.089844 88.234375 168.703125 81.015625 168.707031 73.675781 C 168.707031 49.71875 151.894531 30.300781 131.152344 30.300781 Z M 131.152344 30.300781 "/>
<path style=" stroke:none;fill-rule:nonzero;fill:rgb(12.941176%,12.941176%,12.941176%);fill-opacity:1;" d="M 71.964844 29.570312 C 51.222656 29.570312 34.410156 48.992188 34.410156 72.945312 C 34.425781 80.574219 36.183594 88.066406 39.503906 94.660156 L 104.4375 94.660156 C 107.753906 88.0625 109.507812 80.574219 109.519531 72.945312 C 109.519531 48.992188 92.703125 29.570312 71.964844 29.570312 Z M 71.964844 29.570312 "/>
<path style=" stroke:none;fill-rule:nonzero;fill:rgb(100%,100%,100%);fill-opacity:1;" d="M 68.320312 30.300781 C 47.578125 30.300781 30.765625 49.71875 30.765625 73.675781 C 30.78125 81.019531 32.410156 88.242188 35.5 94.660156 L 101.179688 94.660156 C 104.253906 88.234375 105.871094 81.015625 105.875 73.675781 C 105.875 49.71875 89.0625 30.300781 68.320312 30.300781 Z M 68.320312 30.300781 "/>
<path style=" stroke:none;fill-rule:nonzero;fill:rgb(12.941176%,12.941176%,12.941176%);fill-opacity:1;" d="M 135.574219 46.378906 C 135.574219 54.347656 129.113281 60.808594 121.144531 60.808594 C 113.175781 60.808594 106.714844 54.347656 106.714844 46.378906 C 106.714844 38.40625 113.175781 31.949219 121.144531 31.949219 C 129.113281 31.949219 135.574219 38.40625 135.574219 46.378906 Z M 135.574219 46.378906 "/>
<path style=" stroke:none;fill-rule:nonzero;fill:rgb(12.941176%,12.941176%,12.941176%);fill-opacity:1;" d="M 72.742188 46.378906 C 72.742188 54.347656 66.28125 60.808594 58.3125 60.808594 C 50.34375 60.808594 43.882812 54.347656 43.882812 46.378906 C 43.882812 38.40625 50.34375 31.949219 58.3125 31.949219 C 66.28125 31.949219 72.742188 38.40625 72.742188 46.378906 Z M 72.742188 46.378906 "/>
</g>
</svg>
