<?xml version="1.0" encoding="UTF-8"?>
<svg xmlns="http://www.w3.org/2000/svg" xmlns:xlink="http://www.w3.org/1999/xlink" width="168pt" height="200pt" viewBox="0 0 168 200" version="1.1">
<defs>
<clipPath id="clip1">
  <path d="M 3 3 L 166 3 L 166 199.410156 L 3 199.410156 Z M 3 3 "/>
</clipPath>
<clipPath id="clip2">
  <path d="M 0.433594 0 L 168 0 L 168 199.410156 L 0.433594 199.410156 Z M 0.433594 0 "/>
</clipPath>
<clipPath id="clip3">
  <path d="M 75 120 L 132 120 L 132 199.410156 L 75 199.410156 Z M 75 120 "/>
</clipPath>
<clipPath id="clip4">
  <path d="M 77 124 L 104 124 L 104 199.410156 L 77 199.410156 Z M 77 124 "/>
</clipPath>
<clipPath id="clip5">
  <path d="M 76 123 L 105 123 L 105 199.410156 L 76 199.410156 Z M 76 123 "/>
</clipPath>
<clipPath id="clip6">
  <path d="M 103 124 L 129 124 L 129 199.410156 L 103 199.410156 Z M 103 124 "/>
</clipPath>
<clipPath id="clip7">
  <path d="M 102 123 L 130 123 L 130 199.410156 L 102 199.410156 Z M 102 123 "/>
</clipPath>
<clipPath id="clip8">
  <path d="M 63 183 L 132 183 L 132 199.410156 L 63 199.410156 Z M 63 183 "/>
</clipPath>
<clipPath id="clip9">
  <path d="M 62 182 L 133 182 L 133 199.410156 L 62 199.410156 Z M 62 182 "/>
</clipPath>
<clipPath id="clip10">
  <path d="M 7 191 L 155 191 L 155 199.410156 L 7 199.410156 Z M 7 191 "/>
</clipPath>
<clipPath id="clip11">
  <path d="M 6 190 L 156 190 L 156 199.410156 L 6 199.410156 Z M 6 190 "/>
</clipPath>
</defs>
<g id="surface1">
<g clip-path="url(#clip1)" clip-rule="nonzero">
<path style=" stroke:none;fill-rule:nonzero;fill:rgb(40%,40%,40%);fill-opacity:1;" d="M 116.929688 146.019531 L 116.933594 145.996094 L 116.929688 146.027344 Z M 117.914062 162.480469 L 116.929688 146.03125 C 116.949219 146.128906 120.179688 161.429688 122.90625 171 C 122.109375 171.082031 121.351562 171.203125 120.636719 171.367188 Z M 75.792969 298.109375 L 75.792969 296.132812 C 75.792969 296.132812 75.691406 296.121094 75.507812 296.105469 L 75.132812 253.230469 L 80.210938 296.300781 L 81.15625 296.300781 C 79.273438 296.585938 77.332031 297.128906 75.792969 298.109375 M 152.90625 191.796875 L 126.894531 191.796875 L 126.742188 191.296875 L 134.058594 191.296875 C 134.675781 191.296875 135.179688 190.796875 135.179688 190.175781 L 135.179688 186.140625 C 135.179688 185.519531 134.675781 185.019531 134.058594 185.019531 L 129.375 185.019531 C 130.210938 184.65625 130.996094 184.226562 131.707031 183.71875 C 131.707031 183.71875 137.074219 186.054688 138.578125 181.429688 C 138.578125 181.429688 139.070312 178.03125 136.742188 175.09375 C 137.464844 170.5625 133.351562 160.617188 131.574219 153.996094 C 129.707031 147.035156 126.476562 135.765625 123.773438 130.015625 C 129.710938 127.917969 132.734375 125.011719 134.277344 122.5625 C 181.726562 106.449219 166.039062 44.34375 143.089844 22.714844 C 139.429688 19.265625 135.808594 16.445312 132.246094 14.171875 C 131.980469 13.800781 131.699219 13.453125 131.398438 13.125 C 120.890625 1.742188 93.558594 -5.238281 63.902344 22.714844 C 40.953125 44.34375 25.265625 106.449219 72.714844 122.5625 C 73.523438 123.84375 74.738281 125.25 76.5625 126.601562 L 4.585938 126.601562 C 3.460938 126.601562 2.847656 127.511719 3.21875 128.636719 L 21.375 183.953125 C 21.746094 185.074219 22.953125 185.984375 24.078125 185.984375 L 24.433594 185.984375 C 24.425781 186.039062 24.417969 186.089844 24.417969 186.140625 L 24.417969 190.175781 C 24.417969 190.796875 24.917969 191.296875 25.539062 191.296875 L 79.792969 191.296875 L 79.640625 191.796875 L 7.742188 191.796875 L 7.742188 200.945312 L 80.398438 200.945312 C 80.148438 202.15625 79.902344 203.390625 79.675781 204.644531 C 79.644531 204.648438 79.617188 204.648438 79.589844 204.652344 L 64.398438 216.785156 C 60.273438 219.867188 60.023438 223.761719 60.070312 225.085938 C 59.800781 227.210938 60.054688 229.085938 60.054688 229.085938 L 67.976562 296.300781 L 68.921875 296.300781 C 66.382812 296.6875 63.734375 297.53125 62.105469 299.308594 C 59.003906 302.699219 60.917969 303.785156 60.917969 303.785156 L 88.023438 303.785156 L 88.023438 296.132812 C 88.023438 296.132812 87.921875 296.121094 87.742188 296.105469 L 87.175781 231.609375 L 93.085938 231.617188 C 93.226562 231.855469 93.277344 231.984375 93.277344 231.984375 C 93.277344 231.984375 120.023438 233.34375 126.609375 231.171875 C 134.582031 228.546875 130.886719 209.550781 128.25 204.488281 C 127.785156 203.601562 127.28125 202.367188 126.765625 200.945312 L 152.90625 200.945312 C 153.808594 200.945312 154.539062 200.214844 154.539062 199.316406 L 154.539062 193.425781 C 154.539062 192.527344 153.808594 191.796875 152.90625 191.796875 "/>
</g>
<g clip-path="url(#clip2)" clip-rule="nonzero">
<path style="fill:none;stroke-width:8;stroke-linecap:round;stroke-linejoin:round;stroke:rgb(40%,40%,40%);stroke-opacity:1;stroke-miterlimit:4;" d="M 215.067104 268.675938 L 215.074289 268.632812 L 215.067104 268.690313 Z M 216.877651 298.964063 L 215.067104 268.6975 C 215.103027 268.877187 221.044782 297.030625 226.05971 314.64 C 224.594029 314.790938 223.200195 315.01375 221.885393 315.315625 Z M 139.404925 548.52125 L 139.404925 544.884375 C 139.404925 544.884375 139.218122 544.862813 138.880441 544.834063 L 138.190709 465.944063 L 147.530831 545.193438 L 149.269531 545.193438 C 145.806501 545.718125 142.2357 546.717188 139.404925 548.52125 Z M 281.238281 352.90625 L 233.395299 352.90625 L 233.115095 351.98625 L 246.572056 351.98625 C 247.707241 351.98625 248.634068 351.06625 248.634068 349.923438 L 248.634068 342.49875 C 248.634068 341.355938 247.707241 340.435938 246.572056 340.435938 L 237.957589 340.435938 C 239.495117 339.7675 240.939244 338.976875 242.246861 338.0425 C 242.246861 338.0425 252.118652 342.340625 254.884766 333.830625 C 254.884766 333.830625 255.790039 327.5775 251.507952 322.1725 C 252.837123 313.835 245.271624 295.535625 242.002581 283.352813 C 238.56829 270.544688 232.626535 249.80875 227.654715 239.22875 C 238.575474 235.369063 244.13644 230.021563 246.9744 225.515 C 334.24707 195.866563 305.393276 81.5925 263.183105 41.795313 C 256.451032 35.44875 249.790806 30.259375 243.238351 26.07625 C 242.749791 25.393438 242.232492 24.75375 241.679269 24.15 C 222.3524 3.205625 172.080985 -9.638438 117.534668 41.795313 C 75.324498 81.5925 46.470703 195.866563 133.743373 225.515 C 135.230608 227.8725 137.465053 230.46 140.820312 232.946875 L 8.434849 232.946875 C 6.365653 232.946875 5.237653 234.621563 5.920201 236.691563 L 39.314732 338.47375 C 39.99728 340.536563 42.217355 342.21125 44.286551 342.21125 L 44.94036 342.21125 C 44.925991 342.311875 44.911621 342.405313 44.911621 342.49875 L 44.911621 349.923438 C 44.911621 351.06625 45.831264 351.98625 46.973633 351.98625 L 146.762068 351.98625 L 146.481864 352.90625 L 14.240095 352.90625 L 14.240095 369.739375 L 147.875698 369.739375 C 147.415876 371.9675 146.963239 374.23875 146.546526 376.545938 C 146.489049 376.553125 146.438756 376.553125 146.388463 376.560313 L 118.447126 398.884688 C 110.860073 404.555625 110.400251 411.721563 110.486468 414.158125 C 109.990723 418.068125 110.457729 421.518125 110.457729 421.518125 L 125.02832 545.193438 L 126.76702 545.193438 C 122.096959 545.905 117.225725 547.4575 114.229701 550.727813 C 108.525042 556.966563 112.04555 558.964687 112.04555 558.964687 L 161.900251 558.964687 L 161.900251 544.884375 C 161.900251 544.884375 161.713449 544.862813 161.382952 544.834063 L 160.341169 426.16125 L 171.211635 426.175625 C 171.470285 426.614063 171.563686 426.85125 171.563686 426.85125 C 171.563686 426.85125 220.757394 429.3525 232.870815 425.35625 C 247.534807 420.52625 240.738072 385.573438 235.888393 376.258438 C 235.033412 374.626875 234.106585 372.355625 233.158203 369.739375 L 281.238281 369.739375 C 282.897949 369.739375 284.24149 368.395312 284.24149 366.742188 L 284.24149 355.903437 C 284.24149 354.250313 282.897949 352.90625 281.238281 352.90625 Z M 281.238281 352.90625 " transform="matrix(0.543689,0,0,0.543478,0,0)"/>
</g>
<path style=" stroke:none;fill-rule:nonzero;fill:rgb(80%,52.941176%,34.117647%);fill-opacity:1;" d="M 143.089844 22.714844 C 139.429688 19.265625 135.808594 16.445312 132.246094 14.171875 C 131.980469 13.800781 131.699219 13.453125 131.398438 13.125 C 120.890625 1.742188 93.558594 -5.238281 63.902344 22.714844 C 40.953125 44.34375 25.265625 106.449219 72.714844 122.5625 C 75.464844 126.9375 82.941406 132.761719 103.265625 132.847656 L 103.265625 132.851562 C 103.34375 132.851562 103.417969 132.847656 103.496094 132.847656 C 103.574219 132.847656 103.648438 132.851562 103.726562 132.851562 L 103.726562 132.847656 C 124.050781 132.761719 131.527344 126.9375 134.277344 122.5625 C 181.726562 106.449219 166.039062 44.34375 143.089844 22.714844 "/>
<path style="fill:none;stroke-width:4;stroke-linecap:round;stroke-linejoin:round;stroke:rgb(40%,40%,40%);stroke-opacity:1;stroke-miterlimit:4;" d="M 263.183105 41.795313 C 256.451032 35.44875 249.790806 30.259375 243.238351 26.07625 C 242.749791 25.393438 242.232492 24.75375 241.679269 24.15 C 222.3524 3.205625 172.080985 -9.638438 117.534668 41.795313 C 75.324498 81.5925 46.470703 195.866563 133.743373 225.515 C 138.801409 233.565 152.552944 244.281563 189.934989 244.439688 L 189.934989 244.446875 C 190.078683 244.446875 190.215193 244.439688 190.358887 244.439688 C 190.502581 244.439688 190.63909 244.446875 190.782785 244.446875 L 190.782785 244.439688 C 228.16483 244.281563 241.916364 233.565 246.9744 225.515 C 334.24707 195.866563 305.393276 81.5925 263.183105 41.795313 Z M 263.183105 41.795313 " transform="matrix(0.543689,0,0,0.543478,0,0)"/>
<path style=" stroke:none;fill-rule:nonzero;fill:rgb(100%,100%,100%);fill-opacity:1;" d="M 103.351562 188.382812 L 118.769531 187.375 L 104.78125 132.832031 L 103.265625 133.058594 L 101.753906 132.832031 L 87.765625 187.375 L 103.179688 188.382812 L 103.179688 188.394531 L 103.265625 188.386719 L 103.351562 188.394531 Z M 103.351562 188.382812 "/>
<g clip-path="url(#clip3)" clip-rule="nonzero">
<path style="fill:none;stroke-width:4;stroke-linecap:butt;stroke-linejoin:miter;stroke:rgb(0%,0%,0%);stroke-opacity:1;stroke-miterlimit:4;" d="M 190.093052 346.624375 L 218.451102 344.77 L 192.722656 244.410938 L 189.934989 244.827813 L 187.154506 244.410938 L 161.42606 344.77 L 189.776925 346.624375 L 189.776925 346.645938 L 189.934989 346.631563 L 190.093052 346.645938 Z M 190.093052 346.624375 " transform="matrix(0.543689,0,0,0.543478,0,0)"/>
</g>
<path style="fill-rule:nonzero;fill:rgb(40%,40%,40%);fill-opacity:1;stroke-width:4;stroke-linecap:round;stroke-linejoin:round;stroke:rgb(40%,40%,40%);stroke-opacity:1;stroke-miterlimit:4;" d="M 218.084682 324.99 L 161.79248 324.99 L 157.560686 337.259063 L 222.309291 337.259063 Z M 218.084682 324.99 " transform="matrix(0.543689,0,0,0.543478,0,0)"/>
<g clip-path="url(#clip4)" clip-rule="nonzero">
<path style=" stroke:none;fill-rule:nonzero;fill:rgb(92.156863%,89.803922%,86.666667%);fill-opacity:1;" d="M 89.605469 146.019531 L 88.621094 162.480469 L 77.738281 198.007812 L 94.085938 199.089844 C 94.085938 199.089844 94.089844 199.089844 94.089844 199.089844 L 94.3125 199.101562 C 94.984375 199.117188 97 198.980469 98.03125 196.964844 C 99.28125 194.527344 99.152344 188.683594 99.152344 188.683594 L 103.265625 124.464844 C 103.265625 124.464844 90.429688 123.5625 85.132812 126.503906 C 84.773438 126.699219 84.402344 127.070312 84.015625 127.582031 "/>
</g>
<g clip-path="url(#clip5)" clip-rule="nonzero">
<path style="fill:none;stroke-width:4;stroke-linecap:round;stroke-linejoin:round;stroke:rgb(40%,40%,40%);stroke-opacity:1;stroke-miterlimit:4;" d="M 164.810059 268.675938 L 162.999512 298.964063 L 142.98291 364.334375 L 173.050921 366.325312 C 173.050921 366.325312 173.058105 366.325312 173.058105 366.325312 L 173.467634 366.346875 C 174.703404 366.375625 178.410714 366.124063 180.307478 362.415313 C 182.606585 357.930313 182.369489 347.177813 182.369489 347.177813 L 189.934989 229.015313 C 189.934989 229.015313 166.326032 227.355 156.583566 232.767188 C 155.922573 233.126563 155.240025 233.809375 154.528739 234.750938 " transform="matrix(0.543689,0,0,0.543478,0,0)"/>
</g>
<g clip-path="url(#clip6)" clip-rule="nonzero">
<path style=" stroke:none;fill-rule:nonzero;fill:rgb(92.156863%,89.803922%,86.666667%);fill-opacity:1;" d="M 116.929688 146.019531 L 117.914062 162.480469 L 128.796875 198.007812 L 112.449219 199.089844 C 112.449219 199.089844 112.445312 199.089844 112.445312 199.089844 L 112.222656 199.101562 C 111.550781 199.117188 109.535156 198.980469 108.503906 196.964844 C 107.253906 194.527344 107.378906 188.683594 107.378906 188.683594 L 103.265625 124.464844 C 103.265625 124.464844 116.101562 123.5625 121.402344 126.503906 C 121.761719 126.699219 122.132812 127.070312 122.519531 127.582031 "/>
</g>
<g clip-path="url(#clip7)" clip-rule="nonzero">
<path style="fill:none;stroke-width:4;stroke-linecap:round;stroke-linejoin:round;stroke:rgb(40%,40%,40%);stroke-opacity:1;stroke-miterlimit:4;" d="M 215.067104 268.675938 L 216.877651 298.964063 L 236.894252 364.334375 L 206.826242 366.325312 C 206.826242 366.325312 206.819057 366.325312 206.819057 366.325312 L 206.409528 366.346875 C 205.173758 366.375625 201.466448 366.124063 199.569685 362.415313 C 197.270578 357.930313 197.500488 347.177813 197.500488 347.177813 L 189.934989 229.015313 C 189.934989 229.015313 213.543945 227.355 223.293597 232.767188 C 223.95459 233.126563 224.637137 233.809375 225.348424 234.750938 " transform="matrix(0.543689,0,0,0.543478,0,0)"/>
</g>
<path style="fill-rule:nonzero;fill:rgb(100%,92.54902%,81.568627%);fill-opacity:1;stroke-width:4;stroke-linecap:round;stroke-linejoin:round;stroke:rgb(40%,40%,40%);stroke-opacity:1;stroke-miterlimit:4;" d="M 197.787877 229.719688 L 196.429967 215.3375 L 189.934989 211.118437 L 183.447196 215.3375 L 182.089286 229.719688 L 173.129953 230.265938 C 173.129953 230.265938 179.811733 244.870937 189.934989 244.870937 C 200.06543 244.870937 206.74721 230.265938 206.74721 230.265938 Z M 197.787877 229.719688 " transform="matrix(0.543689,0,0,0.543478,0,0)"/>
<path style="fill-rule:nonzero;fill:rgb(92.156863%,89.803922%,86.666667%);fill-opacity:1;stroke-width:4;stroke-linecap:round;stroke-linejoin:round;stroke:rgb(40%,40%,40%);stroke-opacity:1;stroke-miterlimit:4;" d="M 223.293597 232.767188 C 228.559989 235.6925 237.469029 266.440625 242.002581 283.352813 C 245.307547 295.665 253.009556 314.2375 251.472028 322.438438 C 249.467494 333.104688 234.559222 336.849375 229.716727 325.687187 C 224.601214 313.885312 215.067104 268.690313 215.067104 268.690313 " transform="matrix(0.543689,0,0,0.543478,0,0)"/>
<path style=" stroke:none;fill-rule:nonzero;fill:rgb(100%,92.54902%,81.568627%);fill-opacity:1;" d="M 138.578125 181.429688 C 138.578125 181.429688 139.96875 171.832031 127.027344 170.933594 C 114.082031 170.039062 109.1875 179.003906 111.632812 183.503906 C 113.414062 186.78125 125.46875 188.199219 131.707031 183.71875 C 131.707031 183.71875 137.074219 186.054688 138.578125 181.429688 "/>
<path style="fill:none;stroke-width:4;stroke-linecap:round;stroke-linejoin:round;stroke:rgb(40%,40%,40%);stroke-opacity:1;stroke-miterlimit:4;" d="M 254.884766 333.830625 C 254.884766 333.830625 257.442522 316.170938 233.639579 314.517812 C 209.82945 312.871875 200.827009 329.367188 205.324637 337.647188 C 208.600865 343.6775 230.772879 346.286563 242.246861 338.0425 C 242.246861 338.0425 252.118652 342.340625 254.884766 333.830625 Z M 254.884766 333.830625 " transform="matrix(0.543689,0,0,0.543478,0,0)"/>
<path style="fill-rule:nonzero;fill:rgb(48.235294%,51.372549%,58.039216%);fill-opacity:1;stroke-width:4;stroke-linecap:round;stroke-linejoin:round;stroke:rgb(40%,40%,40%);stroke-opacity:1;stroke-miterlimit:4;" d="M 227.697824 330.035625 C 227.697824 330.035625 225.463379 333.399375 226.627302 337.115313 C 228.538435 343.224688 226.627302 337.115313 226.627302 337.115313 " transform="matrix(0.543689,0,0,0.543478,0,0)"/>
<path style="fill-rule:nonzero;fill:rgb(48.235294%,51.372549%,58.039216%);fill-opacity:1;stroke-width:4;stroke-linecap:round;stroke-linejoin:round;stroke:rgb(40%,40%,40%);stroke-opacity:1;stroke-miterlimit:4;" d="M 218.343331 327.0025 C 218.343331 327.0025 214.1762 329.726562 214.808454 336.561875 C 215.785575 347.192187 214.808454 336.561875 214.808454 336.561875 " transform="matrix(0.543689,0,0,0.543478,0,0)"/>
<g clip-path="url(#clip8)" clip-rule="nonzero">
<path style=" stroke:none;fill-rule:nonzero;fill:rgb(100%,85.098039%,38.039216%);fill-opacity:1;" d="M 128.25 204.488281 C 125.609375 199.425781 121.636719 183.230469 121.636719 183.230469 L 84.898438 183.230469 C 84.898438 183.230469 81.757812 193.296875 79.675781 204.644531 C 79.644531 204.648438 79.617188 204.648438 79.589844 204.652344 L 63.773438 217.285156 C 63.773438 217.285156 70.808594 215.410156 80.234375 221.027344 C 91.578125 227.785156 93.277344 231.984375 93.277344 231.984375 C 93.277344 231.984375 120.023438 233.34375 126.609375 231.171875 C 134.582031 228.546875 130.886719 209.550781 128.25 204.488281 "/>
</g>
<g clip-path="url(#clip9)" clip-rule="nonzero">
<path style="fill:none;stroke-width:4;stroke-linecap:round;stroke-linejoin:round;stroke:rgb(40%,40%,40%);stroke-opacity:1;stroke-miterlimit:4;" d="M 235.888393 376.258438 C 231.031529 366.943438 223.724679 337.144063 223.724679 337.144063 L 156.152483 337.144063 C 156.152483 337.144063 150.375977 355.66625 146.546526 376.545938 C 146.489049 376.553125 146.438756 376.553125 146.388463 376.560313 L 117.297573 399.804688 C 117.297573 399.804688 130.237235 396.354688 147.57394 406.690313 C 168.438337 419.124687 171.563686 426.85125 171.563686 426.85125 C 171.563686 426.85125 220.757394 429.3525 232.870815 425.35625 C 247.534807 420.52625 240.738072 385.573438 235.888393 376.258438 Z M 235.888393 376.258438 " transform="matrix(0.543689,0,0,0.543478,0,0)"/>
</g>
<g clip-path="url(#clip10)" clip-rule="nonzero">
<path style=" stroke:none;fill-rule:nonzero;fill:rgb(100%,93.333333%,69.019608%);fill-opacity:1;" d="M 7.742188 200.945312 L 152.90625 200.945312 C 153.808594 200.945312 154.539062 200.214844 154.539062 199.316406 L 154.539062 193.425781 C 154.539062 192.527344 153.808594 191.796875 152.90625 191.796875 L 7.742188 191.796875 Z M 7.742188 200.945312 "/>
</g>
<g clip-path="url(#clip11)" clip-rule="nonzero">
<path style="fill:none;stroke-width:4;stroke-linecap:round;stroke-linejoin:round;stroke:rgb(40%,40%,40%);stroke-opacity:1;stroke-miterlimit:4;" d="M 14.240095 369.739375 L 281.238281 369.739375 C 282.897949 369.739375 284.24149 368.395312 284.24149 366.742188 L 284.24149 355.903437 C 284.24149 354.250313 282.897949 352.90625 281.238281 352.90625 L 14.240095 352.90625 Z M 14.240095 369.739375 " transform="matrix(0.543689,0,0,0.543478,0,0)"/>
</g>
<path style="fill-rule:nonzero;fill:rgb(100%,92.54902%,81.568627%);fill-opacity:1;stroke-width:4;stroke-linecap:round;stroke-linejoin:round;stroke:rgb(40%,40%,40%);stroke-opacity:1;stroke-miterlimit:4;" d="M 118.827916 126.313125 C 118.827916 126.313125 90.685407 120.505625 90.685407 145.949375 C 90.685407 160.91375 100.377581 167.713125 120.293597 167.993437 " transform="matrix(0.543689,0,0,0.543478,0,0)"/>
<path style="fill-rule:nonzero;fill:rgb(100%,92.54902%,81.568627%);fill-opacity:1;stroke-width:4;stroke-linecap:round;stroke-linejoin:round;stroke:rgb(40%,40%,40%);stroke-opacity:1;stroke-miterlimit:4;" d="M 101.412179 147.322188 C 101.412179 147.322188 105.097935 145.61875 108.618443 145.640312 " transform="matrix(0.543689,0,0,0.543478,0,0)"/>
<path style="fill-rule:nonzero;fill:rgb(100%,92.54902%,81.568627%);fill-opacity:1;stroke-width:4;stroke-linecap:round;stroke-linejoin:round;stroke:rgb(40%,40%,40%);stroke-opacity:1;stroke-miterlimit:4;" d="M 261.049247 126.313125 C 261.049247 126.313125 289.191755 120.505625 289.191755 145.949375 C 289.191755 160.91375 279.499581 167.713125 259.583566 167.993437 " transform="matrix(0.543689,0,0,0.543478,0,0)"/>
<path style="fill-rule:nonzero;fill:rgb(100%,92.54902%,81.568627%);fill-opacity:1;stroke-width:4;stroke-linecap:round;stroke-linejoin:round;stroke:rgb(40%,40%,40%);stroke-opacity:1;stroke-miterlimit:4;" d="M 278.464983 147.322188 C 278.464983 147.322188 274.779227 145.61875 271.258719 145.640312 " transform="matrix(0.543689,0,0,0.543478,0,0)"/>
<path style=" stroke:none;fill-rule:nonzero;fill:rgb(100%,92.54902%,81.568627%);fill-opacity:1;" d="M 103.265625 121.671875 C 37.613281 121.671875 43.964844 14.636719 103.265625 14.636719 C 162.570312 14.636719 168.921875 121.671875 103.265625 121.671875 "/>
<path style="fill:none;stroke-width:4;stroke-linecap:round;stroke-linejoin:round;stroke:rgb(40%,40%,40%);stroke-opacity:1;stroke-miterlimit:4;" d="M 189.934989 223.87625 C 69.181571 223.87625 80.863909 26.931563 189.934989 26.931563 C 299.013253 26.931563 310.695592 223.87625 189.934989 223.87625 Z M 189.934989 223.87625 " transform="matrix(0.543689,0,0,0.543478,0,0)"/>
<path style="fill:none;stroke-width:4;stroke-linecap:round;stroke-linejoin:round;stroke:rgb(40%,40%,40%);stroke-opacity:1;stroke-miterlimit:4;" d="M 186.019322 163.3575 C 186.019322 163.3575 184.682966 169.359062 189.934989 169.02125 " transform="matrix(0.543689,0,0,0.543478,0,0)"/>
<path style="fill:none;stroke-width:4;stroke-linecap:round;stroke-linejoin:round;stroke:rgb(40%,40%,40%);stroke-opacity:1;stroke-miterlimit:4;" d="M 213.522391 182.224688 C 213.522391 182.224688 205.51144 192.064375 189.934989 192.064375 C 174.365723 192.064375 166.354771 182.224688 166.354771 182.224688 " transform="matrix(0.543689,0,0,0.543478,0,0)"/>
<path style="fill:none;stroke-width:4;stroke-linecap:round;stroke-linejoin:round;stroke:rgb(40%,40%,40%);stroke-opacity:1;stroke-miterlimit:4;" d="M 217.222517 88.593125 C 217.222517 88.593125 220.311942 83.590625 227.525391 83.590625 C 232.705566 83.590625 238.022252 90.088125 238.022252 90.088125 " transform="matrix(0.543689,0,0,0.543478,0,0)"/>
<path style=" stroke:none;fill-rule:nonzero;fill:rgb(40%,40%,40%);fill-opacity:1;" d="M 126.054688 70.710938 C 126.054688 74.855469 124.675781 78.214844 122.972656 78.214844 C 121.273438 78.214844 119.890625 74.855469 119.890625 70.710938 C 119.890625 66.566406 121.273438 63.207031 122.972656 63.207031 C 124.675781 63.207031 126.054688 66.566406 126.054688 70.710938 "/>
<path style=" stroke:none;fill-rule:nonzero;fill:rgb(80%,52.941176%,34.117647%);fill-opacity:1;" d="M 131.277344 26.785156 C 131.277344 26.785156 136.234375 62.824219 153.445312 66.988281 C 153.445312 66.988281 148.925781 18.050781 131.277344 26.785156 "/>
<path style="fill-rule:nonzero;fill:rgb(80%,52.941176%,34.117647%);fill-opacity:1;stroke-width:4;stroke-linecap:round;stroke-linejoin:round;stroke:rgb(40%,40%,40%);stroke-opacity:1;stroke-miterlimit:4;" d="M 241.858887 51.685313 C 241.858887 51.685313 253.397531 117.091563 279.398996 124.422813 " transform="matrix(0.543689,0,0,0.543478,0,0)"/>
<path style=" stroke:none;fill-rule:nonzero;fill:rgb(80%,52.941176%,34.117647%);fill-opacity:1;" d="M 131.972656 24.507812 C 131.972656 24.507812 113.234375 0.492188 76.335938 18.53125 C 58.863281 27.074219 50.78125 66.898438 50.78125 66.898438 C 50.78125 66.898438 97.71875 51.863281 112.941406 42.078125 C 120.996094 36.902344 131.972656 24.507812 131.972656 24.507812 "/>
<path style="fill-rule:nonzero;fill:rgb(80%,52.941176%,34.117647%);fill-opacity:1;stroke-width:4;stroke-linecap:round;stroke-linejoin:round;stroke:rgb(40%,40%,40%);stroke-opacity:1;stroke-miterlimit:4;" d="M 245.012974 43.61375 C 235.054967 63.4225 181.399554 107.09375 137.924874 111.40625 " transform="matrix(0.543689,0,0,0.543478,0,0)"/>
<path style="fill-rule:nonzero;fill:rgb(80%,52.941176%,34.117647%);fill-opacity:1;stroke-width:4;stroke-linecap:round;stroke-linejoin:round;stroke:rgb(40%,40%,40%);stroke-opacity:1;stroke-miterlimit:4;" d="M 193.398019 47.0925 C 180.731376 76.424688 152.502651 118.335 96.734933 123.761563 " transform="matrix(0.543689,0,0,0.543478,0,0)"/>
<path style="fill:none;stroke-width:4;stroke-linecap:round;stroke-linejoin:round;stroke:rgb(40%,40%,40%);stroke-opacity:1;stroke-miterlimit:4;" d="M 162.654646 88.593125 C 162.654646 88.593125 159.572405 83.590625 152.358956 83.590625 C 147.164411 83.590625 141.854911 90.088125 141.854911 90.088125 " transform="matrix(0.543689,0,0,0.543478,0,0)"/>
<path style=" stroke:none;fill-rule:nonzero;fill:rgb(40%,40%,40%);fill-opacity:1;" d="M 80.480469 70.710938 C 80.480469 74.855469 81.859375 78.214844 83.5625 78.214844 C 85.261719 78.214844 86.644531 74.855469 86.644531 70.710938 C 86.644531 66.566406 85.261719 63.207031 83.5625 63.207031 C 81.859375 63.207031 80.480469 66.566406 80.480469 70.710938 "/>
<path style="fill-rule:nonzero;fill:rgb(87.058824%,88.235294%,89.019608%);fill-opacity:1;stroke-width:4;stroke-linecap:round;stroke-linejoin:round;stroke:rgb(40%,40%,40%);stroke-opacity:1;stroke-miterlimit:4;" d="M 44.911621 349.923438 C 44.911621 351.06625 45.831264 351.98625 46.973633 351.98625 L 246.572056 351.98625 C 247.707241 351.98625 248.634068 351.06625 248.634068 349.923438 L 248.634068 342.49875 C 248.634068 341.355938 247.707241 340.435938 246.572056 340.435938 L 46.973633 340.435938 C 45.831264 340.435938 44.911621 341.355938 44.911621 342.49875 Z M 44.911621 349.923438 " transform="matrix(0.543689,0,0,0.543478,0,0)"/>
<path style="fill-rule:nonzero;fill:rgb(87.058824%,88.235294%,89.019608%);fill-opacity:1;stroke-width:4;stroke-linecap:round;stroke-linejoin:round;stroke:rgb(40%,40%,40%);stroke-opacity:1;stroke-miterlimit:4;" d="M 39.314732 338.47375 C 39.99728 340.536563 42.217355 342.21125 44.286551 342.21125 L 186.479143 342.21125 C 188.54834 342.21125 189.676339 340.536563 188.993792 338.47375 L 155.599261 236.691563 C 154.923898 234.621563 152.696638 232.946875 150.627441 232.946875 L 8.434849 232.946875 C 6.365653 232.946875 5.237653 234.621563 5.920201 236.691563 Z M 39.314732 338.47375 " transform="matrix(0.543689,0,0,0.543478,0,0)"/>
<path style="fill:none;stroke-width:4;stroke-linecap:round;stroke-linejoin:round;stroke:rgb(40%,40%,40%);stroke-opacity:1;stroke-miterlimit:4;" d="M 178.14488 332.623125 L 149.362932 244.906875 C 148.68757 242.844063 146.46031 241.169375 144.391113 241.169375 L 16.575126 241.169375 " transform="matrix(0.543689,0,0,0.543478,0,0)"/>
</g>
</svg>
