<?xml version="1.0" encoding="UTF-8"?>
<svg xmlns="http://www.w3.org/2000/svg" xmlns:xlink="http://www.w3.org/1999/xlink" width="109pt" height="199pt" viewBox="0 0 109 199" version="1.1">
<g id="surface1">
<path style=" stroke:none;fill-rule:nonzero;fill:rgb(47.45098%,47.45098%,47.45098%);fill-opacity:1;" d="M 78.589844 115.800781 L 78.289062 113.246094 L 77.957031 113.246094 L 77.996094 106.261719 L 80.394531 115.492188 C 79.753906 115.554688 79.152344 115.660156 78.589844 115.800781 M 49.207031 192.71875 C 49.074219 192.894531 48.957031 193.058594 48.847656 193.21875 L 48.847656 190.242188 C 48.847656 190.242188 48.839844 190.242188 48.828125 190.238281 L 48.539062 161.128906 L 49.066406 161.128906 L 52.972656 190.523438 C 51.539062 190.875 50.125 191.527344 49.207031 192.71875 M 103.679688 31.121094 C 100.644531 19.933594 94.335938 11.484375 86.492188 6.617188 C 85.089844 5.46875 83.242188 4.625 81.292969 4.007812 C 76.917969 2.296875 72.230469 1.59375 67.460938 2.042969 C 51.566406 0.550781 36.503906 11.746094 31.246094 31.121094 C 25.074219 53.851562 25.535156 75.125 42.421875 77.460938 C 42.242188 77.457031 42.738281 77.628906 47.464844 78.742188 C 47.464844 78.742188 48.835938 79.277344 51.058594 79.367188 C 54.859375 81.738281 59.4375 83.273438 64.828125 83.648438 L 64.664062 85.351562 L 63.082031 86.265625 C 62.316406 86.292969 61.503906 86.332031 60.695312 86.386719 L 60.695312 85.902344 L 58.53125 86.105469 L 58.53125 86.582031 C 58.5 86.585938 58.46875 86.589844 58.4375 86.59375 L 57.578125 86.589844 L 57.578125 86.585938 C 57.578125 86.585938 55.015625 86.105469 53.175781 86.46875 L 2.808594 86.46875 C 2.074219 86.46875 1.671875 87.0625 1.914062 87.796875 L 13.8125 123.96875 C 14.054688 124.703125 14.847656 125.296875 15.582031 125.296875 L 15.8125 125.296875 C 15.808594 125.328125 15.804688 125.363281 15.804688 125.398438 L 15.804688 128.035156 C 15.804688 128.441406 16.132812 128.769531 16.539062 128.769531 L 52.53125 128.769531 C 52.507812 128.878906 52.484375 128.988281 52.457031 129.097656 L 4.878906 129.097656 L 4.878906 135.078125 L 51.054688 135.078125 L 50.457031 136.683594 L 40.464844 142.679688 C 40.464844 142.679688 40.640625 142.621094 41.089844 142.554688 C 38.273438 143.273438 37.414062 145.910156 37.601562 148.921875 L 39.730469 161.128906 L 39.742188 161.128906 L 43.648438 190.523438 C 42.210938 190.875 40.800781 191.527344 39.882812 192.71875 C 39.269531 193.519531 38.957031 194.152344 38.820312 194.648438 L 38.816406 194.648438 C 37.75 196.578125 38.5625 197.382812 38.5625 197.382812 L 47.824219 197.300781 C 47.863281 197.355469 47.886719 197.382812 47.886719 197.382812 L 58.175781 197.292969 L 58.175781 190.242188 C 58.175781 190.242188 58.164062 190.242188 58.152344 190.238281 L 57.863281 161.128906 L 57.914062 161.128906 L 57.839844 158.792969 L 57.785156 153.097656 L 67.65625 153.023438 C 68.941406 154.695312 69.6875 155.878906 69.6875 155.878906 C 69.6875 155.878906 71.5625 154.996094 73.90625 152.96875 L 77.125 152.96875 C 80.375 152.96875 83.875 150.808594 84.144531 146.675781 C 84.457031 141.847656 83.664062 137.664062 82.972656 135.078125 L 99.988281 135.078125 C 100.578125 135.078125 101.054688 134.601562 101.054688 134.011719 L 101.054688 130.160156 C 101.054688 129.574219 100.578125 129.097656 99.988281 129.097656 L 82.46875 129.097656 C 82.445312 128.988281 82.421875 128.878906 82.398438 128.769531 L 87.636719 128.769531 C 88.042969 128.769531 88.371094 128.441406 88.371094 128.035156 L 88.371094 125.398438 C 88.371094 124.992188 88.042969 124.664062 87.636719 124.664062 L 84.570312 124.664062 C 85.117188 124.425781 85.632812 124.144531 86.097656 123.8125 C 86.097656 123.8125 89.613281 125.339844 90.597656 122.316406 C 90.597656 122.316406 91.007812 119.460938 88.671875 117.421875 C 88.660156 117.289062 88.636719 117.152344 88.609375 117.007812 C 87.535156 112.398438 86.300781 107.59375 85.101562 103.222656 L 86.882812 102.664062 C 86.882812 102.664062 85.941406 91.730469 83.402344 87.394531 C 82.378906 85.644531 77.347656 86.585938 77.347656 86.585938 L 77.347656 86.589844 L 76.503906 86.59375 C 76.46875 86.589844 76.433594 86.582031 76.398438 86.578125 L 76.398438 86.105469 L 74.234375 85.902344 L 74.234375 86.382812 C 73.429688 86.328125 72.621094 86.292969 71.855469 86.265625 L 70.273438 85.351562 L 70.113281 83.648438 C 75.496094 83.269531 80.070312 81.738281 83.871094 79.367188 C 86.089844 79.277344 87.460938 78.742188 87.460938 78.742188 C 92.1875 77.628906 92.679688 77.457031 92.503906 77.460938 C 109.390625 75.125 109.851562 53.851562 103.679688 31.121094 "/>
<path style="fill:none;stroke-width:8;stroke-linecap:round;stroke-linejoin:round;stroke:rgb(47.45098%,47.45098%,47.45098%);stroke-opacity:1;stroke-miterlimit:4;" d="M 220.628369 325.871545 L 219.783974 318.682475 L 218.851849 318.682475 L 218.961511 299.027952 L 225.694739 325.003141 C 223.896287 325.17902 222.207497 325.475817 220.628369 325.871545 Z M 138.14084 542.324121 C 137.76799 542.818781 137.439005 543.280465 137.131952 543.731156 L 137.131952 535.354899 C 137.131952 535.354899 137.11002 535.354899 137.077122 535.343907 L 136.265625 453.428078 L 137.746058 453.428078 L 148.712228 536.146357 C 144.687643 537.135678 140.71789 538.97142 138.14084 542.324121 Z M 291.064077 87.576947 C 282.543363 56.094535 264.832999 32.317839 242.81293 18.621231 C 238.876075 15.389447 233.689077 13.015075 228.216958 11.278266 C 215.934848 6.463568 202.775444 4.484925 189.385751 5.749058 C 144.764407 1.549937 102.478856 33.054334 87.718392 87.576947 C 70.391843 151.542085 71.685851 211.407035 119.092603 217.980528 C 118.588159 217.969535 119.980863 218.453204 133.249928 221.586055 C 133.249928 221.586055 137.099054 223.092023 143.338804 223.344849 C 154.008888 230.017274 166.861239 234.337312 181.994553 235.392588 L 181.533974 240.185302 L 177.092675 242.757538 C 174.943306 242.834485 172.662342 242.94441 170.392345 243.098304 L 170.392345 241.735239 L 164.317087 242.306847 L 164.317087 243.647927 C 164.229358 243.65892 164.141628 243.669912 164.053899 243.680905 L 161.641342 243.669912 L 161.641342 243.65892 C 161.641342 243.65892 154.447534 242.306847 149.282468 243.329146 L 7.884676 243.329146 C 5.823036 243.329146 4.693521 245 5.373423 247.066583 L 38.776376 348.856784 C 39.456279 350.923367 41.682411 352.594221 43.744051 352.594221 L 44.391055 352.594221 C 44.380089 352.682161 44.369123 352.781093 44.369123 352.880025 L 44.369123 360.299937 C 44.369123 361.443153 45.290281 362.36652 46.430763 362.36652 L 147.47305 362.36652 C 147.407253 362.674309 147.341456 362.982098 147.264693 363.289887 L 13.696746 363.289887 L 13.696746 380.119347 L 143.327838 380.119347 L 141.650014 384.637249 L 113.598552 401.510678 C 113.598552 401.510678 114.09203 401.345791 115.353139 401.15892 C 107.446531 403.181533 105.033974 410.601445 105.56035 419.076633 L 111.536912 453.428078 L 111.569811 453.428078 L 122.535981 536.146357 C 118.50043 537.135678 114.541643 538.97142 111.964593 542.324121 C 110.242904 544.577575 109.365611 546.358354 108.981795 547.754397 L 108.970829 547.754397 C 105.977064 553.184673 108.258028 555.449121 108.258028 555.449121 L 134.258816 555.218279 C 134.368478 555.372173 134.434275 555.449121 134.434275 555.449121 L 163.319166 555.196294 L 163.319166 535.354899 C 163.319166 535.354899 163.286267 535.354899 163.253369 535.343907 L 162.441872 453.428078 L 162.584432 453.428078 L 162.376075 446.854585 L 162.222549 430.827575 L 189.93406 430.618719 C 193.541929 435.323492 195.636468 438.654209 195.636468 438.654209 C 195.636468 438.654209 200.900229 436.169912 207.479931 430.464824 L 216.516055 430.464824 C 225.639908 430.464824 235.465596 424.385992 236.222262 412.755967 C 237.099556 399.169284 234.873423 387.396357 232.932411 380.119347 L 280.701046 380.119347 C 282.356938 380.119347 283.694811 378.778266 283.694811 377.118405 L 283.694811 366.279837 C 283.694811 364.630967 282.356938 363.289887 280.701046 363.289887 L 231.517775 363.289887 C 231.451978 362.982098 231.386181 362.674309 231.320384 362.36652 L 246.026018 362.36652 C 247.166499 362.36652 248.087658 361.443153 248.087658 360.299937 L 248.087658 352.880025 C 248.087658 351.736809 247.166499 350.813442 246.026018 350.813442 L 237.417575 350.813442 C 238.952838 350.142902 240.400373 349.351445 241.705347 348.417085 C 241.705347 348.417085 251.5749 352.715138 254.338374 344.206972 C 254.338374 344.206972 255.489822 336.171482 248.932053 330.433417 C 248.899154 330.059673 248.833357 329.674937 248.756594 329.268216 C 245.740897 316.297111 242.275588 302.776382 238.908974 290.475817 L 243.909547 288.903894 C 243.909547 288.903894 241.2667 258.135992 234.13869 245.934359 C 231.265553 241.009736 217.141127 243.65892 217.141127 243.65892 L 217.141127 243.669912 L 214.772434 243.680905 C 214.673739 243.669912 214.575043 243.647927 214.476347 243.636935 L 214.476347 242.306847 L 208.401089 241.735239 L 208.401089 243.087312 C 206.142058 242.933417 203.872061 242.834485 201.722692 242.757538 L 197.281393 240.185302 L 196.83178 235.392588 C 211.943162 234.326319 224.784547 230.017274 235.45463 223.344849 C 241.683415 223.092023 245.53254 221.586055 245.53254 221.586055 C 258.801606 218.453204 260.183343 217.969535 259.689865 217.980528 C 307.096617 211.407035 308.390625 151.542085 291.064077 87.576947 Z M 291.064077 87.576947 " transform="matrix(0.356209,0,0,0.355357,0,0)"/>
<path style=" stroke:none;fill-rule:nonzero;fill:rgb(80.784314%,64.705882%,47.45098%);fill-opacity:1;" d="M 103.679688 31.121094 C 98.417969 11.746094 83.359375 0.550781 67.460938 2.042969 C 51.566406 0.550781 36.503906 11.746094 31.246094 31.121094 C 25.074219 53.851562 25.535156 75.125 42.421875 77.460938 C 42.242188 77.457031 42.738281 77.628906 47.464844 78.742188 C 47.464844 78.742188 50.109375 79.785156 54.03125 79.203125 L 61.035156 80.308594 L 67.460938 80.4375 L 73.890625 80.308594 L 80.894531 79.203125 C 84.8125 79.785156 87.460938 78.742188 87.460938 78.742188 C 92.1875 77.628906 92.679688 77.457031 92.503906 77.460938 C 109.390625 75.125 109.851562 53.851562 103.679688 31.121094 "/>
<path style="fill:none;stroke-width:4;stroke-linecap:round;stroke-linejoin:round;stroke:rgb(47.45098%,47.45098%,47.45098%);stroke-opacity:1;stroke-miterlimit:4;" d="M 291.064077 87.576947 C 276.292646 33.054334 234.018062 1.549937 189.385751 5.749058 C 144.764407 1.549937 102.478856 33.054334 87.718392 87.576947 C 70.391843 151.542085 71.685851 211.407035 119.092603 217.980528 C 118.588159 217.969535 119.980863 218.453204 133.249928 221.586055 C 133.249928 221.586055 140.674025 224.521043 151.68406 222.883166 L 171.346402 225.994033 L 189.385751 226.356784 L 207.436067 225.994033 L 227.098409 222.883166 C 238.097477 224.521043 245.53254 221.586055 245.53254 221.586055 C 258.801606 218.453204 260.183343 217.969535 259.689865 217.980528 C 307.096617 211.407035 308.390625 151.542085 291.064077 87.576947 Z M 291.064077 87.576947 " transform="matrix(0.356209,0,0,0.355357,0,0)"/>
<path style="fill-rule:nonzero;fill:rgb(80.784314%,64.705882%,47.45098%);fill-opacity:1;stroke-width:4;stroke-linecap:round;stroke-linejoin:round;stroke:rgb(47.45098%,47.45098%,47.45098%);stroke-opacity:1;stroke-miterlimit:4;" d="M 101.634461 185.618719 C 101.634461 185.618719 94.802537 204.23995 120.013761 218.112437 " transform="matrix(0.356209,0,0,0.355357,0,0)"/>
<path style="fill-rule:nonzero;fill:rgb(80.784314%,64.705882%,47.45098%);fill-opacity:1;stroke-width:4;stroke-linecap:round;stroke-linejoin:round;stroke:rgb(47.45098%,47.45098%,47.45098%);stroke-opacity:1;stroke-miterlimit:4;" d="M 277.148007 185.618719 C 277.148007 185.618719 283.968965 204.23995 258.768707 218.112437 " transform="matrix(0.356209,0,0,0.355357,0,0)"/>
<path style=" stroke:none;fill-rule:nonzero;fill:rgb(100%,93.72549%,85.098039%);fill-opacity:1;" d="M 79.882812 87.394531 C 78.503906 86.648438 74.84375 86.367188 71.855469 86.265625 L 70.273438 85.351562 L 69.789062 80.242188 L 67.476562 78.742188 L 65.164062 80.242188 L 64.679688 85.351562 L 63.097656 86.265625 C 60.109375 86.367188 56.453125 86.648438 55.074219 87.394531 C 54.949219 87.460938 54.566406 88.277344 54.566406 88.277344 C 54.542969 90.660156 58.53125 99.367188 58.53125 99.367188 L 76.425781 99.367188 C 76.425781 99.367188 80.414062 90.660156 80.390625 88.277344 C 80.390625 88.277344 80.007812 87.460938 79.882812 87.394531 "/>
<path style="fill:none;stroke-width:4;stroke-linecap:round;stroke-linejoin:round;stroke:rgb(47.45098%,47.45098%,47.45098%);stroke-opacity:1;stroke-miterlimit:4;" d="M 224.258171 245.934359 C 220.387113 243.834799 210.111812 243.043342 201.722692 242.757538 L 197.281393 240.185302 L 195.921588 225.807161 L 189.429616 221.586055 L 182.937643 225.807161 L 181.577838 240.185302 L 177.13654 242.757538 C 168.74742 243.043342 158.483085 243.834799 154.612027 245.934359 C 154.26111 246.121231 153.186425 248.418656 153.186425 248.418656 C 153.120628 255.124058 164.317087 279.626256 164.317087 279.626256 L 214.553111 279.626256 C 214.553111 279.626256 225.74957 255.124058 225.683773 248.418656 C 225.683773 248.418656 224.609088 246.121231 224.258171 245.934359 Z M 224.258171 245.934359 " transform="matrix(0.356209,0,0,0.355357,0,0)"/>
<path style=" stroke:none;fill-rule:nonzero;fill:rgb(100%,93.72549%,85.098039%);fill-opacity:1;" d="M 79.871094 87.394531 C 78.488281 86.648438 74.832031 86.367188 71.84375 86.265625 L 70.257812 85.351562 L 69.773438 80.242188 L 67.460938 78.742188 L 65.152344 80.242188 L 64.664062 85.351562 L 63.082031 86.265625 C 60.09375 86.367188 56.4375 86.648438 55.058594 87.394531 C 54.9375 87.460938 54.550781 88.277344 54.550781 88.277344 C 54.53125 90.660156 58.519531 99.367188 58.519531 99.367188 L 76.410156 99.367188 C 76.410156 99.367188 80.398438 90.660156 80.375 88.277344 C 80.375 88.277344 79.992188 87.460938 79.871094 87.394531 "/>
<path style="fill:none;stroke-width:4;stroke-linecap:round;stroke-linejoin:round;stroke:rgb(47.45098%,47.45098%,47.45098%);stroke-opacity:1;stroke-miterlimit:4;" d="M 224.225272 245.934359 C 220.343248 243.834799 210.078913 243.043342 201.689794 242.757538 L 197.237529 240.185302 L 195.877724 225.807161 L 189.385751 221.586055 L 182.904745 225.807161 L 181.533974 240.185302 L 177.092675 242.757538 C 168.703555 243.043342 158.43922 243.834799 154.568162 245.934359 C 154.228211 246.121231 153.14256 248.418656 153.14256 248.418656 C 153.087729 255.124058 164.284189 279.626256 164.284189 279.626256 L 214.509246 279.626256 C 214.509246 279.626256 225.705705 255.124058 225.639908 248.418656 C 225.639908 248.418656 224.565224 246.121231 224.225272 245.934359 Z M 224.225272 245.934359 " transform="matrix(0.356209,0,0,0.355357,0,0)"/>
<path style=" stroke:none;fill-rule:nonzero;fill:rgb(100%,100%,100%);fill-opacity:1;" d="M 67.460938 101.902344 C 71.082031 101.90625 74.710938 93.34375 74.601562 90.707031 C 74.601562 90.707031 72.496094 92.792969 67.460938 92.792969 C 62.429688 92.792969 60.355469 90.707031 60.355469 90.707031 C 60.246094 93.335938 63.851562 101.898438 67.460938 101.902344 "/>
<path style="fill:none;stroke-width:4;stroke-linecap:round;stroke-linejoin:round;stroke:rgb(47.45098%,47.45098%,47.45098%);stroke-opacity:1;stroke-miterlimit:4;" d="M 189.385751 286.760364 C 199.55139 286.771357 209.738962 262.675879 209.431909 255.255967 C 209.431909 255.255967 203.521144 261.125942 189.385751 261.125942 C 175.261325 261.125942 169.438288 255.255967 169.438288 255.255967 C 169.131236 262.653894 179.25301 286.749372 189.385751 286.760364 Z M 189.385751 286.760364 " transform="matrix(0.356209,0,0,0.355357,0,0)"/>
<path style="fill-rule:nonzero;fill:rgb(90.980392%,93.72549%,94.901961%);fill-opacity:1;stroke-width:4;stroke-linecap:round;stroke-linejoin:round;stroke:rgb(47.45098%,47.45098%,47.45098%);stroke-opacity:1;stroke-miterlimit:4;" d="M 163.330132 304.634108 L 215.540066 304.634108 L 217.393349 271.832601 L 219.981365 243.65892 L 214.114464 243.680905 L 189.429616 292.388505 L 164.755734 243.680905 L 158.888833 243.65892 L 161.476849 271.832601 Z M 163.330132 304.634108 " transform="matrix(0.356209,0,0,0.355357,0,0)"/>
<path style="fill-rule:nonzero;fill:rgb(100%,93.72549%,85.098039%);fill-opacity:1;stroke-width:4;stroke-linecap:round;stroke-linejoin:round;stroke:rgb(47.45098%,47.45098%,47.45098%);stroke-opacity:1;stroke-miterlimit:4;" d="M 211.822534 271.557789 L 226.955849 329.839824 C 226.955849 329.839824 234.983085 340.326633 241.146072 339.722048 C 246.058916 339.238379 250.083501 335.984611 248.756594 329.268216 C 239.8082 290.827575 226.966815 247.462312 224.225272 245.934359 L 222.711941 245.285804 " transform="matrix(0.356209,0,0,0.355357,0,0)"/>
<path style="fill-rule:nonzero;fill:rgb(90.980392%,93.72549%,94.901961%);fill-opacity:1;stroke-width:4;stroke-linecap:round;stroke-linejoin:round;stroke:rgb(47.45098%,47.45098%,47.45098%);stroke-opacity:1;stroke-miterlimit:4;" d="M 161.641342 243.65892 C 161.641342 243.65892 147.516915 241.009736 144.643779 245.934359 C 137.515768 258.135992 137.417073 288.903894 137.417073 288.903894 L 161.103999 297.137249 L 167.05863 274.668656 " transform="matrix(0.356209,0,0,0.355357,0,0)"/>
<path style="fill-rule:nonzero;fill:rgb(90.980392%,93.72549%,94.901961%);fill-opacity:1;stroke-width:4;stroke-linecap:round;stroke-linejoin:round;stroke:rgb(47.45098%,47.45098%,47.45098%);stroke-opacity:1;stroke-miterlimit:4;" d="M 217.141127 243.65892 C 217.141127 243.65892 231.265553 241.009736 234.13869 245.934359 C 241.2667 258.135992 243.909547 288.903894 243.909547 288.903894 L 217.678469 297.137249 L 211.723839 274.668656 " transform="matrix(0.356209,0,0,0.355357,0,0)"/>
<path style=" stroke:none;fill-rule:nonzero;fill:rgb(100%,93.72549%,85.098039%);fill-opacity:1;" d="M 57.78125 153.015625 L 58.175781 192.519531 L 53.238281 192.519531 L 48.046875 153.464844 C 48.046875 153.464844 47.046875 146.125 52.527344 147 C 58.160156 147.898438 57.78125 153.015625 57.78125 153.015625 "/>
<path style="fill:none;stroke-width:4;stroke-linecap:round;stroke-linejoin:round;stroke:rgb(47.45098%,47.45098%,47.45098%);stroke-opacity:1;stroke-miterlimit:4;" d="M 162.211583 430.596734 L 163.319166 541.763505 L 149.457927 541.763505 L 134.883888 431.860867 C 134.883888 431.860867 132.076548 411.20603 147.462084 413.668342 C 163.275301 416.196608 162.211583 430.596734 162.211583 430.596734 Z M 162.211583 430.596734 " transform="matrix(0.356209,0,0,0.355357,0,0)"/>
<path style=" stroke:none;fill-rule:nonzero;fill:rgb(100%,93.72549%,85.098039%);fill-opacity:1;" d="M 48.457031 153.015625 L 48.847656 192.519531 L 43.914062 192.519531 L 38.722656 153.464844 C 38.722656 153.464844 37.722656 146.125 43.203125 147 C 48.832031 147.898438 48.457031 153.015625 48.457031 153.015625 "/>
<path style="fill:none;stroke-width:4;stroke-linecap:round;stroke-linejoin:round;stroke:rgb(47.45098%,47.45098%,47.45098%);stroke-opacity:1;stroke-miterlimit:4;" d="M 136.035335 430.596734 L 137.131952 541.763505 L 123.28168 541.763505 L 108.70764 431.860867 C 108.70764 431.860867 105.900301 411.20603 121.285837 413.668342 C 137.088088 416.196608 136.035335 430.596734 136.035335 430.596734 Z M 136.035335 430.596734 " transform="matrix(0.356209,0,0,0.355357,0,0)"/>
<path style=" stroke:none;fill-rule:nonzero;fill:rgb(100%,100%,100%);fill-opacity:1;" d="M 39.105469 196.207031 L 48.847656 196.207031 L 48.847656 190.242188 C 48.847656 190.242188 42.4375 189.398438 39.882812 192.71875 C 37.851562 195.359375 39.105469 196.207031 39.105469 196.207031 "/>
<path style="fill:none;stroke-width:4;stroke-linecap:round;stroke-linejoin:round;stroke:rgb(47.45098%,47.45098%,47.45098%);stroke-opacity:1;stroke-miterlimit:4;" d="M 109.782325 552.140389 L 137.131952 552.140389 L 137.131952 535.354899 C 137.131952 535.354899 119.136468 532.980528 111.964593 542.324121 C 106.262185 549.755025 109.782325 552.140389 109.782325 552.140389 Z M 109.782325 552.140389 " transform="matrix(0.356209,0,0,0.355357,0,0)"/>
<path style=" stroke:none;fill-rule:nonzero;fill:rgb(100%,100%,100%);fill-opacity:1;" d="M 38.816406 194.648438 C 38.816406 194.648438 41.324219 193.207031 44.261719 193.738281 C 47.203125 194.273438 48.847656 196.207031 48.847656 196.207031 L 48.847656 197.292969 L 38.5625 197.382812 C 38.5625 197.382812 37.75 196.578125 38.816406 194.648438 "/>
<path style="fill:none;stroke-width:4;stroke-linecap:round;stroke-linejoin:round;stroke:rgb(47.45098%,47.45098%,47.45098%);stroke-opacity:1;stroke-miterlimit:4;" d="M 108.970829 547.754397 C 108.970829 547.754397 116.01111 543.698178 124.257669 545.193153 C 132.515195 546.699121 137.131952 552.140389 137.131952 552.140389 L 137.131952 555.196294 L 108.258028 555.449121 C 108.258028 555.449121 105.977064 553.184673 108.970829 547.754397 Z M 108.970829 547.754397 " transform="matrix(0.356209,0,0,0.355357,0,0)"/>
<path style=" stroke:none;fill-rule:nonzero;fill:rgb(100%,100%,100%);fill-opacity:1;" d="M 48.429688 196.207031 L 58.175781 196.207031 L 58.175781 190.242188 C 58.175781 190.242188 51.761719 189.398438 49.207031 192.71875 C 47.175781 195.359375 48.429688 196.207031 48.429688 196.207031 "/>
<path style="fill:none;stroke-width:4;stroke-linecap:round;stroke-linejoin:round;stroke:rgb(47.45098%,47.45098%,47.45098%);stroke-opacity:1;stroke-miterlimit:4;" d="M 135.958572 552.140389 L 163.319166 552.140389 L 163.319166 535.354899 C 163.319166 535.354899 145.312715 532.980528 138.14084 542.324121 C 132.438432 549.755025 135.958572 552.140389 135.958572 552.140389 Z M 135.958572 552.140389 " transform="matrix(0.356209,0,0,0.355357,0,0)"/>
<path style=" stroke:none;fill-rule:nonzero;fill:rgb(100%,100%,100%);fill-opacity:1;" d="M 48.140625 194.648438 C 48.140625 194.648438 50.648438 193.207031 53.589844 193.738281 C 56.527344 194.273438 58.175781 196.207031 58.175781 196.207031 L 58.175781 197.292969 L 47.890625 197.382812 C 47.890625 197.382812 47.074219 196.578125 48.140625 194.648438 "/>
<path style="fill:none;stroke-width:4;stroke-linecap:round;stroke-linejoin:round;stroke:rgb(47.45098%,47.45098%,47.45098%);stroke-opacity:1;stroke-miterlimit:4;" d="M 135.147076 547.754397 C 135.147076 547.754397 142.187357 543.698178 150.444882 545.193153 C 158.691442 546.699121 163.319166 552.140389 163.319166 552.140389 L 163.319166 555.196294 L 134.445241 555.449121 C 134.445241 555.449121 132.153311 553.184673 135.147076 547.754397 Z M 135.147076 547.754397 " transform="matrix(0.356209,0,0,0.355357,0,0)"/>
<path style=" stroke:none;fill-rule:nonzero;fill:rgb(68.235294%,72.941176%,92.156863%);fill-opacity:1;" d="M 82.097656 132.328125 L 52.832031 132.328125 L 52.816406 139.585938 C 45.917969 140.605469 41.140625 142.539062 41.140625 142.539062 C 38.28125 143.238281 37.414062 145.890625 37.601562 148.921875 L 39.730469 161.128906 L 57.914062 161.128906 L 57.65625 153.097656 L 72.066406 152.988281 C 72.203125 152.988281 72.339844 152.976562 72.476562 152.96875 L 77.125 152.96875 C 80.375 152.96875 83.875 150.808594 84.144531 146.675781 C 84.667969 138.609375 82.097656 132.328125 82.097656 132.328125 "/>
<path style="fill:none;stroke-width:4;stroke-linecap:round;stroke-linejoin:round;stroke:rgb(47.45098%,47.45098%,47.45098%);stroke-opacity:1;stroke-miterlimit:4;" d="M 230.475989 372.380653 L 148.317446 372.380653 L 148.273581 392.804648 C 128.907325 395.673681 115.4957 401.11495 115.4957 401.11495 C 107.468463 403.082601 105.033974 410.546482 105.56035 419.076633 L 111.536912 453.428078 L 162.584432 453.428078 L 161.860665 430.827575 L 202.314865 430.519786 C 202.698681 430.519786 203.082497 430.486809 203.466313 430.464824 L 216.516055 430.464824 C 225.639908 430.464824 235.465596 424.385992 236.222262 412.755967 C 237.691729 390.056533 230.475989 372.380653 230.475989 372.380653 Z M 230.475989 372.380653 " transform="matrix(0.356209,0,0,0.355357,0,0)"/>
<path style="fill:none;stroke-width:4;stroke-linecap:round;stroke-linejoin:round;stroke:rgb(47.45098%,47.45098%,47.45098%);stroke-opacity:1;stroke-miterlimit:4;" d="M 201.920083 391.133794 C 182.663489 390.155465 139.588374 401.11495 139.588374 401.11495 C 131.561138 403.082601 131.868191 410.546482 132.394567 419.076633 C 132.394567 419.076633 133.984662 436.554648 135.805046 453.428078 " transform="matrix(0.356209,0,0,0.355357,0,0)"/>
<path style="fill-rule:nonzero;fill:rgb(100%,96.470588%,70.980392%);fill-opacity:1;stroke-width:4;stroke-linecap:round;stroke-linejoin:round;stroke:rgb(47.45098%,47.45098%,47.45098%);stroke-opacity:1;stroke-miterlimit:4;" d="M 234.127724 376.063128 C 228.46918 345.339196 220.628369 325.882538 220.628369 325.882538 L 158.1541 325.882538 C 158.1541 325.882538 150.324255 345.339196 144.665711 376.063128 " transform="matrix(0.356209,0,0,0.355357,0,0)"/>
<path style="fill-rule:nonzero;fill:rgb(100%,96.470588%,70.980392%);fill-opacity:1;stroke-width:4;stroke-linecap:round;stroke-linejoin:round;stroke:rgb(47.45098%,47.45098%,47.45098%);stroke-opacity:1;stroke-miterlimit:4;" d="M 233.184633 372.380653 C 232.515697 421.374058 195.636468 438.654209 195.636468 438.654209 C 195.636468 438.654209 182.86088 418.340138 166.148438 407.138819 C 156.805261 400.873116 142.812428 400.862123 133.1293 400.587312 C 117.820528 400.136621 113.598552 401.510678 113.598552 401.510678 L 141.650014 384.637249 L 146.650588 371.138505 " transform="matrix(0.356209,0,0,0.355357,0,0)"/>
<path style="fill-rule:nonzero;fill:rgb(100%,96.470588%,70.980392%);fill-opacity:1;stroke-width:4;stroke-linecap:round;stroke-linejoin:round;stroke:rgb(47.45098%,47.45098%,47.45098%);stroke-opacity:1;stroke-miterlimit:4;" d="M 219.071173 279.384422 L 212.820456 270.975188 L 165.972979 270.975188 L 159.722262 279.384422 L 159.952552 320.496231 L 218.840883 320.496231 Z M 219.071173 279.384422 " transform="matrix(0.356209,0,0,0.355357,0,0)"/>
<path style="fill-rule:nonzero;fill:rgb(100%,96.470588%,70.980392%);fill-opacity:1;stroke-width:4;stroke-linecap:round;stroke-linejoin:round;stroke:rgb(47.45098%,47.45098%,47.45098%);stroke-opacity:1;stroke-miterlimit:4;" d="M 170.392345 277.647613 L 164.317087 277.647613 L 164.317087 242.306847 L 170.392345 241.735239 Z M 170.392345 277.647613 " transform="matrix(0.356209,0,0,0.355357,0,0)"/>
<path style="fill-rule:nonzero;fill:rgb(100%,96.470588%,70.980392%);fill-opacity:1;stroke-width:4;stroke-linecap:round;stroke-linejoin:round;stroke:rgb(47.45098%,47.45098%,47.45098%);stroke-opacity:1;stroke-miterlimit:4;" d="M 208.401089 277.647613 L 214.476347 277.647613 L 214.476347 242.306847 L 208.401089 241.735239 Z M 208.401089 277.647613 " transform="matrix(0.356209,0,0,0.355357,0,0)"/>
<path style="fill-rule:nonzero;fill:rgb(100%,96.470588%,70.980392%);fill-opacity:1;stroke-width:4;stroke-linecap:round;stroke-linejoin:round;stroke:rgb(47.45098%,47.45098%,47.45098%);stroke-opacity:1;stroke-miterlimit:4;" d="M 220.628369 325.882538 L 158.1541 325.882538 L 159.009461 318.682475 L 219.783974 318.682475 Z M 220.628369 325.882538 " transform="matrix(0.356209,0,0,0.355357,0,0)"/>
<path style="fill-rule:nonzero;fill:rgb(100%,96.470588%,70.980392%);fill-opacity:1;stroke-width:4;stroke-linecap:round;stroke-linejoin:round;stroke:rgb(47.45098%,47.45098%,47.45098%);stroke-opacity:1;stroke-miterlimit:4;" d="M 186.666141 317.176508 C 186.666141 317.176508 177.597119 333.808103 174.581422 340.975188 L 180.481221 350.010992 C 180.481221 350.010992 185.514693 333.049623 186.666141 327.080716 Z M 186.666141 317.176508 " transform="matrix(0.356209,0,0,0.355357,0,0)"/>
<path style="fill-rule:nonzero;fill:rgb(100%,96.470588%,70.980392%);fill-opacity:1;stroke-width:4;stroke-linecap:round;stroke-linejoin:round;stroke:rgb(47.45098%,47.45098%,47.45098%);stroke-opacity:1;stroke-miterlimit:4;" d="M 192.127294 317.176508 C 192.127294 317.176508 201.196316 333.808103 204.212013 340.975188 L 198.312213 350.010992 C 198.312213 350.010992 193.278741 333.049623 192.127294 327.080716 Z M 192.127294 317.176508 " transform="matrix(0.356209,0,0,0.355357,0,0)"/>
<path style="fill-rule:nonzero;fill:rgb(100%,96.470588%,70.980392%);fill-opacity:1;stroke-width:4;stroke-linecap:round;stroke-linejoin:round;stroke:rgb(47.45098%,47.45098%,47.45098%);stroke-opacity:1;stroke-miterlimit:4;" d="M 185.525659 327.927136 L 193.256809 327.927136 L 193.256809 317.176508 L 185.525659 317.176508 Z M 185.525659 327.927136 " transform="matrix(0.356209,0,0,0.355357,0,0)"/>
<path style="fill-rule:nonzero;fill:rgb(100%,93.72549%,85.098039%);fill-opacity:1;stroke-width:4;stroke-linecap:round;stroke-linejoin:round;stroke:rgb(47.45098%,47.45098%,47.45098%);stroke-opacity:1;stroke-miterlimit:4;" d="M 118.281107 136.691269 C 118.281107 136.691269 90.141915 130.887249 90.141915 156.323807 C 90.141915 171.29554 99.836009 178.088882 119.750573 178.374686 " transform="matrix(0.356209,0,0,0.355357,0,0)"/>
<path style="fill-rule:nonzero;fill:rgb(100%,93.72549%,85.098039%);fill-opacity:1;stroke-width:4;stroke-linecap:round;stroke-linejoin:round;stroke:rgb(47.45098%,47.45098%,47.45098%);stroke-opacity:1;stroke-miterlimit:4;" d="M 100.866829 157.697864 C 100.866829 157.697864 104.562428 155.994033 108.071603 156.016018 " transform="matrix(0.356209,0,0,0.355357,0,0)"/>
<path style="fill-rule:nonzero;fill:rgb(100%,93.72549%,85.098039%);fill-opacity:1;stroke-width:4;stroke-linecap:round;stroke-linejoin:round;stroke:rgb(47.45098%,47.45098%,47.45098%);stroke-opacity:1;stroke-miterlimit:4;" d="M 260.501362 136.691269 C 260.501362 136.691269 288.651519 130.887249 288.651519 156.323807 C 288.651519 171.29554 278.957425 178.088882 259.042861 178.374686 " transform="matrix(0.356209,0,0,0.355357,0,0)"/>
<path style="fill-rule:nonzero;fill:rgb(100%,93.72549%,85.098039%);fill-opacity:1;stroke-width:4;stroke-linecap:round;stroke-linejoin:round;stroke:rgb(47.45098%,47.45098%,47.45098%);stroke-opacity:1;stroke-miterlimit:4;" d="M 277.926606 157.697864 C 277.926606 157.697864 274.231006 155.994033 270.721832 156.016018 " transform="matrix(0.356209,0,0,0.355357,0,0)"/>
<path style=" stroke:none;fill-rule:nonzero;fill:rgb(100%,93.72549%,85.098039%);fill-opacity:1;" d="M 67.464844 83.742188 C 24.449219 83.742188 28.609375 13.757812 67.464844 13.757812 C 106.320312 13.757812 110.480469 83.742188 67.464844 83.742188 "/>
<path style="fill:none;stroke-width:4;stroke-linecap:round;stroke-linejoin:round;stroke:rgb(47.45098%,47.45098%,47.45098%);stroke-opacity:1;stroke-miterlimit:4;" d="M 189.396717 235.656407 C 68.637256 235.656407 80.316227 38.715452 189.396717 38.715452 C 298.477208 38.715452 310.156178 235.656407 189.396717 235.656407 Z M 189.396717 235.656407 " transform="matrix(0.356209,0,0,0.355357,0,0)"/>
<path style=" stroke:none;fill-rule:nonzero;fill:rgb(80.784314%,64.705882%,47.45098%);fill-opacity:1;" d="M 87.746094 7.886719 C 90.84375 11.863281 93.96875 30.625 68.660156 31.996094 C 68.660156 31.996094 64.097656 32.5 57.375 30.847656 C 57.375 30.847656 49.777344 33.089844 43.421875 31.542969 C 43.421875 31.542969 38.917969 33.464844 35.851562 31.9375 C 35.851562 31.9375 44.800781 0.835938 72.664062 2.503906 C 76.789062 2.75 84.648438 3.910156 87.746094 7.886719 "/>
<path style="fill:none;stroke-width:4;stroke-linecap:round;stroke-linejoin:round;stroke:rgb(47.45098%,47.45098%,47.45098%);stroke-opacity:1;stroke-miterlimit:4;" d="M 246.333071 22.193781 C 255.029243 33.384108 263.802179 86.180905 192.752365 90.039259 C 192.752365 90.039259 179.943879 91.457286 161.071101 86.807475 C 161.071101 86.807475 139.741901 93.117148 121.899943 88.764133 C 121.899943 88.764133 109.255949 94.172425 100.647506 89.874372 C 100.647506 89.874372 125.771001 2.352387 203.992689 7.046168 C 215.572964 7.738693 237.636898 11.003455 246.333071 22.193781 Z M 246.333071 22.193781 " transform="matrix(0.356209,0,0,0.355357,0,0)"/>
<path style="fill-rule:nonzero;fill:rgb(80.784314%,64.705882%,47.45098%);fill-opacity:1;stroke-width:4;stroke-linecap:round;stroke-linejoin:round;stroke:rgb(47.45098%,47.45098%,47.45098%);stroke-opacity:1;stroke-miterlimit:4;" d="M 161.071101 86.807475 C 161.071101 86.807475 223.205419 73.132852 229.203913 34.901068 " transform="matrix(0.356209,0,0,0.355357,0,0)"/>
<path style="fill-rule:nonzero;fill:rgb(80.784314%,64.705882%,47.45098%);fill-opacity:1;stroke-width:4;stroke-linecap:round;stroke-linejoin:round;stroke:rgb(47.45098%,47.45098%,47.45098%);stroke-opacity:1;stroke-miterlimit:4;" d="M 121.899943 88.764133 C 175.381952 81.146357 194.583716 48.234925 194.583716 48.234925 " transform="matrix(0.356209,0,0,0.355357,0,0)"/>
<path style="fill-rule:nonzero;fill:rgb(80.784314%,64.705882%,47.45098%);fill-opacity:1;stroke-width:4;stroke-linecap:round;stroke-linejoin:round;stroke:rgb(47.45098%,47.45098%,47.45098%);stroke-opacity:1;stroke-miterlimit:4;" d="M 192.752365 90.039259 C 192.752365 90.039259 216.724412 87.060302 229.850917 67.306847 " transform="matrix(0.356209,0,0,0.355357,0,0)"/>
<path style="fill:none;stroke-width:4;stroke-linecap:round;stroke-linejoin:round;stroke:rgb(47.45098%,47.45098%,47.45098%);stroke-opacity:1;stroke-miterlimit:4;" d="M 187.510536 173.735867 C 187.510536 173.735867 186.18363 179.737751 191.436425 179.407977 " transform="matrix(0.356209,0,0,0.355357,0,0)"/>
<path style="fill:none;stroke-width:4;stroke-linecap:round;stroke-linejoin:round;stroke:rgb(47.45098%,47.45098%,47.45098%);stroke-opacity:1;stroke-miterlimit:4;" d="M 212.984948 192.598932 C 212.984948 192.598932 204.968678 202.448178 189.396717 202.448178 C 173.824756 202.448178 165.808486 192.598932 165.808486 192.598932 " transform="matrix(0.356209,0,0,0.355357,0,0)"/>
<path style="fill:none;stroke-width:4;stroke-linecap:round;stroke-linejoin:round;stroke:rgb(47.45098%,47.45098%,47.45098%);stroke-opacity:1;stroke-miterlimit:4;" d="M 216.680548 98.965138 C 216.680548 98.965138 219.762041 93.97456 226.977781 93.97456 C 232.164779 93.97456 237.483372 100.471106 237.483372 100.471106 " transform="matrix(0.356209,0,0,0.355357,0,0)"/>
<path style=" stroke:none;fill-rule:nonzero;fill:rgb(47.45098%,47.45098%,47.45098%);fill-opacity:1;" d="M 82.394531 49.921875 C 82.394531 52.632812 81.492188 54.828125 80.375 54.828125 C 79.261719 54.828125 78.355469 52.632812 78.355469 49.921875 C 78.355469 47.210938 79.261719 45.015625 80.375 45.015625 C 81.492188 45.015625 82.394531 47.210938 82.394531 49.921875 "/>
<path style="fill:none;stroke-width:4;stroke-linecap:round;stroke-linejoin:round;stroke:rgb(47.45098%,47.45098%,47.45098%);stroke-opacity:1;stroke-miterlimit:4;" d="M 162.112887 98.965138 C 162.112887 98.965138 159.031393 93.97456 151.815654 93.97456 C 146.628655 93.97456 141.310063 100.471106 141.310063 100.471106 " transform="matrix(0.356209,0,0,0.355357,0,0)"/>
<path style=" stroke:none;fill-rule:nonzero;fill:rgb(47.45098%,47.45098%,47.45098%);fill-opacity:1;" d="M 52.535156 49.921875 C 52.535156 52.632812 53.4375 54.828125 54.554688 54.828125 C 55.667969 54.828125 56.574219 52.632812 56.574219 49.921875 C 56.574219 47.210938 55.667969 45.015625 54.554688 45.015625 C 53.4375 45.015625 52.535156 47.210938 52.535156 49.921875 "/>
<path style=" stroke:none;fill-rule:nonzero;fill:rgb(100%,93.72549%,85.098039%);fill-opacity:1;" d="M 90.597656 122.316406 C 90.597656 122.316406 91.511719 116.042969 83.03125 115.457031 C 74.550781 114.871094 71.34375 120.730469 72.945312 123.675781 C 74.113281 125.816406 82.011719 126.742188 86.097656 123.8125 C 86.097656 123.8125 89.613281 125.339844 90.597656 122.316406 "/>
<path style="fill:none;stroke-width:4;stroke-linecap:round;stroke-linejoin:round;stroke:rgb(47.45098%,47.45098%,47.45098%);stroke-opacity:1;stroke-miterlimit:4;" d="M 254.338374 344.206972 C 254.338374 344.206972 256.904458 326.553078 233.096904 324.904209 C 209.289349 323.255339 200.286124 339.744033 204.782253 348.032349 C 208.061138 354.056219 230.234733 356.661432 241.705347 348.417085 C 241.705347 348.417085 251.5749 352.715138 254.338374 344.206972 Z M 254.338374 344.206972 " transform="matrix(0.356209,0,0,0.355357,0,0)"/>
<path style="fill-rule:nonzero;fill:rgb(55.294118%,58.823529%,64.705882%);fill-opacity:1;stroke-width:4;stroke-linecap:round;stroke-linejoin:round;stroke:rgb(47.45098%,47.45098%,47.45098%);stroke-opacity:1;stroke-miterlimit:4;" d="M 227.15324 340.414573 C 227.15324 340.414573 224.916141 343.778266 226.078555 347.493719 C 227.997635 353.605528 226.078555 347.493719 226.078555 347.493719 " transform="matrix(0.356209,0,0,0.355357,0,0)"/>
<path style="fill-rule:nonzero;fill:rgb(55.294118%,58.823529%,64.705882%);fill-opacity:1;stroke-width:4;stroke-linecap:round;stroke-linejoin:round;stroke:rgb(47.45098%,47.45098%,47.45098%);stroke-opacity:1;stroke-miterlimit:4;" d="M 217.799097 337.380653 C 217.799097 337.380653 213.631952 340.106784 214.26799 346.933103 C 215.243979 357.573807 214.26799 346.933103 214.26799 346.933103 " transform="matrix(0.356209,0,0,0.355357,0,0)"/>
<path style="fill-rule:nonzero;fill:rgb(100%,94.117647%,74.117647%);fill-opacity:1;stroke-width:4;stroke-linecap:round;stroke-linejoin:round;stroke:rgb(47.45098%,47.45098%,47.45098%);stroke-opacity:1;stroke-miterlimit:4;" d="M 13.696746 380.119347 L 280.701046 380.119347 C 282.356938 380.119347 283.694811 378.778266 283.694811 377.118405 L 283.694811 366.279837 C 283.694811 364.630967 282.356938 363.289887 280.701046 363.289887 L 13.696746 363.289887 Z M 13.696746 380.119347 " transform="matrix(0.356209,0,0,0.355357,0,0)"/>
<path style="fill-rule:nonzero;fill:rgb(89.411765%,90.588235%,90.980392%);fill-opacity:1;stroke-width:4;stroke-linecap:round;stroke-linejoin:round;stroke:rgb(47.45098%,47.45098%,47.45098%);stroke-opacity:1;stroke-miterlimit:4;" d="M 44.369123 360.299937 C 44.369123 361.443153 45.290281 362.36652 46.430763 362.36652 L 246.026018 362.36652 C 247.166499 362.36652 248.087658 361.443153 248.087658 360.299937 L 248.087658 352.880025 C 248.087658 351.736809 247.166499 350.813442 246.026018 350.813442 L 46.430763 350.813442 C 45.290281 350.813442 44.369123 351.736809 44.369123 352.880025 Z M 44.369123 360.299937 " transform="matrix(0.356209,0,0,0.355357,0,0)"/>
<path style="fill-rule:nonzero;fill:rgb(89.411765%,90.588235%,90.980392%);fill-opacity:1;stroke-width:4;stroke-linecap:round;stroke-linejoin:round;stroke:rgb(47.45098%,47.45098%,47.45098%);stroke-opacity:1;stroke-miterlimit:4;" d="M 38.776376 348.845791 C 39.456279 350.912374 41.682411 352.594221 43.744051 352.594221 L 185.942374 352.594221 C 188.004014 352.594221 189.133529 350.912374 188.453627 348.845791 L 155.06164 247.066583 C 154.381737 245 152.155605 243.329146 150.082999 243.329146 L 7.884676 243.329146 C 5.823036 243.329146 4.693521 245 5.373423 247.066583 Z M 38.776376 348.845791 " transform="matrix(0.356209,0,0,0.355357,0,0)"/>
<path style="fill:none;stroke-width:4;stroke-linecap:round;stroke-linejoin:round;stroke:rgb(47.45098%,47.45098%,47.45098%);stroke-opacity:1;stroke-miterlimit:4;" d="M 177.597119 342.997802 L 148.821889 255.288945 C 148.141987 253.222362 145.915854 251.551508 143.854214 251.551508 L 16.03254 251.551508 " transform="matrix(0.356209,0,0,0.355357,0,0)"/>
</g>
</svg>
