<?xml version="1.0" encoding="UTF-8"?>
<svg xmlns="http://www.w3.org/2000/svg" xmlns:xlink="http://www.w3.org/1999/xlink" width="107pt" height="199pt" viewBox="0 0 107 199" version="1.1">
<g id="surface1">
<path style=" stroke:none;fill-rule:nonzero;fill:rgb(47.45098%,47.45098%,47.45098%);fill-opacity:1;" d="M 79.375 111.476562 C 78.507812 111.425781 77.699219 111.445312 76.945312 111.523438 L 76.113281 103.46875 C 77.144531 106.089844 78.308594 108.984375 79.375 111.476562 M 47.039062 191.980469 L 47.039062 190.492188 L 46.800781 163.347656 L 50 190.492188 L 51.308594 190.492188 C 49.871094 190.652344 48.257812 191.054688 47.039062 191.980469 M 101.808594 53.136719 C 102.648438 34.074219 93.160156 11.230469 77.78125 6.515625 C 77.671875 6.480469 77.558594 6.449219 77.449219 6.414062 C 75.359375 3.796875 68.984375 -1.40625 53.597656 4.175781 C 37.285156 10.09375 26.84375 33.777344 27.242188 53.199219 C 25.804688 55.390625 20.324219 64.714844 27.269531 70.050781 C 29.308594 71.617188 31.296875 72.382812 33 72.722656 C 34.472656 74.65625 36.234375 76.296875 38.320312 77.554688 C 44.179688 81.09375 46.273438 78.972656 46.273438 78.972656 C 46.273438 78.972656 47.527344 80.859375 53.179688 81.097656 C 55.726562 81.203125 58.054688 80.734375 59.851562 80.1875 C 60.550781 80.265625 61.269531 80.324219 62.003906 80.363281 L 61.816406 82.347656 L 60.179688 82.582031 L 55.320312 83.21875 L 53.105469 83.484375 C 52.953125 83.570312 52.734375 83.847656 52.464844 84.277344 C 52.113281 83.847656 51.578125 83.542969 51.0625 83.542969 L 2.296875 83.542969 C 1.589844 83.542969 1.203125 84.117188 1.4375 84.824219 L 12.890625 119.6875 C 13.121094 120.394531 13.886719 120.96875 14.59375 120.96875 L 14.820312 120.96875 C 14.8125 121 14.808594 121.035156 14.808594 121.066406 L 14.808594 123.609375 C 14.808594 124 15.125 124.316406 15.515625 124.316406 L 50.277344 124.316406 L 50.21875 124.632812 L 4.289062 124.632812 L 4.289062 130.398438 L 49.117188 130.398438 L 48.511719 133.574219 C 46.117188 135.414062 40.570312 139.699219 39.640625 140.6875 C 37.410156 142.574219 37.269531 144.820312 37.296875 145.609375 C 37.128906 146.949219 37.289062 148.132812 37.289062 148.132812 L 42.285156 190.492188 L 43.59375 190.492188 C 41.753906 190.695312 39.625 191.296875 38.40625 192.882812 C 37.8125 193.652344 37.515625 194.261719 37.378906 194.742188 C 36.351562 196.601562 37.132812 197.375 37.132812 197.375 L 44.796875 197.308594 C 44.828125 197.351562 44.851562 197.375 44.851562 197.375 L 54.753906 197.289062 L 54.753906 190.492188 L 54.402344 150.566406 C 54.402344 150.566406 75.46875 150.699219 79.269531 149.445312 C 83.875 147.933594 83.929688 140.0625 80.839844 134.929688 L 79.972656 130.398438 L 95.859375 130.398438 C 96.425781 130.398438 96.886719 129.9375 96.886719 129.371094 L 96.886719 125.660156 C 96.886719 125.089844 96.425781 124.632812 95.859375 124.632812 L 78.871094 124.632812 L 78.8125 124.316406 L 83.96875 124.316406 C 84.359375 124.316406 84.675781 124 84.675781 123.609375 L 84.675781 121.066406 C 84.675781 120.675781 84.359375 120.359375 83.96875 120.359375 L 81.015625 120.359375 C 81.542969 120.132812 82.039062 119.859375 82.484375 119.539062 C 82.484375 119.539062 85.871094 121.011719 86.820312 118.097656 C 86.820312 118.097656 86.875 117.707031 86.824219 117.113281 C 87.078125 116.722656 87.320312 116.253906 87.546875 115.6875 C 88.984375 112.152344 77.792969 84.488281 75.984375 83.484375 L 73.761719 83.21875 L 68.910156 82.582031 L 67.273438 82.347656 L 67.085938 80.363281 C 67.679688 80.332031 68.265625 80.289062 68.839844 80.230469 C 70.613281 80.757812 72.890625 81.199219 75.371094 81.097656 C 81.019531 80.859375 82.277344 78.972656 82.277344 78.972656 C 82.277344 78.972656 84.371094 81.09375 90.230469 77.554688 C 92.285156 76.316406 94.039062 74.710938 95.527344 72.824219 C 97.347656 72.542969 99.554688 71.792969 101.820312 70.050781 C 108.832031 64.664062 103.179688 55.210938 101.808594 53.136719 "/>
<path style="fill:none;stroke-width:8;stroke-linecap:round;stroke-linejoin:round;stroke:rgb(47.45098%,47.45098%,47.45098%);stroke-opacity:1;stroke-miterlimit:4;" d="M 231.448598 325.466748 C 228.919977 325.318487 226.562208 325.37551 224.363902 325.603604 L 221.937792 302.087155 C 224.944801 309.739695 228.339077 318.190562 231.448598 325.466748 Z M 137.160631 560.505791 L 137.160631 556.160608 L 136.465829 476.909489 L 145.794393 556.160608 L 149.610105 556.160608 C 145.418516 556.6282 140.714369 557.802882 137.160631 560.505791 Z M 296.862442 155.137857 C 299.311332 99.483021 271.644568 32.788454 226.801402 19.023006 C 226.482477 18.920364 226.152161 18.829126 225.833236 18.726484 C 219.739486 11.085349 201.150701 -4.105685 156.284755 12.191603 C 108.719334 29.469692 78.273364 98.616265 79.435164 155.320332 C 75.243575 161.718357 59.263143 188.941328 79.514895 204.52012 C 85.460572 209.093397 91.258178 211.328714 96.224299 212.320921 C 100.5184 217.966237 105.655374 222.756203 111.737734 226.42851 C 128.823014 236.761149 134.928154 230.568408 134.928154 230.568408 C 134.928154 230.568408 138.584404 236.076869 155.066005 236.772554 C 162.492407 237.080481 169.280958 235.711919 174.520444 234.115264 C 176.559287 234.343357 178.655082 234.514428 180.796437 234.628474 L 180.249708 240.422052 L 175.47722 241.106332 L 161.307827 242.965295 L 154.849591 243.740813 C 154.405374 243.991716 153.767523 244.801449 152.9816 246.055963 C 151.956484 244.801449 150.396028 243.911884 148.892523 243.911884 L 6.69743 243.911884 C 4.635806 243.911884 3.508178 245.588372 4.191589 247.652619 L 37.587617 349.439384 C 38.259638 351.503631 40.492114 353.180119 42.553738 353.180119 L 43.214369 353.180119 C 43.191589 353.271357 43.180199 353.373999 43.180199 353.465236 L 43.180199 360.889683 C 43.180199 362.030151 44.102804 362.95393 45.241822 362.95393 L 146.603096 362.95393 L 146.432243 363.877709 L 12.506425 363.877709 L 12.506425 380.711016 L 143.22021 380.711016 L 141.454731 389.983021 C 134.472547 395.354625 118.298481 407.865558 115.587617 410.750942 C 109.08382 416.259402 108.673773 422.817093 108.753505 425.120839 C 108.263727 429.032644 108.730724 432.488262 108.730724 432.488262 L 123.298773 556.160608 L 127.114486 556.160608 C 121.749708 556.753651 115.542056 558.509972 111.988318 563.140272 C 110.257009 565.386994 109.391355 567.166124 108.992699 568.568899 C 105.997079 573.997527 108.275117 576.255653 108.275117 576.255653 L 130.622664 576.061774 C 130.713785 576.187225 130.782126 576.255653 130.782126 576.255653 L 159.65625 576.00475 L 159.65625 556.160608 L 158.631133 439.593377 C 158.631133 439.593377 220.058411 439.981136 231.141063 436.320234 C 244.570093 431.906623 244.729556 408.926193 235.719918 393.940444 L 233.191297 380.711016 L 279.515187 380.711016 C 281.166764 380.711016 282.510806 379.365264 282.510806 377.711585 L 282.510806 366.87714 C 282.510806 365.212056 281.166764 363.877709 279.515187 363.877709 L 229.979264 363.877709 L 229.808411 362.95393 L 244.843458 362.95393 C 245.982477 362.95393 246.905082 362.030151 246.905082 360.889683 L 246.905082 353.465236 C 246.905082 352.324768 245.982477 351.400989 244.843458 351.400989 L 236.232477 351.400989 C 237.770152 350.739518 239.216706 349.94119 240.515187 349.006007 C 240.515187 349.006007 250.390479 353.305571 253.158294 344.79768 C 253.158294 344.79768 253.317757 343.657212 253.169685 341.923701 C 253.910047 340.783233 254.616238 339.414671 255.276869 337.760992 C 259.468458 327.439757 226.835572 246.671816 221.561916 243.740813 L 215.0809 242.965295 L 200.934287 241.106332 L 196.161799 240.422052 L 195.61507 234.628474 C 197.346379 234.537237 199.054907 234.411785 200.729264 234.240715 C 205.900409 235.780347 212.540888 237.069076 219.773657 236.772554 C 236.243867 236.076869 239.911507 230.568408 239.911507 230.568408 C 239.911507 230.568408 246.016647 236.761149 263.101928 226.42851 C 269.093166 222.813226 274.20736 218.125903 278.547021 212.617443 C 283.854848 211.796306 290.290304 209.606607 296.896612 204.52012 C 317.341998 188.793067 300.860397 161.193742 296.862442 155.137857 Z M 296.862442 155.137857 " transform="matrix(0.342949,0,0,0.342513,0,0)"/>
<path style="fill-rule:nonzero;fill:rgb(92.941176%,92.941176%,100%);fill-opacity:1;stroke-width:4;stroke-linecap:round;stroke-linejoin:round;stroke:rgb(47.45098%,47.45098%,47.45098%);stroke-opacity:1;stroke-miterlimit:4;" d="M 211.891647 248.131615 C 200.831776 246.854291 188.211449 245.303255 188.211449 245.303255 C 188.211449 245.303255 175.579731 246.854291 164.53125 248.131615 L 159.542348 397.407467 L 216.869159 397.407467 Z M 211.891647 248.131615 " transform="matrix(0.342949,0,0,0.342513,0,0)"/>
<path style=" stroke:none;fill-rule:nonzero;fill:rgb(69.411765%,56.078431%,49.803922%);fill-opacity:1;" d="M 77.78125 6.515625 C 77.671875 6.480469 77.558594 6.449219 77.449219 6.414062 C 75.359375 3.796875 68.984375 -1.40625 53.597656 4.175781 C 28.410156 13.3125 17.210938 64.808594 38.320312 77.554688 C 44.179688 81.09375 46.273438 78.972656 46.273438 78.972656 C 46.273438 78.972656 47.527344 80.859375 53.179688 81.097656 C 58.832031 81.332031 63.4375 78.738281 63.4375 78.738281 L 64.273438 74.734375 L 65.113281 78.738281 C 65.113281 78.738281 69.71875 81.332031 75.367188 81.097656 C 81.019531 80.859375 82.277344 78.972656 82.277344 78.972656 C 82.277344 78.972656 84.371094 81.09375 90.230469 77.554688 C 111.335938 64.808594 101.644531 13.828125 77.78125 6.515625 "/>
<path style="fill:none;stroke-width:3.891;stroke-linecap:round;stroke-linejoin:round;stroke:rgb(47.45098%,47.45098%,47.45098%);stroke-opacity:1;stroke-miterlimit:4;" d="M 226.801402 19.023006 C 226.482477 18.920364 226.152161 18.829126 225.833236 18.726484 C 219.739486 11.085349 201.150701 -4.105685 156.284755 12.191603 C 82.840829 38.867148 50.185164 189.21504 111.737734 226.42851 C 128.823014 236.761149 134.928154 230.568408 134.928154 230.568408 C 134.928154 230.568408 138.584404 236.076869 155.066005 236.772554 C 171.547605 237.456835 184.976636 229.884128 184.976636 229.884128 L 187.414136 218.194331 L 189.863026 229.884128 C 189.863026 229.884128 203.292056 237.456835 219.762266 236.772554 C 236.243867 236.076869 239.911507 230.568408 239.911507 230.568408 C 239.911507 230.568408 246.016647 236.761149 263.101928 226.42851 C 324.643107 189.21504 296.384054 40.372566 226.801402 19.023006 Z M 226.801402 19.023006 " transform="matrix(0.342949,0,0,0.342513,0,0)"/>
<path style="fill-rule:nonzero;fill:rgb(69.411765%,56.078431%,49.803922%);fill-opacity:1;stroke-width:3.47;stroke-linecap:round;stroke-linejoin:round;stroke:rgb(47.45098%,47.45098%,47.45098%);stroke-opacity:1;stroke-miterlimit:4;" d="M 80.380549 153.940366 C 80.380549 153.940366 56.461157 186.774439 79.514895 204.52012 C 95.723131 216.99684 110.89486 212.081423 110.89486 212.081423 " transform="matrix(0.342949,0,0,0.342513,0,0)"/>
<path style="fill-rule:nonzero;fill:rgb(69.411765%,56.078431%,49.803922%);fill-opacity:1;stroke-width:3.47;stroke-linecap:round;stroke-linejoin:round;stroke:rgb(47.45098%,47.45098%,47.45098%);stroke-opacity:1;stroke-miterlimit:4;" d="M 296.042348 153.940366 C 296.042348 153.940366 319.95035 186.774439 296.896612 204.52012 C 280.688376 216.99684 265.516647 212.081423 265.516647 212.081423 " transform="matrix(0.342949,0,0,0.342513,0,0)"/>
<path style="fill-rule:nonzero;fill:rgb(79.215686%,74.509804%,81.176471%);fill-opacity:1;stroke-width:4;stroke-linecap:round;stroke-linejoin:round;stroke:rgb(47.45098%,47.45098%,47.45098%);stroke-opacity:1;stroke-miterlimit:4;" d="M 213.338201 279.65415 C 213.338201 279.65415 235.469334 338.935674 240.469626 343.440523 C 245.469918 347.933967 251.096671 348.093632 255.276869 337.760992 C 259.468458 327.439757 226.835572 246.671816 221.561916 243.740813 L 207.506425 242.041516 " transform="matrix(0.342949,0,0,0.342513,0,0)"/>
<path style="fill-rule:nonzero;fill:rgb(79.215686%,74.509804%,81.176471%);fill-opacity:1;stroke-width:4;stroke-linecap:round;stroke-linejoin:round;stroke:rgb(47.45098%,47.45098%,47.45098%);stroke-opacity:1;stroke-miterlimit:4;" d="M 163.084696 279.65415 C 163.084696 279.65415 140.953563 338.935674 135.953271 343.440523 C 130.952979 347.933967 125.326227 348.093632 121.134638 337.760992 C 116.954439 327.439757 149.587325 246.671816 154.849591 243.740813 L 168.916472 242.041516 " transform="matrix(0.342949,0,0,0.342513,0,0)"/>
<path style="fill-rule:nonzero;fill:rgb(100%,93.72549%,85.098039%);fill-opacity:1;stroke-width:4;stroke-linecap:round;stroke-linejoin:round;stroke:rgb(47.45098%,47.45098%,47.45098%);stroke-opacity:1;stroke-miterlimit:4;" d="M 196.161799 240.422052 L 194.692465 224.900283 L 188.211449 220.680551 L 181.719042 224.900283 L 180.249708 240.422052 L 162.834112 242.908272 C 162.834112 242.908272 167.082652 254.438403 188.211449 254.438403 C 209.340245 254.438403 213.577395 242.908272 213.577395 242.908272 Z M 196.161799 240.422052 " transform="matrix(0.342949,0,0,0.342513,0,0)"/>
<path style="fill-rule:nonzero;fill:rgb(100%,93.72549%,85.098039%);fill-opacity:1;stroke-width:4;stroke-linecap:round;stroke-linejoin:round;stroke:rgb(47.45098%,47.45098%,47.45098%);stroke-opacity:1;stroke-miterlimit:4;" d="M 117.102512 137.278129 C 117.102512 137.278129 88.95736 131.473147 88.95736 156.916987 C 88.95736 171.879927 98.650409 178.677116 118.560456 178.962233 " transform="matrix(0.342949,0,0,0.342513,0,0)"/>
<path style="fill-rule:nonzero;fill:rgb(100%,93.72549%,85.098039%);fill-opacity:1;stroke-width:4;stroke-linecap:round;stroke-linejoin:round;stroke:rgb(47.45098%,47.45098%,47.45098%);stroke-opacity:1;stroke-miterlimit:4;" d="M 99.675526 158.296954 C 99.675526 158.296954 103.365946 156.586252 106.885514 156.609061 " transform="matrix(0.342949,0,0,0.342513,0,0)"/>
<path style="fill-rule:nonzero;fill:rgb(100%,93.72549%,85.098039%);fill-opacity:1;stroke-width:4;stroke-linecap:round;stroke-linejoin:round;stroke:rgb(47.45098%,47.45098%,47.45098%);stroke-opacity:1;stroke-miterlimit:4;" d="M 259.320386 137.278129 C 259.320386 137.278129 287.465537 131.473147 287.465537 156.916987 C 287.465537 171.879927 277.772488 178.677116 257.851051 178.962233 " transform="matrix(0.342949,0,0,0.342513,0,0)"/>
<path style="fill-rule:nonzero;fill:rgb(100%,93.72549%,85.098039%);fill-opacity:1;stroke-width:4;stroke-linecap:round;stroke-linejoin:round;stroke:rgb(47.45098%,47.45098%,47.45098%);stroke-opacity:1;stroke-miterlimit:4;" d="M 276.735981 158.296954 C 276.735981 158.296954 273.045561 156.586252 269.537383 156.609061 " transform="matrix(0.342949,0,0,0.342513,0,0)"/>
<path style=" stroke:none;fill-rule:nonzero;fill:rgb(100%,93.72549%,85.098039%);fill-opacity:1;" d="M 64.546875 80.4375 C 18.132812 80.4375 33.222656 12.980469 64.546875 12.980469 C 95.867188 12.980469 110.957031 80.4375 64.546875 80.4375 "/>
<path style="fill:none;stroke-width:4;stroke-linecap:round;stroke-linejoin:round;stroke:rgb(47.45098%,47.45098%,47.45098%);stroke-opacity:1;stroke-miterlimit:4;" d="M 188.211449 234.845163 C 52.873248 234.845163 96.87354 37.89775 188.211449 37.89775 C 279.537967 37.89775 323.538259 234.845163 188.211449 234.845163 Z M 188.211449 234.845163 " transform="matrix(0.342949,0,0,0.342513,0,0)"/>
<path style="fill:none;stroke-width:4;stroke-linecap:round;stroke-linejoin:round;stroke:rgb(47.45098%,47.45098%,47.45098%);stroke-opacity:1;stroke-miterlimit:4;" d="M 216.880549 183.432867 C 216.880549 183.432867 227.029206 187.698218 226.846963 196.445607 " transform="matrix(0.342949,0,0,0.342513,0,0)"/>
<path style="fill:none;stroke-width:4;stroke-linecap:round;stroke-linejoin:round;stroke:rgb(47.45098%,47.45098%,47.45098%);stroke-opacity:1;stroke-miterlimit:4;" d="M 184.293224 174.320528 C 184.293224 174.320528 182.960572 180.31939 188.211449 179.988654 " transform="matrix(0.342949,0,0,0.342513,0,0)"/>
<path style="fill:none;stroke-width:4;stroke-linecap:round;stroke-linejoin:round;stroke:rgb(47.45098%,47.45098%,47.45098%);stroke-opacity:1;stroke-miterlimit:4;" d="M 215.490946 105.230979 C 215.490946 105.230979 218.577687 100.224325 225.787675 100.224325 C 230.9816 100.224325 236.289428 106.724992 236.289428 106.724992 " transform="matrix(0.342949,0,0,0.342513,0,0)"/>
<path style=" stroke:none;fill-rule:nonzero;fill:rgb(47.45098%,47.45098%,47.45098%);fill-opacity:1;" d="M 78.921875 47.804688 C 78.921875 50.132812 78.050781 52.023438 76.976562 52.023438 C 75.902344 52.023438 75.03125 50.132812 75.03125 47.804688 C 75.03125 45.476562 75.902344 43.589844 76.976562 43.589844 C 78.050781 43.589844 78.921875 45.476562 78.921875 47.804688 "/>
<path style="fill:none;stroke-width:4;stroke-linecap:round;stroke-linejoin:round;stroke:rgb(47.45098%,47.45098%,47.45098%);stroke-opacity:1;stroke-miterlimit:4;" d="M 160.920561 105.230979 C 160.920561 105.230979 157.83382 100.224325 150.623832 100.224325 C 145.441297 100.224325 140.122079 106.724992 140.122079 106.724992 " transform="matrix(0.342949,0,0,0.342513,0,0)"/>
<path style=" stroke:none;fill-rule:nonzero;fill:rgb(47.45098%,47.45098%,47.45098%);fill-opacity:1;" d="M 50.171875 47.804688 C 50.171875 50.132812 51.042969 52.023438 52.117188 52.023438 C 53.1875 52.023438 54.058594 50.132812 54.058594 47.804688 C 54.058594 45.476562 53.1875 43.589844 52.117188 43.589844 C 51.042969 43.589844 50.171875 45.476562 50.171875 47.804688 "/>
<path style="fill-rule:nonzero;fill:rgb(69.411765%,56.078431%,49.803922%);fill-opacity:1;stroke-width:3.797;stroke-linecap:round;stroke-linejoin:round;stroke:rgb(47.45098%,47.45098%,47.45098%);stroke-opacity:1;stroke-miterlimit:4;" d="M 232.211741 48.846243 C 232.211741 48.846243 236.209696 88.488909 254.866822 96.894158 C 273.535339 105.310812 274.20736 99.300546 274.20736 99.300546 " transform="matrix(0.342949,0,0,0.342513,0,0)"/>
<path style=" stroke:none;fill-rule:nonzero;fill:rgb(69.411765%,56.078431%,49.803922%);fill-opacity:1;" d="M 79.636719 16.730469 C 79.636719 16.730469 78.492188 23.519531 67.058594 27.222656 C 55.628906 30.925781 51.054688 29.074219 51.054688 29.074219 C 51.054688 29.074219 48.035156 34.179688 37.503906 35.984375 C 34.730469 36.457031 33.753906 36.152344 33.640625 35.5625 C 33.640625 35.5625 39.339844 14.878906 59.914062 11.949219 C 80.492188 9.015625 79.636719 16.730469 79.636719 16.730469 "/>
<path style="fill-rule:nonzero;fill:rgb(69.411765%,56.078431%,49.803922%);fill-opacity:1;stroke-width:3.797;stroke-linecap:round;stroke-linejoin:round;stroke:rgb(47.45098%,47.45098%,47.45098%);stroke-opacity:1;stroke-miterlimit:4;" d="M 232.211741 48.846243 C 232.211741 48.846243 228.874416 68.667576 195.535339 79.479212 C 162.207652 90.290849 148.869743 84.885031 148.869743 84.885031 C 148.869743 84.885031 140.065129 99.790947 109.357185 105.059909 C 101.270152 106.439875 98.422605 105.55031 98.09229 103.828204 " transform="matrix(0.342949,0,0,0.342513,0,0)"/>
<path style="fill-rule:nonzero;fill:rgb(69.411765%,56.078431%,49.803922%);fill-opacity:1;stroke-width:4;stroke-linecap:round;stroke-linejoin:round;stroke:rgb(47.45098%,47.45098%,47.45098%);stroke-opacity:1;stroke-miterlimit:4;" d="M 195.535339 79.479212 C 195.535339 79.479212 214.203855 68.097342 221.20882 47.603133 " transform="matrix(0.342949,0,0,0.342513,0,0)"/>
<path style="fill-rule:nonzero;fill:rgb(69.411765%,56.078431%,49.803922%);fill-opacity:1;stroke-width:4;stroke-linecap:round;stroke-linejoin:round;stroke:rgb(47.45098%,47.45098%,47.45098%);stroke-opacity:1;stroke-miterlimit:4;" d="M 171.729848 85.27279 C 171.729848 85.27279 193.473715 79.262524 204.203271 51.10437 " transform="matrix(0.342949,0,0,0.342513,0,0)"/>
<path style="fill-rule:nonzero;fill:rgb(69.411765%,56.078431%,49.803922%);fill-opacity:1;stroke-width:4;stroke-linecap:round;stroke-linejoin:round;stroke:rgb(47.45098%,47.45098%,47.45098%);stroke-opacity:1;stroke-miterlimit:4;" d="M 157.252921 86.185164 C 157.252921 86.185164 174.201519 77.59744 186.206776 56.601425 " transform="matrix(0.342949,0,0,0.342513,0,0)"/>
<path style="fill-rule:nonzero;fill:rgb(79.215686%,74.509804%,81.176471%);fill-opacity:1;stroke-width:4;stroke-linecap:round;stroke-linejoin:round;stroke:rgb(47.45098%,47.45098%,47.45098%);stroke-opacity:1;stroke-miterlimit:4;" d="M 219.545853 278.764585 L 226.334404 344.740656 L 238.009346 405.915358 L 202.209988 405.915358 L 200.934287 241.106332 L 215.10368 242.965295 " transform="matrix(0.342949,0,0,0.342513,0,0)"/>
<path style="fill-rule:nonzero;fill:rgb(79.215686%,74.509804%,81.176471%);fill-opacity:1;stroke-width:4;stroke-linecap:round;stroke-linejoin:round;stroke:rgb(47.45098%,47.45098%,47.45098%);stroke-opacity:1;stroke-miterlimit:4;" d="M 156.865654 278.764585 L 150.077103 344.740656 L 138.413551 405.915358 L 174.201519 405.915358 L 175.47722 241.106332 L 161.307827 242.965295 " transform="matrix(0.342949,0,0,0.342513,0,0)"/>
<path style=" stroke:none;fill-rule:nonzero;fill:rgb(67.45098%,62.745098%,55.686275%);fill-opacity:1;" d="M 37.65625 196.242188 L 47.039062 196.242188 L 47.039062 190.492188 C 47.039062 190.492188 40.863281 189.679688 38.40625 192.882812 C 36.449219 195.425781 37.65625 196.242188 37.65625 196.242188 "/>
<path style="fill:none;stroke-width:4;stroke-linecap:round;stroke-linejoin:round;stroke:rgb(47.45098%,47.45098%,47.45098%);stroke-opacity:1;stroke-miterlimit:4;" d="M 109.801402 572.948296 L 137.160631 572.948296 L 137.160631 556.160608 C 137.160631 556.160608 119.152745 553.788434 111.988318 563.140272 C 106.281834 570.564718 109.801402 572.948296 109.801402 572.948296 Z M 109.801402 572.948296 " transform="matrix(0.342949,0,0,0.342513,0,0)"/>
<path style=" stroke:none;fill-rule:nonzero;fill:rgb(67.45098%,62.745098%,55.686275%);fill-opacity:1;" d="M 37.378906 194.742188 C 37.378906 194.742188 39.792969 193.351562 42.621094 193.863281 C 45.449219 194.378906 47.039062 196.242188 47.039062 196.242188 L 47.039062 197.289062 L 37.132812 197.375 C 37.132812 197.375 36.351562 196.601562 37.378906 194.742188 "/>
<path style="fill:none;stroke-width:4;stroke-linecap:round;stroke-linejoin:round;stroke:rgb(47.45098%,47.45098%,47.45098%);stroke-opacity:1;stroke-miterlimit:4;" d="M 108.992699 568.568899 C 108.992699 568.568899 116.031834 564.508833 124.278329 566.002846 C 132.524825 567.508264 137.160631 572.948296 137.160631 572.948296 L 137.160631 576.00475 L 108.275117 576.255653 C 108.275117 576.255653 105.997079 573.997527 108.992699 568.568899 Z M 108.992699 568.568899 " transform="matrix(0.342949,0,0,0.342513,0,0)"/>
<path style=" stroke:none;fill-rule:nonzero;fill:rgb(67.45098%,62.745098%,55.686275%);fill-opacity:1;" d="M 45.371094 196.242188 L 54.753906 196.242188 L 54.753906 190.492188 C 54.753906 190.492188 48.578125 189.679688 46.121094 192.882812 C 44.164062 195.425781 45.371094 196.242188 45.371094 196.242188 "/>
<path style="fill:none;stroke-width:4;stroke-linecap:round;stroke-linejoin:round;stroke:rgb(47.45098%,47.45098%,47.45098%);stroke-opacity:1;stroke-miterlimit:4;" d="M 132.297021 572.948296 L 159.65625 572.948296 L 159.65625 556.160608 C 159.65625 556.160608 141.648364 553.788434 134.483937 563.140272 C 128.777453 570.564718 132.297021 572.948296 132.297021 572.948296 Z M 132.297021 572.948296 " transform="matrix(0.342949,0,0,0.342513,0,0)"/>
<path style=" stroke:none;fill-rule:nonzero;fill:rgb(67.45098%,62.745098%,55.686275%);fill-opacity:1;" d="M 45.09375 194.742188 C 45.09375 194.742188 47.507812 193.351562 50.335938 193.863281 C 53.167969 194.378906 54.753906 196.242188 54.753906 196.242188 L 54.753906 197.289062 L 44.851562 197.375 C 44.851562 197.375 44.066406 196.601562 45.09375 194.742188 "/>
<path style="fill:none;stroke-width:4;stroke-linecap:round;stroke-linejoin:round;stroke:rgb(47.45098%,47.45098%,47.45098%);stroke-opacity:1;stroke-miterlimit:4;" d="M 131.488318 568.568899 C 131.488318 568.568899 138.527453 564.508833 146.773949 566.002846 C 155.031834 567.508264 159.65625 572.948296 159.65625 572.948296 L 159.65625 576.00475 L 130.782126 576.255653 C 130.782126 576.255653 128.492699 573.997527 131.488318 568.568899 Z M 131.488318 568.568899 " transform="matrix(0.342949,0,0,0.342513,0,0)"/>
<path style="fill:none;stroke-width:4;stroke-linecap:round;stroke-linejoin:round;stroke:rgb(47.45098%,47.45098%,47.45098%);stroke-opacity:1;stroke-miterlimit:4;" d="M 212.233353 192.26009 C 212.233353 192.26009 204.214661 202.102328 188.644276 202.102328 C 173.07389 202.102328 165.066589 192.26009 165.066589 192.26009 " transform="matrix(0.342949,0,0,0.342513,0,0)"/>
<path style=" stroke:none;fill-rule:nonzero;fill:rgb(100%,93.72549%,85.098039%);fill-opacity:1;" d="M 86.820312 118.097656 C 86.820312 118.097656 87.695312 112.050781 79.53125 111.484375 C 71.367188 110.917969 68.277344 116.566406 69.824219 119.40625 C 70.945312 121.472656 78.550781 122.363281 82.484375 119.539062 C 82.484375 119.539062 85.871094 121.011719 86.820312 118.097656 "/>
<path style="fill:none;stroke-width:4;stroke-linecap:round;stroke-linejoin:round;stroke:rgb(47.45098%,47.45098%,47.45098%);stroke-opacity:1;stroke-miterlimit:4;" d="M 253.158294 344.79768 C 253.158294 344.79768 255.709696 327.143236 231.904206 325.489557 C 208.098715 323.835879 199.089077 340.327045 203.599591 348.618247 C 206.868575 354.651323 229.045269 357.25159 240.515187 349.006007 C 240.515187 349.006007 250.390479 353.305571 253.158294 344.79768 Z M 253.158294 344.79768 " transform="matrix(0.342949,0,0,0.342513,0,0)"/>
<path style="fill-rule:nonzero;fill:rgb(55.294118%,58.823529%,64.705882%);fill-opacity:1;stroke-width:4;stroke-linecap:round;stroke-linejoin:round;stroke:rgb(47.45098%,47.45098%,47.45098%);stroke-opacity:1;stroke-miterlimit:4;" d="M 225.969918 340.999921 C 225.969918 340.999921 223.726051 344.364302 224.899241 348.082228 C 226.812792 354.195136 224.899241 348.082228 224.899241 348.082228 " transform="matrix(0.342949,0,0,0.342513,0,0)"/>
<path style="fill-rule:nonzero;fill:rgb(55.294118%,58.823529%,64.705882%);fill-opacity:1;stroke-width:4;stroke-linecap:round;stroke-linejoin:round;stroke:rgb(47.45098%,47.45098%,47.45098%);stroke-opacity:1;stroke-miterlimit:4;" d="M 216.618575 337.966277 C 216.618575 337.966277 212.449766 340.691995 213.076227 347.523398 C 214.055783 358.163964 213.076227 347.523398 213.076227 347.523398 " transform="matrix(0.342949,0,0,0.342513,0,0)"/>
<path style="fill-rule:nonzero;fill:rgb(100%,94.117647%,74.117647%);fill-opacity:1;stroke-width:4;stroke-linecap:round;stroke-linejoin:round;stroke:rgb(47.45098%,47.45098%,47.45098%);stroke-opacity:1;stroke-miterlimit:4;" d="M 12.506425 380.711016 L 279.503797 380.711016 C 281.166764 380.711016 282.510806 379.365264 282.510806 377.711585 L 282.510806 366.87714 C 282.510806 365.212056 281.166764 363.877709 279.503797 363.877709 L 12.506425 363.877709 Z M 12.506425 380.711016 " transform="matrix(0.342949,0,0,0.342513,0,0)"/>
<path style=" stroke:none;fill-rule:nonzero;fill:rgb(100%,93.72549%,85.098039%);fill-opacity:1;" d="M 57.246094 138.203125 C 37.921875 135.84375 37.238281 143.949219 37.296875 145.609375 C 37.128906 146.949219 37.289062 148.132812 37.289062 148.132812 L 42.285156 190.492188 L 47.039062 190.492188 L 46.679688 149.714844 L 60.851562 149.730469 C 60.851562 149.730469 65.921875 139.265625 57.246094 138.203125 "/>
<path style="fill:none;stroke-width:4;stroke-linecap:round;stroke-linejoin:round;stroke:rgb(47.45098%,47.45098%,47.45098%);stroke-opacity:1;stroke-miterlimit:4;" d="M 166.923189 403.497566 C 110.575935 396.609139 108.582652 420.27385 108.753505 425.120839 C 108.263727 429.032644 108.730724 432.488262 108.730724 432.488262 L 123.298773 556.160608 L 137.160631 556.160608 L 136.112734 437.107157 L 177.436332 437.152776 C 177.436332 437.152776 192.220794 406.599639 166.923189 403.497566 Z M 166.923189 403.497566 " transform="matrix(0.342949,0,0,0.342513,0,0)"/>
<path style="fill-rule:nonzero;fill:rgb(89.411765%,90.588235%,90.980392%);fill-opacity:1;stroke-width:4;stroke-linecap:round;stroke-linejoin:round;stroke:rgb(47.45098%,47.45098%,47.45098%);stroke-opacity:1;stroke-miterlimit:4;" d="M 43.180199 360.889683 C 43.180199 362.030151 44.102804 362.95393 45.241822 362.95393 L 244.843458 362.95393 C 245.982477 362.95393 246.905082 362.030151 246.905082 360.889683 L 246.905082 353.465236 C 246.905082 352.324768 245.982477 351.400989 244.843458 351.400989 L 45.241822 351.400989 C 44.102804 351.400989 43.180199 352.324768 43.180199 353.465236 Z M 43.180199 360.889683 " transform="matrix(0.342949,0,0,0.342513,0,0)"/>
<path style="fill-rule:nonzero;fill:rgb(89.411765%,90.588235%,90.980392%);fill-opacity:1;stroke-width:4;stroke-linecap:round;stroke-linejoin:round;stroke:rgb(47.45098%,47.45098%,47.45098%);stroke-opacity:1;stroke-miterlimit:4;" d="M 37.587617 349.439384 C 38.259638 351.503631 40.492114 353.180119 42.553738 353.180119 L 184.748832 353.180119 C 186.821846 353.180119 187.938084 351.503631 187.266063 349.439384 L 153.870035 247.652619 C 153.186624 245.588372 150.965537 243.911884 148.892523 243.911884 L 6.69743 243.911884 C 4.635806 243.911884 3.508178 245.588372 4.191589 247.652619 Z M 37.587617 349.439384 " transform="matrix(0.342949,0,0,0.342513,0,0)"/>
<path style="fill:none;stroke-width:4;stroke-linecap:round;stroke-linejoin:round;stroke:rgb(47.45098%,47.45098%,47.45098%);stroke-opacity:1;stroke-miterlimit:4;" d="M 176.411215 343.588784 L 147.639603 255.875393 C 146.956192 253.811146 144.735105 252.134658 142.662091 252.134658 L 14.841414 252.134658 " transform="matrix(0.342949,0,0,0.342513,0,0)"/>
<path style=" stroke:none;fill-rule:nonzero;fill:rgb(100%,93.72549%,85.098039%);fill-opacity:1;" d="M 64.960938 138.203125 C 45.640625 135.84375 44.953125 143.949219 45.011719 145.609375 C 44.84375 146.949219 45.003906 148.132812 45.003906 148.132812 L 50 190.492188 L 54.753906 190.492188 L 54.394531 149.714844 L 68.566406 149.730469 C 68.566406 149.730469 73.640625 139.265625 64.960938 138.203125 "/>
<path style="fill:none;stroke-width:4;stroke-linecap:round;stroke-linejoin:round;stroke:rgb(47.45098%,47.45098%,47.45098%);stroke-opacity:1;stroke-miterlimit:4;" d="M 189.418808 403.497566 C 133.082944 396.609139 131.078271 420.27385 131.249124 425.120839 C 130.759346 429.032644 131.226343 432.488262 131.226343 432.488262 L 145.794393 556.160608 L 159.65625 556.160608 L 158.608353 437.107157 L 199.931951 437.152776 C 199.931951 437.152776 214.727804 406.599639 189.418808 403.497566 Z M 189.418808 403.497566 " transform="matrix(0.342949,0,0,0.342513,0,0)"/>
<path style=" stroke:none;fill-rule:nonzero;fill:rgb(67.45098%,62.745098%,55.686275%);fill-opacity:1;" d="M 79.910156 133.589844 C 78.421875 131.738281 57.792969 132.207031 49.609375 132.734375 C 49.609375 132.734375 40.816406 139.429688 39.640625 140.691406 C 38.460938 141.953125 37.394531 143.738281 37.222656 146.9375 C 37.273438 146.796875 37.925781 146.28125 44.933594 146.800781 C 52.976562 147.398438 54.402344 150.566406 54.402344 150.566406 C 54.402344 150.566406 75.46875 150.699219 79.269531 149.449219 C 84.300781 147.792969 83.90625 138.554688 79.910156 133.589844 "/>
<path style="fill:none;stroke-width:4;stroke-linecap:round;stroke-linejoin:round;stroke:rgb(47.45098%,47.45098%,47.45098%);stroke-opacity:1;stroke-miterlimit:4;" d="M 233.009054 390.028639 C 228.669393 384.622821 168.517815 385.991383 144.655374 387.531014 C 144.655374 387.531014 119.016063 407.078635 115.587617 410.762347 C 112.14778 414.446058 109.038259 419.657997 108.537091 428.99843 C 108.685164 428.587861 110.587325 427.082443 131.02132 428.599266 C 154.473715 430.344182 158.631133 439.593377 158.631133 439.593377 C 158.631133 439.593377 220.058411 439.981136 231.141063 436.331639 C 245.811624 431.496054 244.661215 404.523987 233.009054 390.028639 Z M 233.009054 390.028639 " transform="matrix(0.342949,0,0,0.342513,0,0)"/>
</g>
</svg>
