<?xml version="1.0" encoding="UTF-8"?>
<svg xmlns="http://www.w3.org/2000/svg" xmlns:xlink="http://www.w3.org/1999/xlink" width="103pt" height="200pt" viewBox="0 0 103 200" version="1.1">
<g id="surface1">
<path style=" stroke:none;fill-rule:nonzero;fill:rgb(45.490196%,29.803922%,27.058824%);fill-opacity:1;" d="M 62.550781 21.96875 C 63.882812 16.441406 63.722656 1.9375 49.0625 1.9375 C 33.035156 1.9375 34.273438 18.136719 35.910156 22.125 "/>
<path style=" stroke:none;fill-rule:nonzero;fill:rgb(78.823529%,60.784314%,53.333333%);fill-opacity:1;" d="M 48.347656 5.484375 C 53.484375 3.945312 58.722656 5.503906 60.691406 7.660156 C 58.660156 4.390625 55.085938 1.9375 49.0625 1.9375 C 35.210938 1.9375 34.164062 15.332031 35.601562 21.882812 C 35.585938 21.949219 39.382812 23.386719 39.382812 23.582031 C 37.476562 14.246094 40.683594 7.78125 48.347656 5.484375 "/>
<path style="fill:none;stroke-width:5.6;stroke-linecap:round;stroke-linejoin:round;stroke:rgb(10.196078%,9.803922%,9.803922%);stroke-opacity:1;stroke-miterlimit:4;" d="M 218.62409 76.890625 C 223.279733 57.544922 222.719964 6.78125 171.480583 6.78125 C 115.462682 6.78125 119.790655 63.478516 125.511226 77.4375 M 123.531553 69.931641 C 123.531553 69.931641 141.771845 23.570312 212.425667 29.052734 M 127.176881 97.275391 C 127.176881 97.275391 154.987864 51.816406 218.774272 55.917969 " transform="matrix(0.286111,0,0,0.285714,0,0)"/>
<path style=" stroke:none;fill-rule:nonzero;fill:rgb(97.254902%,82.352941%,70.980392%);fill-opacity:1;" d="M 57.675781 134.308594 C 57.675781 134.308594 70.515625 138.867188 73.851562 139.507812 C 77.191406 140.152344 81.742188 142.507812 84.832031 147.769531 C 87.265625 151.914062 100.808594 178.582031 101.953125 183.292969 C 103.097656 188.007812 100.667969 192.484375 95.085938 192.914062 L 84.117188 177.34375 L 77.683594 168.714844 C 77.683594 168.714844 75.902344 175.296875 74.984375 182.566406 C 74.058594 189.878906 73.992188 197.878906 73.777344 199.199219 L 28.660156 199.199219 C 28.660156 195.683594 28.71875 180.863281 25.265625 171.164062 L 24.324219 169.484375 L 19.269531 177.34375 L 8.871094 193.105469 C 2.863281 192.820312 -0.1875 187.535156 0.957031 182.820312 C 2.101562 178.105469 16.121094 151.914062 18.550781 147.769531 C 21.644531 142.507812 26.191406 140.152344 29.53125 139.507812 C 32.871094 138.867188 45.710938 134.308594 45.710938 134.308594 L 45.832031 131.46875 L 56.96875 131.191406 L 57.675781 134.308594 "/>
<path style=" stroke:none;fill-rule:nonzero;fill:rgb(45.490196%,29.803922%,27.058824%);fill-opacity:1;" d="M 78.804688 29.175781 C 70.886719 20.699219 32.691406 12.648438 14.117188 37.292969 C 0.886719 54.855469 2.726562 80.332031 2.726562 80.332031 L 6.679688 100.226562 C 6.679688 100.226562 9.109375 113.34375 29.425781 123.484375 L 75.203125 122.769531 C 75.203125 122.769531 93.085938 113.199219 96.4375 101.097656 L 96.582031 101.023438 L 99.207031 79.628906 C 105.027344 35.84375 78.804688 29.175781 78.804688 29.175781 "/>
<path style=" stroke:none;fill-rule:nonzero;fill:rgb(81.176471%,58.431373%,49.411765%);fill-opacity:1;" d="M 45.984375 125.722656 L 57.230469 125.722656 L 57.324219 131.183594 C 57.324219 131.183594 56.496094 135.5625 48.546875 134.707031 C 45.898438 134.417969 45.625 132.183594 45.625 132.183594 L 45.984375 125.722656 "/>
<path style=" stroke:none;fill-rule:nonzero;fill:rgb(78.823529%,60.784314%,53.333333%);fill-opacity:1;" d="M 15.929688 43.085938 C 43.585938 5.941406 95.46875 36.417969 99.09375 59.085938 C 95.851562 33.371094 78.898438 29.273438 78.898438 29.273438 C 71.460938 22.320312 33.355469 9.484375 13.640625 38.152344 C 1.183594 56.269531 2.726562 80.332031 2.726562 80.332031 C 2.726562 80.332031 6.109375 82.0625 6.011719 82.132812 C 4.867188 70.703125 8.089844 53.613281 15.929688 43.085938 "/>
<path style=" stroke:none;fill-rule:nonzero;fill:rgb(97.254902%,82.352941%,70.980392%);fill-opacity:1;" d="M 12.6875 82.296875 C 12.6875 82.296875 10.378906 77.816406 6.027344 79.175781 C -3.039062 82.003906 -0.132812 101.636719 14.855469 103.332031 "/>
<path style=" stroke:none;fill-rule:nonzero;fill:rgb(97.254902%,82.352941%,70.980392%);fill-opacity:1;" d="M 90.015625 82.371094 C 90.015625 82.371094 92.324219 77.890625 96.675781 79.25 C 105.746094 82.078125 103.335938 101.714844 88.113281 103.40625 "/>
<path style=" stroke:none;fill-rule:nonzero;fill:rgb(97.254902%,82.352941%,70.980392%);fill-opacity:1;" d="M 89.644531 78.070312 C 89.828125 85.660156 89.71875 97.769531 86.429688 107.597656 C 80.277344 125.984375 60.652344 130.152344 51.332031 130.152344 C 42.015625 130.152344 22.386719 125.984375 16.234375 107.597656 C 12.761719 97.210938 12.640625 84.265625 13.089844 76.816406 C 13.089844 76.816406 12.902344 71.085938 20.125 65.941406 C 27.058594 61.007812 49.707031 58.234375 57.203125 54.800781 C 70.296875 48.800781 71.769531 41.65625 71.769531 41.65625 C 71.769531 41.65625 89.078125 55.085938 89.644531 78.070312 "/>
<path style=" stroke:none;fill-rule:nonzero;fill:rgb(92.54902%,59.607843%,58.823529%);fill-opacity:1;" d="M 28.894531 96.890625 C 28.894531 98.667969 25.898438 100.109375 22.195312 100.109375 C 18.496094 100.109375 15.496094 98.667969 15.496094 96.890625 C 15.496094 95.113281 18.496094 93.675781 22.195312 93.675781 C 25.898438 93.675781 28.894531 95.113281 28.894531 96.890625 "/>
<path style=" stroke:none;fill-rule:nonzero;fill:rgb(92.54902%,59.607843%,58.823529%);fill-opacity:1;" d="M 87.234375 96.890625 C 87.234375 98.667969 84.234375 100.109375 80.535156 100.109375 C 76.832031 100.109375 73.832031 98.667969 73.832031 96.890625 C 73.832031 95.113281 76.832031 93.675781 80.535156 93.675781 C 84.234375 93.675781 87.234375 95.113281 87.234375 96.890625 "/>
<path style=" stroke:none;fill-rule:nonzero;fill:rgb(81.176471%,58.431373%,49.411765%);fill-opacity:1;" d="M 13.757812 98.132812 L 13.089844 90.417969 C 13.089844 90.417969 11.207031 85.632812 8.320312 84.894531 C 4.601562 83.941406 4.527344 90.332031 7.082031 93.941406 C 10.988281 99.464844 13.757812 98.132812 13.757812 98.132812 "/>
<path style=" stroke:none;fill-rule:nonzero;fill:rgb(81.176471%,58.431373%,49.411765%);fill-opacity:1;" d="M 89.480469 98.132812 L 90.148438 90.417969 C 90.148438 90.417969 92.03125 85.632812 94.917969 84.894531 C 98.636719 83.941406 98.710938 90.332031 96.15625 93.941406 C 92.246094 99.464844 89.480469 98.132812 89.480469 98.132812 "/>
<path style=" stroke:none;fill-rule:nonzero;fill:rgb(90.196078%,46.27451%,57.254902%);fill-opacity:1;" d="M 28.660156 199.199219 C 28.660156 199.199219 28.277344 187.761719 27.785156 182.796875 C 27.296875 177.832031 24.828125 168.484375 24.828125 168.484375 L 24.5625 165.128906 C 24.5625 165.128906 29.089844 160.535156 31.664062 156.4375 C 34.226562 152.367188 34.050781 137.960938 34.050781 137.960938 L 36.339844 137.582031 C 36.339844 137.582031 36.058594 147.246094 37.863281 151.105469 C 39.960938 155.582031 45.875 156.722656 51.21875 156.722656 C 56.558594 156.722656 62.46875 155.582031 64.570312 151.105469 C 66.378906 147.246094 66.097656 137.582031 66.097656 137.582031 L 68.386719 137.960938 C 68.386719 137.960938 68.207031 152.367188 70.769531 156.4375 C 73.34375 160.535156 77.972656 166.65625 77.972656 166.65625 C 77.972656 166.65625 75.519531 177.207031 74.984375 182.566406 C 74.445312 187.921875 73.777344 199.199219 73.777344 199.199219 L 28.660156 199.199219 "/>
<path style=" stroke:none;fill-rule:nonzero;fill:rgb(83.921569%,38.431373%,50.196078%);fill-opacity:1;" d="M 68.382812 138.578125 C 68.382812 138.183594 68.386719 137.960938 68.386719 137.960938 L 66.097656 137.582031 C 66.097656 137.582031 66.101562 137.707031 66.101562 137.898438 C 66.878906 138.109375 67.636719 138.339844 68.382812 138.578125 "/>
<path style=" stroke:none;fill-rule:nonzero;fill:rgb(83.921569%,38.431373%,50.196078%);fill-opacity:1;" d="M 50.097656 178.128906 C 40.878906 178.128906 32.457031 176.21875 25.957031 173.066406 C 26.675781 176.144531 27.519531 180.109375 27.785156 182.796875 C 28.277344 187.761719 28.660156 199.199219 28.660156 199.199219 L 73.777344 199.199219 C 73.777344 199.199219 74.445312 187.921875 74.984375 182.566406 C 75.277344 179.621094 76.152344 175.117188 76.878906 171.648438 C 70.113281 175.640625 60.617188 178.128906 50.097656 178.128906 "/>
<path style=" stroke:none;fill-rule:nonzero;fill:rgb(78.823529%,60.784314%,53.333333%);fill-opacity:1;" d="M 13.074219 41.996094 C 14.714844 46.878906 48.695312 45.695312 57.027344 42.660156 C 61.679688 40.96875 59.804688 39.714844 56.507812 39.945312 C 25.328125 42.125 21.421875 33.871094 21.421875 33.871094 L 13.074219 41.996094 "/>
<path style="fill:none;stroke-width:5.6;stroke-linecap:round;stroke-linejoin:round;stroke:rgb(10.196078%,9.803922%,9.803922%);stroke-opacity:1;stroke-miterlimit:4;" d="M 44.34466 288.039062 C 44.34466 288.039062 36.275789 272.357422 21.066444 277.115234 C -10.621966 287.013672 -0.464199 355.728516 51.922027 361.662109 M 21.639867 295.640625 C 21.639867 295.640625 32.097998 288.517578 44.918083 316.544922 M 313.320692 273.246094 C 313.962379 299.810547 313.580097 342.193359 302.084345 376.591797 C 280.581007 440.945312 211.988774 455.533203 179.412925 455.533203 C 146.850728 455.533203 78.244842 440.945312 56.741505 376.591797 C 44.604066 340.238281 44.180825 294.929688 45.75091 268.857422 C 45.75091 268.857422 45.09557 248.800781 70.339806 230.794922 C 94.573726 213.527344 173.733313 203.820312 199.933252 191.802734 C 245.697816 170.802734 250.844964 145.796875 250.844964 145.796875 C 250.844964 145.796875 311.341019 192.800781 313.320692 273.246094 Z M 314.617718 288.298828 C 314.617718 288.298828 322.68659 272.617188 337.895934 277.375 C 369.597998 287.273438 361.17415 356.001953 307.96875 361.921875 M 337.022148 295.900391 C 337.022148 295.900391 326.57767 288.777344 313.743932 316.804688 M 179.412925 357.587891 L 179.412925 349.589844 M 10.417172 284.197266 C 10.417172 284.197266 2.880765 200.826172 45.09557 136.527344 C 108.349515 40.195312 247.090413 71.955078 276.089199 103.455078 C 276.089199 103.455078 363.085558 117.783203 346.456311 281.039062 M 159.766383 473.470703 L 160.612864 457.488281 M 200.793386 473.470703 L 199.933252 457.488281 M 20.847998 349.193359 C 20.847998 349.193359 41.846177 401.201172 87.84284 423.199219 M 338.510316 349.193359 C 338.510316 349.193359 317.512136 401.201172 271.515473 423.199219 M 86.777913 590.501953 L 67.349818 620.703125 M 81.958434 563.472656 L 91.146845 614.90625 M 26.582221 675.445312 C 7.591019 675.71875 -0.450546 658.041016 4.000303 639.242188 C 8.696905 619.404297 56.086165 531.548828 64.837682 517.193359 C 77.070692 497.205078 94.341626 489.193359 106.752124 487.101562 C 119.353762 482.808594 159.766383 470.080078 159.766383 470.080078 M 272.894417 590.501953 L 292.322512 620.703125 M 333.090109 675.445312 C 352.067658 675.71875 360.122876 658.041016 355.672027 639.242188 C 350.961772 619.404297 303.586165 531.548828 294.820995 517.193359 C 282.601638 497.205078 265.330704 489.193359 252.906553 487.101562 C 240.318568 482.808594 201.598908 470.449219 201.598908 470.449219 M 119.012439 482.863281 C 119.012439 482.863281 119.995449 533.517578 110.67051 547.53125 C 99.09284 564.949219 85.590109 578.197266 85.590109 578.197266 M 239.021541 482.863281 C 239.021541 482.863281 238.96693 532.943359 247.349818 547.53125 C 257.34375 564.949219 272.594053 578.949219 272.594053 578.949219 M 231.020934 481.537109 C 231.020934 481.537109 232.003944 515.361328 225.682646 528.869141 C 218.337379 544.537109 197.680522 548.529297 179.01699 548.529297 C 160.339806 548.529297 139.669296 544.537109 132.337682 528.869141 C 126.030036 515.361328 127.013046 481.537109 127.013046 481.537109 M 97.017597 652.53125 C 99.488774 666.777344 100.307949 688.201172 100.089502 697.197266 M 276.04824 563.636719 L 266.887136 614.90625 M 261.344053 651.861328 C 258.340413 668.869141 257.726032 688.201172 257.930825 697.197266 " transform="matrix(0.286111,0,0,0.285714,0,0)"/>
<path style=" stroke:none;fill-rule:nonzero;fill:rgb(97.254902%,82.352941%,70.980392%);fill-opacity:1;" d="M 8.039062 192.984375 C 13.476562 193.699219 42.730469 180.34375 42.730469 180.34375 L 41.585938 169.105469 C 25.179688 178.058594 10.898438 177.34375 10.898438 177.34375 C 10.898438 177.34375 5.464844 186.269531 8.039062 192.984375 "/>
<path style="fill:none;stroke-width:5.6;stroke-linecap:round;stroke-linejoin:round;stroke:rgb(10.196078%,9.803922%,9.803922%);stroke-opacity:1;stroke-miterlimit:4;" d="M 49.64199 620.115234 C 70.162318 617.845703 106.847694 611.242188 145.376214 591.923828 M 147.98392 631.367188 C 147.98392 631.367188 54.18841 672.683594 26.582221 675.445312 " transform="matrix(0.286111,0,0,0.285714,0,0)"/>
<path style=" stroke:none;fill-rule:nonzero;fill:rgb(97.254902%,82.352941%,70.980392%);fill-opacity:1;" d="M 94.867188 192.984375 C 89.429688 193.699219 60.175781 180.34375 60.175781 180.34375 L 61.320312 169.105469 C 77.722656 178.058594 92.003906 177.34375 92.003906 177.34375 C 92.003906 177.34375 97.441406 186.269531 94.867188 192.984375 "/>
<path style="fill:none;stroke-width:5.6;stroke-linecap:round;stroke-linejoin:round;stroke:rgb(10.196078%,9.803922%,9.803922%);stroke-opacity:1;stroke-miterlimit:4;" d="M 310.03034 620.115234 C 289.510012 617.845703 252.810983 611.242188 214.296117 591.923828 M 211.68841 631.367188 C 211.68841 631.367188 305.48392 672.683594 333.090109 675.445312 " transform="matrix(0.286111,0,0,0.285714,0,0)"/>
<path style="fill-rule:nonzero;fill:rgb(97.254902%,82.352941%,70.980392%);fill-opacity:1;stroke-width:5.6;stroke-linecap:round;stroke-linejoin:round;stroke:rgb(10.196078%,9.803922%,9.803922%);stroke-opacity:1;stroke-miterlimit:4;" d="M 144.010922 599.867188 C 144.010922 599.867188 159.670813 516.947266 163.930522 486.951172 C 164.62682 481.974609 167.466626 477.914062 172.176881 483.369141 C 175.931432 487.703125 178.006675 495.537109 178.675667 506.871094 C 179.563107 521.841797 178.675667 594.371094 178.675667 605.705078 C 178.675667 625.365234 163.671117 637.369141 149.676881 629.699219 " transform="matrix(0.286111,0,0,0.285714,0,0)"/>
<path style="fill:none;stroke-width:4;stroke-linecap:round;stroke-linejoin:round;stroke:rgb(10.196078%,9.803922%,9.803922%);stroke-opacity:1;stroke-miterlimit:4;" d="M 159.015473 549.869141 C 159.015473 549.869141 164.681432 527.953125 167.425667 502.701172 C 168.435983 493.417969 179.549454 502.113281 179.057949 527.871094 " transform="matrix(0.286111,0,0,0.285714,0,0)"/>
<path style="fill-rule:nonzero;fill:rgb(97.254902%,82.352941%,70.980392%);fill-opacity:1;stroke-width:5.6;stroke-linecap:round;stroke-linejoin:round;stroke:rgb(10.196078%,9.803922%,9.803922%);stroke-opacity:1;stroke-miterlimit:4;" d="M 215.661408 599.867188 C 215.661408 599.867188 200.001517 516.947266 195.755461 486.951172 C 195.04551 481.974609 192.219357 477.914062 187.495449 483.369141 C 183.754551 487.703125 181.665655 495.537109 180.996663 506.871094 C 180.122876 521.841797 180.996663 594.371094 180.996663 605.705078 C 180.996663 625.365234 196.342536 638.941406 212.34375 629.945312 " transform="matrix(0.286111,0,0,0.285714,0,0)"/>
<path style="fill:none;stroke-width:4;stroke-linecap:round;stroke-linejoin:round;stroke:rgb(10.196078%,9.803922%,9.803922%);stroke-opacity:1;stroke-miterlimit:4;" d="M 200.67051 549.527344 C 200.67051 549.527344 195.004551 527.953125 192.246663 502.701172 C 191.236347 493.417969 180.122876 502.113281 180.628034 527.871094 " transform="matrix(0.286111,0,0,0.285714,0,0)"/>
<path style="fill:none;stroke-width:5.6;stroke-linecap:round;stroke-linejoin:round;stroke:rgb(10.196078%,9.803922%,9.803922%);stroke-opacity:1;stroke-miterlimit:4;" d="M 140.993629 242.375 C 130.904126 234.691406 105.441444 230.849609 91.515473 247.666016 M 216.398665 242.375 C 226.488167 234.691406 251.937197 230.849609 265.87682 247.666016 M 179.085255 357.697266 L 179.085255 350.013672 M 200.697816 392.929688 C 198.322209 398.001953 190.089502 401.761719 180.177488 401.761719 C 170.279126 401.761719 162.032767 398.001953 159.65716 392.929688 " transform="matrix(0.286111,0,0,0.285714,0,0)"/>
<path style="fill:none;stroke-width:7.2;stroke-linecap:round;stroke-linejoin:round;stroke:rgb(10.196078%,9.803922%,9.803922%);stroke-opacity:1;stroke-miterlimit:4;" d="M 89.208131 299.6875 C 89.208131 299.6875 93.740898 317.570312 110.984527 319.210938 C 137.553095 321.726562 148.284284 299.6875 148.284284 299.6875 " transform="matrix(0.286111,0,0,0.285714,0,0)"/>
<path style="fill:none;stroke-width:5.6;stroke-linecap:round;stroke-linejoin:round;stroke:rgb(10.196078%,9.803922%,9.803922%);stroke-opacity:1;stroke-miterlimit:4;" d="M 79.582828 307.931641 L 91.051274 305.990234 " transform="matrix(0.286111,0,0,0.285714,0,0)"/>
<path style="fill:none;stroke-width:7.2;stroke-linecap:round;stroke-linejoin:round;stroke:rgb(10.196078%,9.803922%,9.803922%);stroke-opacity:1;stroke-miterlimit:4;" d="M 269.235437 299.6875 C 269.235437 299.6875 264.675364 317.310547 247.472694 319.210938 C 220.68568 322.177734 210.159284 299.6875 210.159284 299.6875 " transform="matrix(0.286111,0,0,0.285714,0,0)"/>
<path style="fill:none;stroke-width:5.6;stroke-linecap:round;stroke-linejoin:round;stroke:rgb(10.196078%,9.803922%,9.803922%);stroke-opacity:1;stroke-miterlimit:4;" d="M 279.775485 307.931641 L 267.392294 305.634766 " transform="matrix(0.286111,0,0,0.285714,0,0)"/>
</g>
</svg>
