<?xml version="1.0" encoding="UTF-8"?>
<svg xmlns="http://www.w3.org/2000/svg" xmlns:xlink="http://www.w3.org/1999/xlink" width="234pt" height="200pt" viewBox="0 0 234 200" version="1.1">
<defs>
<filter id="alpha" filterUnits="objectBoundingBox" x="0%" y="0%" width="100%" height="100%">
  <feColorMatrix type="matrix" in="SourceGraphic" values="0 0 0 0 1 0 0 0 0 1 0 0 0 0 1 0 0 0 1 0"/>
</filter>
<mask id="mask0">
  <g filter="url(#alpha)">
<rect x="0" y="0" width="234" height="200" style="fill:rgb(0%,0%,0%);fill-opacity:0.486275;stroke:none;"/>
  </g>
</mask>
<radialGradient id="radial0" gradientUnits="userSpaceOnUse" cx="-6" cy="37.75" fx="-6" fy="37.75" r="14" gradientTransform="matrix(8.356886,0,0,2.211519,167.144913,85.451909)">
<stop offset="0" style="stop-color:rgb(0%,0%,0%);stop-opacity:1;"/>
<stop offset="1" style="stop-color:rgb(0%,0%,0%);stop-opacity:0;"/>
</radialGradient>
<clipPath id="clip1">
  <rect width="234" height="200"/>
</clipPath>
<g id="surface6" clip-path="url(#clip1)">
<path style=" stroke:none;fill-rule:evenodd;fill:url(#radial0);" d="M 234 168.9375 C 234 186.039062 181.617188 199.898438 117.003906 199.898438 C 52.386719 199.898438 0.0078125 186.039062 0.0078125 168.9375 C 0.0078125 151.839844 52.386719 137.976562 117.003906 137.976562 C 181.617188 137.976562 234 151.839844 234 168.9375 Z M 234 168.9375 "/>
</g>
</defs>
<g id="surface1">
<use xlink:href="#surface6" mask="url(#mask0)"/>
<path style=" stroke:none;fill-rule:nonzero;fill:rgb(0%,0%,0%);fill-opacity:1;" d="M 206.234375 79.875 C 206.234375 123.941406 166.28125 159.664062 116.996094 159.664062 C 92.484375 159.664062 70.28125 150.828125 54.152344 136.523438 C 37.855469 122.066406 27.761719 102.027344 27.761719 79.878906 C 27.761719 35.8125 67.710938 0.0859375 117 0.0859375 C 166.28125 0.0859375 206.238281 35.808594 206.238281 79.878906 Z M 206.234375 79.875 "/>
<path style=" stroke:none;fill-rule:nonzero;fill:rgb(100%,100%,100%);fill-opacity:1;" d="M 165.921875 56.507812 C 165.921875 69.074219 155.761719 79.261719 143.230469 79.261719 C 130.695312 79.261719 120.539062 69.074219 120.539062 56.507812 C 120.539062 43.9375 130.695312 33.75 143.230469 33.75 C 155.761719 33.75 165.921875 43.9375 165.921875 56.507812 Z M 165.921875 56.507812 "/>
<path style="fill-rule:nonzero;fill:rgb(0%,0%,0%);fill-opacity:1;stroke-width:0.1;stroke-linecap:butt;stroke-linejoin:miter;stroke:rgb(0%,0%,0%);stroke-opacity:1;stroke-miterlimit:4;" d="M 177.135948 592.361477 C 177.135948 623.916907 151.557347 649.501 119.995705 649.501 C 88.434064 649.501 62.855462 623.916907 62.855462 592.361477 C 62.855462 560.806047 88.434064 535.209085 119.995705 535.209085 C 151.557347 535.209085 177.135948 560.806047 177.135948 592.361477 Z M 177.135948 592.361477 " transform="matrix(0.265725,0,0,0.303533,111.063354,-123.863954)"/>
<path style="fill-rule:nonzero;fill:rgb(100%,100%,100%);fill-opacity:1;stroke-width:0.1;stroke-linecap:butt;stroke-linejoin:miter;stroke:rgb(0%,0%,0%);stroke-opacity:1;stroke-miterlimit:4;" d="M 177.135915 592.35053 C 177.135915 623.905413 151.538456 649.509498 120.012752 649.509498 C 88.447787 649.509498 62.850329 623.905413 62.850329 592.35053 C 62.850329 560.795648 88.447787 535.230712 120.012752 535.230712 C 151.538456 535.230712 177.135915 560.795648 177.135915 592.35053 Z M 177.135915 592.35053 " transform="matrix(0.0994972,0,0,0.0997766,133.055163,-11.958165)"/>
<path style=" stroke:none;fill-rule:nonzero;fill:rgb(100%,100%,100%);fill-opacity:1;" d="M 112.945312 56.507812 C 112.945312 69.074219 102.785156 79.261719 90.253906 79.261719 C 77.71875 79.261719 67.5625 69.074219 67.5625 56.507812 C 67.5625 43.9375 77.71875 33.75 90.253906 33.75 C 102.785156 33.75 112.945312 43.9375 112.945312 56.507812 Z M 112.945312 56.507812 "/>
<path style="fill-rule:nonzero;fill:rgb(0%,0%,0%);fill-opacity:1;stroke-width:0.1;stroke-linecap:butt;stroke-linejoin:miter;stroke:rgb(0%,0%,0%);stroke-opacity:1;stroke-miterlimit:4;" d="M 177.136064 592.361477 C 177.136064 623.916907 151.557462 649.501 119.995821 649.501 C 88.434179 649.501 62.855577 623.916907 62.855577 592.361477 C 62.855577 560.806047 88.434179 535.209085 119.995821 535.209085 C 151.557462 535.209085 177.136064 560.806047 177.136064 592.361477 Z M 177.136064 592.361477 " transform="matrix(0.265725,0,0,0.303533,58.086761,-123.863954)"/>
<path style="fill-rule:nonzero;fill:rgb(100%,100%,100%);fill-opacity:1;stroke-width:0.1;stroke-linecap:butt;stroke-linejoin:miter;stroke:rgb(0%,0%,0%);stroke-opacity:1;stroke-miterlimit:4;" d="M 177.136222 592.35053 C 177.136222 623.905413 151.538763 649.509498 120.013059 649.509498 C 88.448094 649.509498 62.850636 623.905413 62.850636 592.35053 C 62.850636 560.795648 88.448094 535.230712 120.013059 535.230712 C 151.538763 535.230712 177.136222 560.795648 177.136222 592.35053 Z M 177.136222 592.35053 " transform="matrix(0.0994972,0,0,0.0997766,80.07857,-11.958165)"/>
<path style="fill-rule:nonzero;fill:rgb(92.54902%,71.372549%,22.745098%);fill-opacity:1;stroke-width:1.7165;stroke-linecap:butt;stroke-linejoin:miter;stroke:rgb(61.960784%,44.705882%,4.313725%);stroke-opacity:1;stroke-miterlimit:4;" d="M 597.881648 -264.919904 C 601.910182 -269.279342 625.627662 -274.817973 652.226371 -270.677354 C 676.071868 -266.967955 699.331572 -256.826825 701.913125 -246.242422 C 703.797422 -238.498141 683.332543 -208.76633 653.983092 -208.714102 C 618.421596 -208.654531 596.261377 -243.501168 595.386477 -249.785856 C 594.689402 -254.788091 593.126246 -259.779167 597.881648 -264.919904 Z M 597.881648 -264.919904 " transform="matrix(1.079164,-0.0943015,0.0940375,1.082194,-559.022784,429.474415)"/>
<path style=" stroke:none;fill-rule:nonzero;fill:rgb(52.941176%,38.039216%,3.137255%);fill-opacity:1;" d="M 67.824219 99.566406 C 93.09375 116.40625 92.195312 115.394531 101.96875 117.164062 C 116.410156 119.777344 134.003906 119.285156 149.90625 116.796875 C 149.90625 116.796875 138.835938 125.363281 126.621094 126.363281 C 120.738281 126.84375 110.191406 126.210938 103.726562 123.832031 C 86.859375 117.625 72.0625 104.941406 67.824219 99.566406 Z M 67.824219 99.566406 "/>
</g>
</svg>
