<?xml version="1.0" encoding="UTF-8"?>
<svg xmlns="http://www.w3.org/2000/svg" xmlns:xlink="http://www.w3.org/1999/xlink" width="107pt" height="200pt" viewBox="0 0 107 200" version="1.1">
<g id="surface1">
<path style=" stroke:none;fill-rule:nonzero;fill:rgb(30.196078%,30.588235%,29.803922%);fill-opacity:1;" d="M 67.964844 120.140625 C 67.964844 120.140625 84.15625 125.285156 88.9375 126.914062 C 92.554688 128.148438 100.699219 130.554688 102.433594 137.578125 C 104.640625 146.527344 102.464844 171.785156 100.890625 180.570312 C 100.144531 184.734375 99.03125 189.371094 88.109375 189.816406 L 89.925781 199.796875 L 33.117188 199.796875 C 33.117188 199.796875 34.539062 192.09375 34.386719 191.640625 C 24.632812 191.46875 21.445312 185.003906 20.738281 181.046875 C 19.160156 172.257812 18.714844 146.785156 20.921875 137.839844 C 22.65625 130.816406 30.023438 128.148438 33.640625 126.914062 C 38.421875 125.285156 54.609375 120.140625 54.609375 120.140625 "/>
<path style=" stroke:none;fill-rule:nonzero;fill:rgb(97.254902%,83.137255%,70.196078%);fill-opacity:1;" d="M 67.804688 121.226562 L 67.53125 116.113281 L 67.804688 112.746094 L 54.886719 113.515625 L 54.886719 116.113281 L 54.609375 121.226562 L 55.816406 135.960938 L 64.480469 135.960938 L 67.804688 121.226562 "/>
<path style=" stroke:none;fill-rule:nonzero;fill:rgb(81.176471%,58.431373%,49.411765%);fill-opacity:1;" d="M 55.253906 114.8125 L 67.171875 114.8125 L 67.273438 120.585938 C 67.273438 120.585938 65.003906 123.898438 56.382812 125.101562 L 54.875 121.640625 L 55.253906 114.8125 "/>
<path style=" stroke:none;fill-rule:nonzero;fill:rgb(100%,100%,99.607843%);fill-opacity:1;" d="M 63.441406 164.105469 L 68.957031 134.355469 L 68.957031 119.347656 L 61.289062 134.148438 L 53.691406 120.460938 L 53.691406 134.355469 L 58.816406 162.886719 L 63.441406 164.105469 "/>
<path style=" stroke:none;fill-rule:nonzero;fill:rgb(100%,100%,99.607843%);fill-opacity:1;" d="M 53.769531 120.699219 L 52.738281 121.226562 L 49.851562 136.335938 L 59.375 131.429688 L 53.769531 120.699219 "/>
<path style=" stroke:none;fill-rule:nonzero;fill:rgb(100%,100%,99.607843%);fill-opacity:1;" d="M 63.042969 131.429688 L 72.5625 136.335938 L 69.671875 119.570312 L 68.957031 119.347656 L 63.042969 131.429688 "/>
<path style=" stroke:none;fill-rule:nonzero;fill:rgb(49.019608%,30.196078%,24.705882%);fill-opacity:1;" d="M 72.652344 113.382812 C 92.828125 112.492188 94.730469 101.296875 94.730469 101.296875 L 98.910156 111.015625 C 104.84375 104.269531 102.496094 79.570312 102.496094 79.570312 L 101.648438 57.269531 C 97.105469 7.203125 70.640625 8.925781 70.640625 8.925781 C 63.15625 -2.460938 21.535156 -4.773438 6.0625 27.777344 C -3.714844 48.34375 2.816406 73.855469 2.816406 73.855469 L 12.890625 95.140625 C 12.890625 95.140625 20.792969 112.554688 17.53125 121.871094 C 17.53125 121.871094 25.902344 118.734375 26.4375 115.851562 C 26.4375 115.851562 30.085938 121.058594 47.503906 117.066406 "/>
<path style=" stroke:none;fill-rule:nonzero;fill:rgb(87.843137%,71.764706%,62.352941%);fill-opacity:1;" d="M 70.640625 8.925781 C 63.15625 -2.460938 21.535156 -4.773438 6.0625 27.777344 C -3.714844 48.34375 2.816406 73.855469 2.816406 73.855469 L 6.679688 72.226562 C 6.679688 72.226562 -1.175781 37.855469 16.867188 19.550781 C 37.519531 -1.410156 60.984375 6.109375 70.121094 8.808594 C 70.316406 8.777344 70.640625 8.925781 70.640625 8.925781 "/>
<path style=" stroke:none;fill-rule:nonzero;fill:rgb(96.862745%,80%,66.666667%);fill-opacity:1;" d="M 13.355469 74.226562 C 13.355469 74.226562 10.246094 70.027344 6.007812 72.132812 C -2.824219 76.515625 3.410156 96.109375 19.058594 95.375 "/>
<path style=" stroke:none;fill-rule:nonzero;fill:rgb(96.862745%,80%,66.666667%);fill-opacity:1;" d="M 92.675781 61.582031 C 92.675781 61.582031 94.304688 56.625 98.988281 57.296875 C 108.757812 58.695312 109.535156 79.164062 94.207031 83.402344 "/>
<path style=" stroke:none;fill-rule:nonzero;fill:rgb(96.862745%,80%,66.666667%);fill-opacity:1;" d="M 91.414062 56.835938 C 90.722656 59.640625 89.851562 61.417969 89.851562 61.417969 C 81.589844 33.777344 49.046875 26.175781 49.046875 26.175781 C 67.402344 37.664062 68.8125 45.503906 68.8125 45.503906 C 41.90625 51.316406 25.210938 34.25 25.210938 34.25 C 25.210938 34.25 25.609375 37.617188 24.667969 43.011719 C 23.554688 49.375 20.558594 58.558594 12.851562 68.355469 C 12.855469 68.488281 12.863281 68.558594 12.863281 68.558594 C 13.632812 76.246094 15.898438 89.460938 21.179688 99.507812 C 30.53125 117.292969 51.351562 118.324219 60.910156 116.792969 C 70.464844 115.257812 89.90625 107.769531 93.171875 87.960938 C 94.917969 77.371094 94.363281 64.605469 91.582031 57.246094 C 91.53125 57.109375 91.464844 56.972656 91.414062 56.835938 "/>
<path style=" stroke:none;fill-rule:nonzero;fill:rgb(100%,100%,99.607843%);fill-opacity:1;" d="M 43.085938 72.773438 C 44.027344 78.574219 41.167969 83.859375 36.699219 84.578125 C 32.230469 85.292969 27.84375 81.171875 26.90625 75.371094 C 25.964844 69.566406 28.828125 64.28125 33.296875 63.566406 C 37.765625 62.847656 42.148438 66.972656 43.085938 72.773438 "/>
<path style=" stroke:none;fill-rule:nonzero;fill:rgb(100%,100%,99.607843%);fill-opacity:1;" d="M 80.554688 66.761719 C 81.492188 72.566406 78.632812 77.847656 74.164062 78.566406 C 69.695312 79.285156 65.3125 75.164062 64.371094 69.359375 C 63.433594 63.558594 66.292969 58.273438 70.761719 57.554688 C 75.230469 56.839844 79.613281 60.964844 80.554688 66.761719 "/>
<path style=" stroke:none;fill-rule:nonzero;fill:rgb(10.196078%,9.803922%,9.803922%);fill-opacity:1;" d="M 42.074219 74.492188 C 42.710938 78.445312 40.996094 82.007812 38.242188 82.449219 C 35.488281 82.890625 32.734375 80.046875 32.097656 76.09375 C 31.457031 72.140625 33.171875 68.578125 35.925781 68.136719 C 38.679688 67.695312 41.429688 70.539062 42.074219 74.492188 "/>
<path style=" stroke:none;fill-rule:nonzero;fill:rgb(10.196078%,9.803922%,9.803922%);fill-opacity:1;" d="M 65.738281 70.695312 C 66.378906 74.648438 69.132812 77.492188 71.886719 77.054688 C 74.644531 76.609375 76.355469 73.046875 75.714844 69.097656 C 75.074219 65.144531 72.324219 62.296875 69.570312 62.738281 C 66.8125 63.183594 65.101562 66.742188 65.738281 70.695312 "/>
<path style=" stroke:none;fill-rule:nonzero;fill:rgb(92.54902%,59.607843%,58.823529%);fill-opacity:1;" d="M 32.394531 86.480469 C 32.6875 88.296875 29.847656 90.265625 26.054688 90.875 C 22.257812 91.480469 18.945312 90.5 18.648438 88.6875 C 18.355469 86.871094 21.195312 84.902344 24.992188 84.292969 C 28.785156 83.6875 32.101562 84.664062 32.394531 86.480469 "/>
<path style=" stroke:none;fill-rule:nonzero;fill:rgb(92.54902%,59.607843%,58.823529%);fill-opacity:1;" d="M 92.226562 76.886719 C 92.519531 78.699219 89.679688 80.667969 85.886719 81.277344 C 82.089844 81.886719 78.773438 80.902344 78.480469 79.089844 C 78.1875 77.273438 81.023438 75.304688 84.820312 74.699219 C 88.617188 74.085938 91.933594 75.066406 92.226562 76.886719 "/>
<path style=" stroke:none;fill-rule:nonzero;fill:rgb(100%,100%,99.607843%);fill-opacity:1;" d="M 41.59375 72.109375 C 41.726562 72.921875 41.175781 73.683594 40.359375 73.8125 C 39.546875 73.941406 38.78125 73.394531 38.648438 72.582031 C 38.519531 71.773438 39.070312 71.011719 39.886719 70.878906 C 40.699219 70.75 41.464844 71.300781 41.59375 72.109375 "/>
<path style=" stroke:none;fill-rule:nonzero;fill:rgb(100%,100%,99.607843%);fill-opacity:1;" d="M 74.945312 66.761719 C 75.074219 67.570312 74.519531 68.332031 73.707031 68.464844 C 72.894531 68.59375 72.125 68.046875 71.996094 67.234375 C 71.863281 66.421875 72.417969 65.660156 73.230469 65.53125 C 74.046875 65.398438 74.8125 65.953125 74.945312 66.761719 "/>
<path style=" stroke:none;fill-rule:nonzero;fill:rgb(81.176471%,58.431373%,49.411765%);fill-opacity:1;" d="M 16.910156 89.222656 L 15.027344 81.949219 C 15.027344 81.949219 12.355469 77.679688 9.28125 77.445312 C 5.320312 77.144531 6.230469 83.277344 9.410156 86.308594 C 14.277344 90.957031 16.910156 89.222656 16.910156 89.222656 "/>
<path style=" stroke:none;fill-rule:nonzero;fill:rgb(81.176471%,58.431373%,49.411765%);fill-opacity:1;" d="M 94.570312 76.765625 L 94.058594 69.269531 C 94.058594 69.269531 95.246094 64.382812 98.09375 63.199219 C 101.761719 61.675781 102.832031 67.78125 100.769531 71.65625 C 97.617188 77.589844 94.570312 76.765625 94.570312 76.765625 "/>
<path style=" stroke:none;fill-rule:nonzero;fill:rgb(65.882353%,74.901961%,85.098039%);fill-opacity:1;" d="M 53.921875 134.628906 L 59.617188 131.515625 L 61.289062 134.148438 L 63.144531 131.515625 L 68.515625 134.308594 L 68.195312 138.777344 C 68.195312 138.777344 67.027344 135.589844 61.695312 135.589844 C 56.363281 135.589844 54.242188 138.859375 54.242188 138.859375 L 53.921875 134.628906 "/>
<path style=" stroke:none;fill-rule:nonzero;fill:rgb(82.352941%,87.843137%,92.156863%);fill-opacity:1;" d="M 34.425781 66.027344 C 36.300781 65.726562 38.140625 65.777344 39.882812 66.109375 C 38.054688 64.199219 35.691406 63.183594 33.296875 63.566406 C 30.589844 64 28.484375 66.109375 27.441406 68.992188 C 29.40625 67.511719 31.777344 66.449219 34.425781 66.027344 "/>
<path style=" stroke:none;fill-rule:nonzero;fill:rgb(82.352941%,87.843137%,92.156863%);fill-opacity:1;" d="M 70.519531 60.238281 C 68.644531 60.535156 66.914062 61.164062 65.363281 62.019531 C 66.496094 59.636719 68.417969 57.933594 70.816406 57.546875 C 73.519531 57.113281 76.183594 58.460938 78.082031 60.871094 C 75.753906 60.074219 73.167969 59.8125 70.519531 60.238281 "/>
<path style=" stroke:none;fill-rule:nonzero;fill:rgb(87.843137%,71.764706%,62.352941%);fill-opacity:1;" d="M 10.308594 24.996094 C 23.8125 27.222656 32.332031 25.90625 36.996094 24.488281 C 40.125 23.535156 38.253906 22.667969 36.753906 22.648438 C 21.3125 22.433594 15.90625 17.414062 15.90625 17.414062 L 10.308594 24.996094 "/>
<path style=" stroke:none;fill-rule:nonzero;fill:rgb(96.862745%,80%,66.666667%);fill-opacity:1;" d="M 32.441406 169.109375 L 32.984375 171.816406 L 33.457031 172.003906 C 34.050781 172.1875 34.683594 172.480469 35.347656 172.917969 C 35.347656 172.917969 42.050781 172.683594 45.28125 172.132812 L 45.539062 171.585938 C 45.554688 171.324219 45.582031 171.042969 45.625 170.746094 C 46.148438 167.042969 48.097656 164.410156 50.53125 163.152344 L 51.035156 162.792969 C 51.035156 162.792969 47.015625 160.285156 44.019531 160.597656 C 41.023438 160.910156 34.953125 163.734375 32.351562 168.757812 L 32.441406 169.109375 "/>
<path style=" stroke:none;fill-rule:nonzero;fill:rgb(96.862745%,80%,66.666667%);fill-opacity:1;" d="M 85.851562 171.707031 C 86.78125 171.226562 87.878906 170.539062 88.558594 169.699219 C 88.558594 169.699219 94.699219 171.324219 97.023438 169.804688 C 99.34375 168.285156 94.988281 166.722656 94.988281 166.722656 C 94.988281 166.722656 97.578125 166.929688 98.328125 165.695312 C 99.347656 164.019531 95.050781 162.917969 95.050781 162.917969 C 95.050781 162.917969 98.183594 161.484375 96.003906 160.257812 C 93.746094 158.984375 89.304688 157.074219 84.332031 158.136719 C 79.417969 159.1875 74.664062 164.714844 72.761719 167.167969 C 72.761719 167.167969 85.773438 171.582031 85.851562 171.707031 "/>
<path style=" stroke:none;fill-rule:nonzero;fill:rgb(100%,100%,99.607843%);fill-opacity:1;" d="M 55.84375 162.792969 C 55.84375 162.792969 52.804688 161.808594 51.664062 162.480469 C 50.53125 163.152344 47.488281 165.304688 46.859375 167.578125 C 46.226562 169.855469 45.359375 172.054688 45.675781 172.917969 C 45.992188 173.78125 47.804688 175.347656 47.804688 175.347656 C 47.804688 175.347656 48.15625 170.992188 50.011719 168.285156 C 52.21875 165.070312 54.269531 164.128906 54.820312 163.816406 C 55.371094 163.5 55.84375 162.792969 55.84375 162.792969 "/>
<path style=" stroke:none;fill-rule:nonzero;fill:rgb(61.960784%,62.352941%,61.960784%);fill-opacity:1;" d="M 52.738281 121.226562 C 52.738281 121.226562 32.453125 126.058594 27.996094 129.3125 C 23.539062 132.566406 20.417969 135.527344 20.121094 140.113281 C 19.824219 144.699219 18.632812 159.34375 18.632812 159.34375 C 18.632812 159.34375 18.554688 175.1875 20.042969 169.03125 C 21.382812 163.488281 20.363281 137.828125 27.097656 133.085938 C 33.191406 128.792969 51.773438 124.875 51.773438 124.875 L 52.738281 121.226562 "/>
<path style=" stroke:none;fill-rule:nonzero;fill:rgb(61.960784%,62.352941%,61.960784%);fill-opacity:1;" d="M 69.734375 121.226562 C 69.734375 121.226562 89.125 126.058594 94.425781 128.917969 C 99.285156 131.542969 102.648438 135.378906 102.945312 139.964844 C 102.945312 139.964844 99.378906 134.441406 95.21875 132.371094 C 86.949219 128.257812 69.953125 123.890625 69.953125 123.890625 L 69.734375 121.226562 "/>
<path style=" stroke:none;fill-rule:nonzero;fill:rgb(61.960784%,62.352941%,61.960784%);fill-opacity:1;" d="M 53.011719 165.410156 C 53.011719 165.410156 57.570312 162.449219 60.144531 163.042969 L 85.804688 172.113281 C 85.804688 172.113281 59.847656 164.421875 53.011719 165.410156 "/>
<path style=" stroke:none;fill-rule:nonzero;fill:rgb(61.960784%,62.352941%,61.960784%);fill-opacity:1;" d="M 27.945312 173.394531 C 27.945312 173.394531 29.632812 171.816406 31.613281 171.71875 C 33.59375 171.621094 35.347656 172.917969 35.347656 172.917969 L 45.28125 172.132812 L 46.175781 174.679688 L 34.386719 175.664062 C 34.386719 175.664062 31.515625 172.605469 27.945312 173.394531 "/>
<path style=" stroke:none;fill-rule:nonzero;fill:rgb(29.019608%,29.411765%,29.019608%);fill-opacity:1;" d="M 32.75 199.726562 L 34.386719 191.640625 C 34.386719 191.640625 39.585938 191.445312 45.085938 190.113281 C 50.585938 188.78125 63.664062 184.195312 63.664062 184.195312 C 63.664062 184.195312 80.753906 189.816406 88.109375 189.816406 L 89.925781 199.796875 L 32.75 199.726562 "/>
<path style="fill:none;stroke-width:7;stroke-linecap:round;stroke-linejoin:round;stroke:rgb(10.196078%,9.803922%,9.803922%);stroke-opacity:1;stroke-miterlimit:4;" d="M 164.725102 218.64375 C 156.330315 232.853613 127.531761 249.968164 102.511682 236.533984 " transform="matrix(0.237778,0,0,0.236686,0,0)"/>
<path style="fill:none;stroke-width:8;stroke-linecap:round;stroke-linejoin:round;stroke:rgb(10.196078%,9.803922%,9.803922%);stroke-opacity:1;stroke-miterlimit:4;" d="M 173.333455 282.332324 C 154.211084 254.539746 94.363318 264.045996 114.356381 333.675977 " transform="matrix(0.237778,0,0,0.236686,0,0)"/>
<path style="fill:none;stroke-width:7;stroke-linecap:round;stroke-linejoin:round;stroke:rgb(10.196078%,9.803922%,9.803922%);stroke-opacity:1;stroke-miterlimit:4;" d="M 56.167859 313.607227 C 56.167859 313.607227 43.091048 295.865527 25.266501 304.761133 C -11.877555 323.278516 14.341779 406.062109 80.152964 402.959375 M 29.652818 327.503516 C 29.652818 327.503516 41.136098 316.627441 62.541983 348.661523 M 54.097912 289.660059 C 57.334258 322.139746 66.862588 377.972461 89.073452 420.420508 C 128.402453 495.562793 215.964515 499.919824 256.164209 493.450293 C 296.347474 486.964258 378.110397 455.32627 391.844334 371.634961 C 399.187719 326.892871 391.992188 274.377441 385.158075 241.864746 M 259.942684 211.827637 C 271.310967 199.878809 303.214442 189.662891 324.587471 208.37832 " transform="matrix(0.237778,0,0,0.236686,0,0)"/>
<path style="fill:none;stroke-width:8;stroke-linecap:round;stroke-linejoin:round;stroke:rgb(10.196078%,9.803922%,9.803922%);stroke-opacity:1;stroke-miterlimit:4;" d="M 269.372445 269.855371 C 275.73014 235.048633 339.257812 222.307617 342.247737 296.954785 " transform="matrix(0.237778,0,0,0.236686,0,0)"/>
<path style="fill:none;stroke-width:7;stroke-linecap:round;stroke-linejoin:round;stroke:rgb(10.196078%,9.803922%,9.803922%);stroke-opacity:1;stroke-miterlimit:4;" d="M 389.757959 260.184082 C 389.757959 260.184082 396.608499 239.240625 416.305856 242.079297 C 457.392669 247.987695 460.661872 334.468164 396.197795 352.374902 M 418.917932 265.102246 C 418.917932 265.102246 404.60901 258.40166 394.357842 295.535449 M 99.24248 314.597461 L 111.235032 319.631152 M 340.785631 282.612891 L 354.289574 273.48623 M 236.680418 372.575684 L 235.086887 362.706348 M 366.643546 152.430078 C 406.629673 200.852539 377.880403 259.490918 377.880403 259.490918 C 343.134857 142.709277 206.271904 110.592676 206.271904 110.592676 C 283.467801 159.130664 289.398364 192.254004 289.398364 192.254004 C 176.241238 216.811816 106.027307 144.70625 106.027307 144.70625 C 106.027307 144.70625 114.241384 214.303223 51.436551 292.168652 C 51.436551 292.168652 33.365581 247.509082 43.222474 210.457813 M 13.536799 315.620703 C 13.536799 315.620703 -15.623175 204.252344 25.496495 117.359277 C 90.568414 -20.167773 265.610397 -10.397461 297.086741 37.711426 C 297.086741 37.711426 408.502482 33.370898 427.608426 244.884961 M 54.212909 401.969141 C 54.212909 401.969141 87.447065 475.543555 73.729556 514.905371 C 73.729556 514.905371 108.935091 501.652734 111.185748 489.472852 C 111.185748 489.472852 126.529644 511.472559 199.782783 494.605566 M 431.058338 336.18457 C 431.058338 336.18457 440.931659 440.53877 415.977293 469.041016 L 398.399168 427.979297 C 398.399168 427.979297 390.398657 475.279492 305.54724 479.042383 M 229.665596 507.594141 C 229.665596 507.594141 161.587325 529.329785 141.479264 536.211914 C 126.266793 541.427148 95.283294 552.699316 87.989194 582.37334 C 78.707287 620.167285 80.580096 727.789258 87.217071 764.923047 C 90.617699 784.03457 109.756498 816.646289 165.447941 808.014746 C 220.120838 799.564746 266.349664 778.984375 266.349664 778.984375 M 285.833455 507.594141 C 285.833455 507.594141 353.928154 529.329785 374.036215 536.211914 C 389.248686 541.427148 423.501387 551.593555 430.795488 581.267578 C 440.077395 619.078027 431.863318 724.224414 425.242772 761.358203 C 421.842144 780.469727 410.802424 808.757422 350.23182 799.482227 C 295.558922 791.098242 206.239048 751.901465 206.239048 751.901465 C 206.239048 751.901465 200.489194 741.735059 201.819874 730.693945 C 204.34981 709.585449 228.778475 684.714063 250.890771 688.262402 L 369.140625 728.251367 M 225.80498 508.947461 L 257.757739 566.777148 L 289.891209 509.442578 M 249.707944 555.29043 L 209.656104 576.019336 L 221.79651 512.182227 M 225.80498 567.651855 L 246.948014 685.836328 M 209.803957 514.492773 L 177.144787 566.777148 L 193.474372 582.010254 L 175.041983 602.392578 L 219.463712 686.413965 M 305.711522 514.492773 L 338.370692 566.777148 L 322.041107 582.010254 L 340.473496 602.392578 L 292.207579 702.059668 M 292.55257 510.432813 L 305.169393 576.019336 L 265.133981 555.29043 M 289.61193 569.467285 L 267.1875 691.282617 M 231.291983 512.066699 L 231.489121 496.35498 M 283.582798 512.066699 L 282.49854 491.700879 M 239.604629 688.262402 L 225.459988 685.819824 C 209.771101 686.47998 194.969334 699.518066 191.880841 721.402246 C 189.925891 735.183008 195.62646 740.629297 195.62646 740.629297 L 204.251241 746.818262 M 214.633835 687.800293 C 214.633835 687.800293 197.729264 677.204785 185.12887 678.525098 C 172.528475 679.84541 146.999124 691.777734 136.057973 713.001758 M 117.494159 619.507129 L 138.719334 725.924316 M 398.02132 616.156836 L 388.443706 664.150195 M 117.494159 732.888965 C 117.494159 732.888965 130.094553 718.316016 148.658367 730.578418 C 148.658367 730.578418 176.84908 729.588184 190.435164 727.261133 M 361.090829 725.445703 C 364.984302 723.415723 369.600613 720.527539 372.442684 716.979199 C 372.442684 716.979199 398.267742 723.844824 408.042494 717.424805 C 417.800818 711.004785 399.483426 704.403223 399.483426 704.403223 C 399.483426 704.403223 410.375292 705.27793 413.529498 700.062695 C 417.817246 692.98252 399.746276 688.328418 399.746276 688.328418 C 399.746276 688.328418 412.921656 682.271484 403.754746 677.089258 C 394.259273 671.708984 375.580461 663.638574 354.667421 668.127637 C 333.507959 672.682715 313.613464 696.332813 306.007228 706.284668 M 399.483426 704.403223 C 399.483426 704.403223 384.944509 697.88418 377.026139 698.164746 C 362.257228 698.692871 351.989632 707.126367 351.989632 707.126367 M 399.746276 688.328418 C 399.746276 688.328418 381.067465 682.04043 372.524825 681.710352 C 364.409317 681.380273 354.355286 681.95791 341.820605 692.949512 M 144.354191 809.813672 L 139.935018 841.501172 M 370.438449 804.680957 L 376.237588 841.501172 M 240.508178 455.194238 C 240.508178 455.194238 249.445093 441.710547 262.669758 451.876953 " transform="matrix(0.237778,0,0,0.236686,0,0)"/>
</g>
</svg>
