<?xml version="1.0" encoding="UTF-8"?>
<svg xmlns="http://www.w3.org/2000/svg" xmlns:xlink="http://www.w3.org/1999/xlink" width="179pt" height="199pt" viewBox="0 0 179 199" version="1.1">
<g id="surface1">
<path style=" stroke:none;fill-rule:nonzero;fill:rgb(80%,70.980392%,100%);fill-opacity:1;" d="M 46.523438 55.75 C 41.722656 34.484375 56.441406 13.0625 79.402344 7.898438 C 102.363281 2.738281 124.871094 15.792969 129.671875 37.058594 C 134.476562 58.324219 119.753906 79.746094 96.792969 84.910156 C 73.832031 90.070312 51.324219 77.015625 46.523438 55.75 Z M 46.523438 55.75 "/>
<path style=" stroke:none;fill-rule:nonzero;fill:rgb(80%,70.980392%,100%);fill-opacity:1;" d="M 88.191406 55.796875 C 83.820312 36.453125 97.0625 17 117.761719 12.347656 C 138.460938 7.695312 158.785156 19.601562 163.152344 38.945312 C 167.519531 58.289062 154.28125 77.742188 133.578125 82.394531 C 112.878906 87.046875 92.558594 75.140625 88.191406 55.796875 Z M 88.191406 55.796875 "/>
<path style=" stroke:none;fill-rule:nonzero;fill:rgb(80%,70.980392%,100%);fill-opacity:1;" d="M 67.910156 109.21875 C 63.105469 87.953125 77.828125 66.53125 100.789062 61.371094 C 123.75 56.207031 146.257812 69.261719 151.058594 90.527344 C 155.859375 111.792969 141.140625 133.21875 118.179688 138.378906 C 95.21875 143.539062 72.710938 130.484375 67.910156 109.21875 Z M 67.910156 109.21875 "/>
<path style=" stroke:none;fill-rule:nonzero;fill:rgb(80%,70.980392%,100%);fill-opacity:1;" d="M 6.253906 74.21875 C 2.285156 56.652344 13.664062 39.132812 31.664062 35.085938 C 40.308594 33.144531 49.359375 34.628906 56.816406 39.21875 C 64.277344 43.8125 69.539062 51.128906 71.441406 59.5625 C 75.410156 77.125 64.03125 94.644531 46.027344 98.691406 C 28.027344 102.738281 10.21875 91.78125 6.253906 74.21875 Z M 6.253906 74.21875 "/>
<path style=" stroke:none;fill-rule:nonzero;fill:rgb(80%,70.980392%,100%);fill-opacity:1;" d="M 16.074219 116.089844 C 11.273438 94.824219 25.996094 73.402344 48.957031 68.238281 C 71.917969 63.078125 94.421875 76.132812 99.226562 97.398438 C 104.027344 118.664062 89.304688 140.085938 66.34375 145.25 C 43.382812 150.410156 20.878906 137.355469 16.074219 116.089844 Z M 16.074219 116.089844 "/>
<path style=" stroke:none;fill-rule:nonzero;fill:rgb(80%,70.980392%,100%);fill-opacity:1;" d="M 58.464844 136.015625 C 55.042969 120.859375 65.410156 105.613281 81.625 101.96875 C 97.835938 98.324219 113.757812 107.660156 117.179688 122.816406 C 120.601562 137.976562 110.234375 153.222656 94.019531 156.867188 C 77.808594 160.511719 61.886719 151.175781 58.464844 136.015625 Z M 58.464844 136.015625 "/>
<path style=" stroke:none;fill-rule:nonzero;fill:rgb(55.686275%,48.627451%,76.470588%);fill-opacity:1;" d="M 79.023438 109.28125 C 84 109.28125 87.539062 110.125 89.640625 111.808594 C 91.75 113.492188 92.804688 115.5625 92.804688 118.027344 C 92.804688 121.144531 91.460938 123.679688 88.777344 125.640625 C 87.757812 126.402344 86.523438 127.089844 85.070312 127.703125 L 84.195312 128.085938 C 83.941406 128.191406 83.699219 128.941406 83.457031 130.339844 C 83.222656 131.734375 83.105469 132.738281 83.105469 133.351562 C 82.925781 133.535156 82.410156 133.746094 81.558594 133.984375 C 80.703125 134.21875 79.996094 134.335938 79.433594 134.335938 C 78.871094 134.335938 78.441406 134.300781 78.152344 134.226562 C 77.75 133.570312 77.550781 132.15625 77.550781 129.988281 C 77.550781 127.8125 77.644531 126.414062 77.828125 125.796875 C 83.5625 124.421875 86.429688 122.105469 86.429688 118.84375 C 86.429688 116.019531 83.816406 114.605469 78.589844 114.605469 C 76.738281 114.605469 75.390625 114.785156 74.554688 115.148438 C 74.339844 114.785156 74.230469 114.027344 74.230469 112.871094 C 74.230469 111.707031 74.390625 110.726562 74.714844 109.933594 C 75.699219 109.5 77.132812 109.28125 79.023438 109.28125 Z M 77.46875 144.359375 C 76.761719 143.652344 76.40625 142.792969 76.40625 141.78125 C 76.40625 140.761719 76.761719 139.902344 77.46875 139.199219 C 78.175781 138.492188 79.039062 138.140625 80.054688 138.140625 C 81.074219 138.140625 81.9375 138.492188 82.644531 139.199219 C 83.355469 139.902344 83.707031 140.761719 83.707031 141.78125 C 83.707031 142.792969 83.355469 143.652344 82.644531 144.359375 C 81.9375 145.066406 81.074219 145.417969 80.054688 145.417969 C 79.039062 145.417969 78.175781 145.066406 77.46875 144.359375 Z M 77.46875 144.359375 "/>
<path style=" stroke:none;fill-rule:nonzero;fill:rgb(55.686275%,48.627451%,76.470588%);fill-opacity:1;" d="M 123.886719 31.0625 C 123.65625 32.007812 123.210938 32.808594 122.550781 33.464844 C 121.894531 34.125 121.160156 34.691406 120.347656 35.164062 C 119.539062 35.632812 118.6875 36 117.792969 36.269531 C 116.90625 36.539062 116.308594 36.699219 116.003906 36.742188 C 115.902344 37.585938 115.691406 38.65625 115.371094 39.953125 C 115.265625 40.382812 115.136719 40.875 114.980469 41.429688 C 114.832031 41.984375 114.605469 42.519531 114.304688 43.03125 C 114.007812 43.546875 113.585938 43.976562 113.039062 44.320312 C 112.492188 44.664062 111.820312 44.742188 111.023438 44.546875 C 109.652344 44.210938 108.898438 43.3125 108.757812 41.84375 C 108.71875 41.382812 108.738281 40.8125 108.824219 40.125 C 108.910156 39.4375 109.019531 38.738281 109.15625 38.03125 C 109.289062 37.324219 109.4375 36.644531 109.597656 35.996094 C 109.757812 35.34375 109.890625 34.804688 109.996094 34.382812 C 110.085938 34.015625 110.21875 33.5625 110.394531 33.023438 C 110.578125 32.484375 110.855469 32.039062 111.238281 31.691406 C 111.636719 31.339844 112.160156 31.066406 112.808594 30.871094 C 113.460938 30.671875 114.09375 30.46875 114.703125 30.265625 C 115.320312 30.066406 115.832031 29.84375 116.234375 29.601562 C 116.636719 29.355469 116.878906 29.058594 116.96875 28.707031 C 117.035156 28.425781 117.03125 28.148438 116.953125 27.878906 C 116.875 27.605469 116.742188 27.351562 116.550781 27.113281 C 116.355469 26.878906 116.121094 26.671875 115.847656 26.488281 C 115.570312 26.308594 115.277344 26.179688 114.972656 26.105469 C 114.167969 25.910156 113.503906 25.886719 112.980469 26.035156 C 112.453125 26.183594 111.96875 26.382812 111.519531 26.632812 C 111.078125 26.882812 110.601562 27.148438 110.09375 27.429688 C 109.589844 27.710938 108.972656 27.761719 108.242188 27.582031 C 107.445312 27.390625 106.792969 26.929688 106.28125 26.203125 C 105.769531 25.480469 105.617188 24.699219 105.824219 23.863281 C 106.105469 22.707031 106.683594 21.8125 107.546875 21.175781 C 108.414062 20.539062 109.367188 20.109375 110.40625 19.886719 C 111.445312 19.664062 112.492188 19.574219 113.542969 19.621094 C 114.59375 19.664062 115.519531 19.785156 116.320312 19.980469 C 117.417969 20.25 118.484375 20.757812 119.511719 21.507812 C 120.539062 22.253906 121.421875 23.125 122.152344 24.128906 C 122.890625 25.128906 123.4375 26.238281 123.792969 27.460938 C 124.148438 28.679688 124.179688 29.882812 123.886719 31.0625 Z M 113.914062 47.800781 C 113.769531 48.390625 113.5 48.855469 113.109375 49.195312 C 112.71875 49.527344 112.300781 49.773438 111.847656 49.933594 C 111.398438 50.085938 110.925781 50.164062 110.4375 50.167969 C 109.949219 50.175781 109.496094 50.128906 109.082031 50.027344 C 108.371094 49.855469 107.71875 49.496094 107.132812 48.949219 C 106.546875 48.398438 106.371094 47.660156 106.597656 46.730469 C 106.738281 46.171875 107 45.71875 107.386719 45.371094 C 107.777344 45.019531 108.207031 44.753906 108.671875 44.578125 C 109.136719 44.398438 109.617188 44.296875 110.117188 44.277344 C 110.613281 44.253906 111.074219 44.296875 111.496094 44.398438 C 112.222656 44.574219 112.863281 44.953125 113.417969 45.53125 C 113.980469 46.109375 114.144531 46.867188 113.914062 47.800781 Z M 113.914062 47.800781 "/>
<path style=" stroke:none;fill-rule:nonzero;fill:rgb(55.686275%,48.627451%,76.470588%);fill-opacity:1;" d="M 63.117188 94.113281 L 58.855469 93.007812 C 58.121094 92.832031 57.457031 92.703125 56.863281 92.617188 L 56.015625 92.417969 C 55.378906 91.359375 55.226562 90.117188 55.570312 88.691406 L 56.480469 85.59375 C 58.304688 81.199219 60.214844 78.097656 62.210938 76.296875 C 62.765625 75.675781 63.734375 74.796875 65.125 73.660156 C 69.125 70.410156 71.28125 68.128906 71.59375 66.808594 C 71.792969 65.992188 71.265625 65.164062 70.023438 64.332031 C 69.578125 63.9375 69.253906 63.71875 69.054688 63.667969 C 68.859375 63.625 68.609375 63.625 68.304688 63.679688 C 67.996094 63.730469 67.738281 63.875 67.527344 64.113281 C 65.617188 66.027344 63.929688 67.074219 62.46875 67.25 C 61.03125 67.039062 59.929688 66.839844 59.171875 66.660156 L 50.84375 64.257812 L 51.242188 62.574219 C 52.570312 58.054688 55.269531 54.371094 59.34375 51.527344 C 63.414062 48.683594 67.867188 47.71875 72.695312 48.625 C 73.316406 48.710938 73.945312 48.832031 74.574219 48.980469 C 79.214844 50.089844 82.882812 52.53125 85.585938 56.304688 C 88.285156 60.078125 89.109375 64.167969 88.058594 68.566406 C 87.109375 72.539062 84.84375 75.917969 81.261719 78.703125 C 80.457031 79.386719 79.402344 80.144531 78.105469 80.984375 C 76.816406 81.816406 75.855469 82.492188 75.222656 83.003906 C 72.953125 84.972656 71.03125 87.703125 69.457031 91.199219 C 69.03125 91.945312 68.792969 92.417969 68.742188 92.621094 C 68.695312 92.816406 68.679688 93.003906 68.695312 93.179688 L 68.269531 94.96875 C 66.339844 94.757812 64.625 94.472656 63.117188 94.113281 Z M 51.765625 106.113281 C 51.882812 104.140625 52.183594 102.152344 52.664062 100.136719 L 54.308594 94.128906 C 56.347656 93.789062 58.710938 93.941406 61.398438 94.582031 C 64.089844 95.222656 66.132812 96.09375 67.535156 97.1875 L 66.667969 100.257812 C 65.441406 104.230469 64.734375 106.597656 64.554688 107.355469 L 64.125 109.152344 L 62.320312 108.71875 L 53.375 106.5 Z M 51.765625 106.113281 "/>
<path style=" stroke:none;fill-rule:nonzero;fill:rgb(55.686275%,48.627451%,76.470588%);fill-opacity:1;" d="M 38.28125 53.003906 C 38.554688 53.492188 38.683594 53.839844 38.664062 54.035156 C 38.648438 54.234375 38.628906 54.425781 38.609375 54.609375 C 38.488281 54.957031 38.429688 55.195312 38.429688 55.316406 C 38.425781 55.441406 38.402344 55.546875 38.351562 55.628906 C 38.3125 55.746094 38.273438 55.855469 38.226562 55.953125 C 38.183594 56.054688 38.144531 56.164062 38.101562 56.277344 C 38.09375 56.632812 38.003906 56.984375 37.832031 57.332031 C 37.660156 57.679688 37.542969 57.875 37.488281 57.925781 C 37.464844 58.109375 37.421875 58.273438 37.351562 58.414062 C 37.285156 58.554688 37.21875 58.707031 37.15625 58.863281 C 37.105469 59.195312 36.957031 59.570312 36.71875 59.988281 C 36.625 60.4375 36.460938 60.867188 36.21875 61.285156 C 35.976562 61.703125 35.820312 62.171875 35.746094 62.683594 C 35.425781 63.195312 35.230469 63.722656 35.167969 64.269531 C 34.964844 64.570312 34.867188 64.863281 34.871094 65.144531 C 34.660156 65.414062 34.53125 65.710938 34.476562 66.042969 C 34.425781 66.375 34.296875 66.675781 34.085938 66.945312 C 34.015625 67.351562 33.898438 67.734375 33.734375 68.097656 C 33.566406 68.460938 33.445312 68.828125 33.367188 69.203125 C 33.269531 69.757812 33.125 70.273438 32.9375 70.746094 C 33.144531 71.257812 33.332031 71.832031 33.507812 72.472656 C 33.679688 73.113281 33.839844 73.714844 33.992188 74.273438 C 34.027344 74.402344 34.042969 74.566406 34.042969 74.761719 C 34.042969 74.957031 33.988281 75.121094 33.882812 75.253906 C 33.480469 75.328125 33.265625 75.386719 33.242188 75.425781 C 33.109375 75.464844 33.015625 75.4375 32.957031 75.347656 C 32.894531 75.257812 32.800781 75.230469 32.667969 75.265625 C 32.535156 75.300781 32.433594 75.375 32.355469 75.480469 C 32.277344 75.589844 32.207031 75.652344 32.140625 75.671875 C 31.976562 75.714844 31.710938 75.71875 31.347656 75.675781 C 31.121094 75.878906 30.855469 76.019531 30.558594 76.101562 C 30.230469 76.1875 29.960938 76.171875 29.753906 76.054688 C 29.652344 76.082031 29.589844 76.132812 29.558594 76.210938 C 29.523438 76.292969 29.394531 76.363281 29.164062 76.425781 C 28.933594 76.488281 28.679688 76.46875 28.40625 76.363281 C 28.054688 75.71875 27.8125 75.078125 27.675781 74.445312 C 27.539062 73.8125 27.335938 73.179688 27.058594 72.546875 C 26.953125 72.292969 26.871094 72.050781 26.808594 71.820312 C 26.746094 71.589844 26.671875 71.382812 26.585938 71.195312 C 26.5 71.003906 26.433594 70.8125 26.378906 70.613281 C 26.789062 69.515625 27.15625 68.410156 27.472656 67.300781 C 27.792969 66.191406 28.199219 65.113281 28.695312 64.0625 C 29.078125 63.253906 29.449219 62.429688 29.804688 61.589844 C 30.164062 60.753906 30.535156 59.929688 30.917969 59.121094 C 31.011719 58.8125 31.136719 58.53125 31.296875 58.277344 C 31.460938 58.023438 31.570312 57.746094 31.632812 57.445312 C 31.519531 57.300781 31.3125 57.117188 31.007812 56.902344 C 30.703125 56.683594 30.453125 56.546875 30.261719 56.492188 C 30.136719 56.421875 30.007812 56.378906 29.878906 56.359375 C 29.75 56.339844 29.628906 56.3125 29.511719 56.273438 C 29.144531 56.089844 28.933594 55.996094 28.882812 55.992188 C 28.828125 55.992188 28.761719 55.980469 28.6875 55.96875 C 28.496094 55.914062 28.269531 55.851562 28.003906 55.78125 C 27.734375 55.710938 27.457031 55.628906 27.164062 55.53125 C 26.875 55.433594 26.609375 55.339844 26.371094 55.242188 C 26.136719 55.148438 25.953125 55.066406 25.828125 54.992188 C 25.515625 55.148438 25.324219 55.21875 25.25 55.203125 C 25.015625 55.515625 24.789062 55.863281 24.578125 56.257812 C 24.367188 56.648438 24.226562 57.050781 24.160156 57.457031 C 23.898438 57.667969 23.730469 57.960938 23.652344 58.332031 C 23.464844 58.558594 23.332031 58.789062 23.253906 59.023438 C 23.175781 59.257812 23.0625 59.480469 22.90625 59.699219 C 22.714844 60.035156 22.5625 60.25 22.445312 60.351562 C 22.332031 60.453125 22.222656 60.695312 22.113281 61.078125 C 22.007812 61.210938 21.90625 61.355469 21.804688 61.507812 C 21.703125 61.65625 21.640625 61.824219 21.621094 62.003906 C 21.480469 62.148438 21.328125 62.332031 21.15625 62.554688 C 20.988281 62.777344 20.804688 62.914062 20.605469 62.96875 C 20.285156 62.558594 19.960938 62.402344 19.628906 62.492188 C 19.347656 62.355469 19.203125 62.21875 19.199219 62.078125 C 19.199219 61.9375 19.132812 61.882812 19 61.921875 C 18.75 61.917969 18.585938 61.855469 18.5 61.738281 C 18.414062 61.621094 18.273438 61.585938 18.074219 61.640625 C 17.527344 61.578125 17.054688 61.386719 16.648438 61.074219 C 16.71875 60.808594 16.742188 60.554688 16.710938 60.316406 C 16.882812 60.164062 16.964844 59.949219 16.960938 59.667969 C 17.113281 59.449219 17.292969 59.101562 17.5 58.621094 C 17.707031 58.140625 17.921875 57.632812 18.148438 57.097656 C 18.375 56.558594 18.574219 56.046875 18.742188 55.558594 C 18.914062 55.074219 19.03125 54.695312 19.101562 54.429688 C 19.4375 53.84375 19.773438 53.242188 20.101562 52.625 C 20.429688 52.007812 20.824219 51.441406 21.285156 50.929688 C 21.324219 50.8125 21.441406 50.648438 21.632812 50.4375 C 21.824219 50.230469 22.03125 50.015625 22.253906 49.792969 C 22.476562 49.574219 22.695312 49.367188 22.90625 49.167969 C 23.117188 48.96875 23.28125 48.820312 23.394531 48.71875 C 23.882812 48.691406 24.1875 48.644531 24.3125 48.578125 C 24.433594 48.507812 24.578125 48.453125 24.742188 48.40625 C 25.007812 48.335938 25.207031 48.300781 25.347656 48.296875 C 25.742188 48.050781 26.03125 47.972656 26.214844 48.0625 C 26.398438 48.152344 26.621094 48.164062 26.882812 48.09375 C 27.203125 48.21875 27.476562 48.382812 27.707031 48.585938 C 27.9375 48.789062 28.199219 48.972656 28.492188 49.140625 C 29.027344 49.417969 29.582031 49.648438 30.160156 49.828125 C 30.738281 50.003906 31.3125 50.230469 31.878906 50.5 C 32.039062 50.5625 32.183594 50.636719 32.3125 50.726562 C 32.441406 50.816406 32.574219 50.910156 32.710938 51.015625 C 32.949219 51.128906 33.191406 51.230469 33.429688 51.324219 C 33.664062 51.417969 33.921875 51.519531 34.195312 51.621094 C 34.640625 51.816406 35.082031 52.023438 35.53125 52.238281 C 35.976562 52.453125 36.429688 52.691406 36.890625 52.957031 C 37.390625 53.101562 37.851562 53.117188 38.28125 53.003906 Z M 33.496094 79.328125 C 33.675781 79.457031 33.941406 79.691406 34.296875 80.035156 C 34.65625 80.382812 35.019531 80.742188 35.386719 81.121094 C 35.753906 81.496094 36.078125 81.859375 36.367188 82.203125 C 36.65625 82.550781 36.824219 82.820312 36.878906 83.019531 C 36.914062 83.148438 36.953125 83.269531 37.003906 83.382812 C 37.050781 83.492188 37.089844 83.613281 37.125 83.746094 C 37.105469 83.925781 37.03125 84.078125 36.90625 84.199219 C 36.777344 84.324219 36.648438 84.457031 36.507812 84.597656 C 36.238281 84.636719 36.074219 84.726562 36.023438 84.863281 C 35.972656 85 35.949219 85.140625 35.949219 85.28125 C 35.570312 85.453125 35.351562 85.511719 35.28125 85.460938 C 35.214844 85.40625 35.148438 85.390625 35.082031 85.40625 C 34.953125 85.445312 34.828125 85.546875 34.714844 85.71875 C 34.601562 85.890625 34.507812 86.023438 34.425781 86.113281 C 34.328125 86.140625 34.222656 86.179688 34.109375 86.226562 C 34 86.273438 33.886719 86.277344 33.769531 86.238281 C 33.542969 86.582031 33.367188 86.808594 33.234375 86.914062 C 33.105469 87.019531 32.960938 87.109375 32.804688 87.1875 C 32.597656 87.066406 32.324219 86.851562 31.992188 86.535156 C 31.660156 86.21875 31.433594 86.023438 31.304688 85.953125 C 30.890625 85.464844 30.480469 84.957031 30.074219 84.433594 C 29.667969 83.910156 29.257812 83.402344 28.84375 82.914062 C 28.804688 82.640625 28.871094 82.421875 29.039062 82.253906 C 29.203125 82.085938 29.386719 81.972656 29.582031 81.921875 C 29.765625 81.800781 29.863281 81.648438 29.886719 81.46875 C 29.90625 81.285156 30.015625 81.167969 30.214844 81.113281 C 30.402344 80.886719 30.628906 80.71875 30.902344 80.613281 C 31.171875 80.503906 31.363281 80.328125 31.476562 80.085938 C 31.898438 80.078125 32.21875 79.992188 32.4375 79.824219 C 32.660156 79.660156 32.808594 79.53125 32.890625 79.4375 Z M 33.496094 79.328125 "/>
<path style=" stroke:none;fill-rule:nonzero;fill:rgb(55.686275%,48.627451%,76.470588%);fill-opacity:1;" d="M 76.992188 28.621094 C 76.480469 28.667969 75.980469 28.109375 75.492188 26.9375 C 75 25.765625 74.703125 24.625 74.59375 23.515625 C 74.570312 23.261719 74.824219 22.949219 75.359375 22.574219 C 75.894531 22.203125 76.722656 21.839844 77.84375 21.480469 C 78.96875 21.125 80.203125 20.882812 81.546875 20.75 C 86.777344 20.246094 89.566406 21.8125 89.917969 25.445312 C 90.015625 26.480469 89.886719 27.394531 89.53125 28.191406 C 89.175781 28.984375 88.714844 29.585938 88.148438 29.992188 C 86.996094 30.777344 85.910156 31.234375 84.886719 31.351562 L 84.265625 31.4375 C 84.285156 31.636719 84.359375 31.953125 84.492188 32.378906 C 84.625 32.804688 84.710938 33.183594 84.742188 33.507812 C 84.769531 33.800781 84.292969 34.074219 83.316406 34.328125 C 82.335938 34.574219 81.484375 34.734375 80.757812 34.804688 C 79.644531 34.914062 78.929688 34.707031 78.613281 34.183594 C 78.296875 33.664062 78.054688 32.523438 77.886719 30.761719 C 77.84375 30.34375 78.597656 29.960938 80.148438 29.609375 C 80.71875 29.460938 81.230469 29.21875 81.683594 28.886719 C 82.140625 28.546875 82.34375 28.121094 82.292969 27.613281 C 82.246094 27.105469 81.8125 26.890625 80.992188 26.96875 C 80.171875 27.050781 79.332031 27.34375 78.472656 27.847656 C 77.613281 28.351562 77.117188 28.609375 76.992188 28.621094 Z M 81.992188 35.617188 C 83.230469 35.496094 84.191406 35.5625 84.875 35.820312 C 85.5625 36.074219 85.957031 36.699219 86.054688 37.699219 C 86.210938 39.335938 85.015625 40.277344 82.46875 40.523438 C 79.917969 40.769531 78.566406 40.074219 78.410156 38.4375 C 78.25 36.804688 79.445312 35.863281 81.992188 35.617188 Z M 81.992188 35.617188 "/>
<path style=" stroke:none;fill-rule:nonzero;fill:rgb(44.313725%,28.235294%,12.941176%);fill-opacity:1;" d="M 171.203125 88.261719 C 171.203125 68.046875 154.25 51.660156 133.34375 51.660156 C 123.300781 51.660156 113.671875 55.515625 106.574219 62.378906 C 99.472656 69.246094 95.484375 78.554688 95.484375 88.261719 C 95.484375 108.476562 112.433594 124.863281 133.34375 124.863281 C 154.25 124.863281 171.203125 108.476562 171.203125 88.261719 Z M 171.203125 88.261719 "/>
<path style=" stroke:none;fill-rule:nonzero;fill:rgb(86.666667%,70.196078%,45.490196%);fill-opacity:1;" d="M 141.238281 113.417969 L 121.867188 113.417969 L 121.867188 141.460938 L 141.238281 141.460938 Z M 141.238281 113.417969 "/>
<path style=" stroke:none;fill-rule:nonzero;fill:rgb(86.666667%,70.196078%,45.490196%);fill-opacity:1;" d="M 165.832031 97.636719 C 165.832031 81.039062 150.484375 67.585938 131.550781 67.585938 C 112.621094 67.585938 97.273438 81.039062 97.273438 97.636719 C 97.273438 114.234375 112.621094 127.6875 131.550781 127.6875 C 150.484375 127.6875 165.832031 114.234375 165.832031 97.636719 Z M 165.832031 97.636719 "/>
<path style=" stroke:none;fill-rule:nonzero;fill:rgb(86.666667%,70.196078%,45.490196%);fill-opacity:1;" d="M 165.597656 98.484375 C 170.804688 97.644531 174.585938 93.335938 174.191406 88.695312 C 173.796875 84.054688 169.363281 80.710938 164.117188 81.09375 Z M 165.597656 98.484375 "/>
<path style=" stroke:none;fill-rule:nonzero;fill:rgb(0%,0%,0%);fill-opacity:1;" d="M 125.777344 89.847656 C 125.777344 85.699219 122.371094 82.339844 118.171875 82.339844 C 116.15625 82.339844 114.222656 83.128906 112.796875 84.539062 C 111.371094 85.945312 110.570312 87.855469 110.570312 89.847656 C 110.570312 93.992188 113.972656 97.355469 118.171875 97.355469 C 122.371094 97.355469 125.777344 93.992188 125.777344 89.847656 Z M 125.777344 89.847656 "/>
<path style="fill-rule:nonzero;fill:rgb(100%,100%,100%);fill-opacity:1;stroke-width:2;stroke-linecap:butt;stroke-linejoin:round;stroke:rgb(0%,0%,0%);stroke-opacity:1;stroke-miterlimit:10;" d="M 291.053596 211.523418 C 291.053596 207.862123 288.059139 204.889114 284.368519 204.889114 C 282.594732 204.889114 280.897237 205.586958 279.647957 206.829695 C 278.389141 208.072432 277.683441 209.764467 277.683441 211.523418 C 277.683441 215.184713 280.677898 218.157722 284.368519 218.157722 C 288.059139 218.157722 291.053596 215.184713 291.053596 211.523418 Z M 291.053596 211.523418 " transform="matrix(0.409611,0,0,0.408624,0,0)"/>
<path style=" stroke:none;fill-rule:nonzero;fill:rgb(77.254902%,51.764706%,23.137255%);fill-opacity:1;" d="M 135.898438 101.527344 L 124.785156 101.742188 L 125.621094 104.097656 L 128.121094 106.023438 L 131.734375 106.023438 L 134.511719 104.738281 Z M 135.898438 101.527344 "/>
<path style=" stroke:none;fill-rule:nonzero;fill:rgb(54.117647%,36.078431%,16.078431%);fill-opacity:1;" d="M 108.097656 81.835938 L 107.105469 78.722656 L 112.40625 74.847656 L 121.757812 74.761719 L 112.769531 77.328125 Z M 108.097656 81.835938 "/>
<path style=" stroke:none;fill-rule:nonzero;fill:rgb(54.117647%,36.078431%,16.078431%);fill-opacity:1;" d="M 147.445312 79.871094 L 148.4375 76.757812 L 143.136719 72.882812 L 133.78125 72.796875 L 142.773438 75.359375 Z M 147.445312 79.871094 "/>
<path style="fill-rule:nonzero;fill:rgb(100%,100%,100%);fill-opacity:1;stroke-width:2;stroke-linecap:butt;stroke-linejoin:round;stroke:rgb(77.254902%,51.764706%,23.137255%);stroke-opacity:1;stroke-miterlimit:10;" d="M 307.055822 292.884461 C 300.857105 291.374058 319.853788 274.635345 329.857564 272.799918 C 339.861339 270.97405 370.883533 278.545187 367.088011 281.891018 C 363.282952 285.236848 313.264076 294.404424 307.055822 292.884461 Z M 307.055822 292.884461 " transform="matrix(0.409611,0,0,0.408624,0,0)"/>
<path style=" stroke:none;fill-rule:nonzero;fill:rgb(77.254902%,51.764706%,23.137255%);fill-opacity:1;" d="M 151.519531 100.277344 C 151.519531 99.949219 151.167969 99.679688 150.738281 99.679688 C 150.304688 99.679688 149.953125 99.949219 149.953125 100.277344 C 149.953125 100.609375 150.304688 100.875 150.738281 100.875 C 151.167969 100.875 151.519531 100.609375 151.519531 100.277344 Z M 151.519531 100.277344 "/>
<path style=" stroke:none;fill-rule:nonzero;fill:rgb(77.254902%,51.764706%,23.137255%);fill-opacity:1;" d="M 147.824219 102.875 C 147.824219 102.546875 147.472656 102.277344 147.039062 102.277344 C 146.605469 102.277344 146.253906 102.546875 146.253906 102.875 C 146.253906 103.207031 146.605469 103.472656 147.039062 103.472656 C 147.472656 103.472656 147.824219 103.207031 147.824219 102.875 Z M 147.824219 102.875 "/>
<path style=" stroke:none;fill-rule:nonzero;fill:rgb(77.254902%,51.764706%,23.137255%);fill-opacity:1;" d="M 144.5 98.933594 C 144.210938 98.726562 143.753906 98.804688 143.484375 99.109375 C 143.214844 99.410156 143.234375 99.820312 143.527344 100.027344 C 143.820312 100.230469 144.273438 100.152344 144.542969 99.851562 C 144.8125 99.546875 144.792969 99.136719 144.5 98.933594 Z M 144.5 98.933594 "/>
<path style=" stroke:none;fill-rule:nonzero;fill:rgb(77.254902%,51.764706%,23.137255%);fill-opacity:1;" d="M 140.875 100.996094 C 140.875 100.664062 140.523438 100.398438 140.089844 100.398438 C 139.65625 100.398438 139.304688 100.664062 139.304688 100.996094 C 139.304688 101.324219 139.65625 101.59375 140.089844 101.59375 C 140.523438 101.59375 140.875 101.324219 140.875 100.996094 Z M 140.875 100.996094 "/>
<path style=" stroke:none;fill-rule:nonzero;fill:rgb(77.254902%,51.764706%,23.137255%);fill-opacity:1;" d="M 149.390625 97.296875 C 149.390625 96.96875 149.039062 96.699219 148.605469 96.699219 C 148.171875 96.699219 147.824219 96.96875 147.824219 97.296875 C 147.824219 97.628906 148.171875 97.894531 148.605469 97.894531 C 149.039062 97.894531 149.390625 97.628906 149.390625 97.296875 Z M 149.390625 97.296875 "/>
<path style=" stroke:none;fill-rule:nonzero;fill:rgb(77.254902%,51.764706%,23.137255%);fill-opacity:1;" d="M 155.503906 101.925781 C 155.632812 101.617188 155.410156 101.257812 155.003906 101.121094 C 154.597656 100.984375 154.164062 101.125 154.039062 101.4375 C 153.910156 101.746094 154.132812 102.105469 154.539062 102.242188 C 154.945312 102.375 155.378906 102.234375 155.503906 101.925781 Z M 155.503906 101.925781 "/>
<path style=" stroke:none;fill-rule:nonzero;fill:rgb(77.254902%,51.764706%,23.137255%);fill-opacity:1;" d="M 107.304688 102.148438 C 107.253906 102.472656 107.554688 102.792969 107.984375 102.863281 C 108.410156 102.929688 108.800781 102.722656 108.851562 102.394531 C 108.90625 102.070312 108.601562 101.75 108.175781 101.679688 C 107.75 101.613281 107.359375 101.820312 107.304688 102.148438 Z M 107.304688 102.148438 "/>
<path style=" stroke:none;fill-rule:nonzero;fill:rgb(77.254902%,51.764706%,23.137255%);fill-opacity:1;" d="M 111.375 100.167969 C 111.320312 100.496094 111.625 100.816406 112.050781 100.882812 C 112.480469 100.953125 112.867188 100.742188 112.921875 100.417969 C 112.976562 100.09375 112.671875 99.773438 112.246094 99.703125 C 111.816406 99.632812 111.425781 99.84375 111.375 100.167969 Z M 111.375 100.167969 "/>
<path style=" stroke:none;fill-rule:nonzero;fill:rgb(77.254902%,51.764706%,23.137255%);fill-opacity:1;" d="M 114.019531 104.589844 C 114.273438 104.839844 114.734375 104.832031 115.050781 104.578125 C 115.363281 104.320312 115.410156 103.914062 115.15625 103.664062 C 114.898438 103.414062 114.4375 103.421875 114.125 103.675781 C 113.808594 103.933594 113.761719 104.339844 114.019531 104.589844 Z M 114.019531 104.589844 "/>
<path style=" stroke:none;fill-rule:nonzero;fill:rgb(77.254902%,51.764706%,23.137255%);fill-opacity:1;" d="M 117.929688 103.128906 C 117.878906 103.453125 118.179688 103.773438 118.609375 103.84375 C 119.035156 103.910156 119.425781 103.703125 119.476562 103.378906 C 119.53125 103.050781 119.226562 102.730469 118.800781 102.664062 C 118.375 102.59375 117.984375 102.804688 117.929688 103.128906 Z M 117.929688 103.128906 "/>
<path style=" stroke:none;fill-rule:nonzero;fill:rgb(77.254902%,51.764706%,23.137255%);fill-opacity:1;" d="M 108.929688 105.425781 C 108.875 105.753906 109.179688 106.074219 109.605469 106.140625 C 110.035156 106.210938 110.421875 106 110.476562 105.675781 C 110.53125 105.351562 110.226562 105.03125 109.800781 104.960938 C 109.371094 104.890625 108.984375 105.101562 108.929688 105.425781 Z M 108.929688 105.425781 "/>
<path style=" stroke:none;fill-rule:nonzero;fill:rgb(77.254902%,51.764706%,23.137255%);fill-opacity:1;" d="M 103.636719 99.886719 C 103.460938 100.171875 103.625 100.5625 104.003906 100.761719 C 104.378906 100.960938 104.832031 100.890625 105.007812 100.605469 C 105.183594 100.320312 105.019531 99.925781 104.640625 99.730469 C 104.265625 99.53125 103.8125 99.601562 103.636719 99.886719 Z M 103.636719 99.886719 "/>
<path style=" stroke:none;fill-rule:nonzero;fill:rgb(81.960784%,33.333333%,100%);fill-opacity:1;" d="M 149.019531 175.046875 C 149.84375 177.566406 154.054688 186.984375 153.957031 190.160156 C 153.863281 193.339844 152.296875 192.921875 148.445312 194.117188 C 144.59375 195.308594 137.148438 197.1875 130.855469 197.324219 C 124.5625 197.460938 114.574219 195.84375 110.683594 194.933594 C 106.792969 194.027344 108.109375 194.355469 107.511719 191.867188 C 106.914062 189.382812 107.171875 181.992188 107.105469 180.015625 "/>
<path style=" stroke:none;fill-rule:nonzero;fill:rgb(81.960784%,33.333333%,100%);fill-opacity:1;" d="M 143.03125 131.15625 C 140.589844 132.125 139.996094 133.976562 137.824219 135.53125 C 135.65625 137.085938 132.746094 141.144531 130.019531 140.484375 C 127.289062 139.824219 124.351562 133.699219 121.449219 131.5625 C 118.550781 129.429688 114.972656 127.496094 112.613281 127.683594 C 110.253906 127.867188 108.304688 130.484375 107.292969 132.679688 C 106.28125 134.875 106.285156 131.246094 106.546875 140.855469 C 106.808594 150.464844 102.347656 182.164062 108.867188 190.339844 C 115.386719 198.515625 138.128906 198.675781 145.664062 189.914062 C 153.203125 181.148438 152.960938 147.789062 154.09375 137.757812 C 155.226562 127.730469 154.308594 130.839844 152.464844 129.738281 C 150.625 128.636719 145.472656 130.191406 143.03125 131.15625 Z M 143.03125 131.15625 "/>
<path style=" stroke:none;fill-rule:nonzero;fill:rgb(60%,0%,100%);fill-opacity:1;" d="M 100.773438 134.234375 C 101.726562 131.722656 103.402344 131.863281 105.398438 131.441406 C 107.390625 131.023438 111.246094 130.511719 112.742188 131.722656 C 114.238281 132.929688 114.101562 134.046875 114.375 138.699219 C 114.644531 143.351562 114.28125 154.007812 114.375 159.636719 C 114.464844 165.265625 114.871094 169.359375 114.917969 172.476562 C 114.960938 175.59375 116.140625 177.269531 114.644531 178.339844 C 113.148438 179.410156 108.296875 179.457031 105.941406 178.898438 C 103.585938 178.339844 101.5 178.617188 100.503906 174.988281 C 99.503906 171.359375 100.09375 161.871094 99.957031 157.125 C 99.820312 152.378906 99.550781 150.332031 99.6875 146.515625 C 99.820312 142.703125 99.820312 136.746094 100.773438 134.234375 Z M 100.773438 134.234375 "/>
<path style=" stroke:none;fill-rule:nonzero;fill:rgb(86.666667%,70.196078%,45.490196%);fill-opacity:1;" d="M 108.820312 138.042969 C 108.207031 136.910156 108.339844 132.792969 108.4375 130.316406 C 108.539062 127.839844 108.84375 124.527344 109.414062 123.183594 C 109.984375 121.835938 111.304688 121.332031 111.859375 122.238281 C 112.414062 123.144531 112.707031 126.140625 112.746094 128.617188 C 112.789062 131.097656 112.765625 135.535156 112.113281 137.105469 C 111.457031 138.675781 109.433594 139.175781 108.820312 138.042969 Z M 108.820312 138.042969 "/>
<path style=" stroke:none;fill-rule:nonzero;fill:rgb(86.666667%,70.196078%,45.490196%);fill-opacity:1;" d="M 110.015625 141.382812 C 109.515625 140.050781 110.367188 135.957031 110.902344 133.5 C 111.4375 131.046875 112.351562 127.820312 113.226562 126.648438 C 114.101562 125.480469 115.683594 125.398438 116.15625 126.484375 C 116.632812 127.574219 116.449219 130.675781 116.074219 133.175781 C 115.695312 135.679688 114.914062 140.128906 113.902344 141.496094 C 112.894531 142.867188 110.515625 142.714844 110.015625 141.382812 Z M 110.015625 141.382812 "/>
<path style=" stroke:none;fill-rule:nonzero;fill:rgb(86.666667%,70.196078%,45.490196%);fill-opacity:1;" d="M 111.152344 141.335938 C 110.96875 139.917969 112.515625 136.042969 113.460938 133.722656 C 114.40625 131.402344 115.835938 128.394531 116.832031 127.414062 C 117.832031 126.429688 119.242188 126.664062 119.449219 127.832031 C 119.65625 129.003906 118.894531 132.03125 118.082031 134.429688 C 117.265625 136.828125 115.714844 141.074219 114.558594 142.222656 C 113.40625 143.375 111.335938 142.753906 111.152344 141.335938 Z M 111.152344 141.335938 "/>
<path style=" stroke:none;fill-rule:nonzero;fill:rgb(86.666667%,70.196078%,45.490196%);fill-opacity:1;" d="M 110.710938 139.996094 C 110.984375 138.539062 113.5625 135.460938 115.125 133.625 C 116.6875 131.792969 118.890625 129.503906 120.085938 128.992188 C 121.277344 128.480469 122.464844 129.332031 122.285156 130.558594 C 122.109375 131.785156 120.492188 134.390625 119.023438 136.359375 C 117.554688 138.324219 114.855469 141.757812 113.46875 142.367188 C 112.082031 142.972656 110.433594 141.453125 110.710938 139.996094 Z M 110.710938 139.996094 "/>
<path style=" stroke:none;fill-rule:nonzero;fill:rgb(86.666667%,70.196078%,45.490196%);fill-opacity:1;" d="M 108.4375 137.160156 L 116.929688 139.109375 L 113.757812 151.917969 L 105.265625 149.96875 Z M 108.4375 137.160156 "/>
<path style=" stroke:none;fill-rule:nonzero;fill:rgb(86.666667%,70.196078%,45.490196%);fill-opacity:1;" d="M 112.996094 141.03125 C 111.828125 141 109.167969 138.71875 107.582031 137.324219 C 105.996094 135.933594 103.988281 133.914062 103.472656 132.683594 C 102.957031 131.449219 103.507812 129.96875 104.488281 129.933594 C 105.464844 129.898438 107.660156 131.207031 109.34375 132.46875 C 111.027344 133.730469 113.976562 136.082031 114.585938 137.511719 C 115.195312 138.9375 114.164062 141.0625 112.996094 141.03125 Z M 112.996094 141.03125 "/>
<path style=" stroke:none;fill-rule:nonzero;fill:rgb(86.666667%,70.196078%,45.490196%);fill-opacity:1;" d="M 114.300781 169.25 C 113.371094 168.421875 109.933594 168.003906 107.863281 167.777344 C 105.792969 167.546875 103.019531 167.429688 101.882812 167.871094 C 100.742188 168.316406 100.289062 169.699219 101.027344 170.4375 C 101.769531 171.171875 104.261719 171.902344 106.328125 172.285156 C 108.394531 172.671875 112.101562 173.253906 113.429688 172.75 C 114.757812 172.242188 115.226562 170.082031 114.300781 169.25 Z M 114.300781 169.25 "/>
<path style=" stroke:none;fill-rule:nonzero;fill:rgb(86.666667%,70.196078%,45.490196%);fill-opacity:1;" d="M 112.921875 172.019531 C 111.957031 171.242188 108.492188 171.070312 106.40625 170.988281 C 104.320312 170.90625 101.535156 170.992188 100.410156 171.527344 C 99.285156 172.0625 98.882812 173.503906 99.65625 174.199219 C 100.425781 174.890625 102.957031 175.449219 105.046875 175.691406 C 107.132812 175.929688 110.875 176.25 112.1875 175.640625 C 113.5 175.027344 113.886719 172.792969 112.921875 172.019531 Z M 112.921875 172.019531 "/>
<path style=" stroke:none;fill-rule:nonzero;fill:rgb(86.666667%,70.196078%,45.490196%);fill-opacity:1;" d="M 112.652344 172.878906 C 111.527344 172.425781 108.128906 173.097656 106.09375 173.519531 C 104.054688 173.941406 101.386719 174.675781 100.433594 175.410156 C 99.480469 176.148438 99.453125 177.511719 100.375 177.9375 C 101.296875 178.367188 103.882812 178.257812 105.964844 177.972656 C 108.042969 177.691406 111.742188 177.085938 112.859375 176.234375 C 113.972656 175.386719 113.78125 173.332031 112.652344 172.878906 Z M 112.652344 172.878906 "/>
<path style=" stroke:none;fill-rule:nonzero;fill:rgb(86.666667%,70.196078%,45.490196%);fill-opacity:1;" d="M 114.011719 173.226562 C 112.8125 172.96875 109.484375 174.171875 107.492188 174.914062 C 105.496094 175.652344 102.910156 176.800781 102.050781 177.671875 C 101.191406 178.542969 101.355469 179.871094 102.34375 180.136719 C 103.332031 180.402344 105.921875 179.878906 107.980469 179.265625 C 110.035156 178.652344 113.675781 177.464844 114.683594 176.457031 C 115.6875 175.453125 115.210938 173.484375 114.011719 173.226562 Z M 114.011719 173.226562 "/>
<path style=" stroke:none;fill-rule:nonzero;fill:rgb(86.666667%,70.196078%,45.490196%);fill-opacity:1;" d="M 111.59375 169.3125 L 111.886719 177.636719 L 122.808594 177.226562 L 122.515625 168.902344 Z M 111.59375 169.3125 "/>
<path style=" stroke:none;fill-rule:nonzero;fill:rgb(86.666667%,70.196078%,45.490196%);fill-opacity:1;" d="M 114.734375 173.980469 C 115.03125 172.808594 113.625 169.839844 112.761719 168.066406 C 111.894531 166.292969 110.558594 164.015625 109.542969 163.335938 C 108.53125 162.65625 106.992188 163.011719 106.683594 163.984375 C 106.378906 164.957031 106.996094 167.328125 107.714844 169.179688 C 108.429688 171.035156 109.820312 174.296875 110.992188 175.097656 C 112.160156 175.898438 114.441406 175.152344 114.734375 173.980469 Z M 114.734375 173.980469 "/>
<path style=" stroke:none;fill-rule:nonzero;fill:rgb(60%,0%,100%);fill-opacity:1;" d="M 146.039062 132.308594 C 148.054688 127.824219 154.109375 129.335938 156.097656 131.9375 C 158.085938 134.539062 158.023438 141.351562 157.960938 147.917969 C 157.898438 154.484375 157.898438 166.253906 155.722656 171.332031 C 153.550781 176.410156 150.757812 177.09375 144.921875 178.394531 C 139.085938 179.695312 125.25 179.582031 120.707031 179.136719 C 116.160156 178.691406 118.214844 177.234375 117.652344 175.71875 C 117.089844 174.203125 117.355469 171.515625 117.324219 170.046875 C 117.296875 168.582031 113.746094 167.507812 117.484375 166.917969 C 121.226562 166.328125 135.355469 167.847656 139.773438 166.5 C 144.195312 165.152344 142.960938 164.539062 144.003906 158.839844 C 145.046875 153.140625 144.023438 136.792969 146.039062 132.308594 Z M 146.039062 132.308594 "/>
<path style=" stroke:none;fill-rule:nonzero;fill:rgb(60%,0%,100%);fill-opacity:1;" d="M 106.265625 140.808594 C 107.066406 138.855469 106.785156 138.792969 108.867188 138.71875 C 110.949219 138.644531 117.0625 139.082031 118.753906 140.367188 C 120.441406 141.652344 119.585938 142.527344 118.996094 146.425781 C 118.410156 150.324219 116.152344 159.089844 115.21875 163.765625 C 114.289062 168.445312 113.925781 171.90625 113.40625 174.496094 C 112.882812 177.085938 113.667969 178.671875 112.097656 179.304688 C 110.523438 179.9375 106.042969 179.15625 103.972656 178.296875 C 101.898438 177.433594 99.925781 177.316406 99.660156 174.140625 C 99.398438 170.964844 101.652344 163.203125 102.382812 159.25 C 103.113281 155.296875 103.398438 153.492188 104.046875 150.417969 C 104.691406 147.34375 105.460938 142.757812 106.265625 140.808594 Z M 106.265625 140.808594 "/>
<path style=" stroke:none;fill-rule:nonzero;fill:rgb(44.313725%,28.235294%,12.941176%);fill-opacity:1;" d="M 148.421875 67.949219 C 146.863281 67.21875 153.558594 74.445312 155.574219 78.929688 C 157.59375 83.410156 159.792969 89.632812 160.527344 94.847656 C 161.261719 100.0625 159.242188 112.136719 159.976562 110.214844 C 160.710938 108.292969 166.855469 90.363281 164.929688 83.320312 C 163.003906 76.273438 149.980469 68.683594 148.421875 67.949219 Z M 148.421875 67.949219 "/>
<path style=" stroke:none;fill-rule:nonzero;fill:rgb(44.313725%,28.235294%,12.941176%);fill-opacity:1;" d="M 130.726562 43.0625 C 132.382812 35.613281 141.246094 31.246094 150.523438 33.308594 C 159.800781 35.367188 165.976562 43.078125 164.320312 50.527344 C 162.664062 57.976562 153.800781 62.34375 144.523438 60.28125 C 135.246094 58.222656 129.070312 50.511719 130.726562 43.0625 Z M 130.726562 43.0625 "/>
<path style=" stroke:none;fill-rule:nonzero;fill:rgb(44.313725%,28.235294%,12.941176%);fill-opacity:1;" d="M 112.554688 69.703125 C 113.53125 69.292969 109.34375 73.347656 108.082031 75.859375 C 106.820312 78.375 105.445312 81.863281 104.984375 84.785156 C 104.527344 87.707031 105.789062 94.480469 105.328125 93.402344 C 104.871094 92.324219 101.027344 82.273438 102.230469 78.320312 C 103.4375 74.371094 111.582031 70.113281 112.554688 69.703125 Z M 112.554688 69.703125 "/>
<path style=" stroke:none;fill-rule:nonzero;fill:rgb(44.313725%,28.235294%,12.941176%);fill-opacity:1;" d="M 106.105469 75.027344 C 107.078125 74.5 102.894531 79.683594 101.632812 82.898438 C 100.371094 86.113281 98.992188 90.574219 98.535156 94.3125 C 98.074219 98.050781 99.339844 106.710938 98.878906 105.332031 C 98.421875 103.957031 94.578125 91.097656 95.78125 86.046875 C 96.984375 80.996094 105.128906 75.550781 106.105469 75.027344 Z M 106.105469 75.027344 "/>
<path style="fill-rule:nonzero;fill:rgb(60%,0%,100%);fill-opacity:1;stroke-width:8;stroke-linecap:butt;stroke-linejoin:round;stroke:rgb(60%,0%,100%);stroke-opacity:1;stroke-miterlimit:10;" d="M 336.208864 117.668087 C 339.413124 116.712135 349.74114 130.582993 348.596762 134.311204 C 347.452383 138.039416 331.421548 142.819174 329.361666 140.046914 C 327.292249 137.274655 332.995068 118.624038 336.208864 117.668087 Z M 336.208864 117.668087 " transform="matrix(0.409611,0,0,0.408624,0,0)"/>
<path style="fill-rule:nonzero;fill:rgb(60%,0%,100%);fill-opacity:1;stroke-width:8;stroke-linecap:butt;stroke-linejoin:round;stroke:rgb(60%,0%,100%);stroke-opacity:1;stroke-miterlimit:10;" d="M 360.565053 151.308024 C 357.398939 152.283095 347.299799 138.498273 348.444178 134.770061 C 349.588556 131.04185 365.409589 126.185616 367.431324 128.938756 C 369.45306 131.701457 363.731167 150.332954 360.565053 151.308024 Z M 360.565053 151.308024 " transform="matrix(0.409611,0,0,0.408624,0,0)"/>
<path style="fill-rule:nonzero;fill:rgb(60%,0%,100%);fill-opacity:1;stroke-width:8;stroke-linecap:butt;stroke-linejoin:round;stroke:rgb(60%,0%,100%);stroke-opacity:1;stroke-miterlimit:10;" d="M 343.132354 129.531446 C 343.399376 128.785804 344.219514 128.403423 344.96336 128.67109 L 354.785942 132.22723 C 355.138792 132.351504 355.434423 132.61917 355.596543 132.963313 C 355.758664 133.307455 355.7682 133.708955 355.644226 134.062657 L 353.689246 139.463784 C 353.422224 140.209426 352.59255 140.591807 351.848704 140.32414 L 342.035658 136.768 C 341.291812 136.500334 340.900816 135.678215 341.177374 134.932573 Z M 343.132354 129.531446 " transform="matrix(0.409611,0,0,0.408624,0,0)"/>
<path style=" stroke:none;fill-rule:nonzero;fill:rgb(0%,0%,0%);fill-opacity:1;" d="M 147.644531 89.382812 C 147.644531 85.234375 144.238281 81.875 140.039062 81.875 C 138.023438 81.875 136.089844 82.664062 134.664062 84.074219 C 133.238281 85.480469 132.4375 87.390625 132.4375 89.382812 C 132.4375 93.527344 135.839844 96.890625 140.039062 96.890625 C 144.238281 96.890625 147.644531 93.527344 147.644531 89.382812 Z M 147.644531 89.382812 "/>
<path style="fill-rule:nonzero;fill:rgb(100%,100%,100%);fill-opacity:1;stroke-width:2;stroke-linecap:butt;stroke-linejoin:round;stroke:rgb(0%,0%,0%);stroke-opacity:1;stroke-miterlimit:10;" d="M 344.438853 210.376276 C 344.438853 206.714981 341.444396 203.751531 337.753775 203.751531 C 335.979989 203.751531 334.282494 204.449376 333.023678 205.692113 C 331.774398 206.93485 331.068698 208.617325 331.068698 210.376276 C 331.068698 214.04713 334.063155 217.01058 337.753775 217.01058 C 341.444396 217.01058 344.438853 214.04713 344.438853 210.376276 Z M 344.438853 210.376276 " transform="matrix(0.409611,0,0,0.408624,0,0)"/>
<path style=" stroke:none;fill-rule:nonzero;fill:rgb(55.686275%,48.627451%,76.470588%);fill-opacity:1;" d="M 40.839844 106.59375 C 42.703125 106.296875 44.265625 106.664062 45.527344 107.699219 C 46.796875 108.726562 47.570312 110.132812 47.859375 111.917969 C 47.996094 112.78125 47.957031 113.527344 47.738281 114.148438 C 47.519531 114.769531 47.347656 115.234375 47.214844 115.542969 C 47.082031 115.847656 46.855469 116.257812 46.53125 116.773438 C 46.210938 117.285156 45.972656 117.652344 45.808594 117.878906 C 45.210938 118.832031 44.652344 119.664062 44.140625 120.375 C 43.441406 121.40625 43.144531 122.242188 43.25 122.886719 C 43.285156 123.125 43.519531 123.699219 43.945312 124.605469 L 39.960938 124.765625 C 38.875 124.257812 38.265625 123.585938 38.132812 122.75 C 37.996094 121.910156 38.105469 121.078125 38.464844 120.253906 C 38.820312 119.429688 39.230469 118.644531 39.699219 117.90625 C 40.167969 117.164062 40.578125 116.527344 40.925781 116.003906 C 41.269531 115.472656 41.523438 115.078125 41.679688 114.816406 C 41.839844 114.550781 42.019531 114.238281 42.214844 113.875 C 42.515625 113.261719 42.640625 112.816406 42.597656 112.535156 C 42.550781 112.253906 42.449219 112.050781 42.292969 111.929688 C 42.136719 111.804688 41.933594 111.761719 41.675781 111.800781 C 40.839844 111.9375 39.4375 113.335938 37.464844 116.003906 L 32.941406 113.203125 C 35.664062 109.207031 38.296875 107.003906 40.839844 106.59375 Z M 43.703125 124.921875 C 44.234375 125.582031 44.59375 126.503906 44.785156 127.683594 C 44.972656 128.863281 44.90625 130.101562 44.578125 131.398438 L 39.320312 131.230469 C 39.460938 129.980469 39.460938 128.9375 39.328125 128.105469 C 39.195312 127.269531 38.996094 126.300781 38.730469 125.195312 Z M 43.703125 124.921875 "/>
</g>
</svg>
