<?xml version="1.0" standalone="yes"?>

<svg version="1.1" viewBox="0.0 0.0 437.0 487.0" fill="none" stroke="none" stroke-linecap="square" stroke-miterlimit="10" xmlns="http://www.w3.org/2000/svg" xmlns:xlink="http://www.w3.org/1999/xlink"><clipPath id="p.0"><path d="m0 0l437.0 0l0 487.0l-437.0 0l0 -487.0z" clip-rule="nonzero"></path></clipPath><g clip-path="url(#p.0)"><path fill="#000000" fill-opacity="0.0" d="m0 0l437.5013 0l0 487.5013l-437.5013 0z" fill-rule="nonzero"></path><path fill="#ccb5ff" d="m113.57834 136.4351l0 0c-11.72361 -52.041985 24.215027 -104.47046 80.271194 -117.10228l0 0c56.056183 -12.631815 111.00255 19.316444 122.72615 71.35843l0 0c11.723633 52.041985 -24.215027 104.47047 -80.27118 117.10229l0 0c-56.056183 12.631805 -111.00255 -19.316452 -122.726166 -71.358444z" fill-rule="nonzero"></path><path fill="#ccb5ff" d="m215.3016 136.54948l0 0c-10.663681 -47.336823 21.658997 -94.94255 72.1947 -106.330376l0 0c50.535706 -11.387823 100.14761 17.754597 110.81128 65.091415l0 0c10.663696 47.33683 -21.658997 94.94256 -72.1947 106.330376l0 0c-50.535706 11.387833 -100.14761 -17.754593 -110.81128 -65.091415z" fill-rule="nonzero"></path><path fill="#ccb5ff" d="m165.78766 267.2877l0 0c-11.723618 -52.041977 24.215027 -104.47046 80.271194 -117.102264l0 0c56.056168 -12.631821 111.00255 19.316437 122.72615 71.35843l0 0c11.723633 52.041992 -24.214996 104.47046 -80.27118 117.102264l0 0c-56.056183 12.631836 -111.00255 -19.316437 -122.726166 -71.35843z" fill-rule="nonzero"></path><path fill="#ccb5ff" d="m15.263966 181.62639l0 0c-9.682955 -42.983353 18.094635 -85.85655 62.042988 -95.75997l0 0c21.104744 -4.755783 43.19226 -1.1170502 61.403557 10.11573c18.211288 11.23278 31.054596 29.139465 35.704514 49.780807l0 0c9.682953 42.983353 -18.094635 85.85655 -62.04299 95.759964l0 0c-43.94835 9.903412 -87.42511 -16.913177 -97.10806 -59.89653z" fill-rule="nonzero"></path><path fill="#ccb5ff" d="m39.245556 284.10065l0 0c-11.723616 -52.041992 24.215023 -104.47046 80.271194 -117.10228l0 0c56.056168 -12.631821 111.00255 19.316437 122.72615 71.35843l0 0c11.723618 52.041977 -24.215027 104.470474 -80.271194 117.10228l0 0c-56.056168 12.631805 -111.00254 -19.316437 -122.72615 -71.35843z" fill-rule="nonzero"></path><path fill="#ccb5ff" d="m142.73221 332.86642l0 0c-8.357498 -37.09955 16.955688 -74.40549 56.53856 -83.325165l0 0c39.582886 -8.919693 78.44624 13.924591 86.80373 51.02411l0 0c8.357483 37.099518 -16.955688 74.40546 -56.538574 83.325134l0 0c-39.58287 8.919708 -78.44621 -13.924561 -86.80371 -51.02408z" fill-rule="nonzero"></path><path fill="#000000" fill-opacity="0.0" d="m168.89177 217.54646l62.582687 0l0 140.18898l-62.582687 0z" fill-rule="nonzero"></path><path fill="#8e7cc3" d="m192.92302 267.43707q18.21875 0 25.921875 6.1875q7.71875 6.171875 7.71875 15.21875q0 11.4375 -9.828125 18.625q-3.734375 2.796875 -9.046875 5.046875l-2.140625 0.9375q-0.921875 0.390625 -1.796875 5.515625q-0.859375 5.125 -0.859375 7.375q-0.65625 0.671875 -3.78125 1.546875q-3.125 0.859375 -5.1875 0.859375q-2.0625 0 -3.125 -0.265625q-1.46875 -2.40625 -1.46875 -10.375q0 -7.984375 0.671875 -10.25q21.0 -5.046875 21.0 -17.015625q0 -10.375 -19.140625 -10.375q-6.78125 0 -9.84375 1.328125q-0.796875 -1.328125 -0.796875 -5.578125q0 -4.265625 1.1875 -7.1875q3.59375 -1.59375 10.515625 -1.59375zm-3.796875 85.84375q-2.59375 -2.59375 -2.59375 -6.3125q0 -3.734375 2.59375 -6.3125q2.59375 -2.59375 6.3125 -2.59375q3.734375 0 6.328125 2.59375q2.59375 2.578125 2.59375 6.3125q0 3.71875 -2.59375 6.3125q-2.59375 2.59375 -6.328125 2.59375q-3.71875 0 -6.3125 -2.59375z" fill-rule="nonzero"></path><path fill="#000000" fill-opacity="0.0" d="m257.81696 14.97262l133.5433 32.598427l-33.417328 136.06299l-133.54329 -32.59842z" fill-rule="nonzero"></path><path fill="#8e7cc3" d="m302.45047 76.02093q-0.8497009 3.4596863 -3.2618713 5.8785324q-2.3970032 2.422554 -5.380707 4.155037q-2.9647827 1.7210159 -6.2321777 2.7087402q-3.2521973 0.99142456 -4.3698425 1.1528702q-0.3735962 3.0933914 -1.5437927 7.8580475q-0.38760376 1.5781021 -0.951416 3.6117783q-0.54867554 2.037384 -1.6552124 3.922493q-1.0914001 1.8888168 -3.0914307 3.1537323q-2.000061 1.2649155 -4.9144897 0.5534897q-5.0243225 -1.2264633 -5.536133 -6.6107864q-0.1473999 -1.6926117 0.16418457 -4.2060394q0.31533813 -2.5286026 0.80856323 -5.1263657q0.49319458 -2.597763 1.0783081 -4.980095q0.58883667 -2.397499 0.9689636 -3.9452515q0.33169556 -1.3504944 0.979126 -3.3315887q0.6626587 -1.9773941 2.0560608 -3.2617188q1.4578552 -1.2846756 3.8392944 -2.0061493q2.3851624 -0.73664093 4.626251 -1.4762878q2.2562866 -0.735939 3.730957 -1.6305008q1.4746704 -0.89456177 1.7914429 -2.1843567q0.25341797 -1.0318298 -0.031341553 -2.0342026q-0.28475952 -1.0023727 -0.9897461 -1.8660583q-0.70495605 -0.86369324 -1.716156 -1.5287094q-1.0111694 -0.66500854 -2.1344604 -0.93920517q-2.9447632 -0.7188339 -4.8644714 -0.17416q-1.9196777 0.54467773 -3.5610657 1.462883q-1.6261902 0.9219055 -3.486969 1.9473877q-1.8456116 1.0291901 -4.5171814 0.3770523q-2.9144287 -0.7114258 -4.787018 -3.3720093q-1.8725586 -2.6605797 -1.119751 -5.7257385q1.0434875 -4.248741 4.2066345 -6.580776q3.1820374 -2.3435059 6.98468 -3.1523132q3.8063965 -0.8239784 7.658661 -0.6556473q3.8522644 0.16833496 6.781891 0.883461q4.0224915 0.9819107 7.78714 3.7344246q3.7683716 2.737339 6.4526978 6.4163513q2.7032776 3.6675415 3.9997559 8.149719q1.2964783 4.4821777 0.23062134 8.82196zm-24.346497 40.957245q-0.53292847 2.1698914 -1.964447 3.4127502q-1.4277649 1.227684 -3.0819702 1.8050003q-1.6504517 0.5621414 -3.4396973 0.57572937q-1.7929993 0.028755188 -3.310913 -0.34178162q-2.6108398 -0.63731384 -4.7573853 -2.6409988q-2.1428223 -2.0188599 -1.3042908 -5.433029q0.5031128 -2.0485 1.9268799 -3.325409q1.4275208 -1.2920914 3.1307068 -1.9378662q1.7069092 -0.6609497 3.526245 -0.7315216q1.8230591 -0.085746765 3.371338 0.29219055q2.656372 0.6484375 4.6934814 2.7701645q2.0522766 2.1254272 1.2100525 5.5547714z" fill-rule="nonzero"></path><path fill="#000000" fill-opacity="0.0" d="m135.53667 56.726803l133.70079 31.999996l-32.472443 136.34647l-133.70078 -32.0z" fill-rule="nonzero"></path><path fill="#8e7cc3" d="m154.09001 230.31464l-10.407669 -2.699829q-2.6896515 -0.64375305 -4.8641357 -0.95532227l-2.0666351 -0.4946289q-2.3354034 -3.8846893 -1.0901184 -9.113449l2.2232056 -7.581375q6.6861725 -16.136917 13.997101 -22.75766q2.0206604 -2.2797852 7.108307 -6.4443054q14.647766 -11.933914 15.798935 -16.767471q0.71676636 -3.0095825 -3.8410187 -6.0605316q-1.6301575 -1.450531 -2.359558 -1.6251068q-0.7142029 -0.17094421 -1.8373108 0.026168823q-1.1194763 0.18193054 -1.8902588 1.0578308q-7.007065 7.0308533 -12.349716 7.6800995q-5.275177 -0.7805786 -8.056015 -1.4461517l-20.331886 -5.878418l0.9810257 -4.119156q4.8510895 -16.592209 19.769318 -27.031479q14.918228 -10.439278 32.596146 -7.107956q2.2844696 0.32183838 4.5942383 0.8746567q16.988922 4.066139 26.876373 17.920006q9.887466 13.853882 6.039383 30.011353q-3.4716034 14.576675 -16.588684 24.804398q-2.9577942 2.5053406 -7.7052 5.5784607q-4.7285767 3.0615692 -7.0415344 4.950058q-8.304565 7.2183685 -14.0763855 20.055618q-1.5648193 2.7262726 -1.7422028 3.4710693q-0.17376709 0.72958374 -0.11740112 1.3696594l-1.0425568 4.3775635q-7.059662 -0.77388 -12.575745 -2.094101zm-27.71508 29.371246q0.43868256 -7.2373047 2.1980057 -14.624451l4.015793 -14.703506q7.4615173 -1.2506866 17.30841 1.1060791q9.846893 2.3567505 14.976227 6.379944l-2.1103058 7.5120087q-4.5020447 14.587128 -5.1645203 17.368683l-1.0461731 4.392761l-4.4067993 -1.054718l-21.834915 -5.434845l-3.9357224 -0.94195557z" fill-rule="nonzero"></path><path fill="#000000" fill-opacity="0.0" d="m17.365566 92.69506l132.72441 -35.968502l36.377945 135.33858l-132.72441 35.968506z" fill-rule="nonzero"></path><path fill="#8e7cc3" d="m93.45717 129.71072q1.0017548 1.8006744 0.93891907 2.5299988q-0.06283569 0.72932434 -0.14189911 1.3983002q-0.43186188 1.282608 -0.43894196 1.7378082q-0.007080078 0.4552002 -0.18348694 0.7620239q-0.14395142 0.427536 -0.30413055 0.7947235q-0.16017914 0.36717224 -0.30413055 0.79470825q-0.037475586 1.3052521 -0.6665268 2.5765533q-0.62905884 1.2713013 -0.8379135 1.4573975q-0.079055786 0.66897583 -0.32743835 1.1895599q-0.24837494 0.52059937 -0.4805298 1.1015472q-0.19056702 1.2172241 -1.0725784 2.7513428q-0.33451843 1.6447601 -1.2165222 3.1788635q-0.8820114 1.5341187 -1.1516342 3.4203033q-1.1790619 1.873642 -1.4162369 3.880539q-0.73805237 1.1065826 -0.71977234 2.1376953q-0.7705002 0.9858551 -0.9610672 2.2030792q-0.19056702 1.2172241 -0.9610672 2.2030945q-0.24632263 1.4913483 -0.85915375 2.822998q-0.61283875 1.331665 -0.89160156 2.702301q-0.35782623 2.0395966 -1.0542908 3.7824402q0.7604523 1.8660583 1.3931732 4.2200165q0.6327286 2.3539581 1.1843338 4.4061127q0.12979126 0.48286438 0.12727356 1.1958466q-0.0025100708 0.7129822 -0.38775635 1.2059021q-1.4802322 0.27163696 -1.568428 0.42504883q-0.48259735 0.13078308 -0.7005844 -0.19866943q-0.21798706 -0.3294525 -0.7005844 -0.19866943q-0.48258972 0.13078308 -0.7634201 0.53067017q-0.28082275 0.39987183 -0.5221176 0.46525574q-0.60324097 0.16348267 -1.9395142 0.007583618q-0.8353958 0.74443054 -1.9212265 1.0386963q-1.2064819 0.32695007 -1.971962 -0.11314392q-0.3619461 0.098083496 -0.4780197 0.38856506q-0.11608124 0.2904663 -0.96061707 0.5193329q-0.8445358 0.22888184 -1.8513107 -0.14582825q-1.2846375 -2.3715515 -1.7804871 -4.6978455q-0.49585724 -2.3262787 -1.5067444 -4.642502q-0.38022614 -0.9330292 -0.60736084 -1.7780457q-0.2271347 -0.8450012 -0.5424652 -1.5366058q-0.3153305 -0.69158936 -0.5100174 -1.4158783q1.5044403 -4.033951 2.6748047 -8.106888q1.170372 -4.0729218 2.9809952 -7.930832q1.4020767 -2.9701385 2.7113724 -6.044647q1.3093033 -3.0745087 2.7113724 -6.044647q0.34366608 -1.1291962 0.9331894 -2.0660248q0.58953094 -0.93681335 0.8125458 -2.0333252q-0.40353394 -0.5381775 -1.5238724 -1.3353882q-1.1203384 -0.7972107 -1.8209229 -0.9958801q-0.45928955 -0.26405334 -0.9302292 -0.33070374q-0.47093964 -0.06663513 -0.8977814 -0.2099762q-1.3454056 -0.671463 -1.5426025 -0.6827698q-0.19719696 -0.0113220215 -0.47093964 -0.06663513q-0.7005844 -0.19866943 -1.6749115 -0.45266724q-0.9743271 -0.25398254 -2.0414276 -0.61235046q-1.0670929 -0.35835266 -1.9369965 -0.70539856q-0.86990356 -0.3470459 -1.3291931 -0.61109924q-1.1415863 0.5683899 -1.415329 0.5130615q-0.8587036 1.139267 -1.6362839 2.5803223q-0.7775841 1.4410706 -1.0239029 2.9324188q-0.95604706 0.77711487 -1.2348137 2.1477509q-0.68230057 0.8324585 -0.9702072 1.6875305q-0.28791046 0.855072 -0.8495598 1.6548309q-0.70560837 1.2272797 -1.1233063 1.5995026q-0.4176979 0.37220764 -0.81711197 1.7755432q-0.3852501 0.49293518 -0.7542801 1.0462189q-0.36902618 0.5532837 -0.44808578 1.2222595q-0.5058975 0.5256195 -1.1278725 1.3417206q-0.62197876 0.8161011 -1.3458672 1.0122833q-1.1781502 -1.4938507 -2.384632 -1.1668854q-1.0392227 -0.49542236 -1.0483627 -1.0109863q-0.009143829 -0.51556396 -0.49173737 -0.38478088q-0.90943146 -0.012557983 -1.220192 -0.44636536q-0.3107605 -0.43382263 -1.0346527 -0.23765564q-2.004406 -0.2338562 -3.4796066 -1.3881683q0.25545883 -0.97579956 0.14897537 -1.8535004q0.62654877 -0.5583191 0.6082649 -1.5894318q0.56165314 -0.7997589 1.3184433 -2.55896q0.75678635 -1.7591858 1.5855522 -3.7321625q0.82876587 -1.9729614 1.4486847 -3.7598114q0.6199188 -1.7868652 0.87537766 -2.7626648q1.2348137 -2.1477509 2.4371758 -4.4162292q1.2023621 -2.2684708 2.8964615 -4.1521683q0.14395523 -0.427536 0.8424797 -1.1996307q0.69852066 -0.7720871 1.5176964 -1.5768738q0.8191719 -0.8047867 1.5942421 -1.5328674q0.7750702 -0.72808075 1.1927681 -1.100296q1.7864189 -0.09559631 2.2365646 -0.34709167q0.45014572 -0.251503 1.0533867 -0.41497803q0.96518326 -0.2615738 1.4802246 -0.27163696q1.4386368 -0.9079056 2.1113434 -0.5721817q0.6727028 0.3357315 1.6378899 0.074165344q1.159874 0.4627304 2.0064697 1.2046127q0.84659576 0.74188995 1.9182663 1.3580246q1.9577942 1.0235443 4.0757675 1.6799011q2.1179657 0.65636444 4.196411 1.6472092q0.57993317 0.23136139 1.0554504 0.5557785q0.47550964 0.3244171 0.9672394 0.70919037q0.88612366 0.40740204 1.7560272 0.75444794q0.86990356 0.3470459 1.8766785 0.72174835q1.6191559 0.7267914 3.2545395 1.5139313q1.635376 0.7871399 3.3194275 1.7553558q1.8280029 0.54067993 3.396431 0.1156311zm-11.677574 64.4223q0.6448288 0.47279358 1.9552765 1.7365265q1.3104553 1.2637177 2.6533585 2.6481628q1.3429031 1.3844452 2.3958359 2.6531982q1.0529327 1.268753 1.2476196 1.9930573q0.12978363 0.48286438 0.3036728 0.88900757q0.17389679 0.40615845 0.30368042 0.8890228q-0.079055786 0.66897583 -0.5408554 1.1178894q-0.46179962 0.44892883 -0.96769714 0.97454834q-0.9976349 0.14085388 -1.1856842 0.6450958q-0.18805695 0.50424194 -0.17891693 1.0198059q-1.3828812 0.6337738 -1.628746 0.441391q-0.2458725 -0.19239807 -0.48716736 -0.1269989q-0.48258972 0.13078308 -0.89572144 0.7607727q-0.41312408 0.6299896 -0.71017456 0.96951294q-0.3619461 0.098083496 -0.7679901 0.27288818q-0.406044 0.17478943 -0.83288574 0.031448364q-0.8262558 1.2599792 -1.3042755 1.6485443q-0.4780197 0.38856506 -1.0488129 0.67276q-0.76548004 -0.440094 -1.9831619 -1.5994568q-1.2176819 -1.1593628 -1.6769714 -1.4234161q-1.5167923 -1.7906036 -3.0056992 -3.7182617q-1.4889145 -1.9276581 -3.0057068 -3.7182617q-0.13893127 -0.9984131 0.47138977 -1.617096q0.61032104 -0.61868286 1.3342133 -0.81484985q0.6589966 -0.4376068 0.73805237 -1.1065826q0.079063416 -0.6689606 0.802948 -0.8651428q0.6823044 -0.83244324 1.6753616 -1.2310791q0.9930649 -0.3986206 1.401619 -1.2863922q1.5451202 -0.030212402 2.3526382 -0.63757324q0.80752563 -0.60736084 1.1045685 -0.94688416l1.4802322 -0.27163696z" fill-rule="nonzero"></path><path fill="#000000" fill-opacity="0.0" d="m168.89235 28.232492l136.8189 -13.259842l13.448822 139.52756l-136.8189 13.259842z" fill-rule="nonzero"></path><path fill="#8e7cc3" d="m187.96034 70.04123q-1.8662567 0.18087006 -3.6620789 -4.1190796q-1.7958374 -4.299942 -2.188614 -8.374809q-0.08995056 -0.93317413 1.8660583 -2.300106q1.9559937 -1.3669319 6.068115 -2.6759567q4.112137 -1.309021 9.04216 -1.7868156q19.144684 -1.8554153 20.430923 11.488991q0.3657837 3.7949142 -0.93814087 6.7155685q-1.3039246 2.9206467 -3.3738403 4.4085083q-4.2266083 2.8899384 -7.9671783 3.3309479l-1.5181122 0.20992279q0.07046509 0.73098755 0.5514679 2.3012848q0.4965515 1.5687943 0.61198425 2.766365q0.10343933 1.0731506 -3.4802856 2.0013046q-3.5852356 0.91259766 -6.244644 1.1703339q-4.0746613 0.39489746 -5.2322845 -1.5179749q-1.1576233 -1.91288 -1.78125 -8.382896q-0.14691162 -1.5241852 5.5213623 -2.811348q2.0976562 -0.54865265 3.7531128 -1.7765656q1.6695099 -1.2449799 1.4896088 -3.1113281q-0.17988586 -1.8663559 -3.1814575 -1.5754547q-3.0015564 0.29089355 -6.1501923 2.1501694q-3.1501465 1.8437195 -3.6167145 1.8889389zm12.214569 17.12033q4.5256653 -0.43860626 7.033127 0.49575043q2.5230103 0.93284607 2.8768158 4.6033325q0.57865906 6.003433 -8.7526245 6.907776q-9.331284 0.90434265 -9.909943 -5.099083q-0.57865906 -6.003433 8.7526245 -6.907776z" fill-rule="nonzero"></path><path fill="#714821" d="m417.96063 215.99738l0 0c0 -49.470795 -41.380157 -89.57481 -92.4252 -89.57481l0 0c-24.512695 0 -48.021393 9.437325 -65.35449 26.235863c-17.333069 16.798523 -27.07071 39.58223 -27.07071 63.338943l0 0c0 49.470795 41.380188 89.5748 92.4252 89.5748l0 0c51.045044 0 92.4252 -40.104004 92.4252 -89.5748z" fill-rule="nonzero"></path><path fill="#ddb374" d="m344.81036 277.55905l-47.292328 0l0 68.62991l47.292328 0z" fill-rule="nonzero"></path><path fill="#ddb374" d="m404.8491 238.93964l0 0c0 -40.61685 -37.46707 -73.543304 -83.68506 -73.543304l0 0c-46.217957 0 -83.68503 32.926453 -83.68503 73.543304l0 0c0 40.61685 37.46707 73.543304 83.68503 73.543304l0 0c46.217987 0 83.68506 -32.926453 83.68506 -73.543304z" fill-rule="nonzero"></path><path fill="#ddb374" d="m404.28427 241.01683l0 0c12.712433 -2.0607147 21.939392 -12.601105 20.974274 -23.9599c-0.9651489 -11.35878 -11.782959 -19.541351 -24.590515 -18.600204z" fill-rule="nonzero"></path><path fill="#000000" d="m307.06168 219.87767l0 0c0 -10.146927 -8.31015 -18.372635 -18.561188 -18.372635l0 0c-4.9227295 0 -9.64386 1.9356842 -13.124756 5.3812256c-3.480896 3.4455414 -5.436432 8.118683 -5.436432 12.991409l0 0c0 10.146927 8.31012 18.372635 18.561188 18.372635l0 0c10.251038 0 18.561188 -8.225708 18.561188 -18.372635z" fill-rule="nonzero"></path><path fill="#ffffff" d="m291.0528 211.52126l0 0c0 -3.6638184 -2.9921875 -6.6339417 -6.683258 -6.6339417l0 0c-1.772522 0 -3.472412 0.69892883 -4.725769 1.943039c-1.2533569 1.2441101 -1.957489 2.9314728 -1.957489 4.6909027l0 0c0 3.6638336 2.9921875 6.633957 6.683258 6.633957l0 0c3.6910706 0 6.683258 -2.9701233 6.683258 -6.633957z" fill-rule="nonzero"></path><path stroke="#000000" stroke-width="2.0" stroke-linejoin="round" stroke-linecap="butt" d="m291.0528 211.52126l0 0c0 -3.6638184 -2.9921875 -6.6339417 -6.683258 -6.6339417l0 0c-1.772522 0 -3.472412 0.69892883 -4.725769 1.943039c-1.2533569 1.2441101 -1.957489 2.9314728 -1.957489 4.6909027l0 0c0 3.6638336 2.9921875 6.633957 6.683258 6.633957l0 0c3.6910706 0 6.683258 -2.9701233 6.683258 -6.633957z" fill-rule="nonzero"></path><path fill="#c5843b" d="m331.7754 248.46327l-27.12799 0.5252228l2.036377 5.7609863l6.1020203 4.716034l8.81839 0l6.7819824 -3.1431274z" fill-rule="nonzero"></path><path fill="#8a5c29" d="m263.9036 200.27507l-2.4257812 -7.61821l12.94397 -9.482803l22.834991 -0.21080017l-21.950012 6.2770233z" fill-rule="nonzero"></path><path fill="#8a5c29" d="m359.96216 195.46143l2.4258118 -7.618225l-12.94397 -9.482788l-22.834991 -0.21080017l21.949982 6.2770233z" fill-rule="nonzero"></path><path fill="#ffffff" d="m307.06052 292.88843c-6.2042236 -1.5140991 12.794708 -18.250763 22.798706 -20.083954c10.003967 -1.8332214 41.024963 5.7373657 37.22519 9.084686c-3.7998047 3.3473206 -53.819702 12.513397 -60.023895 10.999268z" fill-rule="nonzero"></path><path stroke="#c5843b" stroke-width="2.0" stroke-linejoin="round" stroke-linecap="butt" d="m307.06052 292.88843c-6.2042236 -1.5140991 12.794708 -18.250763 22.798706 -20.083954c10.003967 -1.8332214 41.024963 5.7373657 37.22519 9.084686c-3.7998047 3.3473206 -53.819702 12.513397 -60.023895 10.999268z" fill-rule="nonzero"></path><path fill="#c5843b" d="m369.91245 245.40273l0 0c0 -0.8079834 -0.8564453 -1.4629974 -1.9129639 -1.4629974l0 0c-1.0565186 0 -1.9129944 0.65501404 -1.9129944 1.4629974l0 0c0 0.80799866 0.85647583 1.4630127 1.9129944 1.4630127l0 0c1.0565186 0 1.9129639 -0.65501404 1.9129639 -1.4630127z" fill-rule="nonzero"></path><path fill="#c5843b" d="m360.8847 251.76294l0 0c0 -0.80799866 -0.85647583 -1.4630127 -1.9129944 -1.4630127l0 0c-1.056488 0 -1.9129639 0.65501404 -1.9129639 1.4630127l0 0c0 0.8079834 0.85647583 1.4629974 1.9129639 1.4629974l0 0c1.0565186 0 1.9129944 -0.65501404 1.9129944 -1.4629974z" fill-rule="nonzero"></path><path fill="#c5843b" d="m352.7774 242.10986l0 0c-0.7138672 -0.5018158 -1.8249512 -0.3087616 -2.48172 0.43119812l0 0c-0.6567383 0.73994446 -0.6104431 1.7465973 0.10342407 2.2483978l0 0c0.71383667 0.50180054 1.8249512 0.30874634 2.4816895 -0.43119812l0 0c0.6567383 -0.7399597 0.6104431 -1.7465973 -0.103393555 -2.2483978z" fill-rule="nonzero"></path><path fill="#c5843b" d="m343.9207 247.1609l0 0c0 -0.80799866 -0.85647583 -1.4630127 -1.9129944 -1.4630127l0 0c-1.056488 0 -1.9129639 0.65501404 -1.9129639 1.4630127l0 0c0 0.8079834 0.85647583 1.4629974 1.9129639 1.4629974l0 0c1.0565186 0 1.9129944 -0.65501404 1.9129944 -1.4629974z" fill-rule="nonzero"></path><path fill="#c5843b" d="m364.71066 238.11082l0 0c0 -0.8079834 -0.85647583 -1.4629974 -1.9129944 -1.4629974l0 0c-1.056488 0 -1.9129639 0.65501404 -1.9129639 1.4629974l0 0c0 0.80799866 0.85647583 1.4630127 1.9129639 1.4630127l0 0c1.0565186 0 1.9129944 -0.65501404 1.9129944 -1.4630127z" fill-rule="nonzero"></path><path fill="#c5843b" d="m379.64218 249.43872l0 0c0.3140869 -0.75697327 -0.23373413 -1.6394958 -1.2236023 -1.9712067l0 0c-0.9898987 -0.33169556 -2.0469666 0.013046265 -2.361084 0.7700043l0 0c-0.3140869 0.756958 0.23373413 1.6394958 1.2236328 1.9711914l0 0c0.98986816 0.33171082 2.0469666 -0.013031006 2.3610535 -0.769989z" fill-rule="nonzero"></path><path fill="#c5843b" d="m261.9702 249.97832l0 0c-0.12973022 0.7975769 0.6105652 1.5804749 1.6535034 1.7486572l0 0c1.0429382 0.16816711 1.9935608 -0.34207153 2.123291 -1.1396484l0 0c0.12973022 -0.7975769 -0.6105957 -1.5804749 -1.6535339 -1.7486572l0 0c-1.0429077 -0.16816711 -1.9935303 0.34205627 -2.1232605 1.1396484z" fill-rule="nonzero"></path><path fill="#c5843b" d="m271.9031 245.1371l0 0c-0.12973022 0.7975769 0.6105652 1.5804749 1.6535034 1.7486572l0 0c1.0429382 0.16816711 1.9935608 -0.34205627 2.123291 -1.1396484l0 0c0.1296997 -0.7975769 -0.6105957 -1.5804749 -1.6535339 -1.7486572l0 0c-1.0429382 -0.16816711 -1.9935608 0.34207153 -2.1232605 1.1396484z" fill-rule="nonzero"></path><path fill="#c5843b" d="m278.35645 255.95631l0 0c0.624115 0.608963 1.7519531 0.5952606 2.519043 -0.03060913l0 0c0.76712036 -0.62586975 0.8830261 -1.6269226 0.25891113 -2.2358856l0 0c-0.624115 -0.6089783 -1.7519226 -0.5952759 -2.519043 0.03060913l0 0c-0.76712036 0.62586975 -0.8830261 1.6269073 -0.25891113 2.2358856z" fill-rule="nonzero"></path><path fill="#c5843b" d="m287.9103 252.38016l0 0c-0.12973022 0.79759216 0.6105957 1.5804901 1.6535339 1.7486572l0 0c1.0429077 0.16818237 1.9935608 -0.34205627 2.1232605 -1.1396332l0 0c0.12973022 -0.79759216 -0.6105652 -1.5804901 -1.6535034 -1.7486572l0 0c-1.0429382 -0.16818237 -1.9935608 0.34205627 -2.123291 1.1396332z" fill-rule="nonzero"></path><path fill="#c5843b" d="m265.93448 258.00427l0 0c-0.12973022 0.7975769 0.6105957 1.5804749 1.6535034 1.7486572l0 0c1.0429382 0.16818237 1.9935608 -0.34204102 2.123291 -1.1396484l0 0c0.12973022 -0.7975769 -0.6105957 -1.5804749 -1.6535034 -1.7486572l0 0c-1.0429382 -0.16815186 -1.9935608 0.34207153 -2.123291 1.1396484z" fill-rule="nonzero"></path><path fill="#c5843b" d="m253.01346 244.44556l0 0c-0.43159485 0.6972046 -0.032485962 1.6555786 0.89141846 2.1405792l0 0c0.9239197 0.4850006 2.022766 0.31295776 2.4543457 -0.38424683l0 0c0.4316101 -0.6972046 0.03250122 -1.6555786 -0.89141846 -2.1405792l0 0c-0.9239044 -0.4850006 -2.0227509 -0.31295776 -2.4543457 0.38424683z" fill-rule="nonzero"></path><path fill="#d155ff" d="m363.8058 428.3832c2.009613 6.164459 12.290894 29.209534 12.057739 36.986877c-0.2331543 7.7773438 -4.056427 6.7563477 -13.456696 9.677155c-9.400269 2.9208374 -27.579193 7.51355 -42.944885 7.8477783c-15.365692 0.334198 -39.7511 -3.6176758 -49.24936 -5.8425293c-9.49823 -2.2248535 -6.2843323 -1.4216919 -7.740143 -7.5065613c-1.4558105 -6.0848694 -0.828949 -24.168854 -0.994751 -29.002625" fill-rule="nonzero"></path><path fill="#d155ff" d="m349.18896 320.97375c-5.957123 2.3626404 -7.4138184 6.8993835 -12.708649 10.7034c-5.2948303 3.8040466 -12.397217 13.738861 -19.060364 12.120758c-6.6631775 -1.6181335 -13.835968 -16.607635 -20.91864 -21.829407c-7.082672 -5.2218018 -15.817139 -9.956268 -21.577423 -9.501312c-5.7602844 0.45495605 -10.517059 6.8573914 -12.984253 12.230957c-2.4671936 5.373596 -2.4588928 -3.5074158 -1.8189087 20.010498c0.63998413 23.517944 -10.257645 101.08795 5.6588135 121.09714c15.916443 20.009186 71.43744 20.404175 89.839874 -1.0419922c18.402466 -21.446198 17.807526 -103.09143 20.574799 -127.63519c2.7673035 -24.543732 0.52975464 -16.934814 -3.9711304 -19.627289c-4.5008545 -2.6924744 -17.076965 1.1098022 -23.034119 3.4724426z" fill-rule="nonzero"></path><path fill="#9900ff" d="m246.02347 328.50217c2.324173 -6.1482544 6.4196014 -5.8061523 11.288696 -6.830841c4.8690796 -1.0247192 14.273926 -2.2778015 17.925842 0.68258667c3.6519165 2.9603577 3.3213806 5.694031 3.9856567 17.07962c0.6642761 11.38559 -0.22116089 37.45764 0 51.23398c0.22116089 13.776306 1.2163696 23.795898 1.3269653 31.42395c0.110565186 7.6280518 2.9884338 11.7256775 -0.66348267 14.34433c-3.6519165 2.6186829 -15.4935 2.733673 -21.248016 1.3676453c-5.754532 -1.3659973 -10.844391 -0.6829834 -13.279129 -9.56369c-2.4347534 -8.880707 -0.99720764 -32.10739 -1.3293457 -43.72052c-0.33213806 -11.613129 -0.9956207 -16.6221 -0.66348267 -25.958282c0.33213806 -9.336182 0.33213806 -23.910492 2.6562958 -30.058777z" fill-rule="nonzero"></path><path fill="#ddb374" d="m265.66614 337.82312c-1.4944153 -2.7694397 -1.1705017 -12.845856 -0.92889404 -18.9068c0.24160767 -6.060974 0.986969 -14.164032 2.3786316 -17.459015c1.3916321 -3.294983 4.6148376 -4.5276794 5.971283 -2.3108826c1.3564453 2.2167969 2.0645447 9.547302 2.1672974 15.611725c0.1027832 6.0644226 0.04736328 16.930634 -1.5506897 20.77478c-1.598053 3.8441772 -6.5431824 5.0596313 -8.037628 2.2901917z" fill-rule="nonzero"></path><path fill="#ddb374" d="m268.5823 345.99646c-1.220581 -3.2614746 0.8635864 -13.277039 2.1701965 -19.286377c1.3066406 -6.0093384 3.5317993 -13.907654 5.6695557 -16.769592c2.1377563 -2.861969 5.998413 -3.064331 7.1569214 -0.40216064c1.1584778 2.66214 0.7111511 10.251617 -0.20602417 16.375061c-0.9171753 6.123474 -2.8318481 17.018494 -5.2969666 20.365662c-2.465088 3.3471985 -8.273102 2.9789124 -9.493683 -0.28259277z" fill-rule="nonzero"></path><path fill="#ddb374" d="m271.36365 345.88235c-0.44754028 -3.4667969 3.3209534 -12.950134 5.6315613 -18.628937c2.3105774 -5.6788025 5.7952576 -13.041473 8.231964 -15.443909c2.436676 -2.4024658 5.8799133 -1.8328247 6.388214 1.0292358c0.5083008 2.8620605 -1.3491821 10.273895 -3.3383484 16.143127c-1.9891663 5.8692627 -5.777771 16.255585 -8.596649 19.072327c-2.8189087 2.816742 -7.8692017 1.2949524 -8.316742 -2.1718445z" fill-rule="nonzero"></path><path fill="#ddb374" d="m270.27988 342.6047c0.6737976 -3.564392 6.9644165 -11.0998535 10.779419 -15.588318c3.8150024 -4.4884644 9.196777 -10.090912 12.110565 -11.342468c2.9137878 -1.2515564 5.804779 0.828949 5.3721924 3.8331604c-0.43258667 3.004242 -4.3800964 9.376251 -7.967682 14.192169c-3.5875854 4.8159485 -10.175476 13.219208 -13.557892 14.703461c-3.3824158 1.4842529 -7.410431 -2.233612 -6.736603 -5.798004z" fill-rule="nonzero"></path><path fill="#ddb374" d="m264.7349 335.66364l20.730957 4.7709045l-7.744385 31.346039l-20.730957 -4.770935z" fill-rule="nonzero"></path><path fill="#ddb374" d="m275.8636 345.1397c-2.849762 -0.07571411 -9.344086 -5.6664124 -13.218933 -9.072388c-3.874878 -3.4059448 -8.7712555 -8.349091 -10.030258 -11.363434c-1.2590027 -3.0143738 0.087402344 -6.6354065 2.476242 -6.7226257c2.388855 -0.08721924 7.748047 3.1092834 11.856781 6.199341c4.1087646 3.0900574 11.309753 8.847809 12.795776 12.341003c1.486023 3.4931946 -1.0298767 8.693817 -3.8796082 8.618103z" fill-rule="nonzero"></path><path fill="#ddb374" d="m279.04477 414.19815c-2.2657166 -2.0281677 -10.663361 -3.0489502 -15.71579 -3.6113281c-5.0524597 -0.5623779 -11.818466 -0.8480835 -14.598831 0.2371521c-2.7803802 1.0852661 -3.8927765 4.47406 -2.083435 6.274353c1.8093262 1.800293 7.893326 3.5845032 12.939438 4.5274353c5.046112 0.9429321 14.094116 2.368103 17.33722 1.1301575c3.2431335 -1.237915 4.387146 -6.5295715 2.121399 -8.55777z" fill-rule="nonzero"></path><path fill="#ddb374" d="m275.68124 420.96783c-2.352478 -1.8963318 -10.81723 -2.3160706 -15.90802 -2.5159302c-5.090805 -0.19985962 -11.889877 0.00793457 -14.636765 1.3167725c-2.746872 1.3088684 -3.7301788 4.8382263 -1.8444977 6.5363464c1.8856659 1.6981506 8.059204 3.064972 13.158539 3.6524658c5.099365 0.5874634 14.232422 1.3706665 17.437561 -0.127594c3.2051086 -1.498291 4.1456604 -6.9656982 1.7931824 -8.862061z" fill-rule="nonzero"></path><path fill="#ddb374" d="m275.02585 423.074c-2.7523499 -1.1085815 -11.042999 0.53240967 -16.015839 1.5655823c-4.9728546 1.0331421 -11.494812 2.8303528 -13.821228 4.633362c-2.3264008 1.803009 -2.38826 5.1394653 -0.13722229 6.1846313c2.2510529 1.0451965 8.564758 0.7809448 13.643509 0.08654785c5.0787354 -0.694397 14.107147 -2.174591 16.828949 -4.2529297c2.7218018 -2.0783386 2.254181 -7.1085815 -0.49816895 -8.217194z" fill-rule="nonzero"></path><path fill="#ddb374" d="m278.34134 423.9262c-2.926239 -0.6303406 -11.051483 2.3125 -15.918335 4.1251526c-4.866852 1.8126526 -11.188629 4.6198425 -13.282837 6.7507324c-2.0941925 2.1308594 -1.6947937 5.3843384 0.7176361 6.0345154c2.4124298 0.650177 8.7365265 -0.6329651 13.756973 -2.1335144c5.0204163 -1.5005493 13.911163 -4.406952 16.3656 -6.8697815c2.4544067 -2.462799 1.2871704 -7.2767944 -1.6390381 -7.9071045z" fill-rule="nonzero"></path><path fill="#ddb374" d="m272.43622 414.3494l0.71380615 20.3732l26.670746 -1.0075378l-0.71380615 -20.3732z" fill-rule="nonzero"></path><path fill="#ddb374" d="m280.1084 425.76904c0.72021484 -2.8676453 -2.7096863 -10.12738 -4.82193 -14.468323c-2.1122437 -4.3409424 -5.379669 -9.911774 -7.8515015 -11.577332c-2.4718323 -1.6655884 -6.2348022 -0.79977417 -6.979553 1.5839233c-0.744751 2.383667 0.7593689 8.184967 2.5110168 12.718201c1.7516174 4.5332336 5.141754 12.523865 7.998749 14.48114c2.8569946 1.9572449 8.423004 0.1300354 9.143219 -2.7376099z" fill-rule="nonzero"></path><path fill="#9900ff" d="m356.53018 323.79004c4.9203796 -10.973328 19.706024 -7.2773438 24.556427 -0.9107666c4.850403 6.366577 4.6977234 23.041992 4.545929 39.11023c-0.15179443 16.068237 -0.15133667 44.8692 -5.4566956 57.299225c-5.3053284 12.429993 -12.126404 14.097534 -26.375305 17.280823c-14.248932 3.1832886 -48.022766 2.9094543 -59.118134 1.8189087c-11.095337 -1.0905457 -6.0791626 -4.655731 -7.454071 -8.362213c-1.3748779 -3.706482 -0.7279053 -10.286957 -0.79525757 -13.876648c-0.06738281 -3.5896606 -8.742798 -6.2138977 0.39108276 -7.6614075c9.13385 -1.4475098 43.62204 2.2712097 54.41205 -1.0236206c10.790039 -3.2948303 7.779114 -4.799652 10.3280945 -18.745422c2.5490112 -13.94574 0.04550171 -53.95581 4.9658813 -64.92911z" fill-rule="nonzero"></path><path fill="#9900ff" d="m259.4272 344.58752c1.9614563 -4.7716675 1.2714539 -4.9313354 6.3526306 -5.1102295c5.0811462 -0.17892456 20.011993 0.8932495 24.134308 4.036743c4.1223145 3.1434631 2.0366516 5.2803955 0.59957886 14.824127c-1.4370728 9.543762 -6.9465027 30.989502 -9.222046 42.438324c-2.2755127 11.448822 -3.1601257 19.917328 -4.431122 26.254608c-1.2710266 6.3372498 0.64382935 10.2187195 -3.1948853 11.769012c-3.8387146 1.5503235 -14.777618 -0.36090088 -19.837357 -2.4671936c-5.0597534 -2.1062927 -9.874908 -2.402008 -10.521118 -10.170593c-0.6462097 -7.768585 4.859894 -26.765106 6.64386 -36.44095c1.7839813 -9.675842 2.4806213 -14.091858 4.0599823 -21.614166c1.5793457 -7.5223083 3.4546814 -18.748047 5.416168 -23.519684z" fill-rule="nonzero"></path><path fill="#714821" d="m362.3501 166.29002c-3.8062134 -1.7908936 12.536743 15.895889 17.461945 26.86615c4.9252014 10.970245 10.29834 26.194214 12.089233 38.955368c1.7909241 12.761154 -3.1351624 42.313232 -1.343811 37.61154c1.7913208 -4.70166 16.79309 -48.582657 12.091858 -65.8215c-4.701233 -17.238846 -36.49301 -35.82065 -40.299225 -37.611557z" fill-rule="nonzero"></path><path fill="#714821" d="m319.1451 105.38366l0 0c4.044281 -18.229752 25.682678 -28.91851 48.33069 -23.874016l0 0c22.64804 5.044487 37.72934 23.91198 33.68506 42.14173l0 0c-4.0443115 18.229744 -25.682709 28.91851 -48.33072 23.874016l0 0c-22.64804 -5.0444946 -37.72934 -23.911987 -33.685028 -42.14173z" fill-rule="nonzero"></path><path fill="#714821" d="m274.7863 170.5832c2.3804016 -1.0041656 -7.8404846 8.912811 -10.920715 15.063843c-3.0802002 6.151016 -6.4405823 14.687103 -7.560608 21.84227c-1.1200256 7.155182 1.9607544 23.725021 0.8404236 21.088806c-1.1203003 -2.6362305 -10.50238 -27.24031 -7.5622406 -36.906128c2.940155 -9.665817 22.822739 -20.08464 25.20314 -21.08879z" fill-rule="nonzero"></path><path fill="#714821" d="m259.03824 183.60507c2.3804016 -1.284256 -7.8404694 11.398941 -10.9207 19.265701c-3.0802155 7.8667755 -6.440567 18.78389 -7.560608 27.934906c-1.1200256 9.1510315 1.9607391 30.34282 0.84043884 26.971237c-1.1203003 -3.3715515 -10.502396 -34.83864 -7.562256 -47.200607c2.940155 -12.361969 22.822723 -25.686981 25.203125 -26.971237z" fill-rule="nonzero"></path><path fill="#9900ff" d="m336.2056 117.66959c3.2062378 -0.9558792 13.530853 12.910088 12.389526 16.639153c-1.1413269 3.729065 -17.172546 8.508453 -19.237488 5.73526c-2.064911 -2.7731934 3.6417236 -21.418533 6.8479614 -22.374413z" fill-rule="nonzero"></path><path stroke="#9900ff" stroke-width="8.0" stroke-linejoin="round" stroke-linecap="butt" d="m336.2056 117.66959c3.2062378 -0.9558792 13.530853 12.910088 12.389526 16.639153c-1.1413269 3.729065 -17.172546 8.508453 -19.237488 5.73526c-2.064911 -2.7731934 3.6417236 -21.418533 6.8479614 -22.374413z" fill-rule="nonzero"></path><path fill="#9900ff" d="m360.5669 151.30849c-3.164734 0.97088623 -13.266693 -12.814514 -12.122345 -16.54248c1.1443787 -3.7279663 16.96814 -8.58242 18.988525 -5.8253326c2.0203857 2.75708 -3.701416 21.396927 -6.8661804 22.367813z" fill-rule="nonzero"></path><path stroke="#9900ff" stroke-width="8.0" stroke-linejoin="round" stroke-linecap="butt" d="m360.5669 151.30849c-3.164734 0.97088623 -13.266693 -12.814514 -12.122345 -16.54248c1.1443787 -3.7279663 16.96814 -8.58242 18.988525 -5.8253326c2.0203857 2.75708 -3.701416 21.396927 -6.8661804 22.367813z" fill-rule="nonzero"></path><path fill="#9900ff" d="m343.1293 129.53397l0 0c0.269989 -0.7453766 1.0931396 -1.1309509 1.838623 -0.86120605l9.814209 3.5513306c0.3579712 0.12954712 0.6497803 0.39596558 0.8112488 0.7406616c0.1614685 0.3447113 0.17932129 0.7394562 0.049682617 1.0973969l-1.9553223 5.398346c-0.2699585 0.7453766 -1.0931396 1.1309509 -1.8385925 0.86120605l-9.814209 -3.5513306c-0.7454834 -0.26976013 -1.1309204 -1.0926819 -0.8609619 -1.8380585z" fill-rule="nonzero"></path><path stroke="#9900ff" stroke-width="8.0" stroke-linejoin="round" stroke-linecap="butt" d="m343.1293 129.53397l0 0c0.269989 -0.7453766 1.0931396 -1.1309509 1.838623 -0.86120605l9.814209 3.5513306c0.3579712 0.12954712 0.6497803 0.39596558 0.8112488 0.7406616c0.1614685 0.3447113 0.17932129 0.7394562 0.049682617 1.0973969l-1.9553223 5.398346c-0.2699585 0.7453766 -1.0931396 1.1309509 -1.8385925 0.86120605l-9.814209 -3.5513306c-0.7454834 -0.26976013 -1.1309204 -1.0926819 -0.8609619 -1.8380585z" fill-rule="nonzero"></path><path fill="#000000" d="m360.44617 218.73726l0 0c0 -10.146927 -8.31012 -18.372635 -18.561157 -18.372635l0 0c-4.92276 0 -9.64386 1.9356842 -13.124756 5.3812103c-3.480896 3.4455414 -5.436432 8.118698 -5.436432 12.991425l0 0c0 10.146912 8.31012 18.37262 18.561188 18.37262l0 0c10.251038 0 18.561157 -8.225708 18.561157 -18.37262z" fill-rule="nonzero"></path><path fill="#ffffff" d="m344.43732 210.38084l0 0c0 -3.6638336 -2.992218 -6.633957 -6.683258 -6.633957l0 0c-1.772522 0 -3.4724426 0.69892883 -4.7257996 1.943039c-1.2533264 1.2441101 -1.9574585 2.931488 -1.9574585 4.690918l0 0c0 3.6638184 2.9921875 6.6339417 6.683258 6.6339417l0 0c3.69104 0 6.683258 -2.9701233 6.683258 -6.6339417z" fill-rule="nonzero"></path><path stroke="#000000" stroke-width="2.0" stroke-linejoin="round" stroke-linecap="butt" d="m344.43732 210.38084l0 0c0 -3.6638336 -2.992218 -6.633957 -6.683258 -6.633957l0 0c-1.772522 0 -3.4724426 0.69892883 -4.7257996 1.943039c-1.2533264 1.2441101 -1.9574585 2.931488 -1.9574585 4.690918l0 0c0 3.6638184 2.9921875 6.6339417 6.683258 6.6339417l0 0c3.69104 0 6.683258 -2.9701233 6.683258 -6.6339417z" fill-rule="nonzero"></path><path fill="#000000" fill-opacity="0.0" d="m66.510185 239.37311l135.71652 -21.826782l22.173233 138.3937l-135.71652 21.826782z" fill-rule="nonzero"></path><path fill="#8e7cc3" d="m99.70285 260.8627q6.818634 -1.0966187 11.446465 2.7011108q4.640785 3.7798157 5.6888657 10.321381q0.5092087 3.1782227 -0.29619598 5.4600525q-0.789978 2.279358 -1.2722855 3.4172668q-0.48477936 1.122467 -1.6704025 3.0065002q-1.1701965 1.8815613 -1.7661209 2.7053833q-2.1923523 3.5019226 -4.0683365 6.114197q-2.558838 3.7824097 -2.1806412 6.1429443q0.14089966 0.87939453 1.7022858 4.2049255l-9.732094 0.39404297q-3.9695663 -1.8620605 -4.4614716 -4.9322815q-0.49437714 -3.0856323 0.80885315 -6.112213q1.3032227 -3.0265808 3.0205994 -5.7399597q1.7148972 -2.7287903 2.9881363 -4.6585693q1.2707672 -1.945221 1.8444443 -2.907898q0.5891037 -0.9651489 1.3089447 -2.2994995q1.0954514 -2.2493591 0.92983246 -3.2830505q-0.1656189 -1.0336914 -0.74331665 -1.4788513q-0.56474304 -0.46310425 -1.5057831 -0.31173706q-3.0544968 0.49124146 -10.284599 10.279083l-11.035187 -6.8503113q9.960243 -14.673981 19.278008 -16.172516zm6.99572 44.848816q1.9394608 2.4259338 2.634056 6.761261q0.69460297 4.3353577 -0.5064163 9.086334l-12.835014 -0.40463257q0.5142288 -4.593048 0.024795532 -7.647827q-0.4919052 -3.070221 -1.457962 -7.1245117l12.140541 -0.6706238z" fill-rule="nonzero"></path></g></svg>

