<?xml version="1.0" encoding="UTF-8"?>
<svg xmlns="http://www.w3.org/2000/svg" xmlns:xlink="http://www.w3.org/1999/xlink" width="147pt" height="200pt" viewBox="0 0 147 200" version="1.1">
<defs>
<clipPath id="clip1">
  <path d="M 0 1.152344 L 109 1.152344 L 109 127 L 0 127 Z M 0 1.152344 "/>
</clipPath>
<clipPath id="clip2">
  <path d="M 117 16 L 146.386719 16 L 146.386719 54 L 117 54 Z M 117 16 "/>
</clipPath>
</defs>
<g id="surface1">
<path style=" stroke:none;fill-rule:nonzero;fill:rgb(41.568627%,78.039216%,89.803922%);fill-opacity:1;" d="M 76.957031 126.109375 C 76.957031 126.109375 79.058594 127.863281 79.726562 128.84375 C 85.984375 130.867188 98.28125 135.082031 102.921875 138.316406 C 106.394531 140.738281 109.457031 142.820312 106.640625 167.15625 C 106.097656 171.835938 104.5 183.75 102.15625 186.875 C 100.617188 188.925781 97.589844 190.890625 94.257812 190.890625 L 93.867188 199.425781 L 40.5625 199.425781 L 39.472656 191.824219 C 35.117188 191.824219 32.1875 188.414062 32.1875 188.414062 C 26.9375 184.570312 25.925781 160.34375 25.78125 152.019531 C 25.65625 144.589844 29.378906 139.257812 31.574219 137.871094 C 34.796875 135.835938 48.105469 131.105469 54.554688 128.867188 C 55.777344 125.558594 60.847656 123.835938 60.847656 123.835938 L 72.445312 123.835938 L 76.957031 126.109375 "/>
<path style=" stroke:none;fill-rule:nonzero;fill:rgb(97.254902%,82.352941%,70.980392%);fill-opacity:1;" d="M 61.476562 122.886719 L 61.171875 126.449219 L 59.519531 126.84375 C 59.519531 126.84375 58.296875 129.609375 58.75 131.886719 C 59.878906 132.953125 65.417969 133.609375 66.800781 133.609375 C 68.707031 133.609375 75.007812 130.867188 75.007812 130.867188 L 74.164062 127.40625 L 72.351562 126.039062 L 72.09375 122.683594 "/>
<path style=" stroke:none;fill-rule:nonzero;fill:rgb(81.176471%,58.431373%,49.411765%);fill-opacity:1;" d="M 61.328125 120.253906 L 72.25 120.253906 L 72.34375 125.5625 C 72.34375 125.5625 69.546875 131.835938 58.648438 130.765625 L 59.144531 127.402344 L 60.980469 126.535156 L 61.328125 120.253906 "/>
<path style=" stroke:none;fill-rule:nonzero;fill:rgb(85.098039%,93.72549%,96.470588%);fill-opacity:1;" d="M 52.105469 134.097656 C 46.339844 135.457031 33.476562 139.042969 29.777344 144.105469 C 25.929688 149.382812 29.496094 184.183594 29.496094 184.183594 C 29.496094 184.183594 26.316406 164.824219 26.035156 154.582031 C 25.78125 145.105469 26.542969 141.75 30.652344 138.316406 C 34.757812 134.882812 46.558594 130.78125 53.730469 129.5 L 55.777344 126.867188 L 57.835938 126.074219 L 59.519531 126.605469 C 59.519531 126.605469 53.828125 131.761719 52.105469 134.097656 "/>
<path style=" stroke:none;fill-rule:nonzero;fill:rgb(85.098039%,93.72549%,96.470588%);fill-opacity:1;" d="M 79.679688 129.445312 C 101.730469 135.929688 104.296875 139.132812 105.492188 142.375 C 106.089844 144 106.78125 146.335938 106.398438 146.164062 C 106.082031 144.277344 103.671875 141.203125 99.183594 139.15625 C 96.953125 138.136719 86.699219 134.621094 81.34375 133.617188 C 81.054688 132.25 79.679688 129.445312 79.679688 129.445312 "/>
<path style=" stroke:none;fill-rule:nonzero;fill:rgb(96.862745%,80%,66.666667%);fill-opacity:1;" d="M 39.960938 170.765625 L 40.464844 173.304688 L 40.90625 173.480469 C 41.460938 173.652344 42.054688 173.925781 42.675781 174.335938 C 42.675781 174.335938 48.933594 174.113281 51.957031 173.601562 L 52.195312 173.085938 C 52.210938 172.839844 52.238281 172.578125 52.273438 172.300781 C 52.765625 168.824219 54.585938 166.355469 56.859375 165.179688 L 57.328125 164.84375 C 57.328125 164.84375 53.574219 162.488281 50.777344 162.777344 C 47.980469 163.074219 42.304688 165.726562 39.875 170.433594 L 39.960938 170.765625 "/>
<path style=" stroke:none;fill-rule:nonzero;fill:rgb(96.862745%,80%,66.666667%);fill-opacity:1;" d="M 90.203125 173.117188 C 91.070312 172.664062 92.09375 172.019531 92.730469 171.234375 C 92.730469 171.234375 98.46875 172.757812 100.636719 171.332031 C 102.804688 169.910156 98.738281 168.441406 98.738281 168.441406 C 98.738281 168.441406 101.15625 168.636719 101.859375 167.472656 C 102.808594 165.90625 98.796875 164.871094 98.796875 164.871094 C 98.796875 164.871094 101.722656 163.527344 99.6875 162.375 C 97.574219 161.183594 93.425781 159.394531 88.78125 160.386719 C 84.191406 161.371094 79.75 166.554688 77.96875 168.855469 C 77.96875 168.855469 90.128906 173 90.203125 173.117188 "/>
<path style=" stroke:none;fill-rule:nonzero;fill:rgb(41.568627%,78.039216%,89.803922%);fill-opacity:1;" d="M 78.449219 169.460938 L 65.441406 164.785156 C 65.441406 164.785156 59.675781 164.722656 58.011719 167.730469 L 61.148438 188.414062 L 70.714844 185.175781 L 73.109375 186.109375 L 78.449219 169.460938 "/>
<path style=" stroke:none;fill-rule:nonzero;fill:rgb(85.098039%,93.72549%,96.470588%);fill-opacity:1;" d="M 35.351562 175.265625 C 35.351562 175.265625 36.714844 173.300781 38.851562 173.300781 C 40.988281 173.300781 42.675781 174.335938 42.675781 174.335938 L 51.957031 173.601562 L 52.347656 175.949219 L 41.328125 177.058594 C 41.328125 177.058594 38.851562 173.304688 35.351562 175.265625 "/>
<path style="fill:none;stroke-width:7;stroke-linecap:round;stroke-linejoin:round;stroke:rgb(10.196078%,9.803922%,9.803922%);stroke-opacity:1;stroke-miterlimit:4;" d="M 217.259115 522.987891 C 196.277902 529.838086 165.225074 540.247852 154.441964 543.933984 C 140.654762 548.648438 112.558594 558.88418 105.93378 585.794531 C 97.522321 620.061328 108.084077 703.386914 114.092262 737.052539 C 117.19122 754.375781 134.5359 783.943945 185.052083 776.128711 C 234.619606 768.455859 280.803571 747.762891 280.803571 747.762891 M 325.232515 524.475 C 344.37965 530.708203 367.96968 538.523438 377.50372 541.798242 C 391.306734 546.512695 422.391183 555.735937 429.000186 582.662109 C 437.411644 616.944727 426.644345 700.14375 420.651972 733.825195 C 417.537202 751.148438 407.544643 776.793164 352.617188 768.392578 C 303.033854 760.783008 216.183966 717.087305 216.183966 717.087305 C 216.183966 717.087305 211.994048 709.825781 213.116629 699.779883 C 215.266927 680.574023 235.710565 663.503906 253.940662 668.455664 L 369.756324 703.798242 " transform="matrix(0.247059,0,0,0.246914,0,0)"/>
<path style="fill:none;stroke-width:5;stroke-linecap:round;stroke-linejoin:round;stroke:rgb(10.196078%,9.803922%,9.803922%);stroke-opacity:1;stroke-miterlimit:4;" d="M 241.576451 729.174023 C 241.576451 729.174023 234.429874 719.36543 236.469494 709.477734 C 241.576451 684.639844 259.632626 670.79707 277.846912 675.748828 " transform="matrix(0.247059,0,0,0.246914,0,0)"/>
<path style="fill:none;stroke-width:7;stroke-linecap:round;stroke-linejoin:round;stroke:rgb(10.196078%,9.803922%,9.803922%);stroke-opacity:1;stroke-miterlimit:4;" d="M 234.809338 670.369922 C 234.809338 670.369922 214.318266 657.508008 202.886905 658.710352 C 191.471354 659.912695 168.324033 670.717969 158.394717 689.971289 M 141.571801 615.995508 L 160.797991 701.694141 M 395.93936 612.958008 L 385.772879 650.689453 M 141.571801 708.006445 C 141.571801 708.006445 152.987351 694.780664 169.826079 705.918164 C 169.826079 705.918164 199.566592 704.937305 211.883371 702.849023 M 362.451637 701.251172 C 365.977493 699.416016 370.167411 696.789844 372.760417 693.57832 C 372.760417 693.57832 396.176525 699.795703 405.030692 693.989648 C 413.884859 688.167773 397.267485 682.171875 397.267485 682.171875 C 397.267485 682.171875 407.149368 682.978711 410.026972 678.232617 C 413.90067 671.825391 397.50465 667.601367 397.50465 667.601367 C 397.50465 667.601367 409.457775 662.111719 401.156994 657.397266 C 392.539993 652.524609 375.606399 645.215625 356.633185 649.281445 C 337.454427 653.410547 319.68285 674.84707 312.789249 683.864648 M 397.267485 682.171875 C 397.267485 682.171875 384.096912 676.270898 376.918713 676.524023 C 363.510975 676.998633 354.2141 684.639844 354.2141 684.639844 M 397.50465 667.601367 C 397.50465 667.601367 380.571057 661.906055 372.823661 661.573828 C 365.47154 661.289062 356.348586 661.826953 344.980469 671.79375 M 160.797991 777.758203 L 161.904762 806.503711 M 381.519717 773.107031 L 381.978237 806.503711 " transform="matrix(0.247059,0,0,0.246914,0,0)"/>
<path style=" stroke:none;fill-rule:nonzero;fill:rgb(100%,96.470588%,56.862745%);fill-opacity:1;" d="M 58.421875 131.53125 C 58.421875 131.53125 67.359375 136.636719 75.109375 130.878906 L 74.269531 135.820312 L 66.761719 146.164062 L 59.25 135.820312 L 58.421875 131.53125 "/>
<path style="fill:none;stroke-width:7;stroke-linecap:round;stroke-linejoin:round;stroke:rgb(10.196078%,9.803922%,9.803922%);stroke-opacity:1;stroke-miterlimit:4;" d="M 249.260603 497.738672 L 247.157738 519.285937 M 247.157738 509.160937 C 247.157738 509.160937 236.422061 512.451563 236.422061 531.420117 C 236.422061 540.912305 239.821429 550.072266 239.821429 550.072266 L 204.294085 596.204297 C 204.294085 596.204297 210.128348 545.879883 211.693638 538.286133 C 214.397321 525.123633 225.496652 513.717188 228.658854 510.996094 C 238.034784 502.959375 247.220982 501.535547 247.220982 501.535547 M 291.175595 497.738672 L 293.27846 519.285937 M 293.27846 509.160937 C 293.27846 509.160937 304.029948 512.451563 304.029948 531.420117 C 304.029948 540.912305 300.614769 550.072266 300.614769 550.072266 L 336.142113 596.204297 C 336.142113 596.204297 330.323661 545.879883 328.74256 538.286133 C 326.038876 525.123633 314.955357 513.717188 311.777344 510.996094 C 302.417225 502.959375 293.231027 501.535547 293.231027 501.535547 M 300.614769 550.072266 L 270.226004 591.964453 L 239.821429 550.072266 " transform="matrix(0.247059,0,0,0.246914,0,0)"/>
<path style="fill:none;stroke-width:5;stroke-linecap:round;stroke-linejoin:round;stroke:rgb(10.196078%,9.803922%,9.803922%);stroke-opacity:1;stroke-miterlimit:4;" d="M 241.576451 550.30957 C 241.576451 550.30957 272.281436 567.854297 298.891369 548.063086 " transform="matrix(0.247059,0,0,0.246914,0,0)"/>
<path style="fill:none;stroke-width:7;stroke-linecap:round;stroke-linejoin:round;stroke:rgb(10.196078%,9.803922%,9.803922%);stroke-opacity:1;stroke-miterlimit:4;" d="M 236.453683 532.701563 C 236.453683 532.701563 272.629278 553.378711 303.998326 530.05957 " transform="matrix(0.247059,0,0,0.246914,0,0)"/>
<path style=" stroke:none;fill-rule:nonzero;fill:rgb(25.098039%,20%,17.254902%);fill-opacity:1;" d="M 7.824219 83.15625 C -7.285156 49.03125 11.984375 27.515625 11.984375 27.515625 C 6.648438 29.265625 0.863281 25.878906 0.863281 25.878906 C 15.96875 10.203125 38.210938 11.195312 38.210938 11.195312 C 35.59375 9.3125 33.070312 3.296875 33.070312 3.296875 C 61.621094 -2.675781 75.773438 14.164062 75.773438 14.164062 C 75.773438 14.164062 96.941406 10.054688 107.183594 35.480469 L 101.710938 35.832031 C 101.710938 35.832031 106.757812 46.089844 105.476562 62.558594 L 104.914062 67.003906 L 11.441406 88.300781 L 7.824219 83.15625 "/>
<path style=" stroke:none;fill-rule:nonzero;fill:rgb(54.509804%,44.313725%,39.607843%);fill-opacity:1;" d="M 10.066406 84.132812 C -2.066406 54.925781 9.570312 39.113281 15.359375 33.511719 C 17.019531 31.910156 16.703125 31.195312 15.945312 31.15625 C 13.617188 31.03125 11.371094 30.515625 10.246094 29.820312 C 5.871094 36.210938 -4.394531 55.558594 7.824219 83.15625 L 10.066406 84.132812 "/>
<path style=" stroke:none;fill-rule:nonzero;fill:rgb(54.509804%,44.313725%,39.607843%);fill-opacity:1;" d="M 43.878906 12.144531 C 42.214844 9.71875 38.222656 5.589844 38.222656 5.589844 C 49.796875 3.164062 59.007812 4.496094 65.863281 6.929688 C 58.773438 3.242188 47.78125 0.113281 32.832031 3.242188 C 32.832031 3.242188 35.359375 9.257812 37.972656 11.140625 C 37.972656 11.140625 15.730469 10.148438 0.628906 25.824219 C 0.628906 25.824219 5.960938 27.425781 9.210938 27.925781 C 20.339844 14.503906 36.953125 14.367188 43.410156 14.476562 C 45.105469 14.503906 44.570312 13.152344 43.878906 12.144531 "/>
<path style=" stroke:none;fill-rule:nonzero;fill:rgb(97.254902%,82.352941%,70.980392%);fill-opacity:1;" d="M 15.554688 84.84375 C 15.554688 84.84375 12.152344 80.8125 7.824219 83.15625 C -1.203125 88.046875 6.0625 107.34375 22.335938 105.730469 "/>
<path style=" stroke:none;fill-rule:nonzero;fill:rgb(97.254902%,82.352941%,70.980392%);fill-opacity:1;" d="M 97.664062 67.742188 C 97.664062 67.742188 99.160156 62.683594 104.070312 63.09375 C 114.300781 63.957031 115.921875 84.433594 100.121094 89.535156 "/>
<path style=" stroke:none;fill-rule:nonzero;fill:rgb(97.254902%,82.352941%,70.980392%);fill-opacity:1;" d="M 44.742188 47.730469 C 42.519531 51.84375 40.546875 57.941406 40.546875 57.941406 C 63.058594 53.390625 70.660156 35.957031 70.660156 35.957031 C 70.660156 35.957031 74.882812 46.269531 85.550781 51.800781 L 85.746094 46.6875 C 85.746094 46.6875 92.726562 51.25 96.351562 63.457031 C 98.347656 71.082031 100.625 83.449219 99.226562 94.164062 C 96.609375 114.210938 76.660156 122.800781 66.765625 124.871094 C 56.875 126.941406 35.148438 127.070312 24.710938 109.757812 C 18.804688 99.980469 15.925781 86.859375 14.820312 79.191406 C 13.046875 59.84375 28.410156 51.453125 28.410156 51.453125 L 24.867188 60.273438 C 32.820312 58.132812 44.324219 47.964844 44.324219 47.964844 L 44.742188 47.730469 "/>
<path style=" stroke:none;fill-rule:nonzero;fill:rgb(100%,100%,99.607843%);fill-opacity:1;" d="M 48.210938 81.453125 C 49.539062 87.785156 46.675781 93.742188 41.820312 94.761719 C 36.964844 95.777344 31.949219 91.464844 30.625 85.136719 C 29.296875 78.804688 32.164062 72.851562 37.019531 71.832031 C 41.871094 70.816406 46.886719 75.125 48.210938 81.453125 "/>
<path style=" stroke:none;fill-rule:nonzero;fill:rgb(100%,100%,99.607843%);fill-opacity:1;" d="M 84.6875 73.84375 C 86.015625 80.179688 83.15625 86.136719 78.300781 87.152344 C 73.441406 88.167969 68.429688 83.859375 67.101562 77.527344 C 65.773438 71.195312 68.636719 65.242188 73.496094 64.222656 C 78.351562 63.207031 83.363281 67.511719 84.6875 73.84375 "/>
<path style=" stroke:none;fill-rule:nonzero;fill:rgb(92.54902%,59.607843%,58.823529%);fill-opacity:1;" d="M 36.765625 96.585938 C 37.144531 98.390625 34.265625 100.519531 30.335938 101.339844 C 26.40625 102.164062 22.917969 101.367188 22.539062 99.5625 C 22.160156 97.757812 25.039062 95.628906 28.96875 94.804688 C 32.898438 93.984375 36.386719 94.78125 36.765625 96.585938 "/>
<path style=" stroke:none;fill-rule:nonzero;fill:rgb(92.54902%,59.607843%,58.823529%);fill-opacity:1;" d="M 97.1875 83.941406 C 97.5625 85.746094 94.683594 87.875 90.757812 88.699219 C 86.828125 89.519531 83.335938 88.722656 82.957031 86.917969 C 82.582031 85.113281 85.457031 82.984375 89.386719 82.164062 C 93.316406 81.339844 96.808594 82.136719 97.1875 83.941406 "/>
<path style=" stroke:none;fill-rule:nonzero;fill:rgb(81.176471%,58.431373%,49.411765%);fill-opacity:1;" d="M 19.851562 99.683594 L 17.605469 92.496094 C 17.605469 92.496094 14.65625 88.363281 11.441406 88.300781 C 7.304688 88.222656 8.496094 94.316406 11.925781 97.183594 C 17.179688 101.570312 19.851562 99.683594 19.851562 99.683594 "/>
<path style=" stroke:none;fill-rule:nonzero;fill:rgb(81.176471%,58.431373%,49.411765%);fill-opacity:1;" d="M 100.238281 82.863281 L 99.410156 75.378906 C 99.410156 75.378906 100.453125 70.40625 103.371094 69.0625 C 107.128906 67.332031 108.484375 73.394531 106.488281 77.394531 C 103.441406 83.515625 100.238281 82.863281 100.238281 82.863281 "/>
<path style=" stroke:none;fill-rule:nonzero;fill:rgb(82.352941%,87.843137%,92.156863%);fill-opacity:1;" d="M 38.382812 74.480469 C 40.417969 74.054688 42.4375 74.015625 44.363281 74.289062 C 42.265625 72.28125 39.621094 71.289062 37.019531 71.832031 C 34.078125 72.445312 31.878906 74.878906 30.886719 78.101562 C 32.957031 76.367188 35.5 75.082031 38.382812 74.480469 "/>
<path style=" stroke:none;fill-rule:nonzero;fill:rgb(82.352941%,87.843137%,92.156863%);fill-opacity:1;" d="M 73.363281 67.183594 C 71.328125 67.609375 69.464844 68.382812 67.808594 69.410156 C 68.929688 66.726562 70.949219 64.753906 73.550781 64.214844 C 76.488281 63.597656 79.480469 64.9375 81.683594 67.492188 C 79.089844 66.738281 76.246094 66.582031 73.363281 67.183594 "/>
<path style=" stroke:none;fill-rule:nonzero;fill:rgb(54.509804%,44.313725%,39.607843%);fill-opacity:1;" d="M 5.933594 45.253906 C 23.148438 45.539062 32.226562 42.546875 37.832031 40.007812 C 41.601562 38.3125 39.125 37.59375 37.25 37.835938 C 17.929688 40.320312 10.394531 35.230469 10.394531 35.230469 L 5.933594 45.253906 "/>
<path style="fill:none;stroke-width:7;stroke-linecap:round;stroke-linejoin:round;stroke:rgb(10.196078%,9.803922%,9.803922%);stroke-opacity:1;stroke-miterlimit:4;" d="M 164.37128 253.425586 C 147.690662 238.96582 111.847098 249.755273 105.93378 271.239258 M 262.383743 222.038086 C 277.641369 237.984961 314.322917 230.581055 322.212612 209.714062 " transform="matrix(0.247059,0,0,0.246914,0,0)"/>
<path style="fill:none;stroke-width:8;stroke-linecap:round;stroke-linejoin:round;stroke:rgb(10.196078%,9.803922%,9.803922%);stroke-opacity:1;stroke-miterlimit:4;" d="M 185.62128 303.797461 C 164.086682 275.447461 101.475074 288.388477 125.966332 360.798047 " transform="matrix(0.247059,0,0,0.246914,0,0)"/>
<path style="fill:none;stroke-width:7;stroke-linecap:round;stroke-linejoin:round;stroke:rgb(10.196078%,9.803922%,9.803922%);stroke-opacity:1;stroke-miterlimit:4;" d="M 62.959449 343.617188 C 62.959449 343.617188 49.188058 327.290625 31.669457 336.782812 C -4.869792 356.589844 24.53869 434.742188 90.407366 428.208398 M 37.772507 357.91875 C 37.772507 357.91875 48.871838 346.844531 71.529018 376.491797 " transform="matrix(0.247059,0,0,0.246914,0,0)"/>
<path style="fill:none;stroke-width:8;stroke-linecap:round;stroke-linejoin:round;stroke:rgb(10.196078%,9.803922%,9.803922%);stroke-opacity:1;stroke-miterlimit:4;" d="M 269.040179 289.622461 C 274.036458 252.587109 340.347842 236.054883 347.178199 314.586914 " transform="matrix(0.247059,0,0,0.246914,0,0)"/>
<path style="fill:none;stroke-width:7;stroke-linecap:round;stroke-linejoin:round;stroke:rgb(10.196078%,9.803922%,9.803922%);stroke-opacity:1;stroke-miterlimit:4;" d="M 395.30692 274.355859 C 395.30692 274.355859 401.362537 253.868555 421.236979 255.529687 C 462.646019 259.025977 469.207589 341.956055 405.252046 362.617383 M 424.715402 277.535742 C 424.715402 277.535742 410.121838 271.84043 401.25186 308.100586 M 243.552827 378.247852 L 241.576451 368.834766 " transform="matrix(0.247059,0,0,0.246914,0,0)"/>
<path style=" stroke:none;fill-rule:nonzero;fill:rgb(10.196078%,9.803922%,9.803922%);fill-opacity:1;" d="M 47.429688 80.886719 C 48.335938 85.203125 46.640625 89.203125 43.644531 89.832031 C 40.652344 90.457031 37.492188 87.46875 36.589844 83.15625 C 35.683594 78.84375 37.378906 74.839844 40.375 74.210938 C 43.367188 73.585938 46.527344 76.574219 47.429688 80.886719 "/>
<path style=" stroke:none;fill-rule:nonzero;fill:rgb(10.196078%,9.803922%,9.803922%);fill-opacity:1;" d="M 67.542969 76.75 C 68.445312 81.058594 71.609375 84.050781 74.601562 83.421875 C 77.597656 82.796875 79.292969 78.792969 78.386719 74.480469 C 77.484375 70.167969 74.328125 67.179688 71.328125 67.804688 C 68.335938 68.433594 66.640625 72.4375 67.542969 76.75 "/>
<path style=" stroke:none;fill-rule:nonzero;fill:rgb(100%,100%,99.607843%);fill-opacity:1;" d="M 46.789062 78.292969 C 46.972656 79.179688 46.40625 80.042969 45.523438 80.226562 C 44.636719 80.414062 43.769531 79.847656 43.585938 78.964844 C 43.398438 78.078125 43.96875 77.210938 44.851562 77.027344 C 45.734375 76.84375 46.605469 77.410156 46.789062 78.292969 "/>
<path style=" stroke:none;fill-rule:nonzero;fill:rgb(100%,100%,99.607843%);fill-opacity:1;" d="M 77.421875 71.953125 C 77.605469 72.839844 77.039062 73.703125 76.152344 73.890625 C 75.269531 74.074219 74.402344 73.511719 74.21875 72.621094 C 74.035156 71.742188 74.601562 70.871094 75.484375 70.683594 C 76.367188 70.5 77.234375 71.066406 77.421875 71.953125 "/>
<g clip-path="url(#clip1)" clip-rule="nonzero">
<path style="fill:none;stroke-width:7;stroke-linecap:round;stroke-linejoin:round;stroke:rgb(10.196078%,9.803922%,9.803922%);stroke-opacity:1;stroke-miterlimit:4;" d="M 187.913876 182.851172 C 176.577381 196.124414 164.118304 234.662695 164.118304 234.662695 C 255.237165 216.232031 286.005394 145.625977 286.005394 145.625977 C 286.005394 145.625977 303.097098 187.391602 346.276972 209.793164 L 347.067522 189.084375 C 347.067522 189.084375 375.321801 207.5625 389.99442 257.000977 C 398.073847 287.882227 407.291667 337.969336 401.631324 381.364453 C 391.037946 462.554297 310.291109 497.343164 270.241815 505.72793 C 230.208333 514.112695 142.267485 514.634766 100.020461 444.519141 C 76.114211 404.920898 64.461496 351.780469 59.986979 320.725195 C 52.80878 242.367188 114.99349 208.385156 114.99349 208.385156 L 100.652902 244.107422 C 132.844122 235.437891 179.407552 194.257617 179.407552 194.257617 M 31.669457 336.782812 C -29.487537 198.576562 48.508185 111.438281 48.508185 111.438281 C 26.910342 118.525781 3.494234 104.80957 3.494234 104.80957 C 64.635417 41.322656 154.663318 45.341016 154.663318 45.341016 C 144.06994 37.715625 133.856027 13.352344 133.856027 13.352344 C 249.418713 -10.836914 306.702009 57.364453 306.702009 57.364453 C 306.702009 57.364453 392.381882 40.721484 433.838356 143.695898 L 411.687128 145.119727 C 411.687128 145.119727 432.114955 186.663867 426.928943 253.362305 M 249.655878 476.317969 C 249.655878 476.317969 260.676153 464.310352 283.665365 475.511133 " transform="matrix(0.247059,0,0,0.246914,0,0)"/>
</g>
<path style="fill:none;stroke-width:5;stroke-linecap:butt;stroke-linejoin:miter;stroke:rgb(10.196078%,9.803922%,9.803922%);stroke-opacity:1;stroke-miterlimit:4;" d="M 278.163132 612.958008 C 278.163132 617.197852 274.732143 620.630859 270.494792 620.630859 C 266.25744 620.630859 262.81064 617.197852 262.81064 612.958008 C 262.81064 608.718164 266.25744 605.285156 270.494792 605.285156 C 274.732143 605.285156 278.163132 608.718164 278.163132 612.958008 Z M 278.163132 654.612891 C 278.163132 658.836914 274.732143 662.285742 270.494792 662.285742 C 266.25744 662.285742 262.81064 658.836914 262.81064 654.612891 C 262.81064 650.373047 266.25744 646.940039 270.494792 646.940039 C 274.732143 646.940039 278.163132 650.373047 278.163132 654.612891 Z M 278.163132 654.612891 " transform="matrix(0.247059,0,0,0.246914,0,0)"/>
<g clip-path="url(#clip2)" clip-rule="nonzero">
<path style=" stroke:none;fill-rule:nonzero;fill:rgb(45.098039%,39.607843%,61.960784%);fill-opacity:1;" d="M 117.734375 46.9375 C 118.886719 44.652344 121.703125 43.691406 124.03125 44.863281 C 126.316406 46.015625 127.257812 48.871094 126.105469 51.15625 C 124.972656 53.398438 122.160156 54.363281 119.828125 53.1875 C 117.5 52.011719 116.601562 49.179688 117.734375 46.9375 Z M 145.273438 33.339844 C 143.53125 36.789062 141.457031 37.367188 139.53125 37.855469 C 137.734375 38.300781 135.9375 38.75 134.144531 39.199219 C 130.660156 39.984375 129.941406 41.191406 129.316406 42.226562 C 128.902344 42.828125 127.488281 45.199219 124.726562 43.808594 C 122.65625 42.765625 122.574219 40.886719 123.445312 39.160156 C 124.902344 36.273438 127.804688 34.378906 131.027344 33.679688 C 132.542969 33.359375 137.429688 32.363281 137.90625 32.058594 C 138.515625 31.71875 139.121094 31.265625 139.535156 30.445312 C 140.363281 28.808594 140.027344 25.933594 136.316406 24.0625 C 132.949219 22.367188 129.726562 22.960938 128.507812 25.375 C 128.3125 25.761719 127.765625 27.597656 127.589844 27.941406 C 127.113281 28.890625 125.679688 29.898438 123.699219 28.898438 C 120.503906 27.289062 122.050781 23.6875 122.574219 22.652344 C 124.621094 18.601562 130.230469 14.449219 139.078125 18.910156 C 146.757812 22.78125 147.539062 28.855469 145.273438 33.339844 "/>
</g>
</g>
</svg>
