<?xml version="1.0" encoding="UTF-8"?>
<svg xmlns="http://www.w3.org/2000/svg" xmlns:xlink="http://www.w3.org/1999/xlink" width="211pt" height="200pt" viewBox="0 0 211 200" version="1.1">
<g id="surface1">
<path style=" stroke:none;fill-rule:nonzero;fill:rgb(40%,40%,40%);fill-opacity:1;" d="M 165.757812 196.292969 C 165.757812 196.292969 162.640625 199.039062 160.890625 201.945312 L 156.132812 172.867188 L 166.148438 177.011719 Z M 100.910156 196.292969 L 100.519531 177.011719 L 110.488281 172.890625 L 105.742188 201.878906 C 103.988281 199 100.910156 196.292969 100.910156 196.292969 M 192.4375 84.742188 C 192.445312 83.160156 192.394531 81.578125 192.296875 79.996094 C 193.296875 77.296875 205.992188 41.164062 172.917969 23.242188 C 172.917969 23.242188 161.519531 0.113281 114.523438 10.976562 C 108.410156 11.769531 97.894531 12.34375 90.058594 8.628906 C 90.058594 8.628906 88.589844 13.800781 95.546875 18.023438 C 62.824219 37.191406 75.761719 80.265625 75.761719 80.265625 C 75.761719 80.265625 75.824219 79.742188 75.976562 78.824219 C 75.84375 80.488281 75.761719 82.160156 75.746094 83.824219 C 71.066406 85.027344 66.464844 88.355469 66.417969 96.816406 C 66.367188 105.667969 71.34375 110.328125 81.574219 111.546875 C 88.390625 125.980469 101.261719 137.402344 120.683594 141.019531 C 118.246094 141.632812 116.175781 142.339844 114.699219 142.992188 L 114.695312 142.921875 C 114.695312 142.921875 114.367188 143.066406 113.609375 143.519531 C 113.277344 143.695312 113.003906 143.867188 112.792969 144.023438 C 112.660156 144.109375 112.53125 144.191406 112.382812 144.289062 C 107.085938 147.742188 89.554688 162.054688 85.972656 169.269531 C 83.601562 174.054688 87.476562 188.210938 93.71875 200.238281 C 93.695312 200.265625 93.671875 200.285156 93.644531 200.316406 C 89.527344 204.878906 93.324219 209.609375 93.324219 209.609375 C 93.324219 209.609375 93.847656 214.316406 98.972656 214.753906 C 101.117188 214.9375 102.757812 214.011719 103.984375 212.617188 L 100.953125 231.136719 L 102.917969 231.136719 C 102.269531 232.957031 101.644531 234.808594 101.046875 236.671875 L 100.953125 236.734375 C 100.980469 236.726562 101.007812 236.714844 101.035156 236.707031 C 95.160156 255.085938 91.984375 274.539062 91.984375 274.539062 L 97.253906 276.074219 L 95.691406 283.605469 L 95.597656 283.578125 L 87.339844 323.035156 L 88.140625 323.332031 C 86.039062 323.253906 83.914062 323.59375 82.109375 324.71875 C 80.632812 325.644531 79.746094 326.484375 79.222656 327.203125 C 76.332031 329.6875 77.15625 331.476562 77.15625 331.476562 L 93.816406 337.546875 L 94.472656 335.789062 L 98.082031 326.125 C 98.082031 326.125 98.042969 326.105469 97.972656 326.066406 L 111.324219 287.980469 L 111.320312 287.980469 L 113.824219 280.910156 L 118.109375 282.160156 L 126.894531 256.695312 L 130.484375 242.578125 L 130.585938 255.722656 L 131.753906 282.636719 L 137.765625 282.667969 L 138.230469 290.082031 L 140.5625 329.21875 L 140.511719 338.652344 L 140.5 340.527344 L 158.226562 340.78125 C 158.226562 340.78125 159.636719 339.402344 157.8125 336.054688 C 157.578125 335.191406 157.046875 334.09375 155.996094 332.703125 C 154.902344 331.261719 153.394531 330.269531 151.742188 329.589844 L 154.558594 290.167969 L 154.460938 290.167969 L 155.003906 282.765625 L 158.964844 282.789062 C 158.964844 282.789062 161.460938 263.242188 161.066406 243.945312 C 161.085938 243.960938 161.109375 243.976562 161.132812 243.992188 L 161.0625 243.90625 C 160.972656 239.5625 160.738281 235.230469 160.289062 231.136719 L 165.667969 231.136719 L 162.625 212.554688 C 163.863281 213.988281 165.519531 214.9375 167.695312 214.753906 C 172.820312 214.316406 173.34375 209.609375 173.34375 209.609375 C 173.34375 209.609375 177.144531 204.878906 173.023438 200.316406 C 173 200.285156 172.976562 200.265625 172.949219 200.238281 C 179.195312 188.210938 183.070312 174.054688 180.695312 169.269531 C 177.117188 162.054688 159.585938 147.742188 154.289062 144.289062 C 154.140625 144.195312 154.011719 144.113281 153.882812 144.027344 C 153.667969 143.867188 153.394531 143.695312 153.054688 143.515625 C 152.300781 143.0625 151.972656 142.921875 151.972656 142.921875 L 151.96875 142.988281 C 150.636719 142.402344 148.8125 141.769531 146.675781 141.195312 C 166.296875 137.828125 179.375 126.464844 186.355469 112 C 195.957031 110.714844 200.6875 106.140625 200.734375 97.566406 C 200.78125 89.648438 196.777344 86.179688 192.4375 84.742188 "/>
<path style="fill:none;stroke-width:24;stroke-linecap:round;stroke-linejoin:round;stroke:rgb(40%,40%,40%);stroke-opacity:1;stroke-miterlimit:4;" d="M 634.750296 750.820605 C 634.750296 750.820605 622.813389 761.324414 616.111967 772.44082 L 597.892476 661.216992 L 636.246149 677.069824 Z M 386.423726 750.820605 L 384.927873 677.069824 L 423.102044 661.306641 L 404.927429 772.186816 C 398.211049 761.175 386.423726 750.820605 386.423726 750.820605 Z M 736.917062 324.138867 C 736.946979 318.087598 736.752518 312.036328 736.378555 305.985059 C 740.207938 295.660547 788.823164 157.452539 662.169283 88.901367 C 662.169283 88.901367 618.52029 0.433301 438.554206 41.985352 C 415.144105 45.018457 374.875741 47.214844 344.868928 33.005566 C 344.868928 33.005566 339.24452 52.787988 365.885664 68.939648 C 240.578051 142.257129 290.120705 307.016016 290.120705 307.016016 C 290.120705 307.016016 290.360041 305.013867 290.943424 301.502637 C 290.434834 307.867676 290.120705 314.262598 290.060871 320.627637 C 272.140551 325.22959 254.519402 337.959668 254.339899 370.322754 C 254.145438 404.17998 273.202607 422.005078 312.378999 426.666797 C 338.481635 481.875293 387.769994 525.563965 462.143809 539.399707 C 452.809686 541.745508 444.881665 544.449902 439.22734 546.945117 L 439.212382 546.676172 C 439.212382 546.676172 437.955865 547.229004 435.05391 548.962207 C 433.782435 549.63457 432.735338 550.291992 431.927577 550.889648 C 431.418987 551.218359 430.925355 551.532129 430.356931 551.905664 C 410.073164 565.113867 342.939277 619.85918 329.222305 647.455957 C 320.142476 665.75918 334.981339 719.906836 358.885071 765.911426 C 358.79532 766.016016 358.705569 766.090723 358.600859 766.210254 C 342.834568 783.661816 357.374259 801.755859 357.374259 801.755859 C 357.374259 801.755859 359.378703 819.760254 379.004295 821.433691 C 387.216528 822.135938 393.499111 818.594824 398.19609 813.260742 L 386.58827 884.097949 L 394.112411 884.097949 C 391.629295 891.060645 389.23593 898.142871 386.947275 905.269922 L 386.58827 905.508984 C 386.69298 905.479102 386.79769 905.434277 386.902399 905.404395 C 364.404769 975.703711 352.243483 1050.111914 352.243483 1050.111914 L 372.422541 1055.983887 L 366.439129 1084.790918 L 366.080124 1084.686328 L 334.45779 1235.609473 L 337.524289 1236.74502 C 329.4766 1236.446191 321.339159 1237.746094 314.428318 1242.049219 C 308.773993 1245.590332 305.378406 1248.802734 303.373963 1251.551953 C 292.30465 1261.054688 295.4609 1267.897852 295.4609 1267.897852 L 359.259034 1291.116797 L 361.772068 1284.393164 L 375.59375 1247.428125 C 375.59375 1247.428125 375.444165 1247.353418 375.174911 1247.204004 L 426.303169 1101.525293 L 426.288211 1101.525293 L 435.876629 1074.481348 L 452.286137 1079.262598 L 485.927873 981.85957 L 499.674763 927.861328 L 500.063685 978.13916 L 504.536286 1081.085449 L 527.557464 1081.20498 L 529.33753 1109.56377 L 538.267773 1259.261719 L 538.073312 1295.345215 L 538.028436 1302.51709 L 605.910249 1303.488281 C 605.910249 1303.488281 611.310278 1298.213965 604.324645 1285.40918 C 603.427133 1282.107129 601.392773 1277.908594 597.368928 1272.589453 C 593.180539 1267.076074 587.406546 1263.280957 581.079088 1260.681152 L 591.864188 1109.89248 L 591.490225 1109.89248 L 593.569461 1081.578516 L 608.737411 1081.668164 C 608.737411 1081.668164 618.295912 1006.901367 616.785101 933.09082 C 616.859893 933.150586 616.949645 933.210352 617.039396 933.270117 L 616.770142 932.941406 C 616.426096 916.326563 615.528584 899.756543 613.808353 884.097949 L 634.40625 884.097949 L 622.753555 813.02168 C 627.495409 818.505176 633.837826 822.135938 642.169727 821.433691 C 661.79532 819.760254 663.799763 801.755859 663.799763 801.755859 C 663.799763 801.755859 678.354414 783.661816 662.573164 766.210254 C 662.483412 766.090723 662.393661 766.016016 662.288951 765.911426 C 686.207642 719.906836 701.046505 665.75918 691.951718 647.455957 C 678.249704 619.85918 611.115818 565.113867 590.83205 551.905664 C 590.263626 551.54707 589.769994 551.233301 589.276363 550.90459 C 588.453643 550.291992 587.406546 549.63457 586.105154 548.947266 C 583.218158 547.214062 581.961641 546.676172 581.961641 546.676172 L 581.946682 546.930176 C 576.845823 544.688965 569.86019 542.268457 561.677873 540.07207 C 636.814573 527.192578 686.895735 483.728027 713.626629 428.4 C 750.394698 423.484277 768.509479 405.987891 768.688981 373.191504 C 768.868483 342.905273 753.535989 329.637305 736.917062 324.138867 Z M 736.917062 324.138867 " transform="matrix(0.261139,0,0,0.261438,0,0.000000000000014861)"/>
<path style="fill:none;stroke-width:18;stroke-linecap:round;stroke-linejoin:round;stroke:rgb(95.294118%,71.372549%,76.078431%);stroke-opacity:1;stroke-miterlimit:4;" d="M 198.155658 266.285742 C 211.528584 257.664551 230.585752 240.735937 230.615669 214.30459 C 230.675504 173.589258 167.146623 168.150586 154.731043 198.04834 C 154.731043 198.04834 132.188537 153.866602 95.929058 167.747168 C 59.654621 181.642676 75.151659 217.053809 75.151659 217.053809 C 75.151659 217.053809 21.106487 217.262988 31.397956 265.000781 C 41.704384 312.753516 75.914544 322.211426 97.140699 312.320215 C 97.140699 312.320215 112.518069 337.884961 138.156991 328.95 C 147.102192 325.827246 153.010812 320.98623 156.914988 315.995801 " transform="matrix(0.261139,0,0,0.261438,0,0.000000000000014861)"/>
<path style="fill:none;stroke-width:18;stroke-linecap:round;stroke-linejoin:round;stroke:rgb(95.294118%,71.372549%,76.078431%);stroke-opacity:1;stroke-miterlimit:4;" d="M 152.965936 276.655078 L 210.900326 324.856055 " transform="matrix(0.261139,0,0,0.261438,0,0.000000000000014861)"/>
<path style="fill-rule:nonzero;fill:rgb(100%,76.862745%,41.960784%);fill-opacity:1;stroke-width:12;stroke-linecap:round;stroke-linejoin:round;stroke:rgb(40%,40%,40%);stroke-opacity:1;stroke-miterlimit:4;" d="M 590.383294 551.86084 C 584.788803 545.958984 547.796357 533.049609 510.80391 533.184082 C 510.773993 533.184082 510.729117 533.184082 510.6992 533.184082 L 510.489781 533.184082 C 510.444905 533.184082 510.414988 533.184082 510.385071 533.184082 C 473.377666 533.049609 436.400178 545.958984 430.790729 551.86084 L 433.976896 633.635156 L 510.594491 634.053516 L 587.212085 633.635156 Z M 590.383294 551.86084 " transform="matrix(0.261139,0,0,0.261438,0,0.000000000000014861)"/>
<path style="fill-rule:nonzero;fill:rgb(100%,76.862745%,41.960784%);fill-opacity:1;stroke-width:12;stroke-linecap:round;stroke-linejoin:round;stroke:rgb(40%,40%,40%);stroke-opacity:1;stroke-miterlimit:4;" d="M 581.961641 546.676172 C 581.961641 546.676172 584.474674 547.751953 590.83205 551.905664 C 611.115818 565.113867 678.249704 619.85918 691.951718 647.455957 C 701.226007 666.132715 685.594342 722.17793 660.808057 768.750293 L 634.750296 750.820605 L 636.246149 677.069824 L 574.527251 651.564844 " transform="matrix(0.261139,0,0,0.261438,0,0.000000000000014861)"/>
<path style=" stroke:none;fill-rule:nonzero;fill:rgb(100%,92.54902%,81.568627%);fill-opacity:1;" d="M 165.757812 196.292969 C 165.757812 196.292969 159.242188 202.027344 159.765625 205.6875 C 160.285156 209.347656 162.574219 215.191406 167.695312 214.753906 C 172.820312 214.316406 173.34375 209.609375 173.34375 209.609375 C 173.34375 209.609375 177.144531 204.878906 173.023438 200.316406 C 168.90625 195.753906 165.757812 196.292969 165.757812 196.292969 "/>
<path style="fill:none;stroke-width:12;stroke-linecap:round;stroke-linejoin:round;stroke:rgb(40%,40%,40%);stroke-opacity:1;stroke-miterlimit:4;" d="M 634.750296 750.820605 C 634.750296 750.820605 609.799467 772.75459 611.80391 786.754688 C 613.793395 800.754785 622.559094 823.107129 642.169727 821.433691 C 661.79532 819.760254 663.799763 801.755859 663.799763 801.755859 C 663.799763 801.755859 678.354414 783.661816 662.573164 766.210254 C 646.806872 748.758691 634.750296 750.820605 634.750296 750.820605 Z M 634.750296 750.820605 " transform="matrix(0.261139,0,0,0.261438,0,0.000000000000014861)"/>
<path style="fill-rule:nonzero;fill:rgb(100%,76.862745%,41.960784%);fill-opacity:1;stroke-width:12;stroke-linecap:round;stroke-linejoin:round;stroke:rgb(40%,40%,40%);stroke-opacity:1;stroke-miterlimit:4;" d="M 439.212382 546.676172 C 439.212382 546.676172 436.699348 547.751953 430.356931 551.905664 C 410.073164 565.113867 342.939277 619.85918 329.222305 647.455957 C 319.948015 666.132715 335.594639 722.17793 360.380924 768.750293 L 386.423726 750.820605 L 384.927873 677.069824 L 446.66173 651.564844 " transform="matrix(0.261139,0,0,0.261438,0,0.000000000000014861)"/>
<path style=" stroke:none;fill-rule:nonzero;fill:rgb(100%,92.54902%,81.568627%);fill-opacity:1;" d="M 100.910156 196.292969 C 100.910156 196.292969 107.429688 202.027344 106.90625 205.6875 C 106.382812 209.347656 104.097656 215.191406 98.972656 214.753906 C 93.847656 214.316406 93.324219 209.609375 93.324219 209.609375 C 93.324219 209.609375 89.527344 204.878906 93.644531 200.316406 C 97.765625 195.753906 100.910156 196.292969 100.910156 196.292969 "/>
<path style="fill:none;stroke-width:12;stroke-linecap:round;stroke-linejoin:round;stroke:rgb(40%,40%,40%);stroke-opacity:1;stroke-miterlimit:4;" d="M 386.423726 750.820605 C 386.423726 750.820605 411.389514 772.75459 409.385071 786.754688 C 407.380628 800.754785 398.629887 823.107129 379.004295 821.433691 C 359.378703 819.760254 357.374259 801.755859 357.374259 801.755859 C 357.374259 801.755859 342.834568 783.661816 358.600859 766.210254 C 374.382109 748.758691 386.423726 750.820605 386.423726 750.820605 Z M 386.423726 750.820605 " transform="matrix(0.261139,0,0,0.261438,0,0.000000000000014861)"/>
<path style="fill-rule:nonzero;fill:rgb(87.058824%,95.294118%,100%);fill-opacity:1;stroke-width:12;stroke-linecap:round;stroke-linejoin:round;stroke:rgb(40%,40%,40%);stroke-opacity:1;stroke-miterlimit:4;" d="M 510.19061 608.055469 L 538.656694 553.66875 L 482.173282 553.35498 Z M 510.19061 608.055469 " transform="matrix(0.261139,0,0,0.261438,0,0.000000000000014861)"/>
<path style="fill-rule:nonzero;fill:rgb(100%,92.54902%,81.568627%);fill-opacity:1;stroke-width:12;stroke-linecap:round;stroke-linejoin:round;stroke:rgb(40%,40%,40%);stroke-opacity:1;stroke-miterlimit:4;" d="M 531.252222 530.150977 L 527.677133 489.91377 L 510.90862 478.887012 L 494.035397 489.734473 L 490.011552 529.911914 L 476.369372 536.276953 C 476.369372 536.276953 476.877962 566.159766 510.429947 566.339062 C 543.981931 566.533301 544.80465 536.66543 544.80465 536.66543 Z M 531.252222 530.150977 " transform="matrix(0.261139,0,0,0.261438,0,0.000000000000014861)"/>
<path style="fill-rule:nonzero;fill:rgb(100%,92.54902%,81.568627%);fill-opacity:1;stroke-width:12;stroke-linecap:round;stroke-linejoin:round;stroke:rgb(40%,40%,40%);stroke-opacity:1;stroke-miterlimit:4;" d="M 327.546949 319.850684 C 327.546949 319.850684 254.698904 304.386328 254.339899 370.322754 C 254.115521 409.110645 279.126185 426.846094 330.733116 427.877051 " transform="matrix(0.261139,0,0,0.261438,0,0.000000000000014861)"/>
<path style="fill-rule:nonzero;fill:rgb(100%,92.54902%,81.568627%);fill-opacity:1;stroke-width:12;stroke-linecap:round;stroke-linejoin:round;stroke:rgb(40%,40%,40%);stroke-opacity:1;stroke-miterlimit:4;" d="M 282.102932 374.043164 C 282.102932 374.043164 291.691351 369.680273 300.801096 369.784863 " transform="matrix(0.261139,0,0,0.261438,0,0.000000000000014861)"/>
<path style="fill-rule:nonzero;fill:rgb(100%,92.54902%,81.568627%);fill-opacity:1;stroke-width:12;stroke-linecap:round;stroke-linejoin:round;stroke:rgb(40%,40%,40%);stroke-opacity:1;stroke-miterlimit:4;" d="M 696.050355 321.912598 C 696.050355 321.912598 769.062944 307.27002 768.688981 373.191504 C 768.464603 411.979395 743.274437 429.445898 691.652547 429.894141 " transform="matrix(0.261139,0,0,0.261438,0,0.000000000000014861)"/>
<path style="fill-rule:nonzero;fill:rgb(100%,92.54902%,81.568627%);fill-opacity:1;stroke-width:12;stroke-linecap:round;stroke-linejoin:round;stroke:rgb(40%,40%,40%);stroke-opacity:1;stroke-miterlimit:4;" d="M 740.881072 376.613086 C 740.881072 376.613086 731.352488 372.145605 722.242743 372.145605 " transform="matrix(0.261139,0,0,0.261438,0,0.000000000000014861)"/>
<path style=" stroke:none;fill-rule:nonzero;fill:rgb(100%,92.54902%,81.568627%);fill-opacity:1;" d="M 133.765625 142.226562 C 52.054688 141.769531 60.632812 21.683594 134.4375 22.097656 C 208.242188 22.511719 215.476562 142.683594 133.765625 142.226562 "/>
<path style="fill:none;stroke-width:12;stroke-linecap:round;stroke-linejoin:round;stroke:rgb(40%,40%,40%);stroke-opacity:1;stroke-miterlimit:4;" d="M 512.239929 544.016602 C 199.337382 542.268457 232.186315 82.939746 514.812796 84.523535 C 797.439277 86.107324 825.142476 545.764746 512.239929 544.016602 Z M 512.239929 544.016602 " transform="matrix(0.261139,0,0,0.261438,0,0.000000000000014861)"/>
<path style=" stroke:none;fill-rule:nonzero;fill:rgb(60%,48.235294%,36.078431%);fill-opacity:1;" d="M 101.9375 37.746094 C 101.9375 37.746094 112.414062 55.453125 137.84375 61.085938 L 135.597656 42.25 C 135.597656 42.25 143.3125 56.589844 167.183594 60.644531 L 164.941406 48.6875 C 164.941406 48.6875 187.300781 60.078125 192.234375 80.160156 C 192.234375 80.160156 207.285156 41.867188 172.917969 23.242188 C 172.917969 23.242188 160.910156 -1.140625 110.699219 11.914062 C 59.242188 25.289062 75.761719 80.265625 75.761719 80.265625 C 75.761719 80.265625 79.144531 50.953125 101.9375 37.746094 "/>
<path style="fill:none;stroke-width:12;stroke-linecap:round;stroke-linejoin:round;stroke:rgb(40%,40%,40%);stroke-opacity:1;stroke-miterlimit:4;" d="M 390.35782 144.378809 C 390.35782 144.378809 430.4766 212.108203 527.856635 233.653711 L 519.25548 161.60625 C 519.25548 161.60625 548.798578 216.456152 640.21016 231.965332 L 631.623963 186.229687 C 631.623963 186.229687 717.246594 229.798828 736.139218 306.612598 C 736.139218 306.612598 793.774437 160.141992 662.169283 88.901367 C 662.169283 88.901367 616.186759 -4.362891 423.909805 45.571289 C 226.861078 96.730664 290.120705 307.016016 290.120705 307.016016 C 290.120705 307.016016 303.074793 194.895703 390.35782 144.378809 Z M 390.35782 144.378809 " transform="matrix(0.261139,0,0,0.261438,0,0.000000000000014861)"/>
<path style="fill-rule:nonzero;fill:rgb(60%,48.235294%,36.078431%);fill-opacity:1;stroke-width:12;stroke-linecap:round;stroke-linejoin:round;stroke:rgb(40%,40%,40%);stroke-opacity:1;stroke-miterlimit:4;" d="M 457.641291 38.802832 C 457.641291 38.802832 389.74452 54.267187 344.868928 33.005566 C 344.868928 33.005566 337.584123 58.585254 378.75 75.304687 " transform="matrix(0.261139,0,0,0.261438,0,0.000000000000014861)"/>
<path style=" stroke:none;fill-rule:nonzero;fill:rgb(40%,40%,40%);fill-opacity:1;" d="M 161.230469 90.6875 C 161.203125 95.703125 159.527344 99.761719 157.484375 99.75 C 155.445312 99.738281 153.816406 95.664062 153.84375 90.648438 C 153.871094 85.632812 155.546875 81.574219 157.585938 81.585938 C 159.628906 81.597656 161.257812 85.671875 161.230469 90.6875 "/>
<path style=" stroke:none;fill-rule:nonzero;fill:rgb(40%,40%,40%);fill-opacity:1;" d="M 105.921875 90.378906 C 105.894531 95.394531 107.523438 99.46875 109.566406 99.480469 C 111.605469 99.492188 113.28125 95.433594 113.308594 90.421875 C 113.335938 85.40625 111.707031 81.328125 109.667969 81.316406 C 107.625 81.304688 105.949219 85.363281 105.921875 90.378906 "/>
<path style="fill:none;stroke-width:12;stroke-linecap:round;stroke-linejoin:round;stroke:rgb(40%,40%,40%);stroke-opacity:1;stroke-miterlimit:4;" d="M 502.935723 403.193848 C 502.935723 403.193848 499.629887 417.701953 512.344639 416.969824 " transform="matrix(0.261139,0,0,0.261438,0,0.000000000000014861)"/>
<path style="fill-rule:nonzero;fill:rgb(100%,76.862745%,41.960784%);fill-opacity:1;stroke-width:12;stroke-linecap:round;stroke-linejoin:round;stroke:rgb(40%,40%,40%);stroke-opacity:1;stroke-miterlimit:4;" d="M 430.611226 615.466406 L 386.58827 884.097949 L 634.40625 884.097949 L 590.398252 615.466406 " transform="matrix(0.261139,0,0,0.261438,0,0.000000000000014861)"/>
<path style="fill:none;stroke-width:12;stroke-linecap:round;stroke-linejoin:round;stroke:rgb(40%,40%,40%);stroke-opacity:1;stroke-miterlimit:4;" d="M 545.462826 439.053223 C 540.436759 446.045801 539.000741 460.045898 543.443424 470.549707 " transform="matrix(0.261139,0,0,0.261438,0,0.000000000000014861)"/>
<path style="fill:none;stroke-width:12;stroke-linecap:round;stroke-linejoin:round;stroke:rgb(40%,40%,40%);stroke-opacity:1;stroke-miterlimit:4;" d="M 479.585456 456.489844 C 479.585456 456.489844 489.62263 441.503613 509.996149 441.249609 " transform="matrix(0.261139,0,0,0.261438,0,0.000000000000014861)"/>
<path style="fill:none;stroke-width:12;stroke-linecap:round;stroke-linejoin:round;stroke:rgb(40%,40%,40%);stroke-opacity:1;stroke-miterlimit:4;" d="M 540.406842 456.489844 C 540.406842 456.489844 530.369668 441.503613 509.996149 441.249609 " transform="matrix(0.261139,0,0,0.261438,0,0.000000000000014861)"/>
<path style="fill:none;stroke-width:12;stroke-linecap:round;stroke-linejoin:round;stroke:rgb(40%,40%,40%);stroke-opacity:1;stroke-miterlimit:4;" d="M 404.089751 266.166211 C 411.972897 272.262305 427.948608 273.651855 437.566943 268.168359 " transform="matrix(0.261139,0,0,0.261438,0,0.000000000000014861)"/>
<path style="fill:none;stroke-width:12;stroke-linecap:round;stroke-linejoin:round;stroke:rgb(40%,40%,40%);stroke-opacity:1;stroke-miterlimit:4;" d="M 618.939129 266.166211 C 611.055983 272.262305 595.080273 273.651855 585.461937 268.168359 " transform="matrix(0.261139,0,0,0.261438,0,0.000000000000014861)"/>
</g>
</svg>
