<?xml version="1.0" encoding="UTF-8"?>
<svg xmlns="http://www.w3.org/2000/svg" xmlns:xlink="http://www.w3.org/1999/xlink" width="220pt" height="200pt" viewBox="0 0 220 200" version="1.1">
<g id="surface1">
<path style=" stroke:none;fill-rule:nonzero;fill:rgb(100%,100%,99.607843%);fill-opacity:1;" d="M 108.097656 3.449219 C 60.292969 -4.820312 37.039062 24.917969 28.761719 48.519531 C 15.640625 85.941406 26.09375 135.648438 46.277344 168.925781 C 50.988281 176.691406 61.546875 183.226562 70.855469 183.46875 "/>
<path style=" stroke:none;fill-rule:nonzero;fill:rgb(74.117647%,63.529412%,34.509804%);fill-opacity:1;" d="M 156.804688 29.5625 C 145.945312 14.695312 126.113281 2.984375 107.050781 3 L 107.574219 4.804688 C 76.292969 -0.859375 48.144531 24.640625 37.574219 44.390625 C 27.167969 63.835938 27.445312 86.558594 31.472656 107.699219 C 35.4375 128.511719 41.117188 152.746094 52.1875 171 C 56.691406 178.425781 69.511719 185.464844 81.175781 183.019531 C 95.054688 185.203125 109.585938 182.78125 123.285156 180.695312 C 123.980469 180.585938 124.6875 180.484375 125.402344 180.386719 C 136.292969 178.875 149.078125 177.941406 157.328125 170.246094 C 165.46875 166.738281 172.753906 158.089844 174.863281 149.886719 C 184.558594 112.1875 180.1875 61.578125 156.804688 29.5625 "/>
<path style=" stroke:none;fill-rule:nonzero;fill:rgb(60.784314%,76.078431%,86.666667%);fill-opacity:1;" d="M 135.957031 197.378906 C 135.683594 190.683594 133.71875 147.570312 127.277344 142.710938 C 126.40625 141.246094 112.457031 136.367188 105.242188 136.367188 C 89.132812 136.367188 84.390625 144.988281 84.390625 144.988281 C 84.324219 146.035156 84.332031 147.359375 84.394531 148.894531 C 79.472656 161.757812 68.394531 185.984375 80.542969 191.945312 C 84.019531 193.652344 87.179688 193.390625 90.003906 191.886719 C 90.566406 195.292969 90.9375 197.410156 90.9375 197.410156 C 90.9375 197.410156 135.96875 197.457031 135.957031 197.378906 "/>
<path style="fill:none;stroke-width:16.8;stroke-linecap:round;stroke-linejoin:round;stroke:rgb(26.27451%,18.431373%,12.156863%);stroke-opacity:1;stroke-miterlimit:4;" d="M 477.349165 13.365 C 562.350586 13.295391 650.783416 65.467617 699.206357 131.700938 C 803.472443 274.330547 822.963548 499.795313 779.731268 667.745332 C 769.646058 706.93541 732.997905 748.44 693.580238 761.491758 " transform="matrix(0.224261,0,0,0.224467,0,0)"/>
<path style=" stroke:none;fill-rule:nonzero;fill:rgb(60.784314%,76.078431%,86.666667%);fill-opacity:1;" d="M 81.851562 153.03125 C 82.460938 151.753906 83.542969 150.464844 84.367188 149.214844 C 85.683594 147.214844 85.894531 146.050781 87.910156 148.140625 C 90.949219 151.296875 92.402344 156.589844 92.390625 160.949219 C 92.382812 164.828125 93.546875 169.933594 90.152344 172.171875 C 85.4375 175.285156 84.242188 169.4375 83.414062 165.597656 C 82.757812 162.546875 83.09375 159.453125 83.195312 156.398438 "/>
<path style="fill:none;stroke-width:16.8;stroke-linecap:round;stroke-linejoin:round;stroke:rgb(26.27451%,18.431373%,12.156863%);stroke-opacity:1;stroke-miterlimit:4;" d="M 482.017276 15.36627 C 268.851829 -21.474492 165.160547 111.009551 128.251119 216.154512 C 69.742969 382.868965 116.354403 604.313789 206.354883 752.564355 C 227.361381 787.160215 274.443111 816.274336 315.950977 817.353281 " transform="matrix(0.224261,0,0,0.224467,0,0)"/>
<path style="fill:none;stroke-width:16.812;stroke-linecap:round;stroke-linejoin:round;stroke:rgb(26.27451%,18.431373%,12.156863%);stroke-opacity:1;stroke-miterlimit:4;" d="M 560.7481 772.785879 C 553.624006 818.432227 545.750923 863.312871 540.107386 879.514453 M 407.519105 882.594668 C 407.519105 882.594668 397.416477 829.987383 389.160192 777.327891 " transform="matrix(0.224261,0,0,0.224467,0,0)"/>
<path style="fill-rule:nonzero;fill:rgb(100%,100%,99.607843%);fill-opacity:1;stroke-width:16.812;stroke-linecap:round;stroke-linejoin:round;stroke:rgb(26.27451%,18.431373%,12.156863%);stroke-opacity:1;stroke-miterlimit:4;" d="M 416.08892 662.68125 L 475.084783 819.685195 L 535.090909 649.681699 " transform="matrix(0.224261,0,0,0.224467,0,0)"/>
<path style="fill-rule:nonzero;fill:rgb(100%,100%,99.607843%);fill-opacity:1;stroke-width:16.812;stroke-linecap:round;stroke-linejoin:round;stroke:rgb(26.27451%,18.431373%,12.156863%);stroke-opacity:1;stroke-miterlimit:4;" d="M 429.884233 662.890078 L 457.527113 701.297051 L 475.973118 675.176133 L 494.401705 702.828457 L 517.446147 664.421484 " transform="matrix(0.224261,0,0,0.224467,0,0)"/>
<path style="fill-rule:nonzero;fill:rgb(99.215686%,94.117647%,85.098039%);fill-opacity:1;stroke-width:16.792;stroke-linecap:round;stroke-linejoin:round;stroke:rgb(26.27451%,18.431373%,12.156863%);stroke-opacity:1;stroke-miterlimit:4;" d="M 195.625195 439.287363 C 195.625195 439.287363 148.282191 425.278477 156.468803 480.652734 C 164.655415 536.026992 212.068093 517.684922 212.068093 517.684922 " transform="matrix(0.224261,0,0,0.224467,0,0)"/>
<path style="fill-rule:nonzero;fill:rgb(99.215686%,94.117647%,85.098039%);fill-opacity:1;stroke-width:16.792;stroke-linecap:round;stroke-linejoin:round;stroke:rgb(26.27451%,18.431373%,12.156863%);stroke-opacity:1;stroke-miterlimit:4;" d="M 700.686914 364.579102 C 700.686914 364.579102 741.950923 337.46625 750.137536 392.840508 C 758.341566 448.214766 707.654244 444.38625 707.654244 444.38625 " transform="matrix(0.224261,0,0,0.224467,0,0)"/>
<path style=" stroke:none;fill-rule:nonzero;fill:rgb(99.215686%,94.117647%,85.098039%);fill-opacity:1;" d="M 156.992188 77.726562 C 141.949219 24.972656 96.617188 30.589844 91.222656 31.457031 C 85.730469 32.226562 40.847656 40.203125 41.894531 94.992188 C 41.894531 94.992188 43.578125 156.578125 108.046875 147.597656 L 108.046875 147.601562 C 108.226562 147.574219 108.398438 147.546875 108.574219 147.519531 C 108.761719 147.492188 108.945312 147.46875 109.132812 147.441406 L 109.132812 147.433594 C 173.402344 137.105469 156.992188 77.726562 156.992188 77.726562 "/>
<path style="fill:none;stroke-width:11.995;stroke-linecap:round;stroke-linejoin:round;stroke:rgb(26.27451%,18.431373%,12.156863%);stroke-opacity:1;stroke-miterlimit:4;" d="M 561.392578 218.486426 C 554.372994 205.434668 538.069442 201.901992 527.583612 208.166836 " transform="matrix(0.224261,0,0,0.224467,0,0)"/>
<path style=" stroke:none;fill-rule:nonzero;fill:rgb(95.686275%,74.117647%,62.745098%);fill-opacity:1;" d="M 153.933594 108.015625 C 157.792969 104.980469 158.523438 99.582031 156.59375 95.574219 C 154.722656 91.683594 151.621094 88.273438 147.117188 88.140625 C 142.648438 88.011719 138.164062 89.136719 135.921875 93.550781 C 134.082031 97.183594 133.300781 101.589844 135.089844 105.21875 C 138.554688 112.246094 147.949219 112.722656 153.933594 108.015625 "/>
<path style=" stroke:none;fill-rule:nonzero;fill:rgb(95.686275%,74.117647%,62.745098%);fill-opacity:1;" d="M 53.125 122.941406 C 48.550781 121.15625 46.292969 116.199219 46.980469 111.800781 C 47.644531 107.535156 49.628906 103.371094 53.902344 101.941406 C 58.140625 100.523438 62.757812 100.300781 66.183594 103.878906 C 68.992188 106.820312 71.015625 110.8125 70.351562 114.804688 C 69.066406 122.535156 60.214844 125.714844 53.125 122.941406 "/>
<path style="fill:none;stroke-width:16.792;stroke-linecap:round;stroke-linejoin:round;stroke:rgb(26.27451%,18.431373%,12.156863%);stroke-opacity:1;stroke-miterlimit:4;" d="M 701.540412 346.045605 C 634.462447 111.026953 432.322798 136.051523 408.268093 139.914844 C 383.760511 143.360508 183.641388 178.878691 188.292081 422.963965 C 188.292081 422.963965 195.799379 697.346719 483.288814 657.321328 L 483.288814 657.356133 C 484.072638 657.234316 484.856463 657.095098 485.640288 656.973281 C 486.458949 656.868867 487.27761 656.764453 488.11369 656.625234 L 488.11369 656.59043 C 774.71479 610.578633 701.540412 346.045605 701.540412 346.045605 Z M 701.540412 346.045605 " transform="matrix(0.224261,0,0,0.224467,0,0)"/>
<path style=" stroke:none;fill-rule:nonzero;fill:rgb(74.117647%,63.529412%,34.509804%);fill-opacity:1;" d="M 120.097656 25.378906 C 120.097656 25.378906 106.609375 85.332031 30.769531 84.46875 C 30.769531 84.46875 51.148438 23.570312 103.523438 23.820312 "/>
<path style="fill:none;stroke-width:16.8;stroke-linecap:round;stroke-linejoin:round;stroke:rgb(26.27451%,18.431373%,12.156863%);stroke-opacity:1;stroke-miterlimit:4;" d="M 534.411594 144.665684 C 503.006357 209.019551 452.388707 263.419277 391.999379 301.669629 C 343.628693 332.315156 228.754847 387.672012 168.470028 377.891895 M 398.078374 156.15123 C 398.078374 156.15123 315.062642 271.546172 210.517862 323.405156 " transform="matrix(0.224261,0,0,0.224467,0,0)"/>
<path style=" stroke:none;fill-rule:nonzero;fill:rgb(100%,100%,99.607843%);fill-opacity:1;" d="M 44.265625 30.140625 C 44.265625 30.140625 44.046875 47.046875 62.296875 45.433594 C 62.296875 45.433594 53.210938 53.855469 34.289062 43.59375 "/>
<path style=" stroke:none;fill-rule:nonzero;fill:rgb(26.27451%,18.431373%,12.156863%);fill-opacity:1;" d="M 108.625 160.734375 C 108.625 161.753906 107.800781 162.582031 106.78125 162.582031 C 105.757812 162.582031 104.933594 161.753906 104.933594 160.734375 C 104.933594 159.710938 105.757812 158.882812 106.78125 158.882812 C 107.800781 158.882812 108.625 159.710938 108.625 160.734375 "/>
<path style=" stroke:none;fill-rule:nonzero;fill:rgb(26.27451%,18.431373%,12.156863%);fill-opacity:1;" d="M 108.625 169.15625 C 108.625 170.175781 107.800781 171.003906 106.78125 171.003906 C 105.757812 171.003906 104.933594 170.175781 104.933594 169.15625 C 104.933594 168.136719 105.757812 167.308594 106.78125 167.308594 C 107.800781 167.308594 108.625 168.136719 108.625 169.15625 "/>
<path style="fill:none;stroke-width:16.792;stroke-linecap:round;stroke-linejoin:round;stroke:rgb(26.27451%,18.431373%,12.156863%);stroke-opacity:1;stroke-miterlimit:4;" d="M 444.04533 403.629961 C 445.874254 405.666035 447.703178 407.684707 449.532102 409.720781 " transform="matrix(0.224261,0,0,0.224467,0,0)"/>
<path style=" stroke:none;fill-rule:nonzero;fill:rgb(26.27451%,18.431373%,12.156863%);fill-opacity:1;" d="M 71.980469 97.011719 C 75.558594 99.039062 78.117188 95.617188 78.296875 92.070312 C 78.488281 88.261719 73.671875 81.898438 70.492188 86.171875 C 68.429688 88.949219 68.75 95.1875 71.980469 97.011719 "/>
<path style="fill:none;stroke-width:11.995;stroke-linecap:round;stroke-linejoin:round;stroke:rgb(26.27451%,18.431373%,12.156863%);stroke-opacity:1;stroke-miterlimit:4;" d="M 307.729528 367.641914 C 309.332013 376.638926 312.676332 382.729746 320.166211 387.28916 " transform="matrix(0.224261,0,0,0.224467,0,0)"/>
<path style=" stroke:none;fill-rule:nonzero;fill:rgb(26.27451%,18.431373%,12.156863%);fill-opacity:1;" d="M 129.113281 88.554688 C 126.277344 91.527344 122.839844 88.992188 121.640625 85.652344 C 120.351562 82.0625 123.125 74.578125 127.398438 77.75 C 130.175781 79.808594 131.675781 85.867188 129.113281 88.554688 "/>
<path style="fill:none;stroke-width:11.995;stroke-linecap:round;stroke-linejoin:round;stroke:rgb(26.27451%,18.431373%,12.156863%);stroke-opacity:1;stroke-miterlimit:4;" d="M 553.414986 350.518008 C 550.018413 346.811309 545.437393 341.016328 543.120756 335.099531 " transform="matrix(0.224261,0,0,0.224467,0,0)"/>
<path style="fill-rule:nonzero;fill:rgb(60.784314%,76.078431%,86.666667%);fill-opacity:1;stroke-width:16.8;stroke-linecap:round;stroke-linejoin:round;stroke:rgb(26.27451%,18.431373%,12.156863%);stroke-opacity:1;stroke-miterlimit:4;" d="M 376.514489 665.987695 C 354.654492 723.189199 304.838086 831.640605 359.14842 858.248789 C 435.649698 895.75084 477.314329 719.917559 477.314329 719.917559 L 411.542738 707.318262 C 411.542738 707.318262 384.143714 757.245586 381.147763 794.260371 " transform="matrix(0.224261,0,0,0.224467,0,0)"/>
<path style=" stroke:none;fill-rule:nonzero;fill:rgb(99.215686%,94.117647%,85.098039%);fill-opacity:1;" d="M 94.789062 151.050781 C 94.789062 151.050781 95.945312 146.253906 96.046875 145.867188 C 96.632812 143.566406 97.332031 141.3125 98.148438 139.085938 C 98.707031 137.558594 99.226562 135.726562 100.691406 134.726562 C 102.390625 133.5625 105.390625 134.203125 107.136719 135.183594 C 109.632812 136.578125 109.546875 138.96875 108.867188 141.128906 C 107.960938 143.992188 107.050781 146.980469 105.996094 149.84375 C 105.710938 150.617188 105.421875 151.398438 105.148438 152.183594 C 105.292969 152.171875 105.003906 152.191406 105.148438 152.183594 C 107.519531 152.097656 109.355469 153.722656 110.671875 155.386719 C 112.199219 157.3125 113.496094 159.601562 113.582031 161.945312 C 113.679688 164.71875 112.59375 167.625 110.730469 169.714844 C 108.746094 171.941406 105.722656 173.078125 102.457031 172.996094 C 100.636719 172.953125 98.65625 172.644531 96.886719 172.144531 C 93.570312 171.210938 90.421875 169.191406 89.066406 166.234375 C 87.664062 163.171875 86.960938 159.550781 87.9375 156.449219 C 88.769531 153.808594 91.167969 150.570312 94.789062 151.050781 "/>
<path style="fill:none;stroke-width:16.792;stroke-linecap:round;stroke-linejoin:round;stroke:rgb(26.27451%,18.431373%,12.156863%);stroke-opacity:1;stroke-miterlimit:4;" d="M 422.673047 672.93123 C 422.673047 672.93123 427.828871 651.561152 428.281747 649.83832 C 430.894496 639.58834 434.012376 629.547188 437.652805 619.627852 C 440.143626 612.823535 442.460263 604.661836 448.992134 600.206836 C 456.569105 595.020938 469.946378 597.874922 477.732369 602.24291 C 488.862678 608.455547 488.479474 619.105781 485.448686 628.729277 C 481.407635 641.485195 477.349165 654.797988 472.646218 667.553906 C 471.37468 670.99957 470.085724 674.480039 468.866442 677.97791 C 469.51092 677.925703 468.221964 678.012715 468.866442 677.97791 C 479.439364 677.595059 487.625977 684.834434 493.495952 692.247832 C 500.306516 700.827188 506.0894 711.024961 506.472603 721.466367 C 506.908061 733.822031 502.065767 746.769375 493.757227 756.079629 C 484.908718 765.998965 471.426935 771.063047 456.865217 770.697598 C 448.748278 770.506172 439.917188 769.131387 432.026687 766.903887 C 417.23853 762.744727 403.199361 753.747715 397.155202 740.574141 C 390.902024 726.930703 387.766726 710.79873 392.121307 696.98127 C 395.83141 685.217285 406.526261 670.790742 422.673047 672.93123 Z M 422.673047 672.93123 " transform="matrix(0.224261,0,0,0.224467,0,0)"/>
<path style="fill-rule:nonzero;fill:rgb(100%,100%,99.607843%);fill-opacity:1;stroke-width:14;stroke-linecap:round;stroke-linejoin:round;stroke:rgb(26.27451%,18.431373%,12.156863%);stroke-opacity:1;stroke-miterlimit:4;" d="M 441.537092 558.093164 C 441.537092 558.093164 445.508469 543.858047 464.790554 541.004063 C 484.072638 538.150078 491.458008 549.705234 491.458008 549.705234 " transform="matrix(0.224261,0,0,0.224467,0,0)"/>
<path style="fill:none;stroke-width:16.812;stroke-linecap:round;stroke-linejoin:round;stroke:rgb(26.27451%,18.431373%,12.156863%);stroke-opacity:1;stroke-miterlimit:4;" d="M 606.401527 879.514453 C 606.401527 879.514453 598.667791 658.74832 566.740004 638.335371 " transform="matrix(0.224261,0,0,0.224467,0,0)"/>
<path style="fill:none;stroke-width:34.249;stroke-linecap:round;stroke-linejoin:round;stroke:rgb(87.843137%,35.294118%,34.117647%);stroke-opacity:1;stroke-miterlimit:4;" d="M 847.889169 72.863613 C 854.090092 45.07207 887.846804 37.310625 911.866673 42.061465 C 942.679688 48.169688 965.898313 80.364023 963.02429 110.922539 C 959.90641 144.004395 931.880327 149.277305 907.63402 163.112168 C 895.58054 169.986094 879.25957 182.985645 873.319922 195.950391 M 855.15261 245.338242 C 854.090092 244.346309 852.365678 244.050469 849.927113 245.164219 C 845.555114 247.165488 843.569425 256.040684 850.362571 255.483809 C 856.19771 254.996543 857.85245 247.861582 855.15261 245.338242 Z M 855.15261 245.338242 " transform="matrix(0.224261,0,0,0.224467,0,0)"/>
<path style="fill:none;stroke-width:14.399;stroke-linecap:round;stroke-linejoin:round;stroke:rgb(26.27451%,18.431373%,12.156863%);stroke-opacity:1;stroke-miterlimit:4;" d="M 43.197443 478.477441 C 40.079563 493.669688 45.496662 530.580059 67.199893 544.467129 M 7.193768 520.469297 C 7.524716 553.098691 34.732138 583.01332 49.189347 586.476387 " transform="matrix(0.224261,0,0,0.224467,0,0)"/>
</g>
</svg>
