<?xml version="1.0" encoding="UTF-8"?>
<svg xmlns="http://www.w3.org/2000/svg" xmlns:xlink="http://www.w3.org/1999/xlink" width="226pt" height="200pt" viewBox="0 0 226 200" version="1.1">
<g id="surface1">
<path style=" stroke:none;fill-rule:nonzero;fill:rgb(100%,100%,99.607843%);fill-opacity:1;" d="M 148.441406 198.503906 L 153.535156 164.164062 L 154.074219 162.238281 C 154.074219 162.238281 177.636719 168.109375 190.273438 169.246094 C 197.339844 169.878906 201.75 165.710938 203.902344 158.875 C 206.3125 151.203125 212.882812 123.601562 212.898438 122.636719 C 213.105469 120.585938 212.453125 120.140625 210.949219 119.421875 L 197.175781 113.988281 C 194.945312 113.28125 194.175781 115.253906 194.175781 115.253906 C 194.175781 115.253906 189.152344 133.398438 186.675781 142.445312 L 186.214844 144.386719 C 186.214844 144.386719 161.195312 133.355469 150.808594 130.890625 C 140.269531 128.394531 132.589844 127.246094 125.347656 127.175781 L 122.722656 124.902344 L 120.027344 123.480469 L 104.554688 123.554688 L 102.492188 124.972656 L 100.933594 127.175781 C 93.691406 127.246094 86.011719 128.394531 75.476562 130.890625 C 65.089844 133.355469 40.167969 144.152344 40.167969 144.152344 L 38.996094 142.21875 C 36.519531 133.175781 31.496094 115.019531 31.496094 115.019531 C 31.496094 115.019531 30.726562 113.046875 28.496094 113.753906 L 14.71875 119.1875 C 13.21875 119.90625 12.5625 120.351562 12.773438 122.40625 C 12.789062 123.371094 20.867188 152.800781 22.425781 158.914062 C 24.195312 165.859375 28.621094 170.136719 35.679688 169.433594 C 46.320312 168.378906 71.5 162.238281 71.5 162.238281 L 71.921875 164.1875 L 76.703125 198.503906 "/>
<path style=" stroke:none;fill-rule:nonzero;fill:rgb(77.254902%,85.490196%,90.980392%);fill-opacity:1;" d="M 152.605469 172.226562 C 147.351562 178.761719 131.773438 185.53125 111.953125 185.53125 C 92.128906 185.53125 76.941406 178.050781 74 174.261719 L 76.703125 198.503906 L 148.628906 198.363281 C 148.628906 198.363281 150.617188 182.027344 152.605469 172.226562 "/>
<path style=" stroke:none;fill-rule:nonzero;fill:rgb(97.254902%,82.352941%,70.980392%);fill-opacity:1;" d="M 120.222656 128.230469 C 120.234375 126.078125 119.96875 120.960938 119.96875 120.960938 L 105.0625 120.960938 C 105.0625 120.960938 104.9375 126.363281 104.984375 127.851562 C 104.984375 127.851562 106.820312 134.601562 112.894531 134.601562 C 118.964844 134.601562 120.222656 128.230469 120.222656 128.230469 "/>
<path style=" stroke:none;fill-rule:nonzero;fill:rgb(46.27451%,31.372549%,29.019608%);fill-opacity:1;" d="M 67.375 70.761719 C 64.960938 63.992188 65.417969 60.105469 65.417969 60.105469 L 63.5 63.777344 C 54.695312 29.449219 73.292969 23.230469 73.292969 23.230469 C 73.292969 23.230469 65.933594 20.957031 66.132812 13.710938 C 66.132812 13.710938 76.273438 16.128906 87.441406 9.59375 C 97.777344 3.542969 112.445312 -0.59375 127.285156 2.242188 C 140.675781 4.800781 143.28125 14.296875 143.28125 14.296875 C 143.28125 14.296875 156.578125 16.207031 161.59375 30.539062 C 166.988281 45.957031 162.445312 60.871094 162.445312 60.871094 L 161.058594 56.773438 C 161.058594 56.773438 160.761719 62.855469 157.332031 70.925781 L 155.867188 75.046875 L 69.367188 76.941406 L 67.375 70.761719 "/>
<path style=" stroke:none;fill-rule:nonzero;fill:rgb(74.509804%,58.823529%,52.156863%);fill-opacity:1;" d="M 67.566406 71.359375 L 69.367188 76.941406 L 71.992188 76.882812 L 67.613281 71.398438 C 67.605469 71.398438 67.585938 71.375 67.566406 71.359375 Z M 161.59375 30.539062 C 156.578125 16.207031 143.28125 14.296875 143.28125 14.296875 C 143.28125 14.296875 140.675781 4.800781 127.285156 2.242188 C 112.445312 -0.59375 97.777344 3.542969 87.441406 9.59375 C 76.273438 16.128906 66.132812 13.710938 66.132812 13.710938 C 65.933594 20.957031 73.292969 23.230469 73.292969 23.230469 C 73.292969 23.230469 54.695312 29.449219 63.5 63.777344 L 63.8125 63.179688 C 63.730469 62.824219 63.667969 62.480469 63.640625 62.167969 C 60.941406 31.484375 77.734375 23.335938 77.734375 23.335938 C 77.734375 23.335938 79.503906 17.726562 90.671875 11.191406 C 101.007812 5.144531 114.527344 2.125 129.464844 4.40625 C 144.164062 6.648438 144.042969 18.742188 144.042969 18.742188 C 144.042969 18.742188 158.003906 21.453125 163.085938 35.863281 C 162.707031 34.109375 162.21875 32.328125 161.59375 30.539062 "/>
<path style=" stroke:none;fill-rule:nonzero;fill:rgb(97.254902%,82.352941%,70.980392%);fill-opacity:1;" d="M 77.269531 95.808594 C 65.203125 96.375 59.808594 79.71875 64.066406 73.75 C 67.136719 69.449219 73.34375 72.214844 74.503906 74.574219 "/>
<path style=" stroke:none;fill-rule:nonzero;fill:rgb(82.745098%,60%,52.156863%);fill-opacity:1;" d="M 74.234375 81.289062 C 75.371094 84.550781 76.839844 89.375 74.609375 90.152344 C 72.378906 90.933594 69.648438 88.921875 68.511719 85.65625 C 67.371094 82.398438 68.253906 79.117188 70.484375 78.339844 C 72.71875 77.558594 73.09375 78.027344 74.234375 81.289062 "/>
<path style=" stroke:none;fill-rule:nonzero;fill:rgb(97.254902%,82.352941%,70.980392%);fill-opacity:1;" d="M 148.25 95.808594 C 160.316406 96.375 165.710938 79.71875 161.449219 73.75 C 158.378906 69.449219 152.171875 72.214844 151.011719 74.574219 "/>
<path style=" stroke:none;fill-rule:nonzero;fill:rgb(82.745098%,60%,52.156863%);fill-opacity:1;" d="M 105.308594 118.824219 L 119.730469 118.824219 L 119.886719 126.117188 C 119.886719 126.117188 112.140625 132.601562 104.902344 128.71875 L 105.175781 124.433594 L 105.308594 118.824219 "/>
<path style=" stroke:none;fill-rule:nonzero;fill:rgb(97.254902%,82.352941%,70.980392%);fill-opacity:1;" d="M 89.695312 35.984375 C 75.28125 39.566406 74.570312 63.777344 74.570312 63.777344 C 74.242188 76.683594 74.824219 98.863281 82.664062 107.3125 C 90.449219 115.703125 97.996094 119.8125 104.667969 121.800781 C 104.667969 121.800781 112.898438 124.546875 120.851562 121.800781 C 127.523438 119.8125 135.066406 115.703125 142.855469 107.3125 C 151.398438 98.105469 151.320312 72.378906 150.839844 60.574219 C 150.699219 57.082031 148.777344 53.082031 147.941406 52.085938 C 135.753906 37.574219 135.789062 28.605469 135.789062 28.605469 L 134.074219 30.667969 C 130.933594 33.808594 125.148438 36.933594 114.566406 38.492188 C 114.566406 38.492188 118.351562 25.613281 121.378906 23.34375 C 121.378906 23.34375 108.128906 40.195312 86.550781 44.175781 C 86.550781 44.175781 87.230469 41.253906 88.992188 37.4375 L 89.695312 35.984375 "/>
<path style=" stroke:none;fill-rule:nonzero;fill:rgb(10.196078%,9.803922%,9.803922%);fill-opacity:1;" d="M 101.886719 53.917969 C 101.421875 54.3125 100.183594 53.535156 98.398438 52.445312 C 96.632812 51.378906 94.171875 50.03125 91.832031 50.371094 C 89.480469 50.648438 87.457031 52.546875 86.25 54.046875 C 84.996094 55.566406 84.523438 56.71875 83.9375 56.773438 C 83.652344 56.789062 83.332031 56.414062 83.203125 55.664062 C 83.074219 54.921875 83.152344 53.847656 83.574219 52.636719 C 83.996094 51.425781 84.746094 50.054688 85.992188 48.796875 C 87.222656 47.550781 89.0625 46.402344 91.28125 46.121094 C 93.5 45.824219 95.570312 46.46875 97.058594 47.332031 C 98.574219 48.195312 99.640625 49.246094 100.410156 50.183594 C 101.929688 52.085938 102.324219 53.558594 101.886719 53.917969 "/>
<path style=" stroke:none;fill-rule:nonzero;fill:rgb(10.196078%,9.803922%,9.803922%);fill-opacity:1;" d="M 123.628906 53.917969 C 123.195312 53.558594 123.585938 52.085938 125.109375 50.183594 C 125.875 49.246094 126.945312 48.195312 128.457031 47.332031 C 129.945312 46.46875 132.015625 45.824219 134.234375 46.121094 C 136.453125 46.402344 138.292969 47.550781 139.523438 48.796875 C 140.773438 50.054688 141.519531 51.425781 141.941406 52.636719 C 142.363281 53.847656 142.441406 54.921875 142.3125 55.664062 C 142.183594 56.414062 141.863281 56.789062 141.574219 56.773438 C 140.988281 56.71875 140.519531 55.566406 139.265625 54.046875 C 138.058594 52.546875 136.039062 50.648438 133.683594 50.371094 C 131.34375 50.03125 128.882812 51.378906 127.121094 52.445312 C 125.332031 53.535156 124.097656 54.3125 123.628906 53.917969 "/>
<path style=" stroke:none;fill-rule:nonzero;fill:rgb(92.941176%,61.960784%,60%);fill-opacity:1;" d="M 94.433594 84.84375 C 94.433594 86.402344 90.929688 87.664062 86.609375 87.664062 C 82.289062 87.664062 78.785156 86.402344 78.785156 84.84375 C 78.785156 83.289062 82.289062 82.027344 86.609375 82.027344 C 90.929688 82.027344 94.433594 83.289062 94.433594 84.84375 "/>
<path style=" stroke:none;fill-rule:nonzero;fill:rgb(92.941176%,61.960784%,60%);fill-opacity:1;" d="M 147.457031 84.84375 C 147.457031 86.402344 143.957031 87.664062 139.632812 87.664062 C 135.3125 87.664062 131.808594 86.402344 131.808594 84.84375 C 131.808594 83.289062 135.3125 82.027344 139.632812 82.027344 C 143.957031 82.027344 147.457031 83.289062 147.457031 84.84375 "/>
<path style=" stroke:none;fill-rule:nonzero;fill:rgb(82.745098%,60%,52.156863%);fill-opacity:1;" d="M 151.28125 81.289062 C 150.144531 84.550781 148.675781 89.375 150.90625 90.152344 C 153.136719 90.933594 155.867188 88.921875 157.007812 85.65625 C 158.148438 82.398438 157.261719 79.117188 155.03125 78.339844 C 152.796875 77.558594 152.421875 78.027344 151.28125 81.289062 "/>
<path style=" stroke:none;fill-rule:nonzero;fill:rgb(74.509804%,58.823529%,52.156863%);fill-opacity:1;" d="M 106 21.515625 C 106 21.515625 92.707031 24.648438 87.253906 43.699219 L 91.757812 42.792969 C 91.757812 42.792969 96.21875 28.449219 106 21.515625 "/>
<path style=" stroke:none;fill-rule:nonzero;fill:rgb(74.509804%,58.823529%,52.156863%);fill-opacity:1;" d="M 124.777344 21.78125 C 124.777344 21.78125 119.066406 22.96875 115.265625 38.113281 L 119.003906 37.496094 C 119.003906 37.496094 120.28125 26.894531 124.777344 21.78125 "/>
<path style=" stroke:none;fill-rule:nonzero;fill:rgb(64.705882%,72.54902%,80%);fill-opacity:1;" d="M 103.648438 148.96875 L 109.328125 140.304688 L 116.285156 139.789062 L 121.535156 147.691406 C 121.535156 147.691406 110.035156 143.429688 103.648438 148.96875 "/>
<path style=" stroke:none;fill-rule:nonzero;fill:rgb(20.784314%,62.745098%,80.392157%);fill-opacity:1;" d="M 103.597656 198.824219 L 111.078125 145.808594 L 109.421875 139.789062 L 112.640625 135.285156 L 113.492188 135.285156 L 116.285156 139.789062 L 114.128906 145.808594 L 122.21875 198.824219 "/>
<path style=" stroke:none;fill-rule:nonzero;fill:rgb(77.254902%,85.490196%,90.980392%);fill-opacity:1;" d="M 71.308594 158.542969 L 71.5 162.238281 L 62.601562 164.605469 C 62.601562 164.605469 69.511719 161.195312 71.308594 158.542969 "/>
<path style=" stroke:none;fill-rule:nonzero;fill:rgb(77.254902%,85.490196%,90.980392%);fill-opacity:1;" d="M 14.828125 119.507812 C 14.828125 119.507812 13.125 119.792969 12.980469 120.644531 C 12.839844 121.496094 12.769531 123.128906 13.265625 123.628906 C 13.761719 124.125 17.242188 124.621094 17.242188 124.621094 L 14.828125 119.507812 "/>
<path style=" stroke:none;fill-rule:nonzero;fill:rgb(77.254902%,85.490196%,90.980392%);fill-opacity:1;" d="M 28.3125 113.613281 L 29.589844 118.585938 C 29.589844 118.585938 31.363281 117.804688 31.4375 116.453125 C 31.507812 115.105469 31.792969 114.183594 30.726562 113.824219 C 29.660156 113.472656 28.3125 113.613281 28.3125 113.613281 "/>
<path style=" stroke:none;fill-rule:nonzero;fill:rgb(77.254902%,85.490196%,90.980392%);fill-opacity:1;" d="M 210.964844 120.066406 C 210.964844 120.066406 212.667969 120.351562 212.808594 121.203125 C 212.953125 122.054688 213.023438 123.6875 212.527344 124.183594 C 212.027344 124.683594 208.550781 125.179688 208.550781 125.179688 L 210.964844 120.066406 "/>
<path style=" stroke:none;fill-rule:nonzero;fill:rgb(77.254902%,85.490196%,90.980392%);fill-opacity:1;" d="M 197.480469 114.171875 L 196.199219 119.144531 C 196.199219 119.144531 194.425781 118.363281 194.355469 117.011719 C 194.285156 115.664062 194 114.738281 195.066406 114.382812 C 196.128906 114.03125 197.480469 114.171875 197.480469 114.171875 "/>
<path style="fill:none;stroke-width:1.4;stroke-linecap:round;stroke-linejoin:round;stroke:rgb(10.196078%,9.803922%,9.803922%);stroke-opacity:1;stroke-miterlimit:4;" d="M 105.821937 107.476875 C 105.821937 107.476875 105.904487 110.75625 106.148697 112.468125 C 106.148697 112.468125 103.985205 117.187812 99.355538 118.562812 C 94.722432 117.187812 92.380082 112.509375 92.380082 112.509375 C 92.500467 110.512187 92.541742 107.476875 92.541742 107.476875 M 107.617395 174.965312 L 100.490597 128.311562 L 102.16567 123.560937 M 96.500691 123.853125 L 97.80429 128.311562 L 91.217506 175.29875 " transform="matrix(1.135678,0,0,1.136364,0,0)"/>
<path style="fill:none;stroke-width:1.2;stroke-linecap:round;stroke-linejoin:round;stroke:rgb(10.196078%,9.803922%,9.803922%);stroke-opacity:1;stroke-miterlimit:4;" d="M 99.383054 119.150625 L 90.581184 132.271562 C 90.581184 132.271562 88.059976 128.834062 87.255116 120.377812 C 87.052181 118.260312 87.244797 115.163125 88.262911 112.416562 C 89.270707 109.694062 91.551144 108.57 92.163388 108.394687 M 99.383054 119.150625 L 108.188364 132.271562 C 108.188364 132.271562 110.709572 128.834062 111.514432 120.377812 C 111.717367 118.260312 111.521312 115.163125 110.506637 112.416562 C 109.498842 109.694062 106.864128 108.69375 106.248444 108.518437 " transform="matrix(1.135678,0,0,1.136364,0,0)"/>
<path style=" stroke:none;fill-rule:nonzero;fill:rgb(100%,100%,99.607843%);fill-opacity:1;" d="M 101.867188 70.808594 C 101.867188 75.976562 98.660156 80.160156 94.703125 80.160156 C 90.746094 80.160156 87.535156 75.976562 87.535156 70.808594 C 87.535156 65.644531 90.746094 61.460938 94.703125 61.460938 C 98.660156 61.460938 101.867188 65.644531 101.867188 70.808594 "/>
<path style=" stroke:none;fill-rule:nonzero;fill:rgb(10.196078%,9.803922%,9.803922%);fill-opacity:1;" d="M 100.75 72.160156 C 100.75 75.679688 98.773438 78.53125 96.332031 78.53125 C 93.894531 78.53125 91.917969 75.679688 91.917969 72.160156 C 91.917969 68.640625 93.894531 65.789062 96.332031 65.789062 C 98.773438 65.789062 100.75 68.640625 100.75 72.160156 "/>
<path style=" stroke:none;fill-rule:nonzero;fill:rgb(100%,100%,99.607843%);fill-opacity:1;" d="M 100.671875 70.027344 C 100.671875 70.746094 100.089844 71.332031 99.367188 71.332031 C 98.648438 71.332031 98.0625 70.746094 98.0625 70.027344 C 98.0625 69.308594 98.648438 68.722656 99.367188 68.722656 C 100.089844 68.722656 100.671875 69.308594 100.671875 70.027344 "/>
<path style=" stroke:none;fill-rule:nonzero;fill:rgb(82.352941%,87.843137%,92.156863%);fill-opacity:1;" d="M 95.40625 64.570312 C 97.21875 64.570312 98.945312 64.898438 100.539062 65.476562 C 99.109375 63.386719 97.03125 62.066406 94.714844 62.066406 C 92.097656 62.066406 89.789062 63.746094 88.367188 66.320312 C 90.441406 65.210938 92.839844 64.570312 95.40625 64.570312 "/>
<path style="fill:none;stroke-width:1.6;stroke-linecap:round;stroke-linejoin:round;stroke:rgb(10.196078%,9.803922%,9.803922%);stroke-opacity:1;stroke-miterlimit:4;" d="M 89.005859 57.54375 C 86.584399 52.42875 77.070537 51.981875 76.709382 62.060625 " transform="matrix(1.135678,0,0,1.136364,0,0)"/>
<path style=" stroke:none;fill-rule:nonzero;fill:rgb(100%,100%,99.607843%);fill-opacity:1;" d="M 123.410156 70.808594 C 123.410156 75.976562 126.617188 80.160156 130.574219 80.160156 C 134.527344 80.160156 137.738281 75.976562 137.738281 70.808594 C 137.738281 65.644531 134.527344 61.460938 130.574219 61.460938 C 126.617188 61.460938 123.410156 65.644531 123.410156 70.808594 "/>
<path style=" stroke:none;fill-rule:nonzero;fill:rgb(10.196078%,9.803922%,9.803922%);fill-opacity:1;" d="M 124.523438 72.160156 C 124.523438 75.679688 126.503906 78.53125 128.941406 78.53125 C 131.382812 78.53125 133.359375 75.679688 133.359375 72.160156 C 133.359375 68.640625 131.382812 65.789062 128.941406 65.789062 C 126.503906 65.789062 124.523438 68.640625 124.523438 72.160156 "/>
<path style=" stroke:none;fill-rule:nonzero;fill:rgb(100%,100%,99.607843%);fill-opacity:1;" d="M 130.660156 70.027344 C 130.660156 70.746094 131.242188 71.332031 131.964844 71.332031 C 132.683594 71.332031 133.269531 70.746094 133.269531 70.027344 C 133.269531 69.308594 132.683594 68.722656 131.964844 68.722656 C 131.242188 68.722656 130.660156 69.308594 130.660156 70.027344 "/>
<path style=" stroke:none;fill-rule:nonzero;fill:rgb(82.352941%,87.843137%,92.156863%);fill-opacity:1;" d="M 129.773438 64.570312 C 127.964844 64.570312 126.234375 64.898438 124.640625 65.476562 C 126.074219 63.386719 128.148438 62.066406 130.464844 62.066406 C 133.082031 62.066406 135.390625 63.746094 136.8125 66.320312 C 134.742188 65.210938 132.339844 64.570312 129.773438 64.570312 "/>
<path style="fill:none;stroke-width:1.6;stroke-linecap:round;stroke-linejoin:round;stroke:rgb(10.196078%,9.803922%,9.803922%);stroke-opacity:1;stroke-miterlimit:4;" d="M 109.35438 57.54375 C 111.77928 52.42875 121.289702 51.981875 121.654297 62.060625 " transform="matrix(1.135678,0,0,1.136364,0,0)"/>
<path style="fill:none;stroke-width:1.4;stroke-linecap:round;stroke-linejoin:round;stroke:rgb(10.196078%,9.803922%,9.803922%);stroke-opacity:1;stroke-miterlimit:4;" d="M 121.210592 19.040312 C 121.210592 19.040312 123.542623 30.53875 100.87583 33.873125 C 100.87583 33.873125 104.208777 22.539687 106.874447 20.5425 C 106.874447 20.5425 95.210851 35.371875 76.210644 38.874687 C 76.210644 38.874687 79.543591 24.540312 90.876988 19.37375 M 98.743294 73.184375 C 98.743294 73.184375 94.49198 74.851562 94.911608 76.852187 C 95.327797 78.849375 96.827451 81.100937 96.827451 81.100937 M 96.658912 65.432812 C 96.658912 65.432812 97.907477 71.10125 97.577278 73.600312 M 68.034776 84.311562 C 57.409932 84.81 52.65988 70.1525 56.409015 64.9 C 59.11596 61.115312 64.578004 63.549062 65.599558 65.625312 M 66.039823 72.184062 C 66.039823 72.184062 62.479864 64.903437 58.448683 68.316875 M 130.535277 84.311562 C 141.160122 84.81 145.910174 70.1525 142.161038 64.9 C 139.454093 61.115312 133.992049 63.549062 132.970496 65.625312 M 132.53023 72.184062 C 132.53023 72.184062 136.090189 64.903437 140.12137 68.316875 M 119.566475 25.172812 C 119.566475 25.172812 119.535519 33.065312 130.263551 45.835625 C 131.003059 46.712187 132.69189 50.232187 132.815715 53.305312 C 133.242222 63.693437 133.307574 86.332812 125.785225 94.435 C 118.930154 101.81875 112.284897 105.435 106.410104 107.184687 C 99.410571 109.60125 92.159949 107.184687 92.159949 107.184687 C 86.285156 105.435 79.643339 101.81875 72.784828 94.435 C 65.881603 86.999687 65.372546 67.481562 65.66147 56.124062 C 65.66147 56.124062 66.284033 34.818437 78.979501 31.66625 M 58.500277 51.112187 C 57.121007 53.879375 55.910277 56.124062 55.910277 56.124062 C 48.160917 25.915312 64.53329 20.442812 64.53329 20.442812 C 64.53329 20.442812 58.053132 18.442187 58.23199 12.065625 C 58.23199 12.065625 67.161124 14.193437 76.991427 8.4425 C 86.09598 3.117812 99.008141 -0.5225 112.078523 1.973125 C 123.869383 4.224687 126.160139 12.58125 126.160139 12.58125 C 126.160139 12.58125 137.868449 14.262187 142.284862 26.874375 C 147.034914 40.442187 143.03469 53.566562 143.03469 53.566562 C 143.03469 53.566562 141.954663 50.215 140.60635 46.619375 M 57.602548 52.892812 C 57.602548 52.892812 57.200118 56.313125 59.322335 62.270312 M 141.813641 49.960625 C 141.813641 49.960625 141.555673 55.312812 138.532287 62.414687 " transform="matrix(1.135678,0,0,1.136364,0,0)"/>
<path style=" stroke:none;fill-rule:nonzero;fill:rgb(10.196078%,9.803922%,9.803922%);fill-opacity:1;" d="M 101.886719 53.917969 C 101.417969 54.3125 100.179688 53.535156 98.394531 52.445312 C 96.632812 51.378906 94.171875 50.03125 91.832031 50.371094 C 89.476562 50.648438 87.453125 52.546875 86.25 54.046875 C 84.996094 55.566406 84.523438 56.71875 83.9375 56.773438 C 83.648438 56.789062 83.328125 56.414062 83.199219 55.664062 C 83.074219 54.921875 83.152344 53.847656 83.570312 52.636719 C 83.992188 51.425781 84.742188 50.054688 85.992188 48.796875 C 87.21875 47.550781 89.0625 46.402344 91.277344 46.121094 C 93.496094 45.824219 95.570312 46.46875 97.054688 47.332031 C 98.570312 48.195312 99.636719 49.246094 100.40625 50.183594 C 101.929688 52.085938 102.320312 53.558594 101.886719 53.917969 "/>
<path style=" stroke:none;fill-rule:nonzero;fill:rgb(10.196078%,9.803922%,9.803922%);fill-opacity:1;" d="M 123.625 53.917969 C 123.191406 53.558594 123.582031 52.085938 125.105469 50.183594 C 125.875 49.246094 126.941406 48.195312 128.457031 47.332031 C 129.941406 46.46875 132.015625 45.824219 134.234375 46.121094 C 136.449219 46.402344 138.292969 47.550781 139.523438 48.796875 C 140.769531 50.054688 141.519531 51.425781 141.941406 52.636719 C 142.363281 53.847656 142.4375 54.921875 142.3125 55.664062 C 142.183594 56.414062 141.859375 56.789062 141.574219 56.773438 C 140.988281 56.71875 140.515625 55.566406 139.261719 54.046875 C 138.058594 52.546875 136.035156 50.648438 133.679688 50.371094 C 131.339844 50.03125 128.878906 51.378906 127.117188 52.445312 C 125.332031 53.535156 124.09375 54.3125 123.625 53.917969 "/>
<path style="fill:none;stroke-width:1.2;stroke-linecap:round;stroke-linejoin:round;stroke:rgb(10.196078%,9.803922%,9.803922%);stroke-opacity:1;stroke-miterlimit:4;" d="M 97.80429 128.311562 C 97.80429 128.311562 99.293626 127.648125 100.456202 128.239375 " transform="matrix(1.135678,0,0,1.136364,0,0)"/>
<path style="fill:none;stroke-width:1.4;stroke-linecap:round;stroke-linejoin:round;stroke:rgb(10.196078%,9.803922%,9.803922%);stroke-opacity:1;stroke-miterlimit:4;" d="M 61.78163 133.656875 L 67.539477 174.683437 " transform="matrix(1.135678,0,0,1.136364,0,0)"/>
<path style=" stroke:none;fill-rule:nonzero;fill:rgb(97.254902%,82.352941%,70.980392%);fill-opacity:1;" d="M 13.632812 117.011719 C 13.632812 117.011719 10.082031 113.566406 6.648438 109.683594 C 3.847656 106.515625 0.328125 100.972656 0.859375 97.023438 C 1.394531 93.058594 4.21875 88.765625 7.921875 88.367188 C 7.921875 88.367188 9.148438 85.25 11.660156 84.6875 C 11.660156 84.6875 12.1875 81.753906 16.25 81.410156 C 16.25 81.410156 17.597656 79.164062 20.253906 78.859375 C 22.914062 78.558594 25.78125 78.191406 27.496094 81.042969 C 29.570312 84.496094 29.683594 90.722656 29.683594 90.722656 C 29.683594 90.722656 32.664062 89.699219 33.519531 92.742188 C 34.660156 96.792969 34.910156 102.59375 32.085938 107.613281 C 30.03125 111.257812 28.382812 112.691406 28.382812 112.691406 L 29.980469 118.796875 C 29.980469 118.796875 27.230469 121.46875 24.371094 122.730469 C 20.578125 124.410156 16.851562 125.011719 16.851562 125.011719 L 13.632812 117.011719 "/>
<path style=" stroke:none;fill-rule:nonzero;fill:rgb(82.745098%,60%,52.156863%);fill-opacity:1;" d="M 12.835938 106.351562 C 16.171875 105.632812 19.445312 101.738281 20.300781 100.863281 C 21.15625 99.992188 21.566406 97.824219 21.566406 97.824219 L 24.664062 98.523438 C 24.664062 98.523438 23.566406 100.8125 22.796875 101.789062 C 22.027344 102.769531 22.039062 108.335938 22.039062 108.335938 C 22.039062 108.335938 15.5625 105.953125 12.835938 106.351562 "/>
<path style="fill:none;stroke-width:1.4;stroke-linecap:round;stroke-linejoin:round;stroke:rgb(10.196078%,9.803922%,9.803922%);stroke-opacity:1;stroke-miterlimit:4;" d="M 25.091693 100.103437 C 27.05569 99.48125 27.733286 101.217187 27.733286 101.217187 C 27.733286 101.217187 28.58974 104.3075 29.735118 108.449687 C 33.002714 114.51 36.163682 129.834375 36.008901 129.432187 M 12.960315 104.885 C 11.639519 105.5175 11.06167 105.909375 11.247407 107.7175 C 11.250847 108.030312 12.162334 111.808125 13.414339 116.768437 C 13.459054 121.914375 18.645931 136.96375 20.001123 141.109375 C 21.961681 147.107812 25.050418 149.424687 31.289806 149.101562 C 41.18546 148.59625 62.957965 142.769687 62.957965 142.769687 M 11.636079 109.034062 C 11.636079 109.034062 12.636995 110.625625 15.901151 110.034375 C 22.969476 108.755625 28.194189 103.805625 27.929342 101.918437 M 26.24395 104.823125 L 24.806209 99.106562 C 24.806209 99.106562 26.443446 97.906875 28.252662 94.699687 C 30.739474 90.2825 30.519341 85.177812 29.514985 81.613125 C 28.761719 78.935312 26.137324 79.835937 26.137324 79.835937 C 26.137324 79.835937 26.037576 74.356562 24.211162 71.317812 C 22.701189 68.808437 20.176542 69.131562 17.834192 69.39625 C 15.495281 69.664375 14.308628 71.640937 14.308628 71.640937 C 10.731471 71.943437 10.267129 74.525 10.267129 74.525 C 8.055483 75.02 6.975456 77.763125 6.975456 77.763125 C 3.71474 78.11375 1.227928 81.891562 0.756706 85.380625 C 0.288924 88.855937 2.786055 92.558125 5.035537 95.524687 C 7.632415 98.941562 12.169213 102.805312 12.169213 102.805312 L 15.09973 109.71125 " transform="matrix(1.135678,0,0,1.136364,0,0)"/>
<path style="fill:none;stroke-width:1.2;stroke-linecap:round;stroke-linejoin:round;stroke:rgb(10.196078%,9.803922%,9.803922%);stroke-opacity:1;stroke-miterlimit:4;" d="M 7.181831 77.704687 C 7.181831 77.704687 10.989439 77.020625 12.121059 78.904375 C 13.025667 80.420312 16.988057 89.5125 15.116928 91.021562 C 13.2458 92.527187 10.893131 93.702812 9.114871 93.613437 C 7.329732 93.530937 6.672774 93.042812 7.677129 91.63 C 8.674606 90.217187 10.356558 88.89375 10.356558 88.89375 C 10.356558 88.89375 8.203384 86.291562 8.007329 84.60375 C 8.007329 84.60375 7.202468 86.439375 5.599627 87.556562 M 10.267129 74.525 C 10.267129 74.525 14.370541 73.895937 15.687898 75.5975 C 17.641576 78.120625 18.322611 81.554687 18.322611 81.554687 M 14.308628 71.640937 C 14.308628 71.640937 18.924537 70.815937 20.458587 72.885312 C 21.8069 74.707187 22.673673 80.358437 22.673673 80.358437 M 26.137324 79.835937 C 26.137324 79.835937 18.752558 80.523437 17.7654 82.262812 C 16.771363 83.99875 17.294179 86.411875 25.074495 86.690312 M 18.65625 85.86875 C 18.65625 85.86875 19.254736 90.024687 15.753249 90.554062 M 21.710592 87.006562 C 21.710592 87.006562 18.044006 91.42375 19.492067 94.895625 " transform="matrix(1.135678,0,0,1.136364,0,0)"/>
<path style="fill:none;stroke-width:1.4;stroke-linecap:round;stroke-linejoin:round;stroke:rgb(10.196078%,9.803922%,9.803922%);stroke-opacity:1;stroke-miterlimit:4;" d="M 35.561757 126.792187 C 35.561757 126.792187 57.313623 117.352812 66.459451 115.18375 C 75.374827 113.073125 81.968491 112.059062 88.125328 111.925 " transform="matrix(1.135678,0,0,1.136364,0,0)"/>
<path style="fill:none;stroke-width:1;stroke-linecap:round;stroke-linejoin:round;stroke:rgb(10.196078%,9.803922%,9.803922%);stroke-opacity:1;stroke-miterlimit:4;" d="M 13.830528 117.064062 C 13.830528 117.064062 16.076569 118.6075 21.545492 116.263125 C 26.457204 114.159375 29.360205 110.553437 29.5597 108.346562 " transform="matrix(1.135678,0,0,1.136364,0,0)"/>
<path style=" stroke:none;fill-rule:nonzero;fill:rgb(87.843137%,48.627451%,49.019608%);fill-opacity:1;" d="M 112.574219 118 C 109.84375 118 105.792969 116.300781 103.558594 112.898438 C 99.359375 106.515625 97.90625 96.421875 97.90625 96.421875 C 100.933594 98.058594 107.652344 99.253906 112.480469 99.253906 L 112.382812 99.253906 C 117.210938 99.253906 123.929688 98.058594 126.960938 96.421875 C 126.960938 96.421875 125.824219 104.558594 122.296875 110.699219 C 119.8125 115.019531 115.535156 118 112.289062 118 L 112.574219 118 "/>
<path style=" stroke:none;fill-rule:nonzero;fill:rgb(76.470588%,34.901961%,32.54902%);fill-opacity:1;" d="M 100.222656 105.710938 C 103.238281 103.816406 108.082031 102.707031 112.019531 102.707031 C 116.238281 102.707031 121.015625 103.992188 124.144531 106.132812 C 126.554688 101.121094 127.164062 96.421875 127.164062 96.421875 C 124.101562 98.050781 117.324219 99.246094 112.429688 99.253906 C 107.539062 99.246094 100.761719 98.050781 97.703125 96.421875 C 97.703125 96.421875 97.929688 100.859375 100.222656 105.710938 "/>
<path style="fill:none;stroke-width:1.3;stroke-linecap:round;stroke-linejoin:round;stroke:rgb(10.196078%,9.803922%,9.803922%);stroke-opacity:1;stroke-miterlimit:4;" d="M 86.209486 84.85125 C 88.875156 86.291562 94.791223 87.343437 99.042537 87.343437 L 98.956547 87.343437 C 103.207861 87.343437 109.123928 86.291562 111.793038 84.85125 C 111.793038 84.85125 109.123928 103.84 98.873998 103.84 C 88.624067 103.84 86.209486 84.85125 86.209486 84.85125 Z M 86.209486 84.85125 " transform="matrix(1.135678,0,0,1.136364,0,0)"/>
<path style="fill:none;stroke-width:1;stroke-linecap:round;stroke-linejoin:round;stroke:rgb(10.196078%,9.803922%,9.803922%);stroke-opacity:1;stroke-miterlimit:4;" d="M 53.805258 137.448437 C 53.805258 137.448437 57.403052 140.75875 63.047394 141.635312 " transform="matrix(1.135678,0,0,1.136364,0,0)"/>
<path style="fill:none;stroke-width:1.4;stroke-linecap:round;stroke-linejoin:round;stroke:rgb(10.196078%,9.803922%,9.803922%);stroke-opacity:1;stroke-miterlimit:4;" d="M 137.13238 133.656875 L 131.374533 174.683437 " transform="matrix(1.135678,0,0,1.136364,0,0)"/>
<path style=" stroke:none;fill-rule:nonzero;fill:rgb(97.254902%,82.352941%,70.980392%);fill-opacity:1;" d="M 212.273438 117.011719 C 212.273438 117.011719 215.820312 113.566406 219.253906 109.683594 C 222.054688 106.515625 225.578125 100.972656 225.042969 97.023438 C 224.511719 93.058594 221.6875 88.765625 217.980469 88.367188 C 217.980469 88.367188 216.757812 85.25 214.246094 84.6875 C 214.246094 84.6875 213.714844 81.753906 209.652344 81.410156 C 209.652344 81.410156 208.304688 79.164062 205.648438 78.859375 C 202.988281 78.558594 200.121094 78.191406 198.40625 81.042969 C 196.332031 84.496094 196.21875 90.722656 196.21875 90.722656 C 196.21875 90.722656 193.242188 89.699219 192.386719 92.742188 C 191.242188 96.792969 190.992188 102.59375 193.820312 107.613281 C 195.875 111.257812 197.519531 112.691406 197.519531 112.691406 L 195.925781 118.796875 C 195.925781 118.796875 198.671875 121.46875 201.53125 122.730469 C 205.328125 124.410156 209.054688 125.011719 209.054688 125.011719 L 212.273438 117.011719 "/>
<path style=" stroke:none;fill-rule:nonzero;fill:rgb(82.745098%,60%,52.156863%);fill-opacity:1;" d="M 213.066406 106.351562 C 209.734375 105.632812 206.460938 101.738281 205.605469 100.863281 C 204.75 99.992188 204.339844 97.824219 204.339844 97.824219 L 201.242188 98.523438 C 201.242188 98.523438 202.339844 100.8125 203.109375 101.789062 C 203.878906 102.769531 203.867188 108.335938 203.867188 108.335938 C 203.867188 108.335938 210.339844 105.953125 213.066406 106.351562 "/>
<path style="fill:none;stroke-width:1.4;stroke-linecap:round;stroke-linejoin:round;stroke:rgb(10.196078%,9.803922%,9.803922%);stroke-opacity:1;stroke-miterlimit:4;" d="M 173.822317 100.103437 C 171.858321 99.48125 171.180725 101.217187 171.180725 101.217187 C 171.180725 101.217187 170.32771 104.3075 169.182332 108.442812 C 166.499464 113.03875 162.595548 129.8825 162.750328 129.476875 M 185.953695 104.885 C 187.277931 105.5175 187.85234 105.909375 187.670043 107.7175 C 187.663164 108.023437 186.844545 111.577812 185.699167 116.307812 C 185.99841 120.0375 180.873444 136.5375 179.246526 140.944375 C 177.062396 146.860312 174.197231 149.25625 167.957844 148.936562 C 158.065628 148.427812 135.959486 142.769687 135.959486 142.769687 M 187.277931 109.034062 C 187.277931 109.034062 186.277015 110.625625 183.016299 110.034375 C 175.944535 108.755625 170.723261 103.805625 170.984669 101.918437 M 172.6735 104.823125 L 174.111242 99.106562 C 174.111242 99.106562 172.474004 97.906875 170.664788 94.699687 C 168.174537 90.2825 168.39467 85.177812 169.402465 81.613125 C 170.155731 78.935312 172.776687 79.835937 172.776687 79.835937 C 172.776687 79.835937 172.876435 74.356562 174.702848 71.317812 C 176.212821 68.808437 178.737469 69.131562 181.079819 69.39625 C 183.418729 69.664375 184.605382 71.640937 184.605382 71.640937 C 188.182539 71.943437 188.650321 74.525 188.650321 74.525 C 190.861968 75.02 191.938554 77.763125 191.938554 77.763125 C 195.20271 78.11375 197.689522 81.891562 198.157304 85.380625 C 198.628526 88.855937 196.131395 92.558125 193.881914 95.524687 C 191.285035 98.941562 186.744797 102.805312 186.744797 102.805312 L 183.81428 109.71125 " transform="matrix(1.135678,0,0,1.136364,0,0)"/>
<path style="fill:none;stroke-width:1.2;stroke-linecap:round;stroke-linejoin:round;stroke:rgb(10.196078%,9.803922%,9.803922%);stroke-opacity:1;stroke-miterlimit:4;" d="M 191.735619 77.704687 C 191.735619 77.704687 187.928011 77.020625 186.796391 78.904375 C 185.888343 80.420312 181.929394 89.5125 183.800522 91.021562 C 185.668211 92.527187 188.020879 93.702812 189.802579 93.613437 C 191.584278 93.530937 192.241237 93.042812 191.240321 91.63 C 190.239405 90.217187 188.557453 88.89375 188.557453 88.89375 C 188.557453 88.89375 190.714066 86.291562 190.910122 84.60375 C 190.910122 84.60375 191.714982 86.439375 193.317824 87.556562 M 188.650321 74.525 C 188.650321 74.525 184.54691 73.895937 183.226113 75.5975 C 181.272435 78.120625 180.591399 81.554687 180.591399 81.554687 M 184.605382 71.640937 C 184.605382 71.640937 179.989474 70.815937 178.458863 72.885312 C 177.107111 74.707187 176.243778 80.358437 176.243778 80.358437 M 172.776687 79.835937 C 172.776687 79.835937 180.161453 80.523437 181.15205 82.262812 C 182.142647 83.99875 181.623272 86.411875 173.839515 86.690312 M 180.2612 85.86875 C 180.2612 85.86875 179.662714 90.024687 183.160761 90.554062 M 177.206858 87.006562 C 177.206858 87.006562 180.873444 91.42375 179.425384 94.895625 " transform="matrix(1.135678,0,0,1.136364,0,0)"/>
<path style="fill:none;stroke-width:1.4;stroke-linecap:round;stroke-linejoin:round;stroke:rgb(10.196078%,9.803922%,9.803922%);stroke-opacity:1;stroke-miterlimit:4;" d="M 163.125242 126.850625 C 163.125242 126.850625 141.603827 117.352812 132.457999 115.18375 C 123.542623 113.073125 116.948959 112.059062 110.792122 111.925 " transform="matrix(1.135678,0,0,1.136364,0,0)"/>
<path style="fill:none;stroke-width:1;stroke-linecap:round;stroke-linejoin:round;stroke:rgb(10.196078%,9.803922%,9.803922%);stroke-opacity:1;stroke-miterlimit:4;" d="M 185.819552 116.111875 C 185.819552 116.111875 182.937189 118.040312 177.464826 116.105 C 173.161919 114.585625 170.296754 110.773437 169.546927 108.937812 M 145.112192 137.448437 C 145.112192 137.448437 141.514398 140.75875 135.870057 141.635312 " transform="matrix(1.135678,0,0,1.136364,0,0)"/>
</g>
</svg>
