<?xml version="1.0" encoding="UTF-8"?>
<svg xmlns="http://www.w3.org/2000/svg" xmlns:xlink="http://www.w3.org/1999/xlink" width="183pt" height="199pt" viewBox="0 0 183 199" version="1.1">
<g id="surface1">
<path style=" stroke:none;fill-rule:nonzero;fill:rgb(33.333333%,20.784314%,20.784314%);fill-opacity:1;" d="M 83.640625 87.996094 L 126.042969 87.996094 L 126.042969 104.300781 L 83.640625 104.300781 Z M 83.640625 87.996094 "/>
<path style=" stroke:none;fill-rule:nonzero;fill:rgb(97.254902%,82.352941%,70.980392%);fill-opacity:1;" d="M 26.734375 108.277344 C 26.734375 108.277344 25.496094 106.347656 20.046875 103.605469 C 12.394531 99.75 5.25 95.980469 3.050781 93.441406 C 0.933594 91 2.035156 90.117188 2.035156 90.117188 C 2.035156 90.117188 0.546875 88.855469 0.8125 87.78125 C 1.003906 87.019531 2.539062 87.285156 2.539062 87.285156 C 2.539062 87.285156 1.257812 85.585938 1.851562 85.1875 C 2.449219 84.789062 5.808594 85.667969 5.808594 85.667969 C 5.808594 85.667969 5.167969 84.25 5.742188 84.160156 C 8.230469 83.777344 24.125 90.339844 24.125 90.339844 C 24.125 90.339844 21.316406 87.726562 20.636719 85.6875 C 20.316406 84.734375 19.703125 82.15625 21.0625 82.566406 C 21.941406 82.832031 25.203125 86.757812 28.269531 87.890625 C 30.652344 88.777344 32.808594 90.882812 33.78125 94.875 C 34.191406 96.554688 35.0625 99.09375 35.367188 101.285156 "/>
<path style=" stroke:none;fill-rule:nonzero;fill:rgb(91.764706%,60.784314%,72.941176%);fill-opacity:1;" d="M 65.3125 112.84375 C 61.800781 114.886719 53.957031 118.511719 50.890625 119.320312 C 49.621094 119.65625 49.144531 119.335938 48.390625 118.378906 C 46.035156 115.394531 36.414062 100.6875 36.414062 100.6875 C 36.414062 100.6875 29.21875 106.050781 25.34375 110.0625 C 25.34375 110.0625 40.035156 134.617188 41.792969 136.125 C 43.9375 137.960938 46.78125 137.246094 51.371094 136.167969 C 57.695312 134.6875 71.351562 131.304688 76.980469 129.222656 L 77.460938 131.609375 L 84.046875 158.460938 L 79.164062 180.203125 L 136.640625 180.203125 L 130.46875 158.460938 L 135.230469 141.773438 L 145.410156 175.683594 L 151.425781 173.808594 L 155.207031 171.523438 C 155.207031 171.523438 148.6875 128.578125 147.527344 119.824219 C 146.367188 111.070312 140.40625 107.039062 136.082031 105.929688 C 131.761719 104.816406 113.816406 99.175781 113.816406 99.175781 L 101.214844 99.855469 L 91.027344 104.105469 L 65.3125 112.84375 "/>
<path style=" stroke:none;fill-rule:nonzero;fill:rgb(100%,100%,99.607843%);fill-opacity:1;" d="M 107.628906 146.546875 L 114.929688 114.039062 L 114.929688 99.523438 L 100.179688 100.601562 L 100.179688 114.039062 L 107.257812 146.546875 "/>
<path style=" stroke:none;fill-rule:nonzero;fill:rgb(100%,100%,99.607843%);fill-opacity:1;" d="M 110.804688 111.824219 C 112.480469 109.910156 119.453125 115.207031 119.453125 115.207031 C 118.671875 99.011719 116.089844 98.785156 114.550781 98.503906 L 100.886719 98.503906 C 99.347656 98.785156 96.761719 99.011719 95.980469 115.207031 C 95.980469 115.207031 102.957031 109.910156 104.628906 111.824219 L 105.316406 114.042969 L 109.871094 114.269531 L 110.804688 111.824219 "/>
<path style=" stroke:none;fill-rule:nonzero;fill:rgb(97.254902%,82.352941%,70.980392%);fill-opacity:1;" d="M 113.816406 101.34375 L 113.816406 93.144531 L 101.335938 93.882812 L 101.335938 96.394531 L 101.070312 101.34375 L 107.59375 112.835938 L 113.816406 101.34375 "/>
<path style=" stroke:none;fill-rule:nonzero;fill:rgb(78.039216%,60%,52.54902%);fill-opacity:1;" d="M 101.335938 94.789062 L 113.8125 94.527344 L 113.84375 100.101562 C 113.84375 100.101562 106.839844 105.394531 101.335938 102.6875 L 101.335938 94.789062 "/>
<path style=" stroke:none;fill-rule:nonzero;fill:rgb(97.254902%,82.352941%,70.980392%);fill-opacity:1;" d="M 173.121094 180.457031 C 173.121094 180.457031 175.289062 178.296875 173.359375 176.972656 C 171.949219 176.003906 160.628906 172.625 155.722656 172.148438 C 151.871094 171.769531 148.742188 172.289062 145.851562 175.332031 C 142.90625 178.425781 144.722656 179.976562 146.171875 180.457031 L 173.121094 180.457031 "/>
<path style=" stroke:none;fill-rule:nonzero;fill:rgb(95.686275%,79.215686%,84.313725%);fill-opacity:1;" d="M 36.605469 100.964844 C 35.914062 99.816406 49.28125 119.730469 48.972656 119.710938 C 48.726562 119.691406 54.070312 118.152344 51.859375 119.078125 L 68.949219 111.433594 L 73.503906 113.007812 C 73.503906 113.007812 54.023438 121.417969 51.40625 121.957031 C 48.792969 122.496094 48.070312 121.957031 46.71875 120.609375 C 45.363281 119.261719 35.792969 101.148438 35.792969 101.148438 L 36.605469 100.964844 "/>
<path style=" stroke:none;fill-rule:nonzero;fill:rgb(85.098039%,50.196078%,66.27451%);fill-opacity:1;" d="M 134.136719 145.898438 C 128.6875 150.335938 120.828125 154.664062 107.441406 155.070312 C 95.167969 155.441406 85.707031 151.210938 80.699219 144.601562 L 84.046875 158.460938 L 79.164062 180.203125 L 135.996094 180.203125 L 131.113281 158.460938 L 134.136719 145.898438 "/>
<path style="fill:none;stroke-width:4.2;stroke-linecap:round;stroke-linejoin:round;stroke:rgb(10.196078%,9.803922%,9.803922%);stroke-opacity:1;stroke-miterlimit:4;" d="M 262.834785 273.686165 C 257.048156 275.720576 249.43417 278.482314 243.132941 281.064856 M 313.286629 270.460623 C 327.831967 275.014329 355.6729 283.668479 364.127049 285.850463 C 375.752818 288.844103 393.511783 299.722401 396.630891 323.344751 C 399.75 346.967101 417.592982 463.160392 417.592982 463.160392 M 203.687244 330.871015 L 225.96209 427.605645 L 212.834529 486.276774 M 375.92085 329.289867 L 352.501281 427.605645 L 365.628842 486.276774 M 363.570441 382.574552 L 390.749744 473.648673 M 270.23873 271.70446 L 289.068904 303.928255 L 307.804559 270.787394 M 268.925973 305.888878 L 288.365266 395.455638 M 309.337859 305.045599 L 289.362961 395.455638 M 392.98668 486.961939 C 389.09042 485.665397 384.206967 481.480626 392.125512 473.132165 C 399.897029 464.920736 408.918289 462.454146 419.273309 463.46608 C 432.463883 464.762622 462.289703 474.945214 466.080943 477.559379 C 471.268955 481.132773 465.440318 486.961939 465.440318 486.961939 " transform="matrix(0.371951,0,0,0.370577,0,0)"/>
<path style="fill:none;stroke-width:3.6;stroke-linecap:round;stroke-linejoin:round;stroke:rgb(10.196078%,9.803922%,9.803922%);stroke-opacity:1;stroke-miterlimit:4;" d="M 406.807377 472.752689 C 406.807377 472.752689 424.45082 473.669755 428.662141 478.21292 C 432.873463 482.756085 427.034324 485.992168 421.520748 486.635168 " transform="matrix(0.371951,0,0,0.370577,0,0)"/>
<path style="fill:none;stroke-width:4.2;stroke-linecap:round;stroke-linejoin:round;stroke:rgb(10.196078%,9.803922%,9.803922%);stroke-opacity:1;stroke-miterlimit:4;" d="M 184.363473 300.080795 C 174.922131 305.59373 145.064805 319.80298 136.820697 321.984964 C 133.407531 322.891489 132.126281 322.027128 130.099385 319.444586 C 123.76665 311.391273 97.900102 271.70446 97.900102 271.70446 C 97.900102 271.70446 77.69416 285.903168 68.494365 296.475777 C 68.494365 296.475777 106.889857 361.893138 111.615779 365.951417 C 117.370902 370.916222 122.674436 370.262681 135.108863 367.79609 C 153.109375 364.233236 190.738217 353.892529 207.0479 347.70497 M 281.297387 301.872762 C 276.80251 296.707679 258.04585 310.990715 258.04585 310.990715 C 260.14626 267.298328 267.098617 266.68695 271.236424 265.927999 M 297.901127 301.872762 C 302.406506 296.707679 321.152664 310.990715 321.152664 310.990715 C 319.052254 267.298328 311.994877 265.927999 306.617828 265.08472 " transform="matrix(0.371951,0,0,0.370577,0,0)"/>
<path style=" stroke:none;fill-rule:nonzero;fill:rgb(73.333333%,68.235294%,57.254902%);fill-opacity:1;" d="M 40.679688 179.691406 L 181.832031 179.691406 L 181.832031 198.222656 L 40.679688 198.222656 Z M 40.679688 179.691406 "/>
<path style="fill:none;stroke-width:4.2;stroke-linecap:round;stroke-linejoin:round;stroke:rgb(10.196078%,9.803922%,9.803922%);stroke-opacity:1;stroke-miterlimit:4;" d="M 109.36834 534.902344 L 109.36834 484.895905 L 488.859887 484.895905 L 488.859887 534.902344 " transform="matrix(0.371951,0,0,0.370577,0,0)"/>
<path style="fill:none;stroke-width:3.6;stroke-linecap:butt;stroke-linejoin:miter;stroke:rgb(10.196078%,9.803922%,9.803922%);stroke-opacity:1;stroke-miterlimit:4;" d="M 294.613986 411.488478 C 294.613986 414.387249 292.261527 416.737889 289.362961 416.737889 C 286.464395 416.737889 284.111936 414.387249 284.111936 411.488478 C 284.111936 408.589706 286.464395 406.239066 289.362961 406.239066 C 292.261527 406.239066 294.613986 408.589706 294.613986 411.488478 Z M 294.613986 441.698944 C 294.613986 444.608256 292.261527 446.948355 289.362961 446.948355 C 286.464395 446.948355 284.111936 444.608256 284.111936 441.698944 C 284.111936 438.800173 286.464395 436.449533 289.362961 436.449533 C 292.261527 436.449533 294.613986 438.800173 294.613986 441.698944 Z M 294.613986 441.698944 " transform="matrix(0.371951,0,0,0.370577,0,0)"/>
<path style="fill:none;stroke-width:4.2;stroke-linecap:round;stroke-linejoin:round;stroke:rgb(10.196078%,9.803922%,9.803922%);stroke-opacity:1;stroke-miterlimit:4;" d="M 71.876025 292.185596 C 71.876025 292.185596 73.094262 290.014153 57.992316 282.8252 C 40.054816 274.308083 14.114754 259.002571 8.2021 252.15093 C 2.50999 245.562814 5.471568 243.180551 5.471568 243.180551 C 5.471568 243.180551 1.470287 239.775813 2.184426 236.877041 C 2.699027 234.821549 6.826332 235.538336 6.826332 235.538336 C 6.826332 235.538336 3.38166 230.953007 4.977971 229.877827 C 6.584785 228.802646 15.616547 231.174368 15.616547 231.174368 C 15.616547 231.174368 13.894211 227.34799 15.438012 227.105547 C 22.127818 226.072531 64.860656 243.781387 64.860656 243.781387 C 64.860656 243.781387 57.309682 236.729468 55.482326 231.227073 C 54.621158 228.655072 52.972336 221.698021 56.627049 222.804825 C 58.99001 223.521612 67.759221 234.115303 76.00333 237.172189 C 82.40958 239.564993 88.206711 245.246584 90.821721 256.019472 C 91.924436 260.552096 94.266393 267.403737 95.085553 273.317231 " transform="matrix(0.371951,0,0,0.370577,0,0)"/>
<path style="fill:none;stroke-width:3.6;stroke-linecap:round;stroke-linejoin:round;stroke:rgb(10.196078%,9.803922%,9.803922%);stroke-opacity:1;stroke-miterlimit:4;" d="M 64.860656 243.781387 L 67.412654 245.921208 C 67.412654 245.921208 67.171107 262.902736 79.54252 270.808476 M 34.257684 260.836703 C 34.257684 260.836703 45.641906 247.143962 56.78458 240.545305 M 15.616547 231.174368 C 15.616547 231.174368 42.155225 242.105371 48.918545 245.773634 M 6.826332 235.538336 C 6.826332 235.538336 30.581967 245.604978 41.829662 252.182553 M 5.471568 243.180551 C 5.471568 243.180551 26.349641 253.668832 35.896004 258.190916 " transform="matrix(0.371951,0,0,0.370577,0,0)"/>
<path style=" stroke:none;fill-rule:nonzero;fill:rgb(33.333333%,20.784314%,20.784314%);fill-opacity:1;" d="M 119.835938 95.117188 C 121.285156 98.378906 122.347656 101.601562 121.003906 105.09375 C 119.660156 108.578125 117.78125 108.917969 117.78125 108.917969 C 117.78125 108.917969 127.488281 117.878906 145.164062 110.820312 C 153.058594 107.671875 150.757812 94.902344 148.515625 86.519531 C 144.074219 69.9375 148.023438 60.878906 148.109375 54.53125 C 151 13.269531 129.363281 10.652344 129.363281 10.652344 C 124.785156 0.425781 91.308594 -6.875 74.472656 17.550781 C 63.835938 32.984375 65.996094 55.300781 65.996094 55.300781 C 66.078125 61.648438 70.441406 70.777344 65.59375 87.289062 C 63.796875 93.394531 62.292969 100.75 64.4375 106.21875 C 65.21875 108.203125 67.320312 109.488281 68.96875 111.039062 C 71.199219 113.140625 78.148438 114.441406 85.46875 113.574219 C 88.707031 113.191406 91.949219 111.398438 95.433594 109.238281 C 95.433594 109.238281 93.289062 108.984375 92.132812 105.4375 C 91.15625 102.433594 92.371094 97.773438 94.179688 94.835938 "/>
<path style=" stroke:none;fill-rule:nonzero;fill:rgb(97.254902%,82.352941%,70.980392%);fill-opacity:1;" d="M 74.042969 51.964844 C 88.585938 38.941406 89.164062 25.304688 89.164062 25.304688 C 89.164062 25.304688 98.605469 38.695312 117.46875 40.082031 C 117.46875 40.082031 110.121094 37.179688 109.816406 30 C 109.816406 30 114.152344 36.695312 126.507812 39.867188 C 131.441406 41.136719 138.28125 46.554688 140.007812 52.632812 C 140.316406 59.09375 140.074219 69.417969 137.265625 77.789062 C 132.011719 93.457031 115.136719 97.398438 107.179688 97.398438 C 99.222656 97.398438 82.574219 93.457031 77.320312 77.789062 C 74.351562 68.941406 74.25 57.910156 74.632812 51.566406 "/>
<path style=" stroke:none;fill-rule:nonzero;fill:rgb(72.941176%,51.372549%,45.098039%);fill-opacity:1;" d="M 129.363281 10.652344 C 124.785156 0.425781 91.308594 -6.875 74.472656 17.550781 C 63.835938 32.984375 65.785156 54.558594 65.785156 54.558594 L 67.515625 70.003906 C 67.441406 63.167969 67.195312 33.933594 75.867188 22.203125 C 92.304688 -0.0234375 119.058594 3.957031 126.898438 12.09375 C 126.898438 12.09375 139.3125 16.324219 145.191406 26.847656 C 145.191406 26.847656 142.714844 14.527344 129.363281 10.652344 "/>
<path style=" stroke:none;fill-rule:nonzero;fill:rgb(100%,100%,99.607843%);fill-opacity:1;" d="M 98.613281 58.929688 C 98.613281 63.761719 95.59375 67.683594 91.875 67.683594 C 88.15625 67.683594 85.136719 63.761719 85.136719 58.929688 C 85.136719 54.09375 88.15625 50.171875 91.875 50.171875 C 95.59375 50.171875 98.613281 54.09375 98.613281 58.929688 "/>
<path style=" stroke:none;fill-rule:nonzero;fill:rgb(100%,100%,99.607843%);fill-opacity:1;" d="M 129.808594 58.929688 C 129.808594 63.761719 126.792969 67.683594 123.074219 67.683594 C 119.351562 67.683594 116.332031 63.761719 116.332031 58.929688 C 116.332031 54.09375 119.351562 50.171875 123.074219 50.171875 C 126.792969 50.171875 129.808594 54.09375 129.808594 58.929688 "/>
<path style=" stroke:none;fill-rule:nonzero;fill:rgb(87.45098%,45.098039%,43.921569%);fill-opacity:1;" d="M 107.394531 90.480469 C 100.855469 90.480469 100.390625 79.761719 100.3125 77.355469 C 100.3125 77.355469 107.265625 80.417969 114.21875 77.355469 C 114.140625 79.761719 113.675781 90.480469 107.136719 90.480469 "/>
<path style=" stroke:none;fill-rule:nonzero;fill:rgb(94.509804%,69.411765%,63.529412%);fill-opacity:1;" d="M 88.132812 68.671875 C 88.132812 70.183594 85.570312 71.410156 82.410156 71.410156 C 79.25 71.410156 76.6875 70.183594 76.6875 68.671875 C 76.6875 67.15625 79.25 65.929688 82.410156 65.929688 C 85.570312 65.929688 88.132812 67.15625 88.132812 68.671875 "/>
<path style=" stroke:none;fill-rule:nonzero;fill:rgb(94.509804%,69.411765%,63.529412%);fill-opacity:1;" d="M 137.953125 68.671875 C 137.953125 70.183594 135.390625 71.410156 132.230469 71.410156 C 129.070312 71.410156 126.507812 70.183594 126.507812 68.671875 C 126.507812 67.15625 129.070312 65.929688 132.230469 65.929688 C 135.390625 65.929688 137.953125 67.15625 137.953125 68.671875 "/>
<path style=" stroke:none;fill-rule:nonzero;fill:rgb(72.941176%,51.372549%,45.098039%);fill-opacity:1;" d="M 78.871094 15.105469 C 89.542969 18.675781 96.625 18.714844 100.597656 18.171875 C 103.265625 17.804688 101.859375 16.855469 100.644531 16.644531 C 88.144531 14.460938 84.414062 9.675781 84.414062 9.675781 L 78.871094 15.105469 "/>
<path style=" stroke:none;fill-rule:nonzero;fill:rgb(82.352941%,87.843137%,92.156863%);fill-opacity:1;" d="M 122.613281 52.929688 C 121.050781 52.929688 119.566406 53.210938 118.191406 53.707031 C 119.425781 51.917969 121.210938 50.785156 123.207031 50.785156 C 125.457031 50.785156 127.445312 52.226562 128.667969 54.429688 C 126.882812 53.480469 124.820312 52.929688 122.613281 52.929688 "/>
<path style=" stroke:none;fill-rule:nonzero;fill:rgb(82.352941%,87.843137%,92.156863%);fill-opacity:1;" d="M 92.398438 52.910156 C 93.960938 52.910156 95.445312 53.191406 96.816406 53.683594 C 95.585938 51.894531 93.796875 50.761719 91.804688 50.761719 C 89.550781 50.761719 87.566406 52.203125 86.339844 54.410156 C 88.125 53.460938 90.191406 52.910156 92.398438 52.910156 "/>
<path style=" stroke:none;fill-rule:nonzero;fill:rgb(72.941176%,51.372549%,45.098039%);fill-opacity:1;" d="M 68.09375 75.269531 C 68.09375 75.269531 69.410156 78.078125 67.191406 93.171875 C 66.480469 97.992188 66.40625 108.386719 75.851562 113.582031 C 75.851562 113.582031 69.070312 111.703125 67.707031 110.414062 C 64.53125 107.414062 63.667969 104.824219 63.558594 102.136719 C 63.3125 96.214844 64.859375 91.101562 65.183594 89.320312 C 65.511719 87.53125 68.09375 75.269531 68.09375 75.269531 "/>
<path style=" stroke:none;fill-rule:nonzero;fill:rgb(72.941176%,51.372549%,45.098039%);fill-opacity:1;" d="M 145.859375 75.550781 C 145.859375 75.550781 144.921875 75.738281 147.8125 92.441406 C 149.277344 100.890625 148.179688 108.386719 138.734375 113.582031 C 138.734375 113.582031 145.515625 111.703125 146.875 110.414062 C 150.050781 107.414062 150.917969 104.824219 151.03125 102.136719 C 151.273438 96.214844 149.726562 91.101562 149.402344 89.320312 C 149.074219 87.53125 145.859375 75.550781 145.859375 75.550781 "/>
<path style=" stroke:none;fill-rule:nonzero;fill:rgb(67.45098%,31.764706%,29.803922%);fill-opacity:1;" d="M 107.203125 80.515625 C 109.714844 80.515625 111.96875 81.179688 113.539062 83.40625 C 114.136719 80.769531 114.242188 78.285156 114.269531 77.554688 C 107.332031 79.75 100.390625 77.554688 100.390625 77.554688 C 100.421875 78.261719 100.515625 80.601562 101.058594 83.128906 C 102.621094 81.0625 104.796875 80.515625 107.203125 80.515625 "/>
<path style="fill:none;stroke-width:4.2;stroke-linecap:round;stroke-linejoin:round;stroke:rgb(10.196078%,9.803922%,9.803922%);stroke-opacity:1;stroke-miterlimit:4;" d="M 247.869365 270.460623 C 243.763064 291.500432 255.609375 294.778679 255.609375 294.778679 C 255.609375 294.778679 221.341189 322.701751 184.804559 299.047778 C 165.606814 286.630496 170.490266 258.211997 176.35041 235.548877 C 189.383453 199.698983 179.543033 169.783664 177.432121 149.228741 C 177.432121 149.228741 171.624488 89.008087 200.221568 47.360651 C 245.4854 -18.552136 335.487961 1.148967 347.796363 28.745269 C 347.796363 28.745269 405.967213 35.80773 398.195697 147.152167 C 397.964652 164.28127 387.095031 193.268982 398.458248 233.419598 C 404.832992 255.935144 411.17623 287.969201 390.83376 298.394237 C 351.083504 318.759422 319.608863 294.451908 319.608863 294.451908 C 319.608863 294.451908 330.5625 289.624136 328.336066 269.374902 M 262.393699 115.97193 C 255.504355 110.722519 238.091957 108.097813 228.566598 119.587488 " transform="matrix(0.371951,0,0,0.370577,0,0)"/>
<path style="fill:none;stroke-width:4.8;stroke-linecap:round;stroke-linejoin:round;stroke:rgb(10.196078%,9.803922%,9.803922%);stroke-opacity:1;stroke-miterlimit:4;" d="M 263.139344 145.318035 C 255.535861 129.295736 223.693648 129.22195 228.241035 167.021926 " transform="matrix(0.371951,0,0,0.370577,0,0)"/>
<path style="fill:none;stroke-width:4.2;stroke-linecap:round;stroke-linejoin:round;stroke:rgb(10.196078%,9.803922%,9.803922%);stroke-opacity:1;stroke-miterlimit:4;" d="M 313.969262 115.97193 C 320.869109 110.722519 338.281506 108.097813 347.796363 119.587488 " transform="matrix(0.371951,0,0,0.370577,0,0)"/>
<path style="fill:none;stroke-width:4.8;stroke-linecap:round;stroke-linejoin:round;stroke:rgb(10.196078%,9.803922%,9.803922%);stroke-opacity:1;stroke-miterlimit:4;" d="M 314.01127 146.878101 C 320.217982 129.3379 354.244621 128.041359 349.550205 167.021926 " transform="matrix(0.371951,0,0,0.370577,0,0)"/>
<path style="fill:none;stroke-width:4.2;stroke-linecap:round;stroke-linejoin:round;stroke:rgb(10.196078%,9.803922%,9.803922%);stroke-opacity:1;stroke-miterlimit:4;" d="M 222.002818 155.859022 L 227.799949 159.47458 M 349.991291 159.47458 L 357.762807 155.859022 M 288.459785 197.443212 L 288.459785 192.18326 M 199.066342 140.226739 C 238.165471 105.083091 239.719775 68.284508 239.719775 68.284508 C 239.719775 68.284508 265.103227 104.419009 315.817623 108.161059 C 315.817623 108.161059 296.063268 100.329106 295.244109 80.954774 C 295.244109 80.954774 306.901383 99.022024 340.119365 107.581305 C 353.383453 111.007125 371.772541 125.627473 376.414447 142.029248 C 377.244109 159.464039 376.592982 187.323865 369.042008 209.913199 C 354.916752 252.193094 309.5479 262.828949 288.155225 262.828949 C 266.762551 262.828949 222.002818 252.193094 207.877561 209.913199 C 199.896004 186.037865 199.622951 156.27012 200.652152 139.151559 M 273.746414 274.287001 L 274.008965 261.932966 M 304.359887 272.305296 L 303.992316 262.038375 M 288.732838 244.160863 C 271.152408 244.160863 269.902664 215.236397 269.692623 208.743149 C 269.692623 208.743149 288.38627 217.007283 307.079918 208.743149 C 306.869877 215.236397 305.620133 244.160863 288.039703 244.160863 " transform="matrix(0.371951,0,0,0.370577,0,0)"/>
<path style=" stroke:none;fill-rule:nonzero;fill:rgb(10.196078%,9.803922%,9.803922%);fill-opacity:1;" d="M 97.5625 60.191406 C 97.5625 63.484375 95.703125 66.15625 93.40625 66.15625 C 91.113281 66.15625 89.253906 63.484375 89.253906 60.191406 C 89.253906 56.898438 91.113281 54.226562 93.40625 54.226562 C 95.703125 54.226562 97.5625 56.898438 97.5625 60.191406 "/>
<path style=" stroke:none;fill-rule:nonzero;fill:rgb(10.196078%,9.803922%,9.803922%);fill-opacity:1;" d="M 117.269531 60.191406 C 117.269531 63.484375 119.128906 66.15625 121.421875 66.15625 C 123.71875 66.15625 125.578125 63.484375 125.578125 60.191406 C 125.578125 56.898438 123.71875 54.226562 121.421875 54.226562 C 119.128906 54.226562 117.269531 56.898438 117.269531 60.191406 "/>
<path style=" stroke:none;fill-rule:nonzero;fill:rgb(100%,100%,99.607843%);fill-opacity:1;" d="M 97.488281 58.195312 C 97.488281 58.871094 96.9375 59.417969 96.261719 59.417969 C 95.585938 59.417969 95.035156 58.871094 95.035156 58.195312 C 95.035156 57.519531 95.585938 56.972656 96.261719 56.972656 C 96.9375 56.972656 97.488281 57.519531 97.488281 58.195312 "/>
<path style=" stroke:none;fill-rule:nonzero;fill:rgb(100%,100%,99.607843%);fill-opacity:1;" d="M 125.257812 58.195312 C 125.257812 58.871094 124.707031 59.417969 124.027344 59.417969 C 123.351562 59.417969 122.800781 58.871094 122.800781 58.195312 C 122.800781 57.519531 123.351562 56.972656 124.027344 56.972656 C 124.707031 56.972656 125.257812 57.519531 125.257812 58.195312 "/>
</g>
</svg>
