<?xml version="1.0" encoding="UTF-8"?>
<svg xmlns="http://www.w3.org/2000/svg" xmlns:xlink="http://www.w3.org/1999/xlink" width="206pt" height="200pt" viewBox="0 0 206 200" version="1.1">
<g id="surface1">
<path style=" stroke:none;fill-rule:nonzero;fill:rgb(28.235294%,20%,11.372549%);fill-opacity:1;" d="M 96.058594 67.988281 C 96.058594 67.988281 85.609375 54.496094 85.984375 41.207031 C 86.300781 29.90625 92.886719 16.675781 108.375 12.179688 C 112.851562 7.5 124.589844 2.351562 136.363281 1.695312 C 159.796875 0.386719 170.214844 8.621094 178.765625 22.65625 C 187.320312 36.6875 183.246094 50.488281 182.839844 54.484375 C 182.433594 58.484375 185.136719 73.578125 184.691406 79.035156 C 183.710938 91.019531 178.5625 94.550781 173.054688 96.664062 C 173.054688 96.664062 173.773438 93.96875 172.792969 90.878906 C 172.792969 90.878906 163.488281 98.535156 145.660156 96.660156 "/>
<path style=" stroke:none;fill-rule:nonzero;fill:rgb(28.235294%,20%,11.372549%);fill-opacity:1;" d="M 98.855469 82.3125 C 98.855469 82.3125 99.417969 89.710938 96.429688 92.894531 C 96.429688 92.894531 105.148438 99.902344 112.078125 97.144531 "/>
<path style=" stroke:none;fill-rule:nonzero;fill:rgb(20.784314%,62.745098%,80.392157%);fill-opacity:1;" d="M 181.148438 176.09375 L 168.460938 175.046875 L 165.472656 173.605469 L 162.300781 159.21875 L 171.722656 124.167969 L 178.078125 120.117188 C 182.105469 121.136719 187.910156 123.253906 191.019531 127.390625 C 194.710938 132.304688 191.105469 139.476562 188.925781 143.445312 C 182.675781 154.824219 180.679688 165.226562 181.535156 176.125 "/>
<path style=" stroke:none;fill-rule:nonzero;fill:rgb(53.72549%,80%,90.196078%);fill-opacity:1;" d="M 174.988281 124.210938 C 179.015625 125.234375 185.484375 125.898438 188.984375 129.972656 C 191.523438 132.925781 191.171875 138.125 189.871094 141.664062 C 191.953125 137.566406 194.210938 131.636719 191.019531 127.390625 C 187.910156 123.253906 182.105469 121.136719 178.078125 120.117188 L 174.988281 124.210938 "/>
<path style=" stroke:none;fill-rule:nonzero;fill:rgb(100%,100%,99.607843%);fill-opacity:1;" d="M 90.757812 154.632812 C 91.882812 151.273438 94.007812 151.835938 94.007812 151.835938 C 94.007812 151.835938 96.351562 144.984375 97.757812 134.753906 C 98.984375 125.800781 101.8125 117.945312 102.753906 116.128906 C 105.457031 110.902344 111.917969 110.214844 111.917969 110.214844 L 114.59375 109.0625 L 116.582031 165.039062 L 101.722656 166.722656 L 93.140625 174.75 L 89.574219 156.328125 L 90.757812 154.628906 "/>
<path style=" stroke:none;fill-rule:nonzero;fill:rgb(72.54902%,63.921569%,54.117647%);fill-opacity:1;" d="M 114.59375 109.0625 C 114.59375 109.0625 111.132812 111.667969 109.382812 117.003906 C 107.628906 122.339844 104.898438 134.910156 105.457031 138.984375 C 106.019531 143.054688 110.984375 161.339844 110.984375 161.339844 L 109.855469 168.40625 L 144.851562 173.453125 L 167.757812 174.988281 C 167.214844 173.257812 166.105469 165.738281 166.105469 165.738281 L 167.757812 112.742188 L 167.792969 108.558594 L 166.402344 108.15625 C 164.585938 107.59375 147.269531 101.179688 147.269531 101.179688 L 137.402344 103.078125 L 129.535156 102.691406 L 114.59375 109.0625 "/>
<path style=" stroke:none;fill-rule:nonzero;fill:rgb(58.823529%,43.137255%,35.686275%);fill-opacity:1;" d="M 135.476562 32.3125 C 139.789062 31.832031 154.953125 29.082031 166.402344 24.726562 C 170.410156 23.203125 173.976562 21.417969 176.714844 19.488281 C 174.191406 15.824219 171.4375 12.707031 168.214844 10.183594 C 167.058594 12.648438 165.285156 16.488281 152.875 22.292969 C 146.246094 25.398438 134.914062 28.027344 130.578125 28.847656 C 127.621094 29.40625 132.132812 32.683594 135.476562 32.3125 "/>
<path style=" stroke:none;fill-rule:nonzero;fill:rgb(58.823529%,43.137255%,35.686275%);fill-opacity:1;" d="M 98.109375 31.9375 C 94.25 31.4375 90.648438 30.347656 88.863281 29.085938 C 90.179688 26.1875 91.945312 23.359375 94.179688 20.695312 C 94.660156 23.042969 96.804688 25.195312 101.746094 27.066406 C 103.359375 27.675781 102.8125 28.414062 102.8125 28.414062 L 100.828125 30.855469 C 100.828125 30.855469 100.097656 32.195312 98.109375 31.9375 "/>
<path style=" stroke:none;fill-rule:nonzero;fill:rgb(97.254902%,82.352941%,70.980392%);fill-opacity:1;" d="M 130.4375 101.179688 C 130.4375 101.179688 130.492188 101.667969 130.546875 102.398438 L 129.121094 103.296875 C 129.121094 103.296875 126.519531 107.945312 126.589844 109.628906 C 126.660156 111.316406 128.828125 115.105469 129.949219 115.386719 C 131.070312 115.667969 132.539062 115.808594 132.539062 115.808594 C 132.539062 115.808594 144.292969 108.644531 145.238281 106.609375 C 146.183594 104.574219 146.390625 101.179688 146.390625 101.179688 L 145.472656 100.402344 L 145.003906 97.074219 L 130.535156 100.078125 L 130.4375 101.179688 "/>
<path style=" stroke:none;fill-rule:nonzero;fill:rgb(97.254902%,82.352941%,70.980392%);fill-opacity:1;" d="M 164.421875 80.601562 C 148.316406 101.851562 126.269531 104.78125 112.078125 97.144531 C 97.792969 89.460938 97.816406 76.96875 97.816406 76.96875 C 91.660156 48.628906 96.511719 39.816406 103.066406 31.554688 C 105.027344 29.078125 107.425781 27.109375 109.863281 25.554688 C 113.785156 28.472656 116.957031 32.78125 138.886719 36.503906 C 158.097656 39.765625 162.796875 50.265625 163.15625 67.519531 C 163.15625 67.519531 164.484375 61.058594 168.03125 58.921875 C 172.296875 56.347656 178.183594 58.199219 177.453125 65.886719 C 176.730469 73.515625 171.570312 81.054688 162.972656 80.507812 "/>
<path style=" stroke:none;fill-rule:nonzero;fill:rgb(100%,100%,99.607843%);fill-opacity:1;" d="M 100.089844 61.644531 C 99.105469 46.929688 110.011719 50.4375 111.484375 55.015625 C 111.484375 55.015625 114.675781 63.175781 112.410156 68.351562 C 110.148438 73.527344 106.078125 73.257812 103.332031 70.328125 C 101.414062 68.285156 100.539062 65.628906 100.089844 61.644531 "/>
<path style=" stroke:none;fill-rule:nonzero;fill:rgb(100%,100%,99.607843%);fill-opacity:1;" d="M 145.628906 61.535156 C 145.535156 45.761719 130.816406 47.78125 129.800781 54.578125 C 129.800781 54.578125 127.347656 63.640625 132.535156 69.734375 C 136.527344 74.425781 145.527344 70.699219 145.628906 61.535156 "/>
<path style=" stroke:none;fill-rule:nonzero;fill:rgb(56.470588%,50.588235%,43.529412%);fill-opacity:1;" d="M 106.925781 145.75 C 106.925781 145.75 109.308594 150.84375 126.382812 149.019531 C 149.074219 151.25 157.449219 142.847656 157.449219 142.847656 L 159.265625 160.542969 L 128.199219 168.265625 L 111.265625 164.195312 C 111.265625 164.195312 110.382812 159.484375 109.585938 156.375 C 108.652344 152.722656 107.300781 148.839844 106.925781 145.75 "/>
<path style=" stroke:none;fill-rule:nonzero;fill:rgb(100%,100%,99.607843%);fill-opacity:1;" d="M 127.675781 162.488281 L 128.199219 165.738281 L 124.664062 165.398438 L 119.988281 145.609375 C 119.085938 143.148438 118.414062 138.96875 118.886719 134.453125 L 119.859375 127.316406 C 120.320312 124.507812 120.722656 122.566406 120.722656 122.570312 L 123.019531 117.707031 L 131.070312 115.667969 L 143.171875 118.828125 L 141.359375 124.648438 C 141.359375 124.648438 140.132812 126.515625 138.433594 129.136719 L 133.332031 137.132812 C 130.917969 140.996094 130.40625 142.308594 130.113281 143.3125 C 129.363281 145.839844 127.738281 162.445312 127.738281 162.445312 "/>
<path style=" stroke:none;fill-rule:nonzero;fill:rgb(88.235294%,36.078431%,36.470588%);fill-opacity:1;" d="M 128.953125 116.609375 C 128.953125 116.609375 120.707031 127.742188 116.882812 129.648438 C 116.878906 131.726562 120.964844 139.242188 122.878906 136.339844 C 124.792969 133.4375 130.890625 118.074219 130.890625 118.074219 C 130.890625 118.074219 129.601562 134.34375 131.589844 136.589844 C 133.113281 138.316406 139.722656 135.628906 141.359375 133.128906 C 137.566406 128.546875 134.777344 123.332031 134.316406 118.132812 L 134.148438 115.808594 L 129.738281 115.808594 L 128.953125 116.609375 "/>
<path style=" stroke:none;fill-rule:nonzero;fill:rgb(100%,100%,99.607843%);fill-opacity:1;" d="M 143.453125 127.117188 C 138.621094 120.898438 131.070312 115.667969 131.070312 115.667969 C 145.003906 108.996094 145.691406 99.355469 145.691406 99.355469 C 145.691406 99.355469 148.351562 100.851562 149.050781 107.3125 C 149.75 113.773438 146.53125 123.183594 143.453125 127.117188 "/>
<path style=" stroke:none;fill-rule:nonzero;fill:rgb(100%,100%,99.607843%);fill-opacity:1;" d="M 118.261719 125.992188 C 119.054688 115.316406 125.460938 104.222656 130.53125 102.1875 C 130.53125 102.1875 124.933594 109.769531 131.070312 115.667969 C 131.070312 115.667969 121.972656 119.039062 118.261719 125.992188 "/>
<path style=" stroke:none;fill-rule:nonzero;fill:rgb(54.117647%,54.509804%,54.117647%);fill-opacity:1;" d="M 15.757812 187.097656 C 15.324219 187.644531 15.027344 188.660156 15.101562 189.355469 L 15.128906 189.660156 C 15.203125 190.355469 15.832031 190.984375 16.527344 191.054688 L 98.023438 199.308594 C 98.71875 199.378906 99.820312 199.230469 100.472656 198.980469 L 145.78125 181.550781 C 146.433594 181.300781 146.96875 180.519531 146.96875 179.820312 L 146.96875 178.71875 C 146.96875 178.015625 146.398438 177.402344 145.703125 177.347656 L 130.722656 176.222656 C 130.027344 176.167969 128.957031 175.851562 128.34375 175.515625 L 123.433594 172.8125 C 122.824219 172.476562 121.757812 172.097656 121.070312 171.976562 L 102.4375 168.632812 C 101.75 168.507812 100.742188 168.761719 100.191406 169.195312 L 92.390625 175.339844 C 91.84375 175.773438 90.824219 176.167969 90.128906 176.214844 L 21.847656 180.960938 C 21.152344 181.007812 20.226562 181.496094 19.789062 182.042969 L 15.757812 187.097656 "/>
<path style=" stroke:none;fill-rule:nonzero;fill:rgb(81.176471%,58.431373%,49.411765%);fill-opacity:1;" d="M 145.003906 97.074219 L 144.992188 101.625 C 144.992188 101.625 136.875 110.472656 131.175781 106.691406 L 130.507812 100.921875 L 145.003906 97.074219 "/>
<path style=" stroke:none;fill-rule:nonzero;fill:rgb(92.54902%,59.607843%,58.823529%);fill-opacity:1;" d="M 156.011719 72.519531 C 156.199219 74.203125 153.519531 75.882812 150.03125 76.269531 C 146.539062 76.65625 143.558594 75.605469 143.371094 73.921875 C 143.1875 72.238281 145.867188 70.558594 149.359375 70.171875 C 152.847656 69.78125 155.828125 70.832031 156.011719 72.519531 "/>
<path style=" stroke:none;fill-rule:nonzero;fill:rgb(92.54902%,59.607843%,58.823529%);fill-opacity:1;" d="M 100.539062 72.570312 C 99.320312 72.457031 98.203125 72.652344 97.359375 73.058594 C 97.410156 74.261719 98.0625 75.273438 98.132812 76.554688 C 98.132812 76.554688 97.960938 77.050781 97.925781 77.398438 C 98.671875 77.839844 99.167969 78.078125 100.21875 78.175781 C 102.726562 78.410156 104.835938 77.347656 104.925781 75.804688 C 105.011719 74.253906 103.050781 72.808594 100.539062 72.570312 "/>
<path style=" stroke:none;fill-rule:nonzero;fill:rgb(54.117647%,54.509804%,54.117647%);fill-opacity:1;" d="M 1.695312 121.441406 C 1 121.394531 0.550781 121.917969 0.699219 122.601562 L 14.695312 186.847656 C 14.84375 187.53125 15.535156 188.152344 16.230469 188.226562 L 97.578125 196.945312 C 98.273438 197.019531 98.734375 196.515625 98.601562 195.828125 L 85.9375 130.066406 C 85.804688 129.375 85.128906 128.773438 84.433594 128.726562 L 1.695312 121.441406 "/>
<path style=" stroke:none;fill-rule:nonzero;fill:rgb(81.568627%,81.960784%,81.176471%);fill-opacity:1;" d="M 85.9375 130.066406 C 85.804688 129.375 85.128906 128.773438 84.433594 128.726562 L 1.695312 121.441406 C 1 121.394531 0.550781 121.917969 0.699219 122.601562 L 1.285156 125.28125 L 81.914062 132.378906 C 82.609375 132.425781 83.285156 133.027344 83.417969 133.71875 L 95.554688 196.726562 L 97.578125 196.945312 C 98.273438 197.019531 98.734375 196.515625 98.601562 195.828125 L 85.9375 130.066406 "/>
<path style=" stroke:none;fill-rule:nonzero;fill:rgb(100%,100%,99.607843%);fill-opacity:1;" d="M 127.21875 162.929688 C 128.222656 162.175781 134.363281 159.980469 134.363281 159.980469 C 135.492188 156.046875 149.148438 151.835938 149.148438 151.835938 C 147.875 148.96875 152.730469 148.640625 152.730469 148.640625 C 152.730469 148.640625 159.34375 123.765625 160.527344 118.828125 C 162.347656 111.246094 166.964844 108.316406 166.964844 108.316406 L 167.792969 108.558594 C 170.816406 109.480469 176.832031 111.800781 177.878906 118.128906 C 179.140625 125.710938 175.082031 144.109375 172.703125 149.445312 C 170.324219 154.785156 168.644531 164.335938 165.144531 166.582031 C 161.644531 168.828125 145.472656 174.726562 145.472656 174.726562 C 145.472656 174.726562 139.710938 176.695312 138.082031 176.554688 L 129.644531 175.726562 L 127.21875 165.738281 C 127.21875 165.738281 126.203125 163.695312 127.21875 162.929688 "/>
<path style=" stroke:none;fill-rule:nonzero;fill:rgb(97.254902%,82.352941%,70.980392%);fill-opacity:1;" d="M 131.808594 164.558594 C 131.808594 164.558594 127.78125 165.925781 126.007812 165.738281 C 124.234375 165.554688 108.65625 159.558594 105.480469 160.027344 C 102.308594 160.496094 99.976562 161.339844 94.007812 171.917969 L 94.933594 176.5625 L 100.070312 172.386719 C 100.070312 172.386719 97.550781 177.722656 97.832031 178.660156 C 98.109375 179.597656 101.285156 178.660156 101.285156 178.660156 C 101.285156 178.660156 100.816406 181.09375 106.042969 178.378906 C 106.042969 178.378906 106.507812 179.316406 108.652344 178.566406 C 110.800781 177.816406 113.066406 175.757812 114.59375 175.195312 C 116.117188 174.632812 118.007812 174.261719 119.066406 174.824219 C 120.128906 175.382812 123.921875 176.894531 126.972656 176.5625 C 130.019531 176.226562 139.863281 173.578125 139.863281 173.578125 L 139.628906 172.9375 C 137.652344 167.78125 134.773438 165.632812 132.441406 164.765625 L 131.808594 164.558594 "/>
<path style=" stroke:none;fill-rule:nonzero;fill:rgb(81.176471%,58.431373%,49.411765%);fill-opacity:1;" d="M 173.203125 69.15625 C 172.070312 71.773438 169.746094 73.417969 168.011719 72.828125 C 166.273438 72.238281 165.78125 69.640625 166.914062 67.023438 C 168.046875 64.40625 170.375 62.761719 172.105469 63.351562 C 173.84375 63.9375 174.335938 66.539062 173.203125 69.15625 "/>
<path style=" stroke:none;fill-rule:nonzero;fill:rgb(82.352941%,87.843137%,92.156863%);fill-opacity:1;" d="M 130.179688 53.804688 C 130.179688 53.804688 134.824219 49.480469 143.863281 54.074219 C 143.863281 54.074219 141.1875 49.027344 136.222656 49.347656 C 132.046875 49.613281 130.359375 53.269531 130.179688 53.804688 "/>
<path style=" stroke:none;fill-rule:nonzero;fill:rgb(82.352941%,87.843137%,92.156863%);fill-opacity:1;" d="M 100.601562 54.929688 C 100.601562 54.929688 104.445312 51.253906 111.816406 55.144531 C 111.816406 55.144531 109.621094 51.066406 105.550781 51.324219 C 102.128906 51.542969 100.746094 54.496094 100.601562 54.929688 "/>
<path style=" stroke:none;fill-rule:nonzero;fill:rgb(56.470588%,50.588235%,43.529412%);fill-opacity:1;" d="M 165.84375 166.160156 L 149.890625 173.464844 L 167.523438 174.445312 L 165.84375 166.160156 "/>
<path style=" stroke:none;fill-rule:nonzero;fill:rgb(81.176471%,76.078431%,70.980392%);fill-opacity:1;" d="M 110.964844 113.390625 C 110.964844 113.390625 114.066406 109.417969 115.324219 108.785156 C 116.582031 108.15625 127.289062 104.222656 127.289062 104.222656 L 124.257812 108.964844 L 110.964844 113.390625 "/>
<path style=" stroke:none;fill-rule:nonzero;fill:rgb(81.176471%,58.431373%,49.411765%);fill-opacity:1;" d="M 130.019531 165.316406 L 132.816406 164.335938 C 132.816406 164.335938 138.695312 170.234375 138.835938 171.917969 C 138.976562 173.605469 135.335938 174.308594 135.335938 174.308594 C 135.335938 174.308594 136.734375 168.40625 130.019531 165.316406 "/>
<path style=" stroke:none;fill-rule:nonzero;fill:rgb(38.823529%,39.215686%,38.823529%);fill-opacity:1;" d="M 95.03125 175.851562 L 99.230469 173.042969 L 97.832031 178.660156 L 95.871094 178.941406 L 95.03125 175.851562 "/>
<path style=" stroke:none;fill-rule:nonzero;fill:rgb(38.823529%,39.215686%,38.823529%);fill-opacity:1;" d="M 108.046875 179.222656 C 108.046875 179.222656 115.742188 174.308594 117.5625 174.726562 C 119.382812 175.148438 126.300781 176.285156 126.972656 176.5625 C 127.640625 176.835938 129.457031 176.128906 129.457031 176.128906 C 129.457031 176.128906 112.804688 180.90625 108.046875 179.222656 "/>
<path style="fill:none;stroke-width:5.4;stroke-linecap:round;stroke-linejoin:round;stroke:rgb(10.196078%,9.803922%,9.803922%);stroke-opacity:1;stroke-miterlimit:4;" d="M 660.880158 322.809258 C 596.145555 407.915508 507.529961 419.648906 450.488774 389.063848 C 393.070768 358.291055 395.347391 307.680996 395.347391 307.680996 C 365.343067 195.290684 387.920889 159.464707 414.266914 126.376523 C 422.148741 116.457891 431.789062 108.573047 441.586393 102.346523 C 457.350046 114.032988 470.099135 131.288906 558.243704 146.198145 C 635.460482 159.261328 654.348604 201.313828 655.793083 270.415723 C 655.793083 270.415723 661.131371 244.539668 675.387743 235.982109 C 692.53307 225.672363 716.194251 233.087871 713.258192 263.876309 C 710.353535 294.430078 689.612712 324.624023 655.055143 322.433789 M 696.897907 246.776836 C 696.897907 246.776836 673.990367 243.241172 666.705173 289.70543 M 404.626593 176.439023 C 409.525258 165.769453 430.580097 157.556074 442.82676 171.354551 M 519.148589 166.739414 C 524.785194 156.961582 558.432115 148.372734 573.850349 171.354551 " transform="matrix(0.248792,0,0,0.249688,0,0)"/>
<path style="fill:none;stroke-width:6.3;stroke-linecap:round;stroke-linejoin:round;stroke:rgb(10.196078%,9.803922%,9.803922%);stroke-opacity:1;stroke-miterlimit:4;" d="M 402.302867 246.886348 C 398.518962 190.612969 440.503034 199.311328 448.997194 222.418301 M 520.907084 222.324434 C 522.665579 211.92082 529.008723 204.098555 536.969053 200.750625 C 555.778671 192.850137 585.076456 202.033477 585.343371 246.448301 " transform="matrix(0.248792,0,0,0.249688,0,0)"/>
<path style="fill:none;stroke-width:5.4;stroke-linecap:round;stroke-linejoin:round;stroke:rgb(10.196078%,9.803922%,9.803922%);stroke-opacity:1;stroke-miterlimit:4;" d="M 402.067354 236.701758 L 394.625152 232.696758 M 584.935149 238.234922 L 596.742188 235.544062 M 472.328656 309.683496 L 475.484527 317.458828 M 386.09959 272.293066 C 386.09959 272.293066 344.099818 218.256855 345.6071 165.03416 C 346.878868 119.774531 373.350501 66.786504 435.604369 48.779648 C 453.597542 30.0375 500.778595 9.418008 548.100956 6.789727 C 642.306053 1.548809 684.164518 34.52748 718.533677 90.738281 C 752.918538 146.933437 736.542552 202.205566 734.909663 218.209922 C 733.276775 234.229922 744.141763 294.680391 742.351866 316.535801 C 738.410953 364.533223 717.717233 378.675879 695.579035 387.13957 C 695.579035 387.13957 698.467992 376.344844 694.542779 363.97002 C 694.542779 363.97002 657.127655 394.633301 585.468978 387.123926 M 576.597998 509.104336 C 557.176047 484.198242 526.826305 463.250215 526.826305 463.250215 C 582.831235 436.529355 585.594584 397.918652 585.594584 397.918652 C 585.594584 397.918652 596.286863 403.910508 599.097315 429.786563 C 601.907767 455.662617 588.970267 493.350293 576.597998 509.104336 Z M 582.831235 388.782246 L 584.715337 402.111387 M 475.343219 504.598711 C 478.530492 461.842207 504.279885 417.411738 524.659587 409.260938 C 524.659587 409.260938 502.16027 439.626973 526.826305 463.250215 C 526.826305 463.250215 490.259026 476.751445 475.343219 504.598711 Z M 524.282767 405.224648 C 524.282767 405.224648 527.470039 422.652656 526.355279 432.414844 M 518.316444 412.827891 C 518.316444 412.827891 453.597542 439.533105 449.845039 441.410449 C 449.845039 441.410449 425.634329 441.566895 412.508419 467.020547 C 408.755916 474.310898 398.754475 504.567422 394.075622 540.455977 C 390.056204 571.244414 375.140397 607.398926 375.140397 607.398926 C 375.140397 607.398926 369.315382 605.850117 364.793538 619.304414 M 591.937728 405.224648 C 591.937728 405.224648 661.539593 430.912969 668.856189 433.165781 C 676.157084 435.418594 709.913911 442.72459 714.969584 473.090625 C 720.040959 503.472305 703.727776 577.158047 694.165959 598.528477 C 684.604141 619.914551 677.852776 658.16543 663.784815 667.161035 C 649.716854 676.156641 584.715337 699.779883 584.715337 699.779883 C 584.715337 699.779883 561.556584 707.664727 555.009329 707.101523 M 671.101411 433.807207 C 671.101411 433.807207 652.543007 445.540605 645.226411 475.906641 C 640.469053 495.681328 613.887515 595.305703 613.887515 595.305703 C 613.887515 595.305703 594.371359 596.619844 599.489836 608.10293 C 599.489836 608.10293 544.599666 624.967734 540.062121 640.721777 C 540.062121 640.721777 513.606189 648.043418 511.345267 652.533398 C 509.100046 657.039023 511.156857 662.843145 511.156857 662.843145 M 519.227093 657.226758 C 519.227093 657.226758 548.36787 651.970195 563.15807 698.105918 M 460.600121 436.795312 C 460.600121 436.795312 446.689169 447.230215 439.655188 468.600645 C 432.605507 489.971074 422.68257 535.653105 425.414518 561.591738 C 427.12591 577.971563 445.354596 643.162324 445.354596 643.162324 M 518.316444 467.020547 C 518.316444 467.020547 485.171951 511.607461 469.800819 519.241992 C 469.785118 527.564883 486.208207 557.664961 493.901623 546.041074 C 501.595039 534.417187 526.104066 472.887246 526.104066 472.887246 C 526.104066 472.887246 520.922785 538.046719 528.914518 547.042324 C 535.037849 553.957207 561.603686 543.19377 568.182342 533.18127 C 552.936817 514.830234 541.726411 493.944785 539.873711 473.121914 M 533.467764 549.780117 C 533.467764 549.780117 524.15716 569.382715 522.979596 573.419004 C 519.965033 583.541016 513.43348 650.593477 513.43348 650.593477 M 567.22459 496.917246 C 567.22459 496.917246 563.173771 504.786445 556.343902 515.283926 M 477.855355 538.484766 C 475.955552 556.569844 477.965261 564.032285 480.603004 577.908984 L 501.076911 660.981445 M 485.234754 490.894102 C 485.234754 490.878457 483.617567 498.653789 481.764867 509.902207 M 529.793765 659.057168 C 529.793765 659.057168 513.606189 664.532754 506.478004 663.781816 C 499.349818 663.046523 436.73483 639.032168 423.970039 640.909512 C 411.22095 642.786855 401.847542 646.166074 377.856644 688.531465 M 384.231189 703.910039 L 402.224363 690.408809 C 402.224363 690.408809 392.097315 711.779238 393.227776 715.533926 C 394.342536 719.288613 407.107327 715.533926 407.107327 715.533926 C 407.107327 715.533926 405.223225 725.280469 426.230962 714.40752 C 426.230962 714.40752 428.099363 718.162207 436.719129 715.158457 C 445.354596 712.154707 454.47679 703.910039 460.600121 701.657227 C 466.723453 699.404414 474.322664 697.918184 478.577594 700.170996 C 482.848225 702.408164 498.09375 708.462598 510.356113 707.132812 C 522.602776 705.787383 562.168917 695.180391 562.168917 695.180391 M 549.168613 642.833789 C 549.168613 642.833789 585.594584 649.15418 584.103004 681.037734 M 426.607782 712.905645 C 426.607782 712.905645 448.730279 682.946367 458.103686 677.861895 C 467.477093 672.793066 475.437424 682.539609 478.577594 688.531465 M 443.847315 659.291836 C 440.094812 660.793711 412.351411 702.408164 407.107327 715.533926 M 402.224363 690.408809 C 402.224363 690.408809 416.622042 652.908867 422.855279 648.778711 M 6.814169 486.482344 C 4.019417 486.232031 2.21382 488.281465 2.810452 491.019258 L 59.066596 748.324863 C 59.663228 751.062656 62.442279 753.550137 65.221329 753.847383 L 392.207221 788.765977 C 395.001972 789.063223 396.854672 787.045078 396.320843 784.291641 L 345.418689 520.915957 C 344.88486 518.146875 342.168613 515.706328 339.373862 515.456016 Z M 520.341854 705.380625 L 585.641687 710.277363 C 588.436438 710.496387 590.728762 712.952578 590.728762 715.768594 L 590.728762 720.180352 C 590.728762 722.980723 588.577746 726.109629 585.955704 727.110879 L 403.84155 796.916777 C 401.219508 797.918027 396.791869 798.51252 393.997118 798.230918 L 66.430294 765.174023 C 63.635543 764.892422 61.107706 762.373652 60.80939 759.588926 L 60.149954 753.299824 M 409.352549 780.036328 L 578.843219 719.288613 M 599.489836 694.679766 L 821.091626 712.905645 M 715.770328 481.069336 C 731.957904 485.152559 755.289366 493.631895 767.787242 510.199453 C 782.624545 529.880273 768.132661 558.603633 759.371587 574.498477 C 734.250228 620.070996 726.227093 661.732383 729.665579 705.380625 M 667.647224 663.781816 C 667.647224 663.781816 672.106265 693.897539 674.288683 700.828066 M 613.887515 595.305703 C 613.887515 595.305703 629.368553 593.052891 637.250379 595.305703 " transform="matrix(0.248792,0,0,0.249688,0,0)"/>
<path style="fill:none;stroke-width:5.4;stroke-linecap:round;stroke-linejoin:round;stroke:rgb(10.196078%,9.803922%,9.803922%);stroke-opacity:1;stroke-miterlimit:4;" d="M 599.489836 608.10293 C 599.489836 608.10293 624.407084 607.258125 629.761074 615.972129 M 375.140397 607.398926 C 375.140397 607.398926 381.342233 605.318203 394.185528 608.228086 M 463.944402 349.623984 C 480.603004 369.336094 520.027837 366.911191 531.379551 344.633379 " transform="matrix(0.248792,0,0,0.249688,0,0)"/>
<path style=" stroke:none;fill-rule:nonzero;fill:rgb(10.196078%,9.803922%,9.803922%);fill-opacity:1;" d="M 141.074219 62.785156 C 141.519531 66.863281 139.496094 70.410156 136.550781 70.714844 C 133.609375 71.019531 130.863281 67.960938 130.417969 63.882812 C 129.976562 59.808594 132 56.257812 134.945312 55.953125 C 137.886719 55.652344 140.628906 58.707031 141.074219 62.785156 "/>
<path style=" stroke:none;fill-rule:nonzero;fill:rgb(10.196078%,9.803922%,9.803922%);fill-opacity:1;" d="M 112.386719 64.242188 C 112.75 67.90625 111.085938 71.09375 108.671875 71.371094 C 106.257812 71.644531 104.011719 68.898438 103.652344 65.234375 C 103.289062 61.574219 104.953125 58.378906 107.367188 58.105469 C 109.773438 57.832031 112.023438 60.578125 112.386719 64.242188 "/>
<path style=" stroke:none;fill-rule:nonzero;fill:rgb(100%,100%,99.607843%);fill-opacity:1;" d="M 111.492188 60.773438 C 111.800781 61.605469 111.546875 62.464844 110.929688 62.695312 C 110.3125 62.921875 109.5625 62.433594 109.257812 61.605469 C 108.949219 60.773438 109.203125 59.914062 109.820312 59.683594 C 110.4375 59.453125 111.1875 59.941406 111.492188 60.773438 "/>
<path style=" stroke:none;fill-rule:nonzero;fill:rgb(100%,100%,99.607843%);fill-opacity:1;" d="M 140.21875 59.265625 C 140.4375 60.207031 140.050781 61.101562 139.355469 61.269531 C 138.65625 61.433594 137.914062 60.808594 137.691406 59.867188 C 137.472656 58.925781 137.859375 58.027344 138.554688 57.863281 C 139.25 57.695312 139.996094 58.324219 140.21875 59.265625 "/>
<path style="fill:none;stroke-width:5.4;stroke-linecap:round;stroke-linejoin:round;stroke:rgb(10.196078%,9.803922%,9.803922%);stroke-opacity:1;stroke-miterlimit:4;" d="M 398.942885 328.816758 C 398.942885 328.816758 400.073346 360.043242 387.591171 372.042598 C 387.591171 372.042598 422.635467 400.108887 450.488774 389.063848 " transform="matrix(0.248792,0,0,0.249688,0,0)"/>
</g>
</svg>
