<?xml version="1.0" encoding="UTF-8"?>
<svg xmlns="http://www.w3.org/2000/svg" xmlns:xlink="http://www.w3.org/1999/xlink" width="166pt" height="200pt" viewBox="0 0 166 200" version="1.1">
<defs>
<clipPath id="clip1">
  <path d="M 4 171 L 163 171 L 163 199.933594 L 4 199.933594 Z M 4 171 "/>
</clipPath>
<clipPath id="clip2">
  <path d="M 0 170 L 165.332031 170 L 165.332031 172 L 0 172 Z M 0 170 "/>
</clipPath>
</defs>
<g id="surface1">
<g clip-path="url(#clip1)" clip-rule="nonzero">
<path style=" stroke:none;fill-rule:nonzero;fill:rgb(89.411765%,89.411765%,89.019608%);fill-opacity:1;" d="M 4.222656 171.15625 C 20.582031 188.460938 49.921875 200 83.410156 200 C 116.894531 200 146.234375 188.460938 162.59375 171.15625 L 4.222656 171.15625 "/>
</g>
<g clip-path="url(#clip2)" clip-rule="nonzero">
<path style="fill:none;stroke-width:5.6;stroke-linecap:round;stroke-linejoin:round;stroke:rgb(10.196078%,9.803922%,9.803922%);stroke-opacity:1;stroke-miterlimit:4;" d="M 2.80497 614.798437 L 135.129424 614.798437 M 494.123494 614.798437 L 590.796781 614.798437 " transform="matrix(0.278523,0,0,0.277778,0,0)"/>
</g>
<path style=" stroke:none;fill-rule:nonzero;fill:rgb(38.823529%,39.215686%,38.823529%);fill-opacity:1;" d="M 129.78125 176.054688 C 138.832031 175.640625 139.25 166.703125 136.324219 159.527344 L 129.222656 141.980469 C 129.222656 141.980469 119.902344 125.042969 119.054688 123.09375 C 116.828125 117.953125 110.445312 115.863281 107.128906 115.226562 C 103.8125 114.589844 91.0625 110.070312 91.0625 110.070312 L 78.582031 111.160156 C 78.582031 111.160156 65.832031 114.589844 62.515625 115.226562 C 59.199219 115.863281 52.816406 117.953125 50.585938 123.09375 C 49.742188 125.042969 40.421875 141.980469 40.421875 141.980469 L 33.320312 159.527344 C 30.394531 166.703125 30.8125 175.640625 39.863281 176.054688 "/>
<path style=" stroke:none;fill-rule:nonzero;fill:rgb(79.607843%,80%,79.607843%);fill-opacity:1;" d="M 74.121094 112.398438 C 74.121094 112.398438 65.832031 114.589844 62.515625 115.226562 C 59.199219 115.863281 52.816406 117.953125 50.585938 123.09375 C 49.742188 125.042969 40.421875 141.980469 40.421875 141.980469 L 40.980469 144.761719 C 40.980469 144.761719 50.300781 127.820312 51.144531 125.871094 C 53.371094 120.730469 59.757812 118.640625 63.074219 118.003906 C 64.730469 117.6875 68.746094 116.667969 72.347656 115.730469 L 74.121094 112.398438 "/>
<path style=" stroke:none;fill-rule:nonzero;fill:rgb(79.607843%,80%,79.607843%);fill-opacity:1;" d="M 95.707031 113.789062 C 95.707031 113.789062 104.371094 117.367188 107.683594 118.003906 C 111 118.640625 117.386719 120.730469 119.613281 125.871094 L 119.054688 123.09375 C 116.828125 117.953125 110.445312 115.863281 107.128906 115.226562 C 103.8125 114.589844 94.316406 111.289062 94.316406 111.289062 L 95.707031 113.789062 "/>
<path style=" stroke:none;fill-rule:nonzero;fill:rgb(97.254902%,83.137255%,70.196078%);fill-opacity:1;" d="M 90.234375 111.027344 L 89.992188 107.59375 L 90.234375 104.617188 L 78.824219 105.292969 L 78.824219 107.59375 L 78.582031 111.027344 L 79.648438 124.070312 L 87.296875 124.070312 L 90.234375 111.027344 "/>
<path style=" stroke:none;fill-rule:nonzero;fill:rgb(81.176471%,58.431373%,49.411765%);fill-opacity:1;" d="M 78.824219 106.125 L 89.992188 106.125 L 90.085938 110.453125 C 90.085938 110.453125 87.960938 113.5625 79.882812 114.695312 L 78.464844 111.445312 L 78.824219 106.125 "/>
<path style=" stroke:none;fill-rule:nonzero;fill:rgb(100%,100%,99.607843%);fill-opacity:1;" d="M 84.578125 158.722656 L 91.253906 122.648438 L 91.253906 109.367188 L 84.480469 122.464844 L 77.765625 111.441406 L 77.765625 122.648438 L 84.238281 158.722656 "/>
<path style=" stroke:none;fill-rule:nonzero;fill:rgb(100%,100%,99.607843%);fill-opacity:1;" d="M 77.835938 110.5625 L 76.925781 111.027344 L 74.375 124.398438 L 82.789062 120.058594 L 77.835938 110.5625 "/>
<path style=" stroke:none;fill-rule:nonzero;fill:rgb(100%,100%,99.607843%);fill-opacity:1;" d="M 86.03125 120.058594 L 94.441406 124.398438 L 91.886719 109.5625 L 91.253906 109.367188 L 86.03125 120.058594 "/>
<path style=" stroke:none;fill-rule:nonzero;fill:rgb(49.019608%,30.196078%,24.705882%);fill-opacity:1;" d="M 95.269531 107.730469 C 113.691406 109.863281 117.058594 99.972656 117.058594 99.972656 L 119.425781 109.410156 C 125.792969 104.144531 127.292969 81.367188 127.292969 81.367188 L 129.796875 60.984375 C 133.023438 14.839844 108.78125 12.550781 108.78125 12.550781 C 103.660156 1.117188 66.265625 -7.046875 47.460938 20.265625 C 35.578125 37.527344 37.753906 61.652344 37.753906 61.652344 L 43.765625 82.457031 C 43.765625 82.457031 48.375 99.429688 44.046875 107.414062 C 44.046875 107.414062 52.097656 105.78125 53.007812 103.238281 C 53.007812 103.238281 55.550781 108.503906 71.929688 107.414062 "/>
<path style=" stroke:none;fill-rule:nonzero;fill:rgb(87.843137%,71.764706%,62.352941%);fill-opacity:1;" d="M 108.78125 12.550781 C 103.660156 1.117188 66.265625 -7.046875 47.460938 20.265625 C 35.578125 37.527344 37.753906 61.652344 37.753906 61.652344 L 41.496094 60.734375 C 41.496094 60.734375 39.421875 28.367188 58.464844 14.367188 C 80.265625 -1.660156 100.4375 8.585938 108.324219 12.371094 C 108.507812 12.371094 108.78125 12.550781 108.78125 12.550781 "/>
<path style=" stroke:none;fill-rule:nonzero;fill:rgb(97.254902%,82.352941%,70.980392%);fill-opacity:1;" d="M 47.257812 63.523438 C 47.257812 63.523438 45.054688 59.257812 40.902344 60.550781 C 32.25 63.246094 35.023438 81.953125 49.324219 83.566406 "/>
<path style=" stroke:none;fill-rule:nonzero;fill:rgb(97.254902%,82.352941%,70.980392%);fill-opacity:1;" d="M 121.027344 63.59375 C 121.027344 63.59375 123.230469 59.328125 127.378906 60.621094 C 136.03125 63.316406 133.734375 82.023438 119.210938 83.636719 "/>
<path style=" stroke:none;fill-rule:nonzero;fill:rgb(97.254902%,82.352941%,70.980392%);fill-opacity:1;" d="M 120.578125 59.101562 C 119.542969 61.546875 118.492188 63.035156 118.492188 63.035156 C 115.058594 36.722656 86.671875 25.074219 86.671875 25.074219 C 101.625 38.1875 101.75 45.511719 101.75 45.511719 C 76.503906 46.875 63.875 28.9375 63.875 28.9375 C 63.875 28.9375 63.742188 32.054688 62.09375 36.816406 C 60.152344 42.433594 56.089844 50.339844 47.660156 58.117188 C 47.648438 58.234375 47.640625 58.304688 47.640625 58.304688 C 47.210938 65.398438 47.324219 77.730469 50.640625 87.628906 C 56.511719 105.148438 75.234375 109.117188 84.125 109.117188 C 93.011719 109.117188 111.738281 105.148438 117.605469 87.628906 C 120.742188 78.265625 122.113281 66.585938 120.671875 59.496094 C 120.644531 59.363281 120.605469 59.230469 120.578125 59.101562 "/>
<path style=" stroke:none;fill-rule:nonzero;fill:rgb(100%,100%,99.607843%);fill-opacity:1;" d="M 74.425781 69.574219 C 74.425781 74.984375 71.058594 79.367188 66.902344 79.367188 C 62.746094 79.367188 59.375 74.984375 59.375 69.574219 C 59.375 64.167969 62.746094 59.785156 66.902344 59.785156 C 71.058594 59.785156 74.425781 64.167969 74.425781 69.574219 "/>
<path style=" stroke:none;fill-rule:nonzero;fill:rgb(100%,100%,99.607843%);fill-opacity:1;" d="M 109.277344 69.574219 C 109.277344 74.984375 105.90625 79.367188 101.75 79.367188 C 97.597656 79.367188 94.222656 74.984375 94.222656 69.574219 C 94.222656 64.167969 97.597656 59.785156 101.75 59.785156 C 105.90625 59.785156 109.277344 64.167969 109.277344 69.574219 "/>
<path style=" stroke:none;fill-rule:nonzero;fill:rgb(92.54902%,59.607843%,58.823529%);fill-opacity:1;" d="M 62.71875 81.300781 C 62.71875 82.992188 59.859375 84.367188 56.328125 84.367188 C 52.796875 84.367188 49.933594 82.992188 49.933594 81.300781 C 49.933594 79.609375 52.796875 78.234375 56.328125 78.234375 C 59.859375 78.234375 62.71875 79.609375 62.71875 81.300781 "/>
<path style=" stroke:none;fill-rule:nonzero;fill:rgb(92.54902%,59.607843%,58.823529%);fill-opacity:1;" d="M 118.375 81.300781 C 118.375 82.992188 115.511719 84.367188 111.980469 84.367188 C 108.449219 84.367188 105.585938 82.992188 105.585938 81.300781 C 105.585938 79.609375 108.449219 78.234375 111.980469 78.234375 C 115.511719 78.234375 118.375 79.609375 118.375 81.300781 "/>
<path style=" stroke:none;fill-rule:nonzero;fill:rgb(81.176471%,58.431373%,49.411765%);fill-opacity:1;" d="M 48.277344 77.664062 L 47.636719 70.78125 C 47.636719 70.78125 45.84375 66.511719 43.089844 65.851562 C 39.542969 65.003906 39.46875 70.707031 41.90625 73.925781 C 45.636719 78.855469 48.277344 77.664062 48.277344 77.664062 "/>
<path style=" stroke:none;fill-rule:nonzero;fill:rgb(81.176471%,58.431373%,49.411765%);fill-opacity:1;" d="M 120.515625 77.664062 L 121.15625 70.78125 C 121.15625 70.78125 122.945312 66.511719 125.703125 65.851562 C 129.25 65.003906 129.324219 70.707031 126.886719 73.925781 C 123.15625 78.855469 120.515625 77.664062 120.515625 77.664062 "/>
<path style=" stroke:none;fill-rule:nonzero;fill:rgb(65.882353%,74.901961%,85.098039%);fill-opacity:1;" d="M 77.972656 122.890625 L 83 120.132812 L 84.480469 122.464844 L 86.117188 120.132812 L 90.863281 122.609375 L 90.582031 126.5625 C 90.582031 126.5625 89.546875 123.738281 84.835938 123.738281 C 80.128906 123.738281 78.253906 126.632812 78.253906 126.632812 L 77.972656 122.890625 "/>
<path style=" stroke:none;fill-rule:nonzero;fill:rgb(82.352941%,87.843137%,92.156863%);fill-opacity:1;" d="M 67.5625 62.183594 C 69.308594 62.183594 70.96875 62.5 72.5 63.050781 C 71.125 61.050781 69.128906 59.785156 66.902344 59.785156 C 64.382812 59.785156 62.164062 61.398438 60.796875 63.863281 C 62.792969 62.800781 65.101562 62.183594 67.5625 62.183594 "/>
<path style=" stroke:none;fill-rule:nonzero;fill:rgb(82.352941%,87.843137%,92.156863%);fill-opacity:1;" d="M 101.136719 62.183594 C 99.394531 62.183594 97.730469 62.5 96.199219 63.050781 C 97.578125 61.050781 99.570312 59.785156 101.800781 59.785156 C 104.316406 59.785156 106.535156 61.398438 107.902344 63.863281 C 105.90625 62.800781 103.601562 62.183594 101.136719 62.183594 "/>
<path style=" stroke:none;fill-rule:nonzero;fill:rgb(87.843137%,71.764706%,62.352941%);fill-opacity:1;" d="M 51.71875 18.359375 C 63.636719 22.347656 71.550781 22.394531 75.988281 21.785156 C 78.96875 21.378906 77.398438 20.3125 76.039062 20.078125 C 62.074219 17.636719 57.910156 12.289062 57.910156 12.289062 L 51.71875 18.359375 "/>
<path style=" stroke:none;fill-rule:nonzero;fill:rgb(79.607843%,80%,79.607843%);fill-opacity:1;" d="M 33.875 158.511719 L 37.636719 156.566406 L 37.636719 158.371094 C 37.636719 158.371094 32.761719 160.453125 32.066406 162.675781 C 31.371094 164.898438 32.484375 159.761719 33.875 158.511719 "/>
<path style=" stroke:none;fill-rule:nonzero;fill:rgb(79.607843%,80%,79.607843%);fill-opacity:1;" d="M 135.320312 158.511719 L 129.851562 155.726562 L 129.851562 157.53125 C 129.851562 157.53125 136.433594 160.453125 137.128906 162.675781 C 137.824219 164.898438 136.710938 159.761719 135.320312 158.511719 "/>
<path style="fill:none;stroke-width:5.6;stroke-linecap:round;stroke-linejoin:round;stroke:rgb(10.196078%,9.803922%,9.803922%);stroke-opacity:1;stroke-miterlimit:4;" d="M 263.162274 180.225 C 252.868035 172.378125 226.894014 168.46875 212.686841 185.610937 " transform="matrix(0.278523,0,0,0.277778,0,0)"/>
<path style="fill:none;stroke-width:6.4;stroke-linecap:round;stroke-linejoin:round;stroke:rgb(10.196078%,9.803922%,9.803922%);stroke-opacity:1;stroke-miterlimit:4;" d="M 264.256212 230.034375 C 252.924134 206.142187 205.421969 206.029687 212.195971 262.420312 " transform="matrix(0.278523,0,0,0.277778,0,0)"/>
<path style="fill:none;stroke-width:5.6;stroke-linecap:round;stroke-linejoin:round;stroke:rgb(10.196078%,9.803922%,9.803922%);stroke-opacity:1;stroke-miterlimit:4;" d="M 169.672628 228.684375 C 169.672628 228.684375 161.762613 213.328125 146.854198 217.982812 C 115.789157 227.685937 125.7468 295.03125 177.091773 300.839062 M 147.415192 236.1375 C 147.415192 236.1375 157.653332 229.148437 170.219597 256.6125 M 171.047063 209.896875 C 169.50433 235.434375 169.91105 279.829687 181.818148 315.464062 C 202.897496 378.534375 270.118599 392.821875 302.039157 392.821875 C 333.945689 392.821875 401.180817 378.534375 422.246141 315.464062 C 433.508095 281.75625 434.489834 240.201562 433.255648 214.185937 M 340.088573 180.225 C 350.382812 172.378125 376.342809 168.46875 390.564006 185.610937 " transform="matrix(0.278523,0,0,0.277778,0,0)"/>
<path style="fill:none;stroke-width:6.4;stroke-linecap:round;stroke-linejoin:round;stroke:rgb(10.196078%,9.803922%,9.803922%);stroke-opacity:1;stroke-miterlimit:4;" d="M 340.144672 232.354687 C 349.415098 206.198437 400.171028 204.271875 393.172628 262.420312 " transform="matrix(0.278523,0,0,0.277778,0,0)"/>
<path style="fill:none;stroke-width:5.6;stroke-linecap:round;stroke-linejoin:round;stroke:rgb(10.196078%,9.803922%,9.803922%);stroke-opacity:1;stroke-miterlimit:4;" d="M 434.531909 228.9375 C 434.531909 228.9375 442.441924 213.58125 457.336314 218.235937 C 488.401355 227.939062 480.154744 295.284375 428.010354 301.092187 M 456.494823 236.390625 C 456.494823 236.390625 446.256683 229.401562 433.676393 256.879687 M 202.897496 245.75625 L 211.550828 251.142187 M 393.831796 251.142187 L 405.416322 245.75625 M 302.039157 307.785937 L 302.039157 299.953125 M 430.086032 142.65 C 454.994164 185.11875 425.429782 226.926562 425.429782 226.926562 C 413.101939 132.201562 311.183358 90.267187 311.183358 90.267187 C 364.870482 137.475 365.319277 163.842187 365.319277 163.842187 C 274.676675 168.75 229.334337 104.175 229.334337 104.175 C 229.334337 104.175 227.006212 159.060937 168.676864 211.5 C 168.676864 211.5 160.261954 174.670312 172.505648 147.234375 M 136.405685 224.929687 C 136.405685 224.929687 127.738328 135.098437 170.40192 72.95625 C 237.917545 -25.36875 372.177428 4.021875 390.564006 45.182812 C 390.564006 45.182812 477.335749 55.715625 465.737199 221.821875 M 157.134413 296.845312 C 157.134413 296.845312 173.683735 357.946875 158.144202 386.690625 C 158.144202 386.690625 187.049416 380.8125 190.317206 371.657812 C 190.317206 371.657812 199.447383 390.614062 258.253577 386.690625 M 457.027767 292.921875 C 457.027767 292.921875 451.642225 374.920312 428.781721 393.876562 L 420.282662 359.901562 C 420.282662 359.901562 408.193242 395.507812 342.052052 387.829687 M 282.137895 400.176562 C 282.137895 400.176562 236.360787 412.523437 224.45369 414.815625 C 212.546593 417.107812 189.629989 424.63125 181.6218 443.1375 C 178.592432 450.154687 145.129142 511.129687 145.129142 511.129687 L 119.631965 574.298437 C 109.127353 600.13125 110.628012 632.30625 143.123588 633.796875 M 326.947289 396.253125 C 326.947289 396.253125 372.724398 412.523437 384.631495 414.815625 C 396.538592 417.107812 419.455196 424.63125 427.44936 443.1375 C 430.492752 450.154687 463.956043 511.129687 463.956043 511.129687 L 489.453219 574.298437 C 499.957831 600.13125 498.457172 632.30625 465.961596 633.796875 M 279.206702 401.189062 L 303.315418 440.873437 L 326.877165 396.632812 M 297.242658 432.210937 L 267.033133 447.834375 L 278.379236 401.639062 M 279.206702 441.534375 L 302.445877 571.401562 M 266.626412 405.140625 L 242.517696 440.873437 L 254.845538 452.3625 L 240.946913 467.732812 L 294.059017 568.195312 M 326.877165 396.632812 L 339.078784 447.834375 L 308.883283 432.210937 M 327.382059 442.63125 L 303.666039 571.401562 M 337.381777 400.89375 L 363.832643 442.378125 L 351.518825 453.853125 L 365.165004 467.732812 L 312.066924 568.195312 M 282.137895 399.698437 L 283.035486 392.273437 M 323.974021 399.698437 L 323.10448 391.429687 " transform="matrix(0.278523,0,0,0.277778,0,0)"/>
<path style=" stroke:none;fill-rule:nonzero;fill:rgb(10.196078%,9.803922%,9.803922%);fill-opacity:1;" d="M 73.253906 73.636719 C 73.253906 77.320312 71.175781 80.308594 68.613281 80.308594 C 66.050781 80.308594 63.972656 77.320312 63.972656 73.636719 C 63.972656 69.953125 66.050781 66.96875 68.613281 66.96875 C 71.175781 66.96875 73.253906 69.953125 73.253906 73.636719 "/>
<path style=" stroke:none;fill-rule:nonzero;fill:rgb(10.196078%,9.803922%,9.803922%);fill-opacity:1;" d="M 95.269531 73.636719 C 95.269531 77.320312 97.347656 80.308594 99.910156 80.308594 C 102.472656 80.308594 104.550781 77.320312 104.550781 73.636719 C 104.550781 69.953125 102.472656 66.96875 99.910156 66.96875 C 97.347656 66.96875 95.269531 69.953125 95.269531 73.636719 "/>
<path style=" stroke:none;fill-rule:nonzero;fill:rgb(100%,100%,99.607843%);fill-opacity:1;" d="M 73.171875 71.402344 C 73.171875 72.160156 72.558594 72.769531 71.800781 72.769531 C 71.042969 72.769531 70.429688 72.160156 70.429688 71.402344 C 70.429688 70.648438 71.042969 70.035156 71.800781 70.035156 C 72.558594 70.035156 73.171875 70.648438 73.171875 71.402344 "/>
<path style=" stroke:none;fill-rule:nonzero;fill:rgb(100%,100%,99.607843%);fill-opacity:1;" d="M 104.191406 71.402344 C 104.191406 72.160156 103.578125 72.769531 102.820312 72.769531 C 102.0625 72.769531 101.449219 72.160156 101.449219 71.402344 C 101.449219 70.648438 102.0625 70.035156 102.820312 70.035156 C 103.578125 70.035156 104.191406 70.648438 104.191406 71.402344 "/>
<path style="fill:none;stroke-width:5.6;stroke-linecap:round;stroke-linejoin:round;stroke:rgb(10.196078%,9.803922%,9.803922%);stroke-opacity:1;stroke-miterlimit:4;" d="M 286.247176 361.74375 C 290.426581 368.901562 309.233904 370.096875 316.695124 362.039062 " transform="matrix(0.278523,0,0,0.277778,0,0)"/>
<path style=" stroke:none;fill-rule:nonzero;fill:rgb(58.039216%,58.431373%,58.039216%);fill-opacity:1;" d="M 129.132812 186 C 129.132812 186.695312 128.5625 187.261719 127.867188 187.261719 L 39.316406 187.261719 C 38.621094 187.261719 38.054688 186.695312 38.054688 186 L 38.054688 182.964844 C 38.054688 182.269531 38.621094 181.703125 39.316406 181.703125 L 127.867188 181.703125 C 128.5625 181.703125 129.132812 182.269531 129.132812 182.964844 L 129.132812 186 "/>
<path style="fill:none;stroke-width:5.6;stroke-linecap:round;stroke-linejoin:round;stroke:rgb(10.196078%,9.803922%,9.803922%);stroke-opacity:1;stroke-miterlimit:4;" d="M 463.633471 669.6 C 463.633471 672.103125 461.585843 674.142187 459.08942 674.142187 L 141.160109 674.142187 C 138.663686 674.142187 136.630083 672.103125 136.630083 669.6 L 136.630083 658.673437 C 136.630083 656.170312 138.663686 654.13125 141.160109 654.13125 L 459.08942 654.13125 C 461.585843 654.13125 463.633471 656.170312 463.633471 658.673437 Z M 463.633471 669.6 " transform="matrix(0.278523,0,0,0.277778,0,0)"/>
<path style=" stroke:none;fill-rule:nonzero;fill:rgb(65.490196%,65.882353%,65.490196%);fill-opacity:1;" d="M 129.320312 180.898438 C 129.214844 182.105469 128.136719 183.09375 126.921875 183.09375 L 40.265625 183.09375 C 39.050781 183.09375 37.96875 182.105469 37.867188 180.898438 L 33.398438 128.625 C 33.296875 127.414062 34.203125 126.425781 35.421875 126.425781 L 131.765625 126.425781 C 132.980469 126.425781 133.890625 127.414062 133.785156 128.625 L 129.320312 180.898438 "/>
<path style="fill:none;stroke-width:8;stroke-linecap:round;stroke-linejoin:round;stroke:rgb(92.54902%,92.54902%,92.156863%);stroke-opacity:1;stroke-miterlimit:4;" d="M 139.617376 654.285937 L 123.769296 468.478125 C 123.40465 464.11875 126.67244 460.575 131.034168 460.575 L 476.943053 460.575 " transform="matrix(0.278523,0,0,0.277778,0,0)"/>
<path style="fill:none;stroke-width:5.6;stroke-linecap:round;stroke-linejoin:round;stroke:rgb(10.196078%,9.803922%,9.803922%);stroke-opacity:1;stroke-miterlimit:4;" d="M 464.306664 651.234375 C 463.927993 655.579687 460.057135 659.1375 455.695407 659.1375 L 144.568148 659.1375 C 140.206419 659.1375 136.321536 655.579687 135.95689 651.234375 L 119.912462 463.05 C 119.547816 458.690625 122.801581 455.132812 127.177334 455.132812 L 473.08622 455.132812 C 477.447948 455.132812 480.715738 458.690625 480.337067 463.05 Z M 464.306664 651.234375 " transform="matrix(0.278523,0,0,0.277778,0,0)"/>
</g>
</svg>
