<?xml version="1.0" encoding="UTF-8"?>
<svg xmlns="http://www.w3.org/2000/svg" xmlns:xlink="http://www.w3.org/1999/xlink" width="237pt" height="200pt" viewBox="0 0 237 200" version="1.1">
<g id="surface1">
<path style=" stroke:none;fill-rule:nonzero;fill:rgb(100%,100%,99.607843%);fill-opacity:1;" d="M 3.566406 178.632812 C 3.566406 178.632812 0.886719 177.960938 0.933594 177.851562 C 1.066406 169.964844 1.464844 161.234375 2.445312 154.820312 C 4.378906 142.125 6.320312 140.484375 10.8125 137.789062 C 18.898438 132.941406 37.757812 126.042969 37.757812 126.042969 C 37.757812 126.042969 41.273438 121.011719 45.457031 119.667969 L 57.175781 119.164062 C 61.859375 120.507812 64.789062 125.792969 64.789062 125.792969 C 64.789062 125.792969 81.113281 130.605469 90.152344 134.796875 C 90.152344 134.796875 95.546875 139.148438 98.570312 144.976562 C 99.652344 147.058594 107.558594 165.667969 107.558594 165.667969 L 86.515625 180.628906 L 83.679688 198.949219 L 9.480469 199.058594 L 3.566406 178.632812 "/>
<path style=" stroke:none;fill-rule:nonzero;fill:rgb(97.254902%,82.352941%,70.980392%);fill-opacity:1;" d="M 43.828125 124.660156 L 44.828125 123.996094 C 46.078125 121.984375 46.5 118.257812 46.636719 116.335938 L 56.039062 116.246094 C 56.167969 118.140625 56.582031 121.953125 57.851562 123.996094 L 59.015625 124.785156 C 59.015625 124.785156 55.277344 134.796875 50.871094 134.796875 C 46.460938 134.796875 42.917969 125.820312 43.828125 124.660156 "/>
<path style=" stroke:none;fill-rule:nonzero;fill:rgb(85.882353%,61.568627%,53.333333%);fill-opacity:1;" d="M 46.148438 118.503906 L 56.742188 118.503906 L 56.742188 121.019531 C 56.742188 121.019531 53.507812 125.925781 45.238281 124.25 L 46.148438 118.503906 "/>
<path style=" stroke:none;fill-rule:nonzero;fill:rgb(84.313725%,88.627451%,92.54902%);fill-opacity:1;" d="M 16.398438 176.953125 C 17.066406 177.042969 19.519531 199.058594 19.519531 199.058594 L 83.570312 198.835938 L 88.367188 169.417969 C 72.632812 184.40625 33.914062 186.6875 16.398438 176.953125 "/>
<path style=" stroke:none;fill-rule:nonzero;fill:rgb(97.254902%,82.352941%,70.980392%);fill-opacity:1;" d="M 3.453125 178.632812 L 17.179688 183.164062 L 18.683594 199.058594 L 4.625 199.058594 L 3.453125 178.632812 "/>
<path style=" stroke:none;fill-rule:nonzero;fill:rgb(85.882353%,61.568627%,53.333333%);fill-opacity:1;" d="M 3.453125 178.632812 L 3.789062 182.210938 L 18.070312 190.710938 L 16.285156 182.882812 L 3.453125 178.632812 "/>
<path style=" stroke:none;fill-rule:nonzero;fill:rgb(97.254902%,82.352941%,70.980392%);fill-opacity:1;" d="M 149.375 158.074219 C 149.375 158.074219 143.613281 161.988281 137.917969 161.179688 C 137.917969 161.179688 114.683594 189.730469 106.316406 195.769531 C 104.46875 197.105469 100.546875 199.714844 96.871094 194.765625 C 94.367188 191.394531 89.589844 178.550781 89.589844 178.550781 L 104.761719 168.074219 C 104.761719 168.074219 105.976562 172.332031 107.09375 174.347656 L 108.339844 173.699219 C 114.761719 167.648438 123.484375 157.898438 127.519531 153.316406 L 128.796875 151.710938 C 128.796875 151.710938 132.964844 143.859375 136.09375 140.046875 C 139.261719 136.1875 142.214844 135.972656 145.484375 134.554688 C 148.511719 133.246094 150.332031 130.800781 151.046875 129.039062 C 151.371094 128.242188 152.328125 128.222656 152.640625 128.5 C 154.835938 130.429688 153.980469 132.632812 152.90625 135.195312 C 152.351562 136.519531 151.214844 137.902344 149.917969 139.082031 C 148.339844 140.519531 149.375 158.074219 149.375 158.074219 "/>
<path style=" stroke:none;fill-rule:nonzero;fill:rgb(81.176471%,58.431373%,49.411765%);fill-opacity:1;" d="M 141.238281 158.125 C 141.238281 158.125 144.027344 159.019531 144.140625 160.472656 L 149.375 158.074219 L 143.132812 155.777344 L 141.238281 158.125 "/>
<path style=" stroke:none;fill-rule:nonzero;fill:rgb(81.176471%,58.431373%,49.411765%);fill-opacity:1;" d="M 89.878906 178.765625 L 92.496094 186.175781 C 92.496094 186.175781 96.867188 177.148438 106.066406 172.097656 L 104.617188 168.148438 C 104.617188 168.148438 92.109375 177.421875 89.878906 178.765625 "/>
<path style=" stroke:none;fill-rule:nonzero;fill:rgb(81.176471%,58.431373%,49.411765%);fill-opacity:1;" d="M 138.417969 149.851562 C 138.417969 149.851562 141.570312 145.535156 141.476562 142.851562 L 145.207031 142.179688 L 145.496094 143.425781 L 138.417969 149.851562 "/>
<path style="fill:none;stroke-width:7;stroke-linecap:round;stroke-linejoin:round;stroke:rgb(10.196078%,9.803922%,9.803922%);stroke-opacity:1;stroke-miterlimit:4;" d="M 169.74461 445.763184 C 154.12233 450.768652 140.994363 469.510059 140.994363 469.510059 C 140.994363 469.510059 70.570115 495.206738 40.375791 513.264258 C 23.601167 523.304297 16.351612 529.415625 9.13123 576.705664 C 5.499159 600.423437 4.011323 632.638867 3.500791 661.842285 L 62.270322 682.286133 " transform="matrix(0.267797,0,0,0.268456,0,0)"/>
<path style="fill:none;stroke-width:6;stroke-linecap:round;stroke-linejoin:round;stroke:rgb(10.196078%,9.803922%,9.803922%);stroke-opacity:1;stroke-miterlimit:4;" d="M 48.90897 578.364453 L 70.993127 741.493262 M 336.426028 585.872656 L 312.255983 741.493262 " transform="matrix(0.267797,0,0,0.268456,0,0)"/>
<path style="fill-rule:nonzero;fill:rgb(100%,100%,99.607843%);fill-opacity:1;stroke-width:6;stroke-linecap:round;stroke-linejoin:round;stroke:rgb(10.196078%,9.803922%,9.803922%);stroke-opacity:1;stroke-miterlimit:4;" d="M 252.246588 585.450684 L 319.126286 585.450684 L 319.126286 636.072852 L 252.246588 636.072852 Z M 252.246588 585.450684 " transform="matrix(0.267797,0,0,0.268456,0,0)"/>
<path style=" stroke:none;fill-rule:nonzero;fill:rgb(70.588235%,70.980392%,70.588235%);fill-opacity:1;" d="M 69.894531 159.515625 L 82.949219 159.515625 L 82.949219 161.699219 L 69.894531 161.699219 Z M 69.894531 159.515625 "/>
<path style="fill:none;stroke-width:5;stroke-linecap:butt;stroke-linejoin:miter;stroke:rgb(10.196078%,9.803922%,9.803922%);stroke-opacity:1;stroke-miterlimit:4;" d="M 200.784958 556.101758 C 200.784958 561.049023 196.773635 565.050488 191.843354 565.050488 C 186.913074 565.050488 182.90175 561.049023 182.90175 556.101758 C 182.90175 551.169043 186.913074 547.167578 191.843354 547.167578 C 196.773635 547.167578 200.784958 551.169043 200.784958 556.101758 Z M 200.784958 556.101758 " transform="matrix(0.267797,0,0,0.268456,0,0)"/>
<path style="fill:none;stroke-width:7;stroke-linecap:round;stroke-linejoin:round;stroke:rgb(10.196078%,9.803922%,9.803922%);stroke-opacity:1;stroke-miterlimit:4;" d="M 12.894581 664.985254 L 17.897795 741.493262 M 513.945312 600.65625 C 501.109078 617.753418 431.808 704.301465 400.563439 726.796973 C 393.649377 731.77334 375.766169 743.021094 363.061214 727.480859 C 353.258999 715.505566 334.281794 665.10166 334.281794 665.10166 M 214.569324 445.763184 C 230.191604 450.768652 243.319571 469.510059 243.319571 469.510059 C 243.319571 469.510059 300.32412 486.272559 314.123072 490.419531 C 326.025761 493.999023 342.887905 503.689844 355.082328 519.302832 C 365.424248 532.558594 402.065862 618.16084 402.065862 618.16084 L 323.86694 672.580762 M 512.472063 565.778027 C 512.472063 565.778027 540.303352 555.970801 542.243374 529.110059 C 551.170392 526.490918 566.398833 514.530176 570.979035 503.602539 C 574.990358 494.057227 578.18483 485.850586 569.987144 478.6625 C 568.820214 477.629395 565.246489 477.702148 564.035799 480.670508 C 561.366446 487.23291 554.569076 496.341699 543.264438 501.216211 C 531.055429 506.498145 520.115457 507.371191 508.19818 521.674609 C 493.144778 539.732129 480.950356 571.525586 480.950356 571.525586 M 557.792722 588.826465 C 557.792722 588.826465 531.361748 611.191016 503.763845 595.06875 " transform="matrix(0.267797,0,0,0.268456,0,0)"/>
<path style=" stroke:none;fill-rule:nonzero;fill:rgb(79.607843%,80%,79.607843%);fill-opacity:1;" d="M 232.824219 59.992188 L 149.574219 146.273438 L 147.007812 143.789062 L 230.257812 57.503906 L 232.824219 59.992188 "/>
<path style="fill:none;stroke-width:6;stroke-linecap:round;stroke-linejoin:round;stroke:rgb(10.196078%,9.803922%,9.803922%);stroke-opacity:1;stroke-miterlimit:4;" d="M 869.406893 223.470898 L 558.53664 544.868555 L 548.953224 535.614258 L 859.823477 214.202051 Z M 869.406893 223.470898 " transform="matrix(0.267797,0,0,0.268456,0,0)"/>
<path style=" stroke:none;fill-rule:nonzero;fill:rgb(54.117647%,54.509804%,54.117647%);fill-opacity:1;" d="M 167.34375 130.28125 L 140.09375 158.519531 L 135.113281 153.695312 L 162.359375 125.453125 L 167.34375 130.28125 "/>
<path style="fill:none;stroke-width:6;stroke-linecap:round;stroke-linejoin:round;stroke:rgb(10.196078%,9.803922%,9.803922%);stroke-opacity:1;stroke-miterlimit:4;" d="M 624.891218 485.297656 L 523.134889 590.485254 L 504.536936 572.515039 L 606.278679 467.312891 Z M 624.891218 485.297656 " transform="matrix(0.267797,0,0,0.268456,0,0)"/>
<path style=" stroke:none;fill-rule:nonzero;fill:rgb(84.705882%,13.72549%,16.470588%);fill-opacity:1;" d="M 234.367188 55.976562 C 236.238281 57.789062 236.285156 60.777344 234.480469 62.648438 C 232.667969 64.523438 229.6875 64.574219 227.820312 62.761719 C 225.949219 60.949219 225.898438 57.960938 227.707031 56.085938 C 229.511719 54.210938 232.496094 54.160156 234.367188 55.976562 "/>
<path style="fill:none;stroke-width:6;stroke-linecap:round;stroke-linejoin:round;stroke:rgb(10.196078%,9.803922%,9.803922%);stroke-opacity:1;stroke-miterlimit:4;" d="M 875.168612 208.512695 C 882.155607 215.264258 882.330647 226.395605 875.591624 233.36543 C 868.823428 240.349805 857.693829 240.538965 850.72142 233.787402 C 843.734424 227.03584 843.544798 215.904492 850.298408 208.920117 C 857.037431 201.935742 868.181616 201.746582 875.168612 208.512695 Z M 875.168612 208.512695 " transform="matrix(0.267797,0,0,0.268456,0,0)"/>
<path style=" stroke:none;fill-rule:nonzero;fill:rgb(97.254902%,82.352941%,70.980392%);fill-opacity:1;" d="M 151.101562 153.714844 C 151.101562 153.714844 152.421875 155.292969 151.9375 156.515625 C 151.449219 157.738281 150.367188 158.753906 148.265625 157.902344 C 146.160156 157.050781 142.324219 154.867188 141.617188 154.132812 C 140.460938 152.933594 141.488281 150.449219 143.203125 150.605469 C 145.550781 150.820312 148.101562 151.757812 151.101562 153.714844 "/>
<path style="fill:none;stroke-width:7;stroke-linecap:round;stroke-linejoin:round;stroke:rgb(10.196078%,9.803922%,9.803922%);stroke-opacity:1;stroke-miterlimit:4;" d="M 564.240012 572.587793 C 564.240012 572.587793 569.170293 578.466309 567.361551 583.020703 C 565.538222 587.575098 561.497725 591.358301 553.650119 588.18623 C 545.787925 585.01416 531.463855 576.880273 528.823675 574.144727 C 524.506032 569.677637 528.342316 560.42334 534.745847 561.005371 C 543.512411 561.805664 553.03748 565.297852 564.240012 572.587793 Z M 564.240012 572.587793 " transform="matrix(0.267797,0,0,0.268456,0,0)"/>
<path style=" stroke:none;fill-rule:nonzero;fill:rgb(97.254902%,82.352941%,70.980392%);fill-opacity:1;" d="M 154.570312 148.292969 C 154.570312 148.292969 156.34375 150.011719 155.917969 151.535156 C 155.484375 153.0625 154.320312 154.414062 151.695312 153.65625 C 149.074219 152.902344 144.210938 150.769531 143.277344 149.984375 C 141.742188 148.695312 142.664062 145.589844 144.734375 145.5625 C 147.570312 145.523438 150.742188 146.328125 154.570312 148.292969 "/>
<path style="fill:none;stroke-width:7;stroke-linecap:round;stroke-linejoin:round;stroke:rgb(10.196078%,9.803922%,9.803922%);stroke-opacity:1;stroke-miterlimit:4;" d="M 577.192939 552.391309 C 577.192939 552.391309 583.815269 558.793652 582.225326 564.468457 C 580.60621 570.157812 576.259395 575.192383 566.45718 572.369531 C 556.669551 569.56123 538.509197 561.616504 535.022992 558.691797 C 529.290447 553.890039 532.732892 542.322168 540.463805 542.220312 C 551.053699 542.074805 562.898042 545.072266 577.192939 552.391309 Z M 577.192939 552.391309 " transform="matrix(0.267797,0,0,0.268456,0,0)"/>
<path style=" stroke:none;fill-rule:nonzero;fill:rgb(97.254902%,82.352941%,70.980392%);fill-opacity:1;" d="M 159.855469 145.003906 C 159.855469 145.003906 161.953125 145.746094 161.554688 147.511719 C 161.160156 149.273438 159.917969 150.886719 156.882812 150.1875 C 153.851562 149.492188 149.851562 147.828125 148.738281 146.988281 C 146.910156 145.613281 147.613281 142.035156 149.96875 142.203125 C 153.65625 142.460938 157.101562 143.605469 159.855469 145.003906 "/>
<path style="fill:none;stroke-width:7;stroke-linecap:round;stroke-linejoin:round;stroke:rgb(10.196078%,9.803922%,9.803922%);stroke-opacity:1;stroke-miterlimit:4;" d="M 596.928649 540.139551 C 596.928649 540.139551 604.761669 542.904199 603.273833 549.481152 C 601.800583 556.043555 597.162035 562.053027 585.828224 559.448438 C 574.508999 556.858398 559.57229 550.659766 555.415101 547.531348 C 548.588558 542.409473 551.214152 529.080957 560.009889 529.706641 C 573.779668 530.666992 586.645075 534.930371 596.928649 540.139551 Z M 596.928649 540.139551 " transform="matrix(0.267797,0,0,0.268456,0,0)"/>
<path style=" stroke:none;fill-rule:nonzero;fill:rgb(97.254902%,82.352941%,70.980392%);fill-opacity:1;" d="M 163.28125 139.386719 C 162.324219 138.40625 158.578125 137.65625 156.570312 137.382812 C 153.765625 137 150.503906 140.550781 153.835938 142.3125 C 157.171875 144.078125 160.460938 145.3125 162.023438 145.257812 C 163.953125 145.199219 165.417969 141.574219 163.28125 139.386719 "/>
<path style="fill:none;stroke-width:7;stroke-linecap:round;stroke-linejoin:round;stroke:rgb(10.196078%,9.803922%,9.803922%);stroke-opacity:1;stroke-miterlimit:4;" d="M 609.721123 519.215527 C 606.147399 515.563281 592.158821 512.769531 584.661294 511.750977 C 574.188093 510.325 562.008258 523.55166 574.450653 530.114063 C 586.907634 536.691016 599.189577 541.289062 605.024229 541.085352 C 612.230024 540.86709 617.70001 527.363965 609.721123 519.215527 Z M 383.715882 664.17041 C 408.702779 649.168555 481.577581 565.894434 481.577581 565.894434 M 390.659118 627.153223 C 390.659118 627.153223 395.735265 641.936816 399.907041 649.44502 M 210.64552 433.351367 C 211.199812 440.510352 212.891861 454.391797 217.924248 461.885449 C 217.924248 461.885449 220.651948 491.656348 191.712075 502.118359 C 162.772201 491.656348 165.485314 461.885449 165.485314 461.885449 C 170.532288 454.391797 172.209751 440.510352 172.764043 433.351367 M 140.994363 469.510059 C 140.994363 469.510059 123.78214 512.449414 134.765872 532.907812 C 148.214745 557.906055 183.514389 531.030762 191.712075 502.118359 M 242.4152 469.510059 C 242.4152 469.510059 259.642009 512.449414 248.643691 532.907812 C 235.209405 557.906055 199.895174 531.030762 191.712075 502.118359 " transform="matrix(0.267797,0,0,0.268456,0,0)"/>
<path style=" stroke:none;fill-rule:nonzero;fill:rgb(45.098039%,27.058824%,23.529412%);fill-opacity:1;" d="M 60.894531 116.726562 C 95.273438 110.367188 98.925781 69.921875 98.925781 69.921875 C 104.648438 39.394531 81.816406 5.835938 68.835938 7.535156 C 65.242188 1.390625 51.734375 -1.433594 38.558594 3.386719 C 25.382812 8.203125 -3.871094 29.597656 3.691406 69.921875 C 3.691406 69.921875 8.667969 114.476562 41.722656 116.726562 "/>
<path style=" stroke:none;fill-rule:nonzero;fill:rgb(79.215686%,62.352941%,55.294118%);fill-opacity:1;" d="M 41.042969 9.632812 C 53.761719 4.816406 66.800781 7.640625 70.269531 13.785156 C 73.585938 11.742188 88.195312 19.664062 95.023438 36.679688 C 89.449219 15.433594 71.925781 5.351562 68.230469 7.628906 C 64.765625 1.484375 51.726562 -1.339844 39.003906 3.476562 C 26.285156 8.292969 -4.117188 26.84375 3.183594 67.171875 L 4.242188 69.472656 C 1.0625 31.324219 28.890625 14.234375 41.042969 9.632812 "/>
<path style=" stroke:none;fill-rule:nonzero;fill:rgb(79.215686%,62.352941%,55.294118%);fill-opacity:1;" d="M 24.566406 14.117188 C 24.566406 14.117188 36.445312 23.238281 54.421875 21.332031 C 54.421875 21.332031 59.675781 22.191406 50.539062 23.765625 C 41.398438 25.34375 25.230469 25.609375 18.988281 22.480469 L 24.566406 14.117188 "/>
<path style=" stroke:none;fill-rule:nonzero;fill:rgb(97.254902%,82.352941%,70.980392%);fill-opacity:1;" d="M 13.351562 71.824219 C 14.277344 83.117188 17.835938 95.570312 22.980469 102.640625 C 30.695312 113.222656 45.117188 119.183594 51.339844 119.183594 C 57.558594 119.183594 71.984375 113.222656 79.695312 102.640625 C 84.605469 95.890625 88.019531 84.148438 89.105469 73.890625 C 78.949219 59.085938 68.050781 35.105469 68.898438 26.941406 C 68.898438 26.941406 61.460938 52.257812 39.917969 56.125 C 39.917969 56.125 54.292969 46.34375 54.621094 34.175781 C 54.621094 34.175781 44.664062 54.5625 23.726562 57.03125 C 23.726562 57.03125 34.605469 44.53125 33.789062 36.476562 C 33.789062 36.476562 19.027344 45.847656 13.351562 71.824219 "/>
<path style=" stroke:none;fill-rule:nonzero;fill:rgb(100%,100%,99.607843%);fill-opacity:1;" d="M 43.878906 69.472656 C 43.878906 74.660156 40.011719 78.871094 35.242188 78.871094 C 30.46875 78.871094 26.601562 74.660156 26.601562 69.472656 C 26.601562 64.28125 30.46875 60.078125 35.242188 60.078125 C 40.011719 60.078125 43.878906 64.28125 43.878906 69.472656 "/>
<path style=" stroke:none;fill-rule:nonzero;fill:rgb(84.705882%,91.372549%,94.509804%);fill-opacity:1;" d="M 26.523438 67.933594 C 26.523438 67.933594 27.433594 61.984375 33.609375 60.332031 C 40.84375 58.398438 42.699219 64.960938 42.699219 64.960938 C 42.699219 64.960938 38.929688 62.441406 34.445312 63.472656 C 30.214844 64.441406 26.523438 67.933594 26.523438 67.933594 "/>
<path style=" stroke:none;fill-rule:nonzero;fill:rgb(100%,100%,99.607843%);fill-opacity:1;" d="M 58.796875 69.472656 C 58.796875 74.660156 62.664062 78.871094 67.4375 78.871094 C 72.210938 78.871094 76.074219 74.660156 76.074219 69.472656 C 76.074219 64.28125 72.210938 60.078125 67.4375 60.078125 C 62.664062 60.078125 58.796875 64.28125 58.796875 69.472656 "/>
<path style=" stroke:none;fill-rule:nonzero;fill:rgb(84.705882%,91.372549%,94.509804%);fill-opacity:1;" d="M 76.15625 67.933594 C 76.15625 67.933594 75.246094 61.984375 69.066406 60.332031 C 61.832031 58.398438 59.980469 64.960938 59.980469 64.960938 C 59.980469 64.960938 63.746094 62.441406 68.230469 63.472656 C 72.460938 64.441406 76.15625 67.933594 76.15625 67.933594 "/>
<path style=" stroke:none;fill-rule:nonzero;fill:rgb(92.941176%,61.960784%,60%);fill-opacity:1;" d="M 18.953125 82.992188 C 18.953125 84.679688 21.640625 86.046875 24.957031 86.046875 C 28.269531 86.046875 30.960938 84.679688 30.960938 82.992188 C 30.960938 81.308594 28.269531 79.941406 24.957031 79.941406 C 21.640625 79.941406 18.953125 81.308594 18.953125 82.992188 "/>
<path style=" stroke:none;fill-rule:nonzero;fill:rgb(92.941176%,61.960784%,60%);fill-opacity:1;" d="M 72.199219 82.992188 C 72.199219 84.679688 74.886719 86.046875 78.203125 86.046875 C 81.515625 86.046875 84.207031 84.679688 84.207031 82.992188 C 84.207031 81.308594 81.515625 79.941406 78.203125 79.941406 C 74.886719 79.941406 72.199219 81.308594 72.199219 82.992188 "/>
<path style="fill:none;stroke-width:7;stroke-linecap:round;stroke-linejoin:round;stroke:rgb(10.196078%,9.803922%,9.803922%);stroke-opacity:1;stroke-miterlimit:4;" d="M 191.624555 322.328906 L 191.624555 315.038965 " transform="matrix(0.267797,0,0,0.268456,0,0)"/>
<path style="fill:none;stroke-width:6;stroke-linecap:round;stroke-linejoin:round;stroke:rgb(10.196078%,9.803922%,9.803922%);stroke-opacity:1;stroke-miterlimit:4;" d="M 225.407189 197.541406 C 225.407189 197.541406 257.278975 174.260156 277.350178 202.328613 " transform="matrix(0.267797,0,0,0.268456,0,0)"/>
<path style="fill:none;stroke-width:7;stroke-linecap:round;stroke-linejoin:round;stroke:rgb(10.196078%,9.803922%,9.803922%);stroke-opacity:1;stroke-miterlimit:4;" d="M 160.686313 243.972949 C 160.686313 243.972949 152.196895 215.409766 125.692989 222.117676 C 96.738528 229.480371 99.116149 269.000293 99.116149 269.000293 " transform="matrix(0.267797,0,0,0.268456,0,0)"/>
<path style="fill:none;stroke-width:6;stroke-linecap:round;stroke-linejoin:round;stroke:rgb(10.196078%,9.803922%,9.803922%);stroke-opacity:1;stroke-miterlimit:4;" d="M 98.051325 258.50918 L 88.599189 256.28291 " transform="matrix(0.267797,0,0,0.268456,0,0)"/>
<path style="fill:none;stroke-width:7;stroke-linecap:round;stroke-linejoin:round;stroke:rgb(10.196078%,9.803922%,9.803922%);stroke-opacity:1;stroke-miterlimit:4;" d="M 222.737836 243.972949 C 222.737836 243.972949 231.227255 215.409766 257.716574 222.117676 C 286.685621 229.480371 284.293414 269.000293 284.293414 269.000293 " transform="matrix(0.267797,0,0,0.268456,0,0)"/>
<path style="fill:none;stroke-width:6;stroke-linecap:round;stroke-linejoin:round;stroke:rgb(10.196078%,9.803922%,9.803922%);stroke-opacity:1;stroke-miterlimit:4;" d="M 285.372824 258.50918 L 294.810374 256.28291 " transform="matrix(0.267797,0,0,0.268456,0,0)"/>
<path style="fill:none;stroke-width:7;stroke-linecap:round;stroke-linejoin:round;stroke:rgb(10.196078%,9.803922%,9.803922%);stroke-opacity:1;stroke-miterlimit:4;" d="M 244.092662 427.458301 C 360.975326 394.558984 369.406398 260.458984 369.406398 260.458984 C 390.775811 146.744629 305.51696 21.738867 257.045589 28.068457 C 243.62589 5.180078 193.185324 -5.340137 143.984622 12.615527 C 94.78392 30.556641 -14.45535 110.25127 13.784365 260.458984 C 13.784365 260.458984 26.066307 408.309473 144.465981 429.902832 " transform="matrix(0.267797,0,0,0.268456,0,0)"/>
<path style=" stroke:none;fill-rule:nonzero;fill:rgb(10.196078%,9.803922%,9.803922%);fill-opacity:1;" d="M 41.636719 70.144531 C 41.636719 74.183594 39.679688 77.457031 37.273438 77.457031 C 34.863281 77.457031 32.90625 74.183594 32.90625 70.144531 C 32.90625 66.101562 34.863281 62.824219 37.273438 62.824219 C 39.679688 62.824219 41.636719 66.101562 41.636719 70.144531 "/>
<path style=" stroke:none;fill-rule:nonzero;fill:rgb(100%,100%,99.607843%);fill-opacity:1;" d="M 41.464844 67.417969 C 41.464844 68.285156 40.773438 68.984375 39.914062 68.984375 C 39.058594 68.984375 38.367188 68.285156 38.367188 67.417969 C 38.367188 66.550781 39.058594 65.84375 39.914062 65.84375 C 40.773438 65.84375 41.464844 66.550781 41.464844 67.417969 "/>
<path style=" stroke:none;fill-rule:nonzero;fill:rgb(10.196078%,9.803922%,9.803922%);fill-opacity:1;" d="M 61.042969 70.144531 C 61.042969 74.183594 62.996094 77.457031 65.40625 77.457031 C 67.816406 77.457031 69.769531 74.183594 69.769531 70.144531 C 69.769531 66.101562 67.816406 62.824219 65.40625 62.824219 C 62.996094 62.824219 61.042969 66.101562 61.042969 70.144531 "/>
<path style=" stroke:none;fill-rule:nonzero;fill:rgb(100%,100%,99.607843%);fill-opacity:1;" d="M 69.597656 67.417969 C 69.597656 68.285156 68.90625 68.984375 68.046875 68.984375 C 67.195312 68.984375 66.5 68.285156 66.5 67.417969 C 66.5 66.550781 67.195312 65.84375 68.046875 65.84375 C 68.90625 65.84375 69.597656 66.550781 69.597656 67.417969 "/>
<path style="fill:none;stroke-width:7;stroke-linecap:round;stroke-linejoin:round;stroke:rgb(10.196078%,9.803922%,9.803922%);stroke-opacity:1;stroke-miterlimit:4;" d="M 49.8571 267.545215 C 53.314132 309.611523 66.602551 355.999414 85.813143 382.336328 C 114.621737 421.754395 168.475574 443.958887 191.712075 443.958887 C 214.933989 443.958887 268.802413 421.754395 297.59642 382.336328 C 315.931814 357.192578 328.680528 313.45293 332.735611 275.242578 C 294.810374 223.791016 254.113677 130.767871 257.278975 100.356738 C 257.278975 100.356738 229.506032 194.660352 149.060769 209.065625 C 149.060769 209.065625 202.739567 172.630469 203.964844 127.304785 C 203.964844 127.304785 166.783525 203.245313 88.599189 212.441406 C 88.599189 212.441406 129.222953 165.878906 126.174347 135.875195 C 126.174347 135.875195 71.051473 170.78252 49.8571 267.545215 Z M 49.8571 267.545215 " transform="matrix(0.267797,0,0,0.268456,0,0)"/>
<path style=" stroke:none;fill-rule:nonzero;fill:rgb(87.058824%,45.098039%,49.411765%);fill-opacity:1;" d="M 40.128906 91.789062 C 42.453125 93.445312 47.613281 94.664062 51.316406 94.664062 L 51.246094 94.664062 C 54.949219 94.664062 60.105469 93.445312 62.429688 91.789062 C 62.429688 91.789062 58.855469 110.472656 51.171875 110.472656 C 43.484375 110.472656 40.128906 91.789062 40.128906 91.789062 "/>
<path style=" stroke:none;fill-rule:nonzero;fill:rgb(76.470588%,34.901961%,32.54902%);fill-opacity:1;" d="M 42.945312 101.210938 C 45.226562 99.289062 47.988281 98.164062 50.96875 98.164062 C 54.160156 98.164062 57.09375 99.464844 59.464844 101.640625 C 61.289062 96.554688 62.429688 91.789062 62.429688 91.789062 C 62.550781 91.765625 54.980469 93.335938 51.277344 93.34375 C 47.578125 93.335938 40.128906 91.789062 40.128906 91.789062 C 40.128906 91.789062 41.207031 96.289062 42.945312 101.210938 "/>
<path style="fill:none;stroke-width:6;stroke-linecap:round;stroke-linejoin:round;stroke:rgb(10.196078%,9.803922%,9.803922%);stroke-opacity:1;stroke-miterlimit:4;" d="M 191.901701 411.888965 C 165.529074 411.888965 149.848447 341.914258 149.848447 341.914258 C 149.848447 341.914258 163.909958 347.705469 191.624555 347.705469 C 219.339152 347.705469 233.123517 341.914258 233.123517 341.914258 C 233.123517 341.914258 218.245154 411.888965 191.901701 411.888965 Z M 191.901701 411.888965 " transform="matrix(0.267797,0,0,0.268456,0,0)"/>
</g>
</svg>
