<?xml version="1.0" encoding="UTF-8"?>
<svg xmlns="http://www.w3.org/2000/svg" xmlns:xlink="http://www.w3.org/1999/xlink" width="128pt" height="200pt" viewBox="0 0 128 200" version="1.1">
<g id="surface1">
<path style=" stroke:none;fill-rule:nonzero;fill:rgb(45.490196%,29.803922%,27.058824%);fill-opacity:1;" d="M 64.476562 21.96875 C 65.804688 16.441406 65.648438 1.9375 51.007812 1.9375 C 35 1.9375 36.238281 18.136719 37.875 22.125 "/>
<path style=" stroke:none;fill-rule:nonzero;fill:rgb(78.823529%,60.784314%,53.333333%);fill-opacity:1;" d="M 50.292969 5.484375 C 55.421875 3.945312 60.652344 5.503906 62.621094 7.660156 C 60.59375 4.390625 57.023438 1.9375 51.007812 1.9375 C 37.175781 1.9375 36.128906 15.332031 37.566406 21.882812 C 37.550781 21.949219 41.339844 23.386719 41.339844 23.582031 C 39.433594 14.246094 42.640625 7.78125 50.292969 5.484375 "/>
<path style="fill:none;stroke-width:7;stroke-linecap:round;stroke-linejoin:round;stroke:rgb(10.196078%,9.803922%,9.803922%);stroke-opacity:1;stroke-miterlimit:4;" d="M 282.084961 96.113281 C 287.895508 71.931152 287.211914 8.476562 223.15918 8.476562 C 153.125 8.476562 158.54248 79.348145 165.703125 96.796875 M 163.225098 87.414551 C 163.225098 87.414551 186.450195 35.102539 274.343262 36.315918 M 168.198242 121.594238 C 168.198242 121.594238 202.941895 64.770508 282.683105 69.897461 " transform="matrix(0.228571,0,0,0.228571,0,0)"/>
<path style=" stroke:none;fill-rule:nonzero;fill:rgb(97.254902%,82.352941%,70.980392%);fill-opacity:1;" d="M 57.253906 133.554688 C 57.253906 133.554688 61.257812 137.09375 66.253906 137.34375 C 71.96875 137.628906 74.96875 137.914062 81.683594 140.34375 C 85.5625 141.746094 94.835938 143.601562 111.902344 147.578125 L 113.445312 147.582031 C 113.445312 147.582031 115.445312 120.058594 114.875 116.246094 L 113.3125 115.539062 C 112.292969 115.316406 111.308594 115.023438 110.613281 114.628906 C 108.46875 113.414062 103.753906 107.554688 101.683594 106.554688 L 101.753906 104.914062 C 99.828125 104.058594 97.324219 99.628906 97.324219 99.628906 L 98.113281 92.484375 L 101.730469 88.535156 L 120.253906 98.269531 C 120.253906 98.269531 125.609375 104.707031 126.066406 108.34375 L 124.585938 110.914062 C 124.585938 110.914062 125.160156 113.292969 124.398438 115.675781 C 124.398438 115.675781 126.683594 148.34375 125.828125 159.484375 C 125.511719 163.574219 118.113281 163.269531 112.46875 162.769531 C 106.828125 162.269531 90.539062 159.199219 85.683594 158.484375 C 80.828125 157.769531 79.039062 160.34375 79.039062 160.34375 L 78.566406 162.792969 C 78.058594 165.585938 77.535156 168.472656 77.523438 168.507812 L 24.574219 166.171875 C 23.996094 162.628906 23.480469 159.480469 23.160156 157.390625 C 21.636719 147.390625 20.207031 133.488281 21.113281 118.914062 L 33.113281 119.628906 L 36.574219 127.449219 C 36.574219 127.449219 36.148438 132.414062 39.359375 134.34375 C 42.171875 136.03125 45.539062 134.628906 45.539062 134.628906 L 46.828125 132.058594 L 55.683594 131.628906 L 57.253906 133.554688 "/>
<path style=" stroke:none;fill-rule:nonzero;fill:rgb(45.490196%,29.803922%,27.058824%);fill-opacity:1;" d="M 78.183594 28.769531 C 70.277344 20.292969 32.5625 12.648438 14.015625 37.292969 C 0.800781 54.855469 2.640625 80.332031 2.640625 80.332031 L 6.585938 100.226562 C 6.585938 100.226562 9.015625 113.34375 29.300781 123.484375 L 75.015625 122.769531 C 75.015625 122.769531 92.875 113.199219 96.21875 101.097656 L 96.367188 101.023438 L 98.984375 79.628906 C 103.539062 37.105469 78.183594 28.769531 78.183594 28.769531 "/>
<path style=" stroke:none;fill-rule:nonzero;fill:rgb(81.176471%,58.431373%,49.411765%);fill-opacity:1;" d="M 45.835938 125.433594 L 57.070312 125.433594 L 57.164062 130.898438 C 57.164062 130.898438 55.800781 136.066406 47.828125 135.769531 C 45.898438 135.699219 45.324219 134.414062 45.324219 134.414062 L 45.835938 125.433594 "/>
<path style=" stroke:none;fill-rule:nonzero;fill:rgb(78.823529%,60.784314%,53.333333%);fill-opacity:1;" d="M 15.828125 43.082031 C 43.445312 5.941406 95.253906 36.417969 98.875 59.082031 C 95.46875 29.984375 78.46875 29.199219 78.46875 29.199219 C 72.613281 19.84375 33.226562 9.484375 13.539062 38.152344 C 1.097656 56.269531 2.640625 80.332031 2.640625 80.332031 C 2.640625 80.332031 6.015625 82.0625 5.921875 82.128906 C 4.777344 70.703125 7.996094 53.613281 15.828125 43.082031 "/>
<path style=" stroke:none;fill-rule:nonzero;fill:rgb(97.254902%,82.352941%,70.980392%);fill-opacity:1;" d="M 12.589844 82.296875 C 12.589844 82.296875 10.28125 77.816406 5.9375 79.175781 C -3.117188 82.003906 -0.214844 101.636719 14.753906 103.332031 "/>
<path style=" stroke:none;fill-rule:nonzero;fill:rgb(97.254902%,82.352941%,70.980392%);fill-opacity:1;" d="M 89.808594 82.371094 C 89.808594 82.371094 92.117188 77.890625 96.457031 79.25 C 105.515625 82.078125 103.109375 101.714844 87.910156 103.40625 "/>
<path style=" stroke:none;fill-rule:nonzero;fill:rgb(97.254902%,82.352941%,70.980392%);fill-opacity:1;" d="M 89.433594 78.066406 C 89.621094 85.660156 89.511719 97.769531 86.226562 107.597656 C 80.085938 125.984375 60.484375 130.152344 51.179688 130.152344 C 41.875 130.152344 22.273438 125.984375 16.132812 107.597656 C 12.660156 97.207031 12.542969 84.265625 12.988281 76.816406 C 12.988281 76.816406 12.804688 71.082031 20.015625 65.941406 C 26.9375 61.003906 49.554688 58.234375 57.042969 54.796875 C 70.117188 48.796875 71.585938 41.65625 71.585938 41.65625 C 71.585938 41.65625 88.875 55.082031 89.433594 78.066406 "/>
<path style=" stroke:none;fill-rule:nonzero;fill:rgb(100%,100%,99.607843%);fill-opacity:1;" d="M 41.027344 85.457031 C 41.027344 91.132812 37.5 95.734375 33.152344 95.734375 C 28.800781 95.734375 25.273438 91.132812 25.273438 85.457031 C 25.273438 79.78125 28.800781 75.183594 33.152344 75.183594 C 37.5 75.183594 41.027344 79.78125 41.027344 85.457031 "/>
<path style=" stroke:none;fill-rule:nonzero;fill:rgb(100%,100%,99.607843%);fill-opacity:1;" d="M 77.507812 85.457031 C 77.507812 91.132812 73.980469 95.734375 69.632812 95.734375 C 65.28125 95.734375 61.753906 91.132812 61.753906 85.457031 C 61.753906 79.78125 65.28125 75.183594 69.632812 75.183594 C 73.980469 75.183594 77.507812 79.78125 77.507812 85.457031 "/>
<path style=" stroke:none;fill-rule:nonzero;fill:rgb(10.196078%,9.803922%,9.803922%);fill-opacity:1;" d="M 39.800781 86.941406 C 39.800781 90.808594 37.625 93.941406 34.941406 93.941406 C 32.261719 93.941406 30.085938 90.808594 30.085938 86.941406 C 30.085938 83.074219 32.261719 79.941406 34.941406 79.941406 C 37.625 79.941406 39.800781 83.074219 39.800781 86.941406 "/>
<path style=" stroke:none;fill-rule:nonzero;fill:rgb(10.196078%,9.803922%,9.803922%);fill-opacity:1;" d="M 62.847656 86.941406 C 62.847656 90.808594 65.019531 93.941406 67.703125 93.941406 C 70.386719 93.941406 72.558594 90.808594 72.558594 86.941406 C 72.558594 83.074219 70.386719 79.941406 67.703125 79.941406 C 65.019531 79.941406 62.847656 83.074219 62.847656 86.941406 "/>
<path style=" stroke:none;fill-rule:nonzero;fill:rgb(92.54902%,59.607843%,58.823529%);fill-opacity:1;" d="M 28.773438 96.890625 C 28.773438 98.667969 25.777344 100.109375 22.082031 100.109375 C 18.386719 100.109375 15.390625 98.667969 15.390625 96.890625 C 15.390625 95.113281 18.386719 93.675781 22.082031 93.675781 C 25.777344 93.675781 28.773438 95.113281 28.773438 96.890625 "/>
<path style=" stroke:none;fill-rule:nonzero;fill:rgb(92.54902%,59.607843%,58.823529%);fill-opacity:1;" d="M 87.03125 96.890625 C 87.03125 98.667969 84.03125 100.109375 80.339844 100.109375 C 76.640625 100.109375 73.648438 98.667969 73.648438 96.890625 C 73.648438 95.113281 76.640625 93.675781 80.339844 93.675781 C 84.03125 93.675781 87.03125 95.113281 87.03125 96.890625 "/>
<path style=" stroke:none;fill-rule:nonzero;fill:rgb(100%,100%,99.607843%);fill-opacity:1;" d="M 39.714844 84.597656 C 39.714844 85.390625 39.070312 86.03125 38.28125 86.03125 C 37.488281 86.03125 36.847656 85.390625 36.847656 84.597656 C 36.847656 83.804688 37.488281 83.160156 38.28125 83.160156 C 39.070312 83.160156 39.714844 83.804688 39.714844 84.597656 "/>
<path style=" stroke:none;fill-rule:nonzero;fill:rgb(100%,100%,99.607843%);fill-opacity:1;" d="M 72.183594 84.597656 C 72.183594 85.390625 71.542969 86.03125 70.75 86.03125 C 69.957031 86.03125 69.3125 85.390625 69.3125 84.597656 C 69.3125 83.804688 69.957031 83.160156 70.75 83.160156 C 71.542969 83.160156 72.183594 83.804688 72.183594 84.597656 "/>
<path style=" stroke:none;fill-rule:nonzero;fill:rgb(81.176471%,58.431373%,49.411765%);fill-opacity:1;" d="M 13.65625 98.128906 L 12.988281 90.414062 C 12.988281 90.414062 11.109375 85.632812 8.226562 84.894531 C 4.511719 83.941406 4.4375 90.332031 6.988281 93.941406 C 10.890625 99.464844 13.65625 98.128906 13.65625 98.128906 "/>
<path style=" stroke:none;fill-rule:nonzero;fill:rgb(81.176471%,58.431373%,49.411765%);fill-opacity:1;" d="M 89.273438 98.128906 L 89.941406 90.414062 C 89.941406 90.414062 91.820312 85.632812 94.703125 84.894531 C 98.417969 83.941406 98.492188 90.332031 95.941406 93.941406 C 92.039062 99.464844 89.273438 98.128906 89.273438 98.128906 "/>
<path style=" stroke:none;fill-rule:nonzero;fill:rgb(82.352941%,87.843137%,92.156863%);fill-opacity:1;" d="M 33.84375 77.699219 C 35.667969 77.699219 37.410156 78.03125 39.015625 78.613281 C 37.570312 76.511719 35.480469 75.183594 33.152344 75.183594 C 30.519531 75.183594 28.191406 76.875 26.761719 79.460938 C 28.851562 78.347656 31.265625 77.699219 33.84375 77.699219 "/>
<path style=" stroke:none;fill-rule:nonzero;fill:rgb(82.352941%,87.843137%,92.156863%);fill-opacity:1;" d="M 68.984375 77.699219 C 67.164062 77.699219 65.425781 78.03125 63.820312 78.613281 C 65.261719 76.511719 67.351562 75.183594 69.679688 75.183594 C 72.3125 75.183594 74.640625 76.875 76.070312 79.460938 C 73.980469 78.347656 71.566406 77.699219 68.984375 77.699219 "/>
<path style=" stroke:none;fill-rule:nonzero;fill:rgb(78.823529%,60.784314%,53.333333%);fill-opacity:1;" d="M 12.632812 41.996094 C 14.269531 46.878906 48.203125 45.695312 56.523438 42.660156 C 61.167969 40.96875 59.296875 39.714844 56.007812 39.945312 C 24.867188 42.125 20.96875 33.871094 20.96875 33.871094 L 12.632812 41.996094 "/>
<path style=" stroke:none;fill-rule:nonzero;fill:rgb(90.196078%,46.27451%,57.254902%);fill-opacity:1;" d="M 28.515625 199.199219 C 28.574219 196.628906 28.214844 192.316406 27.839844 188.203125 C 27.4375 183.769531 25.855469 174.011719 24.574219 166.171875 L 24.875 163.960938 C 24.875 163.960938 31.035156 158.921875 33.351562 154.34375 C 37.351562 146.4375 39.445312 134.34375 39.445312 134.34375 L 41.921875 135.675781 C 41.0625 138.058594 40.015625 148.246094 40.777344 151.105469 C 42.171875 156.339844 47.636719 156.722656 52.457031 156.722656 C 57.273438 156.722656 62.605469 155.582031 64.5 151.105469 C 66.128906 147.246094 65.875 137.582031 65.875 137.582031 L 68.207031 137.960938 C 68.207031 137.960938 68.03125 152.367188 70.585938 156.4375 C 73.160156 160.53125 77.785156 166.65625 77.785156 166.65625 L 77.523438 168.507812 C 76.230469 175.789062 74.71875 184.667969 74.398438 188.203125 C 74.023438 192.316406 73.660156 196.628906 73.722656 199.199219 L 28.515625 199.199219 "/>
<path style=" stroke:none;fill-rule:nonzero;fill:rgb(83.921569%,38.431373%,50.196078%);fill-opacity:1;" d="M 25.253906 169.582031 C 32.875 174.152344 48.386719 176.722656 61.113281 176.535156 C 67.539062 176.4375 72.875 175.867188 76.589844 174.535156 C 76.015625 178.304688 74.71875 186.078125 74.527344 188.203125 C 74.152344 192.316406 73.789062 196.628906 73.851562 199.199219 L 28.644531 199.199219 C 28.707031 196.628906 28.34375 192.316406 27.96875 188.203125 C 27.714844 185.4375 26.289062 175.570312 25.253906 169.582031 "/>
<path style=" stroke:none;fill-rule:nonzero;fill:rgb(81.176471%,58.431373%,49.411765%);fill-opacity:1;" d="M 21.0625 119.292969 L 24.777344 119.960938 L 36.207031 127.390625 C 36.207031 127.390625 36.300781 131.292969 37.730469 132.628906 C 37.730469 132.628906 27.921875 125.769531 20.875 124.152344 L 21.0625 119.292969 "/>
<path style="fill-rule:nonzero;fill:rgb(97.254902%,82.352941%,70.980392%);fill-opacity:1;stroke-width:7;stroke-linecap:round;stroke-linejoin:round;stroke:rgb(10.196078%,9.803922%,9.803922%);stroke-opacity:1;stroke-miterlimit:4;" d="M 506.799316 405.76416 C 506.799316 405.76416 517.39502 403.405762 520.488281 414.616699 C 523.342285 425.007324 523.92334 436.491699 517.993164 435.244141 C 509.72168 433.518066 505.961914 425.656738 505.961914 418.92334 " transform="matrix(0.228571,0,0,0.228571,0,0)"/>
<path style=" stroke:none;fill-rule:nonzero;fill:rgb(97.254902%,82.352941%,70.980392%);fill-opacity:1;" d="M 111.839844 90.175781 C 111.839844 90.175781 115.042969 89.46875 115.746094 92.03125 C 116.402344 94.40625 116.195312 96.453125 114.273438 96.257812 C 112.351562 96.066406 111.648438 94.722656 111.648438 93.183594 "/>
<path style="fill:none;stroke-width:7;stroke-linecap:round;stroke-linejoin:round;stroke:rgb(10.196078%,9.803922%,9.803922%);stroke-opacity:1;stroke-miterlimit:4;" d="M 489.299316 394.519043 C 489.299316 394.519043 503.312988 391.425781 506.38916 402.636719 C 509.260254 413.027344 508.354492 421.982422 499.946289 421.12793 C 491.538086 420.290527 488.461914 414.411621 488.461914 407.678223 M 242.060547 511.550293 C 240.419922 507.226562 234.746094 504.047852 227.927246 504.047852 C 221.108398 504.047852 215.41748 507.226562 213.776855 511.550293 " transform="matrix(0.228571,0,0,0.228571,0,0)"/>
<path style=" stroke:none;fill-rule:nonzero;fill:rgb(87.45098%,45.098039%,43.921569%);fill-opacity:1;" d="M 51.753906 124.035156 C 43.558594 124.035156 42.976562 110.035156 42.878906 106.890625 C 42.878906 106.890625 51.589844 110.890625 60.304688 106.890625 C 60.210938 110.035156 59.625 124.035156 51.429688 124.035156 "/>
<path style=" stroke:none;fill-rule:nonzero;fill:rgb(76.470588%,34.901961%,32.54902%);fill-opacity:1;" d="M 51.085938 111.65625 C 54.167969 111.65625 56.921875 113.761719 58.765625 117.074219 C 60.070312 113.070312 60.257812 108.523438 60.304688 106.890625 C 51.589844 110.890625 42.878906 106.890625 42.878906 106.890625 C 42.921875 108.375 43.078125 112.265625 44.085938 115.96875 C 45.894531 113.304688 48.359375 111.65625 51.085938 111.65625 "/>
<path style="fill:none;stroke-width:7;stroke-linecap:round;stroke-linejoin:round;stroke:rgb(10.196078%,9.803922%,9.803922%);stroke-opacity:1;stroke-miterlimit:4;" d="M 226.42334 542.653809 C 190.568848 542.653809 188.022461 481.403809 187.595215 467.646484 C 187.595215 467.646484 225.705566 485.146484 263.833008 467.646484 C 263.422852 481.403809 260.859375 542.653809 225.004883 542.653809 M 174.333496 291.97998 C 161.208496 281.982422 128.071289 276.975098 109.956055 298.850098 " transform="matrix(0.228571,0,0,0.228571,0,0)"/>
<path style="fill:none;stroke-width:8;stroke-linecap:round;stroke-linejoin:round;stroke:rgb(10.196078%,9.803922%,9.803922%);stroke-opacity:1;stroke-miterlimit:4;" d="M 175.734863 347.8125 C 161.259766 317.324219 100.67627 317.1875 109.32373 389.118652 " transform="matrix(0.228571,0,0,0.228571,0,0)"/>
<path style="fill:none;stroke-width:7;stroke-linecap:round;stroke-linejoin:round;stroke:rgb(10.196078%,9.803922%,9.803922%);stroke-opacity:1;stroke-miterlimit:4;" d="M 55.080566 360.048828 C 55.080566 360.048828 44.980469 340.446777 25.976562 346.394043 C -13.637695 358.76709 -0.939941 444.660645 64.54834 452.077637 M 26.694336 369.550781 C 26.694336 369.550781 39.750977 360.646973 55.78125 395.664062 M 391.271973 341.540527 C 392.092285 374.763184 391.61377 427.741699 377.241211 470.739746 C 350.375977 551.181641 264.619141 569.416504 223.911133 569.416504 C 183.203125 569.416504 97.446289 551.181641 70.581055 470.739746 C 55.388184 425.280762 54.875488 368.662109 56.82373 336.071777 C 56.82373 336.071777 56.020508 310.983887 87.568359 288.493652 C 117.851562 266.89209 216.801758 254.775391 249.562988 239.736328 C 306.762695 213.486328 313.188477 182.246094 313.188477 182.246094 C 313.188477 182.246094 388.828125 240.983887 391.271973 341.540527 Z M 272.446289 291.97998 C 285.571289 281.982422 318.708496 276.975098 336.82373 298.850098 " transform="matrix(0.228571,0,0,0.228571,0,0)"/>
<path style="fill:none;stroke-width:8;stroke-linecap:round;stroke-linejoin:round;stroke:rgb(10.196078%,9.803922%,9.803922%);stroke-opacity:1;stroke-miterlimit:4;" d="M 272.514648 350.769043 C 284.34082 317.409668 349.077148 314.931641 340.15625 389.118652 " transform="matrix(0.228571,0,0,0.228571,0,0)"/>
<path style="fill:none;stroke-width:7;stroke-linecap:round;stroke-linejoin:round;stroke:rgb(10.196078%,9.803922%,9.803922%);stroke-opacity:1;stroke-miterlimit:4;" d="M 392.912598 360.373535 C 392.912598 360.373535 403.012695 340.771484 421.999512 346.71875 C 461.630859 359.091797 451.103516 445.002441 384.606934 452.402344 M 420.922852 369.875488 C 420.922852 369.875488 407.866211 360.97168 391.818848 396.005859 M 97.446289 367.858887 L 108.486328 374.746094 M 340.993652 374.746094 L 355.776367 367.858887 M 223.911133 446.984863 L 223.911133 436.987305 M 12.646484 355.246582 C 12.646484 355.246582 3.24707 251.032715 56.020508 170.65918 C 135.078125 50.244141 314.863281 83.056641 342.36084 126.806641 C 342.36084 126.806641 455.170898 142.751465 432.714844 351.298828 M 197.575684 594.829102 L 201.318359 569.006348 M 251.323242 594.829102 L 249.648438 566.921387 " transform="matrix(0.228571,0,0,0.228571,0,0)"/>
<path style=" stroke:none;fill-rule:nonzero;fill:rgb(10.196078%,9.803922%,9.803922%);fill-opacity:1;" d="M 39.800781 86.941406 C 39.800781 90.808594 37.625 93.941406 34.941406 93.941406 C 32.261719 93.941406 30.085938 90.808594 30.085938 86.941406 C 30.085938 83.074219 32.261719 79.941406 34.941406 79.941406 C 37.625 79.941406 39.800781 83.074219 39.800781 86.941406 "/>
<path style=" stroke:none;fill-rule:nonzero;fill:rgb(10.196078%,9.803922%,9.803922%);fill-opacity:1;" d="M 62.847656 86.941406 C 62.847656 90.808594 65.019531 93.941406 67.703125 93.941406 C 70.386719 93.941406 72.558594 90.808594 72.558594 86.941406 C 72.558594 83.074219 70.386719 79.941406 67.703125 79.941406 C 65.019531 79.941406 62.847656 83.074219 62.847656 86.941406 "/>
<path style=" stroke:none;fill-rule:nonzero;fill:rgb(100%,100%,99.607843%);fill-opacity:1;" d="M 39.714844 84.597656 C 39.714844 85.390625 39.070312 86.03125 38.28125 86.03125 C 37.488281 86.03125 36.847656 85.390625 36.847656 84.597656 C 36.847656 83.804688 37.488281 83.160156 38.28125 83.160156 C 39.070312 83.160156 39.714844 83.804688 39.714844 84.597656 "/>
<path style=" stroke:none;fill-rule:nonzero;fill:rgb(100%,100%,99.607843%);fill-opacity:1;" d="M 72.183594 84.597656 C 72.183594 85.390625 71.542969 86.03125 70.75 86.03125 C 69.957031 86.03125 69.3125 85.390625 69.3125 84.597656 C 69.3125 83.804688 69.957031 83.160156 70.75 83.160156 C 71.542969 83.160156 72.183594 83.804688 72.183594 84.597656 "/>
<path style="fill:none;stroke-width:7;stroke-linecap:round;stroke-linejoin:round;stroke:rgb(10.196078%,9.803922%,9.803922%);stroke-opacity:1;stroke-miterlimit:4;" d="M 25.703125 436.491699 C 25.703125 436.491699 51.953125 501.501465 109.443359 528.999023 M 422.785645 436.491699 C 422.785645 436.491699 396.535645 501.501465 339.02832 528.999023 M 124.755859 871.496582 C 125.012207 860.251465 123.439941 841.384277 121.799316 823.388672 C 119.23584 795.241699 105.803223 718.012695 101.325684 688.583984 C 94.660645 644.833984 88.405762 584.01123 92.370605 520.249023 M 347.84668 689.626465 C 347.84668 689.626465 328.039551 795.241699 325.493164 823.388672 C 323.852539 841.384277 322.263184 860.251465 322.536621 871.496582 " transform="matrix(0.228571,0,0,0.228571,0,0)"/>
<path style="fill:none;stroke-width:6;stroke-linecap:round;stroke-linejoin:round;stroke:rgb(10.196078%,9.803922%,9.803922%);stroke-opacity:1;stroke-miterlimit:4;" d="M 298.405762 603.579102 C 298.405762 603.579102 297.636719 666.606445 308.813477 684.414062 C 320.075684 702.324219 340.310059 729.121094 340.310059 729.121094 M 288.203125 601.921387 C 288.203125 601.921387 289.313965 644.20166 282.1875 661.086426 C 273.898926 680.671387 250.571289 685.661621 229.499512 685.661621 C 208.410645 685.661621 184.501953 683.986816 178.400879 661.086426 C 175.068359 648.57666 179.648438 604.006348 183.408203 593.581543 M 172.573242 587.753906 C 172.573242 587.753906 163.413086 640.664062 145.913086 675.253906 C 135.778809 695.283203 108.828125 717.329102 108.828125 717.329102 " transform="matrix(0.228571,0,0,0.228571,0,0)"/>
<path style="fill:none;stroke-width:7;stroke-linecap:round;stroke-linejoin:round;stroke:rgb(10.196078%,9.803922%,9.803922%);stroke-opacity:1;stroke-miterlimit:4;" d="M 160.012207 557.590332 C 160.012207 557.590332 158.149414 579.311523 172.197266 587.753906 C 184.501953 595.136719 197.678223 589.001465 197.678223 589.001465 M 250.48584 584.301758 C 250.48584 584.301758 268.00293 599.785156 289.86084 600.878906 C 314.863281 602.126465 327.988281 603.374023 357.365723 614.003906 C 375.10498 620.412598 418.615723 628.991699 499.86084 648.063965 M 496.323242 645.671387 C 496.323242 645.671387 505.073242 525.256348 502.578125 508.57666 M 545.063477 485.249023 C 545.063477 485.249023 547.575684 495.656738 544.243164 506.081543 C 544.243164 506.081543 554.240723 649.003906 550.498047 697.744141 C 549.11377 715.637207 516.745605 714.304199 492.050781 712.116699 C 467.373047 709.929199 396.108398 696.496582 374.865723 693.369141 C 353.623047 690.241699 345.795898 701.503906 345.795898 701.503906 M 514.865723 508.063965 C 514.865723 508.063965 493.29834 506.816406 483.933105 501.501465 C 474.550781 496.186523 453.92334 470.551758 444.865723 466.176758 C 435.808105 461.801758 445.498047 457.478027 453.308105 458.059082 C 465.800781 458.999023 480.17334 469.304199 484.54834 477.746582 M 425.793457 435.876465 C 425.793457 435.876465 436.748047 455.256348 445.17334 458.999023 M 450.795898 417.436523 C 450.795898 417.436523 466.108398 433.996582 467.373047 441.806641 C 467.373047 441.806641 500.407715 460.178223 496.733398 471.816406 C 494.870605 477.746582 481.113281 471.816406 481.113281 471.816406 " transform="matrix(0.228571,0,0,0.228571,0,0)"/>
<path style="fill-rule:nonzero;fill:rgb(97.254902%,82.352941%,70.980392%);fill-opacity:1;stroke-width:7;stroke-linecap:round;stroke-linejoin:round;stroke:rgb(10.196078%,9.803922%,9.803922%);stroke-opacity:1;stroke-miterlimit:4;" d="M 469.543457 384.316406 C 469.543457 384.316406 485.180664 380.881348 488.615723 393.374023 C 491.794434 404.960938 490.803223 414.941406 481.420898 414.001465 C 472.055664 413.061523 468.620605 406.499023 468.620605 398.996582 " transform="matrix(0.228571,0,0,0.228571,0,0)"/>
<path style=" stroke:none;fill-rule:nonzero;fill:rgb(97.254902%,82.352941%,70.980392%);fill-opacity:1;" d="M 103.039062 88.058594 C 103.039062 88.058594 103.753906 86.269531 105.253906 86.414062 C 106.753906 86.554688 107.46875 87.269531 107.398438 89.128906 C 107.324219 90.984375 106.398438 93.199219 104.898438 92.699219 C 103.609375 92.269531 101.898438 91.914062 103.039062 88.058594 "/>
<path style="fill:none;stroke-width:7;stroke-linecap:round;stroke-linejoin:round;stroke:rgb(10.196078%,9.803922%,9.803922%);stroke-opacity:1;stroke-miterlimit:4;" d="M 450.795898 385.256348 C 450.795898 385.256348 453.92334 377.429199 460.48584 378.061523 C 467.04834 378.676758 470.175781 381.804199 469.868164 389.938965 C 469.543457 398.056641 465.493164 407.746582 458.930664 405.559082 C 453.291016 403.679199 445.805664 402.124023 450.795898 385.256348 Z M 523.615723 427.331543 C 523.615723 427.331543 549.02832 455.256348 551.540527 474.003906 C 552.856445 483.984375 544.038086 481.28418 544.038086 481.28418 C 544.038086 481.28418 541.115723 488.171387 531.52832 482.753906 C 531.52832 482.753906 525.324707 487.368164 517.155762 484.411621 C 507.055664 480.771484 495.793457 473.371582 495.793457 473.371582 M 490.905762 441.293945 C 490.905762 441.293945 523.615723 465.869141 531.118164 481.916504 M 510.490723 437.124023 C 510.490723 437.124023 533.613281 451.70166 544.243164 479.216309 " transform="matrix(0.228571,0,0,0.228571,0,0)"/>
</g>
</svg>
