<?xml version="1.0" encoding="UTF-8"?>
<svg xmlns="http://www.w3.org/2000/svg" xmlns:xlink="http://www.w3.org/1999/xlink" width="105pt" height="200pt" viewBox="0 0 105 200" version="1.1">
<defs>
<clipPath id="clip1">
  <path d="M 15 25 L 88 25 L 88 119 L 15 119 Z M 15 25 "/>
</clipPath>
<clipPath id="clip2">
  <path d="M 28.539062 38.109375 C 15.117188 41.921875 15.210938 64.648438 15.210938 64.648438 C 15.308594 76.753906 16.550781 97.539062 24.175781 105.214844 C 31.746094 112.832031 38.960938 116.453125 45.285156 118.109375 C 45.285156 118.109375 53.101562 120.421875 60.476562 117.601562 C 66.679688 115.523438 73.636719 111.433594 80.683594 103.324219 C 88.414062 94.417969 87.535156 70.296875 86.710938 59.25 C 86.464844 55.976562 84.539062 52.289062 83.722656 51.378906 C 71.828125 38.15625 71.578125 29.746094 71.578125 29.746094 L 70.03125 31.734375 C 67.183594 34.777344 61.851562 37.886719 51.964844 39.679688 C 51.964844 39.679688 55.113281 27.484375 57.882812 25.257812 C 57.882812 25.257812 45.976562 41.484375 25.84375 45.886719 C 25.84375 45.886719 26.390625 43.128906 27.921875 39.496094 Z M 28.539062 38.109375 "/>
</clipPath>
<linearGradient id="linear0" gradientUnits="userSpaceOnUse" x1="0" y1="0" x2="1" y2="0" gradientTransform="matrix(-0.00000158364,-36.172413,36.193691,-0.00000158271,51.222372,89.05393)">
<stop offset="0" style="stop-color:rgb(98.823529%,81.568627%,70.588235%);stop-opacity:1;"/>
<stop offset="1" style="stop-color:rgb(96.862745%,56.862745%,54.901961%);stop-opacity:1;"/>
</linearGradient>
</defs>
<g id="surface1">
<path style=" stroke:none;fill-rule:nonzero;fill:rgb(38.039216%,40.392157%,66.27451%);fill-opacity:1;" d="M 61.800781 123.136719 C 61.800781 123.136719 82.621094 129.441406 89.023438 133.902344 C 92.53125 136.347656 95.621094 141.144531 92.773438 165.703125 C 92.226562 170.429688 90.617188 182.453125 88.25 185.609375 C 86.695312 187.679688 81.394531 189.101562 78.027344 189.101562 L 79.886719 198.277344 L 26.078125 198.277344 L 26.9375 190.910156 C 22.542969 190.910156 17.625 187.164062 17.625 187.164062 C 12.324219 183.285156 11.304688 156.136719 11.160156 147.734375 C 11.03125 140.238281 14.792969 134.851562 17.003906 133.457031 C 21.34375 130.714844 43.777344 123.136719 43.777344 123.136719 L 61.800781 123.136719 "/>
<path style=" stroke:none;fill-rule:nonzero;fill:rgb(100%,100%,100%);fill-opacity:1;" d="M 47.738281 119.996094 C 47.738281 119.996094 41.8125 121.082031 40.824219 128.917969 C 40.128906 134.433594 40.15625 147.710938 47.546875 176.90625 L 58.5 176.824219 C 64.964844 148.46875 65.84375 134.445312 65.144531 128.917969 C 64.15625 121.082031 58.234375 119.996094 58.234375 119.996094 L 47.738281 119.996094 "/>
<path style=" stroke:none;fill-rule:nonzero;fill:rgb(94.117647%,21.568627%,29.411765%);fill-opacity:1;" d="M 50.394531 188.714844 C 49.332031 184.976562 46.597656 174.320312 46.597656 174.320312 L 51.015625 139.917969 L 49.859375 135.136719 L 49.839844 133.976562 L 52.984375 129.835938 L 56.1875 134.050781 L 56.113281 135.136719 L 54.953125 139.917969 L 59.363281 174.0625 C 59.363281 174.0625 56.691406 185.410156 55.652344 189.058594 L 53.238281 196.640625 L 50.394531 188.714844 "/>
<path style=" stroke:none;fill-rule:nonzero;fill:rgb(98.823529%,81.568627%,70.588235%);fill-opacity:1;" d="M 59.773438 117.953125 C 59.773438 117.953125 60.007812 121.714844 59.953125 123.648438 C 59.953125 123.648438 57.90625 128.582031 52.964844 130.046875 C 48.023438 128.582031 45.980469 123.648438 45.980469 123.648438 C 46.003906 123.679688 45.773438 117.953125 45.773438 117.953125 "/>
<path style=" stroke:none;fill-rule:nonzero;fill:rgb(87.058824%,57.254902%,51.764706%);fill-opacity:1;" d="M 46.007812 115.953125 L 59.550781 115.953125 L 59.699219 121.089844 C 59.699219 121.089844 53.59375 126.214844 44.96875 123.859375 L 45.003906 121.019531 L 46.007812 115.953125 "/>
<path style=" stroke:none;fill-rule:nonzero;fill:rgb(84.705882%,88.627451%,96.078431%);fill-opacity:1;" d="M 14.910156 182.894531 C 14.910156 182.894531 11.15625 172.953125 11.417969 150.320312 C 11.527344 140.75 11.929688 137.367188 16.074219 133.902344 C 20.21875 130.4375 34.585938 125.457031 41.832031 124.160156 L 41.039062 127.441406 C 41.039062 127.441406 19.988281 131.726562 15.070312 138.46875 C 12.273438 142.300781 13.453125 168.851562 16.410156 184.984375 L 14.910156 182.894531 "/>
<path style=" stroke:none;fill-rule:nonzero;fill:rgb(84.705882%,88.627451%,96.078431%);fill-opacity:1;" d="M 64.234375 124.339844 C 86.953125 130.023438 90.835938 134.160156 92.042969 137.4375 C 92.644531 139.074219 93.421875 141.058594 93.035156 140.882812 C 91.730469 139.339844 90.058594 135.972656 85.53125 133.902344 C 82.554688 132.542969 64.707031 127.179688 64.707031 127.179688 L 64.234375 124.339844 "/>
<path style=" stroke:none;fill-rule:nonzero;fill:rgb(76.078431%,81.568627%,83.921569%);fill-opacity:1;" d="M 51.015625 139.304688 L 49.972656 134.039062 L 43.964844 141.09375 L 51.015625 139.304688 "/>
<path style=" stroke:none;fill-rule:nonzero;fill:rgb(76.078431%,81.568627%,83.921569%);fill-opacity:1;" d="M 55.316406 139.304688 L 56.359375 134.039062 L 62.367188 141.09375 L 55.316406 139.304688 "/>
<path style=" stroke:none;fill-rule:nonzero;fill:rgb(98.431373%,78.431373%,65.098039%);fill-opacity:1;" d="M 25.46875 169.347656 L 25.980469 171.914062 L 26.425781 172.089844 C 26.988281 172.261719 27.585938 172.539062 28.210938 172.953125 C 28.210938 172.953125 34.53125 172.730469 37.578125 172.210938 L 37.824219 171.691406 C 37.835938 171.441406 37.863281 171.179688 37.902344 170.898438 C 38.394531 167.390625 40.234375 164.898438 42.527344 163.707031 L 43.003906 163.367188 C 43.003906 163.367188 39.214844 160.992188 36.386719 161.285156 C 33.5625 161.585938 27.839844 164.261719 25.386719 169.015625 L 25.46875 169.347656 "/>
<path style=" stroke:none;fill-rule:nonzero;fill:rgb(98.431373%,78.431373%,65.098039%);fill-opacity:1;" d="M 76.183594 171.71875 C 77.058594 171.265625 78.09375 170.613281 78.734375 169.820312 C 78.734375 169.820312 84.527344 171.359375 86.714844 169.921875 C 88.90625 168.484375 84.800781 167.003906 84.800781 167.003906 C 84.800781 167.003906 87.242188 167.199219 87.949219 166.027344 C 88.910156 164.441406 84.859375 163.402344 84.859375 163.402344 C 84.859375 163.402344 87.8125 162.042969 85.757812 160.878906 C 83.625 159.675781 79.4375 157.871094 74.75 158.871094 C 70.117188 159.867188 65.632812 165.097656 63.835938 167.421875 C 63.835938 167.421875 76.109375 171.605469 76.183594 171.71875 "/>
<path style=" stroke:none;fill-rule:nonzero;fill:rgb(100%,100%,100%);fill-opacity:1;" d="M 48.058594 163.023438 C 48.058594 163.023438 45.1875 162.089844 44.117188 162.726562 C 43.046875 163.363281 38.582031 165.457031 37.988281 167.613281 C 37.394531 169.769531 37.765625 173.460938 38.0625 174.277344 C 38.359375 175.097656 40.433594 176.347656 40.433594 176.347656 C 40.433594 176.347656 38.972656 171.984375 40.71875 169.425781 C 42.800781 166.378906 46.570312 164.285156 47.089844 163.992188 C 47.609375 163.695312 48.058594 163.023438 48.058594 163.023438 "/>
<path style=" stroke:none;fill-rule:nonzero;fill:rgb(38.039216%,40.392157%,66.27451%);fill-opacity:1;" d="M 64.320312 168.03125 L 51.191406 163.3125 C 51.191406 163.3125 45.371094 163.246094 43.6875 166.285156 L 46.859375 187.164062 L 56.515625 183.894531 L 58.929688 184.835938 L 64.320312 168.03125 "/>
<path style=" stroke:none;fill-rule:nonzero;fill:rgb(84.705882%,88.627451%,96.078431%);fill-opacity:1;" d="M 46.339844 165.101562 C 46.339844 165.101562 49.960938 162.773438 52.203125 163.550781 L 71.003906 170.273438 L 46.339844 165.101562 "/>
<path style=" stroke:none;fill-rule:nonzero;fill:rgb(84.705882%,88.627451%,96.078431%);fill-opacity:1;" d="M 20.816406 173.890625 C 20.816406 173.890625 22.195312 171.90625 24.351562 171.90625 C 26.507812 171.90625 28.210938 172.953125 28.210938 172.953125 L 37.578125 172.210938 L 37.976562 174.578125 L 26.851562 175.699219 C 26.851562 175.699219 24.351562 171.910156 20.816406 173.890625 "/>
<path style=" stroke:none;fill-rule:nonzero;fill:rgb(48.235294%,29.411765%,29.411765%);fill-opacity:1;" d="M 8.675781 71.421875 C 6.195312 65.144531 6.503906 61.488281 6.503906 61.488281 L 4.816406 64.992188 C -4.523438 33.082031 12.738281 26.664062 12.738281 26.664062 C 12.738281 26.664062 5.757812 24.765625 5.71875 17.964844 C 5.71875 17.964844 15.3125 19.910156 25.59375 13.433594 C 35.105469 7.441406 48.742188 3.097656 62.769531 5.289062 C 75.417969 7.269531 78.160156 16.089844 78.160156 16.089844 C 78.160156 16.089844 90.703125 17.46875 95.863281 30.746094 C 101.410156 45.03125 97.613281 59.160156 97.613281 59.160156 L 96.1875 55.359375 C 96.1875 55.359375 96.097656 61.074219 93.128906 68.753906 L 91.882812 72.660156 L 10.738281 77.152344 L 8.675781 71.421875 "/>
<path style=" stroke:none;fill-rule:nonzero;fill:rgb(78.039216%,58.039216%,52.156863%);fill-opacity:1;" d="M 8.875 71.976562 L 10.738281 77.152344 L 13.203125 77.011719 L 8.921875 72.011719 C 8.910156 72.011719 8.890625 71.992188 8.875 71.976562 Z M 95.863281 30.746094 C 90.703125 17.46875 78.160156 16.089844 78.160156 16.089844 C 78.160156 16.089844 75.417969 7.269531 62.769531 5.289062 C 48.742188 3.097656 35.105469 7.441406 25.59375 13.433594 C 15.3125 19.910156 5.71875 17.964844 5.71875 17.964844 C 5.757812 24.765625 12.738281 26.664062 12.738281 26.664062 C 12.738281 26.664062 -4.523438 33.082031 4.816406 64.992188 L 5.089844 64.417969 C 5.003906 64.089844 4.933594 63.773438 4.898438 63.476562 C 1.402344 34.792969 16.910156 26.628906 16.910156 26.628906 C 16.910156 26.628906 18.394531 21.308594 28.671875 14.832031 C 38.1875 8.835938 50.785156 5.582031 64.878906 7.25 C 78.75 8.894531 79.015625 20.238281 79.015625 20.238281 C 79.015625 20.238281 92.207031 22.339844 97.429688 35.691406 C 97.019531 34.058594 96.507812 32.398438 95.863281 30.746094 "/>
<path style=" stroke:none;fill-rule:nonzero;fill:rgb(98.823529%,81.568627%,70.588235%);fill-opacity:1;" d="M 18.75 94.59375 C 7.4375 95.507812 1.851562 80.050781 5.664062 74.328125 C 8.410156 70.195312 14.324219 72.59375 15.484375 74.773438 "/>
<path style=" stroke:none;fill-rule:nonzero;fill:rgb(87.058824%,57.254902%,51.764706%);fill-opacity:1;" d="M 15.445312 81.078125 C 16.617188 84.101562 18.144531 88.574219 16.074219 89.378906 C 14.003906 90.171875 11.378906 88.378906 10.207031 85.355469 C 9.035156 82.328125 9.765625 79.226562 11.832031 78.429688 C 13.902344 77.625 14.273438 78.054688 15.445312 81.078125 "/>
<path style=" stroke:none;fill-rule:nonzero;fill:rgb(98.823529%,81.568627%,70.588235%);fill-opacity:1;" d="M 85.382812 92.367188 C 96.726562 92.519531 101.269531 76.730469 97.085938 71.265625 C 94.066406 67.328125 88.328125 70.117188 87.3125 72.371094 "/>
<g clip-path="url(#clip1)" clip-rule="nonzero">
<g clip-path="url(#clip2)" clip-rule="nonzero">
<path style=" stroke:none;fill-rule:nonzero;fill:url(#linear0);" d="M 28.539062 38.109375 C 15.117188 41.921875 15.210938 64.648438 15.210938 64.648438 C 15.308594 76.753906 16.550781 97.539062 24.175781 105.214844 C 31.746094 112.832031 38.960938 116.453125 45.285156 118.109375 C 45.285156 118.109375 53.101562 120.421875 60.476562 117.601562 C 66.679688 115.523438 73.636719 111.433594 80.683594 103.324219 C 88.414062 94.417969 87.535156 70.296875 86.710938 59.25 C 86.464844 55.976562 84.539062 52.289062 83.722656 51.378906 C 71.828125 38.15625 71.578125 29.746094 71.578125 29.746094 L 70.03125 31.734375 C 67.183594 34.777344 61.851562 37.886719 51.964844 39.679688 C 51.964844 39.679688 55.113281 27.484375 57.882812 25.257812 C 57.882812 25.257812 45.976562 41.484375 25.84375 45.886719 C 25.84375 45.886719 26.390625 43.128906 27.921875 39.496094 L 28.539062 38.109375 "/>
</g>
</g>
<path style=" stroke:none;fill-rule:nonzero;fill:rgb(96.078431%,49.803922%,58.823529%);fill-opacity:1;" d="M 75.988281 80.496094 C 76.167969 82.675781 64.4375 83.96875 49.785156 84.171875 C 35.136719 84.378906 23.109375 83.402344 22.941406 81.226562 C 22.761719 79.054688 34.5 77.132812 49.152344 76.929688 C 63.796875 76.730469 75.816406 78.324219 75.988281 80.496094 "/>
<path style=" stroke:none;fill-rule:nonzero;fill:rgb(87.058824%,57.254902%,51.764706%);fill-opacity:1;" d="M 87.777344 78.65625 C 86.808594 81.753906 85.585938 86.316406 87.703125 86.980469 C 89.820312 87.640625 92.320312 85.667969 93.285156 82.574219 C 94.253906 79.480469 93.324219 76.433594 91.203125 75.773438 C 89.082031 75.113281 88.742188 75.5625 87.777344 78.65625 "/>
<path style=" stroke:none;fill-rule:nonzero;fill:rgb(78.039216%,58.039216%,52.156863%);fill-opacity:1;" d="M 43.386719 24.03125 C 43.386719 24.03125 31.007812 27.390625 26.488281 45.421875 L 30.6875 44.429688 C 30.6875 44.429688 34.421875 30.839844 43.386719 24.03125 "/>
<path style=" stroke:none;fill-rule:nonzero;fill:rgb(78.039216%,58.039216%,52.156863%);fill-opacity:1;" d="M 61.027344 23.6875 C 61.027344 23.6875 55.703125 24.980469 52.609375 39.304688 L 56.097656 38.609375 C 56.097656 38.609375 56.964844 28.625 61.027344 23.6875 "/>
<path style=" stroke:none;fill-rule:nonzero;fill:rgb(13.72549%,12.156863%,12.54902%);fill-opacity:1;" d="M 45.773438 58.019531 C 46.011719 58.03125 46.242188 58.457031 46.175781 59.238281 C 46.113281 59.996094 45.671875 61.183594 44.515625 62.125 C 43.378906 63.078125 41.695312 63.617188 39.964844 63.714844 C 39.074219 63.765625 38.242188 63.734375 37.253906 63.605469 C 36.261719 63.460938 35.25 63.136719 34.308594 62.652344 C 32.410156 61.671875 31.046875 60.195312 30.109375 58.789062 C 29.164062 57.367188 28.601562 55.980469 28.25 54.796875 C 27.566406 52.421875 27.710938 50.851562 28.175781 50.753906 C 28.652344 50.644531 29.355469 51.917969 30.519531 53.800781 C 31.679688 55.640625 33.375 58.222656 35.914062 59.539062 C 36.542969 59.863281 37.191406 60.089844 37.84375 60.226562 C 38.507812 60.351562 39.28125 60.449219 39.925781 60.484375 C 41.253906 60.5625 42.351562 60.398438 43.152344 60.054688 C 44.785156 59.371094 45.296875 57.949219 45.773438 58.019531 "/>
<path style=" stroke:none;fill-rule:nonzero;fill:rgb(13.72549%,12.156863%,12.54902%);fill-opacity:1;" d="M 54.453125 57.222656 C 54.929688 57.152344 55.4375 58.578125 57.070312 59.257812 C 57.871094 59.605469 58.972656 59.765625 60.300781 59.691406 C 60.941406 59.65625 61.71875 59.558594 62.378906 59.429688 C 63.035156 59.292969 63.679688 59.066406 64.3125 58.742188 C 66.847656 57.425781 68.546875 54.84375 69.707031 53.003906 C 70.871094 51.125 71.570312 49.847656 72.046875 49.957031 C 72.511719 50.054688 72.660156 51.625 71.976562 54.003906 C 71.625 55.1875 71.0625 56.574219 70.117188 57.996094 C 69.179688 59.402344 67.816406 60.878906 65.917969 61.855469 C 64.972656 62.34375 63.960938 62.664062 62.972656 62.8125 C 61.984375 62.941406 61.152344 62.96875 60.261719 62.917969 C 58.527344 62.820312 56.84375 62.28125 55.710938 61.328125 C 54.554688 60.386719 54.113281 59.199219 54.050781 58.441406 C 53.984375 57.664062 54.214844 57.234375 54.453125 57.222656 "/>
<path style="fill:none;stroke-width:14;stroke-linecap:round;stroke-linejoin:round;stroke:rgb(13.72549%,12.156863%,12.54902%);stroke-opacity:1;stroke-miterlimit:10;" d="M 375.044651 681.775512 C 331.142674 667.701557 238.579122 636.745962 209.808409 626.901301 C 178.51582 616.203673 114.794019 592.995863 99.804833 531.973181 C 80.730916 454.246562 105.026184 240.898189 118.310439 164.45102 C 127.083731 114.090426 164.663254 58.150007 279.213314 75.849072 C 391.59669 93.263815 486.68212 135.592303 486.68212 135.592303 " transform="matrix(0.109975,0,0,-0.10991,1.230983,198.754575)"/>
<path style="fill:none;stroke-width:14;stroke-linecap:round;stroke-linejoin:round;stroke:rgb(13.72549%,12.156863%,12.54902%);stroke-opacity:1;stroke-miterlimit:10;" d="M 566.849402 680.780384 C 611.497285 666.457646 688.503341 640.975257 715.640161 631.699241 C 746.897232 621.037153 817.367718 600.103921 832.356904 539.081239 C 851.466341 461.354621 827.028995 248.148408 813.425065 171.807861 C 806.392224 132.535838 783.730848 74.35638 659.199837 93.405976 C 546.745422 110.643018 363.074613 191.21286 363.074613 191.21286 C 363.074613 191.21286 351.246654 212.146092 353.981647 234.856339 C 359.202999 278.286576 409.427428 329.429056 454.856739 322.107756 L 698.02254 239.86752 " transform="matrix(0.109975,0,0,-0.10991,1.230983,198.754575)"/>
<path style="fill:none;stroke-width:14;stroke-linecap:round;stroke-linejoin:round;stroke:rgb(13.72549%,12.156863%,12.54902%);stroke-opacity:1;stroke-miterlimit:10;" d="M 431.698091 322.107756 L 402.607704 327.118937 C 370.320571 325.768406 339.880446 298.935486 333.522474 253.977016 C 329.508782 225.615863 341.230183 214.420671 341.230183 214.420671 L 358.954363 201.661706 " transform="matrix(0.109975,0,0,-0.10991,1.230983,198.754575)"/>
<path style="fill:none;stroke-width:14;stroke-linecap:round;stroke-linejoin:round;stroke:rgb(13.72549%,12.156863%,12.54902%);stroke-opacity:1;stroke-miterlimit:10;" d="M 380.337041 323.067344 C 380.337041 323.067344 345.599069 344.853543 319.669909 342.152481 C 293.740748 339.380338 241.278596 314.857536 218.759298 271.249598 " transform="matrix(0.109975,0,0,-0.10991,1.230983,198.754575)"/>
<path style="fill:none;stroke-width:14;stroke-linecap:round;stroke-linejoin:round;stroke:rgb(13.72549%,12.156863%,12.54902%);stroke-opacity:1;stroke-miterlimit:10;" d="M 180.575945 463.487038 L 224.229285 244.66546 " transform="matrix(0.109975,0,0,-0.10991,1.230983,198.754575)"/>
<path style="fill:none;stroke-width:14;stroke-linecap:round;stroke-linejoin:round;stroke:rgb(13.72549%,12.156863%,12.54902%);stroke-opacity:1;stroke-miterlimit:10;" d="M 757.410974 470.381855 L 734.358884 360.31357 " transform="matrix(0.109975,0,0,-0.10991,1.230983,198.754575)"/>
<path style="fill:none;stroke-width:14;stroke-linecap:round;stroke-linejoin:round;stroke:rgb(13.72549%,12.156863%,12.54902%);stroke-opacity:1;stroke-miterlimit:10;" d="M 180.575945 230.342722 C 180.575945 230.342722 206.505105 260.303188 244.688459 235.105121 C 244.688459 235.105121 302.620597 237.166458 330.574364 241.928857 " transform="matrix(0.109975,0,0,-0.10991,1.230983,198.754575)"/>
<path style="fill:none;stroke-width:14;stroke-linecap:round;stroke-linejoin:round;stroke:rgb(13.72549%,12.156863%,12.54902%);stroke-opacity:1;stroke-miterlimit:10;" d="M 681.4705 245.660588 C 689.497884 249.818802 698.981564 255.754031 704.842264 263.075331 C 704.842264 263.075331 757.943765 248.930295 778.047744 262.115743 C 798.080685 275.336732 760.430123 288.913123 760.430123 288.913123 C 760.430123 288.913123 782.842863 287.136109 789.342913 297.869277 C 798.116204 312.405256 760.962914 321.965595 760.962914 321.965595 C 760.962914 321.965595 788.064215 334.404697 769.238934 345.102325 C 749.703264 356.155356 711.271275 372.717132 668.292803 363.512196 C 624.78154 354.1651 584.467023 305.54598 568.838488 285.074772 " transform="matrix(0.109975,0,0,-0.10991,1.230983,198.754575)"/>
<path style="fill:none;stroke-width:14;stroke-linecap:round;stroke-linejoin:round;stroke:rgb(13.72549%,12.156863%,12.54902%);stroke-opacity:1;stroke-miterlimit:10;" d="M 760.430123 288.913123 C 760.430123 288.913123 730.558309 302.311813 714.254905 301.743169 C 683.885819 300.64142 662.787297 283.333297 662.787297 283.333297 " transform="matrix(0.109975,0,0,-0.10991,1.230983,198.754575)"/>
<path style="fill:none;stroke-width:14;stroke-linecap:round;stroke-linejoin:round;stroke:rgb(13.72549%,12.156863%,12.54902%);stroke-opacity:1;stroke-miterlimit:10;" d="M 760.962914 321.965595 C 760.962914 321.965595 722.566444 334.902261 705.019861 335.613067 C 688.325744 336.252792 667.617935 335.079963 641.866371 312.440797 " transform="matrix(0.109975,0,0,-0.10991,1.230983,198.754575)"/>
<path style="fill:none;stroke-width:14;stroke-linecap:round;stroke-linejoin:round;stroke:rgb(13.72549%,12.156863%,12.54902%);stroke-opacity:1;stroke-miterlimit:10;" d="M 235.808609 72.152882 L 226.715643 7.007526 " transform="matrix(0.109975,0,0,-0.10991,1.230983,198.754575)"/>
<path style="fill:none;stroke-width:14;stroke-linecap:round;stroke-linejoin:round;stroke:rgb(13.72549%,12.156863%,12.54902%);stroke-opacity:1;stroke-miterlimit:10;" d="M 700.722014 82.708348 L 712.656532 7.007526 " transform="matrix(0.109975,0,0,-0.10991,1.230983,198.754575)"/>
<path style="fill:none;stroke-width:14;stroke-linecap:round;stroke-linejoin:round;stroke:rgb(13.72549%,12.156863%,12.54902%);stroke-opacity:1;stroke-miterlimit:10;" d="M 441.394887 116.329465 C 450.62993 85.480491 460.823998 53.600849 472.083647 20.79716 " transform="matrix(0.109975,0,0,-0.10991,1.230983,198.754575)"/>
<path style="fill:none;stroke-width:14;stroke-linecap:round;stroke-linejoin:round;stroke:rgb(13.72549%,12.156863%,12.54902%);stroke-opacity:1;stroke-miterlimit:10;" d="M 401.08037 707.257902 C 384.990082 697.128918 364.850583 676.444468 359.664751 635.25327 C 355.082749 599.144333 356.716641 488.827266 388.755138 327.118937 " transform="matrix(0.109975,0,0,-0.10991,1.230983,198.754575)"/>
<path style="fill:none;stroke-width:14;stroke-linecap:round;stroke-linejoin:round;stroke:rgb(13.72549%,12.156863%,12.54902%);stroke-opacity:1;stroke-miterlimit:10;" d="M 505.258765 136.338649 C 495.384372 98.950262 484.337839 60.317964 472.083647 20.79716 " transform="matrix(0.109975,0,0,-0.10991,1.230983,198.754575)"/>
<path style="fill:none;stroke-width:14;stroke-linecap:round;stroke-linejoin:round;stroke:rgb(13.72549%,12.156863%,12.54902%);stroke-opacity:1;stroke-miterlimit:10;" d="M 535.592331 709.390319 C 552.144371 700.185384 575.089902 679.572014 580.666448 635.25327 C 585.461566 597.225157 577.540741 468.249437 541.843745 292.822555 " transform="matrix(0.109975,0,0,-0.10991,1.230983,198.754575)"/>
<path style="fill:none;stroke-width:12;stroke-linecap:round;stroke-linejoin:round;stroke:rgb(13.72549%,12.156863%,12.54902%);stroke-opacity:1;stroke-miterlimit:10;" d="M 359.345077 677.795 L 245.327808 594.204233 L 291.360948 511.892916 L 219.611763 451.119016 C 219.611763 451.119016 244.688459 397.595337 279.604027 329.642298 " transform="matrix(0.109975,0,0,-0.10991,1.230983,198.754575)"/>
<path style="fill:none;stroke-width:14;stroke-linecap:round;stroke-linejoin:round;stroke:rgb(13.72549%,12.156863%,12.54902%);stroke-opacity:1;stroke-miterlimit:10;" d="M 534.526749 737.680392 C 534.526749 737.680392 535.592331 701.00281 535.912006 684.263333 C 535.912006 684.263333 514.920041 638.451896 469.988002 625.124287 C 425.055963 638.451896 402.323549 683.836849 402.323549 683.836849 C 403.495689 703.206308 405.413736 725.205749 405.413736 725.205749 " transform="matrix(0.109975,0,0,-0.10991,1.230983,198.754575)"/>
<path style="fill:none;stroke-width:12;stroke-linecap:round;stroke-linejoin:round;stroke:rgb(13.72549%,12.156863%,12.54902%);stroke-opacity:1;stroke-miterlimit:10;" d="M 590.398763 671.682069 L 702.533503 594.204233 L 656.500363 511.892916 L 728.249548 451.119016 C 728.249548 451.119016 711.555431 418.493028 684.951401 367.741491 " transform="matrix(0.109975,0,0,-0.10991,1.230983,198.754575)"/>
<path style="fill:none;stroke-width:12;stroke-linecap:round;stroke-linejoin:round;stroke:rgb(13.72549%,12.156863%,12.54902%);stroke-opacity:1;stroke-miterlimit:10;" d="M 441.714561 585.141458 L 452.263823 535.313968 L 425.091483 321.468031 " transform="matrix(0.109975,0,0,-0.10991,1.230983,198.754575)"/>
<path style="fill:none;stroke-width:12;stroke-linecap:round;stroke-linejoin:round;stroke:rgb(13.72549%,12.156863%,12.54902%);stroke-opacity:1;stroke-miterlimit:10;" d="M 498.581118 585.141458 L 488.067376 535.313968 L 518.507501 303.058159 " transform="matrix(0.109975,0,0,-0.10991,1.230983,198.754575)"/>
<path style="fill:none;stroke-width:12;stroke-linecap:round;stroke-linejoin:round;stroke:rgb(13.72549%,12.156863%,12.54902%);stroke-opacity:1;stroke-miterlimit:10;" d="M 580.666448 635.25327 C 576.617236 577.642456 555.447675 514.736139 555.447675 514.736139 L 470.165599 627.043462 L 384.883524 514.736139 C 384.883524 514.736139 363.713963 577.642456 359.664751 635.25327 " transform="matrix(0.109975,0,0,-0.10991,1.230983,198.754575)"/>
<path style="fill:none;stroke-width:16;stroke-linecap:round;stroke-linejoin:round;stroke:rgb(13.72549%,12.156863%,12.54902%);stroke-opacity:1;stroke-miterlimit:10;" d="M 376.429907 1185.13267 C 373.091084 1137.011114 278.609484 1085.44215 238.934316 1164.021736 " transform="matrix(0.109975,0,0,-0.10991,1.230983,198.754575)"/>
<path style="fill:none;stroke-width:16;stroke-linecap:round;stroke-linejoin:round;stroke:rgb(13.72549%,12.156863%,12.54902%);stroke-opacity:1;stroke-miterlimit:10;" d="M 527.707025 1185.13267 C 531.045848 1137.011114 625.527448 1085.44215 665.202616 1164.021736 " transform="matrix(0.109975,0,0,-0.10991,1.230983,198.754575)"/>
<path style="fill:none;stroke-width:14;stroke-linecap:round;stroke-linejoin:round;stroke:rgb(13.72549%,12.156863%,12.54902%);stroke-opacity:1;stroke-miterlimit:10;" d="M 653.232578 1598.395186 C 653.232578 1598.395186 679.587972 1487.651636 460.895036 1448.02421 C 460.895036 1448.02421 489.559191 1558.981002 514.742444 1579.238969 C 514.742444 1579.238969 406.443799 1431.640136 223.412339 1391.550686 C 223.412339 1391.550686 251.046431 1531.579437 359.238518 1585.316359 " transform="matrix(0.109975,0,0,-0.10991,1.230983,198.754575)"/>
<path style="fill:none;stroke-width:14;stroke-linecap:round;stroke-linejoin:round;stroke:rgb(13.72549%,12.156863%,12.54902%);stroke-opacity:1;stroke-miterlimit:10;" d="M 452.974211 1066.214852 C 452.974211 1066.214852 412.304499 1048.657948 417.028579 1029.395109 C 421.681621 1010.167811 436.990481 988.843636 436.990481 988.843636 " transform="matrix(0.109975,0,0,-0.10991,1.230983,198.754575)"/>
<path style="fill:none;stroke-width:14;stroke-linecap:round;stroke-linejoin:round;stroke:rgb(13.72549%,12.156863%,12.54902%);stroke-opacity:1;stroke-miterlimit:10;" d="M 430.277315 1140.707304 C 430.277315 1140.707304 444.236439 1086.152956 441.82112 1061.807856 " transform="matrix(0.109975,0,0,-0.10991,1.230983,198.754575)"/>
<path style="fill:none;stroke-width:14;stroke-linecap:round;stroke-linejoin:round;stroke:rgb(13.72549%,12.156863%,12.54902%);stroke-opacity:1;stroke-miterlimit:10;" d="M 158.909112 948.398784 C 56.044934 940.082355 5.252194 1080.715291 39.919127 1132.781819 C 64.889264 1170.383448 118.665633 1148.561709 129.214895 1128.730226 " transform="matrix(0.109975,0,0,-0.10991,1.230983,198.754575)"/>
<path style="fill:none;stroke-width:14;stroke-linecap:round;stroke-linejoin:round;stroke:rgb(13.72549%,12.156863%,12.54902%);stroke-opacity:1;stroke-miterlimit:10;" d="M 135.608386 1065.326345 C 135.608386 1065.326345 98.739251 1134.772076 60.733495 1100.333533 " transform="matrix(0.109975,0,0,-0.10991,1.230983,198.754575)"/>
<path style="fill:none;stroke-width:14;stroke-linecap:round;stroke-linejoin:round;stroke:rgb(13.72549%,12.156863%,12.54902%);stroke-opacity:1;stroke-miterlimit:10;" d="M 764.799009 968.692291 C 867.947342 967.270679 909.256402 1110.92454 871.179607 1160.645408 C 843.758631 1196.470023 791.580635 1171.094254 782.345592 1150.623046 " transform="matrix(0.109975,0,0,-0.10991,1.230983,198.754575)"/>
<path style="fill:none;stroke-width:14;stroke-linecap:round;stroke-linejoin:round;stroke:rgb(13.72549%,12.156863%,12.54902%);stroke-opacity:1;stroke-miterlimit:10;" d="M 780.214428 1086.899302 C 780.214428 1086.899302 812.359483 1158.619612 852.567442 1126.84659 " transform="matrix(0.109975,0,0,-0.10991,1.230983,198.754575)"/>
<path style="fill:none;stroke-width:14;stroke-linecap:round;stroke-linejoin:round;stroke:rgb(13.72549%,12.156863%,12.54902%);stroke-opacity:1;stroke-miterlimit:10;" d="M 639.273455 1538.438713 C 639.273455 1538.438713 641.546696 1461.884924 749.703264 1341.581035 C 757.126819 1333.300147 774.637882 1299.750112 776.875604 1269.967347 C 784.334678 1169.459401 792.326542 949.962557 722.069173 868.966231 C 657.956658 795.184584 594.732129 757.973899 538.327325 739.102003 C 471.266701 713.406372 400.192385 734.446225 400.192385 734.446225 C 342.686479 749.550849 277.08215 782.46116 208.210037 851.80027 C 138.91169 921.601403 127.616522 1110.711298 126.728537 1220.850663 C 126.728537 1220.850663 125.876071 1427.624083 247.920724 1462.311408 " transform="matrix(0.109975,0,0,-0.10991,1.230983,198.754575)"/>
<path style="fill:none;stroke-width:14;stroke-linecap:round;stroke-linejoin:round;stroke:rgb(13.72549%,12.156863%,12.54902%);stroke-opacity:1;stroke-miterlimit:10;" d="M 55.68974 1267.159664 C 43.186912 1239.864719 32.211418 1217.723117 32.211418 1217.723117 C -52.750983 1508.051764 104.244758 1566.444464 104.244758 1566.444464 C 104.244758 1566.444464 40.736073 1583.717046 40.416399 1645.557154 C 40.416399 1645.557154 127.652041 1627.893629 221.103578 1686.819433 C 307.628833 1741.338241 431.627052 1780.823506 559.141692 1760.920942 C 674.189024 1742.902014 699.123641 1662.652034 699.123641 1662.652034 C 699.123641 1662.652034 813.176429 1650.106311 860.062035 1529.304858 C 910.499581 1399.33401 876.010245 1270.784774 876.010245 1270.784774 C 876.010245 1270.784774 864.430921 1302.913198 850.223162 1337.351741 " transform="matrix(0.109975,0,0,-0.10991,1.230983,198.754575)"/>
<path style="fill:none;stroke-width:14;stroke-linecap:round;stroke-linejoin:round;stroke:rgb(13.72549%,12.156863%,12.54902%);stroke-opacity:1;stroke-miterlimit:10;" d="M 47.520278 1249.602759 C 47.520278 1249.602759 44.749765 1216.337046 67.304583 1159.223797 " transform="matrix(0.109975,0,0,-0.10991,1.230983,198.754575)"/>
<path style="fill:none;stroke-width:14;stroke-linecap:round;stroke-linejoin:round;stroke:rgb(13.72549%,12.156863%,12.54902%);stroke-opacity:1;stroke-miterlimit:10;" d="M 863.010145 1305.365478 C 863.010145 1305.365478 862.228718 1253.37003 835.233976 1183.533356 " transform="matrix(0.109975,0,0,-0.10991,1.230983,198.754575)"/>
<path style="fill:none;stroke-width:14;stroke-linecap:round;stroke-linejoin:round;stroke:rgb(13.72549%,12.156863%,12.54902%);stroke-opacity:1;stroke-miterlimit:10;" d="M 368.402523 811.142176 C 368.402523 811.142176 398.416415 909.766486 470.911507 909.766486 C 543.406599 909.766486 580.915083 817.112945 580.915083 817.112945 " transform="matrix(0.109975,0,0,-0.10991,1.230983,198.754575)"/>
<path style="fill:none;stroke-width:60;stroke-linecap:round;stroke-linejoin:round;stroke:rgb(100%,100%,100%);stroke-opacity:1;stroke-miterlimit:10;" d="M 499.682219 1504.675436 L 482.703947 1554.538466 L 558.964095 1580.518419 C 587.273056 1590.185379 602.475358 1621.034352 592.814082 1649.324425 L 566.849402 1725.593892 L 616.718637 1742.546611 L 642.683317 1666.348225 C 661.686195 1610.514426 631.743342 1549.669446 575.942368 1530.69093 Z M 499.682219 1504.675436 " transform="matrix(0.109975,0,0,-0.10991,1.230983,198.754575)"/>
<path style="fill:none;stroke-width:60;stroke-linecap:round;stroke-linejoin:round;stroke:rgb(100%,100%,100%);stroke-opacity:1;stroke-miterlimit:10;" d="M 876.756152 1633.118052 L 859.77788 1682.981081 L 783.517732 1657.001128 C 755.208771 1647.369709 724.342414 1662.545414 714.716657 1690.835486 L 688.716457 1767.104953 L 638.918261 1750.116693 L 664.847422 1673.882767 C 683.8503 1618.084508 744.730549 1588.124042 800.496004 1607.138098 Z M 876.756152 1633.118052 " transform="matrix(0.109975,0,0,-0.10991,1.230983,198.754575)"/>
<path style="fill:none;stroke-width:60;stroke-linecap:round;stroke-linejoin:round;stroke:rgb(100%,100%,100%);stroke-opacity:1;stroke-miterlimit:10;" d="M 507.532006 1481.645327 L 524.510279 1431.782297 L 600.770427 1457.76225 C 629.079388 1467.42921 659.945745 1452.217965 669.607021 1423.927892 L 695.571701 1347.658425 L 745.405417 1364.646685 L 719.440737 1440.880612 C 700.437859 1496.67887 639.59313 1526.603796 583.792155 1507.62528 Z M 507.532006 1481.645327 " transform="matrix(0.109975,0,0,-0.10991,1.230983,198.754575)"/>
<path style="fill:none;stroke-width:60;stroke-linecap:round;stroke-linejoin:round;stroke:rgb(100%,100%,100%);stroke-opacity:1;stroke-miterlimit:10;" d="M 884.605939 1610.052402 L 901.584212 1560.224913 L 825.324064 1534.244959 C 797.015103 1524.61354 781.84832 1493.729026 791.474077 1465.403413 L 817.474276 1389.169487 L 767.605041 1372.181227 L 741.640361 1448.450694 C 722.637483 1504.213412 752.580336 1565.093933 808.345791 1584.072449 Z M 884.605939 1610.052402 " transform="matrix(0.109975,0,0,-0.10991,1.230983,198.754575)"/>
<path style=" stroke:none;fill-rule:nonzero;fill:rgb(94.901961%,32.156863%,58.431373%);fill-opacity:1;" d="M 56.183594 33.375 L 54.316406 27.894531 L 62.703125 25.039062 C 65.816406 23.976562 67.488281 20.585938 66.425781 17.476562 L 63.570312 9.09375 L 69.054688 7.230469 L 71.910156 15.605469 C 74 21.742188 70.707031 28.429688 64.570312 30.515625 L 56.183594 33.375 "/>
<path style="fill:none;stroke-width:14;stroke-linecap:butt;stroke-linejoin:miter;stroke:rgb(92.941176%,10.980392%,14.117647%);stroke-opacity:1;stroke-miterlimit:10;" d="M 499.682219 1504.675436 L 482.703947 1554.538466 L 558.964095 1580.518419 C 587.273056 1590.185379 602.475358 1621.034352 592.814082 1649.324425 L 566.849402 1725.593892 L 616.718637 1742.546611 L 642.683317 1666.348225 C 661.686195 1610.514426 631.743342 1549.669446 575.942368 1530.69093 Z M 499.682219 1504.675436 " transform="matrix(0.109975,0,0,-0.10991,1.230983,198.754575)"/>
<path style=" stroke:none;fill-rule:nonzero;fill:rgb(94.901961%,32.156863%,58.431373%);fill-opacity:1;" d="M 97.652344 19.257812 L 95.785156 13.777344 L 87.398438 16.632812 C 84.285156 17.691406 80.890625 16.023438 79.832031 12.914062 L 76.972656 4.53125 L 71.496094 6.398438 L 74.347656 14.777344 C 76.4375 20.910156 83.132812 24.203125 89.265625 22.113281 L 97.652344 19.257812 "/>
<path style="fill:none;stroke-width:14;stroke-linecap:butt;stroke-linejoin:miter;stroke:rgb(92.941176%,10.980392%,14.117647%);stroke-opacity:1;stroke-miterlimit:10;" d="M 876.756152 1633.118052 L 859.77788 1682.981081 L 783.517732 1657.001128 C 755.208771 1647.369709 724.342414 1662.545414 714.716657 1690.835486 L 688.716457 1767.104953 L 638.918261 1750.116693 L 664.847422 1673.882767 C 683.8503 1618.084508 744.730549 1588.124042 800.496004 1607.138098 Z M 876.756152 1633.118052 " transform="matrix(0.109975,0,0,-0.10991,1.230983,198.754575)"/>
<path style=" stroke:none;fill-rule:nonzero;fill:rgb(94.901961%,32.156863%,58.431373%);fill-opacity:1;" d="M 57.046875 35.90625 L 58.914062 41.386719 L 67.300781 38.53125 C 70.414062 37.46875 73.808594 39.140625 74.871094 42.25 L 77.726562 50.632812 L 83.207031 48.765625 L 80.351562 40.386719 C 78.261719 34.253906 71.570312 30.964844 65.433594 33.050781 L 57.046875 35.90625 "/>
<path style="fill:none;stroke-width:14;stroke-linecap:butt;stroke-linejoin:miter;stroke:rgb(92.941176%,10.980392%,14.117647%);stroke-opacity:1;stroke-miterlimit:10;" d="M 507.532006 1481.645327 L 524.510279 1431.782297 L 600.770427 1457.76225 C 629.079388 1467.42921 659.945745 1452.217965 669.607021 1423.927892 L 695.571701 1347.658425 L 745.405417 1364.646685 L 719.440737 1440.880612 C 700.437859 1496.67887 639.59313 1526.603796 583.792155 1507.62528 Z M 507.532006 1481.645327 " transform="matrix(0.109975,0,0,-0.10991,1.230983,198.754575)"/>
<path style=" stroke:none;fill-rule:nonzero;fill:rgb(94.901961%,32.156863%,58.431373%);fill-opacity:1;" d="M 98.515625 21.792969 L 100.382812 27.269531 L 91.996094 30.125 C 88.882812 31.183594 87.214844 34.578125 88.273438 37.691406 L 91.132812 46.070312 L 85.648438 47.9375 L 82.792969 39.554688 C 80.703125 33.425781 83.996094 26.734375 90.128906 24.648438 L 98.515625 21.792969 "/>
<path style="fill:none;stroke-width:14;stroke-linecap:butt;stroke-linejoin:miter;stroke:rgb(92.941176%,10.980392%,14.117647%);stroke-opacity:1;stroke-miterlimit:10;" d="M 884.605939 1610.052402 L 901.584212 1560.224913 L 825.324064 1534.244959 C 797.015103 1524.61354 781.84832 1493.729026 791.474077 1465.403413 L 817.474276 1389.169487 L 767.605041 1372.181227 L 741.640361 1448.450694 C 722.637483 1504.213412 752.580336 1565.093933 808.345791 1584.072449 Z M 884.605939 1610.052402 " transform="matrix(0.109975,0,0,-0.10991,1.230983,198.754575)"/>
</g>
</svg>
