<?xml version="1.0" encoding="UTF-8"?>
<svg xmlns="http://www.w3.org/2000/svg" xmlns:xlink="http://www.w3.org/1999/xlink" width="105pt" height="199pt" viewBox="0 0 105 199" version="1.1">
<g id="surface1">
<path style=" stroke:none;fill-rule:nonzero;fill:rgb(30.980392%,29.803922%,29.803922%);fill-opacity:1;" d="M 8.113281 136.8125 C 10.277344 134.828125 14.464844 132.644531 19.140625 130.832031 C 23.121094 129.292969 34.339844 126.425781 34.339844 126.425781 C 39.96875 120.121094 44.796875 119.957031 44.796875 119.957031 L 60.644531 119.457031 C 60.644531 119.457031 65.730469 120.398438 70.761719 126.425781 C 70.761719 126.425781 87.917969 131.257812 93.796875 134.027344 C 97.042969 135.554688 100.316406 140.59375 101.675781 148.179688 C 102.105469 157.273438 94.261719 196.859375 94.261719 196.859375 L 11.617188 196.859375 C 11.617188 196.859375 4.636719 164.601562 2.960938 155.878906 C 4.199219 145.144531 5.640625 139.035156 8.113281 136.8125 "/>
<path style=" stroke:none;fill-rule:nonzero;fill:rgb(48.235294%,47.45098%,47.45098%);fill-opacity:1;" d="M 3.996094 158.824219 C 4.398438 149.195312 6.277344 142.835938 8.503906 140.367188 C 11.402344 137.15625 13.964844 136.890625 18.734375 135.332031 C 23.40625 133.808594 30.320312 132.113281 30.320312 132.113281 C 36.601562 126.335938 44.796875 123.113281 44.796875 123.113281 L 60.011719 122.632812 C 60.011719 122.632812 68.679688 126.113281 73.992188 131.890625 C 73.992188 131.890625 86.246094 134.332031 92.597656 138.441406 C 97.441406 141.578125 101.207031 152.519531 101.246094 153.527344 C 101.316406 151.296875 101.503906 149.394531 101.246094 147.964844 C 99.882812 140.378906 96.976562 136.117188 93.730469 134.589844 C 87.851562 131.824219 70.761719 126.425781 70.761719 126.425781 C 65.730469 120.398438 60.644531 119.457031 60.644531 119.457031 L 44.796875 119.957031 C 44.796875 119.957031 39.96875 120.121094 34.339844 126.425781 C 34.339844 126.425781 23.160156 129.902344 19.179688 131.445312 C 14.503906 133.257812 10.277344 134.828125 8.113281 136.8125 C 6.898438 137.90625 5.292969 140.195312 4.476562 143.257812 C 3.632812 146.417969 3.671875 150.316406 3.589844 155.613281 C 3.574219 156.65625 3.984375 159.082031 3.996094 158.824219 "/>
<path style=" stroke:none;fill-rule:nonzero;fill:rgb(23.921569%,22.745098%,23.137255%);fill-opacity:1;" d="M 54.699219 186.589844 C 33.1875 186.589844 15.859375 178.578125 5.121094 166.207031 C 7.210938 180.511719 11.617188 196.859375 11.617188 196.859375 L 94.261719 196.859375 C 94.261719 196.859375 96.910156 186.070312 99.3125 171.417969 C 88.214844 180.710938 72.890625 186.589844 54.699219 186.589844 "/>
<path style=" stroke:none;fill-rule:nonzero;fill:rgb(100%,100%,100%);fill-opacity:1;" d="M 59.941406 123.113281 C 59.941406 123.113281 65.164062 125.703125 65.132812 140.234375 C 65.105469 154.414062 52.671875 188.222656 52.671875 188.222656 L 52.429688 188.222656 C 52.429688 188.222656 39.996094 154.414062 39.96875 140.234375 C 39.9375 125.703125 45.160156 123.113281 45.160156 123.113281 L 59.484375 123.234375 "/>
<path style=" stroke:none;fill-rule:nonzero;fill:rgb(79.607843%,81.568627%,81.176471%);fill-opacity:1;" d="M 41.398438 141.980469 C 41.398438 141.980469 47.308594 136.367188 49.929688 136.21875 C 52.550781 136.070312 56.011719 136.144531 57.382812 137.183594 C 58.753906 138.226562 63.253906 141.980469 63.253906 141.980469 C 63.253906 141.980469 54.578125 138.449219 41.398438 141.980469 "/>
<path style=" stroke:none;fill-rule:nonzero;fill:rgb(21.176471%,67.058824%,61.176471%);fill-opacity:1;" d="M 57.773438 171.683594 C 56.800781 165.234375 54.3125 143.117188 54.3125 143.117188 L 57.089844 137.183594 L 52.429688 134.960938 L 48.007812 137.183594 L 50.785156 143.117188 C 50.785156 143.117188 48.300781 165.234375 47.328125 171.683594 L 52.671875 188.777344 L 57.773438 171.683594 "/>
<path style=" stroke:none;fill-rule:nonzero;fill:rgb(98.823529%,81.568627%,70.588235%);fill-opacity:1;" d="M 59.121094 120.144531 L 59.742188 125.417969 C 59.238281 130.238281 52.429688 133.570312 52.429688 133.570312 C 47.996094 132.183594 45.160156 125.417969 45.160156 125.417969 L 45.777344 120.144531 L 45.996094 117.851562 L 53.570312 116.859375 L 59.121094 120.144531 "/>
<path style=" stroke:none;fill-rule:nonzero;fill:rgb(89.803922%,58.823529%,52.54902%);fill-opacity:1;" d="M 46.152344 122.71875 L 45.660156 127.105469 L 47.4375 129.882812 C 51.300781 130.992188 57.746094 129.125 59.960938 125.578125 L 59.53125 122.71875 L 46.152344 122.71875 "/>
<path style="fill:none;stroke-width:12;stroke-linecap:round;stroke-linejoin:round;stroke:rgb(13.72549%,12.156863%,12.54902%);stroke-opacity:1;stroke-miterlimit:10;" d="M 345.799809 604.512698 L 341.008347 563.439707 C 341.008347 563.439707 363.024809 510.744581 397.444485 499.943906 C 397.444485 499.943906 450.30219 525.895951 454.214206 563.439707 L 449.392419 604.512698 " transform="matrix(0.12881,0,0,-0.128392,1.234918,197.759039)"/>
<path style="fill:none;stroke-width:14;stroke-linecap:round;stroke-linejoin:round;stroke:rgb(13.72549%,12.156863%,12.54902%);stroke-opacity:1;stroke-miterlimit:10;" d="M 339.795319 598.671206 C 339.795319 598.671206 306.194437 607.555141 256.642234 555.590202 C 256.642234 555.590202 133.034658 517.955173 87.394471 496.384247 C 62.19381 484.488292 30.533773 463.008639 21.830296 403.620137 C 12.308024 338.816085 35.385886 213.284856 78.994251 7.00717 " transform="matrix(0.12881,0,0,-0.128392,1.234918,197.759039)"/>
<path style="fill:none;stroke-width:14;stroke-linecap:round;stroke-linejoin:round;stroke:rgb(13.72549%,12.156863%,12.54902%);stroke-opacity:1;stroke-miterlimit:10;" d="M 120.206885 377.363848 L 244.997163 7.00717 " transform="matrix(0.12881,0,0,-0.128392,1.234918,197.759039)"/>
<path style="fill:none;stroke-width:12;stroke-linecap:round;stroke-linejoin:round;stroke:rgb(13.72549%,12.156863%,12.54902%);stroke-opacity:1;stroke-miterlimit:10;" d="M 397.444485 70.685518 C 397.444485 70.685518 300.917764 337.599108 300.705484 448.039816 C 300.462879 561.218723 341.008347 581.390125 341.008347 581.390125 " transform="matrix(0.12881,0,0,-0.128392,1.234918,197.759039)"/>
<path style="fill:none;stroke-width:12;stroke-linecap:round;stroke-linejoin:round;stroke:rgb(13.72549%,12.156863%,12.54902%);stroke-opacity:1;stroke-miterlimit:10;" d="M 455.760817 581.390125 C 455.760817 581.390125 496.306286 561.218723 496.06368 448.039816 " transform="matrix(0.12881,0,0,-0.128392,1.234918,197.759039)"/>
<path style="fill:none;stroke-width:12;stroke-linecap:round;stroke-linejoin:round;stroke:rgb(13.72549%,12.156863%,12.54902%);stroke-opacity:1;stroke-miterlimit:10;" d="M 496.06368 448.039816 C 495.8514 337.599108 381.402187 17.351479 381.402187 17.351479 " transform="matrix(0.12881,0,0,-0.128392,1.234918,197.759039)"/>
<path style="fill:none;stroke-width:12;stroke-linecap:round;stroke-linejoin:round;stroke:rgb(13.72549%,12.156863%,12.54902%);stroke-opacity:1;stroke-miterlimit:10;" d="M 494.729349 425.586581 C 494.729349 425.586581 449.483396 469.671591 398.384582 489.112806 C 347.255443 469.671591 302.039815 425.586581 302.039815 425.586581 " transform="matrix(0.12881,0,0,-0.128392,1.234918,197.759039)"/>
<path style="fill:none;stroke-width:12;stroke-linecap:round;stroke-linejoin:round;stroke:rgb(13.72549%,12.156863%,12.54902%);stroke-opacity:1;stroke-miterlimit:10;" d="M 363.115787 471.801301 L 384.677363 425.586581 C 384.677363 425.586581 365.390214 257.339442 357.839114 207.108696 " transform="matrix(0.12881,0,0,-0.128392,1.234918,197.759039)"/>
<path style="fill:none;stroke-width:12;stroke-linecap:round;stroke-linejoin:round;stroke:rgb(13.72549%,12.156863%,12.54902%);stroke-opacity:1;stroke-miterlimit:10;" d="M 433.623052 471.801301 L 412.061475 425.586581 C 412.061475 425.586581 431.37895 257.339442 438.930051 207.108696 " transform="matrix(0.12881,0,0,-0.128392,1.234918,197.759039)"/>
<path style="fill:none;stroke-width:10;stroke-linecap:round;stroke-linejoin:round;stroke:rgb(13.72549%,12.156863%,12.54902%);stroke-opacity:1;stroke-miterlimit:10;" d="M 258.219171 553.52134 L 194.990075 480.472266 L 257.400377 454.489797 L 186.19562 399.725809 L 389.408173 47.86719 " transform="matrix(0.12881,0,0,-0.128392,1.234918,197.759039)"/>
<path style="fill:none;stroke-width:14;stroke-linecap:round;stroke-linejoin:round;stroke:rgb(13.72549%,12.156863%,12.54902%);stroke-opacity:1;stroke-miterlimit:10;" d="M 456.609937 598.671206 C 456.609937 598.671206 490.210819 607.555141 539.763022 555.590202 C 539.763022 555.590202 663.370598 517.955173 709.010785 496.384247 C 734.211446 484.488292 765.901808 460.179166 773.907795 397.839494 C 783.430066 323.96896 758.077776 199.502586 720.595204 7.00717 " transform="matrix(0.12881,0,0,-0.128392,1.234918,197.759039)"/>
<path style="fill:none;stroke-width:14;stroke-linecap:round;stroke-linejoin:round;stroke:rgb(13.72549%,12.156863%,12.54902%);stroke-opacity:1;stroke-miterlimit:10;" d="M 676.198371 377.363848 L 551.408093 7.00717 " transform="matrix(0.12881,0,0,-0.128392,1.234918,197.759039)"/>
<path style="fill:none;stroke-width:10;stroke-linecap:round;stroke-linejoin:round;stroke:rgb(13.72549%,12.156863%,12.54902%);stroke-opacity:1;stroke-miterlimit:10;" d="M 538.216411 553.52134 L 601.415181 480.472266 L 539.004879 454.489797 L 610.209636 399.725809 L 408.604345 28.66937 " transform="matrix(0.12881,0,0,-0.128392,1.234918,197.759039)"/>
<path style=" stroke:none;fill-rule:nonzero;fill:rgb(36.078431%,23.921569%,20%);fill-opacity:1;" d="M 7.550781 73.289062 C 7.550781 73.289062 3.453125 42.105469 9.691406 28.894531 C 14.449219 18.8125 22.449219 8.824219 41.769531 4.085938 C 62.625 -1.023438 76.28125 4.597656 79.429688 12.53125 C 79.429688 12.53125 92.207031 15.246094 97.105469 28.183594 C 103.683594 45.539062 97.21875 72.519531 97.21875 72.519531 L 85.984375 80.976562 L 22.601562 80.976562 L 7.550781 73.289062 "/>
<path style=" stroke:none;fill-rule:nonzero;fill:rgb(80.392157%,69.019608%,60%);fill-opacity:1;" d="M 9.757812 35.320312 C 14.519531 25.238281 22.515625 15.246094 41.839844 10.511719 C 62.691406 5.398438 76.347656 11.019531 79.5 18.953125 C 79.5 18.953125 91.347656 20.730469 96.246094 33.667969 C 98.023438 38.347656 98.847656 43.566406 99.113281 48.695312 C 99.316406 41.664062 98.707031 33.90625 96.179688 27.242188 C 91.277344 14.308594 79.429688 12.53125 79.429688 12.53125 C 76.28125 4.597656 62.625 -1.023438 41.769531 4.085938 C 22.449219 8.824219 14.449219 18.8125 9.691406 28.894531 C 6.820312 34.972656 6.355469 44.019531 6.6875 52.027344 C 6.832031 45.914062 7.640625 39.804688 9.757812 35.320312 "/>
<path style=" stroke:none;fill-rule:nonzero;fill:rgb(80.392157%,69.019608%,60%);fill-opacity:1;" d="M 19.386719 21.945312 C 19.386719 21.945312 31.84375 30.761719 47.078125 31.300781 C 47.078125 31.300781 52.632812 33.273438 41.519531 33.824219 C 30.40625 34.382812 18.683594 33.054688 11.636719 29.390625 L 19.386719 21.945312 "/>
<path style="fill-rule:nonzero;fill:rgb(98.823529%,81.568627%,70.588235%);fill-opacity:1;stroke-width:14;stroke-linecap:round;stroke-linejoin:round;stroke:rgb(13.72549%,12.156863%,12.54902%);stroke-opacity:1;stroke-miterlimit:10;" d="M 96.58316 956.18877 C 96.58316 956.18877 35.052303 1000.152082 11.944116 931.210307 C -14.621202 851.985072 71.989013 760.650911 126.939191 755.083239 " transform="matrix(0.12881,0,0,-0.128392,1.234918,197.759039)"/>
<path style=" stroke:none;fill-rule:nonzero;fill:rgb(89.803922%,58.823529%,52.54902%);fill-opacity:1;" d="M 7.136719 87.855469 C 8.765625 91.148438 11.855469 93.125 14.035156 92.273438 C 16.214844 91.421875 16.660156 88.0625 15.03125 84.769531 C 13.402344 81.476562 10.3125 79.5 8.132812 80.351562 C 5.953125 81.203125 5.507812 84.5625 7.136719 87.855469 "/>
<path style="fill:none;stroke-width:14;stroke-linecap:round;stroke-linejoin:round;stroke:rgb(13.72549%,12.156863%,12.54902%);stroke-opacity:1;stroke-miterlimit:10;" d="M 44.817181 923.360802 C 44.817181 923.360802 77.508291 937.021375 102.830255 883.961156 " transform="matrix(0.12881,0,0,-0.128392,1.234918,197.759039)"/>
<path style="fill-rule:nonzero;fill:rgb(98.823529%,81.568627%,70.588235%);fill-opacity:1;stroke-width:14;stroke-linecap:round;stroke-linejoin:round;stroke:rgb(13.72549%,12.156863%,12.54902%);stroke-opacity:1;stroke-miterlimit:10;" d="M 699.033628 955.884526 C 699.033628 955.884526 760.564484 999.878263 783.672672 930.936487 C 810.23799 851.680828 723.627775 760.377091 668.677596 754.809419 " transform="matrix(0.12881,0,0,-0.128392,1.234918,197.759039)"/>
<path style=" stroke:none;fill-rule:nonzero;fill:rgb(89.803922%,58.823529%,52.54902%);fill-opacity:1;" d="M 97.816406 87.894531 C 96.1875 91.183594 93.097656 93.164062 90.917969 92.3125 C 88.734375 91.460938 88.292969 88.101562 89.921875 84.808594 C 91.550781 81.515625 94.640625 79.535156 96.820312 80.390625 C 99 81.238281 99.445312 84.597656 97.816406 87.894531 "/>
<path style="fill:none;stroke-width:14;stroke-linecap:round;stroke-linejoin:round;stroke:rgb(13.72549%,12.156863%,12.54902%);stroke-opacity:1;stroke-miterlimit:10;" d="M 750.769281 920.957272 C 750.769281 920.957272 718.108496 934.435298 692.786532 882.166114 " transform="matrix(0.12881,0,0,-0.128392,1.234918,197.759039)"/>
<path style=" stroke:none;fill-rule:nonzero;fill:rgb(98.823529%,81.568627%,70.588235%);fill-opacity:1;" d="M 92.476562 68.578125 C 92.125 77.503906 90.464844 94.109375 85.140625 106.210938 C 79.933594 118.058594 68.386719 123.402344 56.28125 126.5 C 52.355469 127.316406 48.652344 126.5 48.652344 126.5 C 36.542969 123.402344 24.132812 117.625 19.789062 106.210938 C 15.085938 93.855469 12.808594 77.503906 12.457031 68.578125 C 13.742188 60.800781 17.652344 57.574219 21.320312 53.816406 C 21.320312 53.816406 27.25 49.855469 31.074219 49.203125 C 36.554688 48.269531 47.714844 44.273438 47.714844 44.273438 L 44.644531 50.140625 L 39.667969 54.851562 C 39.667969 54.851562 47.480469 54.160156 54.429688 50.800781 C 63.765625 46.292969 73.09375 38.585938 74.566406 36.636719 C 74.566406 36.636719 74.3125 51.710938 87.707031 61.746094 C 87.707031 61.746094 90.363281 63.445312 92.472656 66.660156 L 92.476562 68.578125 "/>
<path style="fill:none;stroke-width:14;stroke-linecap:round;stroke-linejoin:round;stroke:rgb(13.72549%,12.156863%,12.54902%);stroke-opacity:1;stroke-miterlimit:10;" d="M 366.572917 628.304608 C 366.572917 628.304608 377.277891 625.323013 396.746994 625.323013 C 416.216097 625.323013 426.890745 628.304608 426.890745 628.304608 " transform="matrix(0.12881,0,0,-0.128392,1.234918,197.759039)"/>
<path style="fill:none;stroke-width:12;stroke-linecap:round;stroke-linejoin:round;stroke:rgb(13.72549%,12.156863%,12.54902%);stroke-opacity:1;stroke-miterlimit:10;" d="M 373.699458 837.016249 C 373.699458 837.016249 380.795673 812.433303 376.064863 787.120171 " transform="matrix(0.12881,0,0,-0.128392,1.234918,197.759039)"/>
<path style=" stroke:none;fill-rule:nonzero;fill:rgb(89.803922%,58.823529%,52.54902%);fill-opacity:1;" d="M 53.15625 104.203125 C 52.804688 104.964844 51.519531 105.117188 50.289062 104.550781 C 49.054688 103.980469 48.34375 102.902344 48.695312 102.144531 C 49.050781 101.382812 50.335938 101.230469 51.566406 101.800781 C 52.796875 102.367188 53.511719 103.445312 53.15625 104.203125 "/>
<path style="fill:none;stroke-width:12;stroke-linecap:round;stroke-linejoin:round;stroke:rgb(13.72549%,12.156863%,12.54902%);stroke-opacity:1;stroke-miterlimit:10;" d="M 388.407425 801.115413 C 388.407425 801.115413 359.688982 768.500416 358.961165 756.756583 C 358.233348 745.01275 382.58489 725.449837 382.58489 725.449837 " transform="matrix(0.12881,0,0,-0.128392,1.234918,197.759039)"/>
<path style=" stroke:none;fill-rule:nonzero;fill:rgb(96.862745%,55.294118%,64.313725%);fill-opacity:1;" d="M 32.835938 96.351562 C 32.835938 98.304688 29.707031 99.882812 25.851562 99.882812 C 21.996094 99.882812 18.867188 98.304688 18.867188 96.351562 C 18.867188 94.402344 21.996094 92.824219 25.851562 92.824219 C 29.707031 92.824219 32.835938 94.402344 32.835938 96.351562 "/>
<path style=" stroke:none;fill-rule:nonzero;fill:rgb(96.862745%,55.294118%,64.313725%);fill-opacity:1;" d="M 72.746094 95.652344 C 72.746094 97.601562 75.871094 99.183594 79.726562 99.183594 C 83.582031 99.183594 86.710938 97.601562 86.710938 95.652344 C 86.710938 93.703125 83.582031 92.125 79.726562 92.125 C 75.871094 92.125 72.746094 93.703125 72.746094 95.652344 "/>
<path style=" stroke:none;fill-rule:nonzero;fill:rgb(13.72549%,12.156863%,12.54902%);fill-opacity:1;" d="M 45.144531 66.476562 C 45.390625 66.628906 45.152344 67.503906 44.273438 68.550781 C 43.414062 69.597656 41.921875 70.71875 40.203125 71.523438 C 36.761719 73.179688 32.566406 73.582031 31.007812 73.363281 C 29.519531 73.246094 27.789062 72.910156 26.535156 72.144531 C 25.914062 71.769531 25.425781 71.292969 25.21875 70.832031 C 25 70.367188 25.074219 69.976562 25.378906 69.75 C 26.023438 69.320312 26.625 69.574219 27.621094 69.863281 C 28.601562 70.175781 29.996094 70.539062 31.234375 70.636719 C 32.382812 70.824219 36.15625 70.558594 39.328125 69.425781 C 40.917969 68.882812 42.324219 68.136719 43.304688 67.488281 C 44.289062 66.847656 44.882812 66.3125 45.144531 66.476562 "/>
<path style="fill:none;stroke-width:14;stroke-linecap:round;stroke-linejoin:round;stroke:rgb(13.72549%,12.156863%,12.54902%);stroke-opacity:1;stroke-miterlimit:10;" d="M 708.343619 1006.145697 C 705.674957 1043.53733 680.898856 1052.99933 662.855061 1067.785607 C 562.446649 1150.205408 569.300259 1254.926322 569.300259 1254.926322 C 569.300259 1254.926322 405.450472 1100.09636 293.487966 1116.921073 C 336.914377 1141.595292 352.28951 1172.384823 364.541095 1196.876495 C 364.541095 1196.876495 277.779251 1157.476849 211.517584 1147.528058 C 149.683471 1138.21818 96.006972 1092.21643 87.12154 1006.145697 C 89.850853 936.625857 107.53074 809.269162 144.042889 713.036666 C 177.765074 624.13646 306.437043 555.012138 397.717417 555.012138 C 483.994049 555.012138 610.967778 620.759347 651.391944 713.036666 C 692.725881 807.291573 705.614306 936.625857 708.343619 1006.145697 " transform="matrix(0.12881,0,0,-0.128392,1.234918,197.759039)"/>
<path style="fill:none;stroke-width:14;stroke-linecap:round;stroke-linejoin:round;stroke:rgb(13.72549%,12.156863%,12.54902%);stroke-opacity:1;stroke-miterlimit:10;" d="M 325.693866 873.221329 C 321.508918 857.674442 297.672914 839.511053 266.77102 835.799271 C 214.064944 829.531837 194.626166 870.300583 194.626166 870.300583 " transform="matrix(0.12881,0,0,-0.128392,1.234918,197.759039)"/>
<path style=" stroke:none;fill-rule:nonzero;fill:rgb(13.72549%,12.156863%,12.54902%);fill-opacity:1;" d="M 59.957031 66.476562 C 60.21875 66.3125 60.8125 66.84375 61.796875 67.488281 C 62.777344 68.136719 64.183594 68.882812 65.769531 69.425781 C 68.941406 70.558594 72.71875 70.824219 73.867188 70.636719 C 75.105469 70.539062 76.496094 70.175781 77.480469 69.863281 C 78.476562 69.574219 79.074219 69.316406 79.722656 69.75 C 80.027344 69.976562 80.097656 70.367188 79.882812 70.832031 C 79.671875 71.289062 79.1875 71.769531 78.566406 72.144531 C 77.3125 72.910156 75.578125 73.246094 74.09375 73.363281 C 72.535156 73.582031 68.335938 73.179688 64.894531 71.519531 C 63.175781 70.71875 61.6875 69.597656 60.824219 68.550781 C 59.949219 67.503906 59.710938 66.628906 59.957031 66.476562 "/>
<path style="fill:none;stroke-width:14;stroke-linecap:round;stroke-linejoin:round;stroke:rgb(13.72549%,12.156863%,12.54902%);stroke-opacity:1;stroke-miterlimit:10;" d="M 51.428184 975.325741 C 51.428184 975.325741 10.063922 1204.147936 58.494074 1307.043383 C 95.430783 1385.568856 164.694695 1471.548317 314.685635 1508.453159 C 476.594577 1548.248323 582.613244 1504.467558 607.055762 1442.675525 C 607.055762 1442.675525 707.979711 1421.530541 746.008145 1320.764804 C 797.076634 1185.589029 741.428964 972.830938 741.428964 972.830938 " transform="matrix(0.12881,0,0,-0.128392,1.234918,197.759039)"/>
<path style="fill:none;stroke-width:10;stroke-linecap:round;stroke-linejoin:round;stroke:rgb(13.72549%,12.156863%,12.54902%);stroke-opacity:1;stroke-miterlimit:10;" d="M 95.400457 351.016285 C 95.400457 351.016285 132.24619 282.378754 157.992714 260.899101 " transform="matrix(0.12881,0,0,-0.128392,1.234918,197.759039)"/>
<path style="fill:none;stroke-width:10;stroke-linecap:round;stroke-linejoin:round;stroke:rgb(13.72549%,12.156863%,12.54902%);stroke-opacity:1;stroke-miterlimit:10;" d="M 704.188997 354.210851 C 704.188997 354.210851 668.920202 297.378001 640.292736 273.068876 " transform="matrix(0.12881,0,0,-0.128392,1.234918,197.759039)"/>
<path style="fill:none;stroke-width:10;stroke-linecap:round;stroke-linejoin:round;stroke:rgb(13.72549%,12.156863%,12.54902%);stroke-opacity:1;stroke-miterlimit:10;" d="M 386.830488 426.164645 C 386.830488 426.164645 401.053244 432.888446 412.061475 425.586581 " transform="matrix(0.12881,0,0,-0.128392,1.234918,197.759039)"/>
<path style="fill:none;stroke-width:10;stroke-linecap:round;stroke-linejoin:round;stroke:rgb(13.72549%,12.156863%,12.54902%);stroke-opacity:1;stroke-miterlimit:10;" d="M 188.075814 842.005857 L 207.484265 851.711252 " transform="matrix(0.12881,0,0,-0.128392,1.234918,197.759039)"/>
<path style="fill:none;stroke-width:14;stroke-linecap:round;stroke-linejoin:round;stroke:rgb(13.72549%,12.156863%,12.54902%);stroke-opacity:1;stroke-miterlimit:10;" d="M 470.49911 873.221329 C 474.684057 857.674442 498.520062 839.511053 529.421956 835.799271 C 582.097707 829.531837 601.56681 870.300583 601.56681 870.300583 " transform="matrix(0.12881,0,0,-0.128392,1.234918,197.759039)"/>
<path style="fill:none;stroke-width:10;stroke-linecap:round;stroke-linejoin:round;stroke:rgb(13.72549%,12.156863%,12.54902%);stroke-opacity:1;stroke-miterlimit:10;" d="M 608.086836 842.005857 L 588.678385 851.711252 " transform="matrix(0.12881,0,0,-0.128392,1.234918,197.759039)"/>
</g>
</svg>
