<?xml version="1.0" encoding="UTF-8"?>
<svg xmlns="http://www.w3.org/2000/svg" xmlns:xlink="http://www.w3.org/1999/xlink" width="236pt" height="200pt" viewBox="0 0 236 200" version="1.1">
<g id="surface1">
<path style=" stroke:none;fill-rule:nonzero;fill:rgb(30.980392%,29.803922%,29.803922%);fill-opacity:1;" d="M 40.121094 118.460938 C 40.121094 118.460938 16.59375 127.902344 13.097656 128.914062 C 7.222656 130.617188 2.894531 148.507812 2.894531 196.722656 L 78.09375 196.722656 C 78.09375 196.722656 91.207031 130.617188 85.332031 128.914062 C 81.835938 127.902344 58.308594 118.460938 58.308594 118.460938 L 40.554688 118.460938 "/>
<path style=" stroke:none;fill-rule:nonzero;fill:rgb(100%,100%,100%);fill-opacity:1;" d="M 44.121094 115.292969 C 44.121094 115.292969 38.144531 116.394531 37.148438 124.332031 C 36.445312 129.910156 37.753906 143.675781 43.082031 173.011719 L 55.683594 173.25 C 60.816406 145.027344 62.382812 129.925781 61.679688 124.332031 C 60.679688 116.394531 54.707031 115.292969 54.707031 115.292969 L 44.121094 115.292969 "/>
<path style=" stroke:none;fill-rule:nonzero;fill:rgb(32.54902%,54.901961%,77.254902%);fill-opacity:1;" d="M 43.082031 173.011719 L 42.851562 171.585938 L 47.425781 135.464844 L 46.257812 130.617188 L 46.238281 129.445312 L 49.414062 125.246094 L 52.644531 129.515625 L 52.566406 130.617188 L 51.398438 135.464844 L 56.074219 171.238281 L 55.683594 173.25 C 54.875 176.445312 49.417969 194.921875 49.417969 194.921875 C 49.417969 194.921875 43.929688 176.371094 43.082031 173.011719 "/>
<path style=" stroke:none;fill-rule:nonzero;fill:rgb(98.823529%,81.568627%,70.588235%);fill-opacity:1;" d="M 56.0625 113.363281 C 56.0625 113.363281 56.289062 117.054688 56.234375 118.960938 C 56.234375 118.960938 54.234375 123.804688 49.394531 125.246094 C 44.558594 123.804688 42.558594 118.960938 42.558594 118.960938 C 42.582031 118.988281 42.355469 113.363281 42.355469 113.363281 "/>
<path style=" stroke:none;fill-rule:nonzero;fill:rgb(48.235294%,29.411765%,29.411765%);fill-opacity:1;" d="M 7.699219 65.996094 C 5.480469 59.75 5.898438 56.167969 5.898438 56.167969 L 4.132812 59.554688 C -3.960938 27.898438 13.140625 22.164062 13.140625 22.164062 C 13.140625 22.164062 6.371094 20.066406 6.558594 13.386719 C 6.558594 13.386719 15.882812 15.613281 26.152344 9.589844 C 35.65625 4.011719 49.144531 0.199219 62.792969 2.8125 C 75.105469 5.167969 77.5 13.925781 77.5 13.925781 C 77.5 13.925781 89.730469 15.6875 94.339844 28.902344 C 99.300781 43.121094 95.125 56.875 95.125 56.875 L 93.847656 53.097656 C 93.847656 53.097656 93.578125 58.703125 90.421875 66.148438 L 89.074219 69.945312 L 9.527344 71.691406 L 7.699219 65.996094 "/>
<path style=" stroke:none;fill-rule:nonzero;fill:rgb(78.039216%,58.039216%,52.156863%);fill-opacity:1;" d="M 7.875 66.546875 L 9.527344 71.691406 L 11.941406 71.636719 L 7.917969 66.582031 C 7.910156 66.582031 7.890625 66.558594 7.875 66.546875 Z M 94.339844 28.902344 C 89.730469 15.6875 77.5 13.925781 77.5 13.925781 C 77.5 13.925781 75.105469 5.167969 62.792969 2.8125 C 49.144531 0.199219 35.65625 4.011719 26.152344 9.589844 C 15.882812 15.613281 6.558594 13.386719 6.558594 13.386719 C 6.371094 20.066406 13.140625 22.164062 13.140625 22.164062 C 13.140625 22.164062 -3.960938 27.898438 4.132812 59.554688 L 4.421875 59 C 4.347656 58.671875 4.289062 58.359375 4.261719 58.070312 C 1.78125 29.777344 17.222656 22.265625 17.222656 22.265625 C 17.222656 22.265625 18.851562 17.089844 29.121094 11.0625 C 38.625 5.488281 51.058594 2.703125 64.792969 4.804688 C 78.3125 6.875 78.203125 18.027344 78.203125 18.027344 C 78.203125 18.027344 91.039062 20.523438 95.714844 33.8125 C 95.363281 32.195312 94.914062 30.550781 94.339844 28.902344 "/>
<path style=" stroke:none;fill-rule:nonzero;fill:rgb(98.823529%,81.568627%,70.588235%);fill-opacity:1;" d="M 16.796875 89.089844 C 5.699219 89.613281 0.738281 74.253906 4.65625 68.75 C 7.480469 64.78125 13.1875 67.332031 14.253906 69.507812 "/>
<path style=" stroke:none;fill-rule:nonzero;fill:rgb(87.058824%,57.254902%,51.764706%);fill-opacity:1;" d="M 14.003906 75.703125 C 15.050781 78.710938 16.402344 83.15625 14.351562 83.875 C 12.300781 84.59375 9.789062 82.738281 8.742188 79.730469 C 7.695312 76.722656 8.507812 73.699219 10.558594 72.980469 C 12.609375 72.261719 12.957031 72.695312 14.003906 75.703125 "/>
<path style=" stroke:none;fill-rule:nonzero;fill:rgb(98.823529%,81.568627%,70.588235%);fill-opacity:1;" d="M 82.070312 89.089844 C 93.164062 89.613281 98.125 74.253906 94.210938 68.75 C 91.382812 64.78125 85.679688 67.332031 84.609375 69.507812 "/>
<path style=" stroke:none;fill-rule:nonzero;fill:rgb(87.058824%,57.254902%,51.764706%);fill-opacity:1;" d="M 42.582031 111.394531 L 55.84375 111.394531 L 55.988281 116.441406 C 55.988281 116.441406 50.652344 121.421875 42.207031 119.105469 L 42.460938 116.566406 L 42.582031 111.394531 "/>
<path style=" stroke:none;fill-rule:nonzero;fill:rgb(98.823529%,81.568627%,70.588235%);fill-opacity:1;" d="M 28.226562 33.925781 C 14.96875 37.226562 14.316406 59.554688 14.316406 59.554688 C 14.011719 71.453125 14.546875 91.910156 21.757812 99.699219 C 28.917969 107.433594 35.855469 111.226562 41.992188 113.058594 C 41.992188 113.058594 49.5625 115.589844 56.875 113.058594 C 63.007812 111.226562 69.945312 107.433594 77.109375 99.699219 C 84.964844 91.210938 84.894531 67.484375 84.453125 56.601562 C 84.320312 53.378906 82.554688 49.691406 81.785156 48.773438 C 70.582031 35.394531 70.613281 27.121094 70.613281 27.121094 L 69.035156 29.023438 C 66.144531 31.917969 60.828125 34.800781 51.09375 36.238281 C 51.09375 36.238281 54.574219 24.363281 57.359375 22.269531 C 57.359375 22.269531 45.175781 37.808594 25.332031 41.476562 C 25.332031 41.476562 25.957031 38.78125 27.578125 35.265625 L 28.226562 33.925781 "/>
<path style=" stroke:none;fill-rule:nonzero;fill:rgb(13.72549%,12.156863%,12.54902%);fill-opacity:1;" d="M 39.4375 50.460938 C 39.003906 50.824219 37.867188 50.105469 36.226562 49.105469 C 34.605469 48.121094 32.339844 46.875 30.191406 47.191406 C 28.023438 47.445312 26.164062 49.195312 25.058594 50.578125 C 23.902344 51.984375 23.46875 53.046875 22.929688 53.097656 C 22.667969 53.113281 22.371094 52.765625 22.253906 52.070312 C 22.136719 51.390625 22.207031 50.398438 22.59375 49.28125 C 22.980469 48.164062 23.671875 46.898438 24.820312 45.738281 C 25.949219 44.589844 27.640625 43.53125 29.683594 43.273438 C 31.722656 43 33.625 43.59375 34.992188 44.386719 C 36.386719 45.1875 37.367188 46.15625 38.074219 47.019531 C 39.476562 48.773438 39.835938 50.132812 39.4375 50.460938 "/>
<path style=" stroke:none;fill-rule:nonzero;fill:rgb(13.72549%,12.156863%,12.54902%);fill-opacity:1;" d="M 59.429688 50.460938 C 59.027344 50.132812 59.390625 48.773438 60.789062 47.019531 C 61.496094 46.15625 62.476562 45.1875 63.871094 44.386719 C 65.238281 43.59375 67.140625 43 69.183594 43.273438 C 71.222656 43.53125 72.914062 44.589844 74.046875 45.738281 C 75.191406 46.898438 75.882812 48.164062 76.269531 49.28125 C 76.65625 50.398438 76.726562 51.390625 76.609375 52.070312 C 76.492188 52.765625 76.195312 53.113281 75.933594 53.097656 C 75.394531 53.046875 74.960938 51.984375 73.808594 50.578125 C 72.699219 49.195312 70.839844 47.445312 68.675781 47.191406 C 66.523438 46.875 64.261719 48.121094 62.636719 49.105469 C 60.996094 50.105469 59.859375 50.824219 59.429688 50.460938 "/>
<path style=" stroke:none;fill-rule:nonzero;fill:rgb(96.862745%,57.647059%,61.176471%);fill-opacity:1;" d="M 32.578125 78.980469 C 32.578125 80.414062 29.359375 81.578125 25.386719 81.578125 C 21.414062 81.578125 18.191406 80.414062 18.191406 78.980469 C 18.191406 77.542969 21.414062 76.382812 25.386719 76.382812 C 29.359375 76.382812 32.578125 77.542969 32.578125 78.980469 "/>
<path style=" stroke:none;fill-rule:nonzero;fill:rgb(96.862745%,57.647059%,61.176471%);fill-opacity:1;" d="M 81.339844 78.980469 C 81.339844 80.414062 78.121094 81.578125 74.148438 81.578125 C 70.171875 81.578125 66.953125 80.414062 66.953125 78.980469 C 66.953125 77.542969 70.171875 76.382812 74.148438 76.382812 C 78.121094 76.382812 81.339844 77.542969 81.339844 78.980469 "/>
<path style=" stroke:none;fill-rule:nonzero;fill:rgb(87.058824%,57.254902%,51.764706%);fill-opacity:1;" d="M 84.859375 75.703125 C 83.8125 78.710938 82.464844 83.15625 84.511719 83.875 C 86.566406 84.59375 89.074219 82.738281 90.121094 79.730469 C 91.171875 76.722656 90.355469 73.699219 88.308594 72.980469 C 86.253906 72.261719 85.90625 72.695312 84.859375 75.703125 "/>
<path style=" stroke:none;fill-rule:nonzero;fill:rgb(78.039216%,58.039216%,52.156863%);fill-opacity:1;" d="M 43.214844 20.582031 C 43.214844 20.582031 30.992188 23.472656 25.976562 41.042969 L 30.121094 40.203125 C 30.121094 40.203125 34.222656 26.976562 43.214844 20.582031 "/>
<path style=" stroke:none;fill-rule:nonzero;fill:rgb(78.039216%,58.039216%,52.156863%);fill-opacity:1;" d="M 60.484375 20.828125 C 60.484375 20.828125 55.234375 21.921875 51.738281 35.890625 L 55.175781 35.320312 C 55.175781 35.320312 56.351562 25.542969 60.484375 20.828125 "/>
<path style=" stroke:none;fill-rule:nonzero;fill:rgb(65.490196%,64.705882%,65.098039%);fill-opacity:1;" d="M 2.59375 196.722656 C 2.59375 196.722656 3.371094 159.929688 5.199219 147.441406 C 7.027344 134.957031 11.8125 129.367188 11.8125 129.367188 C 11.8125 129.367188 31.023438 121.09375 38.335938 119.785156 L 37.011719 124.152344 C 37.011719 124.152344 16.046875 129.535156 12.074219 134.519531 C 7.917969 139.730469 5.640625 196.722656 5.640625 196.722656 L 2.59375 196.722656 "/>
<path style=" stroke:none;fill-rule:nonzero;fill:rgb(65.490196%,64.705882%,65.098039%);fill-opacity:1;" d="M 60.441406 119.71875 C 60.441406 119.71875 85.332031 128.714844 86.289062 129.238281 C 86.828125 129.535156 87.894531 130.660156 89.109375 132.964844 C 89.085938 132.875 88.703125 135.234375 88.648438 135.25 C 87.335938 133.683594 85.683594 132.203125 83.765625 131.507812 C 80.660156 130.378906 61.648438 123.484375 61.648438 123.484375 L 60.441406 119.71875 "/>
<path style="fill:none;stroke-width:16;stroke-linecap:round;stroke-linejoin:round;stroke:rgb(13.72549%,12.156863%,12.54902%);stroke-opacity:1;stroke-miterlimit:10;" d="M 627.773611 1047.330994 C 605.144758 1012.1776 553.117099 949.36374 462.639093 949.36374 C 372.123683 949.36374 320.096024 1012.1776 297.429769 1047.330994 " transform="matrix(0.104437,0,0,-0.104786,1.226498,198.76546)"/>
<path style=" stroke:none;fill-rule:nonzero;fill:rgb(76.078431%,81.568627%,83.921569%);fill-opacity:1;" d="M 47.425781 134.839844 L 46.375 129.503906 L 40.308594 136.652344 L 47.425781 134.839844 "/>
<path style=" stroke:none;fill-rule:nonzero;fill:rgb(76.078431%,81.568627%,83.921569%);fill-opacity:1;" d="M 51.765625 134.839844 L 52.816406 129.503906 L 58.882812 136.652344 L 51.765625 134.839844 "/>
<path style=" stroke:none;fill-rule:nonzero;fill:rgb(30.980392%,29.803922%,29.803922%);fill-opacity:1;" d="M 196.585938 173.667969 C 196.585938 173.667969 205.75 170.222656 205.984375 163.195312 C 206.46875 148.59375 205.105469 141.570312 201.226562 140.476562 C 198.386719 139.679688 181.796875 133.570312 176.308594 131.441406 L 164.449219 131.371094 C 158.960938 133.503906 142.023438 139.679688 139.183594 140.476562 C 133.441406 142.097656 131.234375 163.714844 134.015625 196.722656 L 192.757812 196.722656 L 196.585938 173.667969 "/>
<path style=" stroke:none;fill-rule:nonzero;fill:rgb(98.823529%,81.568627%,70.588235%);fill-opacity:1;" d="M 165.480469 129.035156 L 164.984375 134.371094 C 164.984375 134.371094 167.988281 138.476562 170.640625 138.476562 C 174.558594 138.476562 176.171875 133.082031 176.171875 133.082031 L 175.941406 128.8125 "/>
<path style=" stroke:none;fill-rule:nonzero;fill:rgb(65.490196%,64.705882%,65.098039%);fill-opacity:1;" d="M 134.246094 196.722656 C 134.246094 196.722656 131.828125 166.828125 133.203125 154.28125 C 134.160156 145.550781 137.726562 141.449219 137.726562 141.449219 C 137.726562 141.449219 157.570312 132.714844 164.882812 131.40625 L 164.449219 135.421875 C 164.449219 135.421875 141.457031 141.980469 139.035156 145.289062 C 133.203125 153.234375 136.597656 196.722656 136.597656 196.722656 L 134.246094 196.722656 "/>
<path style=" stroke:none;fill-rule:nonzero;fill:rgb(65.490196%,64.705882%,65.098039%);fill-opacity:1;" d="M 176.085938 131.363281 C 176.085938 131.363281 200.976562 140.355469 201.933594 140.878906 C 202.472656 141.175781 204.222656 142.289062 205.4375 144.589844 C 205.414062 144.503906 206.015625 147.894531 205.960938 147.910156 C 204.648438 146.34375 202.917969 144.066406 201 143.367188 C 197.894531 142.238281 177.292969 135.128906 177.292969 135.128906 L 176.085938 131.363281 "/>
<path style=" stroke:none;fill-rule:nonzero;fill:rgb(85.490196%,56.470588%,48.235294%);fill-opacity:1;" d="M 165.472656 124.898438 L 175.941406 124.898438 L 176.03125 130.007812 C 176.03125 130.007812 174.742188 134.734375 164.746094 134.335938 L 165.140625 130.941406 L 165.472656 124.898438 "/>
<path style=" stroke:none;fill-rule:nonzero;fill:rgb(100%,100%,100%);fill-opacity:1;" d="M 170.554688 188.6875 C 178.15625 158.25 177.207031 140.710938 176.53125 134.941406 L 176.171875 133.082031 C 176.171875 133.082031 174.558594 138.476562 170.640625 138.476562 C 167.988281 138.476562 164.984375 134.371094 164.984375 134.371094 L 164.621094 135.203125 C 163.925781 141.277344 163.082031 158.761719 170.554688 188.6875 "/>
<path style=" stroke:none;fill-rule:nonzero;fill:rgb(76.078431%,81.568627%,83.921569%);fill-opacity:1;" d="M 166.398438 143.691406 C 166.398438 143.691406 170.15625 138.695312 170.78125 138.664062 C 171.40625 138.636719 174.277344 143.691406 174.277344 143.691406 C 174.277344 143.691406 171.34375 140.851562 166.398438 143.691406 "/>
<path style=" stroke:none;fill-rule:nonzero;fill:rgb(100%,100%,100%);fill-opacity:1;" d="M 39.417969 66.039062 C 39.417969 70.800781 36.46875 74.660156 32.832031 74.660156 C 29.191406 74.660156 26.242188 70.800781 26.242188 66.039062 C 26.242188 61.277344 29.191406 57.417969 32.832031 57.417969 C 36.46875 57.417969 39.417969 61.277344 39.417969 66.039062 "/>
<path style=" stroke:none;fill-rule:nonzero;fill:rgb(13.72549%,12.156863%,12.54902%);fill-opacity:1;" d="M 38.390625 67.285156 C 38.390625 70.527344 36.570312 73.15625 34.328125 73.15625 C 32.085938 73.15625 30.265625 70.527344 30.265625 67.285156 C 30.265625 64.039062 32.085938 61.410156 34.328125 61.410156 C 36.570312 61.410156 38.390625 64.039062 38.390625 67.285156 "/>
<path style=" stroke:none;fill-rule:nonzero;fill:rgb(100%,100%,100%);fill-opacity:1;" d="M 38.320312 65.316406 C 38.320312 65.980469 37.785156 66.519531 37.121094 66.519531 C 36.457031 66.519531 35.917969 65.980469 35.917969 65.316406 C 35.917969 64.652344 36.457031 64.113281 37.121094 64.113281 C 37.785156 64.113281 38.320312 64.652344 38.320312 65.316406 "/>
<path style=" stroke:none;fill-rule:nonzero;fill:rgb(84.705882%,89.803922%,96.470588%);fill-opacity:1;" d="M 33.476562 60.285156 C 35.144531 60.285156 36.734375 60.585938 38.199219 61.121094 C 36.882812 59.195312 34.972656 57.976562 32.84375 57.976562 C 30.4375 57.976562 28.3125 59.527344 27.003906 61.898438 C 28.910156 60.878906 31.117188 60.285156 33.476562 60.285156 "/>
<path style="fill:none;stroke-width:16;stroke-linecap:round;stroke-linejoin:round;stroke:rgb(13.72549%,12.156863%,12.54902%);stroke-opacity:1;stroke-miterlimit:10;" d="M 358.808193 1314.355134 C 334.571009 1365.463622 239.455023 1369.974291 235.826926 1269.173889 " transform="matrix(0.104437,0,0,-0.104786,1.226498,198.76546)"/>
<path style=" stroke:none;fill-rule:nonzero;fill:rgb(100%,100%,100%);fill-opacity:1;" d="M 59.226562 66.039062 C 59.226562 70.800781 62.175781 74.660156 65.816406 74.660156 C 69.453125 74.660156 72.40625 70.800781 72.40625 66.039062 C 72.40625 61.277344 69.453125 57.417969 65.816406 57.417969 C 62.175781 57.417969 59.226562 61.277344 59.226562 66.039062 "/>
<path style=" stroke:none;fill-rule:nonzero;fill:rgb(13.72549%,12.156863%,12.54902%);fill-opacity:1;" d="M 60.253906 67.285156 C 60.253906 70.527344 62.074219 73.15625 64.316406 73.15625 C 66.5625 73.15625 68.378906 70.527344 68.378906 67.285156 C 68.378906 64.039062 66.5625 61.410156 64.316406 61.410156 C 62.074219 61.410156 60.253906 64.039062 60.253906 67.285156 "/>
<path style=" stroke:none;fill-rule:nonzero;fill:rgb(100%,100%,100%);fill-opacity:1;" d="M 65.894531 65.316406 C 65.894531 65.980469 66.433594 66.519531 67.09375 66.519531 C 67.757812 66.519531 68.296875 65.980469 68.296875 65.316406 C 68.296875 64.652344 67.757812 64.113281 67.09375 64.113281 C 66.433594 64.113281 65.894531 64.652344 65.894531 65.316406 "/>
<path style=" stroke:none;fill-rule:nonzero;fill:rgb(84.705882%,89.803922%,96.470588%);fill-opacity:1;" d="M 65.082031 60.285156 C 63.417969 60.285156 61.828125 60.585938 60.363281 61.121094 C 61.679688 59.195312 63.589844 57.976562 65.71875 57.976562 C 68.125 57.976562 70.25 59.527344 71.554688 61.898438 C 69.648438 60.878906 67.441406 60.285156 65.082031 60.285156 "/>
<path style="fill:none;stroke-width:16;stroke-linecap:round;stroke-linejoin:round;stroke:rgb(13.72549%,12.156863%,12.54902%);stroke-opacity:1;stroke-miterlimit:10;" d="M 562.280849 1314.355134 C 586.518033 1365.463622 681.63402 1369.974291 685.262117 1269.173889 " transform="matrix(0.104437,0,0,-0.104786,1.226498,198.76546)"/>
<path style="fill:none;stroke-width:14;stroke-linecap:round;stroke-linejoin:round;stroke:rgb(13.72549%,12.156863%,12.54902%);stroke-opacity:1;stroke-miterlimit:10;" d="M 680.811152 1699.364951 C 680.811152 1699.364951 704.150663 1584.361535 477.488108 1551.034775 C 477.488108 1551.034775 510.814236 1664.36067 537.482619 1684.341814 C 537.482619 1684.341814 420.82247 1536.048916 230.814916 1501.044635 C 230.814916 1501.044635 264.141044 1644.379525 377.472321 1696.047186 " transform="matrix(0.104437,0,0,-0.104786,1.226498,198.76546)"/>
<path style="fill:none;stroke-width:14;stroke-linecap:round;stroke-linejoin:round;stroke:rgb(13.72549%,12.156863%,12.54902%);stroke-opacity:1;stroke-miterlimit:10;" d="M 456.168363 1157.935577 C 456.168363 1157.935577 413.641082 1141.272197 417.830225 1121.253774 C 421.981965 1101.272629 436.980592 1078.756563 436.980592 1078.756563 " transform="matrix(0.104437,0,0,-0.104786,1.226498,198.76546)"/>
<path style="fill:none;stroke-width:14;stroke-linecap:round;stroke-linejoin:round;stroke:rgb(13.72549%,12.156863%,12.54902%);stroke-opacity:1;stroke-miterlimit:10;" d="M 435.334858 1235.437069 C 435.334858 1235.437069 447.82748 1178.774121 444.498608 1153.760412 " transform="matrix(0.104437,0,0,-0.104786,1.226498,198.76546)"/>
<path style="fill:none;stroke-width:14;stroke-linecap:round;stroke-linejoin:round;stroke:rgb(13.72549%,12.156863%,12.54902%);stroke-opacity:1;stroke-miterlimit:10;" d="M 149.089226 1046.659986 C 42.827127 1041.664699 -4.674761 1188.242798 32.84051 1240.767859 C 59.882923 1278.642566 114.528797 1254.299866 124.739832 1233.535878 " transform="matrix(0.104437,0,0,-0.104786,1.226498,198.76546)"/>
<path style="fill:none;stroke-width:14;stroke-linecap:round;stroke-linejoin:round;stroke:rgb(13.72549%,12.156863%,12.54902%);stroke-opacity:1;stroke-miterlimit:10;" d="M 129.115991 1167.926149 C 129.115991 1167.926149 93.545679 1240.730581 53.187775 1206.583699 " transform="matrix(0.104437,0,0,-0.104786,1.226498,198.76546)"/>
<path style="fill:none;stroke-width:14;stroke-linecap:round;stroke-linejoin:round;stroke:rgb(13.72549%,12.156863%,12.54902%);stroke-opacity:1;stroke-miterlimit:10;" d="M 774.094388 1046.659986 C 880.319084 1041.664699 927.820972 1188.242798 890.343104 1240.767859 C 863.263288 1278.642566 808.654817 1254.299866 798.406379 1233.535878 " transform="matrix(0.104437,0,0,-0.104786,1.226498,198.76546)"/>
<path style="fill:none;stroke-width:14;stroke-linecap:round;stroke-linejoin:round;stroke:rgb(13.72549%,12.156863%,12.54902%);stroke-opacity:1;stroke-miterlimit:10;" d="M 794.03022 1167.926149 C 794.03022 1167.926149 829.637935 1240.730581 869.958436 1206.583699 " transform="matrix(0.104437,0,0,-0.104786,1.226498,198.76546)"/>
<path style="fill:none;stroke-width:14;stroke-linecap:round;stroke-linejoin:round;stroke:rgb(13.72549%,12.156863%,12.54902%);stroke-opacity:1;stroke-miterlimit:10;" d="M 664.391208 1638.042222 C 664.391208 1638.042222 664.091984 1559.086878 771.363965 1431.408855 C 778.732368 1422.648465 795.638552 1387.457792 796.910256 1356.703232 C 801.136802 1252.846014 801.810057 1026.417893 726.5925 945.412245 C 657.995285 871.601301 591.567447 835.404115 532.84464 817.920613 C 462.826108 793.764304 390.338974 817.920613 390.338974 817.920613 C 331.578764 835.404115 265.150926 871.601301 196.591114 945.412245 C 127.545062 1019.745086 122.420843 1214.971307 125.338281 1328.520871 C 125.338281 1328.520871 131.584593 1541.603376 258.530585 1573.103502 " transform="matrix(0.104437,0,0,-0.104786,1.226498,198.76546)"/>
<path style="fill:none;stroke-width:14;stroke-linecap:round;stroke-linejoin:round;stroke:rgb(13.72549%,12.156863%,12.54902%);stroke-opacity:1;stroke-miterlimit:10;" d="M 53.748821 1378.622846 C 39.909688 1350.999659 27.828499 1328.520871 27.828499 1328.520871 C -49.670645 1630.623849 114.07996 1685.348327 114.07996 1685.348327 C 114.07996 1685.348327 49.260454 1705.36675 51.055801 1769.112566 C 51.055801 1769.112566 140.336909 1747.863961 238.669559 1805.34703 C 329.671208 1858.580378 458.82398 1894.963955 589.510278 1870.024802 C 707.404729 1847.546014 730.332806 1763.968167 730.332806 1763.968167 C 730.332806 1763.968167 847.441793 1747.155674 891.577405 1621.043337 C 939.079294 1485.35049 899.095421 1354.093754 899.095421 1354.093754 C 899.095421 1354.093754 888.248533 1387.606905 874.820834 1423.580421 " transform="matrix(0.104437,0,0,-0.104786,1.226498,198.76546)"/>
<path style="fill:none;stroke-width:14;stroke-linecap:round;stroke-linejoin:round;stroke:rgb(13.72549%,12.156863%,12.54902%);stroke-opacity:1;stroke-miterlimit:10;" d="M 44.734683 1360.841118 C 44.734683 1360.841118 40.732556 1326.656958 61.977495 1267.049029 " transform="matrix(0.104437,0,0,-0.104786,1.226498,198.76546)"/>
<path style="fill:none;stroke-width:14;stroke-linecap:round;stroke-linejoin:round;stroke:rgb(13.72549%,12.156863%,12.54902%);stroke-opacity:1;stroke-miterlimit:10;" d="M 886.86462 1390.141826 C 886.86462 1390.141826 884.283808 1336.647531 854.062134 1265.595177 " transform="matrix(0.104437,0,0,-0.104786,1.226498,198.76546)"/>
<path style=" stroke:none;fill-rule:nonzero;fill:rgb(13.72549%,12.156863%,12.54902%);fill-opacity:1;" d="M 39.4375 50.460938 C 39.003906 50.824219 37.867188 50.105469 36.226562 49.105469 C 34.605469 48.121094 32.339844 46.875 30.191406 47.191406 C 28.023438 47.445312 26.164062 49.195312 25.058594 50.578125 C 23.902344 51.984375 23.46875 53.046875 22.929688 53.097656 C 22.667969 53.113281 22.371094 52.765625 22.253906 52.070312 C 22.136719 51.390625 22.207031 50.398438 22.59375 49.28125 C 22.980469 48.164062 23.671875 46.898438 24.820312 45.738281 C 25.949219 44.589844 27.640625 43.53125 29.683594 43.273438 C 31.722656 43 33.625 43.59375 34.992188 44.386719 C 36.386719 45.1875 37.367188 46.15625 38.074219 47.019531 C 39.476562 48.773438 39.835938 50.132812 39.4375 50.460938 "/>
<path style=" stroke:none;fill-rule:nonzero;fill:rgb(13.72549%,12.156863%,12.54902%);fill-opacity:1;" d="M 59.429688 50.460938 C 59.027344 50.132812 59.390625 48.773438 60.789062 47.019531 C 61.496094 46.15625 62.476562 45.1875 63.871094 44.386719 C 65.238281 43.59375 67.140625 43 69.183594 43.273438 C 71.222656 43.53125 72.914062 44.589844 74.046875 45.738281 C 75.191406 46.898438 75.882812 48.164062 76.269531 49.28125 C 76.65625 50.398438 76.726562 51.390625 76.609375 52.070312 C 76.492188 52.765625 76.195312 53.113281 75.933594 53.097656 C 75.394531 53.046875 74.960938 51.984375 73.808594 50.578125 C 72.699219 49.195312 70.839844 47.445312 68.675781 47.191406 C 66.523438 46.875 64.261719 48.121094 62.636719 49.105469 C 60.996094 50.105469 59.859375 50.824219 59.429688 50.460938 "/>
<path style="fill:none;stroke-width:14;stroke-linecap:round;stroke-linejoin:round;stroke:rgb(13.72549%,12.156863%,12.54902%);stroke-opacity:1;stroke-miterlimit:10;" d="M 391.722888 789.104522 C 374.180852 779.263063 349.868861 757.343449 343.959178 710.33557 C 336.478565 651.025866 360.304316 388.549673 460.993358 34.518086 " transform="matrix(0.104437,0,0,-0.104786,1.226498,198.76546)"/>
<path style="fill:none;stroke-width:14;stroke-linecap:round;stroke-linejoin:round;stroke:rgb(13.72549%,12.156863%,12.54902%);stroke-opacity:1;stroke-miterlimit:10;" d="M 527.683017 790.8566 C 545.337262 781.984376 572.529288 760.437544 578.850406 710.33557 C 586.331018 651.025866 561.719803 388.549673 460.993358 34.518086 " transform="matrix(0.104437,0,0,-0.104786,1.226498,198.76546)"/>
<path style="fill:none;stroke-width:12;stroke-linecap:round;stroke-linejoin:round;stroke:rgb(13.72549%,12.156863%,12.54902%);stroke-opacity:1;stroke-miterlimit:10;" d="M 343.62255 755.554093 L 222.474033 666.720011 L 271.359835 579.227947 L 195.132395 514.624731 C 195.132395 514.624731 304.835575 178.971324 390.338974 64.601638 " transform="matrix(0.104437,0,0,-0.104786,1.226498,198.76546)"/>
<path style="fill:none;stroke-width:14;stroke-linecap:round;stroke-linejoin:round;stroke:rgb(13.72549%,12.156863%,12.54902%);stroke-opacity:1;stroke-miterlimit:10;" d="M 525.925073 815.907588 C 525.925073 815.907588 526.747941 779.673124 529.17914 762.562405 C 529.17914 762.562405 507.56017 715.368134 461.217776 701.612458 C 414.912786 715.368134 391.498469 762.152344 391.498469 762.152344 C 392.695367 782.09621 393.106801 815.907588 393.106801 815.907588 " transform="matrix(0.104437,0,0,-0.104786,1.226498,198.76546)"/>
<path style="fill:none;stroke-width:14;stroke-linecap:round;stroke-linejoin:round;stroke:rgb(13.72549%,12.156863%,12.54902%);stroke-opacity:1;stroke-miterlimit:10;" d="M 564.225809 759.319197 C 617.974008 737.921478 777.572873 674.623002 805.325945 666.608177 " transform="matrix(0.104437,0,0,-0.104786,1.226498,198.76546)"/>
<path style="fill:none;stroke-width:12;stroke-linecap:round;stroke-linejoin:round;stroke:rgb(13.72549%,12.156863%,12.54902%);stroke-opacity:1;stroke-miterlimit:10;" d="M 589.211054 749.030398 L 708.377209 666.720011 L 659.454004 579.227947 L 735.681444 514.624731 C 735.681444 514.624731 587.415707 162.941674 507.260945 60.314639 " transform="matrix(0.104437,0,0,-0.104786,1.226498,198.76546)"/>
<path style="fill:none;stroke-width:12;stroke-linecap:round;stroke-linejoin:round;stroke:rgb(13.72549%,12.156863%,12.54902%);stroke-opacity:1;stroke-miterlimit:10;" d="M 431.183118 657.064943 L 442.366633 604.092543 L 399.764546 268.252745 " transform="matrix(0.104437,0,0,-0.104786,1.226498,198.76546)"/>
<path style="fill:none;stroke-width:12;stroke-linecap:round;stroke-linejoin:round;stroke:rgb(13.72549%,12.156863%,12.54902%);stroke-opacity:1;stroke-miterlimit:10;" d="M 491.589063 657.064943 L 480.405547 604.092543 L 523.493874 273.248031 " transform="matrix(0.104437,0,0,-0.104786,1.226498,198.76546)"/>
<path style="fill:none;stroke-width:12;stroke-linecap:round;stroke-linejoin:round;stroke:rgb(13.72549%,12.156863%,12.54902%);stroke-opacity:1;stroke-miterlimit:10;" d="M 826.15945 515.183905 L 740.319424 19.49495 " transform="matrix(0.104437,0,0,-0.104786,1.226498,198.76546)"/>
<path style="fill:none;stroke-width:10;stroke-linecap:round;stroke-linejoin:round;stroke:rgb(13.72549%,12.156863%,12.54902%);stroke-opacity:1;stroke-miterlimit:10;" d="M 856.007094 451.549924 C 856.007094 451.549924 837.716996 347.729984 782.136047 295.91321 " transform="matrix(0.104437,0,0,-0.104786,1.226498,198.76546)"/>
<path style="fill:none;stroke-width:14;stroke-linecap:round;stroke-linejoin:round;stroke:rgb(13.72549%,12.156863%,12.54902%);stroke-opacity:1;stroke-miterlimit:10;" d="M 355.217499 759.319197 C 301.506703 737.921478 141.907838 674.623002 114.154766 666.608177 C 57.900561 650.354858 13.989366 371.252563 13.989366 19.49495 " transform="matrix(0.104437,0,0,-0.104786,1.226498,198.76546)"/>
<path style="fill:none;stroke-width:12;stroke-linecap:round;stroke-linejoin:round;stroke:rgb(13.72549%,12.156863%,12.54902%);stroke-opacity:1;stroke-miterlimit:10;" d="M 81.427087 613.673055 L 183.911476 19.49495 " transform="matrix(0.104437,0,0,-0.104786,1.226498,198.76546)"/>
<path style="fill:none;stroke-width:10;stroke-linecap:round;stroke-linejoin:round;stroke:rgb(13.72549%,12.156863%,12.54902%);stroke-opacity:1;stroke-miterlimit:10;" d="M 59.583699 451.549924 C 59.583699 451.549924 77.911199 347.729984 133.454746 295.91321 " transform="matrix(0.104437,0,0,-0.104786,1.226498,198.76546)"/>
<path style="fill:none;stroke-width:12;stroke-linecap:round;stroke-linejoin:round;stroke:rgb(13.72549%,12.156863%,12.54902%);stroke-opacity:1;stroke-miterlimit:10;" d="M 578.850406 710.33557 C 574.511651 649.087397 552.03241 582.247486 552.03241 582.247486 L 461.404792 701.612458 L 370.73977 582.247486 C 370.73977 582.247486 348.26053 649.087397 343.959178 710.33557 " transform="matrix(0.104437,0,0,-0.104786,1.226498,198.76546)"/>
<path style="fill:none;stroke-width:14;stroke-linecap:round;stroke-linejoin:round;stroke:rgb(13.72549%,12.156863%,12.54902%);stroke-opacity:1;stroke-miterlimit:10;" d="M 1566.627865 644.502172 C 1514.076563 624.185523 1348.156581 563.869306 1320.964555 556.264542 C 1265.982054 540.794066 1244.849324 329.500917 1273.163442 19.49495 " transform="matrix(0.104437,0,0,-0.104786,1.226498,198.76546)"/>
<path style="fill:none;stroke-width:12;stroke-linecap:round;stroke-linejoin:round;stroke:rgb(13.72549%,12.156863%,12.54902%);stroke-opacity:1;stroke-miterlimit:10;" d="M 1327.996331 470.338165 L 1400.483464 19.49495 " transform="matrix(0.104437,0,0,-0.104786,1.226498,198.76546)"/>
<path style="fill:none;stroke-width:10;stroke-linecap:round;stroke-linejoin:round;stroke:rgb(13.72549%,12.156863%,12.54902%);stroke-opacity:1;stroke-miterlimit:10;" d="M 1302.82407 355.707531 C 1302.82407 355.707531 1320.216494 257.069268 1372.992214 207.861972 " transform="matrix(0.104437,0,0,-0.104786,1.226498,198.76546)"/>
<path style="fill:none;stroke-width:14;stroke-linecap:round;stroke-linejoin:round;stroke:rgb(13.72549%,12.156863%,12.54902%);stroke-opacity:1;stroke-miterlimit:10;" d="M 1676.443254 642.489146 C 1728.994556 622.172497 1887.84536 563.869306 1915.037386 556.264542 C 1941.48135 548.846169 1960.145478 496.432943 1969.159616 409.500053 " transform="matrix(0.104437,0,0,-0.104786,1.226498,198.76546)"/>
<path style="fill:none;stroke-width:12;stroke-linecap:round;stroke-linejoin:round;stroke:rgb(13.72549%,12.156863%,12.54902%);stroke-opacity:1;stroke-miterlimit:10;" d="M 1908.00561 470.338165 L 1835.518476 19.49495 " transform="matrix(0.104437,0,0,-0.104786,1.226498,198.76546)"/>
<path style=" stroke:none;fill-rule:nonzero;fill:rgb(52.156863%,28.235294%,23.529412%);fill-opacity:1;" d="M 181.101562 127.300781 C 198.726562 129.351562 201.949219 119.832031 201.949219 119.832031 L 204.210938 128.914062 C 210.300781 123.847656 211.734375 101.929688 211.734375 101.929688 L 214.128906 82.3125 C 217.21875 37.910156 194.027344 35.707031 194.027344 35.707031 C 189.132812 24.703125 153.363281 16.84375 135.375 43.128906 C 124.003906 59.742188 126.085938 82.957031 126.085938 82.957031 L 131.839844 102.976562 C 131.839844 102.976562 136.246094 119.308594 132.109375 126.996094 C 132.109375 126.996094 139.808594 125.421875 140.675781 122.976562 C 140.675781 122.976562 143.109375 128.042969 158.777344 126.996094 "/>
<path style=" stroke:none;fill-rule:nonzero;fill:rgb(90.588235%,70.196078%,61.568627%);fill-opacity:1;" d="M 194.027344 35.707031 C 189.132812 24.703125 153.363281 16.84375 135.375 43.128906 C 124.003906 59.742188 126.085938 82.957031 126.085938 82.957031 L 129.667969 82.074219 C 129.667969 82.074219 127.679688 50.925781 145.898438 37.453125 C 166.753906 22.03125 186.046875 31.890625 193.589844 35.53125 C 193.765625 35.53125 194.027344 35.707031 194.027344 35.707031 "/>
<path style=" stroke:none;fill-rule:nonzero;fill:rgb(98.823529%,81.568627%,70.588235%);fill-opacity:1;" d="M 135.175781 84.757812 C 135.175781 84.757812 133.066406 80.652344 129.101562 81.898438 C 120.824219 84.492188 123.476562 102.492188 137.152344 104.046875 "/>
<path style=" stroke:none;fill-rule:nonzero;fill:rgb(98.823529%,81.568627%,70.588235%);fill-opacity:1;" d="M 205.742188 84.828125 C 205.742188 84.828125 207.851562 80.722656 211.820312 81.964844 C 220.09375 84.5625 217.894531 102.5625 204.007812 104.113281 "/>
<path style=" stroke:none;fill-rule:nonzero;fill:rgb(98.823529%,81.568627%,70.588235%);fill-opacity:1;" d="M 205.3125 80.503906 C 204.324219 82.855469 203.316406 84.289062 203.316406 84.289062 C 200.03125 58.96875 172.878906 47.757812 172.878906 47.757812 C 187.183594 60.375 187.304688 67.425781 187.304688 67.425781 C 163.152344 68.734375 151.070312 51.472656 151.070312 51.472656 C 151.070312 51.472656 150.945312 54.476562 149.371094 59.058594 C 147.511719 64.464844 143.625 72.074219 135.5625 79.554688 C 135.550781 79.671875 135.542969 79.734375 135.542969 79.734375 C 135.132812 86.5625 135.242188 98.429688 138.414062 107.957031 C 144.027344 124.816406 161.9375 128.636719 170.441406 128.636719 C 178.945312 128.636719 196.855469 124.816406 202.46875 107.957031 C 205.46875 98.945312 206.78125 87.703125 205.402344 80.882812 C 205.375 80.753906 205.339844 80.628906 205.3125 80.503906 "/>
<path style=" stroke:none;fill-rule:nonzero;fill:rgb(100%,100%,100%);fill-opacity:1;" d="M 161.164062 87.65625 C 161.164062 92.859375 157.941406 97.078125 153.96875 97.078125 C 149.992188 97.078125 146.765625 92.859375 146.765625 87.65625 C 146.765625 82.453125 149.992188 78.234375 153.96875 78.234375 C 157.941406 78.234375 161.164062 82.453125 161.164062 87.65625 "/>
<path style=" stroke:none;fill-rule:nonzero;fill:rgb(100%,100%,100%);fill-opacity:1;" d="M 194.503906 87.65625 C 194.503906 92.859375 191.277344 97.078125 187.304688 97.078125 C 183.328125 97.078125 180.105469 92.859375 180.105469 87.65625 C 180.105469 82.453125 183.328125 78.234375 187.304688 78.234375 C 191.277344 78.234375 194.503906 82.453125 194.503906 87.65625 "/>
<path style=" stroke:none;fill-rule:nonzero;fill:rgb(13.72549%,12.156863%,12.54902%);fill-opacity:1;" d="M 160.042969 89.015625 C 160.042969 92.5625 158.054688 95.433594 155.605469 95.433594 C 153.152344 95.433594 151.167969 92.5625 151.167969 89.015625 C 151.167969 85.472656 153.152344 82.597656 155.605469 82.597656 C 158.054688 82.597656 160.042969 85.472656 160.042969 89.015625 "/>
<path style=" stroke:none;fill-rule:nonzero;fill:rgb(13.72549%,12.156863%,12.54902%);fill-opacity:1;" d="M 181.101562 89.015625 C 181.101562 92.5625 183.089844 95.433594 185.542969 95.433594 C 187.992188 95.433594 189.980469 92.5625 189.980469 89.015625 C 189.980469 85.472656 187.992188 82.597656 185.542969 82.597656 C 183.089844 82.597656 181.101562 85.472656 181.101562 89.015625 "/>
<path style=" stroke:none;fill-rule:nonzero;fill:rgb(96.470588%,54.509804%,60.392157%);fill-opacity:1;" d="M 149.96875 98.140625 C 149.96875 99.769531 147.230469 101.089844 143.855469 101.089844 C 140.476562 101.089844 137.738281 99.769531 137.738281 98.140625 C 137.738281 96.511719 140.476562 95.191406 143.855469 95.191406 C 147.230469 95.191406 149.96875 96.511719 149.96875 98.140625 "/>
<path style=" stroke:none;fill-rule:nonzero;fill:rgb(96.470588%,54.509804%,60.392157%);fill-opacity:1;" d="M 203.203125 98.140625 C 203.203125 99.769531 200.464844 101.089844 197.089844 101.089844 C 193.710938 101.089844 190.972656 99.769531 190.972656 98.140625 C 190.972656 96.511719 193.710938 95.191406 197.089844 95.191406 C 200.464844 95.191406 203.203125 96.511719 203.203125 98.140625 "/>
<path style=" stroke:none;fill-rule:nonzero;fill:rgb(100%,100%,100%);fill-opacity:1;" d="M 159.964844 86.867188 C 159.964844 87.59375 159.378906 88.183594 158.65625 88.183594 C 157.929688 88.183594 157.34375 87.59375 157.34375 86.867188 C 157.34375 86.140625 157.929688 85.550781 158.65625 85.550781 C 159.378906 85.550781 159.964844 86.140625 159.964844 86.867188 "/>
<path style=" stroke:none;fill-rule:nonzero;fill:rgb(100%,100%,100%);fill-opacity:1;" d="M 189.636719 86.867188 C 189.636719 87.59375 189.050781 88.183594 188.324219 88.183594 C 187.601562 88.183594 187.015625 87.59375 187.015625 86.867188 C 187.015625 86.140625 187.601562 85.550781 188.324219 85.550781 C 189.050781 85.550781 189.636719 86.140625 189.636719 86.867188 "/>
<path style=" stroke:none;fill-rule:nonzero;fill:rgb(85.490196%,56.470588%,48.235294%);fill-opacity:1;" d="M 136.152344 98.367188 L 135.542969 91.742188 C 135.542969 91.742188 133.828125 87.636719 131.191406 87 C 127.796875 86.183594 127.726562 91.671875 130.058594 94.769531 C 133.628906 99.511719 136.152344 98.367188 136.152344 98.367188 "/>
<path style=" stroke:none;fill-rule:nonzero;fill:rgb(85.490196%,56.470588%,48.235294%);fill-opacity:1;" d="M 205.253906 98.367188 L 205.863281 91.742188 C 205.863281 91.742188 207.578125 87.636719 210.214844 87 C 213.609375 86.183594 213.679688 91.671875 211.347656 94.769531 C 207.777344 99.511719 205.253906 98.367188 205.253906 98.367188 "/>
<path style=" stroke:none;fill-rule:nonzero;fill:rgb(84.705882%,89.803922%,96.470588%);fill-opacity:1;" d="M 154.601562 80.542969 C 156.269531 80.542969 157.859375 80.847656 159.324219 81.378906 C 158.007812 79.453125 156.097656 78.234375 153.96875 78.234375 C 151.5625 78.234375 149.4375 79.785156 148.128906 82.160156 C 150.039062 81.136719 152.242188 80.542969 154.601562 80.542969 "/>
<path style=" stroke:none;fill-rule:nonzero;fill:rgb(84.705882%,89.803922%,96.470588%);fill-opacity:1;" d="M 186.714844 80.542969 C 185.046875 80.542969 183.460938 80.847656 181.992188 81.378906 C 183.3125 79.453125 185.21875 78.234375 187.347656 78.234375 C 189.757812 78.234375 191.878906 79.785156 193.1875 82.160156 C 191.277344 81.136719 189.074219 80.542969 186.714844 80.542969 "/>
<path style=" stroke:none;fill-rule:nonzero;fill:rgb(90.588235%,70.196078%,61.568627%);fill-opacity:1;" d="M 139.445312 41.296875 C 150.84375 45.136719 158.417969 45.179688 162.660156 44.59375 C 165.511719 44.199219 164.007812 43.175781 162.710938 42.949219 C 149.351562 40.601562 145.367188 35.453125 145.367188 35.453125 L 139.445312 41.296875 "/>
<path style="fill:none;stroke-width:14;stroke-linecap:round;stroke-linejoin:round;stroke:rgb(13.72549%,12.156863%,12.54902%);stroke-opacity:1;stroke-miterlimit:10;" d="M 1521.108339 1224.141757 C 1494.851389 1244.122902 1428.610567 1254.113474 1392.367 1210.386081 " transform="matrix(0.104437,0,0,-0.104786,1.226498,198.76546)"/>
<path style="fill:none;stroke-width:16;stroke-linecap:round;stroke-linejoin:round;stroke:rgb(13.72549%,12.156863%,12.54902%);stroke-opacity:1;stroke-miterlimit:10;" d="M 1523.913568 1112.456106 C 1495.001002 1173.443331 1373.777678 1173.704278 1391.095296 1029.847493 " transform="matrix(0.104437,0,0,-0.104786,1.226498,198.76546)"/>
<path style="fill:none;stroke-width:14;stroke-linecap:round;stroke-linejoin:round;stroke:rgb(13.72549%,12.156863%,12.54902%);stroke-opacity:1;stroke-miterlimit:10;" d="M 1282.589014 1088.00157 C 1282.589014 1088.00157 1262.39136 1127.181016 1224.427252 1115.289253 C 1145.170164 1090.536492 1170.566843 918.758293 1301.514963 903.921548 " transform="matrix(0.104437,0,0,-0.104786,1.226498,198.76546)"/>
<path style="fill:none;stroke-width:14;stroke-linecap:round;stroke-linejoin:round;stroke:rgb(13.72549%,12.156863%,12.54902%);stroke-opacity:1;stroke-miterlimit:10;" d="M 1225.848569 1068.98966 C 1225.848569 1068.98966 1251.955906 1086.808666 1284.01033 1016.762825 " transform="matrix(0.104437,0,0,-0.104786,1.226498,198.76546)"/>
<path style="fill:none;stroke-width:14;stroke-linecap:round;stroke-linejoin:round;stroke:rgb(13.72549%,12.156863%,12.54902%);stroke-opacity:1;stroke-miterlimit:10;" d="M 1286.104901 1135.941406 C 1282.17758 1070.779017 1283.224866 957.527678 1313.596152 866.606014 C 1367.344352 705.713066 1538.83739 669.254933 1620.263855 669.254933 C 1701.690321 669.254933 1873.183359 705.713066 1926.931559 866.606014 C 1955.657111 952.606948 1958.163116 1058.626305 1955.021259 1124.981599 " transform="matrix(0.104437,0,0,-0.104786,1.226498,198.76546)"/>
<path style="fill:none;stroke-width:14;stroke-linecap:round;stroke-linejoin:round;stroke:rgb(13.72549%,12.156863%,12.54902%);stroke-opacity:1;stroke-miterlimit:10;" d="M 1717.362204 1224.141757 C 1743.58175 1244.122902 1809.859976 1254.113474 1846.103543 1210.386081 " transform="matrix(0.104437,0,0,-0.104786,1.226498,198.76546)"/>
<path style="fill:none;stroke-width:16;stroke-linecap:round;stroke-linejoin:round;stroke:rgb(13.72549%,12.156863%,12.54902%);stroke-opacity:1;stroke-miterlimit:10;" d="M 1717.511816 1106.566141 C 1741.150551 1173.256939 1870.602548 1178.214947 1852.761288 1029.847493 " transform="matrix(0.104437,0,0,-0.104786,1.226498,198.76546)"/>
<path style="fill:none;stroke-width:14;stroke-linecap:round;stroke-linejoin:round;stroke:rgb(13.72549%,12.156863%,12.54902%);stroke-opacity:1;stroke-miterlimit:10;" d="M 1958.275325 1087.330562 C 1958.275325 1087.330562 1978.472978 1126.510008 2016.474489 1114.655523 C 2095.694174 1089.865483 2074.63625 918.087284 1941.668366 903.287817 " transform="matrix(0.104437,0,0,-0.104786,1.226498,198.76546)"/>
<path style="fill:none;stroke-width:14;stroke-linecap:round;stroke-linejoin:round;stroke:rgb(13.72549%,12.156863%,12.54902%);stroke-opacity:1;stroke-miterlimit:10;" d="M 2014.267708 1068.318652 C 2014.267708 1068.318652 1988.160371 1086.137658 1956.105947 1016.091817 " transform="matrix(0.104437,0,0,-0.104786,1.226498,198.76546)"/>
<path style="fill:none;stroke-width:14;stroke-linecap:round;stroke-linejoin:round;stroke:rgb(13.72549%,12.156863%,12.54902%);stroke-opacity:1;stroke-miterlimit:10;" d="M 1367.344352 1072.344703 L 1389.412158 1058.626305 " transform="matrix(0.104437,0,0,-0.104786,1.226498,198.76546)"/>
<path style="fill:none;stroke-width:14;stroke-linecap:round;stroke-linejoin:round;stroke:rgb(13.72549%,12.156863%,12.54902%);stroke-opacity:1;stroke-miterlimit:10;" d="M 1854.444425 1058.626305 L 1883.992844 1072.344703 " transform="matrix(0.104437,0,0,-0.104786,1.226498,198.76546)"/>
<path style="fill:none;stroke-width:14;stroke-linecap:round;stroke-linejoin:round;stroke:rgb(13.72549%,12.156863%,12.54902%);stroke-opacity:1;stroke-miterlimit:10;" d="M 1620.263855 914.135789 L 1620.263855 934.116934 " transform="matrix(0.104437,0,0,-0.104786,1.226498,198.76546)"/>
<path style="fill:none;stroke-width:14;stroke-linecap:round;stroke-linejoin:round;stroke:rgb(13.72549%,12.156863%,12.54902%);stroke-opacity:1;stroke-miterlimit:10;" d="M 1946.942197 1307.458657 C 2010.452596 1199.128048 1935.048024 1092.474961 1935.048024 1092.474961 C 1903.592049 1334.112609 1643.603366 1441.101201 1643.603366 1441.101201 C 1780.573378 1320.692438 1781.732873 1253.405187 1781.732873 1253.405187 C 1550.469742 1240.916972 1434.782072 1405.649581 1434.782072 1405.649581 C 1434.782072 1405.649581 1428.872388 1265.595177 1280.045605 1131.840798 C 1280.045605 1131.840798 1258.613651 1225.782001 1289.845208 1295.790563 " transform="matrix(0.104437,0,0,-0.104786,1.226498,198.76546)"/>
<path style="fill:none;stroke-width:14;stroke-linecap:round;stroke-linejoin:round;stroke:rgb(13.72549%,12.156863%,12.54902%);stroke-opacity:1;stroke-miterlimit:10;" d="M 1197.758869 1097.582082 C 1197.758869 1097.582082 1175.616257 1326.731515 1284.49657 1485.275933 C 1456.737669 1736.12131 1799.237506 1661.117461 1846.103543 1556.104617 C 1846.103543 1556.104617 2067.454862 1529.226996 2037.86904 1105.485072 " transform="matrix(0.104437,0,0,-0.104786,1.226498,198.76546)"/>
<path style="fill:none;stroke-width:14;stroke-linecap:round;stroke-linejoin:round;stroke:rgb(13.72549%,12.156863%,12.54902%);stroke-opacity:1;stroke-miterlimit:10;" d="M 1250.646799 914.135789 C 1250.646799 914.135789 1292.837452 758.275406 1253.22761 684.9118 C 1253.22761 684.9118 1326.949045 699.934937 1335.252525 723.271124 C 1335.252525 723.271124 1358.554632 674.921228 1508.578313 684.9118 " transform="matrix(0.104437,0,0,-0.104786,1.226498,198.76546)"/>
<path style="fill:none;stroke-width:14;stroke-linecap:round;stroke-linejoin:round;stroke:rgb(13.72549%,12.156863%,12.54902%);stroke-opacity:1;stroke-miterlimit:10;" d="M 2015.651622 924.126362 C 2015.651622 924.126362 2001.924698 714.958073 1943.613325 666.608177 L 1921.956952 753.280119 C 1921.956952 753.280119 1891.099426 662.433012 1722.336811 682.004096 " transform="matrix(0.104437,0,0,-0.104786,1.226498,198.76546)"/>
<path style="fill:none;stroke-width:12;stroke-linecap:round;stroke-linejoin:round;stroke:rgb(13.72549%,12.156863%,12.54902%);stroke-opacity:1;stroke-miterlimit:10;" d="M 1703.336056 630.597382 L 1787.156317 533.67392 L 1756.373597 504.969663 L 1791.121042 466.573061 L 1645.323907 107.844414 " transform="matrix(0.104437,0,0,-0.104786,1.226498,198.76546)"/>
<path style="fill:none;stroke-width:12;stroke-linecap:round;stroke-linejoin:round;stroke:rgb(13.72549%,12.156863%,12.54902%);stroke-opacity:1;stroke-miterlimit:10;" d="M 1542.98913 633.691478 L 1458.832241 533.67392 L 1489.614961 504.969663 L 1454.867516 466.573061 L 1600.664651 107.844414 " transform="matrix(0.104437,0,0,-0.104786,1.226498,198.76546)"/>
<path style="fill:none;stroke-width:14;stroke-linecap:round;stroke-linejoin:round;stroke:rgb(13.72549%,12.156863%,12.54902%);stroke-opacity:1;stroke-miterlimit:10;" d="M 1572.761967 665.452551 L 1568.011778 614.530455 C 1568.011778 614.530455 1596.774733 575.351009 1622.171412 575.351009 C 1659.686683 575.351009 1675.134147 626.832279 1675.134147 626.832279 L 1672.927367 667.577411 " transform="matrix(0.104437,0,0,-0.104786,1.226498,198.76546)"/>
<path style="fill:none;stroke-width:14;stroke-linecap:round;stroke-linejoin:round;stroke:rgb(13.72549%,12.156863%,12.54902%);stroke-opacity:1;stroke-miterlimit:10;" d="M 1568.011778 629.926374 C 1568.011778 629.926374 1530.496507 458.707349 1621.348544 96.17632 " transform="matrix(0.104437,0,0,-0.104786,1.226498,198.76546)"/>
<path style="fill:none;stroke-width:14;stroke-linecap:round;stroke-linejoin:round;stroke:rgb(13.72549%,12.156863%,12.54902%);stroke-opacity:1;stroke-miterlimit:10;" d="M 1675.508178 629.516313 C 1675.508178 629.516313 1712.163178 458.707349 1621.348544 96.17632 " transform="matrix(0.104437,0,0,-0.104786,1.226498,198.76546)"/>
<path style="fill:none;stroke-width:12;stroke-linecap:round;stroke-linejoin:round;stroke:rgb(13.72549%,12.156863%,12.54902%);stroke-opacity:1;stroke-miterlimit:10;" d="M 1562.999768 502.844803 L 1622.171412 575.351009 L 1681.754489 495.351874 " transform="matrix(0.104437,0,0,-0.104786,1.226498,198.76546)"/>
<path style="fill:none;stroke-width:16;stroke-linecap:round;stroke-linejoin:round;stroke:rgb(13.72549%,12.156863%,12.54902%);stroke-opacity:1;stroke-miterlimit:10;" d="M 1732.622653 855.347981 C 1717.586622 831.899959 1682.913984 790.073757 1622.657651 790.073757 C 1562.363916 790.073757 1527.691278 831.899959 1512.617844 855.347981 " transform="matrix(0.104437,0,0,-0.104786,1.226498,198.76546)"/>
<path style=" stroke:none;fill-rule:nonzero;fill:rgb(99.215686%,86.666667%,58.431373%);fill-opacity:1;" d="M 211.042969 134.339844 L 169.015625 165.023438 L 194.035156 197.085938 L 234.007812 167.90625 L 211.042969 134.339844 "/>
<path style="fill:none;stroke-width:14;stroke-linecap:round;stroke-linejoin:round;stroke:rgb(13.72549%,12.156863%,12.54902%);stroke-opacity:1;stroke-miterlimit:10;" d="M 2009.03128 614.828681 L 1606.611738 322.007988 L 1846.178349 16.028072 L 2228.92388 294.496636 Z M 2009.03128 614.828681 " transform="matrix(0.104437,0,0,-0.104786,1.226498,198.76546)"/>
<path style="fill-rule:nonzero;fill:rgb(98.823529%,81.568627%,70.588235%);fill-opacity:1;stroke-width:14;stroke-linecap:round;stroke-linejoin:round;stroke:rgb(13.72549%,12.156863%,12.54902%);stroke-opacity:1;stroke-miterlimit:10;" d="M 1941.855381 375.688675 L 1979.894295 312.166529 L 1917.580794 255.839086 L 1865.889762 343.182037 " transform="matrix(0.104437,0,0,-0.104786,1.226498,198.76546)"/>
<path style="fill-rule:nonzero;fill:rgb(98.823529%,81.568627%,70.588235%);fill-opacity:1;stroke-width:14;stroke-linecap:round;stroke-linejoin:round;stroke:rgb(13.72549%,12.156863%,12.54902%);stroke-opacity:1;stroke-miterlimit:10;" d="M 1874.791691 331.924004 C 1831.852976 336.248282 1776.68346 368.792198 1759.291036 408.605374 C 1744.666439 442.342195 1755.55073 457.849949 1763.330567 466.573061 C 1780.087139 485.510414 1810.570634 508.88388 1810.570634 508.88388 C 1810.570634 508.88388 1812.852221 542.881649 1829.646195 549.740848 C 1856.389385 560.626098 1869.106426 539.675719 1878.831222 523.83246 C 1878.831222 523.83246 1879.803701 556.562768 1905.237783 563.608358 C 1922.66761 568.454531 1912.606187 538.296423 1935.422054 504.224098 C 1940.845498 496.097439 1965.718534 476.451798 1963.923187 439.509048 C 1962.688886 413.637939 1944.099565 369.015868 1944.099565 369.015868 " transform="matrix(0.104437,0,0,-0.104786,1.226498,198.76546)"/>
<path style="fill-rule:nonzero;fill:rgb(98.823529%,81.568627%,70.588235%);fill-opacity:1;stroke-width:14;stroke-linecap:round;stroke-linejoin:round;stroke:rgb(13.72549%,12.156863%,12.54902%);stroke-opacity:1;stroke-miterlimit:10;" d="M 1876.025992 529.349642 C 1876.025992 529.349642 1902.843987 480.626963 1914.85037 456.097871 " transform="matrix(0.104437,0,0,-0.104786,1.226498,198.76546)"/>
<path style="fill-rule:nonzero;fill:rgb(100%,100%,100%);fill-opacity:1;stroke-width:14;stroke-linecap:round;stroke-linejoin:round;stroke:rgb(13.72549%,12.156863%,12.54902%);stroke-opacity:1;stroke-miterlimit:10;" d="M 1910.212391 247.4142 L 1890.014737 286.51909 L 1958.611953 365.176207 L 1980.006504 332.818682 " transform="matrix(0.104437,0,0,-0.104786,1.226498,198.76546)"/>
<path style=" stroke:none;fill-rule:nonzero;fill:rgb(30.980392%,29.803922%,29.803922%);fill-opacity:1;" d="M 208.105469 162.425781 C 208.105469 162.425781 213.71875 171.070312 217.566406 175.945312 C 220.960938 180.246094 221.878906 183.472656 220.191406 187.136719 C 218.984375 189.753906 213.257812 192.785156 209.023438 187.285156 C 205.367188 182.539062 199.511719 172.378906 199.511719 172.378906 L 208.105469 162.425781 "/>
<path style="fill:none;stroke-width:14;stroke-linecap:round;stroke-linejoin:round;stroke:rgb(13.72549%,12.156863%,12.54902%);stroke-opacity:1;stroke-miterlimit:10;" d="M 1980.904177 346.798028 C 1980.904177 346.798028 2034.652377 264.30125 2071.494393 217.777987 C 2103.997654 176.734629 2112.787373 145.94279 2096.629251 110.975787 C 2085.071704 85.999356 2030.238816 57.07143 1989.693897 109.559213 C 1954.684631 154.852293 1898.617441 251.813034 1898.617441 251.813034 Z M 1980.904177 346.798028 " transform="matrix(0.104437,0,0,-0.104786,1.226498,198.76546)"/>
<path style=" stroke:none;fill-rule:nonzero;fill:rgb(99.215686%,86.666667%,58.431373%);fill-opacity:1;" d="M 94.859375 121.710938 L 45.734375 160.632812 L 77.355469 198.03125 L 124.082031 161.015625 L 94.859375 121.710938 "/>
<path style="fill:none;stroke-width:14;stroke-linecap:round;stroke-linejoin:round;stroke:rgb(13.72549%,12.156863%,12.54902%);stroke-opacity:1;stroke-miterlimit:10;" d="M 896.552013 735.349279 L 426.171107 363.908747 L 728.948893 7.006734 L 1176.364318 360.255478 Z M 896.552013 735.349279 " transform="matrix(0.104437,0,0,-0.104786,1.226498,198.76546)"/>
<path style="fill-rule:nonzero;fill:rgb(98.823529%,81.568627%,70.588235%);fill-opacity:1;stroke-width:14;stroke-linecap:round;stroke-linejoin:round;stroke:rgb(13.72549%,12.156863%,12.54902%);stroke-opacity:1;stroke-miterlimit:10;" d="M 832.854598 448.903168 L 872.464441 368.978589 L 792.272276 307.357634 L 738.598883 417.216651 " transform="matrix(0.104437,0,0,-0.104786,1.226498,198.76546)"/>
<path style="fill-rule:nonzero;fill:rgb(98.823529%,81.568627%,70.588235%);fill-opacity:1;stroke-width:14;stroke-linecap:round;stroke-linejoin:round;stroke:rgb(13.72549%,12.156863%,12.54902%);stroke-opacity:1;stroke-miterlimit:10;" d="M 748.174067 402.752688 C 697.081484 412.072252 633.907713 456.433375 616.851917 505.938898 C 602.526544 547.7651 617.076335 565.360436 627.249968 575.090061 C 649.130759 596.226831 687.99254 621.352375 687.99254 621.352375 C 687.99254 621.352375 694.014433 661.985673 714.810535 668.583924 C 747.949648 679.13367 761.190332 652.777944 771.363965 632.796799 C 771.363965 632.796799 775.665317 671.976245 806.859471 678.015323 C 828.291425 682.190487 813.3302 646.925258 837.455175 603.794317 C 843.215247 593.542797 871.155334 567.63441 865.507471 523.4224 C 861.505344 492.481448 834.94917 440.664674 834.94917 440.664674 " transform="matrix(0.104437,0,0,-0.104786,1.226498,198.76546)"/>
<path style="fill-rule:nonzero;fill:rgb(98.823529%,81.568627%,70.588235%);fill-opacity:1;stroke-width:14;stroke-linecap:round;stroke-linejoin:round;stroke:rgb(13.72549%,12.156863%,12.54902%);stroke-opacity:1;stroke-miterlimit:10;" d="M 768.521332 639.655998 C 768.521332 639.655998 796.049986 578.594217 808.131175 548.026048 " transform="matrix(0.104437,0,0,-0.104786,1.226498,198.76546)"/>
<path style="fill-rule:nonzero;fill:rgb(100%,100%,100%);fill-opacity:1;stroke-width:14;stroke-linecap:round;stroke-linejoin:round;stroke:rgb(13.72549%,12.156863%,12.54902%);stroke-opacity:1;stroke-miterlimit:10;" d="M 782.584883 297.926236 L 762.088006 346.798028 L 852.004966 434.700153 L 874.559012 393.768629 " transform="matrix(0.104437,0,0,-0.104786,1.226498,198.76546)"/>
<path style=" stroke:none;fill-rule:nonzero;fill:rgb(30.980392%,29.803922%,29.803922%);fill-opacity:1;" d="M 92.855469 155.710938 C 92.855469 155.710938 99.132812 167.296875 103.539062 173.902344 C 107.429688 179.726562 108.273438 183.925781 105.75 188.421875 C 103.953125 191.632812 96.347656 194.914062 91.507812 187.476562 C 87.328125 181.058594 80.894531 167.515625 80.894531 167.515625 L 92.855469 155.710938 "/>
<path style="fill:none;stroke-width:14;stroke-linecap:round;stroke-linejoin:round;stroke:rgb(13.72549%,12.156863%,12.54902%);stroke-opacity:1;stroke-miterlimit:10;" d="M 877.364242 410.879348 C 877.364242 410.879348 937.470962 300.312044 979.661616 237.274515 C 1016.915066 181.692637 1024.994127 141.618513 1000.831749 98.711241 C 983.626341 68.068516 910.802579 36.754782 864.460186 107.732579 C 824.43891 168.980752 762.836067 298.224462 762.836067 298.224462 Z M 877.364242 410.879348 " transform="matrix(0.104437,0,0,-0.104786,1.226498,198.76546)"/>
</g>
</svg>
