<?xml version="1.0" encoding="UTF-8"?>
<svg xmlns="http://www.w3.org/2000/svg" xmlns:xlink="http://www.w3.org/1999/xlink" width="157pt" height="199pt" viewBox="0 0 157 199" version="1.1">
<defs>
<clipPath id="clip1">
  <path d="M 2 2 L 132 2 L 132 198.984375 L 2 198.984375 Z M 2 2 "/>
</clipPath>
<clipPath id="clip2">
  <path d="M 0 0 L 134 0 L 134 198.984375 L 0 198.984375 Z M 0 0 "/>
</clipPath>
<clipPath id="clip3">
  <path d="M 38 136 L 111 136 L 111 198.984375 L 38 198.984375 Z M 38 136 "/>
</clipPath>
<clipPath id="clip4">
  <path d="M 37 135 L 112 135 L 112 198.984375 L 37 198.984375 Z M 37 135 "/>
</clipPath>
</defs>
<g id="surface1">
<path style="fill:none;stroke-width:6;stroke-linecap:round;stroke-linejoin:round;stroke:rgb(56.862745%,61.960784%,81.568627%);stroke-opacity:1;stroke-miterlimit:4;" d="M 299.029733 67.867253 C 299.029733 67.867253 295.148563 52.803339 305.584271 45.828622 C 317.161501 38.101078 345.161899 49.430381 339.159709 69.764081 C 333.164884 90.09778 310.253459 85.167504 310.253459 85.167504 L 307.528539 98.57077 " transform="matrix(0.530405,0,0,0.529255,-24.868706,-11.051917)"/>
<path style="fill:none;stroke-width:6;stroke-linecap:round;stroke-linejoin:round;stroke:rgb(56.862745%,61.960784%,81.568627%);stroke-opacity:1;stroke-miterlimit:4;" d="M 303.772568 114.173471 L 303.441158 116.505758 " transform="matrix(0.530405,0,0,0.529255,-24.868706,-11.051917)"/>
<g clip-path="url(#clip1)" clip-rule="nonzero">
<path style=" stroke:none;fill-rule:nonzero;fill:rgb(40%,40%,40%);fill-opacity:1;" d="M 93.039062 164.3125 C 92.566406 161.964844 92.003906 159.316406 91.421875 156.671875 L 93.261719 164.460938 L 93.257812 164.460938 L 93.070312 164.472656 C 93.0625 164.417969 93.046875 164.363281 93.039062 164.3125 M 71.675781 266.164062 C 72.546875 266.367188 73.488281 266.476562 74.46875 266.476562 C 75.578125 266.476562 76.628906 266.332031 77.59375 266.078125 L 74.632812 332.613281 Z M 55.855469 165.085938 L 55.867188 165.039062 C 55.941406 165.046875 56.007812 165.050781 56.070312 165.054688 C 56.070312 165.0625 56.066406 165.070312 56.066406 165.078125 C 56.003906 165.078125 55.933594 165.082031 55.855469 165.085938 M 56.75 161.296875 L 57.839844 156.671875 C 57.496094 158.238281 57.160156 159.804688 56.84375 161.3125 C 56.8125 161.304688 56.78125 161.300781 56.75 161.296875 M 117.746094 100.375 C 120.273438 97.066406 123.273438 94.308594 125.566406 91.113281 C 132.316406 82.660156 136.566406 72.214844 122.007812 49.628906 C 113.5625 36.535156 107.070312 18.890625 94.96875 11.882812 C 86.972656 6.59375 78.230469 2.542969 59.296875 2.128906 C 39.03125 1.6875 28.527344 13.363281 24.996094 18.300781 C 24.847656 18.363281 24.699219 18.421875 24.550781 18.484375 C 1.394531 28.027344 5.789062 54.988281 2.964844 76.140625 C -2.726562 118.726562 21.921875 112.761719 34.15625 124.207031 C 38.25 128.035156 32.484375 133.007812 34.710938 136.890625 C 36.488281 139.988281 41.746094 138.554688 45.308594 138.746094 C 46.015625 140.21875 47.0625 141.574219 48.300781 142.695312 C 47.699219 144.441406 46.613281 146.457031 47.539062 148.320312 C 45.300781 154.441406 43.058594 161.011719 42.917969 163.175781 C 42.757812 165.660156 43.226562 167.375 44.035156 168.503906 C 43.367188 169.289062 43.050781 170.253906 43.28125 171.441406 C 43.796875 174.078125 48.261719 175.808594 53.21875 176.292969 C 51.617188 182.382812 50.457031 187.613281 52.136719 188.828125 L 51.230469 193.574219 L 53.617188 193.828125 C 48.464844 213.214844 42.511719 237.847656 39.828125 257.152344 C 39.828125 257.152344 39.828125 257.152344 39.828125 257.15625 C 39.726562 257.867188 39.632812 258.570312 39.542969 259.265625 C 39.535156 259.335938 39.527344 259.40625 39.519531 259.476562 C 39.4375 260.09375 39.363281 260.707031 39.292969 261.3125 C 39.277344 261.429688 39.265625 261.546875 39.25 261.664062 C 39.183594 262.226562 39.121094 262.78125 39.0625 263.332031 C 39.050781 263.464844 39.035156 263.597656 39.023438 263.730469 C 38.953125 264.390625 38.890625 265.039062 38.832031 265.683594 C 40.085938 266.183594 41.566406 266.476562 43.160156 266.476562 C 45.144531 266.476562 46.964844 266.027344 48.375 265.277344 C 49.789062 266.027344 51.609375 266.476562 53.59375 266.476562 C 55.007812 266.476562 56.335938 266.246094 57.492188 265.84375 L 67.28125 332.613281 L 69.300781 332.613281 C 66.457031 332.875 63.164062 333.652344 61.28125 335.707031 C 58.257812 339.007812 60.121094 340.066406 60.121094 340.066406 L 89.140625 340.066406 C 89.140625 340.066406 91.007812 339.007812 87.980469 335.707031 C 86.097656 333.652344 82.808594 332.875 79.960938 332.613281 L 81.980469 332.613281 L 91.753906 265.949219 C 92.835938 266.285156 94.054688 266.476562 95.339844 266.476562 C 97.328125 266.476562 99.144531 266.027344 100.558594 265.277344 C 101.972656 266.027344 103.789062 266.476562 105.777344 266.476562 C 107.523438 266.476562 109.136719 266.128906 110.460938 265.535156 C 110.402344 264.898438 110.339844 264.25 110.269531 263.59375 C 110.253906 263.457031 110.238281 263.316406 110.222656 263.179688 C 110.167969 262.636719 110.105469 262.085938 110.039062 261.53125 C 110.027344 261.417969 110.011719 261.300781 110 261.1875 C 109.925781 260.574219 109.847656 259.953125 109.769531 259.328125 C 109.761719 259.277344 109.753906 259.226562 109.75 259.175781 C 107.214844 239.589844 101.023438 213.898438 95.6875 193.824219 L 98.035156 193.574219 L 97.128906 188.828125 C 99 187.472656 97.34375 181.121094 95.476562 174.15625 C 99.96875 174.074219 103.296875 173.863281 103.964844 173.433594 C 105.414062 172.503906 105.296875 169.964844 104.953125 168.015625 C 104.941406 167.921875 104.917969 167.820312 104.902344 167.71875 C 104.773438 167.058594 104.628906 166.488281 104.515625 166.09375 C 102.359375 157.425781 100.136719 148.328125 98.042969 140.820312 C 105.421875 138.542969 111.90625 136.359375 112.3125 134.65625 C 113.304688 130.503906 106.894531 129.035156 108.335938 126.050781 C 109.855469 122.894531 118.78125 122.703125 119.15625 118.082031 C 119.519531 113.625 112.183594 111.570312 114.253906 106.371094 C 115.117188 104.207031 116.339844 102.246094 117.746094 100.375 "/>
</g>
<g clip-path="url(#clip2)" clip-rule="nonzero">
<path style="fill:none;stroke-width:8;stroke-linecap:round;stroke-linejoin:round;stroke:rgb(40%,40%,40%);stroke-opacity:1;stroke-miterlimit:4;" d="M 222.297448 331.341813 C 221.406326 326.90604 220.345816 321.901957 219.248483 316.905255 L 222.717233 331.622278 L 222.709868 331.622278 L 222.356365 331.64442 C 222.341636 331.541091 222.312177 331.437761 222.297448 331.341813 Z M 182.020179 523.784966 C 183.662496 524.16876 185.437376 524.375419 187.285904 524.375419 C 189.377464 524.375419 191.358555 524.102334 193.177623 523.622592 L 187.595219 649.337259 Z M 152.193348 332.803182 L 152.215442 332.714615 C 152.35537 332.729376 152.480569 332.736756 152.598404 332.744137 C 152.598404 332.758898 152.591039 332.77366 152.591039 332.788421 C 152.473204 332.788421 152.340641 332.795802 152.193348 332.803182 Z M 153.879853 325.643949 L 155.93459 316.905255 C 155.286501 319.864897 154.653141 322.824539 154.056604 325.673471 C 153.997687 325.65871 153.93877 325.651329 153.879853 325.643949 Z M 268.878857 210.53528 C 273.643786 204.283867 279.299837 199.073126 283.622886 193.035751 C 296.349001 177.064018 304.36174 157.328151 276.91369 114.653214 C 260.991318 89.913264 248.75127 56.574853 225.935585 43.333961 C 210.860147 33.340557 194.378061 25.686819 158.681604 24.90447 C 120.473802 24.070456 100.670259 46.131229 94.012615 55.460375 C 93.732759 55.578465 93.452902 55.689175 93.173045 55.807265 C 49.515402 73.838201 57.800633 124.77947 52.475991 164.745707 C 41.745697 245.209589 88.216636 233.939332 111.282719 255.564646 C 119.000872 262.797686 108.130649 272.193258 112.328499 279.529627 C 115.679415 285.382485 125.592233 282.673785 132.308794 283.035437 C 133.641795 285.817944 135.615521 288.37903 137.950115 290.497278 C 136.815959 293.79643 134.768587 297.604847 136.514009 301.125419 C 132.294064 312.690902 128.066755 325.105161 127.801628 329.194043 C 127.499677 333.888138 128.383435 337.128245 129.907918 339.261254 C 128.648563 340.744765 128.052026 342.567787 128.48654 344.811505 C 129.458674 349.793446 137.876469 353.063076 147.222209 353.978277 C 144.202703 365.484715 142.015402 375.36741 145.182201 377.662793 L 143.473603 386.630287 L 147.973404 387.110029 C 138.259431 423.740211 127.035704 470.282611 121.97619 506.757799 C 121.97619 506.757799 121.97619 506.757799 121.97619 506.76518 C 121.784709 508.108459 121.607958 509.436976 121.438571 510.750733 C 121.423841 510.883584 121.409112 511.016436 121.394383 511.149288 C 121.239725 512.315431 121.099797 513.474194 120.967233 514.618195 C 120.937775 514.839615 120.915681 515.061034 120.886222 515.282454 C 120.761023 516.345268 120.643189 517.393321 120.532719 518.433993 C 120.510625 518.684935 120.481166 518.935877 120.459072 519.186819 C 120.326509 520.43415 120.208674 521.659338 120.098204 522.877146 C 122.462257 523.82187 125.253459 524.375419 128.258236 524.375419 C 131.999478 524.375419 135.431405 523.526643 138.090044 522.109558 C 140.756047 523.526643 144.187974 524.375419 147.929216 524.375419 C 150.595219 524.375419 153.0992 523.93996 155.279136 523.179753 L 173.734948 649.337259 L 177.542472 649.337259 C 172.181007 649.831763 165.972607 651.300513 162.422846 655.182736 C 156.722607 661.419388 160.235545 663.419545 160.235545 663.419545 L 214.947528 663.419545 C 214.947528 663.419545 218.46783 661.419388 212.760227 655.182736 C 209.210466 651.300513 203.009431 649.831763 197.640601 649.337259 L 201.448125 649.337259 L 219.874478 523.37903 C 221.914486 524.013767 224.212257 524.375419 226.635227 524.375419 C 230.383833 524.375419 233.808396 523.526643 236.474399 522.109558 C 239.140402 523.526643 242.564964 524.375419 246.313571 524.375419 C 249.605569 524.375419 252.647169 523.71854 255.143786 522.596681 C 255.033316 521.393635 254.915482 520.168446 254.782918 518.928496 C 254.753459 518.670174 254.724001 518.40447 254.694542 518.146147 C 254.591437 517.120236 254.473603 516.079564 254.348404 515.031511 C 254.32631 514.817473 254.296851 514.596053 254.274757 514.382014 C 254.134829 513.223251 253.987536 512.049728 253.840243 510.868823 C 253.825513 510.772875 253.810784 510.676926 253.803419 510.580978 C 249.023762 473.574382 237.350792 425.031826 227.290681 387.102648 L 231.716835 386.630287 L 230.008236 377.662793 C 233.535904 375.101706 230.413292 363.100764 226.89299 349.941059 C 235.362337 349.786066 241.637018 349.38751 242.896373 348.575638 C 245.628658 346.819043 245.407719 342.021618 244.75963 338.338672 C 244.737536 338.161537 244.693348 337.96964 244.663889 337.777743 C 244.420856 336.530412 244.148364 335.452837 243.934789 334.707391 C 239.869502 318.329721 235.679017 301.14018 231.731564 286.954564 C 245.643388 282.651643 257.868706 278.525858 258.63463 275.307893 C 260.505251 267.462259 248.419861 264.687133 251.137416 259.048314 C 254.002265 253.084746 270.83049 252.723094 271.537496 243.991782 C 272.222408 235.570456 258.391596 231.688233 262.294861 221.864583 C 263.922448 217.775701 266.227583 214.070613 268.878857 210.53528 Z M 268.878857 210.53528 " transform="matrix(0.530405,0,0,0.529255,-24.868706,-11.051917)"/>
</g>
<path style=" stroke:none;fill-rule:nonzero;fill:rgb(83.137255%,65.098039%,44.705882%);fill-opacity:1;" d="M 117.746094 100.375 C 120.273438 97.066406 123.273438 94.308594 125.566406 91.113281 C 132.316406 82.660156 136.566406 72.214844 122.007812 49.628906 C 113.5625 36.535156 107.070312 18.890625 94.96875 11.882812 C 86.972656 6.59375 78.230469 2.542969 59.296875 2.128906 C 39.019531 1.6875 28.515625 13.375 24.996094 18.304688 C 24.84375 18.367188 24.703125 18.417969 24.550781 18.484375 C 1.394531 28.027344 5.789062 54.988281 2.964844 76.140625 C -2.726562 118.726562 21.921875 112.761719 34.15625 124.207031 C 38.25 128.035156 32.484375 133.007812 34.710938 136.890625 C 37.019531 140.910156 45.179688 137.296875 47.902344 139.507812 C 50.476562 141.597656 45.300781 145.648438 47.964844 148.984375 C 49.679688 151.132812 65.386719 148.019531 76.429688 146.738281 C 77.316406 147.347656 78.535156 147.394531 80.199219 146.6875 C 80.5 146.558594 80.8125 146.429688 81.140625 146.300781 C 81.492188 146.277344 81.832031 146.261719 82.160156 146.25 C 83.96875 146.183594 85.050781 145.628906 85.597656 144.695312 C 96.132812 141.171875 111.675781 137.324219 112.3125 134.65625 C 113.304688 130.503906 106.894531 129.035156 108.335938 126.050781 C 109.855469 122.894531 118.78125 122.703125 119.15625 118.082031 C 119.519531 113.625 112.183594 111.570312 114.253906 106.371094 C 115.117188 104.207031 116.339844 102.246094 117.746094 100.375 "/>
<path style="fill:none;stroke-width:4;stroke-linecap:round;stroke-linejoin:round;stroke:rgb(40%,40%,40%);stroke-opacity:1;stroke-miterlimit:4;" d="M 268.878857 210.53528 C 273.643786 204.283867 279.299837 199.073126 283.622886 193.035751 C 296.349001 177.064018 304.36174 157.328151 276.91369 114.653214 C 260.991318 89.913264 248.75127 56.574853 225.935585 43.333961 C 210.860147 33.340557 194.378061 25.686819 158.681604 24.90447 C 120.451708 24.070456 100.648165 46.153371 94.012615 55.467755 C 93.725394 55.585846 93.460267 55.681794 93.173045 55.807265 C 49.515402 73.838201 57.800633 124.77947 52.475991 164.745707 C 41.745697 245.209589 88.216636 233.939332 111.282719 255.564646 C 119.000872 262.797686 108.130649 272.193258 112.328499 279.529627 C 116.681007 287.124319 132.06576 280.297215 137.198921 284.474665 C 142.052225 288.423314 132.294064 296.077052 137.316755 302.38013 C 140.549837 306.439489 170.163093 300.557108 190.982958 298.136254 C 192.654733 299.287636 194.952504 299.376204 198.089845 298.040305 C 198.656923 297.796744 199.246095 297.553182 199.864725 297.309621 C 200.527544 297.265337 201.168268 297.235814 201.786899 297.213672 C 205.196732 297.088201 207.23674 296.040148 208.26779 294.276172 C 228.130251 287.618823 257.434192 280.34888 258.63463 275.307893 C 260.505251 267.462259 248.419861 264.687133 251.137416 259.048314 C 254.002265 253.084746 270.83049 252.723094 271.537496 243.991782 C 272.222408 235.570456 258.391596 231.688233 262.294861 221.864583 C 263.922448 217.775701 266.227583 214.070613 268.878857 210.53528 Z M 268.878857 210.53528 " transform="matrix(0.530405,0,0,0.529255,-24.868706,-11.051917)"/>
<path style=" stroke:none;fill-rule:nonzero;fill:rgb(100%,92.54902%,81.568627%);fill-opacity:1;" d="M 87.171875 122.9375 L 78.796875 121.578125 L 78.074219 113.964844 L 74.632812 111.734375 L 71.1875 113.964844 L 70.46875 121.578125 L 62.09375 122.9375 C 62.09375 122.9375 56.976562 134.917969 74.632812 134.917969 C 92.285156 134.917969 87.171875 122.9375 87.171875 122.9375 "/>
<path style="fill:none;stroke-width:4;stroke-linecap:round;stroke-linejoin:round;stroke:rgb(40%,40%,40%);stroke-opacity:1;stroke-miterlimit:4;" d="M 211.235744 253.165934 L 195.445935 250.597466 L 194.083475 236.212573 L 187.595219 231.99822 L 181.099598 236.212573 L 179.744502 250.597466 L 163.954693 253.165934 C 163.954693 253.165934 154.307002 275.802397 187.595219 275.802397 C 220.876071 275.802397 211.235744 253.165934 211.235744 253.165934 Z M 211.235744 253.165934 " transform="matrix(0.530405,0,0,0.529255,-24.868706,-11.051917)"/>
<g clip-path="url(#clip3)" clip-rule="nonzero">
<path style=" stroke:none;fill-rule:nonzero;fill:rgb(100%,97.254902%,70.980392%);fill-opacity:1;" d="M 43.160156 266.476562 C 45.144531 266.476562 46.964844 266.027344 48.375 265.277344 C 49.789062 266.027344 51.609375 266.476562 53.59375 266.476562 C 55.582031 266.476562 57.398438 266.027344 58.8125 265.277344 C 60.226562 266.027344 62.046875 266.476562 64.03125 266.476562 C 66.019531 266.476562 67.835938 266.027344 69.25 265.277344 C 70.664062 266.027344 72.480469 266.476562 74.46875 266.476562 C 76.453125 266.476562 78.273438 266.027344 79.6875 265.277344 C 81.097656 266.027344 82.917969 266.476562 84.902344 266.476562 C 86.890625 266.476562 88.710938 266.027344 90.125 265.277344 C 91.535156 266.027344 93.355469 266.476562 95.339844 266.476562 C 97.328125 266.476562 99.144531 266.027344 100.558594 265.277344 C 101.972656 266.027344 103.789062 266.476562 105.777344 266.476562 C 107.523438 266.476562 109.136719 266.128906 110.460938 265.535156 C 107.109375 228.933594 86.648438 161.820312 86.648438 161.820312 L 85.058594 137.476562 L 74.652344 136.152344 L 64.246094 137.476562 L 62.65625 161.820312 C 62.65625 161.820312 42.144531 229.113281 38.832031 265.683594 C 40.085938 266.183594 41.566406 266.476562 43.160156 266.476562 "/>
</g>
<g clip-path="url(#clip4)" clip-rule="nonzero">
<path style="fill:none;stroke-width:4;stroke-linecap:round;stroke-linejoin:round;stroke:rgb(40%,40%,40%);stroke-opacity:1;stroke-miterlimit:4;" d="M 128.258236 524.375419 C 131.999478 524.375419 135.431405 523.526643 138.090044 522.109558 C 140.756047 523.526643 144.187974 524.375419 147.929216 524.375419 C 151.677822 524.375419 155.102384 523.526643 157.768388 522.109558 C 160.434391 523.526643 163.866318 524.375419 167.60756 524.375419 C 171.356166 524.375419 174.780728 523.526643 177.446732 522.109558 C 180.112735 523.526643 183.537297 524.375419 187.285904 524.375419 C 191.027146 524.375419 194.459072 523.526643 197.125076 522.109558 C 199.783714 523.526643 203.215641 524.375419 206.956883 524.375419 C 210.70549 524.375419 214.137416 523.526643 216.803419 522.109558 C 219.462058 523.526643 222.893985 524.375419 226.635227 524.375419 C 230.383833 524.375419 233.808396 523.526643 236.474399 522.109558 C 239.140402 523.526643 242.564964 524.375419 246.313571 524.375419 C 249.605569 524.375419 252.647169 523.71854 255.143786 522.596681 C 248.824916 453.43996 210.248881 326.632956 210.248881 326.632956 L 207.251469 280.636725 L 187.632042 278.134684 L 168.012615 280.636725 L 165.015203 326.632956 C 165.015203 326.632956 126.343427 453.77947 120.098204 522.877146 C 122.462257 523.82187 125.253459 524.375419 128.258236 524.375419 Z M 128.258236 524.375419 " transform="matrix(0.530405,0,0,0.529255,-24.868706,-11.051917)"/>
</g>
<path style="fill-rule:nonzero;fill:rgb(92.156863%,73.333333%,60%);fill-opacity:1;stroke-width:4;stroke-linecap:round;stroke-linejoin:round;stroke:rgb(40%,40%,40%);stroke-opacity:1;stroke-miterlimit:4;" d="M 209.622886 337.585846 L 165.619104 337.585846 L 165.619104 329.260469 L 209.622886 329.260469 Z M 209.622886 337.585846 " transform="matrix(0.530405,0,0,0.529255,-24.868706,-11.051917)"/>
<path style="fill-rule:nonzero;fill:rgb(92.156863%,73.333333%,60%);fill-opacity:1;stroke-width:4;stroke-linecap:round;stroke-linejoin:round;stroke:rgb(40%,40%,40%);stroke-opacity:1;stroke-miterlimit:4;" d="M 191.284908 337.585846 L 183.949717 337.585846 L 183.949717 329.260469 L 191.284908 329.260469 Z M 191.284908 337.585846 " transform="matrix(0.530405,0,0,0.529255,-24.868706,-11.051917)"/>
<path style="fill-rule:nonzero;fill:rgb(100%,100%,100%);fill-opacity:1;stroke-width:4;stroke-linecap:round;stroke-linejoin:round;stroke:rgb(40%,40%,40%);stroke-opacity:1;stroke-miterlimit:4;" d="M 203.804813 290.305381 C 203.996294 288.999005 204.106763 287.596681 204.106763 286.127931 C 204.106763 279.160594 201.750076 273.514395 198.841039 273.514395 C 197.809988 273.514395 196.852583 274.25246 196.035107 275.49241 C 195.224996 274.25246 194.267591 273.514395 193.229176 273.514395 C 192.198125 273.514395 191.24072 274.25246 190.423244 275.49241 C 189.613133 274.25246 188.655728 273.514395 187.617313 273.514395 C 186.586262 273.514395 185.628857 274.25246 184.811381 275.49241 C 184.00127 274.25246 183.043865 273.514395 182.00545 273.514395 C 180.974399 273.514395 180.016994 274.25246 179.199518 275.49241 C 178.389407 274.25246 177.432002 273.514395 176.393587 273.514395 C 173.491915 273.514395 171.135227 279.160594 171.135227 286.127931 C 171.135227 287.596681 171.245697 288.999005 171.437177 290.305381 Z M 203.804813 290.305381 " transform="matrix(0.530405,0,0,0.529255,-24.868706,-11.051917)"/>
<path style="fill-rule:nonzero;fill:rgb(100%,72.156863%,80.392157%);fill-opacity:1;stroke-width:4;stroke-linecap:round;stroke-linejoin:round;stroke:rgb(40%,40%,40%);stroke-opacity:1;stroke-miterlimit:4;" d="M 162.467034 288.135469 C 162.467034 288.135469 156.34701 314.107988 152.89299 331.341813 C 149.225394 349.638452 139.975394 373.883898 145.182201 377.662793 L 143.473603 386.630287 L 162.201907 388.623063 L 178.323125 268.82768 C 168.830091 266.392064 164.374478 260.339929 163.954693 253.165934 C 161.428618 253.630915 158.13662 254.619922 156.310187 255.638452 " transform="matrix(0.530405,0,0,0.529255,-24.868706,-11.051917)"/>
<path style="fill-rule:nonzero;fill:rgb(100%,72.156863%,80.392157%);fill-opacity:1;stroke-width:4;stroke-linecap:round;stroke-linejoin:round;stroke:rgb(40%,40%,40%);stroke-opacity:1;stroke-miterlimit:4;" d="M 212.723404 288.135469 C 212.723404 288.135469 218.843427 314.107988 222.297448 331.341813 C 225.965044 349.638452 235.215044 373.883898 230.008236 377.662793 L 231.716835 386.630287 L 212.988531 388.623063 L 212.981166 388.623063 L 196.859948 268.82768 C 206.352982 266.392064 210.808595 260.339929 211.235744 253.165934 C 213.754454 253.630915 217.053818 254.619922 218.880251 255.638452 " transform="matrix(0.530405,0,0,0.529255,-24.868706,-11.051917)"/>
<path style="fill-rule:nonzero;fill:rgb(100%,72.156863%,80.392157%);fill-opacity:1;stroke-width:4;stroke-linecap:round;stroke-linejoin:round;stroke:rgb(40%,40%,40%);stroke-opacity:1;stroke-miterlimit:4;" d="M 212.48037 288.135469 L 223.42424 334.633584 C 223.42424 334.633584 248.331485 352.384055 244.472408 336.862542 C 235.215044 299.649288 225.243308 257.372906 218.880251 255.239897 L 215.050633 254.184464 " transform="matrix(0.530405,0,0,0.529255,-24.868706,-11.051917)"/>
<path style="fill-rule:nonzero;fill:rgb(100%,72.156863%,80.392157%);fill-opacity:1;stroke-width:4;stroke-linecap:round;stroke-linejoin:round;stroke:rgb(40%,40%,40%);stroke-opacity:1;stroke-miterlimit:4;" d="M 162.702703 288.135469 L 151.758833 334.633584 C 151.758833 334.633584 126.851588 352.384055 130.718029 336.862542 C 139.975394 299.649288 149.939765 257.372906 156.310187 255.239897 L 160.13244 254.184464 " transform="matrix(0.530405,0,0,0.529255,-24.868706,-11.051917)"/>
<path style="fill-rule:nonzero;fill:rgb(100%,72.156863%,80.392157%);fill-opacity:1;stroke-width:4;stroke-linecap:round;stroke-linejoin:round;stroke:rgb(40%,40%,40%);stroke-opacity:1;stroke-miterlimit:4;" d="M 243.625474 333.666719 C 243.625474 333.666719 247.565561 345.579093 242.896373 348.575638 C 238.227185 351.579564 165.007838 348.966813 165.007838 348.966813 L 163.991517 335.201895 L 222.709868 331.622278 " transform="matrix(0.530405,0,0,0.529255,-24.868706,-11.051917)"/>
<path style=" stroke:none;fill-rule:nonzero;fill:rgb(100%,72.156863%,80.392157%);fill-opacity:1;" d="M 59.847656 138.546875 L 52.175781 136.136719 C 52.175781 136.136719 43.207031 158.769531 42.917969 163.175781 C 42.335938 172.136719 49.964844 171.097656 52.066406 168.714844 C 55.542969 164.777344 59.847656 138.546875 59.847656 138.546875 "/>
<path style="fill:none;stroke-width:4;stroke-linecap:round;stroke-linejoin:round;stroke:rgb(40%,40%,40%);stroke-opacity:1;stroke-miterlimit:4;" d="M 159.72002 282.659024 L 145.255848 278.105161 C 145.255848 278.105161 128.346612 320.868666 127.801628 329.194043 C 126.704295 346.125261 141.087456 344.162008 145.049638 339.659809 C 151.604176 332.220111 159.72002 282.659024 159.72002 282.659024 Z M 159.72002 282.659024 " transform="matrix(0.530405,0,0,0.529255,-24.868706,-11.051917)"/>
<path style="fill-rule:nonzero;fill:rgb(100%,92.54902%,81.568627%);fill-opacity:1;stroke-width:4;stroke-linecap:round;stroke-linejoin:round;stroke:rgb(40%,40%,40%);stroke-opacity:1;stroke-miterlimit:4;" d="M 98.12209 165.099979 C 98.12209 165.099979 69.385227 165.136882 74.562576 190.046587 C 77.61154 204.704564 88.474399 209.383898 108.034908 205.612385 " transform="matrix(0.530405,0,0,0.529255,-24.868706,-11.051917)"/>
<path style="fill-rule:nonzero;fill:rgb(100%,92.54902%,81.568627%);fill-opacity:1;stroke-width:4;stroke-linecap:round;stroke-linejoin:round;stroke:rgb(40%,40%,40%);stroke-opacity:1;stroke-miterlimit:4;" d="M 85.344423 189.212573 C 85.344423 189.212573 88.606962 186.791719 92.053618 186.097937 " transform="matrix(0.530405,0,0,0.529255,-24.868706,-11.051917)"/>
<path style="fill-rule:nonzero;fill:rgb(100%,92.54902%,81.568627%);fill-opacity:1;stroke-width:4;stroke-linecap:round;stroke-linejoin:round;stroke:rgb(40%,40%,40%);stroke-opacity:1;stroke-miterlimit:4;" d="M 237.365521 136.167818 C 237.365521 136.167818 263.738332 124.757328 268.915681 149.667033 C 271.964646 164.31763 263.856166 172.945613 244.413491 177.278057 " transform="matrix(0.530405,0,0,0.529255,-24.868706,-11.051917)"/>
<path style="fill-rule:nonzero;fill:rgb(100%,92.54902%,81.568627%);fill-opacity:1;stroke-width:4;stroke-linecap:round;stroke-linejoin:round;stroke:rgb(40%,40%,40%);stroke-opacity:1;stroke-miterlimit:4;" d="M 258.700911 153.194985 C 258.700911 153.194985 254.73873 152.279784 251.299439 153.017849 " transform="matrix(0.530405,0,0,0.529255,-24.868706,-11.051917)"/>
<path style=" stroke:none;fill-rule:nonzero;fill:rgb(100%,92.54902%,81.568627%);fill-opacity:1;" d="M 74.632812 119.226562 C 11.917969 132.230469 -3.261719 28.914062 53.382812 17.171875 C 110.027344 5.429688 137.34375 106.226562 74.632812 119.226562 "/>
<path style="fill:none;stroke-width:4;stroke-linecap:round;stroke-linejoin:round;stroke:rgb(40%,40%,40%);stroke-opacity:1;stroke-miterlimit:4;" d="M 187.595219 246.154313 C 69.355768 270.724508 40.73674 75.513609 147.531525 53.327366 C 254.32631 31.141122 305.827305 221.591499 187.595219 246.154313 Z M 187.595219 246.154313 " transform="matrix(0.530405,0,0,0.529255,-24.868706,-11.051917)"/>
<path style="fill:none;stroke-width:4;stroke-linecap:round;stroke-linejoin:round;stroke:rgb(40%,40%,40%);stroke-opacity:1;stroke-miterlimit:4;" d="M 171.444542 187.699539 C 171.444542 187.699539 171.363531 193.847623 176.437775 192.45268 " transform="matrix(0.530405,0,0,0.529255,-24.868706,-11.051917)"/>
<path style=" stroke:none;fill-rule:nonzero;fill:rgb(94.117647%,60.392157%,58.823529%);fill-opacity:1;" d="M 69.378906 95.53125 C 74.226562 94.527344 77.5625 110.964844 73.105469 111.890625 C 68.644531 112.8125 64.53125 96.535156 69.378906 95.53125 "/>
<path style="fill:none;stroke-width:4;stroke-linecap:round;stroke-linejoin:round;stroke:rgb(40%,40%,40%);stroke-opacity:1;stroke-miterlimit:4;" d="M 177.689765 201.38327 C 186.829295 199.486442 193.118706 230.544231 184.715641 232.293446 C 176.305211 234.03528 168.550235 203.280098 177.689765 201.38327 Z M 177.689765 201.38327 " transform="matrix(0.530405,0,0,0.529255,-24.868706,-11.051917)"/>
<path style=" stroke:none;fill-rule:nonzero;fill:rgb(100%,92.54902%,81.568627%);fill-opacity:1;" d="M 45.65625 130.585938 C 45.65625 130.585938 40.96875 116.054688 39.292969 109.882812 C 37.617188 103.714844 42.757812 103.652344 45.871094 110.261719 C 48.988281 116.867188 52.328125 126.234375 52.328125 126.234375 C 52.328125 126.234375 59.460938 122.140625 63.269531 126.804688 C 69.476562 134.394531 64.863281 142.679688 57.167969 145.40625 C 50.863281 147.636719 40.730469 137.917969 45.65625 130.585938 "/>
<path style="fill:none;stroke-width:4;stroke-linecap:round;stroke-linejoin:round;stroke:rgb(40%,40%,40%);stroke-opacity:1;stroke-miterlimit:4;" d="M 132.964247 267.617253 C 132.964247 267.617253 124.126668 240.161223 120.967233 228.49979 C 117.807798 216.845739 127.499677 216.727648 133.369303 229.215714 C 139.246294 241.696398 145.543069 259.395205 145.543069 259.395205 C 145.543069 259.395205 158.990919 251.66028 166.171453 260.47278 C 177.873881 274.81339 169.17623 290.467755 154.66787 295.619451 C 142.781326 299.833804 123.677424 281.470739 132.964247 267.617253 Z M 132.964247 267.617253 " transform="matrix(0.530405,0,0,0.529255,-24.868706,-11.051917)"/>
<path style=" stroke:none;fill-rule:nonzero;fill:rgb(83.137255%,65.098039%,44.705882%);fill-opacity:1;" d="M 113.898438 80.128906 C 120.109375 66.714844 110.339844 63.101562 101.183594 51.496094 C 95.378906 44.132812 92.167969 39.519531 89.519531 34.589844 C 89.519531 34.589844 75.300781 10.699219 54.023438 15.996094 C 54.023438 15.996094 79.109375 1.449219 95.761719 20.378906 C 138.886719 69.394531 113.898438 80.128906 113.898438 80.128906 "/>
<path style="fill:none;stroke-width:4;stroke-linecap:round;stroke-linejoin:round;stroke:rgb(40%,40%,40%);stroke-opacity:1;stroke-miterlimit:4;" d="M 215.661899 86.237699 C 220.655131 95.552083 226.708873 104.268635 237.652743 118.181166 C 254.915482 140.109087 272.745298 144.308679 261.035505 169.646461 " transform="matrix(0.530405,0,0,0.529255,-24.868706,-11.051917)"/>
<path style=" stroke:none;fill-rule:nonzero;fill:rgb(83.137255%,65.098039%,44.705882%);fill-opacity:1;" d="M 23.296875 100.304688 C 11.960938 90.800781 19.265625 83.382812 22.605469 68.996094 C 24.722656 59.871094 25.660156 54.328125 25.957031 48.742188 C 25.957031 48.742188 28.652344 21.089844 50.164062 16.855469 C 50.164062 16.855469 21.261719 14.332031 14.253906 38.53125 C -3.894531 101.191406 23.296875 100.304688 23.296875 100.304688 "/>
<path style="fill:none;stroke-width:4;stroke-linecap:round;stroke-linejoin:round;stroke:rgb(40%,40%,40%);stroke-opacity:1;stroke-miterlimit:4;" d="M 94.33666 107.885155 C 93.776947 118.432108 93.49709 134.005287 89.50545 151.246493 C 83.208674 178.429439 68.847607 189.810406 90.227185 207.767535 " transform="matrix(0.530405,0,0,0.529255,-24.868706,-11.051917)"/>
<path style="fill-rule:nonzero;fill:rgb(83.137255%,65.098039%,44.705882%);fill-opacity:1;stroke-width:4;stroke-linecap:round;stroke-linejoin:round;stroke:rgb(40%,40%,40%);stroke-opacity:1;stroke-miterlimit:4;" d="M 95.934789 63.483145 C 95.934789 63.483145 82.037695 69.793603 82.310187 88.695456 C 82.582679 107.60469 101.016397 117.627617 155.897767 100.312604 " transform="matrix(0.530405,0,0,0.529255,-24.868706,-11.051917)"/>
<path style=" stroke:none;fill-rule:nonzero;fill:rgb(83.137255%,65.098039%,44.705882%);fill-opacity:1;" d="M 26.015625 22.546875 C 26.527344 20.894531 32.328125 16.472656 33.265625 14.480469 C 33.265625 14.480469 45.394531 1.609375 61.726562 6.003906 C 78.054688 10.398438 88.648438 25.738281 89.332031 28.304688 C 90.015625 30.871094 93.007812 35.75 91.023438 36.605469 C 89.042969 37.460938 82.148438 37.625 82.148438 37.625 C 82.148438 37.625 56.433594 45.886719 47.945312 41.195312 C 40.242188 36.9375 20.988281 38.757812 26.015625 22.546875 "/>
<path style="fill-rule:nonzero;fill:rgb(83.137255%,65.098039%,44.705882%);fill-opacity:1;stroke-width:4;stroke-linecap:round;stroke-linejoin:round;stroke:rgb(40%,40%,40%);stroke-opacity:1;stroke-miterlimit:4;" d="M 118.522169 80.288892 C 120.238133 103.855318 157.363332 106.851863 210.985346 89.027586 " transform="matrix(0.530405,0,0,0.529255,-24.868706,-11.051917)"/>
<path style="fill-rule:nonzero;fill:rgb(83.137255%,65.098039%,44.705882%);fill-opacity:1;stroke-width:4;stroke-linecap:round;stroke-linejoin:round;stroke:rgb(40%,40%,40%);stroke-opacity:1;stroke-miterlimit:4;" d="M 157.680012 76.672372 C 157.680012 76.672372 180.429415 90.894891 223.372687 89.322812 " transform="matrix(0.530405,0,0,0.529255,-24.868706,-11.051917)"/>
<path style="fill:none;stroke-width:4;stroke-linecap:round;stroke-linejoin:round;stroke:rgb(40%,40%,40%);stroke-opacity:1;stroke-miterlimit:4;" d="M 185.628857 109.117724 C 185.628857 109.117724 187.639407 103.596995 194.702106 102.128245 C 199.776349 101.072812 206.301429 106.357359 206.301429 106.357359 " transform="matrix(0.530405,0,0,0.529255,-24.868706,-11.051917)"/>
<path style=" stroke:none;fill-rule:nonzero;fill:rgb(40%,40%,40%);fill-opacity:1;" d="M 86.28125 66.125 C 87.101562 70.078125 86.453125 73.554688 84.824219 73.890625 C 83.199219 74.226562 81.214844 71.296875 80.390625 67.34375 C 79.570312 63.394531 80.222656 59.917969 81.847656 59.578125 C 83.472656 59.242188 85.457031 62.171875 86.28125 66.125 "/>
<path style="fill:none;stroke-width:4;stroke-linecap:round;stroke-linejoin:round;stroke:rgb(40%,40%,40%);stroke-opacity:1;stroke-miterlimit:4;" d="M 132.205689 120.218226 C 132.205689 120.218226 128.169861 115.952209 121.107161 117.420959 C 116.025553 118.476392 112.144383 125.916091 112.144383 125.916091 " transform="matrix(0.530405,0,0,0.529255,-24.868706,-11.051917)"/>
<path style=" stroke:none;fill-rule:nonzero;fill:rgb(40%,40%,40%);fill-opacity:1;" d="M 42.746094 75.148438 C 43.570312 79.101562 45.554688 82.03125 47.183594 81.695312 C 48.808594 81.359375 49.457031 77.882812 48.636719 73.929688 C 47.8125 69.976562 45.828125 67.046875 44.203125 67.382812 C 42.578125 67.71875 41.925781 71.199219 42.746094 75.148438 "/>
<path style=" stroke:none;fill-rule:nonzero;fill:rgb(100%,92.54902%,81.568627%);fill-opacity:1;" d="M 65.839844 173.558594 C 65.839844 173.558594 67.738281 167.789062 63.375 164.417969 C 59.445312 161.378906 54.65625 160 53.167969 162.617188 C 51.804688 165.011719 56.402344 165.070312 56.402344 165.070312 C 56.402344 165.070312 42.050781 165.121094 43.28125 171.441406 C 44.101562 175.625 54.863281 177.53125 61.753906 175.785156 C 64.859375 175 65.839844 173.558594 65.839844 173.558594 "/>
<path style="fill:none;stroke-width:4;stroke-linecap:round;stroke-linejoin:round;stroke:rgb(40%,40%,40%);stroke-opacity:1;stroke-miterlimit:4;" d="M 171.017392 348.811819 C 171.017392 348.811819 174.596612 337.910594 166.370298 331.541091 C 158.961461 325.798942 149.9324 323.193572 147.126469 328.138609 C 144.556206 332.66295 153.224399 332.77366 153.224399 332.77366 C 153.224399 332.77366 126.166676 332.869608 128.48654 344.811505 C 130.033117 352.716185 150.322727 356.317944 163.313969 353.018792 C 169.168865 351.53528 171.017392 348.811819 171.017392 348.811819 Z M 171.017392 348.811819 " transform="matrix(0.530405,0,0,0.529255,-24.868706,-11.051917)"/>
</g>
</svg>
