<?xml version="1.0" encoding="UTF-8"?>
<svg xmlns="http://www.w3.org/2000/svg" xmlns:xlink="http://www.w3.org/1999/xlink" width="160pt" height="200pt" viewBox="0 0 160 200" version="1.1">
<g id="surface1">
<path style=" stroke:none;fill-rule:nonzero;fill:rgb(52.156863%,28.235294%,23.529412%);fill-opacity:1;" d="M 117.746094 121.5 C 132.226562 121.785156 135.671875 113.511719 135.671875 113.511719 L 137.652344 124.429688 C 143.855469 119.960938 149.394531 106.277344 148.355469 95.554688 L 152.761719 74.1875 C 170.789062 28.632812 133.71875 15.886719 133.71875 15.886719 C 128.753906 2.484375 82.707031 -8.851562 59.222656 20.832031 C 44.382812 39.585938 49.910156 68.023438 49.910156 68.023438 L 54.039062 91.1875 C 54.894531 97.09375 56.121094 109.890625 51.953125 116.496094 C 51.953125 116.496094 61.242188 115.242188 62.472656 112.417969 C 62.472656 112.417969 64.207031 116.710938 75.613281 118.136719 "/>
<path style=" stroke:none;fill-rule:nonzero;fill:rgb(96.078431%,47.843137%,63.921569%);fill-opacity:1;" d="M 140.882812 197.882812 C 144.71875 158.75 142.011719 140.800781 134.972656 138.882812 C 131.5 137.933594 111.0625 132.246094 104.339844 129.71875 L 89.523438 128.917969 C 84.09375 129.359375 75.542969 126.394531 75.542969 126.394531 L 57.09375 136.167969 L 58.964844 146.730469 C 58.964844 146.730469 64.371094 173.421875 68.15625 197.882812 L 140.882812 197.882812 "/>
<path style=" stroke:none;fill-rule:nonzero;fill:rgb(95.294118%,37.254902%,55.686275%);fill-opacity:1;" d="M 64.964844 178.75 C 66.109375 184.753906 67.121094 192.460938 68.15625 197.882812 L 140.882812 197.882812 C 142.320312 185.992188 142.617188 173.292969 142.332031 166.015625 C 130.804688 186.617188 75.453125 190.757812 64.964844 178.75 "/>
<path style=" stroke:none;fill-rule:nonzero;fill:rgb(98.823529%,81.568627%,70.588235%);fill-opacity:1;" d="M 122.328125 134.601562 C 117.488281 147.515625 104.425781 149.710938 93.757812 146.214844 C 81.503906 140.625 79.503906 128.277344 79.503906 128.277344 L 90.8125 129.128906 L 104.144531 129.71875 L 121.8125 134.664062 "/>
<path style=" stroke:none;fill-rule:nonzero;fill:rgb(98.823529%,81.568627%,70.588235%);fill-opacity:1;" d="M 91.332031 125.316406 L 90.738281 131.644531 C 90.738281 131.644531 94.320312 136.507812 97.488281 136.507812 C 102.160156 136.507812 104.085938 130.113281 104.085938 130.113281 L 103.816406 125.054688 "/>
<path style=" stroke:none;fill-rule:nonzero;fill:rgb(85.490196%,56.470588%,48.235294%);fill-opacity:1;" d="M 91.863281 120.566406 L 103.816406 120.410156 L 103.917969 126.46875 C 103.917969 126.46875 101.210938 135.265625 91.03125 130.816406 L 91.863281 120.566406 "/>
<path style=" stroke:none;fill-rule:nonzero;fill:rgb(90.588235%,70.196078%,61.568627%);fill-opacity:1;" d="M 134.082031 16.550781 C 129.117188 3.148438 82.707031 -8.851562 59.222656 20.832031 C 44.382812 39.585938 49.910156 66.859375 49.910156 66.859375 L 51.933594 66.394531 C 51.933594 66.394531 50.058594 31.734375 71.820312 15.792969 C 99.234375 -4.289062 134.082031 16.550781 134.082031 16.550781 "/>
<path style=" stroke:none;fill-rule:nonzero;fill:rgb(98.823529%,81.568627%,70.588235%);fill-opacity:1;" d="M 58.699219 70.164062 C 58.699219 70.164062 56.507812 65.140625 51.6875 66.300781 C 41.628906 68.71875 43.375 90.226562 59.539062 93.132812 "/>
<path style=" stroke:none;fill-rule:nonzero;fill:rgb(98.823529%,81.568627%,70.588235%);fill-opacity:1;" d="M 142.710938 75.785156 C 142.710938 75.785156 145.542969 71.09375 150.171875 72.878906 C 159.820312 76.597656 155.789062 97.722656 139.128906 98.46875 "/>
<path style=" stroke:none;fill-rule:nonzero;fill:rgb(98.823529%,81.568627%,70.588235%);fill-opacity:1;" d="M 142.617188 71.09375 C 142.460938 79.34375 141.277344 92.464844 137 102.890625 C 128.992188 122.394531 107.367188 125.507812 97.242188 124.839844 C 87.117188 124.175781 66.09375 118.246094 60.730469 97.863281 C 57.703125 86.34375 58.503906 72.292969 59.53125 64.25 C 76.324219 26.46875 123.511719 32.851562 123.511719 32.851562 L 131.535156 30.289062 L 127.589844 34.363281 C 127.589844 34.363281 130.703125 54.59375 142.617188 71.09375 "/>
<path style=" stroke:none;fill-rule:nonzero;fill:rgb(100%,100%,100%);fill-opacity:1;" d="M 89.414062 75.632812 C 89.007812 81.789062 84.839844 86.527344 80.105469 86.214844 C 75.371094 85.902344 71.859375 80.660156 72.269531 74.503906 C 72.679688 68.347656 76.851562 63.609375 81.582031 63.921875 C 86.316406 64.234375 89.824219 69.476562 89.414062 75.632812 "/>
<path style=" stroke:none;fill-rule:nonzero;fill:rgb(100%,100%,100%);fill-opacity:1;" d="M 129.105469 78.25 C 128.699219 84.40625 124.53125 89.144531 119.796875 88.832031 C 115.0625 88.519531 111.554688 83.277344 111.964844 77.121094 C 112.371094 70.964844 116.542969 66.226562 121.277344 66.539062 C 126.007812 66.851562 129.515625 72.09375 129.105469 78.25 "/>
<path style=" stroke:none;fill-rule:nonzero;fill:rgb(13.72549%,12.156863%,12.54902%);fill-opacity:1;" d="M 87.972656 77.152344 C 87.695312 81.347656 85.101562 84.589844 82.183594 84.398438 C 79.265625 84.207031 77.125 80.652344 77.402344 76.457031 C 77.679688 72.265625 80.273438 69.019531 83.191406 69.214844 C 86.109375 69.40625 88.25 72.960938 87.972656 77.152344 "/>
<path style=" stroke:none;fill-rule:nonzero;fill:rgb(13.72549%,12.156863%,12.54902%);fill-opacity:1;" d="M 113.046875 78.808594 C 112.765625 83 114.910156 86.554688 117.828125 86.75 C 120.746094 86.941406 123.335938 83.699219 123.617188 79.503906 C 123.894531 75.3125 121.753906 71.757812 118.835938 71.5625 C 115.914062 71.371094 113.324219 74.613281 113.046875 78.808594 "/>
<path style=" stroke:none;fill-rule:nonzero;fill:rgb(96.470588%,54.509804%,60.392157%);fill-opacity:1;" d="M 75.257812 87.15625 C 75.128906 89.082031 71.765625 90.429688 67.746094 90.167969 C 63.726562 89.898438 60.570312 88.125 60.695312 86.195312 C 60.824219 84.269531 64.1875 82.921875 68.210938 83.1875 C 72.230469 83.453125 75.386719 85.230469 75.257812 87.15625 "/>
<path style=" stroke:none;fill-rule:nonzero;fill:rgb(96.470588%,54.509804%,60.392157%);fill-opacity:1;" d="M 138.644531 91.335938 C 138.515625 93.261719 135.152344 94.613281 131.132812 94.34375 C 127.109375 94.082031 123.953125 92.300781 124.082031 90.378906 C 124.210938 88.449219 127.570312 87.101562 131.59375 87.367188 C 135.617188 87.632812 138.773438 89.410156 138.644531 91.335938 "/>
<path style=" stroke:none;fill-rule:nonzero;fill:rgb(100%,100%,100%);fill-opacity:1;" d="M 88.046875 74.605469 C 87.988281 75.464844 87.246094 76.117188 86.382812 76.058594 C 85.519531 76 84.867188 75.261719 84.925781 74.398438 C 84.984375 73.539062 85.726562 72.890625 86.589844 72.945312 C 87.453125 73 88.105469 73.746094 88.046875 74.605469 "/>
<path style=" stroke:none;fill-rule:nonzero;fill:rgb(100%,100%,100%);fill-opacity:1;" d="M 123.375 76.9375 C 123.320312 77.796875 122.574219 78.445312 121.710938 78.386719 C 120.847656 78.332031 120.195312 77.589844 120.25 76.730469 C 120.308594 75.871094 121.054688 75.21875 121.917969 75.277344 C 122.78125 75.332031 123.433594 76.078125 123.375 76.9375 "/>
<path style=" stroke:none;fill-rule:nonzero;fill:rgb(85.490196%,56.470588%,48.235294%);fill-opacity:1;" d="M 58.789062 86.339844 L 58.585938 78.457031 C 58.585938 78.457031 56.863281 73.460938 53.777344 72.503906 C 49.800781 71.269531 49.285156 77.753906 51.820312 81.601562 C 55.695312 87.496094 58.789062 86.339844 58.789062 86.339844 "/>
<path style=" stroke:none;fill-rule:nonzero;fill:rgb(85.490196%,56.470588%,48.235294%);fill-opacity:1;" d="M 141.066406 91.765625 L 142.3125 83.976562 C 142.3125 83.976562 144.679688 79.25 147.867188 78.710938 C 151.972656 78.007812 151.621094 84.503906 148.605469 87.984375 C 143.984375 93.316406 141.066406 91.765625 141.066406 91.765625 "/>
<path style=" stroke:none;fill-rule:nonzero;fill:rgb(84.705882%,89.803922%,96.470588%);fill-opacity:1;" d="M 82.15625 66.703125 C 84.144531 66.835938 86.011719 67.316406 87.714844 68.0625 C 86.296875 65.679688 84.121094 64.089844 81.582031 63.921875 C 78.71875 63.734375 76.066406 65.398438 74.324219 68.105469 C 76.675781 67.046875 79.351562 66.519531 82.15625 66.703125 "/>
<path style=" stroke:none;fill-rule:nonzero;fill:rgb(84.705882%,89.803922%,96.470588%);fill-opacity:1;" d="M 120.394531 69.226562 C 118.410156 69.09375 116.492188 69.328125 114.703125 69.84375 C 116.425781 67.667969 118.792969 66.375 121.332031 66.542969 C 124.195312 66.734375 126.601562 68.734375 127.972656 71.644531 C 125.78125 70.285156 123.199219 69.410156 120.394531 69.226562 "/>
<path style=" stroke:none;fill-rule:nonzero;fill:rgb(90.588235%,70.196078%,61.568627%);fill-opacity:1;" d="M 65.304688 18.765625 C 77.621094 23.8125 85.988281 24.410156 90.71875 24.078125 C 93.902344 23.851562 92.316406 22.621094 90.894531 22.273438 C 76.304688 18.71875 72.273438 12.777344 72.273438 12.777344 L 65.304688 18.765625 "/>
<path style=" stroke:none;fill-rule:nonzero;fill:rgb(90.588235%,70.196078%,61.568627%);fill-opacity:1;" d="M 136.726562 17.863281 C 136.726562 17.863281 159.261719 30.597656 155.628906 65.175781 C 155.628906 65.175781 158.535156 56.378906 157.703125 44.160156 C 157.183594 36.503906 152.742188 28.191406 147.320312 23.867188 C 141.089844 18.898438 136.726562 17.863281 136.726562 17.863281 "/>
<path style="fill-rule:nonzero;fill:rgb(98.823529%,81.568627%,70.588235%);fill-opacity:1;stroke-width:14;stroke-linecap:round;stroke-linejoin:round;stroke:rgb(13.72549%,12.156863%,12.54902%);stroke-opacity:1;stroke-miterlimit:10;" d="M 191.595283 1158.546089 L 155.360224 1226.650003 C 155.360224 1226.650003 125.77035 1223.945969 93.892275 1239.258345 C 66.026386 1252.621302 11.046894 1302.89746 7.442196 1341.634312 C 4.934579 1368.517437 13.272404 1388.105958 28.694245 1399.771033 C 37.000725 1424.767622 55.651123 1448.06633 71.292381 1448.695175 C 76.40165 1470.013021 107.245333 1486.645971 124.735958 1484.790878 C 142.665416 1507.492183 170.437269 1503.687671 184.385885 1490.607695 C 207.299231 1469.038311 219.2731 1448.003445 219.2731 1448.003445 C 242.81335 1434.294624 259.144203 1404.33016 258.485953 1373.548197 C 257.576942 1330.692409 234.977049 1285.698549 234.977049 1285.698549 L 264.723649 1226.650003 " transform="matrix(0.12462,0,0,-0.124236,1.236614,198.753098)"/>
<path style=" stroke:none;fill-rule:nonzero;fill:rgb(85.490196%,56.470588%,48.235294%);fill-opacity:1;" d="M 13.953125 38.207031 L 20.042969 34.261719 L 20.851562 31.9375 L 22.984375 31.125 L 24.199219 36.488281 L 13.953125 38.207031 "/>
<path style="fill:none;stroke-width:14;stroke-linecap:round;stroke-linejoin:round;stroke:rgb(13.72549%,12.156863%,12.54902%);stroke-opacity:1;stroke-miterlimit:10;" d="M 218.113328 1449.166809 C 195.262672 1456.964487 139.342824 1458.945348 130.284059 1451.682189 C 106.116905 1432.28232 151.5988 1404.738909 187.583097 1401.81478 C 187.583097 1401.81478 167.020641 1364.807251 186.109872 1298.244007 " transform="matrix(0.12462,0,0,-0.124236,1.236614,198.753098)"/>
<path style="fill:none;stroke-width:14;stroke-linecap:round;stroke-linejoin:round;stroke:rgb(13.72549%,12.156863%,12.54902%);stroke-opacity:1;stroke-miterlimit:10;" d="M 32.424325 1394.771716 L 108.122998 1309.594659 " transform="matrix(0.12462,0,0,-0.124236,1.236614,198.753098)"/>
<path style="fill:none;stroke-width:14;stroke-linecap:round;stroke-linejoin:round;stroke:rgb(13.72549%,12.156863%,12.54902%);stroke-opacity:1;stroke-miterlimit:10;" d="M 72.232737 1446.054026 L 153.22875 1344.11825 " transform="matrix(0.12462,0,0,-0.124236,1.236614,198.753098)"/>
<path style="fill:none;stroke-width:14;stroke-linecap:round;stroke-linejoin:round;stroke:rgb(13.72549%,12.156863%,12.54902%);stroke-opacity:1;stroke-miterlimit:10;" d="M 125.300171 1482.71569 L 141.599679 1457.278909 " transform="matrix(0.12462,0,0,-0.124236,1.236614,198.753098)"/>
<path style="fill:none;stroke-width:14;stroke-linecap:round;stroke-linejoin:round;stroke:rgb(13.72549%,12.156863%,12.54902%);stroke-opacity:1;stroke-miterlimit:10;" d="M 825.771498 555.672381 C 880.500228 540.29712 1048.510534 495.271818 1075.21665 481.908861 C 1126.309337 456.346312 1151.354156 316.994258 1123.049435 7.005112 " transform="matrix(0.12462,0,0,-0.124236,1.236614,198.753098)"/>
<path style="fill:none;stroke-width:12;stroke-linecap:round;stroke-linejoin:round;stroke:rgb(13.72549%,12.156863%,12.54902%);stroke-opacity:1;stroke-miterlimit:10;" d="M 999.17318 26.939499 L 1052.39734 332.463846 C 1055.719932 346.612858 1059.888844 360.761871 1072.395582 367.427628 " transform="matrix(0.12462,0,0,-0.124236,1.236614,198.753098)"/>
<path style="fill:none;stroke-width:14;stroke-linecap:round;stroke-linejoin:round;stroke:rgb(13.72549%,12.156863%,12.54902%);stroke-opacity:1;stroke-miterlimit:10;" d="M 708.070248 1155.118883 C 683.182154 1176.814036 617.733363 1191.183145 578.677236 1149.89947 " transform="matrix(0.12462,0,0,-0.124236,1.236614,198.753098)"/>
<path style="fill:none;stroke-width:16;stroke-linecap:round;stroke-linejoin:round;stroke:rgb(13.72549%,12.156863%,12.54902%);stroke-opacity:1;stroke-miterlimit:10;" d="M 703.493848 1043.498895 C 678.668445 1106.257626 557.738638 1114.558381 565.51225 969.861144 " transform="matrix(0.12462,0,0,-0.124236,1.236614,198.753098)"/>
<path style="fill:none;stroke-width:14;stroke-linecap:round;stroke-linejoin:round;stroke:rgb(13.72549%,12.156863%,12.54902%);stroke-opacity:1;stroke-miterlimit:10;" d="M 461.101367 1035.040929 C 461.101367 1035.040929 443.516706 1075.475663 404.836722 1066.137315 C 324.122815 1046.674562 338.134123 873.553532 467.840587 850.160497 " transform="matrix(0.12462,0,0,-0.124236,1.236614,198.753098)"/>
<path style="fill:none;stroke-width:14;stroke-linecap:round;stroke-linejoin:round;stroke:rgb(13.72549%,12.156863%,12.54902%);stroke-opacity:1;stroke-miterlimit:10;" d="M 403.175426 1019.82288 C 403.175426 1019.82288 430.445755 1035.88987 457.810121 963.855675 " transform="matrix(0.12462,0,0,-0.124236,1.236614,198.753098)"/>
<path style="fill:none;stroke-width:14;stroke-linecap:round;stroke-linejoin:round;stroke:rgb(13.72549%,12.156863%,12.54902%);stroke-opacity:1;stroke-miterlimit:10;" d="M 903.883752 1142.164676 C 931.404843 1160.401182 998.138788 1165.997902 1031.427397 1119.966448 " transform="matrix(0.12462,0,0,-0.124236,1.236614,198.753098)"/>
<path style="fill:none;stroke-width:16;stroke-linecap:round;stroke-linejoin:round;stroke:rgb(13.72549%,12.156863%,12.54902%);stroke-opacity:1;stroke-miterlimit:10;" d="M 896.266867 1024.85364 C 924.258136 1089.876214 1053.776529 1086.228913 1026.161402 939.393604 " transform="matrix(0.12462,0,0,-0.124236,1.236614,198.753098)"/>
<path style="fill:none;stroke-width:14;stroke-linecap:round;stroke-linejoin:round;stroke:rgb(13.72549%,12.156863%,12.54902%);stroke-opacity:1;stroke-miterlimit:10;" d="M 1135.24272 989.795531 C 1135.24272 989.795531 1157.967995 1027.557674 1195.112064 1013.188565 C 1272.534724 983.255543 1240.186471 813.215853 1106.499166 807.210383 " transform="matrix(0.12462,0,0,-0.124236,1.236614,198.753098)"/>
<path style="fill:none;stroke-width:14;stroke-linecap:round;stroke-linejoin:round;stroke:rgb(13.72549%,12.156863%,12.54902%);stroke-opacity:1;stroke-miterlimit:10;" d="M 1189.877415 967.125669 C 1189.877415 967.125669 1164.989321 986.619864 1128.37812 918.830372 " transform="matrix(0.12462,0,0,-0.124236,1.236614,198.753098)"/>
<path style="fill:none;stroke-width:14;stroke-linecap:round;stroke-linejoin:round;stroke:rgb(13.72549%,12.156863%,12.54902%);stroke-opacity:1;stroke-miterlimit:10;" d="M 544.636342 1013.848853 L 565.731666 998.662246 " transform="matrix(0.12462,0,0,-0.124236,1.236614,198.753098)"/>
<path style="fill:none;stroke-width:14;stroke-linecap:round;stroke-linejoin:round;stroke:rgb(13.72549%,12.156863%,12.54902%);stroke-opacity:1;stroke-miterlimit:10;" d="M 1029.734756 967.974609 L 1060.170951 979.734011 " transform="matrix(0.12462,0,0,-0.124236,1.236614,198.753098)"/>
<path style="fill:none;stroke-width:14;stroke-linecap:round;stroke-linejoin:round;stroke:rgb(13.72549%,12.156863%,12.54902%);stroke-opacity:1;stroke-miterlimit:10;" d="M 786.558645 839.281479 L 787.875143 859.215865 " transform="matrix(0.12462,0,0,-0.124236,1.236614,198.753098)"/>
<path style="fill:none;stroke-width:14;stroke-linecap:round;stroke-linejoin:round;stroke:rgb(13.72549%,12.156863%,12.54902%);stroke-opacity:1;stroke-miterlimit:10;" d="M 1134.490435 1027.557674 C 1133.236627 961.151641 1123.73903 855.537122 1089.416029 771.617756 C 1025.158356 614.6266 851.631293 589.567127 770.384518 594.943751 C 689.137743 600.288934 520.437843 648.01827 477.400874 812.083932 C 453.10834 904.807128 459.534107 1017.904903 467.777896 1082.644496 C 602.530938 1386.753942 981.181031 1335.377305 981.181031 1335.377305 L 1045.564085 1356.003421 L 1013.905427 1323.209154 C 1013.905427 1323.209154 1038.887556 1160.369739 1134.490435 1027.557674 " transform="matrix(0.12462,0,0,-0.124236,1.236614,198.753098)"/>
<path style="fill:none;stroke-width:14;stroke-linecap:round;stroke-linejoin:round;stroke:rgb(13.72549%,12.156863%,12.54902%);stroke-opacity:1;stroke-miterlimit:10;" d="M 389.320845 1062.898763 C 389.320845 1062.898763 352.082739 1281.328076 471.163178 1432.313762 C 659.579214 1671.211981 1023.246298 1579.809359 1063.086055 1471.930998 C 1063.086055 1471.930998 1365.567297 1381.00001 1215.893936 1002.655412 " transform="matrix(0.12462,0,0,-0.124236,1.236614,198.753098)"/>
<path style="fill:none;stroke-width:14;stroke-linecap:round;stroke-linejoin:round;stroke:rgb(13.72549%,12.156863%,12.54902%);stroke-opacity:1;stroke-miterlimit:10;" d="M 423.706536 865.818738 C 430.571136 818.278056 440.413531 715.273243 406.968196 662.104398 C 406.968196 662.104398 481.507097 672.19736 491.380837 694.930107 C 491.380837 694.930107 505.298108 660.375074 596.826111 648.898653 " transform="matrix(0.12462,0,0,-0.124236,1.236614,198.753098)"/>
<path style="fill:none;stroke-width:14;stroke-linecap:round;stroke-linejoin:round;stroke:rgb(13.72549%,12.156863%,12.54902%);stroke-opacity:1;stroke-miterlimit:10;" d="M 1180.536544 830.666302 C 1182.229185 756.0224 1157.21571 646.005966 1094.650678 598.245188 L 1078.758658 686.126277 C 1078.758658 686.126277 1051.112186 619.531591 934.915506 621.826875 " transform="matrix(0.12462,0,0,-0.124236,1.236614,198.753098)"/>
<path style="fill:none;stroke-width:14;stroke-linecap:round;stroke-linejoin:round;stroke:rgb(13.72549%,12.156863%,12.54902%);stroke-opacity:1;stroke-miterlimit:10;" d="M 826.649164 535.172033 L 823.138501 593.214428 " transform="matrix(0.12462,0,0,-0.124236,1.236614,198.753098)"/>
<path style="fill:none;stroke-width:14;stroke-linecap:round;stroke-linejoin:round;stroke:rgb(13.72549%,12.156863%,12.54902%);stroke-opacity:1;stroke-miterlimit:10;" d="M 724.714553 600.163165 L 718.19475 540.171351 " transform="matrix(0.12462,0,0,-0.124236,1.236614,198.753098)"/>
<path style="fill:none;stroke-width:14;stroke-linecap:round;stroke-linejoin:round;stroke:rgb(13.72549%,12.156863%,12.54902%);stroke-opacity:1;stroke-miterlimit:10;" d="M 629.268399 567.11736 C 629.268399 567.11736 633.500002 502.409209 708.822533 443.014798 C 789.755856 379.155587 929.931619 408.931398 969.081781 508.509005 " transform="matrix(0.12462,0,0,-0.124236,1.236614,198.753098)"/>
<path style="fill:none;stroke-width:14;stroke-linecap:round;stroke-linejoin:round;stroke:rgb(13.72549%,12.156863%,12.54902%);stroke-opacity:1;stroke-miterlimit:10;" d="M 683.27619 802.179623 C 683.27619 802.179623 779.568664 682.164554 893.226382 787.810515 " transform="matrix(0.12462,0,0,-0.124236,1.236614,198.753098)"/>
<path style="fill:none;stroke-width:14;stroke-linecap:round;stroke-linejoin:round;stroke:rgb(13.72549%,12.156863%,12.54902%);stroke-opacity:1;stroke-miterlimit:10;" d="M 452.826233 449.33469 C 483.105702 350.040063 521.127437 102.589553 532.192295 28.385843 " transform="matrix(0.12462,0,0,-0.124236,1.236614,198.753098)"/>
<path style="fill:none;stroke-width:14;stroke-linecap:round;stroke-linejoin:round;stroke:rgb(13.72549%,12.156863%,12.54902%);stroke-opacity:1;stroke-miterlimit:10;" d="M 714.715432 561.017563 C 714.715432 561.017563 645.34849 561.583524 607.013303 578.247916 " transform="matrix(0.12462,0,0,-0.124236,1.236614,198.753098)"/>
<path style="fill-rule:nonzero;fill:rgb(96.078431%,47.843137%,63.921569%);fill-opacity:1;stroke-width:14;stroke-linecap:round;stroke-linejoin:round;stroke:rgb(13.72549%,12.156863%,12.54902%);stroke-opacity:1;stroke-miterlimit:10;" d="M 607.013303 578.247916 C 568.678115 594.912309 442.450969 830.257553 408.033933 902.669055 C 360.545945 1002.686854 265.381899 1273.907705 265.381899 1273.907705 L 150.313646 1150.308219 C 150.313646 1150.308219 364.620822 728.416104 452.951614 448.422865 " transform="matrix(0.12462,0,0,-0.124236,1.236614,198.753098)"/>
<path style="fill:none;stroke-width:14;stroke-linecap:round;stroke-linejoin:round;stroke:rgb(13.72549%,12.156863%,12.54902%);stroke-opacity:1;stroke-miterlimit:10;" d="M 41.514435 1304.721111 C 48.786523 1299.784677 60.540975 1290.697867 77.467387 1286.736143 C 96.964105 1282.177017 111.915768 1295.06834 113.106886 1309.406006 C 136.615791 1306.67053 159.717208 1328.554336 153.855654 1343.489405 C 168.619247 1340.565276 179.307962 1353.708137 178.054154 1364.398502 " transform="matrix(0.12462,0,0,-0.124236,1.236614,198.753098)"/>
<path style=" stroke:none;fill-rule:nonzero;fill:rgb(98.039216%,73.333333%,26.666667%);fill-opacity:1;" d="M 130.71875 197.882812 L 133.054688 182.859375 C 122.988281 172.375 120.164062 157.605469 120.164062 157.605469 C 120.164062 157.605469 119.785156 139.519531 116.632812 131.976562 L 111.90625 130.296875 C 115.820312 144.808594 114.128906 156.414062 114.128906 156.414062 L 83.921875 154.472656 C 83.921875 154.472656 81.929688 140.921875 85.839844 126.914062 L 80.441406 126.914062 C 77.289062 134.050781 77.882812 154.886719 77.882812 154.886719 C 77.882812 154.886719 73.21875 169.925781 63.15625 179.117188 L 65.539062 197.882812 L 130.71875 197.882812 "/>
<path style=" stroke:none;fill-rule:nonzero;fill:rgb(89.411765%,65.882353%,24.705882%);fill-opacity:1;" d="M 97.476562 187.601562 C 70.867188 189.933594 63.5 181.929688 63.5 181.929688 L 65.539062 197.882812 L 130.71875 197.882812 L 133.054688 182.859375 C 132.394531 182.171875 127.539062 176.175781 126.941406 175.457031 C 126.941406 175.625 116.96875 185.894531 97.476562 187.601562 "/>
<path style="fill:none;stroke-width:14;stroke-linecap:round;stroke-linejoin:round;stroke:rgb(13.72549%,12.156863%,12.54902%);stroke-opacity:1;stroke-miterlimit:10;" d="M 1039.012937 7.005112 L 1057.75737 127.932007 C 976.980773 212.323007 954.318189 331.206156 954.318189 331.206156 C 954.318189 331.206156 951.277704 476.783775 925.982123 537.49876 L 888.054423 551.018928 C 919.46232 434.210968 905.889845 340.796042 905.889845 340.796042 L 663.497365 356.42284 C 663.497365 356.42284 647.511309 465.496007 678.887861 578.247916 L 635.568786 578.247916 C 610.273204 520.802925 615.037676 353.089962 615.037676 353.089962 C 615.037676 353.089962 577.611499 232.037298 496.866248 158.053683 L 515.986824 7.005112 " transform="matrix(0.12462,0,0,-0.124236,1.236614,198.753098)"/>
</g>
</svg>
