<?xml version="1.0" encoding="UTF-8"?>
<svg xmlns="http://www.w3.org/2000/svg" xmlns:xlink="http://www.w3.org/1999/xlink" width="159pt" height="200pt" viewBox="0 0 159 200" version="1.1">
<defs>
<filter id="alpha" filterUnits="objectBoundingBox" x="0%" y="0%" width="100%" height="100%">
  <feColorMatrix type="matrix" in="SourceGraphic" values="0 0 0 0 1 0 0 0 0 1 0 0 0 0 1 0 0 0 1 0"/>
</filter>
<mask id="mask0">
  <g filter="url(#alpha)">
<rect x="0" y="0" width="159" height="200" style="fill:rgb(0%,0%,0%);fill-opacity:0.839216;stroke:none;"/>
  </g>
</mask>
<clipPath id="clip1">
  <rect width="159" height="200"/>
</clipPath>
<g id="surface6" clip-path="url(#clip1)">
<path style="fill-rule:evenodd;fill:rgb(0%,0%,0%);fill-opacity:1;stroke-width:0.036;stroke-linecap:butt;stroke-linejoin:miter;stroke:rgb(0%,0%,0%);stroke-opacity:1;stroke-miterlimit:10;" d="M 130.506666 75.662764 C 130.506666 75.662764 128.032118 84.225576 123.412474 76.88917 C 118.80015 69.54542 118.419451 87.846045 111.58882 60.116044 C 109.882992 53.580107 109.2973 45.465263 110.292976 38.224325 C 111.237404 30.689637 109.795138 20.584637 114.619775 14.577449 C 119.327273 8.342605 139.958268 2.049011 147.843145 -0.594739 C 154.563959 -1.26302 155.837838 -0.55802 163.898422 0.918074 C 171.732051 2.093074 179.968342 5.860418 185.43724 10.391511 C 190.620613 14.922605 193.204978 19.982449 195.269542 28.045887 C 197.092508 35.925731 198.388351 47.932763 197.326784 57.699951 C 195.64292 65.117138 199.757405 67.063232 195.635599 73.452295 C 196.990011 72.820732 188.739078 79.569639 190.869532 73.628545 C 191.630931 71.572295 188.797647 73.709326 189.324769 71.293232 C 187.853219 75.765576 186.030253 80.00292 183.20429 84.240264 C 180.261188 88.242608 175.905105 93.419952 172.844865 96.364796 C 169.843194 99.243546 167.90309 100.719639 165.201587 101.89464 C 162.434193 103.06964 159.959645 104.604483 155.962298 102.83464 C 151.606215 100.660889 144.131323 94.124952 140.133976 89.828858 C 136.187877 85.540108 131.941611 75.956514 131.326635 73.863545 C 130.704337 71.77792 130.506666 75.662764 130.506666 75.662764 Z M 130.506666 75.662764 " transform="matrix(0.533557,0,0,0.531915,0.000063489,0.460882)"/>
</g>
</defs>
<g id="surface1">
<path style="fill-rule:evenodd;fill:rgb(0%,0%,0%);fill-opacity:1;stroke-width:0.036;stroke-linecap:butt;stroke-linejoin:miter;stroke:rgb(0%,0%,0%);stroke-opacity:1;stroke-miterlimit:10;" d="M 200.797008 129.257453 C 201.331452 128.904953 203.330126 128.258703 207.034627 127.964953 C 210.687879 127.612453 215.629654 126.966203 222.335826 126.672453 C 219.217017 123.727609 216.508192 121.083859 214.45095 118.491515 C 212.276569 115.781671 211.859263 112.609171 209.567744 111.015577 C 207.034627 109.253077 203.622972 109.311827 200.269886 108.489327 C 196.733771 107.314327 193.380685 108.841827 189.324769 105.368233 C 185.202963 101.89464 180.84688 96.071046 176.022243 87.890108 L 185.678838 75.83167 C 194.793667 79.23917 202.619974 82.947764 209.392036 86.950108 C 216.098208 90.893702 222.160118 96.423546 225.981758 99.720889 C 229.510551 102.724483 227.929183 103.664483 231.457976 105.720733 C 234.928201 107.549327 242.227385 109.488077 246.759176 111.551671 C 251.05669 113.490421 254.761191 115.487921 257.645723 117.786515 C 260.588825 119.784015 262.821775 122.082609 263.707634 124.667609 C 264.351895 127.377453 263.531926 130.146047 261.467362 133.619641 L 191.49915 156.92136 C 194.574033 147.726985 197.692842 138.495891 200.811651 129.257453 Z M 200.797008 129.257453 " transform="matrix(0.533557,0,0,0.531915,0.000063489,0.460882)"/>
<path style="fill-rule:evenodd;fill:rgb(65.098039%,51.764706%,38.039216%);fill-opacity:1;stroke-width:0.036;stroke-linecap:butt;stroke-linejoin:miter;stroke:rgb(0%,0%,0%);stroke-opacity:1;stroke-miterlimit:10;" d="M 202.803003 130.667453 C 203.74011 130.491203 205.980381 130.197453 209.743451 129.786203 C 213.455273 129.374953 218.272589 128.493703 224.693236 127.788703 C 222.987408 125.901359 221.398719 123.903859 219.927168 121.781515 C 218.397048 119.549015 217.218343 116.780421 215.746793 114.841671 C 214.158104 112.778077 213.506521 111.133077 210.863587 109.899327 C 207.920485 108.423233 202.861572 107.306983 199.559734 106.308233 C 196.206649 105.250733 194.617959 106.660733 191.147735 103.723233 C 187.560373 100.484639 183.379997 95.307296 178.379653 87.537608 L 186.96736 78.76917 C 194.676529 81.420264 201.448591 84.181514 207.034627 87.302608 C 212.627984 90.364952 217.042636 93.948702 220.51286 97.187296 C 223.865946 100.073389 223.983084 101.659639 227.219032 105.368233 C 230.220702 109.018077 237.98844 118.667765 238.932869 119.372765 C 239.752837 119.725265 232.277945 110.251827 232.160807 108.665577 C 231.92653 107.013233 235.462644 109.018077 237.98844 109.899327 C 240.397098 110.721827 243.574476 111.603077 246.583468 113.196671 C 249.40211 114.489171 252.696627 116.486671 255.112606 118.491515 C 257.462694 120.312765 260.171519 122.376359 260.94024 124.667609 C 261.525931 126.731203 262.170192 128.846203 258.758537 131.262297 C 255.054037 133.436047 249.460679 135.323391 239.284284 138.730891 C 228.86629 142.086985 215.329487 146.676829 197.561061 152.030422 C 197.678199 148.028079 198.205322 144.260735 199.14975 140.735735 C 200.101499 137.115266 201.097175 133.766516 202.810324 130.645422 Z M 202.803003 130.667453 " transform="matrix(0.533557,0,0,0.531915,0.000063489,0.460882)"/>
<path style="fill-rule:evenodd;fill:rgb(0%,0%,0%);fill-opacity:1;stroke-width:0.036;stroke-linecap:butt;stroke-linejoin:miter;stroke:rgb(0%,0%,0%);stroke-opacity:1;stroke-miterlimit:10;" d="M 135.712002 125.666359 C 136.773569 122.376359 137.593537 117.140265 137.944952 109.311827 C 138.18655 101.483389 138.18655 91.481202 137.710676 79.06292 C 138.18655 82.654014 141.773913 85.305108 148.480084 87.243858 C 155.303394 89.072452 164.784281 90.129952 177.845209 90.423702 C 174.550693 94.477452 172.076145 99.897139 170.428886 106.895733 C 168.66449 113.901671 167.720062 121.965109 167.602923 131.967297 C 157.023864 129.896359 146.364273 127.788703 135.712002 125.666359 Z M 135.712002 125.666359 " transform="matrix(0.533557,0,0,0.531915,0.000063489,0.460882)"/>
<path style="fill-rule:evenodd;fill:rgb(65.098039%,51.764706%,38.039216%);fill-opacity:1;stroke-width:0.036;stroke-linecap:butt;stroke-linejoin:miter;stroke:rgb(0%,0%,0%);stroke-opacity:1;stroke-miterlimit:10;" d="M 137.710676 124.197609 C 138.362258 122.082609 138.94795 118.021515 139.240796 111.368077 C 139.475072 104.721983 139.592211 95.894796 139.592211 84.651514 C 141.598205 87.008858 145.478414 88.712608 151.481755 90.012452 C 157.367958 91.187452 165.369973 91.951202 175.253523 92.068702 C 172.544698 94.132295 170.428886 98.252139 168.898766 104.663233 C 167.310077 111.015577 166.131372 119.431515 165.60425 130.146047 C 156.313713 128.199953 147.015855 126.202453 137.717997 124.204953 Z M 137.710676 124.197609 " transform="matrix(0.533557,0,0,0.531915,0.000063489,0.460882)"/>
<use xlink:href="#surface6" mask="url(#mask0)"/>
<path style="fill-rule:evenodd;fill:rgb(65.098039%,51.764706%,38.039216%);fill-opacity:1;stroke-width:0.036;stroke-linecap:butt;stroke-linejoin:miter;stroke:rgb(0%,0%,0%);stroke-opacity:1;stroke-miterlimit:10;" d="M 152.191907 98.186046 C 149.951635 96.952296 147.484408 94.888702 144.775584 92.244952 C 141.891051 89.358858 138.18655 85.591514 135.88771 81.831514 C 133.537621 77.88792 131.890363 74.003076 130.711658 69.236982 C 129.474384 64.353388 128.654416 59.117294 128.478708 53.051357 C 132.358917 52.463857 136.129308 50.525107 140.243793 47.697763 C 144.30703 44.576669 148.245808 40.515575 152.543322 35.514481 C 156.723697 30.395887 161.20424 28.214793 165.618892 21.392449 C 169.089116 21.157449 172.49345 18.278699 175.963674 19.688699 C 179.492468 21.157449 183.20429 22.398543 186.20596 26.334793 C 188.907464 29.925887 192.143411 34.221981 192.502148 41.932919 C 192.677855 49.820107 189.910461 64.882138 187.853219 72.593076 C 185.43724 79.82667 182.786984 82.007764 179.668175 86.127608 C 176.549366 90.181358 173.19628 94.359952 169.843194 97.069796 C 166.548678 99.544639 162.602579 101.130889 159.842506 101.365889 C 156.840836 101.483389 154.373609 100.425889 152.191907 98.193389 Z M 152.191907 98.186046 " transform="matrix(0.533557,0,0,0.531915,0.000063489,0.460882)"/>
<path style="fill-rule:evenodd;fill:rgb(0%,0%,0%);fill-opacity:1;stroke-width:0.036;stroke-linecap:butt;stroke-linejoin:miter;stroke:rgb(0%,0%,0%);stroke-opacity:1;stroke-miterlimit:10;" d="M 138.296368 49.871513 C 138.889381 49.460263 142.301036 47.521513 145.126999 47.462763 C 147.601547 47.404013 153.656136 48.344013 154.249149 48.931513 C 154.834841 49.225263 151.013202 49.460263 148.890069 49.636513 C 146.657119 49.460263 143.186894 49.460263 141.422498 49.401513 C 139.52632 49.342763 137.652107 50.113857 138.289046 49.871513 Z M 138.296368 49.871513 " transform="matrix(0.533557,0,0,0.531915,0.000063489,0.460882)"/>
<path style="fill-rule:evenodd;fill:rgb(0%,0%,0%);fill-opacity:1;stroke-width:0.036;stroke-linecap:butt;stroke-linejoin:miter;stroke:rgb(0%,0%,0%);stroke-opacity:1;stroke-miterlimit:10;" d="M 174.85086 45.935263 C 175.202275 45.516669 177.669502 45.171513 180.202619 45.105419 C 182.618598 45.281669 187.208958 45.340419 188.270524 45.935263 C 188.973354 46.052763 186.20596 46.522763 184.73441 46.699013 C 182.911444 46.757763 180.261188 46.816513 178.61393 46.640263 C 176.798285 46.346513 174.558014 46.111513 174.858181 45.935263 Z M 174.85086 45.935263 " transform="matrix(0.533557,0,0,0.531915,0.000063489,0.460882)"/>
<path style="fill-rule:evenodd;fill:rgb(0%,0%,0%);fill-opacity:1;stroke-width:0.036;stroke-linecap:butt;stroke-linejoin:miter;stroke:rgb(0%,0%,0%);stroke-opacity:1;stroke-miterlimit:10;" d="M 187.377344 50.818857 C 185.027256 50.341513 182.494138 50.407607 179.551037 50.525107 C 176.490797 50.466357 170.670484 51.641357 170.018902 51.817607 C 169.316072 51.935107 171.021899 52.228857 175.377982 52.052607 C 175.612259 52.816357 176.080813 53.462607 176.790964 53.991357 C 177.259517 54.461357 178.555361 54.87995 179.31676 54.99745 C 180.026911 54.755107 181.081157 54.050107 181.791308 53.521357 C 182.318431 52.933857 182.728415 52.287607 183.028582 51.582607 C 184.441564 51.758857 185.554378 51.817607 186.381668 51.758857 C 187.040571 51.700107 187.450556 51.171357 187.391986 50.818857 Z M 187.377344 50.818857 " transform="matrix(0.533557,0,0,0.531915,0.000063489,0.460882)"/>
<path style="fill-rule:evenodd;fill:rgb(0%,0%,0%);fill-opacity:1;stroke-width:0.036;stroke-linecap:butt;stroke-linejoin:miter;stroke:rgb(0%,0%,0%);stroke-opacity:1;stroke-miterlimit:10;" d="M 157.777943 53.168857 C 155.076439 52.405107 152.484752 52.405107 149.775928 53.403857 C 147.008534 54.285107 142.542633 57.817451 141.598205 58.757451 C 140.602529 59.587294 142.366926 58.639951 143.47974 58.404951 C 144.424168 57.934951 145.661443 57.464951 147.191562 56.52495 C 148.362946 58.992451 149.483082 60.108701 150.544648 59.873701 C 151.606215 59.521201 152.367614 57.934951 153.312042 54.872607 C 154.900731 54.226357 156.072115 53.873857 156.840836 53.580107 C 157.492418 53.227607 157.960971 53.168857 157.777943 53.168857 Z M 157.777943 53.168857 " transform="matrix(0.533557,0,0,0.531915,0.000063489,0.460882)"/>
<path style="fill-rule:evenodd;fill:rgb(0%,0%,0%);fill-opacity:1;stroke-width:0.036;stroke-linecap:butt;stroke-linejoin:miter;stroke:rgb(0%,0%,0%);stroke-opacity:1;stroke-miterlimit:10;" d="M 168.203257 53.403857 C 168.203257 58.463701 168.554672 62.172294 169.023226 65.175888 C 169.491779 67.995888 170.787623 69.119482 171.08779 70.588232 C 171.08779 71.998232 170.904761 73.004326 169.909085 73.591826 C 168.788949 74.179326 167.024552 74.120576 164.608574 73.885576 C 163.612898 73.591826 163.612898 73.591826 164.608574 73.885576 C 165.728709 74.179326 168.788949 75.648076 170.377638 75.354326 C 171.732051 74.825576 172.259173 73.239326 172.434881 71.528232 C 172.317743 69.706982 170.846192 68.113388 170.2605 65.175888 C 169.55767 61.996044 168.803591 58.287451 168.210578 53.403857 Z M 168.203257 53.403857 " transform="matrix(0.533557,0,0,0.531915,0.000063489,0.460882)"/>
<path style="fill-rule:evenodd;fill:rgb(0%,0%,0%);fill-opacity:1;stroke-width:0.036;stroke-linecap:butt;stroke-linejoin:miter;stroke:rgb(0%,0%,0%);stroke-opacity:1;stroke-miterlimit:10;" d="M 163.781284 65.469638 C 163.898422 65.587138 162.836856 66.644638 162.836856 67.702138 C 162.54401 68.708232 163.722715 70.764482 163.429869 71.410732 C 162.953994 71.763232 161.665472 71.234482 161.372626 70.529482 C 160.896752 69.589482 161.306736 67.878388 161.724041 66.997138 C 162.134026 65.998388 163.429869 65.410888 163.781284 65.469638 Z M 163.781284 65.469638 " transform="matrix(0.533557,0,0,0.531915,0.000063489,0.460882)"/>
<path style="fill-rule:evenodd;fill:rgb(0%,0%,0%);fill-opacity:1;stroke-width:0.036;stroke-linecap:butt;stroke-linejoin:miter;stroke:rgb(0%,0%,0%);stroke-opacity:1;stroke-miterlimit:10;" d="M 156.020867 84.945264 C 156.138005 85.121514 158.429525 85.826514 159.725368 86.421358 C 160.728365 86.891358 161.438517 88.418858 162.492762 88.712608 C 163.495759 88.888858 165.611571 88.360108 165.67014 88.007608 C 165.435863 87.537608 162.727039 86.950108 161.665472 86.480108 C 160.611227 85.885264 160.142673 84.651514 159.315384 84.592764 C 158.187927 84.240264 155.954977 84.592764 156.013546 84.945264 Z M 156.020867 84.945264 " transform="matrix(0.533557,0,0,0.531915,0.000063489,0.460882)"/>
<path style="fill-rule:evenodd;fill:rgb(27.058824%,22.352941%,16.470588%);fill-opacity:1;stroke-width:0.036;stroke-linecap:butt;stroke-linejoin:miter;stroke:rgb(0%,0%,0%);stroke-opacity:1;stroke-miterlimit:10;" d="M 127.182865 59.939794 C 126.655742 54.108857 126.655742 47.639013 128.303 42.109169 C 129.774551 36.454481 133.361914 30.865887 136.832138 26.922293 C 140.302362 22.743699 143.955615 19.982449 148.89739 18.153855 C 153.722026 16.332605 159.139676 15.745105 165.611571 16.156355 C 163.964313 13.857762 161.548334 12.447762 158.370956 11.684011 C 166.841524 11.66198 157.155645 9.892136 158.546663 9.267918 C 161.958318 9.091668 165.194265 9.385418 167.610244 10.391511 C 163.964313 8.269168 160.486767 6.976668 156.313713 6.506668 C 147.316022 6.84448 167.529712 2.548386 154.578601 4.479792 C 157.755979 3.598542 157.660804 2.798074 162.251164 2.034324 C 156.430851 0.73448 150.954633 0.61698 145.368597 1.681824 C 139.599532 2.739324 133.537621 5.265574 129.005831 8.151668 C 124.47404 10.802761 118.66837 11.089168 115.842407 15.737762 C 112.899305 20.327606 113.001801 29.044637 112.115942 35.808231 C 111.295974 42.637919 111.471681 50.995107 112.884663 57.699951 C 118.587837 66.916357 124.232442 77.153545 127.08769 76.646826 C 129.942938 76.140107 130.008828 64.889482 127.182865 59.939794 Z M 127.182865 59.939794 " transform="matrix(0.533557,0,0,0.531915,0.000063489,0.460882)"/>
<path style="fill-rule:evenodd;fill:rgb(27.058824%,22.352941%,16.470588%);fill-opacity:1;stroke-width:0.036;stroke-linecap:butt;stroke-linejoin:miter;stroke:rgb(0%,0%,0%);stroke-opacity:1;stroke-miterlimit:10;" d="M 176.900781 6.095418 C 180.554034 8.092918 185.078504 10.626511 188.021605 14.628855 C 191.023276 18.572449 192.96338 23.632293 194.55939 30.043387 C 195.906482 36.285575 196.733771 45.281669 196.558064 52.522607 C 194.698492 76.140107 193.248905 77.53542 190.847568 66.292138 C 191.967704 60.879794 192.904811 56.1137 193.439255 51.993857 C 193.966377 47.756513 194.4935 45.112763 194.142085 41.580419 C 193.380685 37.754325 192.143411 33.751981 190.437584 30.454637 C 188.790326 27.282137 186.96736 24.337293 184.317104 22.273699 C 181.374003 20.041199 176.490797 18.219949 173.723403 17.272605 C 170.838871 16.156355 169.015905 15.862605 167.778631 16.156355 C 158.634517 9.804011 166.482788 10.42823 170.780301 12.447762 C 148.882748 8.944793 159.22753 -3.407395 176.900781 6.095418 Z M 176.900781 6.095418 " transform="matrix(0.533557,0,0,0.531915,0.000063489,0.460882)"/>
<path style=" stroke:none;fill-rule:evenodd;fill:rgb(52.156863%,24.313725%,24.313725%);fill-opacity:1;" d="M 85.722656 43.734375 C 84.90625 43.609375 84.027344 44.019531 84.058594 44.238281 C 84.058594 44.425781 85.21875 44.675781 85.847656 44.988281 C 86.347656 45.238281 86.570312 45.582031 87.226562 45.769531 C 87.886719 45.800781 89.019531 45.957031 89.644531 45.644531 C 90.210938 45.238281 90.460938 44.144531 90.523438 43.925781 C 90.398438 43.703125 89.894531 43.988281 89.519531 44.175781 C 89.175781 44.207031 88.796875 44.675781 88.265625 44.613281 C 87.632812 44.457031 86.347656 43.765625 85.71875 43.734375 Z M 85.722656 43.734375 "/>
<path style="fill-rule:evenodd;fill:rgb(0%,0%,0%);fill-opacity:1;stroke-width:0.036;stroke-linecap:butt;stroke-linejoin:miter;stroke:rgb(0%,0%,0%);stroke-opacity:1;stroke-miterlimit:10;" d="M 156.189253 82.536514 C 156.130684 82.17667 160.135352 80.53167 161.606903 80.53167 C 162.836856 80.47292 163.305409 82.125264 164.366976 82.301514 C 165.311404 82.301514 166.782955 81.06042 167.90309 80.88417 C 168.957336 80.53167 170.19461 80.53167 171.131717 80.64917 C 171.900437 80.64917 173.137711 81.00167 173.020573 81.23667 C 172.544698 81.29542 171.197607 81.41292 169.667487 81.831514 C 167.961659 82.301514 165.60425 83.652764 164.191268 83.829014 C 162.778287 83.652764 162.895425 82.301514 161.599582 82.00042 C 160.325702 81.890264 156.035509 82.595264 156.203896 82.536514 Z M 156.189253 82.536514 " transform="matrix(0.533557,0,0,0.531915,0.000063489,0.460882)"/>
<path style=" stroke:none;fill-rule:evenodd;fill:rgb(27.058824%,22.352941%,16.470588%);fill-opacity:1;" d="M 88.332031 9.273438 C 88.203125 9.304688 87.546875 10.117188 86.351562 11.714844 C 85.003906 13.28125 82.804688 16.410156 80.984375 18.570312 C 79.097656 20.574219 77.875 22.199219 75.488281 23.921875 C 73.074219 25.550781 67.921875 28.023438 66.699219 28.460938 C 66.777344 22.828125 57.21875 34.796875 71.25 14.40625 C 72.789062 12.277344 74.734375 10.746094 77.089844 9.804688 C 79.351562 8.710938 83.308594 8.179688 85.222656 8.085938 C 87.074219 7.957031 88.042969 7.34375 88.261719 8.21875 Z M 88.332031 9.273438 "/>
<path style="fill-rule:evenodd;fill:rgb(0%,0%,0%);fill-opacity:1;stroke-width:0.036;stroke-linecap:butt;stroke-linejoin:miter;stroke:rgb(0%,0%,0%);stroke-opacity:1;stroke-miterlimit:10;" d="M 148.838821 104.780733 C 144.072753 102.24714 138.955271 99.897139 133.010499 97.481046 C 126.83145 95.072296 118.360881 91.774952 113.470355 90.541202 C 108.52858 89.307452 108.352872 89.072452 104.531233 89.836202 C 100.467996 90.247452 94.698931 91.128702 90.877292 93.838545 C 86.938514 96.482296 84.229689 100.190889 82.106556 106.073233 C 80.049314 111.904171 79.280593 123.140109 78.694901 128.669953 C 77.874933 134.023547 77.457627 135.910891 77.933502 138.143391 C 78.284917 140.089485 79.463622 141.323235 81.228019 141.205735 C 80.752144 149.327922 80.049314 158.03761 78.870609 167.804798 C 77.633335 177.513236 76.103215 187.809174 74.280249 199.169955 C 70.868594 205.999643 67.691216 214.055737 64.982391 224.057925 C 62.097859 234.001363 58.100512 247.836988 57.507499 258.309176 C 56.7461 268.370114 57.280543 276.962302 61.160752 285.436989 C 65.099529 293.911677 71.578745 301.622615 81.04499 308.797459 C 75.517523 310.442459 71.220009 311.683553 67.456939 312.506053 C 63.811007 313.152303 61.27789 312.447303 58.92048 313.563553 C 56.277546 314.621053 55.450256 317.272147 52.331447 319.034647 C 49.0955 320.510741 45.859552 321.685741 40.156378 323.213241 C 34.035898 324.571834 23.676474 326.158085 17.731702 327.979335 C 11.911389 329.690428 7.731013 331.922928 5.66645 333.986522 C 3.550638 335.866522 3.316361 337.812616 4.963619 339.810116 C 2.313364 341.69746 0.783244 343.45996 0.607536 345.10496 C 0.31469 346.757304 1.134659 347.932304 3.316361 349.283554 C 1.134659 350.223554 -0.0367247 351.464648 0.0218445 352.757148 C -0.0367247 353.932148 1.134659 355.400898 3.316361 356.935742 C 2.137656 357.934492 1.193228 359.116836 0.958951 360.233086 C 0.607536 361.408086 0.724675 362.994336 1.317688 363.88293 C 1.903379 364.64668 2.723348 364.99918 4.260789 364.94043 C 2.254795 366.52668 1.024842 368.17168 0.783244 369.882773 C 0.431829 371.469024 0.900382 373.936524 2.430502 374.825117 C 3.843484 375.647617 4.90505 375.588867 9.905394 374.413867 C 15.030198 372.937774 25.206594 369.354023 32.505778 366.58543 C 39.563365 363.816836 46.152398 361.055586 52.514476 358.051992 C 59.103509 357.288242 64.103853 356.406992 68.401367 355.643242 C 72.523174 354.695898 71.871591 353.638398 77.106212 352.933398 C 82.106556 352.169648 89.054326 351.699648 98.820737 351.288398 C 108.52858 350.818398 120.71097 350.223554 134.892034 349.995898 C 148.89739 349.636054 168.437534 349.107304 182.384321 349.283554 C 196.038262 349.107304 207.451932 350.172148 216.866928 349.995898 C 226.047648 349.753554 232.578112 349.107304 237.812733 347.814804 C 242.937537 346.463554 246.173484 345.641054 247.99645 341.46246 C 249.643708 336.931366 248.582142 326.745585 247.99645 321.568241 C 247.176481 316.567147 245.229056 312.917303 243.991782 310.861053 C 242.761829 308.562459 241.583124 307.446209 240.697265 307.739959 C 244.291949 304.919959 246.876314 301.446365 249.116586 297.326521 C 251.173828 293.089177 253.172502 287.735583 253.28964 282.616989 C 253.348209 277.197302 251.942549 271.961208 249.292293 266.020114 C 253.816763 264.13277 260.061702 262.78152 268.239424 261.72402 C 276.358577 260.600426 286.183558 260.02027 297.955964 259.72652 C 297.487411 251.898082 295.840152 244.598394 293.014189 237.122457 C 290.071088 229.595113 285.949281 222.589175 280.656091 215.414331 C 287.779568 206.822143 291.484069 197.877455 291.776915 187.934017 C 291.952623 177.865736 288.716675 167.452298 282.069073 156.04011 L 289.543965 151.861516 L 289.719673 149.680422 L 287.947955 149.269172 C 287.655109 149.562922 287.655109 148.975422 287.947955 147.271672 C 288.189553 145.560578 288.716675 142.975578 289.543965 139.266985 C 287.362263 137.739484 284.953605 136.439641 282.30335 135.617141 C 279.360248 134.618391 275.772886 133.854641 273.356907 133.795891 C 270.948249 133.619641 269.183852 133.854641 268.063717 134.735891 C 267.419456 134.794641 266.709304 134.618391 265.713628 133.972141 C 264.652062 133.259797 263.297649 132.319797 261.884668 130.909797 C 261.298976 129.911047 259.768856 129.022453 257.294308 128.493703 C 254.81976 127.847453 251.349536 127.436203 247.117912 127.259953 C 236.106905 130.792297 226.516202 134.442141 218.104202 137.974484 C 209.743451 141.558235 202.568726 144.796828 196.799662 148.387922 C 197.092508 146.324328 197.626951 143.739328 198.622627 140.383235 C 199.508486 136.968391 200.862899 133.024797 202.451588 128.317453 C 199.039933 125.379953 195.38668 123.081359 191.506472 121.201359 C 187.560373 119.321359 183.387318 117.845265 178.972666 117.022765 C 178.738389 115.377765 177.676823 114.077921 176.029565 112.491671 C 174.206599 110.905421 171.79062 109.370577 168.554672 107.901827 L 162.375623 124.674953 C 160.611227 119.673859 158.788261 115.612765 156.899405 112.491671 C 154.900731 109.260421 152.843489 107.079327 150.727677 105.728077 L 148.846142 104.729327 Z M 148.838821 104.780733 " transform="matrix(0.533557,0,0,0.531915,0.000063489,0.460882)"/>
<path style="fill-rule:evenodd;fill:rgb(89.019608%,60%,92.941176%);fill-opacity:1;stroke-width:0.036;stroke-linecap:butt;stroke-linejoin:miter;stroke:rgb(0%,0%,0%);stroke-opacity:1;stroke-miterlimit:10;" d="M 122.299659 94.947452 C 123.946917 96.952296 125.477037 99.361046 127.358572 102.42339 C 129.13029 105.368233 131.011825 108.775733 133.010499 112.660577 C 137.717997 111.191827 142.015511 110.898077 146.129996 111.544327 C 150.310372 112.131827 153.780596 113.842921 157.433849 116.662921 C 156.54799 113.255421 154.549316 110.545577 151.430507 108.070733 C 148.135991 105.603233 143.369923 104.134483 138.486717 102.07089 C 133.471731 99.838389 128.295679 97.539796 122.292338 94.954796 Z M 122.299659 94.947452 " transform="matrix(0.533557,0,0,0.531915,0.000063489,0.460882)"/>
<path style="fill-rule:evenodd;fill:rgb(89.019608%,60%,92.941176%);fill-opacity:1;stroke-width:0.036;stroke-linecap:butt;stroke-linejoin:miter;stroke:rgb(0%,0%,0%);stroke-opacity:1;stroke-miterlimit:10;" d="M 163.839853 124.491359 C 163.898422 124.197609 164.425545 123.022609 165.428542 120.489015 C 166.314401 118.014171 167.661492 114.430421 169.491779 109.715734 C 171.607591 111.191827 173.489126 112.778077 175.136385 114.489171 C 176.783643 116.192921 177.962348 117.720421 179.31676 119.960265 C 180.378327 121.957765 181.608279 124.256359 182.377 126.841359 C 179.668175 125.431359 177.259517 124.491359 175.136385 123.786359 C 173.020573 123.022609 171.139038 122.486515 169.491779 122.662765 C 167.551675 122.787609 165.67014 123.316359 163.839853 124.491359 Z M 163.839853 124.491359 " transform="matrix(0.533557,0,0,0.531915,0.000063489,0.460882)"/>
<path style="fill-rule:evenodd;fill:rgb(89.019608%,60%,92.941176%);fill-opacity:1;stroke-width:0.036;stroke-linecap:butt;stroke-linejoin:miter;stroke:rgb(0%,0%,0%);stroke-opacity:1;stroke-miterlimit:10;" d="M 163.429869 137.262141 C 163.429869 134.611047 163.488438 132.496047 163.839853 130.667453 C 163.956991 128.728703 164.081451 127.193859 165.077127 126.312609 C 165.904417 125.372609 167.075801 124.667609 169.491779 124.843859 C 171.966327 124.726359 176.315089 125.196359 179.141053 126.488859 C 181.381324 127.671203 183.14572 129.374953 184.441564 132.496047 C 185.730086 135.433547 186.081501 141.198391 187.318775 144.554485 C 188.614618 147.675579 190.503474 148.674329 191.850566 151.854172 C 192.970701 155.034016 193.915129 159.029016 194.442252 163.85386 C 193.439255 167.268704 191.616289 170.213548 188.966033 173.151048 C 186.20596 175.919642 182.611277 179.745736 178.196624 180.803236 C 173.606265 181.743236 168.078798 179.921986 161.84118 179.158236 C 155.427854 178.159486 144.658445 176.859642 140.653777 175.508392 C 136.422154 174.098392 138.420827 172.681048 137.593537 170.624798 C 136.832138 168.208704 136.356263 165.623704 135.946279 162.20886 C 135.360587 158.794016 135.419156 154.967923 134.299021 150.730579 C 132.82747 146.500579 131.004504 141.844641 128.119972 136.784797 C 128.002833 135.081047 127.885695 133.142297 127.53428 130.961203 C 127.182865 128.787453 127.007157 126.665109 126.121298 123.485265 C 125.125622 119.960265 122.058061 111.426827 121.706646 110.839327 C 121.120954 110.310577 122.592505 116.016671 123.178197 120.489015 C 123.712641 124.785109 124.181194 130.256203 124.825455 136.902297 C 121.530939 134.611047 117.592161 133.553547 113.001801 133.259797 C 108.118595 132.966047 101.990794 134.141047 97.107589 135.433547 C 92.224383 136.549797 86.931193 139.494641 84.163799 139.964641 C 81.337836 140.258391 80.393408 139.435891 79.983423 137.262141 C 79.397732 134.728547 80.393408 130.784953 80.927851 126.136359 C 81.220697 121.370265 80.693575 114.900421 82.516541 109.899327 C 84.280937 104.83214 87.282608 98.949796 91.287276 96.063702 C 95.108915 92.949952 100.995118 92.002608 105.526909 91.892452 C 109.817102 91.657452 113.646062 92.832452 116.999148 94.771202 C 120.059388 96.599796 121.530939 99.008546 124.122625 102.65839 C 126.597173 106.190733 129.122969 110.545577 131.948932 115.957921 C 135.18488 114.371671 138.537965 113.424327 141.773913 113.365577 C 145.06843 113.130577 148.597223 113.953077 151.423186 115.194171 C 153.956303 116.369171 155.779269 118.131671 157.602235 120.489015 C 159.366632 122.545265 160.486767 124.843859 161.606903 127.605109 C 160.955321 128.552453 160.603906 129.844953 160.545336 131.254953 C 160.428198 132.606203 160.603906 134.317297 161.072459 136.138547 C 161.848501 136.491047 162.617221 136.843547 163.43719 137.247453 Z M 163.429869 137.262141 " transform="matrix(0.533557,0,0,0.531915,0.000063489,0.460882)"/>
<path style="fill-rule:evenodd;fill:rgb(89.019608%,60%,92.941176%);fill-opacity:1;stroke-width:0.036;stroke-linecap:butt;stroke-linejoin:miter;stroke:rgb(0%,0%,0%);stroke-opacity:1;stroke-miterlimit:10;" d="M 180.788311 119.372765 C 183.731412 119.784015 186.96736 120.841515 190.261876 122.310265 C 193.439255 123.845109 196.9168 125.548859 200.445593 128.141203 C 198.915473 130.314953 197.61963 132.731047 196.799662 135.609797 C 195.972372 138.437141 195.738095 142.674485 195.152403 144.906985 C 194.500821 146.970579 193.380685 148.145579 192.443579 148.204329 C 190.679182 146.324328 189.207631 144.201985 188.263203 141.609641 C 187.084498 138.907141 187.084498 135.492297 186.440237 132.723703 C 185.854545 129.844953 185.261532 127.193859 184.441564 125.020109 C 183.401961 122.721515 182.340394 120.841515 180.810274 119.365421 Z M 180.788311 119.372765 " transform="matrix(0.533557,0,0,0.531915,0.000063489,0.460882)"/>
<path style="fill-rule:evenodd;fill:rgb(65.098039%,51.764706%,38.039216%);fill-opacity:1;stroke-width:0.036;stroke-linecap:butt;stroke-linejoin:miter;stroke:rgb(0%,0%,0%);stroke-opacity:1;stroke-miterlimit:10;" d="M 86.931193 140.970735 C 91.638691 139.024641 96.229051 137.497141 100.936549 136.615891 C 105.46834 135.558391 110.175838 134.912141 114.59049 135.323391 C 118.763545 135.675891 122.94392 137.027141 126.648421 139.142141 C 128.771554 143.026985 130.477381 147.029329 131.773225 151.384172 C 132.89336 155.739016 133.713329 160.68136 134.474728 164.859954 C 135.067741 168.744798 135.302018 171.807142 136.121987 174.685892 C 136.890707 177.513236 138.303689 181.04558 139.006519 181.63308 C 139.599532 182.10308 139.71667 180.57558 139.599532 177.278236 C 143.714017 178.394486 148.245808 179.275736 153.421859 180.156986 C 158.546663 181.04558 165.135696 181.92683 170.018902 182.33808 C 174.492123 182.57308 177.903778 182.63183 181.139726 181.80933 C 184.317104 180.81058 186.908791 178.511986 189.141741 176.514486 C 191.206304 174.157142 192.853563 171.513392 194.083516 169.038548 C 195.145082 166.622454 195.496497 164.331204 196.265218 162.15011 C 196.85091 159.62386 196.733771 157.149016 198.439599 155.210266 C 200.145426 153.271516 203.974387 151.501672 206.265906 151.031672 C 208.33047 150.444172 209.919159 150.679172 211.031973 151.736672 C 211.683556 151.619172 212.979399 151.384172 214.685226 151.031672 C 216.332485 150.620422 219.74414 149.144329 221.27426 149.144329 C 222.628672 148.850579 224.27593 149.144329 223.272933 150.032922 C 222.277257 150.737922 219.451294 152.324172 215.036641 154.152766 C 220.271262 152.324172 224.97876 149.680422 227.394739 149.504172 C 229.869287 149.327922 229.100567 150.267922 227.804724 151.619172 C 226.450311 152.970422 222.921518 153.800266 218.98274 156.620266 C 224.393069 153.917766 226.918865 152.911672 229.159136 152.559172 C 231.457976 152.147922 231.516546 153.557922 229.686259 155.210266 C 227.863293 156.914016 226.274604 156.209016 221.157121 160.15261 C 226.040327 157.912766 229.334844 156.620266 229.979105 156.855266 C 229.979105 156.855266 231.750822 157.736516 230.572118 158.86011 C 229.451982 159.91761 227.33617 160.09386 225.154468 161.62136 C 222.980087 163.14886 219.74414 164.213704 217.035315 165.976204 C 214.267921 167.738704 210.856266 169.273548 209.209008 171.799798 C 207.561749 174.333392 208.974731 178.159486 207.386042 181.096986 C 205.680214 184.04183 203.322804 186.21558 199.325458 189.277924 C 195.379359 192.340268 189.258879 196.166361 183.672843 199.280112 C 178.079486 202.459955 175.077815 206.227299 166.021555 208.048549 C 156.899405 209.877143 144.951291 210.582143 129.532953 210.229643 C 125.535607 205.279955 121.179523 199.632612 116.237749 192.399018 C 111.178835 185.15808 104.875327 175.978392 100.058011 167.386204 C 95.086952 158.727923 90.789438 150.076985 86.909229 140.956047 Z M 86.931193 140.970735 " transform="matrix(0.533557,0,0,0.531915,0.000063489,0.460882)"/>
<path style="fill-rule:evenodd;fill:rgb(87.843137%,87.843137%,87.843137%);fill-opacity:1;stroke-width:0.036;stroke-linecap:butt;stroke-linejoin:miter;stroke:rgb(0%,0%,0%);stroke-opacity:1;stroke-miterlimit:10;" d="M 194.800988 151.207922 C 198.388351 148.975422 202.803003 146.676829 208.279222 144.091828 C 213.806688 141.381985 220.395722 138.084641 227.40206 135.558391 C 234.166801 132.848547 241.407417 130.498547 249.116586 128.258703 C 253.348209 129.139953 256.708616 130.087297 258.941566 131.321047 C 261.174516 132.378547 262.528929 133.729797 262.763205 135.147141 L 230.872285 149.562922 L 267.529273 136.792141 C 270.355236 135.852141 273.356907 135.499641 275.890024 135.734641 C 278.357251 135.969641 281.534629 137.203391 283.181887 138.084641 C 284.829146 138.730891 285.539297 139.729641 285.539297 140.441985 C 283.950608 140.618235 277.595851 143.739328 266.23343 149.562922 C 254.81976 155.445266 238.81573 163.861204 217.745466 175.273392 L 211.917832 170.867142 C 215.161101 168.803548 218.572756 166.806048 221.925842 164.859954 C 225.454635 162.862454 230.454979 160.38761 232.160807 159.03636 C 233.45665 157.442766 232.812389 156.561516 229.986426 155.915266 C 231.692253 154.446516 232.402405 153.271516 232.336514 152.617922 C 232.102237 151.912922 231.047992 151.501672 229.159136 151.619172 C 229.927856 149.915422 229.927856 149.034172 229.159136 148.740422 C 228.280598 148.329172 226.867617 148.740422 224.451638 149.739172 C 224.927512 148.329172 224.100223 147.793079 221.984411 147.910579 C 219.74414 148.035422 216.391054 148.916672 211.683556 150.561672 C 211.33214 149.445422 210.212005 148.916672 208.564746 149.210422 C 206.741781 149.269172 203.212987 150.972922 201.3827 151.795422 C 199.618304 152.500422 198.095505 153.322922 197.443923 154.035266 C 196.558064 153.080579 195.672205 152.140579 194.793667 151.200579 Z M 194.800988 151.207922 " transform="matrix(0.533557,0,0,0.531915,0.000063489,0.460882)"/>
<path style="fill-rule:evenodd;fill:rgb(87.843137%,87.843137%,87.843137%);fill-opacity:1;stroke-width:0.036;stroke-linecap:butt;stroke-linejoin:miter;stroke:rgb(0%,0%,0%);stroke-opacity:1;stroke-miterlimit:10;" d="M 219.041309 176.690736 C 226.216034 172.688392 235.045339 167.922298 246.166163 162.157454 C 257.286987 156.267766 269.9965 149.856672 285.180561 142.263235 L 285.004853 149.739172 L 218.865602 182.16183 C 218.924171 180.34058 218.98274 178.511986 219.041309 176.690736 Z M 219.041309 176.690736 " transform="matrix(0.533557,0,0,0.531915,0.000063489,0.460882)"/>
<path style="fill-rule:evenodd;fill:rgb(87.843137%,87.843137%,87.843137%);fill-opacity:1;stroke-width:0.036;stroke-linecap:butt;stroke-linejoin:miter;stroke:rgb(0%,0%,0%);stroke-opacity:1;stroke-miterlimit:10;" d="M 216.859607 176.507142 L 210.856266 172.328548 C 210.153436 173.275892 209.501853 174.333392 209.560423 175.273392 C 209.443284 176.154642 209.73613 176.918392 210.446282 177.806986 L 216.508192 181.63308 C 216.62533 179.921986 216.742469 178.218236 216.866928 176.507142 Z M 216.859607 176.507142 " transform="matrix(0.533557,0,0,0.531915,0.000063489,0.460882)"/>
<path style="fill-rule:evenodd;fill:rgb(89.019608%,60%,92.941176%);fill-opacity:1;stroke-width:0.036;stroke-linecap:butt;stroke-linejoin:miter;stroke:rgb(0%,0%,0%);stroke-opacity:1;stroke-miterlimit:10;" d="M 83.102232 141.969485 C 82.809387 141.910735 82.516541 144.855578 81.989418 150.561672 C 81.454974 156.385266 80.635006 167.922298 79.983423 176.272142 C 79.280593 184.39433 78.277596 192.105268 77.457627 199.397612 C 81.696572 198.340111 87.224039 198.927612 94.047349 201.402455 C 100.760842 203.818549 110.351545 209.465893 118.060714 213.578393 C 125.652745 217.404487 132.768901 221.641831 139.423824 224.704175 C 145.83715 227.414019 149.365943 229.059019 156.364961 230.762769 C 163.254161 232.415113 171.256176 233.883863 180.612603 234.941363 C 181.022588 231.886363 180.253867 228.177769 178.965345 223.822925 C 177.610933 219.291831 175.077815 214.408237 172.017575 208.518549 C 161.84118 210.817143 153.253473 211.933393 145.778581 212.520893 C 138.303689 213.049643 132.241778 212.410737 127.358572 211.228393 C 121.472369 203.407299 115.820443 195.461361 110.410115 187.397924 C 104.76551 179.040736 98.879306 170.096048 94.581793 162.38511 C 90.22571 154.564016 87.282608 147.793079 85.108227 141.440735 C 84.456645 141.609641 83.812384 141.778547 83.109554 141.962141 Z M 83.102232 141.969485 " transform="matrix(0.533557,0,0,0.531915,0.000063489,0.460882)"/>
<path style="fill-rule:evenodd;fill:rgb(46.27451%,47.45098%,54.901961%);fill-opacity:1;stroke-width:0.036;stroke-linecap:butt;stroke-linejoin:miter;stroke:rgb(0%,0%,0%);stroke-opacity:1;stroke-miterlimit:10;" d="M 78.043319 201.747612 C 75.517523 205.162455 73.042975 209.693549 70.634317 215.583237 C 68.042631 221.289331 64.982391 228.699175 63.276564 236.468863 C 61.395029 244.238551 60.099185 253.770738 60.040616 261.657926 C 60.040616 269.486364 61.102183 276.837458 62.983718 282.609646 C 64.630976 288.02199 66.805357 290.60699 70.392719 294.668083 C 73.811696 298.552927 78.402055 302.790271 83.929522 306.733865 C 93.937532 303.142771 103.411097 300.080427 113.294647 296.907927 C 122.94392 293.728083 128.537277 292.964333 142.132649 288.25699 C 155.603562 283.490896 172.610588 277.072458 193.85656 268.77402 C 192.26055 268.36277 189.149062 268.546364 184.500133 269.30277 C 179.616927 269.956364 166.255832 273.128864 165.787278 272.952614 C 165.377294 272.600114 176.080813 268.36277 181.557031 267.30527 C 186.791652 266.13027 191.733427 265.71902 196.858231 266.07152 C 193.204978 264.771676 189.500477 263.949176 185.495809 263.361676 C 181.381324 262.656676 172.793617 262.774176 172.669158 262.362926 C 172.610588 261.775426 179.734065 260.593082 184.500133 260.659176 C 189.090493 260.717926 196.682523 261.834176 200.035609 263.126676 C 203.095849 264.19152 204.333123 266.18902 203.505833 267.77527 C 202.627295 269.251364 204.743107 268.77402 195.093834 272.482614 C 185.027256 276.132458 156.782266 285.965739 144.834153 289.96074 C 132.951929 293.963083 126.121298 295.725584 124.122625 295.909177 C 127.893016 295.967927 131.42181 297.084177 134.950603 298.611677 C 138.486717 300.139177 142.542633 301.380271 144.841474 305.500115 C 146.781578 309.436365 147.601547 315.267303 147.074424 322.743241 C 155.01787 320.562147 164.081451 318.270897 174.909429 316.324803 C 185.795976 314.261209 200.74576 311.852459 211.097864 310.442459 C 221.164442 308.973709 228.99075 308.790115 234.811062 307.203865 C 240.34585 305.441365 241.641693 303.671521 244.401766 299.845427 C 246.934883 295.725584 249.585139 288.49199 250.529567 283.549646 C 251.349536 278.666052 251.115259 274.546208 249.350862 270.250114 C 247.344868 265.60152 245.170487 261.011676 238.991438 256.715582 C 232.75382 252.419488 221.750134 247.418394 212.100861 244.414801 C 202.151421 241.058707 191.857887 240.177457 180.561355 237.709957 C 168.964657 235.235113 154.25647 232.525269 144.607197 229.587769 C 134.950603 226.466675 129.715982 223.110581 123.419795 219.761831 C 116.889331 216.288237 111.647389 212.227143 106.119922 209.407143 C 100.409426 206.521049 94.230377 204.229799 89.640018 202.988705 C 84.87395 201.659487 81.169449 201.248237 78.05064 201.769643 Z M 78.043319 201.747612 " transform="matrix(0.533557,0,0,0.531915,0.000063489,0.460882)"/>
<path style="fill-rule:evenodd;fill:rgb(46.27451%,47.45098%,54.901961%);fill-opacity:1;stroke-width:0.036;stroke-linecap:butt;stroke-linejoin:miter;stroke:rgb(0%,0%,0%);stroke-opacity:1;stroke-miterlimit:10;" d="M 119.942249 334.096679 C 120.352234 336.160272 120.58651 338.451522 120.410803 340.985116 C 120.176526 343.51871 119.766542 345.92746 118.939252 348.872304 C 138.296368 347.932304 155.010549 347.286054 169.960333 346.92621 C 184.727088 346.51496 197.143756 346.33871 207.444611 346.39746 C 217.679576 346.04496 225.03733 346.581054 231.333517 345.69246 C 237.571135 344.86996 241.692941 343.22496 244.394445 340.985116 C 246.751855 338.282616 246.634716 334.515272 246.576147 330.630428 C 246.517578 326.569335 245.397442 320.921991 244.160168 317.565897 C 242.747187 314.033553 240.689944 311.742303 238.215396 310.214803 C 232.687929 310.391053 224.803053 311.213553 214.32649 312.917303 C 203.498512 314.569647 187.787328 317.389647 175.370661 320.040741 C 162.778287 322.625741 150.068774 325.570585 140.653777 328.155585 C 131.355919 330.586366 124.525288 332.348866 119.934928 334.11871 Z M 119.942249 334.096679 " transform="matrix(0.533557,0,0,0.531915,0.000063489,0.460882)"/>
<path style="fill-rule:evenodd;fill:rgb(65.098039%,51.764706%,38.039216%);fill-opacity:1;stroke-width:0.036;stroke-linecap:butt;stroke-linejoin:miter;stroke:rgb(0%,0%,0%);stroke-opacity:1;stroke-miterlimit:10;" d="M 121.648077 297.142927 C 117.533592 298.494177 112.350219 300.374177 105.878324 302.547927 C 99.172152 304.729021 89.347172 308.496365 83.226692 310.435115 C 77.28192 312.322459 73.687236 312.851209 69.924166 313.849959 C 65.919498 314.437459 62.332135 314.202459 59.806339 315.384803 C 57.156084 316.618553 57.917483 319.791053 54.622967 321.502147 C 50.977035 322.970897 45.976691 323.910897 39.856211 325.203397 C 33.735731 326.503241 24.027889 328.148241 18.903085 329.683085 C 13.844172 331.034335 11.252486 332.796835 9.312381 333.854335 C 7.138 334.794335 6.662126 334.676835 6.310711 335.800429 C 5.842157 336.799179 6.252141 338.855429 6.845154 339.736679 C 7.19657 340.390273 7.840831 340.566523 8.785259 340.265429 C 6.310711 341.036523 4.663452 342.094023 3.843484 343.210273 C 3.133332 344.209023 2.840486 345.743866 3.609207 346.918866 C 4.13633 347.976367 4.897729 349.04121 6.552309 349.86371 C 4.780591 350.15746 3.726345 350.56871 3.133332 351.33246 C 2.547641 351.91996 2.547641 353.513554 3.133332 354.277304 C 3.609207 354.982304 4.663452 355.569804 6.310711 356.039804 C 4.253468 357.927148 3.191902 359.630898 2.899056 360.923398 C 2.489071 362.157148 3.426178 363.398242 4.370606 363.926992 C 5.197896 364.396992 6.427849 364.220742 8.075107 363.633242 C 6.610878 364.808242 5.60788 365.924492 4.83916 367.224336 C 3.843484 368.399336 3.191902 370.161836 3.609207 371.160586 C 3.902053 371.99043 3.843484 373.45918 7.547985 372.63668 C 11.311055 371.63793 19.906083 367.988086 26.026562 365.748242 C 31.912765 363.221992 38.326091 361.217148 43.033589 358.867148 C 47.506811 356.509804 50.215635 354.747304 53.62729 352.21371 C 56.804669 349.56996 59.096188 345.626366 62.983718 343.570116 C 66.688219 341.506523 68.335477 341.565273 76.337492 339.861522 C 84.222368 337.915429 98.820737 335.381835 110.351545 332.503085 C 121.882354 329.683085 133.061747 326.385741 144.834153 322.853397 C 146.129996 316.736053 145.895719 312.197615 144.365599 308.555115 C 142.77691 304.846521 138.889381 303.319021 135.243449 301.431677 C 131.29735 299.441521 127.014478 298.090271 121.648077 297.142927 Z M 121.648077 297.142927 " transform="matrix(0.533557,0,0,0.531915,0.000063489,0.460882)"/>
<path style="fill-rule:evenodd;fill:rgb(65.098039%,51.764706%,38.039216%);fill-opacity:1;stroke-width:0.036;stroke-linecap:butt;stroke-linejoin:miter;stroke:rgb(0%,0%,0%);stroke-opacity:1;stroke-miterlimit:10;" d="M 114.758877 334.449179 C 111.522929 335.036679 107.049708 335.859179 100.694951 337.151679 C 94.340195 338.275272 83.043663 340.214023 77.274599 341.624023 C 71.454286 342.630116 68.745461 343.981366 65.978067 345.038866 C 63.152104 346.16246 62.156428 347.10246 60.274893 348.98246 C 58.093191 350.86246 56.094517 352.926054 53.619969 355.870898 C 58.210329 355.041054 62.566412 354.218554 66.446621 353.161054 C 70.217012 351.986054 72.69156 350.39246 76.806045 349.74621 C 80.752144 349.04121 84.456645 349.09996 90.869971 348.98246 C 97.283296 348.68871 105.168173 348.27746 115.000474 347.98371 C 116.82344 345.215116 117.643409 342.982616 117.709299 340.625273 C 117.643409 338.341366 116.589164 336.285116 114.758877 334.456522 Z M 114.758877 334.449179 " transform="matrix(0.533557,0,0,0.531915,0.000063489,0.460882)"/>
<path style="fill-rule:evenodd;fill:rgb(72.54902%,68.627451%,86.666667%);fill-opacity:1;stroke-width:0.036;stroke-linecap:butt;stroke-linejoin:miter;stroke:rgb(0%,0%,0%);stroke-opacity:1;stroke-miterlimit:10;" d="M 279.653094 157.207766 C 272.529617 160.44636 264.410464 164.566204 254.343885 169.332298 C 244.226059 174.215892 233.105235 179.510736 220.036985 185.870424 L 209.802021 180.215736 C 209.567744 183.27808 207.803347 186.281674 204.977384 189.219174 C 201.917144 192.164018 197.202325 194.345111 192.201981 197.576361 C 187.143067 200.756205 181.139726 203.928705 174.433554 207.820893 C 175.963674 211.345893 177.435225 214.408237 178.61393 217.235581 C 179.726744 219.879331 180.319757 221.054331 181.315433 224.175425 C 182.201292 227.179019 182.962692 230.946363 183.848551 235.477456 C 188.848895 235.829956 194.442252 236.652457 200.621301 238.1873 C 206.741781 239.53855 214.568088 241.77105 220.688568 244.245894 C 226.626019 246.654644 232.219376 249.364488 236.809736 252.603082 C 241.341526 255.599332 245.104596 259.307926 248.106267 263.07527 C 254.81976 261.540426 262.111623 260.365426 270.230776 259.307926 C 278.298682 258.250426 286.944957 257.486676 296.418523 257.009332 C 295.715693 251.420738 294.36128 246.537144 292.83116 241.7123 C 291.066764 236.769957 288.826493 232.532613 286.593542 228.354019 C 284.302023 224.175425 281.710337 220.408081 279.060081 217.059331 C 276.292687 216.170737 273.173878 216.464487 269.2351 217.705581 C 265.230432 218.939331 256.525587 224.410425 255.815436 224.351675 C 255.171175 224.057925 261.057378 218.469331 264.820448 216.648081 C 268.297993 214.760737 276.651423 214.231987 276.944269 213.468237 C 276.768562 212.469487 270.823789 211.463393 265.464709 211.176987 C 259.995812 210.648237 251.642382 210.053393 245.163166 210.758393 C 238.456994 211.287143 226.098896 214.819487 226.516202 214.525737 C 226.984755 213.996987 240.697265 208.584643 248.106267 207.820893 C 255.405452 206.697299 264.761879 208.408393 270.06239 208.878393 C 275.238442 209.230893 277.998515 209.877143 278.825804 210.582143 C 276.05841 208.232143 273.298338 206.344799 269.645085 204.699799 C 266.116291 202.988705 261.994485 201.754955 257.528585 200.756205 C 261.233086 200.403705 264.293325 200.462455 267.353565 201.167455 C 270.172207 201.696205 272.529617 203.106205 275.062734 204.523549 C 277.529961 205.874799 279.770232 207.115893 282.003183 208.878393 C 284.302023 205.757299 286.183558 202.342455 287.420832 198.641205 C 288.709354 194.756361 289.419506 190.342767 289.536644 186.105424 C 289.360936 181.69183 288.592216 177.160736 287.003527 172.512142 C 285.217167 167.569798 282.918326 162.62011 279.623809 157.207766 Z M 279.653094 157.207766 " transform="matrix(0.533557,0,0,0.531915,0.000063489,0.460882)"/>
<path style="fill-rule:evenodd;fill:rgb(0%,0%,0%);fill-opacity:1;stroke-width:0.036;stroke-linecap:butt;stroke-linejoin:miter;stroke:rgb(0%,0%,0%);stroke-opacity:1;stroke-miterlimit:10;" d="M 79.397732 163.61886 C 79.573439 163.97136 76.806045 164.55886 71.747132 165.388704 C 66.336803 166.093704 58.861911 167.151204 48.209641 168.326204 C 45.325109 176.389642 43.560712 183.57183 42.916451 190.746674 C 42.030592 197.627768 41.4449 199.867612 44.095156 210.163549 C 46.73809 220.466831 51.562727 234.170269 58.803342 251.949488 C 59.096188 246.823551 60.567739 240.294957 63.452271 231.702769 C 66.336803 223.051831 70.392719 212.990893 75.868938 200.866362 C 77.399058 186.68558 78.577763 176.977142 79.163455 170.624798 C 79.756468 164.26511 79.756468 162.142767 79.397732 163.611517 Z M 79.397732 163.61886 " transform="matrix(0.533557,0,0,0.531915,0.000063489,0.460882)"/>
<path style="fill-rule:evenodd;fill:rgb(72.54902%,68.627451%,86.666667%);fill-opacity:1;stroke-width:0.036;stroke-linecap:butt;stroke-linejoin:miter;stroke:rgb(0%,0%,0%);stroke-opacity:1;stroke-miterlimit:10;" d="M 78.753471 165.55761 C 77.750473 173.738548 76.630338 180.568236 75.868938 186.27433 C 74.865941 191.862924 74.92451 194.337768 73.570098 199.103862 C 72.039978 203.693705 69.104197 209.047299 67.449618 214.224643 C 65.685221 219.343237 64.455268 223.639331 63.100856 229.345425 C 61.746444 234.823863 60.099185 240.764957 58.803342 247.176051 C 57.156084 242.879957 55.508825 237.526363 53.217306 230.234019 C 50.977035 222.875581 46.620952 211.522143 45.617954 204.104955 C 44.50514 196.570268 45.800983 190.864174 46.562383 185.39308 C 47.089505 179.628236 48.326779 174.744642 49.622622 170.272298 C 53.68586 170.096048 58.034622 169.618704 62.917827 168.854954 C 67.808354 168.105892 72.925837 166.923548 78.753471 165.564954 Z M 78.753471 165.55761 " transform="matrix(0.533557,0,0,0.531915,0.000063489,0.460882)"/>
<path style=" stroke:none;fill-rule:evenodd;fill:rgb(27.058824%,22.352941%,16.470588%);fill-opacity:1;" d="M 87.636719 11.5 C 89 11.601562 91.476562 10.070312 91.476562 10.070312 L 95.519531 6.175781 L 90.203125 2.894531 L 89.15625 1.996094 L 86.421875 1.476562 L 76.355469 2.222656 L 80.996094 7.820312 C 80.996094 7.820312 85.109375 11.3125 87.636719 11.5 Z M 87.636719 11.5 "/>
</g>
</svg>
